<?xml version="1.0" encoding="UTF-8" standalone="no"?>
<!-- Created with Inkscape (http://www.inkscape.org/) -->

<svg
   xmlns:dc="http://purl.org/dc/elements/1.1/"
   xmlns:cc="http://creativecommons.org/ns#"
   xmlns:rdf="http://www.w3.org/1999/02/22-rdf-syntax-ns#"
   xmlns:svg="http://www.w3.org/2000/svg"
   xmlns="http://www.w3.org/2000/svg"
   xmlns:sodipodi="http://sodipodi.sourceforge.net/DTD/sodipodi-0.dtd"
   xmlns:inkscape="http://www.inkscape.org/namespaces/inkscape"
   version="1.1"
   id="svg2"
   width="95"
   height="70"
   viewBox="0 0 95 70"
   sodipodi:docname="alex4.svg"
   inkscape:version="0.92.2 5c3e80d, 2017-08-06">
  <metadata
     id="metadata8">
    <rdf:RDF>
      <cc:Work
         rdf:about="">
        <dc:format>image/svg+xml</dc:format>
        <dc:type
           rdf:resource="http://purl.org/dc/dcmitype/StillImage" />
        <dc:title></dc:title>
      </cc:Work>
    </rdf:RDF>
  </metadata>
  <defs
     id="defs6" />
  <sodipodi:namedview
     pagecolor="#ffffff"
     bordercolor="#666666"
     borderopacity="1"
     objecttolerance="10"
     gridtolerance="10"
     guidetolerance="10"
     inkscape:pageopacity="0"
     inkscape:pageshadow="2"
     inkscape:window-width="1918"
     inkscape:window-height="1027"
     id="namedview4"
     showgrid="false"
     inkscape:pagecheckerboard="true"
     inkscape:zoom="2.8736842"
     inkscape:cx="47.5"
     inkscape:cy="35"
     inkscape:window-x="0"
     inkscape:window-y="0"
     inkscape:window-maximized="1"
     inkscape:current-layer="svg2" />
  <path
     style="fill:#ffffff;fill-opacity:1;stroke-width:0.34798536"
     d="m 25.924908,64.613553 c 0,-0.287088 -0.23489,-0.521978 -0.521978,-0.521978 -0.459886,0 -0.521978,-3.518518 -0.521978,-29.578754 0,-26.0602366 0.06209,-29.5787551 0.521978,-29.5787551 0.287088,0 0.521978,-0.2348901 0.521978,-0.521978 0,-0.4582286 2.571226,-0.521978 21.053114,-0.521978 18.481888,0 21.053114,0.063749 21.053114,0.521978 0,0.2870879 0.23489,0.521978 0.521978,0.521978 0.347985,0 0.521978,0.3479854 0.521978,1.0439561 0,0.6959707 0.173992,1.043956 0.521978,1.043956 0.459309,0 0.521978,3.112535 0.521978,25.924908 0,22.812375 -0.06267,25.924909 -0.521978,25.924909 -0.38665,0 -0.521978,0.405984 -0.521978,1.565934 0,1.15995 -0.135328,1.565934 -0.521978,1.565934 -0.347986,0 -0.521978,0.347985 -0.521978,1.043956 0,1.005291 -0.058,1.043956 -1.565935,1.043956 -1.15995,0 -1.565934,0.135328 -1.565934,0.521978 0,0.457768 -2.397232,0.521978 -19.487179,0.521978 -17.089947,0 -19.48718,-0.06421 -19.48718,-0.521978 z"
     id="path12"
     inkscape:connector-curvature="0" />
  <g
     id="g14">
    <path
       style="fill:#82e7f9"
       d="M 27,34.5 V 6 H 47.5 68 v 26.565741 c 0,16.400093 -0.396123,27.305905 -1.035184,28.5 C 65.99579,62.876383 64.685654,63 46.464816,63 H 27 Z M 44.984687,30.25 C 44.967851,26.126954 43.564339,23.071985 42.304373,24.415865 41.861968,24.887735 42.0625,25.474702 42.75,25.720238 43.461246,25.974255 44,27.854762 44,30.083333 44,32.2375 44.225,34 44.5,34 c 0.275,0 0.493109,-1.6875 0.484687,-3.75 z M 43,17.5 C 44.019571,16.271492 43.951235,16 42.622445,16 41.7301,16 41,16.675 41,17.5 41,18.325 41.1699,19 41.377555,19 41.585211,19 42.315311,18.325 43,17.5 Z m 5.729167,-1.104167 c -0.332292,-0.332291 -1.194792,-0.367818 -1.916667,-0.07895 -0.797733,0.319226 -0.560776,0.556183 0.604167,0.604167 1.054166,0.04342 1.644791,-0.192928 1.3125,-0.52522 z"
       id="path32"
       inkscape:connector-curvature="0" />
    <path
       style="fill:#fe9e95"
       d="M 27,34.5 V 6 H 47.5 68 v 26.565741 c 0,16.400093 -0.396123,27.305905 -1.035184,28.5 C 65.99579,62.876383 64.685654,63 46.464816,63 H 27 Z m 7.015313,0.25 c 0.0084,-0.6875 0.424125,-1.896064 0.923784,-2.685698 0.741141,-1.171257 1.190726,-1.201448 2.440883,-0.16391 C 38.951389,33.204546 41,32.644316 41,30.910432 41,30.376088 39.425,28.556029 37.5,26.865856 35.575,25.175684 34,22.942855 34,21.904014 34,19.343123 37.898132,15.023679 39.614757,15.68241 40.376641,15.974772 41,15.715833 41,15.106989 41,14.498145 41.675,14 42.5,14 c 0.825,0 1.5,0.45 1.5,1 0,0.55 -0.675,1 -1.5,1 -0.825,0 -1.5,0.744744 -1.5,1.654988 0,1.460866 0.205266,1.485226 1.75,0.207683 1.194625,-0.987992 3.98604,-1.413313 8.795817,-1.340197 C 59.117361,16.637573 61,17.256473 61,19.630446 61,22.68523 58.28126,24 51.96444,24 46.741374,24 45.879879,24.244587 46.393011,25.581787 46.726855,26.451771 47,29.151771 47,31.581787 V 36 h 8 8 V 23.5 11 H 47 31 v 12.5 c 0,10.444444 0.246667,12.5 1.5,12.5 0.825,0 1.506891,-0.5625 1.515313,-1.25 z M 46,15 c 0,-0.55 0.675,-1 1.5,-1 0.825,0 1.5,0.45 1.5,1 0,0.55 -0.675,1 -1.5,1 C 46.675,16 46,15.55 46,15 Z m -3.583333,19.75 c 0.466666,-1 0.7,-1 1.166666,0 C 44.825326,37.411412 46,35.796958 46,31.428571 46,26.982698 44.398915,24 42.012412,24 41.390667,24 41.160081,23.55 41.5,23 c 0.339919,-0.55 4.416476,-1 9.059017,-1 H 59 l -0.07895,-2.75 c -0.04342,-1.5125 -0.305921,-2.1875 -0.583334,-1.5 -0.323926,0.802775 -2.626105,1.25 -6.434621,1.25 -3.26163,0 -6.798957,0.542525 -7.860727,1.205612 -1.57466,0.983391 -2.275099,0.893747 -3.800085,-0.486346 -1.442174,-1.30515 -2.140811,-1.420741 -3.05594,-0.505612 -1.833812,1.833812 -1.442503,3.16675 1.85793,6.328765 2.107492,2.019106 2.953721,3.689574 2.75,5.42854 -0.329702,2.814334 -3.537863,4.041253 -4.909136,1.877434 -0.681179,-1.074877 -0.857621,-1.02722 -0.869827,0.23494 -0.0084,0.870834 0.284687,1.883334 0.651354,2.25 1.137942,1.137943 5.136018,0.732341 5.75,-0.583333 z"
       id="path30"
       inkscape:connector-curvature="0" />
    <path
       style="fill:#fece44"
       d="M 27,34.5 V 6 h 20 20 v 27.893011 c 0,24.512288 -0.191718,27.96658 -1.581787,28.5 C 64.548229,62.726855 55.548229,63 45.418213,63 H 27 Z m 7.015313,0.25 c 0.0084,-0.6875 0.424125,-1.896064 0.923784,-2.685698 0.741141,-1.171257 1.190726,-1.201448 2.440883,-0.16391 C 38.951389,33.204546 41,32.644316 41,30.910432 41,30.376088 39.425,28.556029 37.5,26.865856 35.575,25.175684 34,22.942855 34,21.904014 34,19.343123 37.898132,15.023679 39.614757,15.68241 40.376641,15.974772 41,15.715833 41,15.106989 41,14.498145 41.675,14 42.5,14 c 0.825,0 1.5,0.45 1.5,1 0,0.55 -0.675,1 -1.5,1 -0.825,0 -1.5,0.744744 -1.5,1.654988 0,1.460866 0.205266,1.485226 1.75,0.207683 1.194625,-0.987992 3.98604,-1.413313 8.795817,-1.340197 C 59.117361,16.637573 61,17.256473 61,19.630446 61,22.68523 58.28126,24 51.96444,24 46.741374,24 45.879879,24.244587 46.393011,25.581787 46.726855,26.451771 47,29.151771 47,31.581787 V 36 h 8 8 V 23.5 11 H 47 31 v 12.5 c 0,10.444444 0.246667,12.5 1.5,12.5 0.825,0 1.506891,-0.5625 1.515313,-1.25 z M 46,15 c 0,-0.55 0.675,-1 1.5,-1 0.825,0 1.5,0.45 1.5,1 0,0.55 -0.675,1 -1.5,1 C 46.675,16 46,15.55 46,15 Z m -3.583333,19.75 c 0.466666,-1 0.7,-1 1.166666,0 C 44.825326,37.411412 46,35.796958 46,31.428571 46,26.982698 44.398915,24 42.012412,24 41.390667,24 41.160081,23.55 41.5,23 c 0.339919,-0.55 4.416476,-1 9.059017,-1 H 59 l -0.07895,-2.75 c -0.04342,-1.5125 -0.305921,-2.1875 -0.583334,-1.5 -0.323926,0.802775 -2.626105,1.25 -6.434621,1.25 -3.26163,0 -6.798957,0.542525 -7.860727,1.205612 -1.57466,0.983391 -2.275099,0.893747 -3.800085,-0.486346 -1.442174,-1.30515 -2.140811,-1.420741 -3.05594,-0.505612 -1.833812,1.833812 -1.442503,3.16675 1.85793,6.328765 2.107492,2.019106 2.953721,3.689574 2.75,5.42854 -0.329702,2.814334 -3.537863,4.041253 -4.909136,1.877434 -0.681179,-1.074877 -0.857621,-1.02722 -0.869827,0.23494 -0.0084,0.870834 0.284687,1.883334 0.651354,2.25 1.137942,1.137943 5.136018,0.732341 5.75,-0.583333 z"
       id="path28"
       inkscape:connector-curvature="0" />
    <path
       style="fill:#fe6d6e"
       d="M 27,34.5 V 6 h 20 20 v 27.893011 c 0,24.512288 -0.191718,27.96658 -1.581787,28.5 C 64.548229,62.726855 55.548229,63 45.418213,63 H 27 Z m 11,18.90638 c 0,-0.87649 0.9,-1.828975 2,-2.116631 C 42.372111,50.669428 42.701864,48 40.40638,48 39.52989,48 38.577405,47.1 38.289749,46 38.002093,44.9 37.196705,44 36.5,44 c -0.696705,0 -1.502093,0.9 -1.789749,2 -0.287656,1.1 -1.240141,2 -2.116631,2 -2.295484,0 -1.965731,2.669428 0.40638,3.289749 1.1,0.287656 2,1.240141 2,2.116631 C 35,54.282871 35.675,55 36.5,55 37.325,55 38,54.282871 38,53.40638 Z M 61.069567,51.416177 C 62.846012,49.275691 61.059122,46.5 57.904709,46.5 c -2.44841,0 -3.585851,2.282589 -2.520667,5.058413 0.736252,1.918644 4.04382,1.835898 5.685525,-0.142236 z M 34.015313,34.75 c 0.0084,-0.6875 0.424125,-1.896064 0.923784,-2.685698 0.741141,-1.171257 1.190726,-1.201448 2.440883,-0.16391 C 38.951389,33.204546 41,32.644316 41,30.910432 41,30.376088 39.425,28.556029 37.5,26.865856 35.575,25.175684 34,22.942855 34,21.904014 34,19.343123 37.898132,15.023679 39.614757,15.68241 40.376641,15.974772 41,15.715833 41,15.106989 41,14.498145 41.675,14 42.5,14 c 0.825,0 1.5,0.45 1.5,1 0,0.55 -0.675,1 -1.5,1 -0.825,0 -1.5,0.744744 -1.5,1.654988 0,1.460866 0.205266,1.485226 1.75,0.207683 1.194625,-0.987992 3.98604,-1.413313 8.795817,-1.340197 C 59.117361,16.637573 61,17.256473 61,19.630446 61,22.68523 58.28126,24 51.96444,24 46.741374,24 45.879879,24.244587 46.393011,25.581787 46.726855,26.451771 47,29.151771 47,31.581787 V 36 h 8 8 V 23.5 11 H 47 31 v 12.5 c 0,10.444444 0.246667,12.5 1.5,12.5 0.825,0 1.506891,-0.5625 1.515313,-1.25 z M 46,15 c 0,-0.55 0.675,-1 1.5,-1 0.825,0 1.5,0.45 1.5,1 0,0.55 -0.675,1 -1.5,1 C 46.675,16 46,15.55 46,15 Z m -3.583333,19.75 c 0.466666,-1 0.7,-1 1.166666,0 C 44.825326,37.411412 46,35.796958 46,31.428571 46,26.982698 44.398915,24 42.012412,24 41.390667,24 41.160081,23.55 41.5,23 c 0.339919,-0.55 4.416476,-1 9.059017,-1 H 59 l -0.07895,-2.75 c -0.04342,-1.5125 -0.305921,-2.1875 -0.583334,-1.5 -0.323926,0.802775 -2.626105,1.25 -6.434621,1.25 -3.26163,0 -6.798957,0.542525 -7.860727,1.205612 -1.57466,0.983391 -2.275099,0.893747 -3.800085,-0.486346 -1.442174,-1.30515 -2.140811,-1.420741 -3.05594,-0.505612 -1.833812,1.833812 -1.442503,3.16675 1.85793,6.328765 2.107492,2.019106 2.953721,3.689574 2.75,5.42854 -0.329702,2.814334 -3.537863,4.041253 -4.909136,1.877434 -0.681179,-1.074877 -0.857621,-1.02722 -0.869827,0.23494 -0.0084,0.870834 0.284687,1.883334 0.651354,2.25 1.137942,1.137943 5.136018,0.732341 5.75,-0.583333 z"
       id="path26"
       inkscape:connector-curvature="0" />
    <path
       style="fill:#fea733"
       d="M 46.74488,45.023357 C 46.305481,30.798982 45.871601,26.728744 44.666214,25.523357 43.828368,24.685511 42.634157,24 42.012412,24 41.390667,24 41.160081,23.55 41.5,23 c 0.339919,-0.55 4.416476,-1 9.059017,-1 H 59 l -0.07895,-2.75 c -0.04342,-1.5125 -0.305921,-2.1875 -0.583334,-1.5 -0.323926,0.802775 -2.626105,1.25 -6.434621,1.25 -3.26163,0 -6.798957,0.542525 -7.860727,1.205612 -1.57466,0.983391 -2.275099,0.893747 -3.800085,-0.486346 -1.442174,-1.30515 -2.140811,-1.420741 -3.05594,-0.505612 -1.833812,1.833812 -1.442503,3.16675 1.85793,6.328765 2.107492,2.019106 2.953721,3.689574 2.75,5.42854 -0.331715,2.831515 -3.493901,4.016222 -5.011195,1.877434 C 36.092924,31.875544 35.963849,32.126652 36.319634,33.75 36.6485,35.250523 36.344294,36 35.40638,36 33.809056,36 33.594133,34.189808 34.939097,32.064302 35.680238,30.893045 36.129823,30.862854 37.37998,31.900392 38.951389,33.204546 41,32.644316 41,30.910432 41,30.376088 39.425,28.556029 37.5,26.865856 35.575,25.175684 34,22.942855 34,21.904014 34,19.343123 37.898132,15.023679 39.614757,15.68241 40.376641,15.974772 41,15.715833 41,15.106989 41,14.498145 41.675,14 42.5,14 c 0.825,0 1.5,0.45 1.5,1 0,0.55 -0.675,1 -1.5,1 -0.825,0 -1.5,0.744744 -1.5,1.654988 0,1.460866 0.205266,1.485226 1.75,0.207683 1.194625,-0.987992 3.98604,-1.413313 8.795817,-1.340197 C 59.117361,16.637573 61,17.256473 61,19.630446 61,22.68523 58.28126,24 51.96444,24 46.741374,24 45.879879,24.244587 46.393011,25.581787 46.726855,26.451771 47,29.151771 47,31.581787 V 36 h 8 8 V 23.5 11 H 55 C 47.133333,11 47,10.95833 47,8.5 V 6 H 57 67 V 33.464816 C 67,65.413425 67.962926,63 55.215836,63 h -7.915648 z m 14.324687,6.39282 C 62.846012,49.275691 61.059122,46.5 57.904709,46.5 c -2.44841,0 -3.585851,2.282589 -2.520667,5.058413 0.736252,1.918644 4.04382,1.835898 5.685525,-0.142236 z m -26.755641,2.676277 c -0.274359,-1.04915 -1.35723,-2.132021 -2.40638,-2.40638 C 30.858396,51.411715 30,50.427982 30,49.5 c 0,-0.927982 0.858396,-1.911715 1.907546,-2.186074 1.04915,-0.274359 2.132021,-1.35723 2.40638,-2.40638 C 34.588285,43.858396 35.572018,43 36.5,43 c 0.927982,0 1.911715,0.858396 2.186074,1.907546 0.274359,1.04915 1.35723,2.132021 2.40638,2.40638 C 42.141604,47.588285 43,48.572018 43,49.5 c 0,0.927982 -0.858396,1.911715 -1.907546,2.186074 -1.04915,0.274359 -2.132021,1.35723 -2.40638,2.40638 C 38.411715,55.141604 37.427982,56 36.5,56 35.572018,56 34.588285,55.141604 34.313926,54.092454 Z M 38,53.40638 c 0,-0.87649 0.9,-1.828975 2,-2.116631 C 42.372111,50.669428 42.701864,48 40.40638,48 39.52989,48 38.577405,47.1 38.289749,46 38.002093,44.9 37.196705,44 36.5,44 c -0.696705,0 -1.502093,0.9 -1.789749,2 -0.287656,1.1 -1.240141,2 -2.116631,2 -2.295484,0 -1.965731,2.669428 0.40638,3.289749 1.1,0.287656 2,1.240141 2,2.116631 C 35,54.282871 35.675,55 36.5,55 37.325,55 38,54.282871 38,53.40638 Z M 42,35 c 0,-0.55 0.45,-1 1,-1 0.55,0 1,0.45 1,1 0,0.55 -0.45,1 -1,1 -0.55,0 -1,-0.45 -1,-1 z m 4,-20 c 0,-0.55 0.675,-1 1.5,-1 0.825,0 1.5,0.45 1.5,1 0,0.55 -0.675,1 -1.5,1 C 46.675,16 46,15.55 46,15 Z"
       id="path24"
       inkscape:connector-curvature="0" />
    <path
       style="fill:#fe3e37"
       d="M 46.74488,45.023357 C 46.305481,30.798982 45.871601,26.728744 44.666214,25.523357 43.828368,24.685511 42.634157,24 42.012412,24 41.390667,24 41.160081,23.55 41.5,23 c 0.339919,-0.55 4.416476,-1 9.059017,-1 H 59 l -0.07895,-2.75 c -0.04342,-1.5125 -0.305921,-2.1875 -0.583334,-1.5 -0.323926,0.802775 -2.626105,1.25 -6.434621,1.25 -3.26163,0 -6.798957,0.542525 -7.860727,1.205612 -1.57466,0.983391 -2.275099,0.893747 -3.800085,-0.486346 -1.442174,-1.30515 -2.140811,-1.420741 -3.05594,-0.505612 -1.833812,1.833812 -1.442503,3.16675 1.85793,6.328765 2.107492,2.019106 2.953721,3.689574 2.75,5.42854 -0.331715,2.831515 -3.493901,4.016222 -5.011195,1.877434 C 36.092924,31.875544 35.963849,32.126652 36.319634,33.75 36.6485,35.250523 36.344294,36 35.40638,36 33.809056,36 33.594133,34.189808 34.939097,32.064302 35.680238,30.893045 36.129823,30.862854 37.37998,31.900392 38.951389,33.204546 41,32.644316 41,30.910432 41,30.376088 39.425,28.556029 37.5,26.865856 35.575,25.175684 34,22.942855 34,21.904014 34,19.343123 37.898132,15.023679 39.614757,15.68241 40.376641,15.974772 41,15.715833 41,15.106989 41,14.498145 41.675,14 42.5,14 c 0.825,0 1.5,0.45 1.5,1 0,0.55 -0.675,1 -1.5,1 -0.825,0 -1.5,0.744744 -1.5,1.654988 0,1.460866 0.205266,1.485226 1.75,0.207683 1.194625,-0.987992 3.98604,-1.413313 8.795817,-1.340197 C 59.117361,16.637573 61,17.256473 61,19.630446 61,22.68523 58.28126,24 51.96444,24 46.741374,24 45.879879,24.244587 46.393011,25.581787 46.726855,26.451771 47,29.151771 47,31.581787 V 36 h 8 8 V 23.5 11 H 55 C 47.133333,11 47,10.95833 47,8.5 V 6 H 57 67 V 33.464816 C 67,65.413425 67.962926,63 55.215836,63 h -7.915648 z m 15.065052,4.793901 c 0.516357,-4.469533 -5.659956,-6.256432 -7.255288,-2.099062 -1.229168,3.20316 0.414432,5.415354 3.78083,5.088788 2.594799,-0.251716 3.220325,-0.789973 3.474458,-2.989726 z M 42,35 c 0,-0.55 0.45,-1 1,-1 0.55,0 1,0.45 1,1 0,0.55 -0.45,1 -1,1 -0.55,0 -1,-0.45 -1,-1 z m 4,-20 c 0,-0.55 0.675,-1 1.5,-1 0.825,0 1.5,0.45 1.5,1 0,0.55 -0.675,1 -1.5,1 C 46.675,16 46,15.55 46,15 Z"
       id="path22"
       inkscape:connector-curvature="0" />
    <path
       style="fill:#fe610f"
       d="m 54.25,53.361459 c -2.153388,-0.909807 -1.528685,-7.141944 0.843141,-8.411306 3.012902,-1.612457 6.764471,-0.365652 7.480186,2.485982 1.112969,4.434422 0.189406,6.04828 -3.581644,6.258657 C 57.071258,53.801927 54.9375,53.651927 54.25,53.361459 Z m 7.559932,-3.544201 c 0.516357,-4.469533 -5.659956,-6.256432 -7.255288,-2.099062 -1.229168,3.20316 0.414432,5.415354 3.78083,5.088788 2.594799,-0.251716 3.220325,-0.789973 3.474458,-2.989726 z M 34.015313,34.75 c 0.0084,-0.6875 0.424125,-1.896064 0.923784,-2.685698 0.741141,-1.171257 1.190726,-1.201448 2.440883,-0.16391 C 38.951389,33.204546 41,32.644316 41,30.910432 41,30.376088 39.425,28.556029 37.5,26.865856 35.575,25.175684 34,22.942855 34,21.904014 34,19.343123 37.898132,15.023679 39.614757,15.68241 40.376641,15.974772 41,15.715833 41,15.106989 41,14.498145 41.675,14 42.5,14 c 0.825,0 1.5,0.45 1.5,1 0,0.55 -0.675,1 -1.5,1 -0.825,0 -1.5,0.744744 -1.5,1.654988 0,1.460866 0.205266,1.485226 1.75,0.207683 1.194625,-0.987992 3.98604,-1.413313 8.795817,-1.340197 C 59.117361,16.637573 61,17.256473 61,19.630446 61,22.638134 58.275249,24 52.257619,24 H 46.37238 l 0.173826,5.75 c 0.118661,3.925199 0.04048,4.359472 -0.246356,1.368406 C 45.884455,26.786724 44.206002,24 42.012412,24 41.390667,24 41.160081,23.55 41.5,23 c 0.339919,-0.55 4.416476,-1 9.059017,-1 H 59 l -0.07895,-2.75 c -0.04342,-1.5125 -0.305921,-2.1875 -0.583334,-1.5 -0.323926,0.802775 -2.626105,1.25 -6.434621,1.25 -3.26163,0 -6.798957,0.542525 -7.860727,1.205612 -1.57466,0.983391 -2.275099,0.893747 -3.800085,-0.486346 -1.442174,-1.30515 -2.140811,-1.420741 -3.05594,-0.505612 -1.833812,1.833812 -1.442503,3.16675 1.85793,6.328765 2.107492,2.019106 2.953721,3.689574 2.75,5.42854 -0.331715,2.831515 -3.493901,4.016222 -5.011195,1.877434 C 36.092924,31.875544 35.963849,32.126652 36.319634,33.75 36.6485,35.250523 36.344294,36 35.40638,36 34.632871,36 34.006891,35.4375 34.015313,34.75 Z M 42,35 c 0,-0.55 0.45,-1 1,-1 0.55,0 1,0.45 1,1 0,0.55 -0.45,1 -1,1 -0.55,0 -1,-0.45 -1,-1 z m 4,-20 c 0,-0.55 0.675,-1 1.5,-1 0.825,0 1.5,0.45 1.5,1 0,0.55 -0.675,1 -1.5,1 C 46.675,16 46,15.55 46,15 Z"
       id="path20"
       inkscape:connector-curvature="0" />
    <path
       style="fill:#4a8395"
       d="m 34.015313,34.75 c 0.0084,-0.6875 0.424125,-1.896064 0.923784,-2.685698 0.741141,-1.171257 1.190726,-1.201448 2.440883,-0.16391 C 38.951389,33.204546 41,32.644316 41,30.910432 41,30.376088 39.425,28.556029 37.5,26.865856 35.575,25.175684 34,22.942855 34,21.904014 34,19.343123 37.898132,15.023679 39.614757,15.68241 40.376641,15.974772 41,15.715833 41,15.106989 41,14.498145 41.675,14 42.5,14 c 0.825,0 1.5,0.45 1.5,1 0,0.55 -0.675,1 -1.5,1 -0.825,0 -1.5,0.744744 -1.5,1.654988 0,1.460866 0.205266,1.485226 1.75,0.207683 1.194625,-0.987992 3.98604,-1.413313 8.795817,-1.340197 C 59.117361,16.637573 61,17.256473 61,19.630446 61,22.638134 58.275249,24 52.257619,24 H 46.37238 l 0.173826,5.75 c 0.118661,3.925199 0.04048,4.359472 -0.246356,1.368406 C 45.884455,26.786724 44.206002,24 42.012412,24 41.390667,24 41.160081,23.55 41.5,23 c 0.339919,-0.55 4.416476,-1 9.059017,-1 H 59 l -0.07895,-2.75 c -0.04342,-1.5125 -0.305921,-2.1875 -0.583334,-1.5 -0.323926,0.802775 -2.626105,1.25 -6.434621,1.25 -3.26163,0 -6.798957,0.542525 -7.860727,1.205612 -1.57466,0.983391 -2.275099,0.893747 -3.800085,-0.486346 -1.442174,-1.30515 -2.140811,-1.420741 -3.05594,-0.505612 -1.833812,1.833812 -1.442503,3.16675 1.85793,6.328765 2.107492,2.019106 2.953721,3.689574 2.75,5.42854 -0.331715,2.831515 -3.493901,4.016222 -5.011195,1.877434 C 36.092924,31.875544 35.963849,32.126652 36.319634,33.75 36.6485,35.250523 36.344294,36 35.40638,36 34.632871,36 34.006891,35.4375 34.015313,34.75 Z M 42,35 c 0,-0.55 0.45,-1 1,-1 0.55,0 1,0.45 1,1 0,0.55 -0.45,1 -1,1 -0.55,0 -1,-0.45 -1,-1 z m 4,-20 c 0,-0.55 0.675,-1 1.5,-1 0.825,0 1.5,0.45 1.5,1 0,0.55 -0.675,1 -1.5,1 C 46.675,16 46,15.55 46,15 Z"
       id="path18"
       inkscape:connector-curvature="0" />
    <path
       style="fill:#1a3c46"
       d="m 46.299664,31 c 0,-3.025 0.187466,-4.2625 0.41659,-2.75 0.229125,1.5125 0.229125,3.9875 0,5.5 -0.229124,1.5125 -0.41659,0.275 -0.41659,-2.75 z M 34,33.940983 c 0,-0.582459 0.45,-0.780902 1,-0.440983 0.55,0.339919 1,0.816476 1,1.059017 C 36,34.801558 35.55,35 35,35 34.45,35 34,34.523442 34,33.940983 Z m 7.078947,-3.524316 c 0.04798,-1.164943 0.284941,-1.4019 0.604167,-0.604167 0.288871,0.721875 0.253344,1.584375 -0.07895,1.916667 -0.332292,0.332291 -0.568641,-0.258334 -0.52522,-1.3125 z m 2.30838,-6.598976 c -0.277949,-0.44973 3.008697,-0.782165 7.303656,-0.738744 8.930969,0.09029 8.716531,0.595844 -0.494639,1.166148 -3.467011,0.214658 -6.531069,0.02233 -6.809017,-0.427404 z M 34,21.5 c 0,-0.825 0.375,-1.5 0.833333,-1.5 0.458334,0 0.833334,0.675 0.833334,1.5 0,0.825 -0.375,1.5 -0.833334,1.5 C 34.375,23 34,22.325 34,21.5 Z m 8.5,-2.816225 c 1.147754,-0.898791 2.958776,-1.331973 4.25,-1.016566 1.41235,0.344994 2.25,0.09137 2.25,-0.681246 0,-0.86946 0.367014,-0.92727 1.25,-0.196893 0.6875,0.568678 2.6,1.231353 4.25,1.472613 1.692696,0.247502 0.385391,0.509895 -3,0.60214 -3.3,0.08992 -7.125,0.43858 -8.5,0.774805 -2.432872,0.594905 -2.446298,0.569266 -0.5,-0.954853 z M 38.638374,17.5 C 38.321791,16.675 38.498646,16 39.031385,16 39.564123,16 40,16.675 40,17.5 40,18.325 39.823145,19 39.606989,19 39.390833,19 38.954956,18.325 38.638374,17.5 Z"
       id="path16"
       inkscape:connector-curvature="0" />
  </g>
</svg>
