<?xml version="1.0" encoding="UTF-8" standalone="no"?>
<!-- Created with Inkscape (http://www.inkscape.org/) -->

<svg
   xmlns:dc="http://purl.org/dc/elements/1.1/"
   xmlns:cc="http://creativecommons.org/ns#"
   xmlns:rdf="http://www.w3.org/1999/02/22-rdf-syntax-ns#"
   xmlns:svg="http://www.w3.org/2000/svg"
   xmlns="http://www.w3.org/2000/svg"
   xmlns:sodipodi="http://sodipodi.sourceforge.net/DTD/sodipodi-0.dtd"
   xmlns:inkscape="http://www.inkscape.org/namespaces/inkscape"
   version="1.1"
   id="svg2"
   width="126.66667"
   height="93.333336"
   viewBox="0 0 126.66667 93.333336"
   sodipodi:docname="calculator.svg"
   inkscape:version="0.92.2 5c3e80d, 2017-08-06">
  <metadata
     id="metadata8">
    <rdf:RDF>
      <cc:Work
         rdf:about="">
        <dc:format>image/svg+xml</dc:format>
        <dc:type
           rdf:resource="http://purl.org/dc/dcmitype/StillImage" />
        <dc:title></dc:title>
      </cc:Work>
    </rdf:RDF>
  </metadata>
  <defs
     id="defs6" />
  <sodipodi:namedview
     pagecolor="#ffffff"
     bordercolor="#666666"
     borderopacity="1"
     objecttolerance="10"
     gridtolerance="10"
     guidetolerance="10"
     inkscape:pageopacity="0"
     inkscape:pageshadow="2"
     inkscape:window-width="1918"
     inkscape:window-height="1027"
     id="namedview4"
     showgrid="false"
     inkscape:pagecheckerboard="true"
     inkscape:zoom="2.1552631"
     inkscape:cx="63.333336"
     inkscape:cy="46.666668"
     inkscape:window-x="0"
     inkscape:window-y="0"
     inkscape:window-maximized="1"
     inkscape:current-layer="svg2" />
  <path
     style="fill:#ffffff;fill-opacity:1;stroke-width:0.4639805"
     d="m 37.350429,86.151407 c 0,-0.46398 -0.463981,-0.695971 -1.391942,-0.695971 -1.237281,0 -1.391941,-0.154658 -1.391941,-1.391941 0,-0.927961 -0.23199,-1.391942 -0.695971,-1.391942 -0.612654,0 -0.69597,-4.304708 -0.69597,-35.958487 0,-31.65378 0.08332,-35.958487 0.69597,-35.958487 0.463981,0 0.695971,-0.463981 0.695971,-1.3919419 0,-1.2372813 0.15466,-1.3919414 1.391941,-1.3919414 0.927961,0 1.391942,-0.2319903 1.391942,-0.6959707 0,-0.6103553 3.19631,-0.6959708 25.982907,-0.6959708 22.786596,0 25.982907,0.085616 25.982907,0.6959708 0,0.4639804 0.46398,0.6959707 1.391941,0.6959707 1.237283,0 1.391942,0.1546601 1.391942,1.3919414 0,0.9279609 0.23199,1.3919419 0.695971,1.3919419 0.612653,0 0.69597,4.304707 0.69597,35.958487 0,31.653779 -0.08332,35.958487 -0.69597,35.958487 -0.463981,0 -0.695971,0.463981 -0.695971,1.391942 0,1.237283 -0.154659,1.391941 -1.391942,1.391941 -0.927961,0 -1.391941,0.231991 -1.391941,0.695971 0,0.610357 -3.196311,0.695971 -25.982907,0.695971 -22.786597,0 -25.982907,-0.08561 -25.982907,-0.695971 z"
     id="path12"
     inkscape:connector-curvature="0" />
  <g
     id="g14">
    <path
       style="fill:#77d4f0;stroke-width:1.33333337"
       d="M 36.000001,46.666668 V 9.3333336 H 63.333335 90.666669 V 46.666668 84.000002 H 63.333335 36.000001 Z"
       id="path36"
       inkscape:connector-curvature="0" />
    <path
       style="fill:#97d15b;stroke-width:1.33333337"
       d="M 36.000001,46.666668 V 9.3333336 H 63.333335 90.666669 V 46.666668 84.000002 H 63.333335 36.000001 Z M 86.666669,21.333334 V 14.666667 H 63.333335 40.000001 v 6.666667 6.666667 h 23.333334 23.333334 z"
       id="path34"
       inkscape:connector-curvature="0" />
    <path
       style="fill:#e09237;stroke-width:1.33333337"
       d="M 36.000001,46.666668 V 9.3333336 H 63.333335 90.666669 V 46.666668 84.000002 H 63.333335 36.000001 Z m 10.666667,28.000001 c 0,-1.777778 -0.888889,-2.666667 -2.666667,-2.666667 -1.777777,0 -2.666667,0.888889 -2.666667,2.666667 0,1.777777 0.88889,2.666667 2.666667,2.666667 1.777778,0 2.666667,-0.88889 2.666667,-2.666667 z m 9.333333,0 c 0,-1.777778 -0.888889,-2.666667 -2.666666,-2.666667 -1.777778,0 -2.666667,0.888889 -2.666667,2.666667 0,1.777777 0.888889,2.666667 2.666667,2.666667 1.777777,0 2.666666,-0.88889 2.666666,-2.666667 z m 10.666667,0 c 0,-1.777778 -0.888889,-2.666667 -2.666666,-2.666667 -1.777778,0 -2.666667,0.888889 -2.666667,2.666667 0,1.777777 0.888889,2.666667 2.666667,2.666667 1.777777,0 2.666666,-0.88889 2.666666,-2.666667 z m 9.333334,0 c 0,-1.777778 -0.888889,-2.666667 -2.666667,-2.666667 -1.777777,0 -2.666666,0.888889 -2.666666,2.666667 0,1.777777 0.888889,2.666667 2.666666,2.666667 1.777778,0 2.666667,-0.88889 2.666667,-2.666667 z M 46.666668,63.333335 c 0,-2.444444 -0.711111,-3.333333 -2.666667,-3.333333 -1.955556,0 -2.666667,0.888889 -2.666667,3.333333 0,2.444444 0.711111,3.333334 2.666667,3.333334 1.955556,0 2.666667,-0.88889 2.666667,-3.333334 z m 9.333333,0 c 0,-2.444444 -0.71111,-3.333333 -2.666666,-3.333333 -1.955556,0 -2.666667,0.888889 -2.666667,3.333333 0,2.444444 0.711111,3.333334 2.666667,3.333334 1.955556,0 2.666666,-0.88889 2.666666,-3.333334 z m 10.666667,0 c 0,-2.444444 -0.71111,-3.333333 -2.666666,-3.333333 -1.955556,0 -2.666667,0.888889 -2.666667,3.333333 0,2.444444 0.711111,3.333334 2.666667,3.333334 1.955556,0 2.666666,-0.88889 2.666666,-3.333334 z m 9.333334,0 c 0,-2.444444 -0.711111,-3.333333 -2.666667,-3.333333 -1.955556,0 -2.666666,0.888889 -2.666666,3.333333 0,2.444444 0.71111,3.333334 2.666666,3.333334 1.955556,0 2.666667,-0.88889 2.666667,-3.333334 z M 46.666668,51.844493 c 0,-1.622269 -0.943935,-2.511158 -2.666667,-2.511158 -1.927889,0 -2.666667,0.888889 -2.666667,3.208507 0,2.552068 0.545583,3.065834 2.666667,2.511158 1.475887,-0.385953 2.666667,-1.818688 2.666667,-3.208507 z m 9.333333,0.822175 c 0,-2.444444 -0.71111,-3.333333 -2.666666,-3.333333 -3.372146,0 -3.655134,4.879489 -0.333334,5.747565 1.283334,0.335371 2.483334,0.679366 2.666667,0.764434 0.183333,0.08507 0.333333,-1.345332 0.333333,-3.178666 z m 20.000001,0 c 0,-2.444444 -0.711111,-3.333333 -2.666667,-3.333333 -3.372145,0 -3.655133,4.879489 -0.333333,5.747565 1.283333,0.335371 2.483333,0.679366 2.666667,0.764434 0.183333,0.08507 0.333333,-1.345332 0.333333,-3.178666 z m -9.333334,-0.666667 c 0,-1.777777 -0.888889,-2.666666 -2.666666,-2.666666 -1.777778,0 -2.666667,0.888889 -2.666667,2.666666 0,1.777778 0.888889,2.666667 2.666667,2.666667 1.777777,0 2.666666,-0.888889 2.666666,-2.666667 z m 19.428573,0 c 0,-1.67111 -0.888889,-2.666666 -2.380953,-2.666666 -1.492063,0 -2.380953,0.995556 -2.380953,2.666666 0,1.671111 0.88889,2.666667 2.380953,2.666667 1.492064,0 2.380953,-0.995556 2.380953,-2.666667 z M 86.666669,21.333334 V 14.666667 H 63.333335 40.000001 v 6.666667 6.666667 h 23.333334 23.333334 z"
       id="path32"
       inkscape:connector-curvature="0" />
    <path
       style="fill:#00cbd2;stroke-width:1.33333337"
       d="M 36.000001,46.666668 V 9.3333336 H 63.333335 90.666669 V 46.666668 84.000002 H 63.333335 36.000001 Z m 10.666667,28.000001 c 0,-1.777778 -0.888889,-2.666667 -2.666667,-2.666667 -1.777777,0 -2.666667,0.888889 -2.666667,2.666667 0,1.777777 0.88889,2.666667 2.666667,2.666667 1.777778,0 2.666667,-0.88889 2.666667,-2.666667 z m 9.333333,0 c 0,-1.777778 -0.888889,-2.666667 -2.666666,-2.666667 -1.777778,0 -2.666667,0.888889 -2.666667,2.666667 0,1.777777 0.888889,2.666667 2.666667,2.666667 1.777777,0 2.666666,-0.88889 2.666666,-2.666667 z m 10.666667,0 c 0,-1.777778 -0.888889,-2.666667 -2.666666,-2.666667 -1.777778,0 -2.666667,0.888889 -2.666667,2.666667 0,1.777777 0.888889,2.666667 2.666667,2.666667 1.777777,0 2.666666,-0.88889 2.666666,-2.666667 z m 9.333334,0 c 0,-1.777778 -0.888889,-2.666667 -2.666667,-2.666667 -1.777777,0 -2.666666,0.888889 -2.666666,2.666667 0,1.777777 0.888889,2.666667 2.666666,2.666667 1.777778,0 2.666667,-0.88889 2.666667,-2.666667 z M 46.666668,63.333335 c 0,-2.444444 -0.711111,-3.333333 -2.666667,-3.333333 -1.955556,0 -2.666667,0.888889 -2.666667,3.333333 0,2.444444 0.711111,3.333334 2.666667,3.333334 1.955556,0 2.666667,-0.88889 2.666667,-3.333334 z m 9.333333,0 c 0,-2.444444 -0.71111,-3.333333 -2.666666,-3.333333 -1.955556,0 -2.666667,0.888889 -2.666667,3.333333 0,2.444444 0.711111,3.333334 2.666667,3.333334 1.955556,0 2.666666,-0.88889 2.666666,-3.333334 z m 10.666667,0 c 0,-2.444444 -0.71111,-3.333333 -2.666666,-3.333333 -1.955556,0 -2.666667,0.888889 -2.666667,3.333333 0,2.444444 0.711111,3.333334 2.666667,3.333334 1.955556,0 2.666666,-0.88889 2.666666,-3.333334 z m 9.333334,0 c 0,-2.444444 -0.711111,-3.333333 -2.666667,-3.333333 -1.955556,0 -2.666666,0.888889 -2.666666,3.333333 0,2.444444 0.71111,3.333334 2.666666,3.333334 1.955556,0 2.666667,-0.88889 2.666667,-3.333334 z M 46.666668,51.844493 c 0,-1.622269 -0.943935,-2.511158 -2.666667,-2.511158 -1.927889,0 -2.666667,0.888889 -2.666667,3.208507 0,2.552068 0.545583,3.065834 2.666667,2.511158 1.475887,-0.385953 2.666667,-1.818688 2.666667,-3.208507 z m 9.333333,0.822175 c 0,-2.444444 -0.71111,-3.333333 -2.666666,-3.333333 -3.372146,0 -3.655134,4.879489 -0.333334,5.747565 1.283334,0.335371 2.483334,0.679366 2.666667,0.764434 0.183333,0.08507 0.333333,-1.345332 0.333333,-3.178666 z m 20.000001,0 c 0,-2.444444 -0.711111,-3.333333 -2.666667,-3.333333 -3.372145,0 -3.655133,4.879489 -0.333333,5.747565 1.283333,0.335371 2.483333,0.679366 2.666667,0.764434 0.183333,0.08507 0.333333,-1.345332 0.333333,-3.178666 z m -9.333334,-0.666667 c 0,-1.777777 -0.888889,-2.666666 -2.666666,-2.666666 -1.777778,0 -2.666667,0.888889 -2.666667,2.666666 0,1.777778 0.888889,2.666667 2.666667,2.666667 1.777777,0 2.666666,-0.888889 2.666666,-2.666667 z m 19.428573,0 c 0,-1.67111 -0.888889,-2.666666 -2.380953,-2.666666 -1.492063,0 -2.380953,0.995556 -2.380953,2.666666 0,1.671111 0.88889,2.666667 2.380953,2.666667 1.492064,0 2.380953,-0.995556 2.380953,-2.666667 z m -39.428573,-10 c 0,-2.444444 -0.711111,-3.333333 -2.666667,-3.333333 -1.955556,0 -2.666667,0.888889 -2.666667,3.333333 0,2.444444 0.711111,3.333334 2.666667,3.333334 1.955556,0 2.666667,-0.88889 2.666667,-3.333334 z m 9.333333,0 c 0,-2.444444 -0.71111,-3.333333 -2.666666,-3.333333 -1.955556,0 -2.666667,0.888889 -2.666667,3.333333 0,2.444444 0.711111,3.333334 2.666667,3.333334 1.955556,0 2.666666,-0.88889 2.666666,-3.333334 z m 10.666667,0 c 0,-2.444444 -0.71111,-3.333333 -2.666666,-3.333333 -1.955556,0 -2.666667,0.888889 -2.666667,3.333333 0,2.444444 0.711111,3.333334 2.666667,3.333334 1.955556,0 2.666666,-0.88889 2.666666,-3.333334 z m 9.333334,0 c 0,-2.444444 -0.711111,-3.333333 -2.666667,-3.333333 -1.955556,0 -2.666666,0.888889 -2.666666,3.333333 0,2.444444 0.71111,3.333334 2.666666,3.333334 1.955556,0 2.666667,-0.88889 2.666667,-3.333334 z m 10.666667,0 c 0,-2.444444 -0.711111,-3.333333 -2.666667,-3.333333 -1.955556,0 -2.666667,0.888889 -2.666667,3.333333 0,2.444444 0.711111,3.333334 2.666667,3.333334 1.955556,0 2.666667,-0.88889 2.666667,-3.333334 z m 0,-20.666667 V 14.666667 H 63.333335 40.000001 v 6.666667 6.666667 h 23.333334 23.333334 z"
       id="path30"
       inkscape:connector-curvature="0" />
    <path
       style="fill:#87b658;stroke-width:1.33333337"
       d="M 36.000001,46.666668 V 9.3333336 H 63.333335 90.666669 V 46.666668 84.000002 H 63.333335 36.000001 Z m 10.666667,28.000001 c 0,-1.777778 -0.888889,-2.666667 -2.666667,-2.666667 -1.777777,0 -2.666667,0.888889 -2.666667,2.666667 0,1.777777 0.88889,2.666667 2.666667,2.666667 1.777778,0 2.666667,-0.88889 2.666667,-2.666667 z m 9.333333,0 c 0,-1.777778 -0.888889,-2.666667 -2.666666,-2.666667 -1.777778,0 -2.666667,0.888889 -2.666667,2.666667 0,1.777777 0.888889,2.666667 2.666667,2.666667 1.777777,0 2.666666,-0.88889 2.666666,-2.666667 z m 10.666667,0 c 0,-1.777778 -0.888889,-2.666667 -2.666666,-2.666667 -1.777778,0 -2.666667,0.888889 -2.666667,2.666667 0,1.777777 0.888889,2.666667 2.666667,2.666667 1.777777,0 2.666666,-0.88889 2.666666,-2.666667 z m 9.333334,0 c 0,-1.777778 -0.888889,-2.666667 -2.666667,-2.666667 -1.777777,0 -2.666666,0.888889 -2.666666,2.666667 0,1.777777 0.888889,2.666667 2.666666,2.666667 1.777778,0 2.666667,-0.88889 2.666667,-2.666667 z m 10.666667,-6 c 0,-8.355557 -0.119659,-8.666667 -3.333333,-8.666667 -3.213675,0 -3.333334,0.31111 -3.333334,8.666667 0,8.355556 0.119653,8.666667 3.333334,8.666667 3.213674,0 3.333333,-0.311111 3.333333,-8.666667 z M 46.666668,63.333335 c 0,-2.444444 -0.711111,-3.333333 -2.666667,-3.333333 -1.955556,0 -2.666667,0.888889 -2.666667,3.333333 0,2.444444 0.711111,3.333334 2.666667,3.333334 1.955556,0 2.666667,-0.88889 2.666667,-3.333334 z m 9.333333,0 c 0,-2.444444 -0.71111,-3.333333 -2.666666,-3.333333 -1.955556,0 -2.666667,0.888889 -2.666667,3.333333 0,2.444444 0.711111,3.333334 2.666667,3.333334 1.955556,0 2.666666,-0.88889 2.666666,-3.333334 z m 10.666667,0 c 0,-2.444444 -0.71111,-3.333333 -2.666666,-3.333333 -1.955556,0 -2.666667,0.888889 -2.666667,3.333333 0,2.444444 0.711111,3.333334 2.666667,3.333334 1.955556,0 2.666666,-0.88889 2.666666,-3.333334 z m 9.333334,0 c 0,-2.444444 -0.711111,-3.333333 -2.666667,-3.333333 -1.955556,0 -2.666666,0.888889 -2.666666,3.333333 0,2.444444 0.71111,3.333334 2.666666,3.333334 1.955556,0 2.666667,-0.88889 2.666667,-3.333334 z M 46.666668,51.844493 c 0,-1.622269 -0.943935,-2.511158 -2.666667,-2.511158 -1.927889,0 -2.666667,0.888889 -2.666667,3.208507 0,2.552068 0.545583,3.065834 2.666667,2.511158 1.475887,-0.385953 2.666667,-1.818688 2.666667,-3.208507 z m 9.333333,0.822175 c 0,-2.444444 -0.71111,-3.333333 -2.666666,-3.333333 -3.372146,0 -3.655134,4.879489 -0.333334,5.747565 1.283334,0.335371 2.483334,0.679366 2.666667,0.764434 0.183333,0.08507 0.333333,-1.345332 0.333333,-3.178666 z m 20.000001,0 c 0,-2.444444 -0.711111,-3.333333 -2.666667,-3.333333 -3.372145,0 -3.655133,4.879489 -0.333333,5.747565 1.283333,0.335371 2.483333,0.679366 2.666667,0.764434 0.183333,0.08507 0.333333,-1.345332 0.333333,-3.178666 z m -9.333334,-0.666667 c 0,-1.777777 -0.888889,-2.666666 -2.666666,-2.666666 -1.777778,0 -2.666667,0.888889 -2.666667,2.666666 0,1.777778 0.888889,2.666667 2.666667,2.666667 1.777777,0 2.666666,-0.888889 2.666666,-2.666667 z m 19.428573,0 c 0,-1.67111 -0.888889,-2.666666 -2.380953,-2.666666 -1.492063,0 -2.380953,0.995556 -2.380953,2.666666 0,1.671111 0.88889,2.666667 2.380953,2.666667 1.492064,0 2.380953,-0.995556 2.380953,-2.666667 z m -39.428573,-10 c 0,-2.444444 -0.711111,-3.333333 -2.666667,-3.333333 -1.955556,0 -2.666667,0.888889 -2.666667,3.333333 0,2.444444 0.711111,3.333334 2.666667,3.333334 1.955556,0 2.666667,-0.88889 2.666667,-3.333334 z m 9.333333,0 c 0,-2.444444 -0.71111,-3.333333 -2.666666,-3.333333 -1.955556,0 -2.666667,0.888889 -2.666667,3.333333 0,2.444444 0.711111,3.333334 2.666667,3.333334 1.955556,0 2.666666,-0.88889 2.666666,-3.333334 z m 10.666667,0 c 0,-2.444444 -0.71111,-3.333333 -2.666666,-3.333333 -1.955556,0 -2.666667,0.888889 -2.666667,3.333333 0,2.444444 0.711111,3.333334 2.666667,3.333334 1.955556,0 2.666666,-0.88889 2.666666,-3.333334 z m 9.333334,0 c 0,-2.444444 -0.711111,-3.333333 -2.666667,-3.333333 -1.955556,0 -2.666666,0.888889 -2.666666,3.333333 0,2.444444 0.71111,3.333334 2.666666,3.333334 1.955556,0 2.666667,-0.88889 2.666667,-3.333334 z m 10.666667,0 c 0,-2.444444 -0.711111,-3.333333 -2.666667,-3.333333 -1.955556,0 -2.666667,0.888889 -2.666667,3.333333 0,2.444444 0.711111,3.333334 2.666667,3.333334 1.955556,0 2.666667,-0.88889 2.666667,-3.333334 z m 0,-20.666667 V 14.666667 H 63.333335 40.000001 v 6.666667 6.666667 h 23.333334 23.333334 z"
       id="path28"
       inkscape:connector-curvature="0" />
    <path
       style="fill:#a5733a;stroke-width:1.33333337"
       d="M 36.000001,46.666668 V 9.3333336 H 63.333335 90.666669 V 46.666668 84.000002 H 63.333335 36.000001 Z m 10.666667,27.333334 c 0,-2.444444 -0.711111,-3.333333 -2.666667,-3.333333 -1.955556,0 -2.666667,0.888889 -2.666667,3.333333 0,2.444444 0.711111,3.333334 2.666667,3.333334 1.955556,0 2.666667,-0.88889 2.666667,-3.333334 z m 9.333333,0 c 0,-2.444444 -0.71111,-3.333333 -2.666666,-3.333333 -1.955556,0 -2.666667,0.888889 -2.666667,3.333333 0,2.444444 0.711111,3.333334 2.666667,3.333334 1.955556,0 2.666666,-0.88889 2.666666,-3.333334 z m 10.666667,-0.09273 c 0,-2.790314 -0.556692,-3.347006 -3,-3 -1.927942,0.273812 -3.152256,1.498125 -3.426068,3.426068 -0.347005,2.443308 0.209687,3 3,3 2.790314,-1e-6 3.426068,-0.635756 3.426068,-3.426068 z m 9.333334,0.09273 c 0,-2.444444 -0.711111,-3.333333 -2.666667,-3.333333 -1.955556,0 -2.666666,0.888889 -2.666666,3.333333 0,2.444444 0.71111,3.333334 2.666666,3.333334 1.955556,0 2.666667,-0.88889 2.666667,-3.333334 z m 10.666667,-5.333333 c 0,-8.355557 -0.119659,-8.666667 -3.333333,-8.666667 -3.213675,0 -3.333334,0.31111 -3.333334,8.666667 0,8.355556 0.119653,8.666667 3.333334,8.666667 3.213674,0 3.333333,-0.311111 3.333333,-8.666667 z M 46.666668,63.333335 c 0,-2.444444 -0.711111,-3.333333 -2.666667,-3.333333 -1.955556,0 -2.666667,0.888889 -2.666667,3.333333 0,2.444444 0.711111,3.333334 2.666667,3.333334 1.955556,0 2.666667,-0.88889 2.666667,-3.333334 z m 9.333333,0 c 0,-2.444444 -0.71111,-3.333333 -2.666666,-3.333333 -1.955556,0 -2.666667,0.888889 -2.666667,3.333333 0,2.444444 0.711111,3.333334 2.666667,3.333334 1.955556,0 2.666666,-0.88889 2.666666,-3.333334 z m 10.666667,0 c 0,-2.666667 -0.666666,-3.333333 -3.333333,-3.333333 -2.666667,0 -3.333333,0.666666 -3.333333,3.333333 0,2.666667 0.666666,3.333334 3.333333,3.333334 2.666667,0 3.333333,-0.666667 3.333333,-3.333334 z m 9.333334,0 c 0,-2.444444 -0.711111,-3.333333 -2.666667,-3.333333 -1.955556,0 -2.666666,0.888889 -2.666666,3.333333 0,2.444444 0.71111,3.333334 2.666666,3.333334 1.955556,0 2.666667,-0.88889 2.666667,-3.333334 z M 46.666668,52.666668 c 0,-2.444444 -0.711111,-3.333333 -2.666667,-3.333333 -1.955556,0 -2.666667,0.888889 -2.666667,3.333333 0,2.444444 0.711111,3.333334 2.666667,3.333334 1.955556,0 2.666667,-0.88889 2.666667,-3.333334 z m 9.333333,0 c 0,-2.444444 -0.71111,-3.333333 -2.666666,-3.333333 -1.955556,0 -2.666667,0.888889 -2.666667,3.333333 0,2.444444 0.711111,3.333334 2.666667,3.333334 1.955556,0 2.666666,-0.88889 2.666666,-3.333334 z m 10.666667,0 c 0,-2.666667 -0.666666,-3.333333 -3.333333,-3.333333 -2.343435,0 -3.333333,0.725925 -3.333333,2.444444 0,1.344445 0.4,2.844445 0.888889,3.333333 0.488888,0.48889 1.988888,0.88889 3.333333,0.88889 1.718519,0 2.444444,-0.989899 2.444444,-3.333334 z m 9.333334,0 c 0,-2.444444 -0.711111,-3.333333 -2.666667,-3.333333 -1.955556,0 -2.666666,0.888889 -2.666666,3.333333 0,2.444444 0.71111,3.333334 2.666666,3.333334 1.955556,0 2.666667,-0.88889 2.666667,-3.333334 z m 10.666667,0 c 0,-2.666667 -0.666667,-3.333333 -3.333333,-3.333333 -2.666667,0 -3.333334,0.666666 -3.333334,3.333333 0,2.666667 0.666667,3.333334 3.333334,3.333334 2.666666,0 3.333333,-0.666667 3.333333,-3.333334 z M 46.666668,42.000001 c 0,-2.444444 -0.711111,-3.333333 -2.666667,-3.333333 -1.955556,0 -2.666667,0.888889 -2.666667,3.333333 0,2.444444 0.711111,3.333334 2.666667,3.333334 1.955556,0 2.666667,-0.88889 2.666667,-3.333334 z m 9.333333,0 c 0,-2.444444 -0.71111,-3.333333 -2.666666,-3.333333 -1.955556,0 -2.666667,0.888889 -2.666667,3.333333 0,2.444444 0.711111,3.333334 2.666667,3.333334 1.955556,0 2.666666,-0.88889 2.666666,-3.333334 z m 10.666667,0 c 0,-2.444444 -0.71111,-3.333333 -2.666666,-3.333333 -1.955556,0 -2.666667,0.888889 -2.666667,3.333333 0,2.444444 0.711111,3.333334 2.666667,3.333334 1.955556,0 2.666666,-0.88889 2.666666,-3.333334 z m 9.333334,0 c 0,-2.444444 -0.711111,-3.333333 -2.666667,-3.333333 -1.955556,0 -2.666666,0.888889 -2.666666,3.333333 0,2.444444 0.71111,3.333334 2.666666,3.333334 1.955556,0 2.666667,-0.88889 2.666667,-3.333334 z m 10.666667,0 c 0,-2.444444 -0.711111,-3.333333 -2.666667,-3.333333 -1.955556,0 -2.666667,0.888889 -2.666667,3.333333 0,2.444444 0.711111,3.333334 2.666667,3.333334 1.955556,0 2.666667,-0.88889 2.666667,-3.333334 z m 0,-20.666667 V 14.666667 H 63.333335 40.000001 v 6.666667 6.666667 h 23.333334 23.333334 z"
       id="path26"
       inkscape:connector-curvature="0" />
    <path
       style="fill:#698e52;stroke-width:1.33333337"
       d="M 36.000001,46.666668 V 9.3333336 H 63.333335 90.666669 V 46.666668 84.000002 H 63.333335 36.000001 Z m 10.666667,27.333334 c 0,-2.444444 -0.711111,-3.333333 -2.666667,-3.333333 -1.955556,0 -2.666667,0.888889 -2.666667,3.333333 0,2.444444 0.711111,3.333334 2.666667,3.333334 1.955556,0 2.666667,-0.88889 2.666667,-3.333334 z m 9.333333,0 c 0,-2.444444 -0.71111,-3.333333 -2.666666,-3.333333 -1.955556,0 -2.666667,0.888889 -2.666667,3.333333 0,2.444444 0.711111,3.333334 2.666667,3.333334 1.955556,0 2.666666,-0.88889 2.666666,-3.333334 z m 10.666667,-0.09273 c 0,-2.790314 -0.556692,-3.347006 -3,-3 -1.927942,0.273812 -3.152256,1.498125 -3.426068,3.426068 -0.347005,2.443308 0.209687,3 3,3 2.790314,-1e-6 3.426068,-0.635756 3.426068,-3.426068 z m 9.333334,0.09273 c 0,-2.444444 -0.711111,-3.333333 -2.666667,-3.333333 -1.955556,0 -2.666666,0.888889 -2.666666,3.333333 0,2.444444 0.71111,3.333334 2.666666,3.333334 1.955556,0 2.666667,-0.88889 2.666667,-3.333334 z m 10.666667,-5.333333 c 0,-8.355557 -0.119659,-8.666667 -3.333333,-8.666667 -3.213675,0 -3.333334,0.31111 -3.333334,8.666667 0,8.355556 0.119653,8.666667 3.333334,8.666667 3.213674,0 3.333333,-0.311111 3.333333,-8.666667 z M 46.666668,63.333335 c 0,-2.444444 -0.711111,-3.333333 -2.666667,-3.333333 -1.955556,0 -2.666667,0.888889 -2.666667,3.333333 0,2.444444 0.711111,3.333334 2.666667,3.333334 1.955556,0 2.666667,-0.88889 2.666667,-3.333334 z m 9.333333,0 c 0,-2.444444 -0.71111,-3.333333 -2.666666,-3.333333 -1.955556,0 -2.666667,0.888889 -2.666667,3.333333 0,2.444444 0.711111,3.333334 2.666667,3.333334 1.955556,0 2.666666,-0.88889 2.666666,-3.333334 z m 10.666667,0 c 0,-2.666667 -0.666666,-3.333333 -3.333333,-3.333333 -2.666667,0 -3.333333,0.666666 -3.333333,3.333333 0,2.666667 0.666666,3.333334 3.333333,3.333334 2.666667,0 3.333333,-0.666667 3.333333,-3.333334 z m 9.333334,0 c 0,-2.444444 -0.711111,-3.333333 -2.666667,-3.333333 -1.955556,0 -2.666666,0.888889 -2.666666,3.333333 0,2.444444 0.71111,3.333334 2.666666,3.333334 1.955556,0 2.666667,-0.88889 2.666667,-3.333334 z M 46.666668,52.666668 c 0,-2.444444 -0.711111,-3.333333 -2.666667,-3.333333 -1.955556,0 -2.666667,0.888889 -2.666667,3.333333 0,2.444444 0.711111,3.333334 2.666667,3.333334 1.955556,0 2.666667,-0.88889 2.666667,-3.333334 z m 9.333333,0 c 0,-2.444444 -0.71111,-3.333333 -2.666666,-3.333333 -1.955556,0 -2.666667,0.888889 -2.666667,3.333333 0,2.444444 0.711111,3.333334 2.666667,3.333334 1.955556,0 2.666666,-0.88889 2.666666,-3.333334 z m 10.666667,0 c 0,-2.666667 -0.666666,-3.333333 -3.333333,-3.333333 -2.343435,0 -3.333333,0.725925 -3.333333,2.444444 0,1.344445 0.4,2.844445 0.888889,3.333333 0.488888,0.48889 1.988888,0.88889 3.333333,0.88889 1.718519,0 2.444444,-0.989899 2.444444,-3.333334 z m 9.333334,0 c 0,-2.444444 -0.711111,-3.333333 -2.666667,-3.333333 -1.955556,0 -2.666666,0.888889 -2.666666,3.333333 0,2.444444 0.71111,3.333334 2.666666,3.333334 1.955556,0 2.666667,-0.88889 2.666667,-3.333334 z m 10.666667,0 c 0,-2.666667 -0.666667,-3.333333 -3.333333,-3.333333 -2.666667,0 -3.333334,0.666666 -3.333334,3.333333 0,2.666667 0.666667,3.333334 3.333334,3.333334 2.666666,0 3.333333,-0.666667 3.333333,-3.333334 z M 46.666668,42.000001 c 0,-2.666667 -0.666667,-3.333333 -3.333334,-3.333333 -2.666666,0 -3.333333,0.666666 -3.333333,3.333333 0,2.666667 0.666667,3.333334 3.333333,3.333334 2.666667,0 3.333334,-0.666667 3.333334,-3.333334 z m 10.666667,0 c 0,-2.666667 -0.666667,-3.333333 -3.333334,-3.333333 -2.666666,0 -3.333333,0.666666 -3.333333,3.333333 0,2.666667 0.666667,3.333334 3.333333,3.333334 2.666667,0 3.333334,-0.666667 3.333334,-3.333334 z m 9.333333,0 c 0,-2.666667 -0.666666,-3.333333 -3.333333,-3.333333 -2.666667,0 -3.333333,0.666666 -3.333333,3.333333 0,2.666667 0.666666,3.333334 3.333333,3.333334 2.666667,0 3.333333,-0.666667 3.333333,-3.333334 z m 10.666667,0 c 0,-2.666667 -0.666666,-3.333333 -3.333333,-3.333333 -2.666667,0 -3.333333,0.666666 -3.333333,3.333333 0,2.666667 0.666666,3.333334 3.333333,3.333334 2.666667,0 3.333333,-0.666667 3.333333,-3.333334 z m 9.333334,0 c 0,-2.666667 -0.666667,-3.333333 -3.333333,-3.333333 -2.666667,0 -3.333334,0.666666 -3.333334,3.333333 0,2.666667 0.666667,3.333334 3.333334,3.333334 2.666666,0 3.333333,-0.666667 3.333333,-3.333334 z m 0,-20.666667 V 14.666667 H 63.333335 40.000001 v 6.666667 6.666667 h 23.333334 23.333334 z"
       id="path24"
       inkscape:connector-curvature="0" />
    <path
       style="fill:#535853;stroke-width:1.33333337"
       d="M 36.312242,47.000001 36.666668,10 h 26.666667 26.666667 l 0.354426,37.000001 0.354424,37.000001 H 63.333335 35.957818 Z m 10.354426,27.666668 c 0,-3.377778 -0.518519,-4 -3.333334,-4 -2.603174,0 -3.333333,0.681481 -3.333333,3.11111 0,3.749293 0.984197,4.88889 4.222223,4.88889 1.82716,0 2.444444,-1.010101 2.444444,-4 z m 10.421896,-0.333334 c 0.363268,-3.157122 -0.05363,-3.666666 -3,-3.666666 -2.930448,0 -3.421896,0.587793 -3.421896,4.092734 0,3.481671 0.447913,4.029122 3,3.666667 2.148007,-0.305065 3.119817,-1.467393 3.421896,-4.092735 z m 9.578104,0.333334 c 0,-3.377778 -0.518518,-4 -3.333333,-4 -2.603175,0 -3.333333,0.681481 -3.333333,3.11111 0,3.749293 0.984197,4.88889 4.222222,4.88889 1.82716,0 2.444444,-1.010101 2.444444,-4 z m 10.000001,0 c 0,-2.441659 -0.802507,-3.447308 -3,-3.759402 -2.564472,-0.364213 -3,0.181562 -3,3.759402 0,3.57784 0.435528,4.123615 3,3.759401 2.197493,-0.312093 3,-1.317742 3,-3.759401 z m 10,-6 c 0,-8.355557 -0.119659,-8.666667 -3.333333,-8.666667 -3.213675,0 -3.333334,0.31111 -3.333334,8.666667 0,8.355556 0.119653,8.666667 3.333334,8.666667 3.213674,0 3.333333,-0.311111 3.333333,-8.666667 z M 46.666668,63.333335 c 0,-2.666667 -0.666667,-3.333333 -3.333334,-3.333333 -2.666666,0 -3.333333,0.666666 -3.333333,3.333333 0,2.666667 0.666667,3.333334 3.333333,3.333334 2.666667,0 3.333334,-0.666667 3.333334,-3.333334 z m 10.666667,0 c 0,-2.666667 -0.666667,-3.333333 -3.333334,-3.333333 -2.666666,0 -3.333333,0.666666 -3.333333,3.333333 0,2.666667 0.666667,3.333334 3.333333,3.333334 2.666667,0 3.333334,-0.666667 3.333334,-3.333334 z m 9.333333,0 c 0,-2.666667 -0.666666,-3.333333 -3.333333,-3.333333 -2.666667,0 -3.333333,0.666666 -3.333333,3.333333 0,2.666667 0.666666,3.333334 3.333333,3.333334 2.666667,0 3.333333,-0.666667 3.333333,-3.333334 z m 10.666667,0 c 0,-2.666667 -0.666666,-3.333333 -3.333333,-3.333333 -2.666667,0 -3.333333,0.666666 -3.333333,3.333333 0,2.666667 0.666666,3.333334 3.333333,3.333334 2.666667,0 3.333333,-0.666667 3.333333,-3.333334 z M 46.666668,51.907267 c 0,-3.481671 -0.447913,-4.029122 -3,-3.666667 -2.148007,0.305065 -3.119818,1.467393 -3.421896,4.092735 -0.363268,3.157123 0.05363,3.666667 3,3.666667 2.930448,0 3.421896,-0.587794 3.421896,-4.092735 z m 10.421896,0.426068 c -0.302079,-2.625342 -1.273889,-3.78767 -3.421896,-4.092735 -2.552087,-0.362455 -3,0.184996 -3,3.666667 0,3.504941 0.491448,4.092735 3.421896,4.092735 2.946368,0 3.363268,-0.509544 3,-3.666667 z m 9.578104,-0.426068 c 0,-3.481671 -0.447913,-4.029122 -3,-3.666667 -2.148006,0.305065 -3.119817,1.467393 -3.421896,4.092735 -0.363268,3.157123 0.05363,3.666667 3,3.666667 2.930448,0 3.421896,-0.587794 3.421896,-4.092735 z m 10.000001,0.09273 c 0,-2.441658 -0.802507,-3.447308 -3,-3.759401 -2.564472,-0.364213 -3,0.181561 -3,3.759401 0,3.577841 0.435528,4.123615 3,3.759402 2.197493,-0.312093 3,-1.317743 3,-3.759402 z m 10,-0.09273 c 0,-3.481671 -0.447913,-4.029121 -3,-3.666667 -2.148007,0.305066 -3.119818,1.467394 -3.421896,4.092735 -0.363268,3.157123 0.05363,3.666667 3,3.666667 2.930448,-1e-6 3.421896,-0.587795 3.421896,-4.092735 z M 46.666668,42.000001 c 0,-2.666667 -0.666667,-3.333333 -3.333334,-3.333333 -2.666666,0 -3.333333,0.666666 -3.333333,3.333333 0,2.666667 0.666667,3.333334 3.333333,3.333334 2.666667,0 3.333334,-0.666667 3.333334,-3.333334 z m 10.666667,0 c 0,-2.666667 -0.666667,-3.333333 -3.333334,-3.333333 -2.666666,0 -3.333333,0.666666 -3.333333,3.333333 0,2.666667 0.666667,3.333334 3.333333,3.333334 2.666667,0 3.333334,-0.666667 3.333334,-3.333334 z m 9.333333,0 c 0,-2.666667 -0.666666,-3.333333 -3.333333,-3.333333 -2.666667,0 -3.333333,0.666666 -3.333333,3.333333 0,2.666667 0.666666,3.333334 3.333333,3.333334 2.666667,0 3.333333,-0.666667 3.333333,-3.333334 z m 10.666667,0 c 0,-2.666667 -0.666666,-3.333333 -3.333333,-3.333333 -2.666667,0 -3.333333,0.666666 -3.333333,3.333333 0,2.666667 0.666666,3.333334 3.333333,3.333334 2.666667,0 3.333333,-0.666667 3.333333,-3.333334 z m 9.333334,0 c 0,-2.666667 -0.666667,-3.333333 -3.333333,-3.333333 -2.666667,0 -3.333334,0.666666 -3.333334,3.333333 0,2.666667 0.666667,3.333334 3.333334,3.333334 2.666666,0 3.333333,-0.666667 3.333333,-3.333334 z m 0,-20.666667 V 14.666667 H 63.333335 40.000001 v 6.666667 6.666667 h 23.333334 23.333334 z"
       id="path22"
       inkscape:connector-curvature="0" />
    <path
       style="fill:#303946;stroke-width:1.33333337"
       d="M 36.603737,82.316801 C 36.236548,81.359921 36.100493,69.797191 36.301394,56.621844 L 36.666668,32.666668 H 63.333335 90.000002 V 58.000002 83.333336 L 63.635678,83.69496 C 42.92253,83.979069 37.12825,83.683661 36.603737,82.316801 Z m 10.062931,-7.650132 c 0,-3.377778 -0.518519,-4 -3.333334,-4 -2.814814,0 -3.333333,0.622222 -3.333333,4 0,3.377777 0.518519,4 3.333333,4 2.814815,0 3.333334,-0.622223 3.333334,-4 z m 10.666667,0 c 0,-3.391003 -0.51387,-4 -3.37518,-4 -1.856348,0 -3.720542,0.9 -4.142652,2 -1.276448,3.326373 0.569536,6 4.142652,6 2.86131,0 3.37518,-0.608997 3.37518,-4 z m 9.333333,0 c 0,-3.377778 -0.518518,-4 -3.333333,-4 -2.814815,0 -3.333333,0.622222 -3.333333,4 0,3.377777 0.518518,4 3.333333,4 2.814815,0 3.333333,-0.622223 3.333333,-4 z m 10.666667,0 c 0,-3.555556 -0.444444,-4 -4,-4 -3.301586,0 -4,0.543209 -4,3.11111 0,1.711112 0.4,3.511113 0.88889,4.000001 0.488888,0.488889 2.288888,0.888889 4,0.888889 2.567901,0 3.11111,-0.698413 3.11111,-4 z m 9.333334,-5.333334 c 0,-9.066667 -0.09524,-9.333333 -3.333333,-9.333333 -3.238095,0 -3.333334,0.266666 -3.333334,9.333333 0,9.066667 0.09524,9.333334 3.333334,9.333334 3.238094,0 3.333333,-0.266667 3.333333,-9.333334 z M 46.421897,63.547336 c 0.360251,-3.02901 -0.0781,-3.547334 -3,-3.547334 -2.695955,0 -3.421896,0.660009 -3.421896,3.11111 0,3.781479 0.823835,4.725315 3.757569,4.304905 1.324487,-0.189803 2.415135,-1.773456 2.664327,-3.868681 z m 10.666667,0.01632 c 0.37643,-3.179605 -0.01872,-3.563654 -3.666667,-3.563654 -3.394366,0 -4.088562,0.528234 -4.088562,3.11111 0,3.908739 0.600917,4.49537 4.332772,4.229765 2.189662,-0.155844 3.114578,-1.176634 3.422457,-3.777217 z m 9.333334,-0.01632 c 0.36025,-3.02901 -0.0781,-3.547334 -3,-3.547334 -2.695955,0 -3.421896,0.660009 -3.421896,3.11111 0,3.781479 0.823834,4.725315 3.757569,4.304905 1.324487,-0.189803 2.415135,-1.773456 2.664327,-3.868681 z m 10.666667,0.01632 c 0.376429,-3.179605 -0.01872,-3.563654 -3.666667,-3.563654 -3.394367,0 -4.088563,0.528234 -4.088563,3.11111 0,3.908739 0.600918,4.49537 4.332772,4.229765 2.189663,-0.155844 3.114579,-1.176634 3.422458,-3.777217 z M 46.666668,52.000001 c 0,-3.377777 -0.518519,-4 -3.333334,-4 -2.814814,0 -3.333333,0.622223 -3.333333,4 0,3.377778 0.518519,4.000001 3.333333,4.000001 2.814815,0 3.333334,-0.622223 3.333334,-4.000001 z m 10.666667,-0.08856 c 0,-3.67364 -0.372108,-4.045748 -3.666667,-3.666666 -2.879959,0.331374 -3.757188,1.208604 -4.088563,4.088562 -0.379081,3.294559 -0.0069,3.666667 3.666667,3.666667 3.673639,-2e-6 4.088563,-0.414926 4.088563,-4.088565 z m 9.333333,0.08856 c 0,-3.377777 -0.518518,-4 -3.333333,-4 -2.814815,0 -3.333333,0.622223 -3.333333,4 0,3.377778 0.518518,4.000001 3.333333,4.000001 2.814815,0 3.333333,-0.622223 3.333333,-4.000001 z m 10.666667,-0.08856 c 0,-3.67364 -0.372108,-4.045748 -3.666666,-3.666666 -2.879959,0.331374 -3.757188,1.208604 -4.088563,4.088562 -0.379082,3.294559 -0.0069,3.666667 3.666667,3.666667 3.673638,-2e-6 4.088562,-0.414926 4.088562,-4.088565 z m 9.333334,0.08856 c 0,-3.377777 -0.518519,-4 -3.333333,-4 -2.814815,0 -3.333334,0.622223 -3.333334,4 0,3.377778 0.518519,4.000001 3.333334,4.000001 2.814814,0 3.333333,-0.622223 3.333333,-4.000001 z m -38.666668,-10 c 0,-2.814815 -0.622222,-3.333333 -4,-3.333333 -3.377777,0 -4,0.518518 -4,3.333333 0,2.814815 0.622223,3.333334 4,3.333334 3.377778,0 4,-0.518519 4,-3.333334 z m 9.333334,0 c 0,-2.645176 -0.671912,-3.333333 -3.254644,-3.333333 -1.790055,0 -3.643222,0.628732 -4.118151,1.397182 -1.548939,2.506237 0.547357,5.269485 3.997615,5.269485 2.711302,0 3.37518,-0.655646 3.37518,-3.333334 z m 9.333333,0 c 0,-2.666667 -0.666666,-3.333333 -3.333333,-3.333333 -2.666667,0 -3.333333,0.666666 -3.333333,3.333333 0,2.666667 0.666666,3.333334 3.333333,3.333334 2.666667,0 3.333333,-0.666667 3.333333,-3.333334 z m 10.666667,0 c 0,-2.814815 -0.622222,-3.333333 -4,-3.333333 -3.377777,0 -4,0.518518 -4,3.333333 0,2.814815 0.622223,3.333334 4,3.333334 3.377778,0 4,-0.518519 4,-3.333334 z m 9.333334,0 c 0,-2.666667 -0.666667,-3.333333 -3.333333,-3.333333 -2.666667,0 -3.333334,0.666666 -3.333334,3.333333 0,2.666667 0.666667,3.333334 3.333334,3.333334 2.666666,0 3.333333,-0.666667 3.333333,-3.333334 z"
       id="path20"
       inkscape:connector-curvature="0" />
    <path
       style="fill:#232b3b;stroke-width:1.33333337"
       d="m 37.056937,58.001534 0.390269,-24.6682 h 25.886129 25.886129 l 0.390269,24.6682 0.390269,24.668198 H 63.333335 36.666668 Z m 10.943064,16.665135 c 0,-3.555556 -0.444444,-4 -4,-4 -3.555556,0 -4,0.444444 -4,4 0,3.555556 0.444444,4 4,4 3.555556,0 4,-0.444444 4,-4 z m 9.333334,0 c 0,-3.555556 -0.444444,-4 -4,-4 -3.555556,0 -4,0.444444 -4,4 0,3.555556 0.444444,4 4,4 3.555556,0 4,-0.444444 4,-4 z m 10.421896,-0.333334 c 0.379081,-3.294558 0.007,-3.666666 -3.666667,-3.666666 -3.673638,0 -4.088562,0.414924 -4.088562,4.088562 0,3.673641 0.372108,4.045749 3.666666,3.666667 2.879959,-0.331374 3.757188,-1.208604 4.088563,-4.088563 z m 9.578104,0.333334 c 0,-3.555556 -0.444444,-4 -4,-4 -3.555556,0 -4,0.444444 -4,4 0,3.555556 0.444444,4 4,4 3.555556,0 4,-0.444444 4,-4 z m 9.333334,-6.092735 c 0,-9.703894 -0.115587,-10.07632 -3,-9.666667 -2.75287,0.390969 -3.032271,1.222376 -3.391747,10.092735 -0.387799,9.569283 -0.357576,9.666667 3,9.666667 3.334722,0 3.391747,-0.169688 3.391747,-10.092735 z M 47.333335,63.333335 c 0,-3.372469 -0.575236,-4.066188 -3.666667,-4.421896 -3.40455,-0.391737 -3.666667,-0.07563 -3.666667,4.421896 0,4.497527 0.262117,4.813634 3.666667,4.421896 3.091431,-0.355708 3.666667,-1.049426 3.666667,-4.421896 z m 10,-0.08856 c 0,-4.397636 -0.274876,-4.723504 -3.655266,-4.333333 -6.156037,0.710536 -5.897848,9.08856 0.280086,9.08856 2.980433,0 3.37518,-0.556152 3.37518,-4.75523 z m 10,0.08856 c 0,-3.372469 -0.575236,-4.066188 -3.666667,-4.421896 -3.404549,-0.391737 -3.666666,-0.07563 -3.666666,4.421896 0,4.497527 0.262117,4.813634 3.666666,4.421896 3.091431,-0.355708 3.666667,-1.049426 3.666667,-4.421896 z m 10,-0.08856 c 0,-4.400913 -0.273206,-4.723795 -3.666666,-4.333333 -3.055274,0.351548 -3.736335,1.144452 -4.084478,4.755229 -0.389217,4.03677 -0.138279,4.333334 3.666667,4.333334 3.793575,-3e-6 4.084477,-0.338678 4.084477,-4.755233 z M 48.000001,52.000001 c 0,-3.555556 -0.444444,-4 -4,-4 -3.555556,0 -4,0.444444 -4,4 0,3.555557 0.444444,4.000001 4,4.000001 3.555556,0 4,-0.444444 4,-4.000001 z m 9.333334,0 c 0,-3.555556 -0.444444,-4 -4,-4 -3.555556,0 -4,0.444444 -4,4 0,3.555557 0.444444,4.000001 4,4.000001 3.555556,0 4,-0.444444 4,-4.000001 z m 10.421896,0.333334 c -0.331375,-2.879959 -1.208604,-3.757188 -4.088563,-4.088563 -3.294558,-0.379081 -3.666666,-0.007 -3.666666,3.666667 0,3.673639 0.414924,4.088563 4.088562,4.088563 3.67364,0 4.045748,-0.372108 3.666667,-3.666667 z m 9.578104,-0.333334 c 0,-3.555556 -0.444444,-4 -4,-4 -3.555556,0 -4,0.444444 -4,4 0,3.555557 0.444444,4.000001 4,4.000001 3.555556,0 4,-0.444444 4,-4.000001 z m 10.421897,0.333334 c -0.331375,-2.879959 -1.208604,-3.757188 -4.088563,-4.088563 -3.294559,-0.379081 -3.666667,-0.007 -3.666667,3.666667 0,3.673639 0.414924,4.088563 4.088563,4.088563 3.67364,0 4.045748,-0.372108 3.666667,-3.666667 z M 47.333335,42.000001 c 0,-3.372469 -0.575236,-4.066188 -3.666667,-4.421896 -3.254014,-0.374416 -3.666667,0.0132 -3.666667,3.444444 0,4.679648 1.031093,5.879592 4.611799,5.36703 2.048465,-0.293231 2.721535,-1.378827 2.721535,-4.389578 z m 9.758411,-0.430749 c 0.39827,-4.151342 0.188785,-4.403586 -3.321934,-4 -2.340424,0.26905 -3.918749,1.335893 -4.204508,2.841966 -0.768553,4.050613 0.880057,6.472214 4.095403,6.015633 2.32213,-0.329746 3.102662,-1.434807 3.431039,-4.857599 z m 10.241589,0.430749 c 0,-3.372469 -0.575236,-4.066188 -3.666667,-4.421896 -3.254013,-0.374416 -3.666666,0.0132 -3.666666,3.444444 0,4.679648 1.031093,5.879592 4.611798,5.36703 2.048466,-0.293231 2.721535,-1.378827 2.721535,-4.389578 z m 9.333334,0 c 0,-3.371903 -0.520548,-4 -3.315074,-4 -2.137932,0 -3.479961,0.856193 -3.779431,2.411217 -0.779002,4.045033 0.870865,6.472546 4.088543,6.015633 2.356214,-0.334584 3.005962,-1.291463 3.005962,-4.42685 z m 10,0 c 0,-4.088889 -0.412699,-4.666667 -3.333333,-4.666667 -2.920635,0 -3.333334,0.577778 -3.333334,4.666667 0,4.08889 0.412699,4.666667 3.333334,4.666667 2.920634,0 3.333333,-0.577777 3.333333,-4.666667 z"
       id="path18"
       inkscape:connector-curvature="0" />
    <path
       style="fill:#1b2539;stroke-width:1.33333337"
       d="m 39.186046,78.09697 c -0.401644,-1.046668 -0.464522,-3.296668 -0.139729,-5 0.458999,-2.407156 0.630976,-2.151497 0.772108,1.147803 0.151832,3.54942 0.782224,4.33576 3.848243,4.800224 l 3.666667,0.555453 -3.708514,0.199776 c -2.133901,0.114947 -4.018577,-0.60824 -4.438775,-1.703256 z m 9.366014,0.08516 c -0.419619,-1.093506 -0.497203,-3.381829 -0.172409,-5.085161 0.449606,-2.357903 0.633864,-2.062855 0.772108,1.236365 0.161906,3.86393 0.605721,4.333334 4.097098,4.333334 3.40722,0 3.992353,-0.56254 4.507359,-4.333334 l 0.591839,-4.333332 -0.174027,4.666667 c -0.158477,4.249713 -0.562016,4.704057 -4.516527,5.085161 -2.912084,0.280644 -4.593813,-0.236414 -5.105441,-1.5697 z m 13.139984,0.893883 c 1.29729,-0.338057 3.09729,-0.315825 4,0.0494 0.90271,0.365237 -0.158709,0.641831 -2.358709,0.614657 -2.2,-0.02717 -2.938581,-0.325997 -1.641291,-0.664057 z M 68.55206,78.18213 c -0.419618,-1.093506 -0.497202,-3.381829 -0.172409,-5.085161 0.449607,-2.357903 0.633864,-2.062855 0.772108,1.236365 0.161907,3.86393 0.605722,4.333334 4.097099,4.333334 3.40722,0 3.992352,-0.56254 4.507359,-4.333334 l 0.591838,-4.333332 -0.174026,4.666667 c -0.158478,4.249713 -0.562016,4.704057 -4.516527,5.085161 -2.912084,0.280644 -4.593814,-0.236414 -5.105442,-1.5697 z m 13.139985,0.893883 c 1.297289,-0.338057 3.097289,-0.315825 4,0.0494 0.902709,0.365237 -0.158709,0.641831 -2.358709,0.614657 -2.200001,-0.02717 -2.938582,-0.325997 -1.641291,-0.664057 z M 41.692044,68.409346 c 1.297289,-0.338057 3.097289,-0.315825 4,0.0494 0.902709,0.365237 -0.158709,0.641831 -2.35871,0.614657 -2.2,-0.02717 -2.938581,-0.325997 -1.64129,-0.664057 z m 11.562676,0.178707 c 3.188864,-0.606062 4.030847,-1.540071 4.50736,-5.000001 0.566096,-4.110384 0.580071,-4.096409 0.411948,0.411948 -0.1591,4.266385 -0.545717,4.695259 -4.50736,5.000001 -4.126984,0.31746 -4.146601,0.297844 -0.411948,-0.411948 z m 8.437324,-0.178707 c 1.29729,-0.338057 3.09729,-0.315825 4,0.0494 0.90271,0.365237 -0.158709,0.641831 -2.358709,0.614657 -2.2,-0.02717 -2.938581,-0.325997 -1.641291,-0.664057 z m 6.866026,-0.87822 c -0.416312,-1.084891 -0.562187,-3.673214 -0.324167,-5.751827 0.378721,-3.307333 1.015545,-3.801029 5.099432,-3.953324 l 4.666667,-0.174027 -4.333333,0.591839 c -3.933466,0.537224 -4.333334,1.014669 -4.333334,5.174025 0,4.180463 0.343279,4.58219 3.915523,4.58219 3.40722,0 3.992352,-0.56254 4.507359,-4.333334 l 0.591838,-4.333333 -0.174026,4.666667 c -0.158478,4.249713 -0.562016,4.704057 -4.516527,5.085161 -2.898651,0.27935 -4.594175,-0.237357 -5.099432,-1.554037 z M 38.9266,63.333335 c 0.02717,-2.2 0.325997,-2.938581 0.664056,-1.641291 0.338057,1.29729 0.315825,3.09729 -0.0494,4.000001 -0.365236,0.902709 -0.64183,-0.15871 -0.614656,-2.35871 z m 9.406735,-1 c 0.293812,-3.819548 0.807597,-4.348072 4.333333,-4.457639 3.609137,-0.11216 3.649391,-0.07191 0.411948,0.41195 -2.733099,0.408474 -3.765636,1.470632 -4.333333,4.457637 -0.709792,3.734654 -0.729408,3.715036 -0.411948,-0.411948 z M 41.692044,57.74268 c 1.297289,-0.338057 3.097289,-0.315825 4,0.0494 0.902709,0.365236 -0.158709,0.64183 -2.35871,0.614656 -2.2,-0.02717 -2.938581,-0.325997 -1.64129,-0.664056 z m 20,0 c 1.29729,-0.338057 3.09729,-0.315825 4,0.0494 0.90271,0.365236 -0.158709,0.64183 -2.358709,0.614656 -2.2,-0.02717 -2.938581,-0.325997 -1.641291,-0.664056 z m 20.000001,0 c 1.297289,-0.338057 3.097289,-0.315825 4,0.0494 0.902709,0.365236 -0.158709,0.64183 -2.358709,0.614656 -2.200001,-0.02717 -2.938582,-0.325997 -1.641291,-0.664056 z M 39.000001,51.666668 c 0.358387,-4.659031 -0.06179,-4.512413 14,-4.88514 4.041614,-0.107128 4.333334,-0.42902 4.333334,-4.781527 0,-4.158001 -0.399666,-4.686459 -3.666667,-4.848243 -3.251699,-0.161026 -3.318841,-0.248058 -0.593277,-0.769018 3.32478,-0.635492 7.358284,1.840109 6.1592,3.780268 -0.405927,0.656804 -0.347816,2.423704 0.129133,3.926444 1.418964,4.470759 7.73362,2.972703 8.807527,-2.089451 0.816879,-3.85058 0.854469,-3.869131 1.006329,-0.496593 0.18157,4.032311 -1.771873,6.046407 -6.500338,6.702169 -2.455414,0.340527 -3.547227,1.506994 -4.175579,4.461091 l -0.850821,4 -0.157754,-4.333333 c -0.140861,-3.869338 -0.577012,-4.333334 -4.073276,-4.333334 -3.418312,0 -3.983808,0.550264 -4.453283,4.333334 l -0.537762,4.333333 -0.213383,-4.333333 c -0.189912,-3.856708 -0.644052,-4.333334 -4.128906,-4.333334 -3.294769,0 -4.034605,0.634146 -4.666666,4 -0.740535,3.943503 -0.746436,3.938795 -0.417811,-0.333333 z m 29.333334,0 c 0.294729,-3.831484 0.835183,-4.38172 4.666667,-4.751144 3.94906,-0.380761 4.333333,-0.8163 4.333333,-4.911437 0,-3.878594 -0.501849,-4.56965 -3.666666,-5.049081 l -3.666667,-0.555453 3.709632,-0.199776 c 2.726561,-0.146835 4.0101,0.595239 4.843449,2.800224 0.623599,1.65 0.810552,3.544335 0.415451,4.209634 -0.395101,0.665298 -0.715473,3.965298 -0.711939,7.333333 0.0045,4.357828 -0.15198,4.874111 -0.542894,1.790367 -0.476135,-3.756003 -1.059732,-4.333334 -4.380366,-4.333334 -3.200905,0 -3.954593,0.657928 -4.582189,4 -0.740535,3.943503 -0.746436,3.938795 -0.417811,-0.333333 z m 19.976005,0.333333 c 0,-2.566666 0.274393,-3.616666 0.609764,-2.333333 0.335369,1.283333 0.335369,3.383334 0,4.666667 -0.335371,1.283333 -0.609764,0.233333 -0.609764,-2.333334 z m -6.617295,-4.923988 c 1.297289,-0.338057 3.097289,-0.315825 4,0.0494 0.902709,0.365236 -0.158709,0.64183 -2.358709,0.614656 -2.200001,-0.02717 -2.938582,-0.325997 -1.641291,-0.664056 z M 38.9266,42.000001 c 0.02717,-2.2 0.325997,-2.938581 0.664056,-1.641291 0.338057,1.29729 0.315825,3.09729 -0.0494,4.000001 -0.365236,0.902709 -0.64183,-0.15871 -0.614656,-2.35871 z m 9.333333,0 c 0.02717,-2.2 0.325998,-2.938581 0.664056,-1.641291 0.338058,1.29729 0.315826,3.09729 -0.0494,4.000001 -0.365236,0.902709 -0.641829,-0.15871 -0.614656,-2.35871 z m -6.567889,-5.590655 c 1.297289,-0.338057 3.097289,-0.315825 4,0.0494 0.902709,0.365236 -0.158709,0.64183 -2.35871,0.614656 -2.2,-0.02717 -2.938581,-0.325997 -1.64129,-0.664056 z m 20,0 c 1.29729,-0.338057 3.09729,-0.315825 4,0.0494 0.90271,0.365236 -0.158709,0.64183 -2.358709,0.614656 -2.2,-0.02717 -2.938581,-0.325997 -1.641291,-0.664056 z m 20.000001,0 c 1.297289,-0.338057 3.097289,-0.315825 4,0.0494 0.902709,0.365236 -0.158709,0.64183 -2.358709,0.614656 -2.200001,-0.02717 -2.938582,-0.325997 -1.641291,-0.664056 z M 50.40426,33.671377 c 7.555675,-0.238093 19.555675,-0.237128 26.666667,0.0021 7.110991,0.239283 0.929075,0.434087 -13.737592,0.432908 C 48.666668,34.10524 42.848584,33.90947 50.40426,33.671377 Z"
       id="path16"
       inkscape:connector-curvature="0" />
  </g>
</svg>
