<?xml version="1.0" encoding="UTF-8" standalone="no"?>
<!-- Created with Inkscape (http://www.inkscape.org/) -->

<svg
   xmlns:dc="http://purl.org/dc/elements/1.1/"
   xmlns:cc="http://creativecommons.org/ns#"
   xmlns:rdf="http://www.w3.org/1999/02/22-rdf-syntax-ns#"
   xmlns:svg="http://www.w3.org/2000/svg"
   xmlns="http://www.w3.org/2000/svg"
   xmlns:sodipodi="http://sodipodi.sourceforge.net/DTD/sodipodi-0.dtd"
   xmlns:inkscape="http://www.inkscape.org/namespaces/inkscape"
   version="1.1"
   id="svg2"
   width="120"
   height="93.333336"
   viewBox="0 0 120 93.333336"
   sodipodi:docname="default.svg"
   inkscape:version="0.92.2 5c3e80d, 2017-08-06">
  <metadata
     id="metadata8">
    <rdf:RDF>
      <cc:Work
         rdf:about="">
        <dc:format>image/svg+xml</dc:format>
        <dc:type
           rdf:resource="http://purl.org/dc/dcmitype/StillImage" />
        <dc:title></dc:title>
      </cc:Work>
    </rdf:RDF>
  </metadata>
  <defs
     id="defs6" />
  <sodipodi:namedview
     pagecolor="#ffffff"
     bordercolor="#666666"
     borderopacity="1"
     objecttolerance="10"
     gridtolerance="10"
     guidetolerance="10"
     inkscape:pageopacity="0"
     inkscape:pageshadow="2"
     inkscape:window-width="1918"
     inkscape:window-height="1027"
     id="namedview4"
     showgrid="false"
     inkscape:pagecheckerboard="true"
     inkscape:zoom="2.275"
     inkscape:cx="60"
     inkscape:cy="46.666668"
     inkscape:window-x="0"
     inkscape:window-y="0"
     inkscape:window-maximized="1"
     inkscape:current-layer="svg2" />
  <path
     style="fill:#ffffff;fill-opacity:1;stroke-width:0.43956044"
     d="m 52.087912,85.831503 v -4.615385 h -1.318681 c -0.879121,0 -1.318682,-0.21978 -1.318682,-0.65934 0,-0.439561 -0.43956,-0.659341 -1.318681,-0.659341 -0.879121,0 -1.318681,-0.21978 -1.318681,-0.65934 0,-0.439561 -0.439561,-0.659341 -1.318682,-0.659341 -0.87912,0 -1.318681,-0.21978 -1.318681,-0.659341 0,-0.498167 -0.53724,-0.65934 -2.197802,-0.65934 -1.660562,0 -2.197802,0.161173 -2.197802,0.65934 0,0.362638 -0.296704,0.659341 -0.659341,0.659341 -0.362637,0 -0.659341,0.296703 -0.659341,0.659341 0,0.362637 -0.296703,0.65934 -0.65934,0.65934 -0.362638,0 -0.659341,0.296703 -0.659341,0.659341 0,0.362637 -0.296703,0.65934 -0.659341,0.65934 -0.362637,0 -0.65934,0.296704 -0.65934,0.659341 0,0.439561 -0.439561,0.659341 -1.318681,0.659341 -0.879121,0 -1.318682,-0.21978 -1.318682,-0.659341 0,-0.362637 -0.296703,-0.659341 -0.65934,-0.659341 -0.362638,0 -0.659341,-0.296703 -0.659341,-0.65934 0,-0.362638 -0.296703,-0.659341 -0.659341,-0.659341 -0.362637,0 -0.65934,-0.296703 -0.65934,-0.65934 0,-0.362638 -0.296704,-0.659341 -0.659341,-0.659341 -0.362637,0 -0.659341,-0.296703 -0.659341,-0.659341 0,-0.362637 -0.296703,-0.65934 -0.65934,-0.65934 -0.362638,0 -0.659341,-0.296704 -0.659341,-0.659341 0,-0.362637 -0.296703,-0.659341 -0.659341,-0.659341 -0.362637,0 -0.65934,-0.296703 -0.65934,-0.65934 0,-0.362638 -0.296704,-0.659341 -0.659341,-0.659341 -0.362637,0 -0.659341,-0.296703 -0.659341,-0.659341 0,-0.362637 -0.296703,-0.65934 -0.65934,-0.65934 -0.439561,0 -0.659341,-0.439561 -0.659341,-1.318682 0,-0.879121 0.21978,-1.318681 0.659341,-1.318681 0.362637,0 0.65934,-0.296703 0.65934,-0.659341 0,-0.362637 0.296704,-0.65934 0.659341,-0.65934 0.362637,0 0.659341,-0.296704 0.659341,-0.659341 0,-0.362637 0.296703,-0.659341 0.65934,-0.659341 0.362638,0 0.659341,-0.296703 0.659341,-0.65934 0,-0.362638 0.296703,-0.659341 0.659341,-0.659341 0.4884,0 0.65934,-0.512822 0.65934,-1.978022 0,-1.4652 -0.17094,-1.978022 -0.65934,-1.978022 -0.439561,0 -0.659341,-0.43956 -0.659341,-1.318681 0,-0.879121 -0.21978,-1.318682 -0.659341,-1.318682 -0.43956,0 -0.65934,-0.43956 -0.65934,-1.318681 0,-0.879121 -0.219781,-1.318681 -0.659341,-1.318681 -0.439561,0 -0.659341,-0.439561 -0.659341,-1.318682 v -1.318681 h -3.956044 c -3.223443,0 -3.956044,-0.122101 -3.956044,-0.659341 0,-0.362637 -0.296703,-0.65934 -0.65934,-0.65934 -0.557722,0 -0.659341,-1.050062 -0.659341,-6.813187 0,-5.763126 0.101619,-6.813187 0.659341,-6.813187 0.362637,0 0.65934,-0.296703 0.65934,-0.65934 0,-0.537241 0.732601,-0.659341 3.956044,-0.659341 h 3.956044 v -1.318681 c 0,-0.879121 0.21978,-1.318682 0.659341,-1.318682 0.43956,0 0.659341,-0.43956 0.659341,-1.318681 0,-0.879121 0.21978,-1.318681 0.65934,-1.318681 0.439561,0 0.659341,-0.439561 0.659341,-1.318682 0,-0.879121 0.21978,-1.318681 0.659341,-1.318681 0.4884,0 0.65934,-0.512821 0.65934,-1.978022 0,-1.465201 -0.17094,-1.978022 -0.65934,-1.978022 -0.362638,0 -0.659341,-0.296703 -0.659341,-0.659341 0,-0.362637 -0.296703,-0.65934 -0.659341,-0.65934 -0.362637,0 -0.65934,-0.296704 -0.65934,-0.659341 0,-0.362637 -0.296704,-0.659341 -0.659341,-0.659341 -0.362637,0 -0.659341,-0.296703 -0.659341,-0.65934 0,-0.362638 -0.296703,-0.659341 -0.65934,-0.659341 -0.439561,0 -0.659341,-0.43956 -0.659341,-1.318681 0,-0.879121 0.21978,-1.318682 0.659341,-1.318682 0.362637,0 0.65934,-0.296703 0.65934,-0.65934 0,-0.362638 0.296704,-0.659341 0.659341,-0.659341 0.362637,0 0.659341,-0.296703 0.659341,-0.659341 0,-0.362637 0.296703,-0.65934 0.65934,-0.65934 0.362638,0 0.659341,-0.296704 0.659341,-0.659341 0,-0.362637 0.296703,-0.659341 0.659341,-0.659341 0.362637,0 0.65934,-0.296703 0.65934,-0.65934 0,-0.362638 0.296704,-0.659341 0.659341,-0.659341 0.362637,0 0.659341,-0.296703 0.659341,-0.659341 0,-0.362637 0.296703,-0.65934 0.65934,-0.65934 0.362638,0 0.659341,-0.296704 0.659341,-0.659341 0,-0.362637 0.296703,-0.659341 0.659341,-0.659341 0.3663,0 0.65934,-0.39072 0.65934,-0.87912 0,-0.683761 0.293041,-0.879121 1.318682,-0.879121 1.02564,0 1.318681,0.19536 1.318681,0.879121 0,0.4884 0.29304,0.87912 0.65934,0.87912 0.362638,0 0.659341,0.296704 0.659341,0.659341 0,0.362637 0.296703,0.659341 0.659341,0.659341 0.362637,0 0.65934,0.296703 0.65934,0.65934 0,0.362638 0.296704,0.659341 0.659341,0.659341 0.362637,0 0.659341,0.296703 0.659341,0.659341 0,0.498168 0.53724,0.65934 2.197802,0.65934 1.660562,0 2.197802,-0.161172 2.197802,-0.65934 0,-0.439561 0.439561,-0.659341 1.318681,-0.659341 0.879121,0 1.318682,-0.21978 1.318682,-0.659341 0,-0.43956 0.43956,-0.65934 1.318681,-0.65934 0.879121,0 1.318681,-0.21978 1.318681,-0.659341 0,-0.43956 0.439561,-0.659341 1.318682,-0.659341 h 1.318681 V 8.0293053 c 0,-3.4188034 0.11953,-4.1758242 0.659341,-4.1758242 0.362637,0 0.65934,-0.2967033 0.65934,-0.6593406 0,-0.5567766 1.025641,-0.6593407 6.593407,-0.6593407 5.567767,0 6.593407,0.1025641 6.593407,0.6593407 0,0.3626373 0.296703,0.6593406 0.65934,0.6593406 0.539811,0 0.659341,0.7570208 0.659341,4.1758242 v 4.1758237 h 1.318681 c 0.879121,0 1.318682,0.219781 1.318682,0.659341 0,0.439561 0.43956,0.659341 1.318681,0.659341 0.879121,0 1.318681,0.21978 1.318681,0.65934 0,0.439561 0.439561,0.659341 1.318682,0.659341 0.87912,0 1.318681,0.21978 1.318681,0.659341 0,0.4884 0.512822,0.65934 1.978022,0.65934 1.4652,0 1.978022,-0.17094 1.978022,-0.65934 0,-0.3663 0.390721,-0.659341 0.879121,-0.659341 0.4884,0 0.879121,-0.29304 0.879121,-0.659341 0,-0.362637 0.296703,-0.65934 0.65934,-0.65934 0.362638,0 0.659341,-0.296704 0.659341,-0.659341 0,-0.362637 0.296703,-0.659341 0.659341,-0.659341 0.366298,0 0.65934,-0.39072 0.65934,-0.87912 0,-0.683761 0.293042,-0.879121 1.318681,-0.879121 1.02564,0 1.318682,0.19536 1.318682,0.879121 0,0.4884 0.293042,0.87912 0.65934,0.87912 0.362638,0 0.659341,0.296704 0.659341,0.659341 0,0.362637 0.296703,0.659341 0.659341,0.659341 0.362637,0 0.65934,0.296703 0.65934,0.65934 0,0.362638 0.296704,0.659341 0.659341,0.659341 0.362637,0 0.659341,0.296703 0.659341,0.659341 0,0.362637 0.296703,0.65934 0.65934,0.65934 0.362638,0 0.659341,0.296704 0.659341,0.659341 0,0.362637 0.296703,0.659341 0.659341,0.659341 0.362637,0 0.65934,0.296703 0.65934,0.65934 0,0.362638 0.296704,0.659341 0.659341,0.659341 0.362637,0 0.659341,0.296703 0.659341,0.659341 0,0.362637 0.296703,0.65934 0.65934,0.65934 0.439561,0 0.659341,0.439561 0.659341,1.318682 0,0.879121 -0.21978,1.318681 -0.659341,1.318681 -0.362637,0 -0.65934,0.296703 -0.65934,0.659341 0,0.362637 -0.296704,0.65934 -0.659341,0.65934 -0.362637,0 -0.659341,0.296704 -0.659341,0.659341 0,0.362637 -0.296703,0.659341 -0.65934,0.659341 -0.362638,0 -0.659341,0.296703 -0.659341,0.65934 0,0.362638 -0.296703,0.659341 -0.659341,0.659341 -0.4884,0 -0.65934,0.512821 -0.65934,1.978022 0,1.465201 0.17094,1.978022 0.65934,1.978022 0.439561,0 0.659341,0.43956 0.659341,1.318681 0,0.879121 0.21978,1.318682 0.659341,1.318682 0.43956,0 0.65934,0.43956 0.65934,1.318681 0,0.879121 0.219781,1.318681 0.659341,1.318681 0.439561,0 0.659341,0.439561 0.659341,1.318682 v 1.318681 h 3.956044 c 3.223441,0 3.956041,0.1221 3.956041,0.659341 0,0.362637 0.29671,0.65934 0.65934,0.65934 0.56023,0 0.65934,1.123321 0.65934,7.472528 v 7.472527 h -4.615381 -4.615384 v 1.318681 c 0,0.879121 -0.21978,1.318682 -0.659341,1.318682 -0.43956,0 -0.659341,0.43956 -0.659341,1.318681 0,0.879121 -0.21978,1.318681 -0.65934,1.318681 -0.439561,0 -0.659341,0.439561 -0.659341,1.318682 0,0.879121 -0.21978,1.318681 -0.659341,1.318681 -0.4884,0 -0.65934,0.512822 -0.65934,1.978022 0,1.4652 0.17094,1.978022 0.65934,1.978022 0.362638,0 0.659341,0.296703 0.659341,0.659341 0,0.362637 0.296703,0.65934 0.659341,0.65934 0.362637,0 0.65934,0.296704 0.65934,0.659341 0,0.362637 0.296704,0.659341 0.659341,0.659341 0.362637,0 0.659341,0.296703 0.659341,0.65934 0,0.362638 0.296703,0.659341 0.65934,0.659341 0.439561,0 0.659341,0.43956 0.659341,1.318681 0,0.879121 -0.21978,1.318682 -0.659341,1.318682 -0.362637,0 -0.65934,0.296703 -0.65934,0.65934 0,0.362638 -0.296704,0.659341 -0.659341,0.659341 -0.362637,0 -0.659341,0.296703 -0.659341,0.659341 0,0.362637 -0.296703,0.65934 -0.65934,0.65934 -0.362638,0 -0.659341,0.296704 -0.659341,0.659341 0,0.362637 -0.296703,0.659341 -0.659341,0.659341 -0.362637,0 -0.65934,0.296703 -0.65934,0.65934 0,0.362638 -0.296704,0.659341 -0.659341,0.659341 -0.362637,0 -0.659341,0.296703 -0.659341,0.659341 0,0.362637 -0.296703,0.65934 -0.65934,0.65934 -0.362638,0 -0.659341,0.296703 -0.659341,0.659341 0,0.362637 -0.296703,0.65934 -0.659341,0.65934 -0.362637,0 -0.65934,0.296704 -0.65934,0.659341 0,0.439561 -0.439561,0.659341 -1.318682,0.659341 -0.87912,0 -1.318681,-0.21978 -1.318681,-0.659341 0,-0.362637 -0.296703,-0.659341 -0.65934,-0.659341 -0.362638,0 -0.659341,-0.296703 -0.659341,-0.65934 0,-0.362638 -0.296703,-0.659341 -0.659341,-0.659341 -0.362637,0 -0.65934,-0.296703 -0.65934,-0.65934 0,-0.366299 -0.390721,-0.659341 -0.879121,-0.659341 -0.4884,0 -0.879121,-0.293042 -0.879121,-0.659341 0,-0.4884 -0.512822,-0.65934 -1.978022,-0.65934 -1.4652,0 -1.978022,0.17094 -1.978022,0.65934 0,0.439561 -0.439561,0.659341 -1.318681,0.659341 -0.879121,0 -1.318682,0.21978 -1.318682,0.659341 0,0.43956 -0.43956,0.65934 -1.318681,0.65934 -0.879121,0 -1.318681,0.21978 -1.318681,0.659341 0,0.43956 -0.439561,0.65934 -1.318682,0.65934 h -1.318681 v 4.615385 4.615385 H 60 52.087912 Z"
     id="path12"
     inkscape:connector-curvature="0" />
  <g
     id="g14">
    <path
       style="fill:#e8e8e8;stroke-width:1.33333337"
       d="m 51.555556,91.111113 c -0.488889,-0.488888 -0.888889,-2.57348 -0.888889,-4.632427 0,-2.820394 -0.997731,-4.259484 -4.046008,-5.835809 -3.79606,-1.963019 -4.288098,-1.919889 -7.964818,0.698168 -4.699805,3.346556 -7.144812,2.43244 -12.590488,-4.707211 l -3.681876,-4.827188 2.945204,-3.135027 c 2.647444,-2.818073 2.786106,-3.617102 1.371526,-7.903321 -1.29234,-3.915831 -2.22263,-4.768296 -5.20361,-4.768296 -5.145752,0 -6.82993,-2.301488 -6.82993,-9.333334 0,-7.031846 1.684178,-9.333334 6.82993,-9.333334 2.98098,0 3.91127,-0.852465 5.20361,-4.768296 1.419529,-4.301213 1.278986,-5.081981 -1.434748,-7.97062 l -3.008428,-3.202325 6.234197,-6.234198 6.234197,-6.2341975 3.202326,3.0084285 c 2.888638,2.713734 3.669406,2.854277 7.97062,1.434748 3.91583,-1.29234 4.768296,-2.22263 4.768296,-5.2036099 0,-5.1457515 2.301488,-6.8299307 9.333333,-6.8299307 7.031845,0 9.333333,1.6841792 9.333333,6.8299307 0,2.9809799 0.852466,3.9112699 4.768296,5.2036099 4.301214,1.419529 5.081982,1.278986 7.97062,-1.434748 l 3.202326,-3.0084285 6.234197,6.2341975 6.234197,6.234198 -3.008428,3.202325 c -2.713734,2.888639 -2.854277,3.669407 -1.434748,7.97062 1.29234,3.915831 2.22263,4.768296 5.20361,4.768296 5.145747,0 6.829927,2.301488 6.829927,9.333334 0,7.031846 -1.68418,9.333334 -6.829927,9.333334 -2.98098,0 -3.91127,0.852465 -5.20361,4.768296 -1.41458,4.286219 -1.275918,5.085248 1.371526,7.903321 l 2.945204,3.135027 -3.681876,4.827188 c -5.508831,7.222451 -8.13747,8.210592 -12.756726,4.795428 -3.593865,-2.657058 -4.087886,-2.705258 -7.84007,-0.764929 -2.31036,1.194733 -4.004518,3.13836 -4.004518,4.594193 0,5.769271 -1.334509,6.741477 -9.253762,6.741477 -4.19932,0 -8.035127,-0.4 -8.524015,-0.88889 z m 3.332173,-41.653224 c -0.2456,-4.343328 0.249838,-9.179749 1.103823,-10.775436 1.400904,-2.617612 1.251903,-2.852987 -1.554396,-2.455459 -2.825899,0.400304 -3.139637,1.196286 -3.503801,8.889421 -0.362103,7.649623 0.96826,12.211815 3.563238,12.219349 0.460207,0.0013 0.636219,-3.543706 0.391136,-7.877875 z M 72,46.698445 c 0,-3.198606 -2.144305,-4.649538 -3.118717,-2.110262 -0.402312,1.048409 -0.01519,2.176112 0.860286,2.506005 1.0492,0.395359 0.682812,1.358745 -1.074902,2.826365 -2.620143,2.187712 -2.614327,2.201194 0.333333,0.772758 1.65,-0.79959 3,-2.597279 3,-3.994866 z M 50.245679,24.166618 c 1.601789,-0.824973 5.501789,-1.589849 8.666666,-1.699727 3.971215,-0.13787 4.618123,-0.371896 2.087655,-0.755229 -4.171296,-0.631899 -4.584969,-1.936216 -1.570229,-4.950955 1.401013,-1.401015 3.24289,-1.808696 5.552565,-1.229004 2.899047,0.727615 3.313335,0.495315 2.570231,-1.441184 -0.487246,-1.269741 -0.8859,-3.909546 -0.8859,-5.8662354 0,-3.3802512 -0.332368,-3.5576168 -6.666667,-3.5576168 -6.572819,0 -6.666667,0.058451 -6.666667,4.1521896 0,3.6972046 -0.662253,4.4051066 -6.043721,6.4603076 -6.141187,2.345341 -8.379499,1.840447 -11.581803,-2.612497 -0.568105,-0.789975 -2.469857,0.263751 -4.666666,2.585715 -2.039295,2.155476 -2.667754,3.140263 -1.396574,2.188413 2.00192,-1.499021 2.475082,-1.299687 3.535508,1.489446 0.67335,1.771044 2.862234,5.166686 4.864187,7.545872 3.619525,4.301563 3.655733,4.311409 6.464491,1.758124 1.553518,-1.412218 4.135133,-3.242646 5.736924,-4.067619 z M 86.035281,12.257504 c -0.410516,-0.410516 -1.486392,-8.45e-4 -2.390837,0.910379 -1.307023,1.316821 -1.153871,1.469973 0.746393,0.746393 1.314962,-0.500708 2.054962,-1.246255 1.644444,-1.656772 z"
       id="path54"
       inkscape:connector-curvature="0" />
    <path
       style="fill:#d5d5d5;stroke-width:1.33333337"
       d="m 52.266667,90.400003 c -0.88,-0.88 -1.6,-3.23347 -1.6,-5.229931 0,-2.98098 -0.852466,-3.91127 -4.768296,-5.20361 -4.311804,-1.423024 -5.079588,-1.281234 -8.019927,1.48107 l -3.251631,3.054748 -5.313406,-5.188403 c -5.804938,-5.668368 -6.419608,-7.88156 -3.182414,-11.45862 1.779496,-1.966322 1.876688,-3.125275 0.589239,-7.026286 -1.278041,-3.872503 -2.2656,-4.742041 -5.773587,-5.0836 -5.316942,-0.517689 -7.36923,-5.238806 -5.524246,-12.70806 1.08029,-4.373465 1.805134,-5.09161 5.500173,-5.449346 3.535753,-0.342315 4.516788,-1.202523 5.79766,-5.0836 1.287449,-3.901011 1.190257,-5.059964 -0.589239,-7.026286 -3.138238,-3.467713 -2.637994,-5.796894 2.265816,-10.549856 4.826422,-4.677952 7.733186,-5.3180589 10.269858,-2.261556 3.496481,4.213001 12,0.810179 12,-4.8019974 0,-2.03901 0.6,-4.0781112 1.333333,-4.5313362 0.793837,-0.4906185 1.333333,1.1030418 1.333333,3.9386399 0,4.3211637 -0.554061,5.0318697 -5.976658,7.6663697 l -5.976658,2.903686 -3.365653,-3.161869 -3.365653,-3.161866 -3.991023,3.823641 c -4.470352,4.28287 -4.917884,6.228986 -1.991021,8.658066 1.1,0.912918 2,2.690077 2,3.94924 0,1.259163 1.5,2.972832 3.333333,3.808155 1.833333,0.835322 3.333333,2.177666 3.333333,2.982986 0,0.805322 1.575475,-0.408125 3.501055,-2.696548 9.299491,-11.051816 27.146395,-12.500889 35.701732,-2.898791 l 2.536121,2.846421 4.528063,-4.662398 c 2.490435,-2.56432 5.69918,-4.662399 7.130547,-4.662399 3.736453,0 3.208757,-2.920242 -1.310004,-7.249491 l -3.912487,-3.748399 -3.513784,2.763942 c -2.776752,2.184195 -4.212296,2.498369 -6.843935,1.497823 -7.411186,-2.817729 -8.483974,-3.920718 -8.483974,-8.7228095 0,-2.7927709 0.540796,-4.3642144 1.333333,-3.8743991 0.733333,0.453225 1.333333,2.4923262 1.333333,4.5313362 0,5.6121764 8.503519,9.0149984 12,4.8019974 2.587544,-3.1177995 5.770859,-2.384525 10.405111,2.396809 4.677952,4.826422 5.318059,7.733186 2.261556,10.269858 -4.302355,3.570637 -0.878864,11.672268 5.181704,12.262408 3.575986,0.348206 4.324156,1.102708 5.395896,5.441569 1.84499,7.469254 -0.2073,12.190371 -5.524245,12.70806 -3.507987,0.341559 -4.495546,1.211097 -5.773587,5.0836 -1.287449,3.901011 -1.190257,5.059964 0.589239,7.026286 3.237194,3.57706 2.622524,5.790252 -3.182414,11.45862 l -5.313406,5.188403 -3.251631,-3.054748 c -2.940339,-2.762304 -3.708123,-2.904094 -8.019927,-1.48107 -3.91583,1.29234 -4.768296,2.22263 -4.768296,5.20361 0,5.145752 -2.301488,6.829931 -9.333333,6.829931 -3.373333,0 -6.853333,-0.72 -7.733333,-1.6 z m 9.4,-0.616375 C 60.75,89.413745 59.25,89.413745 58.333333,89.783628 57.416667,90.153512 58.166667,90.456143 60,90.456143 c 1.833333,0 2.583333,-0.302631 1.666667,-0.672515 z m 21,-20.139587 c 0,-0.577879 -0.93476,-2.385246 -2.077244,-4.01637 -1.142484,-1.631124 -1.649687,-3.714628 -1.127118,-4.630008 0.52257,-0.91538 -0.79267,-0.04743 -2.922756,1.928788 -2.130085,1.976215 -5.840061,4.419246 -8.24439,5.428958 -4.324134,1.815945 -4.269948,1.838569 5,2.087581 5.154329,0.138457 9.371508,-0.221069 9.371508,-0.798949 z M 64.122644,53.271424 C 74.577233,47.993964 74.549677,44.961379 64,39.774522 51.671536,33.713108 49.857189,34.724517 50.47274,47.315307 c 0.352939,7.219175 1.594999,9.939188 4.565283,9.997611 0.570912,0.0112 4.658992,-1.807443 9.084621,-4.041494 z M 60,50.666668 c 0,-1.466667 0.835807,-2.666667 1.857348,-2.666667 2.666263,0 3.689047,3.632938 1.282745,4.556322 C 60.174331,53.694394 60,53.589484 60,50.666668 Z m 39.025376,-11.54125 c -0.902711,-0.36523 -2.702711,-0.387462 -4,-0.0494 -1.297291,0.338054 -0.558709,0.636879 1.641291,0.664051 2.2,0.02717 3.261418,-0.24942 2.358709,-0.614651 z M 57.666667,1.747566 C 58.95,1.4121959 61.05,1.4121959 62.333333,1.747566 63.616667,2.0829361 62.566667,2.3573298 60,2.3573298 c -2.566667,0 -3.616667,-0.2743937 -2.333333,-0.6097638 z"
       id="path52"
       inkscape:connector-curvature="0" />
    <path
       style="fill:#c8c8c8;stroke-width:1.33333337"
       d="m 52.266667,90.400003 c -0.88,-0.88 -1.6,-3.23347 -1.6,-5.229931 0,-2.978412 -0.852603,-3.911315 -4.750267,-5.19766 -3.989831,-1.316763 -5.127217,-1.226594 -7.104988,0.563264 C 35.343699,83.673914 33.014517,83.17367 28.261556,78.26986 23.583604,73.443438 22.943497,70.536674 26,68.000002 c 4.213001,-3.496481 0.810179,-12 -4.801997,-12 -4.74233,0 -5.72173,-1.709055 -5.600092,-9.77217 0.103626,-6.86949 1.561868,-8.838028 6.573662,-8.87408 1.882491,-0.01355 3.392828,-1.359314 4.485175,-3.996471 1.647507,-3.977433 1.40976,-5.437051 -1.556504,-9.555959 -3.214792,-4.464012 7.570399,-15.249203 12.034411,-12.034411 4.118908,2.966264 5.578525,3.204011 9.555958,1.556503 2.637158,-1.092346 3.982928,-2.602683 3.996471,-4.4851741 C 50.698313,7.2772079 51.289125,5.1000001 52,4.0000001 c 0.960221,-1.485837 1.297748,-0.7024108 1.312916,3.0473833 0.01919,4.7431906 -0.353513,5.2076686 -6.184101,7.7069506 l -6.204519,2.659566 -3.169389,-2.977486 -3.16939,-2.977487 -4.6839,4.6839 -4.6839,4.683902 2.85166,3.625297 c 2.676858,3.403073 2.730516,3.929421 0.875366,8.586636 -1.547104,3.883892 -3.094904,5.326379 -7.127184,6.642248 -5.118175,1.670234 -5.121868,1.676498 -0.581448,0.986112 2.513194,-0.38214 4.165268,-0.290622 3.671274,0.203371 -0.493992,0.493994 2.249758,4.3759 6.097223,8.626462 3.847465,4.25056 8.979455,10.113293 11.404421,13.028296 4.225212,5.079044 4.299524,5.358611 1.782436,6.705715 -1.465237,0.784171 -2.428117,2.444052 -2.17771,3.754089 0.246885,1.29161 0.494789,2.833791 0.550897,3.42707 0.05611,0.593279 0.702015,0.707869 1.435348,0.254644 0.733333,-0.453225 1.333333,-0.236308 1.333333,0.482037 0,0.718346 1.8,1.701428 4,2.18463 3.488287,0.766156 4,1.458744 4,5.41387 0,3.725694 0.595056,4.684674 3.333334,5.371938 1.833333,0.460137 4.833333,0.460137 6.666666,0 2.718887,-0.682397 3.333334,-1.653252 3.333334,-5.266827 0,-4.044928 0.492817,-4.584453 5.666666,-6.203736 3.116667,-0.975437 7.310506,-1.844248 9.319642,-1.930692 2.009136,-0.08644 4.348328,-0.852523 5.198204,-1.702399 1.569905,-1.569905 1.50518,-1.708656 -4.932428,-10.573451 -1.872939,-2.579099 -1.885479,-3.298957 -0.116147,-6.666667 1.090932,-2.076454 4.705619,-6.424761 8.032637,-9.662907 3.327019,-3.238144 5.779955,-6.323062 5.450968,-6.855373 -0.328985,-0.532311 1.453806,-1.207394 3.961759,-1.500183 4.184682,-0.488539 4.621532,-0.198713 5.308702,3.52204 0.41184,2.229912 0.26552,5.854386 -0.32516,8.054386 -0.85618,3.188881 -1.898,4.081976 -5.137694,4.404259 C 93.11632,56.332234 89.738633,64.463382 94,68.000002 c 3.1178,2.587544 2.384525,5.770859 -2.396809,10.405111 -4.944362,4.792264 -7.007158,5.214259 -10.414603,2.130563 -1.977771,-1.789858 -3.115157,-1.880027 -7.104988,-0.563264 -3.897664,1.286345 -4.750267,2.219248 -4.750267,5.19766 0,5.145752 -2.301488,6.829931 -9.333333,6.829931 -3.373333,0 -6.853333,-0.72 -7.733333,-1.6 z M 51.333333,68.146611 C 32.452501,59.432544 31.268237,34.772641 49.293281,25.666667 c 3.266134,-1.65 8.084158,-3 10.706719,-3 6.364951,0 16.001251,5.029702 19.374141,10.112402 l 2.728998,4.112401 6.274994,-7.879371 c 6.843887,-8.593716 6.886003,-10.81188 0.287372,-15.135469 -3.00946,-1.971873 -3.50554,-1.937118 -6.953088,0.487137 -3.62606,2.54978 -3.844233,2.553921 -9.379084,0.178043 C 67.083349,12.288213 66.668168,11.737667 66.687084,7.0546745 66.702249,3.3001688 67.039959,2.5144422 68,4.0000001 c 0.710875,1.1 1.301687,3.2772078 1.312916,4.8382398 0.02717,3.7771301 7.292232,7.0350301 10.511409,4.7136721 4.168808,-3.006138 5.550671,-3.16464 8.834066,-1.013277 5.28072,3.460061 8.142058,8.623412 6.241365,11.262687 -2.959549,4.109585 -3.205149,5.575775 -1.58798,9.479968 1.087151,2.624615 2.771971,4.077602 5.151841,4.442943 3.165093,0.485885 3.085893,0.563857 -0.754368,0.742659 -3.416342,0.159064 -4.696126,-0.54745 -6.279949,-3.466891 -1.09406,-2.016667 -2.013223,-2.832385 -2.042583,-1.812708 -0.02936,1.019677 -1.193298,4.319677 -2.586529,7.333333 -1.393229,3.013657 -3.209212,8.002335 -4.035519,11.085954 -1.931693,7.208716 -7.236626,13.462237 -14.042842,16.55387 -6.796291,3.087127 -10.676299,3.084039 -17.388494,-0.01384 z M 64.122644,53.271424 c 10.437189,-5.268676 10.422753,-8.311557 -0.06453,-13.601615 -8.243739,-4.158355 -11.02932,-4.515999 -13.354296,-1.714573 -2.065632,2.488934 -0.831112,16.718467 1.583366,18.250472 2.545166,1.614926 3.092188,1.479306 11.835459,-2.934284 z"
       id="path50"
       inkscape:connector-curvature="0" />
    <path
       style="fill:#b9c3d1;stroke-width:1.33333337"
       d="m 52.761905,89.904764 c -1.152381,-1.15238 -2.095238,-3.456072 -2.095238,-5.119314 0,-4.968426 -8.79075,-7.985692 -12,-4.118781 -2.625539,3.16358 -5.788084,2.366753 -10.69344,-2.694289 l -4.549886,-4.694291 2.471046,-4.588452 c 2.124738,-3.9454 2.235906,-5.156127 0.793236,-8.639045 -0.988563,-2.3866 -2.662034,-4.05059 -4.073667,-4.05059 C 16.958005,56.000002 16,54.636195 16,46.584433 c 0,-7.790889 0.0035,-7.797581 4.473168,-8.636101 3.350188,-0.6285 5.002776,-1.949774 6.58276,-5.263035 1.983412,-4.159256 1.955109,-4.56367 -0.473167,-6.76123 C 22.937739,22.625367 23.344545,20.388789 28.533333,15.2 33.722121,10.011212 35.9587,9.6044063 39.2574,13.249428 c 2.1852,2.414619 2.61978,2.448087 6.675439,0.514078 3.112313,-1.484159 4.72312,-3.438359 5.700792,-6.9160941 1.353892,-4.8160074 1.36368,-4.8214976 1.510794,-0.8474117 0.194246,5.2472638 -0.828498,6.6245268 -6.750146,9.0899788 -4.654567,1.937909 -5.13997,1.898315 -8.427182,-0.687407 l -3.488126,-2.743761 -4.539734,4.400083 -4.539733,4.400083 2.668768,4.318156 c 2.545775,4.119152 2.566056,4.533543 0.440081,8.991759 -1.700389,3.565753 -3.289021,4.872521 -6.701852,5.512773 -4.126477,0.774131 -4.473168,1.224879 -4.473168,5.815766 0,5.367105 3.426012,9.569237 7.801828,9.569237 1.6621,0 2.998195,1.697368 4.198172,5.333334 l 1.760159,5.333333 h 7.238445 7.238446 L 42.233107,61.367207 C 35.094508,52.883464 34.523109,42.583701 40.668344,33.161533 44.326111,27.55327 53.418193,22.653299 60.087632,22.69595 c 11.081483,0.07087 21.249695,8.950932 23.315223,20.361569 1.940842,10.721825 -6.715038,23.218371 -18.230231,26.319091 -4.506272,1.213413 -6.667647,1.085267 -11.684172,-0.692744 -7.251292,-2.57008 -6.566517,-2.518964 -17.148963,-1.280107 -4.579948,0.536162 -8.971584,1.751302 -9.759192,2.700312 -1.844641,2.222656 0.301135,6.434875 4.769495,9.362658 3.029515,1.985015 3.505008,1.951979 6.836711,-0.474997 3.386086,-2.466594 3.858218,-2.491966 8.684972,-0.466727 4.043786,1.696717 5.276572,3.044529 5.933762,6.487423 0.593312,3.108237 1.735832,4.573225 4.012148,5.144544 5.24782,1.317119 9.84655,-0.476319 9.869699,-3.849039 0.02731,-3.977647 1.112889,-5.241204 6.731016,-7.834493 4.488335,-2.071783 4.931317,-2.054967 8,0.303685 4.288101,3.295923 4.67616,3.233716 9.293505,-1.48976 4.725334,-4.833948 4.739072,-4.947619 1.070042,-8.853123 -2.673444,-2.845751 -2.755575,-3.463189 -1.119922,-8.419268 1.228388,-3.722052 2.528011,-5.348306 4.274106,-5.348306 4.257926,0 7.507459,-4.280063 8.108339,-10.679771 0.36681,-3.906708 0.5147,-2.975604 0.42564,2.679771 l -0.13648,8.666667 -4.151626,0.404259 C 93.121136,56.327734 89.697645,64.429365 94,68.000002 c 3.1178,2.587544 2.384525,5.770859 -2.396809,10.405111 -4.826422,4.677952 -7.733186,5.318059 -10.269858,2.261556 -3.20925,-3.866911 -12,-0.849645 -12,4.118781 0,1.663242 -0.942857,3.966934 -2.095238,5.119314 -2.722696,2.722697 -11.753494,2.722697 -14.47619,0 z m 11.360739,-36.63334 c 10.218501,-5.158283 10.341641,-8.230693 0.544023,-13.573611 -12.025356,-6.557765 -16.042531,-4.441588 -14.838923,7.81688 0.672409,6.848331 2.209652,9.739205 5.210279,9.798225 0.570912,0.0112 4.658992,-1.807443 9.084621,-4.041494 z M 91.351227,33.837169 C 88.792201,27.712561 88.803001,27.559911 92,24.666667 c 3.411285,-3.087172 3.366817,-3.57085 -0.818031,-8.8977 l -3.484697,-4.435633 4.151364,4.354369 c 4.824088,5.05999 5.124219,7.018576 1.568603,10.236364 -2.435642,2.204226 -2.461299,2.592075 -0.450426,6.808919 1.172784,2.459355 3.385027,4.718823 4.916094,5.021042 2.138473,0.422113 1.937956,0.591578 -0.865014,0.731064 -3.005258,0.149552 -4.004658,-0.670178 -5.666666,-4.647923 z M 72.262276,14.48581 C 67.031085,12.264118 66.67764,11.780159 66.835157,7.0546745 l 0.168492,-5.0546744 1.36272,4.8474118 c 0.972338,3.4587601 2.589618,5.4324781 5.645491,6.8897231 4.009713,1.912099 4.455792,1.869287 6.996565,-0.671486 1.492588,-1.492588 3.294602,-2.492963 4.004474,-2.223056 0.709873,0.269907 -0.609603,1.734751 -2.932168,3.255209 -4.128307,2.702578 -4.348116,2.711265 -9.818455,0.388008 z"
       id="path48"
       inkscape:connector-curvature="0" />
    <path
       style="fill:#abb5c5;stroke-width:1.33333337"
       d="m 52.761905,89.904764 c -1.152381,-1.15238 -2.095238,-3.456072 -2.095238,-5.119314 0,-4.968426 -8.79075,-7.985692 -12,-4.118781 -2.625539,3.16358 -5.788084,2.366753 -10.69344,-2.694289 l -4.549886,-4.694291 2.471046,-4.588452 c 2.124738,-3.9454 2.235906,-5.156127 0.793236,-8.639045 -0.988563,-2.3866 -2.662034,-4.05059 -4.073667,-4.05059 C 16.958005,56.000002 16,54.636195 16,46.584433 c 0,-7.790889 0.0035,-7.797581 4.473168,-8.636101 3.350188,-0.6285 5.002776,-1.949774 6.58276,-5.263035 1.983412,-4.159256 1.955109,-4.56367 -0.473167,-6.76123 C 22.937739,22.625367 23.344545,20.388789 28.533333,15.2 33.722121,10.011212 35.9587,9.6044063 39.2574,13.249428 c 2.1852,2.414619 2.61978,2.448087 6.675439,0.514078 3.112313,-1.484159 4.72312,-3.438359 5.700792,-6.9160941 1.353892,-4.8160074 1.36368,-4.8214976 1.510794,-0.8474117 0.194246,5.2472638 -0.828498,6.6245268 -6.750146,9.0899788 -4.654567,1.937909 -5.13997,1.898315 -8.427182,-0.687407 l -3.488126,-2.743761 -4.539734,4.400083 -4.539733,4.400083 2.668768,4.318156 c 2.545775,4.119152 2.566056,4.533543 0.440081,8.991759 -1.700389,3.565753 -3.289021,4.872521 -6.701852,5.512773 -4.126477,0.774131 -4.473168,1.224879 -4.473168,5.815766 0,5.367105 3.426012,9.569237 7.801828,9.569237 1.6621,0 2.998195,1.697368 4.198172,5.333334 l 1.760159,5.333333 h 7.238445 7.238446 L 42.153592,61.27271 c -6.925831,-8.230882 -7.201649,-20.310871 -0.673095,-29.479382 3.219556,-4.52145 12.656668,-9.135431 18.607135,-9.097378 10.698189,0.06841 20.977997,8.718263 23.205217,19.525813 1.848882,8.971664 -4.213352,20.761128 -13.016296,25.313308 -5.079734,2.626832 -15.227268,2.721795 -20.378594,0.190706 C 47.419137,66.507815 44.543712,66.151657 42,66.747511 c -2.2,0.515342 -6.176533,1.007974 -8.83674,1.094738 -8.755535,0.285566 -9.716609,6.446142 -1.813468,11.62448 3.029515,1.985015 3.505008,1.951979 6.836711,-0.474997 3.386086,-2.466594 3.858218,-2.491966 8.684972,-0.466727 4.043786,1.696717 5.276572,3.044529 5.933762,6.487423 0.593312,3.108237 1.735832,4.573225 4.012148,5.144544 5.24782,1.317119 9.84655,-0.476319 9.869699,-3.849039 0.02731,-3.977647 1.112889,-5.241204 6.731016,-7.834493 4.488335,-2.071783 4.931317,-2.054967 8,0.303685 4.288101,3.295923 4.67616,3.233716 9.293505,-1.48976 4.725334,-4.833948 4.739072,-4.947619 1.070042,-8.853123 -2.673444,-2.845751 -2.755575,-3.463189 -1.119922,-8.419268 1.228388,-3.722052 2.528011,-5.348306 4.274106,-5.348306 4.257926,0 7.507459,-4.280063 8.108339,-10.679771 0.36681,-3.906708 0.5147,-2.975604 0.42564,2.679771 l -0.13648,8.666667 -4.151626,0.404259 C 93.121136,56.327734 89.697645,64.429365 94,68.000002 c 3.1178,2.587544 2.384525,5.770859 -2.396809,10.405111 -4.826422,4.677952 -7.733186,5.318059 -10.269858,2.261556 -3.20925,-3.866911 -12,-0.849645 -12,4.118781 0,1.663242 -0.942857,3.966934 -2.095238,5.119314 -2.722696,2.722697 -11.753494,2.722697 -14.47619,0 z M 63.870233,53.39884 C 75.483085,47.536692 75.340847,44.999244 63.053117,38.822017 52.924491,33.730204 49.333333,35.527286 49.333333,45.687656 c 0,7.281294 1.780731,11.645679 4.7516,11.645679 1.095112,0 5.498496,-1.770523 9.7853,-3.934495 z M 58.273051,28.422502 c 7.144398,-0.979248 7.514128,-3.089168 0.541328,-3.089168 -3.35908,0 -6.294347,0.978596 -8.333334,2.778271 -2.687281,2.37188 -2.766464,2.655224 -0.541328,1.937067 1.433511,-0.462662 5.183511,-1.194438 8.333334,-1.62617 z m 33.078176,5.414667 C 88.792201,27.712561 88.803001,27.559911 92,24.666667 c 3.411285,-3.087172 3.366817,-3.57085 -0.818031,-8.8977 l -3.484697,-4.435633 4.151364,4.354369 c 4.824088,5.05999 5.124219,7.018576 1.568603,10.236364 -2.435642,2.204226 -2.461299,2.592075 -0.450426,6.808919 1.172784,2.459355 3.385027,4.718823 4.916094,5.021042 2.138473,0.422113 1.937956,0.591578 -0.865014,0.731064 -3.005258,0.149552 -4.004658,-0.670178 -5.666666,-4.647923 z M 72.262276,14.48581 C 67.031085,12.264118 66.67764,11.780159 66.835157,7.0546745 l 0.168492,-5.0546744 1.36272,4.8474118 c 0.972338,3.4587601 2.589618,5.4324781 5.645491,6.8897231 4.009713,1.912099 4.455792,1.869287 6.996565,-0.671486 1.492588,-1.492588 3.294602,-2.492963 4.004474,-2.223056 0.709873,0.269907 -0.609603,1.734751 -2.932168,3.255209 -4.128307,2.702578 -4.348116,2.711265 -9.818455,0.388008 z"
       id="path46"
       inkscape:connector-curvature="0" />
    <path
       style="fill:#b2b3b5;stroke-width:1.33333337"
       d="m 52.761905,89.904764 c -1.152381,-1.15238 -2.095238,-3.456072 -2.095238,-5.119314 0,-4.968426 -8.79075,-7.985692 -12,-4.118781 -2.625539,3.16358 -5.788084,2.366753 -10.69344,-2.694289 l -4.549886,-4.694291 2.471046,-4.588452 c 2.124738,-3.9454 2.235906,-5.156127 0.793236,-8.639045 -0.988563,-2.3866 -2.662034,-4.05059 -4.073667,-4.05059 C 16.958005,56.000002 16,54.636195 16,46.584433 c 0,-7.790889 0.0035,-7.797581 4.473168,-8.636101 3.350188,-0.6285 5.002776,-1.949774 6.58276,-5.263035 1.983412,-4.159256 1.955109,-4.56367 -0.473167,-6.76123 C 22.937739,22.625367 23.344545,20.388789 28.533333,15.2 33.722121,10.011212 35.9587,9.6044063 39.2574,13.249428 c 2.1852,2.414619 2.61978,2.448087 6.675439,0.514078 3.112313,-1.484159 4.72312,-3.438359 5.700792,-6.9160941 1.353892,-4.8160074 1.36368,-4.8214976 1.510794,-0.8474117 0.194246,5.2472638 -0.828498,6.6245268 -6.750146,9.0899788 -4.654567,1.937909 -5.13997,1.898315 -8.427182,-0.687407 l -3.488126,-2.743761 -4.539734,4.400083 -4.539733,4.400083 2.668768,4.318156 c 2.545775,4.119152 2.566056,4.533543 0.440081,8.991759 -1.700389,3.565753 -3.289021,4.872521 -6.701852,5.512773 -4.126477,0.774131 -4.473168,1.224879 -4.473168,5.815766 0,5.367105 3.426012,9.569237 7.801828,9.569237 1.6621,0 2.998195,1.697368 4.198172,5.333334 l 1.760159,5.333333 h 7.238445 7.238446 l -3.400619,-4.041407 c -6.7503,-8.022276 -7.081015,-20.522218 -0.777185,-29.37513 3.296753,-4.629864 12.68282,-9.259296 18.695053,-9.220848 10.698189,0.06841 20.977997,8.718263 23.205217,19.525813 1.820688,8.834857 -4.206601,20.757637 -12.71879,25.159462 -4.670495,2.415206 -16.809384,2.46616 -21.099324,0.08856 -2.22291,-1.231992 -4.651592,-1.429696 -8,-0.651228 -2.644438,0.614802 -6.684602,1.132136 -8.978142,1.14963 -8.121276,0.06195 -8.764118,6.507479 -1.146801,11.498537 3.029515,1.985014 3.505008,1.951978 6.836711,-0.474998 3.386086,-2.466593 3.858218,-2.491965 8.684972,-0.466726 4.043786,1.696717 5.276572,3.044529 5.933762,6.487422 0.593312,3.108238 1.735832,4.573226 4.012148,5.144545 5.24782,1.317118 9.84655,-0.476319 9.869699,-3.849039 0.02731,-3.977647 1.112889,-5.241204 6.731016,-7.834494 4.488335,-2.071782 4.931317,-2.054966 8,0.303686 4.288101,3.295922 4.67616,3.233716 9.293505,-1.48976 4.725334,-4.833949 4.739072,-4.947619 1.070042,-8.853123 -2.673444,-2.845746 -2.755575,-3.463184 -1.119922,-8.419263 1.228388,-3.722052 2.528011,-5.348306 4.274106,-5.348306 4.257926,0 7.507459,-4.280063 8.108339,-10.679771 0.36681,-3.906708 0.5147,-2.975604 0.42564,2.679771 l -0.13648,8.666667 -4.151626,0.404259 C 93.121136,56.327734 89.697645,64.429365 94,68.000002 c 3.1178,2.587544 2.384525,5.770859 -2.396809,10.405111 -4.826422,4.677952 -7.733186,5.318059 -10.269858,2.261556 -3.20925,-3.866911 -12,-0.849645 -12,4.118781 0,1.663242 -0.942857,3.966934 -2.095238,5.119314 -2.722696,2.722697 -11.753494,2.722697 -14.47619,0 z M 63.870233,53.39884 C 75.483085,47.536692 75.340847,44.999244 63.053117,38.822017 52.924491,33.730204 49.333333,35.527286 49.333333,45.687656 c 0,7.281294 1.780731,11.645679 4.7516,11.645679 1.095112,0 5.498496,-1.770523 9.7853,-3.934495 z m -1.35668,-22.268048 c 3.750879,-1.211399 6.81978,-2.683198 6.81978,-3.270662 0,-2.014476 -9.131676,-3.624781 -14.144312,-2.494248 -2.718265,0.613068 -6.484174,2.656545 -8.36869,4.54106 l -3.426391,3.426392 h 6.149917 c 3.382455,0 9.218818,-0.991144 12.969696,-2.202542 z m 28.837674,2.706377 C 88.792201,27.712561 88.803001,27.559911 92,24.666667 c 3.411285,-3.087172 3.366817,-3.57085 -0.818031,-8.8977 l -3.484697,-4.435633 4.151364,4.354369 c 4.824088,5.05999 5.124219,7.018576 1.568603,10.236364 -2.435642,2.204226 -2.461299,2.592075 -0.450426,6.808919 1.172784,2.459355 3.385027,4.718823 4.916094,5.021042 2.138473,0.422113 1.937956,0.591578 -0.865014,0.731064 -3.005258,0.149552 -4.004658,-0.670178 -5.666666,-4.647923 z M 72.262276,14.48581 C 67.031085,12.264118 66.67764,11.780159 66.835157,7.0546745 l 0.168492,-5.0546744 1.36272,4.8474118 c 0.972338,3.4587601 2.589618,5.4324781 5.645491,6.8897231 4.009713,1.912099 4.455792,1.869287 6.996565,-0.671486 1.492588,-1.492588 3.294602,-2.492963 4.004474,-2.223056 0.709873,0.269907 -0.609603,1.734751 -2.932168,3.255209 -4.128307,2.702578 -4.348116,2.711265 -9.818455,0.388008 z"
       id="path44"
       inkscape:connector-curvature="0" />
    <path
       style="fill:#8da9d4;stroke-width:1.33333337"
       d="m 57.666667,91.080901 c 1.283333,-0.335369 3.383333,-0.335369 4.666666,0 1.283334,0.335371 0.233334,0.609764 -2.333333,0.609764 -2.566667,0 -3.616667,-0.274393 -2.333333,-0.609764 z m -6.723408,-5.85538 c -1.62035,-6.383676 -0.483764,-5.882652 1.813408,0.799376 0.87767,2.552975 1.13945,4.641772 0.581733,4.641772 -0.557717,0 -1.635531,-2.448517 -2.395141,-5.441148 z m 16.40495,0.494311 c 1.794307,-5.21929 8.174423,-9.563362 11.536024,-7.85461 6.138778,3.120431 8.296335,4.763519 6.279027,4.781791 -1.193541,0.01081 -2.917008,-0.880344 -3.829927,-1.980344 -3.596338,-4.333323 -11.403324,-0.93194 -12.60873,5.493428 -0.464991,2.478615 -1.347547,4.506572 -1.961236,4.506572 -0.61369,0 -0.35051,-2.226077 0.584842,-4.946837 z M 36,80.699309 c 6.157929,-3.561837 6.803572,-3.712828 9.740287,-2.277865 2.60635,1.273538 2.48077,1.352565 -1.148304,0.722632 -2.774054,-0.481518 -4.634955,-0.0322 -5.829927,1.407656 -0.965383,1.163216 -2.731775,2.106092 -3.925316,2.095281 C 33.355444,82.633596 33.72466,82.015398 36,80.699309 Z m -8.100915,-3.03264 -3.232418,-3.666667 3.666666,3.232419 C 30.35,79.010252 32,80.660252 32,80.899088 c 0,1.045698 -1.079732,0.194633 -4.100915,-3.232419 z m 62.767582,0.333333 c 1.722326,-1.833333 3.431504,-3.333333 3.79817,-3.333333 0.366667,0 -0.74251,1.5 -2.464837,3.333333 -1.722327,1.833334 -3.431504,3.333334 -3.798171,3.333334 -0.366666,0 0.742511,-1.5 2.464838,-3.333334 z M 24.040545,72.481047 c -0.02229,-0.835425 1.080758,-2.903705 2.451239,-4.596177 2.181027,-2.693455 2.278816,-3.583723 0.784119,-7.138562 -0.949575,-2.258372 -3.091608,-4.450333 -4.825118,-4.937582 -3.067362,-0.862166 -3.061788,-0.87838 0.346962,-1.009151 2.872849,-0.110213 3.83594,0.812908 5.640205,5.406119 1.82086,4.635459 1.880893,5.777352 0.368017,7 -0.994274,0.803536 -2.464121,2.660975 -3.266326,4.127641 -0.802204,1.466667 -1.476799,1.983138 -1.499098,1.147712 z M 48.548404,66.812074 C 34.237063,58.085103 32.679764,39.518549 45.363903,28.84555 59.206231,17.197998 78.841513,24.569573 83.199449,43.049956 85.107037,51.139329 78.918177,63.066314 70.574059,67.381225 65.163445,70.179162 53.579193,69.879821 48.548404,66.812074 Z M 63.870233,53.39884 c 11.694931,-5.903581 11.779026,-8.205652 0.507426,-13.890646 -11.534306,-5.81749 -15.044326,-4.375748 -15.044326,6.179462 0,7.281294 1.780731,11.645679 4.7516,11.645679 1.095112,0 5.498496,-1.770523 9.7853,-3.934495 z m -1.35668,-22.268048 c 3.750879,-1.211399 6.81978,-2.683198 6.81978,-3.270662 0,-2.014476 -9.131676,-3.624781 -14.144312,-2.494248 -2.718265,0.613068 -6.484174,2.656545 -8.36869,4.54106 l -3.426391,3.426392 h 6.149917 c 3.382455,0 9.218818,-0.991144 12.969696,-2.202542 z M 91.776637,67.20521 c -1.928145,-1.928145 -1.935988,-2.617257 -0.08347,-7.333334 1.675593,-4.265644 2.670006,-5.181217 5.509077,-5.072301 3.427326,0.13148 3.430846,0.142333 0.328573,1.013492 -1.730449,0.485932 -3.890588,2.667217 -4.819909,4.867092 -1.414909,3.349355 -1.360169,4.35944 0.342489,6.319843 2.535298,2.919081 1.58917,3.071148 -1.276769,0.205208 z M 16,46.666668 c 0,-4.4 0.45,-8 1,-8 0.55,0 1,3.6 1,8 0,4.4 -0.45,8 -1,8 -0.55,0 -1,-3.6 -1,-8 z m 86.38879,1.666667 c 0.65271,-10.131973 1.28938,-11.006193 1.45654,-2 0.0851,4.583333 -0.29965,8.333333 -0.85494,8.333333 -0.55528,0 -0.826,-2.85 -0.6016,-6.333333 z M 23.160464,37.499218 c 1.371589,-0.539012 3.221432,-2.746841 4.110763,-4.906286 1.397149,-3.392515 1.257638,-4.41523 -1.026239,-7.52309 -2.495912,-3.396391 -2.519624,-3.785432 -0.425527,-6.981429 1.219723,-1.861534 3.740751,-4.382562 5.602284,-5.602285 3.203844,-2.099239 3.582912,-2.071063 7.097754,0.527572 2.492396,1.842708 4.332437,2.353234 5.596825,1.552859 1.036021,-0.655815 2.483676,-1.180317 3.217009,-1.165561 0.733334,0.01476 -0.152764,0.849516 -1.969104,1.855021 -2.930236,1.622144 -3.733674,1.521123 -7.128686,-0.896339 l -3.826248,-2.72453 -4.814386,4.814385 -4.814385,4.814386 2.695523,3.701373 c 2.495114,3.426181 2.551778,4.073116 0.762142,8.701374 -1.415154,3.659796 -2.689005,4.974881 -4.75245,4.906286 -2.588815,-0.08607 -2.615383,-0.173761 -0.325275,-1.073736 z m 68.51424,-3.70612 c -1.804347,-4.523834 -1.742819,-5.182101 0.857395,-9.172959 1.540678,-2.364664 3.058613,-4.064177 3.373189,-3.776698 0.314575,0.28748 -0.635269,2.16531 -2.110764,4.172958 -2.323035,3.160863 -2.465924,4.176678 -1.065751,7.576533 0.889331,2.159445 2.739174,4.367274 4.110763,4.906286 2.27492,0.894007 2.243007,0.988247 -0.363597,1.073736 -2.084931,0.06837 -3.38289,-1.2238 -4.801235,-4.779856 z M 90.565752,15 87.333333,11.333334 91,14.565752 c 3.427052,3.021183 4.278117,4.100915 3.232419,4.100915 -0.238836,0 -1.888836,-1.65 -3.666667,-3.666667 z m -15.899085,0.333334 c -1.833334,-1.048028 -2.733334,-1.917579 -2,-1.932336 0.733333,-0.01476 2.219629,0.533628 3.302881,1.218633 1.353175,0.855693 2.813613,0.536353 4.666667,-1.020417 2.681485,-2.252746 2.682396,-2.248491 0.157134,0.73412 -1.39699,1.65 -2.59699,2.978738 -2.666666,2.952753 C 78.057008,17.2601 76.5,16.381362 74.666667,15.333334 Z M 50.890187,9.2652715 c 0.779973,-2.2374342 1.677962,-3.8082336 1.99553,-3.4906652 0.936963,0.9369632 -1.072884,7.5587277 -2.294236,7.5587277 -0.615685,0 -0.481269,-1.830628 0.298706,-4.0680625 z M 67.2337,8.6044958 c -1.234477,-6.5803263 -0.06271,-6.9797384 1.650152,-0.5624774 0.776783,2.9102236 0.922879,5.2913156 0.324657,5.2913156 -0.598221,0 -1.486885,-2.127977 -1.974809,-4.7288382 z"
       id="path42"
       inkscape:connector-curvature="0" />
    <path
       style="fill:#98a5ba;stroke-width:1.33333337"
       d="m 57.666667,91.080901 c 1.283333,-0.335369 3.383333,-0.335369 4.666666,0 1.283334,0.335371 0.233334,0.609764 -2.333333,0.609764 -2.566667,0 -3.616667,-0.274393 -2.333333,-0.609764 z m -6.723408,-5.85538 c -1.62035,-6.383676 -0.483764,-5.882652 1.813408,0.799376 0.87767,2.552975 1.13945,4.641772 0.581733,4.641772 -0.557717,0 -1.635531,-2.448517 -2.395141,-5.441148 z m 16.40495,0.494311 c 1.794307,-5.21929 8.174423,-9.563362 11.536024,-7.85461 6.138778,3.120431 8.296335,4.763519 6.279027,4.781791 -1.193541,0.01081 -2.917008,-0.880344 -3.829927,-1.980344 -3.596338,-4.333323 -11.403324,-0.93194 -12.60873,5.493428 -0.464991,2.478615 -1.347547,4.506572 -1.961236,4.506572 -0.61369,0 -0.35051,-2.226077 0.584842,-4.946837 z M 36,80.699309 c 6.157929,-3.561837 6.803572,-3.712828 9.740287,-2.277865 2.60635,1.273538 2.48077,1.352565 -1.148304,0.722632 -2.774054,-0.481518 -4.634955,-0.0322 -5.829927,1.407656 -0.965383,1.163216 -2.731775,2.106092 -3.925316,2.095281 C 33.355444,82.633596 33.72466,82.015398 36,80.699309 Z m -8.100915,-3.03264 -3.232418,-3.666667 3.666666,3.232419 C 30.35,79.010252 32,80.660252 32,80.899088 c 0,1.045698 -1.079732,0.194633 -4.100915,-3.232419 z m 62.767582,0.333333 c 1.722326,-1.833333 3.431504,-3.333333 3.79817,-3.333333 0.366667,0 -0.74251,1.5 -2.464837,3.333333 -1.722327,1.833334 -3.431504,3.333334 -3.798171,3.333334 -0.366666,0 0.742511,-1.5 2.464838,-3.333334 z M 24.040545,72.481047 c -0.02229,-0.835425 1.080758,-2.903705 2.451239,-4.596177 2.181027,-2.693455 2.278816,-3.583723 0.784119,-7.138562 -0.949575,-2.258372 -3.091608,-4.450333 -4.825118,-4.937582 -3.067362,-0.862166 -3.061788,-0.87838 0.346962,-1.009151 2.872849,-0.110213 3.83594,0.812908 5.640205,5.406119 1.82086,4.635459 1.880893,5.777352 0.368017,7 -0.994274,0.803536 -2.464121,2.660975 -3.266326,4.127641 -0.802204,1.466667 -1.476799,1.983138 -1.499098,1.147712 z M 48.548404,66.812074 C 34.237063,58.085103 32.679764,39.518549 45.363903,28.84555 c 13.842328,-11.647552 33.47761,-4.275977 37.835546,14.204406 1.907588,8.089373 -4.281272,20.016358 -12.62539,24.331269 -5.410614,2.797937 -16.994866,2.498596 -22.025655,-0.569151 z m 24.118263,-8.812072 c 0,-3.329158 -0.534664,-4 -3.188019,-4 -4.268048,0 -6.607287,3.700172 -4.184671,6.619246 0.993304,1.196858 3.058512,1.997151 4.58935,1.77843 2.115338,-0.302234 2.78334,-1.357675 2.78334,-4.397676 z M 63.996451,54.0018 c 6.727654,-3.409161 9.856885,-7.040048 8.243849,-9.565448 -1.309268,-2.049815 -14.377535,-8.436351 -17.262641,-8.436351 -4.002946,0 -5.644326,2.817187 -5.644326,9.687655 0,12.17665 3.322806,14.060715 14.663118,8.314144 z M 62.513553,31.130792 c 3.750879,-1.211399 6.81978,-2.683198 6.81978,-3.270662 0,-2.014476 -9.131676,-3.624781 -14.144312,-2.494248 -2.718265,0.613068 -6.484174,2.656545 -8.36869,4.54106 l -3.426391,3.426392 h 6.149917 c 3.382455,0 9.218818,-0.991144 12.969696,-2.202542 z M 91.776637,67.20521 c -1.928145,-1.928145 -1.935988,-2.617257 -0.08347,-7.333334 1.675593,-4.265644 2.670006,-5.181217 5.509077,-5.072301 3.427326,0.13148 3.430846,0.142333 0.328573,1.013492 -1.730449,0.485932 -3.890588,2.667217 -4.819909,4.867092 -1.414909,3.349355 -1.360169,4.35944 0.342489,6.319843 2.535298,2.919081 1.58917,3.071148 -1.276769,0.205208 z M 16,46.666668 c 0,-4.4 0.45,-8 1,-8 0.55,0 1,3.6 1,8 0,4.4 -0.45,8 -1,8 -0.55,0 -1,-3.6 -1,-8 z m 86.38879,1.666667 c 0.65271,-10.131973 1.28938,-11.006193 1.45654,-2 0.0851,4.583333 -0.29965,8.333333 -0.85494,8.333333 -0.55528,0 -0.826,-2.85 -0.6016,-6.333333 z M 23.160464,37.499218 c 1.371589,-0.539012 3.221432,-2.746841 4.110763,-4.906286 1.397149,-3.392515 1.257638,-4.41523 -1.026239,-7.52309 -2.495912,-3.396391 -2.519624,-3.785432 -0.425527,-6.981429 1.219723,-1.861534 3.740751,-4.382562 5.602284,-5.602285 3.203844,-2.099239 3.582912,-2.071063 7.097754,0.527572 2.492396,1.842708 4.332437,2.353234 5.596825,1.552859 1.036021,-0.655815 2.483676,-1.180317 3.217009,-1.165561 0.733334,0.01476 -0.152764,0.849516 -1.969104,1.855021 -2.930236,1.622144 -3.733674,1.521123 -7.128686,-0.896339 l -3.826248,-2.72453 -4.814386,4.814385 -4.814385,4.814386 2.695523,3.701373 c 2.495114,3.426181 2.551778,4.073116 0.762142,8.701374 -1.415154,3.659796 -2.689005,4.974881 -4.75245,4.906286 -2.588815,-0.08607 -2.615383,-0.173761 -0.325275,-1.073736 z m 68.51424,-3.70612 c -1.804347,-4.523834 -1.742819,-5.182101 0.857395,-9.172959 1.540678,-2.364664 3.058613,-4.064177 3.373189,-3.776698 0.314575,0.28748 -0.635269,2.16531 -2.110764,4.172958 -2.323035,3.160863 -2.465924,4.176678 -1.065751,7.576533 0.889331,2.159445 2.739174,4.367274 4.110763,4.906286 2.27492,0.894007 2.243007,0.988247 -0.363597,1.073736 -2.084931,0.06837 -3.38289,-1.2238 -4.801235,-4.779856 z M 90.565752,15 87.333333,11.333334 91,14.565752 c 3.427052,3.021183 4.278117,4.100915 3.232419,4.100915 -0.238836,0 -1.888836,-1.65 -3.666667,-3.666667 z m -15.899085,0.333334 c -1.833334,-1.048028 -2.733334,-1.917579 -2,-1.932336 0.733333,-0.01476 2.219629,0.533628 3.302881,1.218633 1.353175,0.855693 2.813613,0.536353 4.666667,-1.020417 2.681485,-2.252746 2.682396,-2.248491 0.157134,0.73412 -1.39699,1.65 -2.59699,2.978738 -2.666666,2.952753 C 78.057008,17.2601 76.5,16.381362 74.666667,15.333334 Z M 50.890187,9.2652715 c 0.779973,-2.2374342 1.677962,-3.8082336 1.99553,-3.4906652 0.936963,0.9369632 -1.072884,7.5587277 -2.294236,7.5587277 -0.615685,0 -0.481269,-1.830628 0.298706,-4.0680625 z M 67.2337,8.6044958 c -1.234477,-6.5803263 -0.06271,-6.9797384 1.650152,-0.5624774 0.776783,2.9102236 0.922879,5.2913156 0.324657,5.2913156 -0.598221,0 -1.486885,-2.127977 -1.974809,-4.7288382 z"
       id="path40"
       inkscape:connector-curvature="0" />
    <path
       style="fill:#7296cc;stroke-width:1.33333337"
       d="m 58.333333,91.116961 c 0.916667,-0.369882 2.416667,-0.369882 3.333334,0 0.916666,0.369884 0.166666,0.672515 -1.666667,0.672515 -1.833333,0 -2.583333,-0.302631 -1.666667,-0.672515 z M 52,88.666669 c 0,-1.1 0.235807,-2 0.524015,-2 0.288208,0 0.869377,0.9 1.291486,2 0.422111,1.1 0.186304,2 -0.524014,2 -0.710318,0 -1.291487,-0.9 -1.291487,-2 z m 14.184499,0 c 0.422109,-1.1 1.003278,-2 1.291486,-2 0.288208,0 0.524015,0.9 0.524015,2 0,1.1 -0.581169,2 -1.291487,2 -0.710318,0 -0.946125,-0.9 -0.524014,-2 z M 50.308284,82.773548 c -0.579965,-2.217794 -0.406441,-2.73837 0.582983,-1.748946 0.774802,0.774803 1.146392,2.195759 0.82575,3.15768 -0.332864,0.998595 -0.937254,0.394204 -1.408733,-1.408734 z M 68,83.412025 c 0,-1.056721 0.544045,-2.257549 1.208988,-2.668507 0.664944,-0.410957 0.894965,0.453632 0.511159,1.921311 C 68.905996,85.778145 68,86.171692 68,83.412025 Z M 36,80.699309 c 6.157929,-3.561837 6.803572,-3.712828 9.740287,-2.277865 2.60635,1.273538 2.48077,1.352565 -1.148304,0.722632 -2.774054,-0.481518 -4.634955,-0.0322 -5.829927,1.407656 -0.965383,1.163216 -2.731775,2.106092 -3.925316,2.095281 C 33.355444,82.633596 33.72466,82.015398 36,80.699309 Z m 45.237944,-0.147577 c -1.194972,-1.439852 -3.055873,-1.889174 -5.829927,-1.407656 -3.629074,0.629933 -3.754654,0.550906 -1.148304,-0.722632 2.936715,-1.434963 3.582358,-1.283972 9.740287,2.277865 2.27534,1.316089 2.644556,1.934287 1.16326,1.947704 -1.193541,0.0108 -2.959933,-0.932065 -3.925316,-2.095281 z m -53.338859,-2.885063 -3.232418,-3.666667 3.666666,3.232419 C 30.35,79.010252 32,80.660252 32,80.899088 c 0,1.045698 -1.079732,0.194633 -4.100915,-3.232419 z m 62.767582,0.333333 c 1.722326,-1.833333 3.431504,-3.333333 3.79817,-3.333333 0.366667,0 -0.74251,1.5 -2.464837,3.333333 -1.722327,1.833334 -3.431504,3.333334 -3.798171,3.333334 -0.366666,0 0.742511,-1.5 2.464838,-3.333334 z M 24,72.344891 c 0,-0.760538 1.121303,-2.767549 2.491784,-4.460021 2.181027,-2.693455 2.278816,-3.583723 0.784119,-7.138562 -0.949575,-2.258372 -3.091608,-4.450333 -4.825118,-4.937582 -2.924089,-0.821895 -2.9415,-0.884488 -0.280712,-1.009151 3.053508,-0.143063 4.528931,1.300725 6.676923,6.53376 1.118913,2.725944 0.801968,4.158868 -1.739385,7.863844 C 25.398425,71.688961 24,73.105431 24,72.344891 Z m 26.667351,-4.437474 c -8.26015,-3.472272 -13.64171,-11.864022 -13.64171,-21.272233 0,-8.5304 4.571858,-16.509263 11.641026,-20.316063 1.466666,-0.789811 0.36339,0.736374 -2.451726,3.391524 -2.815114,2.655149 -4.729705,5.456451 -4.254644,6.225116 1.100087,1.779979 8.28223,1.829203 9.373036,0.06424 1.136518,-1.838924 5.429219,-1.668997 9.73288,0.385279 3.341824,1.59516 3.900814,1.406277 7.781864,-2.629492 4.460432,-4.63825 4.166096,-5.720395 -2.253236,-8.284166 -1.9669,-0.785547 -2.413592,-1.336139 -1.125352,-1.387107 1.174886,-0.04648 4.119718,1.265486 6.54407,2.915486 14.53523,9.892591 14.97324,28.340455 0.921973,38.83124 -4.131432,3.084561 -17.012401,4.285518 -22.268181,2.076176 z m 21.999316,-9.907415 c 0,-3.329158 -0.534664,-4 -3.188019,-4 -4.268048,0 -6.607287,3.700172 -4.184671,6.619246 0.993304,1.196858 3.058512,1.997151 4.58935,1.77843 2.115338,-0.302234 2.78334,-1.357675 2.78334,-4.397676 z m -9.61355,-3.483359 c 5.363164,-2.691058 15.274674,-11.695202 11.117907,-10.100102 -1.099305,0.421844 -2.187501,0.277198 -2.418213,-0.321434 -0.636246,-1.650876 -13.990358,-8.095106 -16.775152,-8.095106 -4.002946,0 -5.644326,2.817187 -5.644326,9.687655 0,11.848844 3.37406,14.020127 13.719784,8.828987 z m 28.610192,12.483359 c -1.890872,-2.117788 -1.878506,-2.764424 0.133871,-7 1.572653,-3.310062 3.184109,-4.74479 5.54334,-4.935408 3.32241,-0.268439 3.32263,-0.267675 0.190307,0.680158 -1.724711,0.521895 -3.893671,2.742828 -4.81991,4.935407 -1.414909,3.349355 -1.360169,4.35944 0.34249,6.319843 1.114608,1.283333 1.72656,2.333333 1.359893,2.333333 -0.366667,0 -1.604163,-1.05 -2.749991,-2.333333 z M 16.154668,47.000001 c -0.08507,-4.583333 0.299656,-8.333333 0.85494,-8.333333 0.555284,0 0.826007,2.85 0.601604,6.333333 -0.652716,10.131973 -1.289387,11.006193 -1.456544,2 z m 86.938762,-0.333333 c 0,-4.766667 0.242,-6.716667 0.53776,-4.333333 0.29577,2.383333 0.29577,6.283333 0,8.666666 -0.29576,2.383334 -0.53776,0.433334 -0.53776,-4.333333 z M 23.884079,37.433193 c 1.036242,-0.655952 2.586086,-2.896764 3.444096,-4.979583 1.328397,-3.224685 1.167574,-4.320973 -1.083187,-7.383768 -2.495912,-3.396391 -2.519624,-3.785432 -0.425527,-6.981429 1.219723,-1.861534 3.740751,-4.382562 5.602284,-5.602285 3.203844,-2.099239 3.582912,-2.071063 7.097754,0.527572 2.492396,1.842708 4.332437,2.353234 5.596825,1.552859 1.036021,-0.655815 2.483676,-1.180317 3.217009,-1.165561 0.733334,0.01476 -0.152764,0.849516 -1.969104,1.855021 -2.930236,1.622144 -3.733674,1.521123 -7.128686,-0.896339 l -3.826248,-2.72453 -4.814386,4.814385 -4.814385,4.814386 2.695523,3.701373 c 2.495114,3.426181 2.551778,4.073116 0.762142,8.701374 -1.135505,2.93658 -2.821642,4.991574 -4.085784,4.979582 -1.782081,-0.01691 -1.828248,-0.225612 -0.268326,-1.213057 z M 91.792381,33.666668 C 89.960404,28.958326 90.026383,28.402395 92.923461,24.136157 94.615557,21.644375 96,20.227905 96,20.988445 c 0,0.760538 -1.121303,2.767549 -2.491784,4.460021 -2.169391,2.679085 -2.274001,3.595176 -0.808532,7.080502 0.925789,2.201802 2.797092,4.44135 4.158451,4.976774 2.2657,0.891103 2.2384,0.98143 -0.322548,1.067212 -2.036934,0.06823 -3.326791,-1.265974 -4.743206,-4.906286 z M 53.083333,24.422515 c 0.9625,-0.385161 2.1125,-0.337792 2.555556,0.105267 0.443055,0.443056 -0.344445,0.758188 -1.75,0.700293 -1.553257,-0.06397 -1.8692,-0.379921 -0.805556,-0.805556 z m 5.25,-1.305556 c 0.916667,-0.369882 2.416667,-0.369882 3.333334,0 0.916666,0.369884 0.166666,0.672515 -1.666667,0.672515 -1.833333,0 -2.583333,-0.302631 -1.666667,-0.672515 z M 90.565752,15 87.333333,11.333334 91,14.565752 c 3.427052,3.021183 4.278117,4.100915 3.232419,4.100915 -0.238836,0 -1.888836,-1.65 -3.666667,-3.666667 z m -15.899085,0.333334 c -1.833334,-1.048028 -2.733334,-1.917579 -2,-1.932336 0.733333,-0.01476 2.219629,0.533628 3.302881,1.218633 1.353175,0.855693 2.813613,0.536353 4.666667,-1.020417 2.681485,-2.252746 2.682396,-2.248491 0.157134,0.73412 -1.39699,1.65 -2.59699,2.978738 -2.666666,2.952753 C 78.057008,17.2601 76.5,16.381362 74.666667,15.333334 Z M 50.890187,9.2652715 c 0.779973,-2.2374342 1.595778,-3.8874343 1.8129,-3.6666668 0.825902,0.8397703 -1.066152,7.7347293 -2.122498,7.7347293 -0.609694,0 -0.470377,-1.830628 0.309598,-4.0680625 z M 67.2337,8.6044958 C 66.745775,6.0036351 66.718587,3.503635 67.173283,3.0489402 67.627977,2.5942454 68,3.5616672 68,5.1987665 c 0,1.6370994 0.621111,4.1370995 1.380245,5.5555555 0.888971,1.661057 0.910475,2.579012 0.06042,2.579012 -0.725906,0 -1.719039,-2.127977 -2.206963,-4.7288382 z"
       id="path38"
       inkscape:connector-curvature="0" />
    <path
       style="fill:#8998ae;stroke-width:1.33333337"
       d="m 58.333333,91.116961 c 0.916667,-0.369882 2.416667,-0.369882 3.333334,0 0.916666,0.369884 0.166666,0.672515 -1.666667,0.672515 -1.833333,0 -2.583333,-0.302631 -1.666667,-0.672515 z M 52,88.666669 c 0,-1.1 0.235807,-2 0.524015,-2 0.288208,0 0.869377,0.9 1.291486,2 0.422111,1.1 0.186304,2 -0.524014,2 -0.710318,0 -1.291487,-0.9 -1.291487,-2 z m 14.184499,0 c 0.422109,-1.1 1.003278,-2 1.291486,-2 0.288208,0 0.524015,0.9 0.524015,2 0,1.1 -0.581169,2 -1.291487,2 -0.710318,0 -0.946125,-0.9 -0.524014,-2 z M 50.308284,82.773548 c -0.579965,-2.217794 -0.406441,-2.73837 0.582983,-1.748946 0.774802,0.774803 1.146392,2.195759 0.82575,3.15768 -0.332864,0.998595 -0.937254,0.394204 -1.408733,-1.408734 z M 68,83.412025 c 0,-1.056721 0.544045,-2.257549 1.208988,-2.668507 0.664944,-0.410957 0.894965,0.453632 0.511159,1.921311 C 68.905996,85.778145 68,86.171692 68,83.412025 Z M 36,80.699309 c 6.157929,-3.561837 6.803572,-3.712828 9.740287,-2.277865 2.60635,1.273538 2.48077,1.352565 -1.148304,0.722632 -2.774054,-0.481518 -4.634955,-0.0322 -5.829927,1.407656 -0.965383,1.163216 -2.731775,2.106092 -3.925316,2.095281 C 33.355444,82.633596 33.72466,82.015398 36,80.699309 Z m 45.237944,-0.147577 c -1.194972,-1.439852 -3.055873,-1.889174 -5.829927,-1.407656 -3.629074,0.629933 -3.754654,0.550906 -1.148304,-0.722632 2.936715,-1.434963 3.582358,-1.283972 9.740287,2.277865 2.27534,1.316089 2.644556,1.934287 1.16326,1.947704 -1.193541,0.0108 -2.959933,-0.932065 -3.925316,-2.095281 z m -53.338859,-2.885063 -3.232418,-3.666667 3.666666,3.232419 C 30.35,79.010252 32,80.660252 32,80.899088 c 0,1.045698 -1.079732,0.194633 -4.100915,-3.232419 z m 62.767582,0.333333 c 1.722326,-1.833333 3.431504,-3.333333 3.79817,-3.333333 0.366667,0 -0.74251,1.5 -2.464837,3.333333 -1.722327,1.833334 -3.431504,3.333334 -3.798171,3.333334 -0.366666,0 0.742511,-1.5 2.464838,-3.333334 z M 24,72.344891 c 0,-0.760538 1.121303,-2.767549 2.491784,-4.460021 2.181027,-2.693455 2.278816,-3.583723 0.784119,-7.138562 -0.949575,-2.258372 -3.091608,-4.450333 -4.825118,-4.937582 -2.924089,-0.821895 -2.9415,-0.884488 -0.280712,-1.009151 3.053508,-0.143063 4.528931,1.300725 6.676923,6.53376 1.118913,2.725944 0.801968,4.158868 -1.739385,7.863844 C 25.398425,71.688961 24,73.105431 24,72.344891 Z m 26.667351,-4.437474 c -8.26015,-3.472272 -13.64171,-11.864022 -13.64171,-21.272233 0,-8.5304 4.571858,-16.509263 11.641026,-20.316063 1.466666,-0.789811 0.36339,0.736374 -2.451726,3.391524 -2.815114,2.655149 -4.729705,5.456451 -4.254644,6.225116 1.100087,1.779979 8.28223,1.829203 9.373036,0.06424 1.136518,-1.838924 5.429219,-1.668997 9.73288,0.385279 3.341824,1.59516 3.900814,1.406277 7.781864,-2.629492 4.460432,-4.63825 4.166096,-5.720395 -2.253236,-8.284166 -1.9669,-0.785547 -2.413592,-1.336139 -1.125352,-1.387107 1.174886,-0.04648 4.119718,1.265486 6.54407,2.915486 14.53523,9.892591 14.97324,28.340455 0.921973,38.83124 -4.131432,3.084561 -17.012401,4.285518 -22.268181,2.076176 z m 22.665982,-6.574082 c 3.18037,-3.180369 3.386392,-6.379099 0.661434,-10.269522 -1.806995,-2.579846 -1.774042,-3.096101 0.333333,-5.222069 2.114015,-2.132665 2.122788,-2.277533 0.09137,-1.508707 -1.235954,0.467771 -2.435954,0.360702 -2.666666,-0.23793 -0.636242,-1.650876 -13.990354,-8.095106 -16.775148,-8.095106 -4.002946,0 -5.644326,2.817187 -5.644326,9.687655 0,7.825327 1.811383,11.645679 5.521686,11.645679 1.518656,0 3.941094,1.5 5.383194,3.333333 3.239968,4.118953 9.332659,4.429129 13.09512,0.666667 z m 18.329976,5.666667 c -1.890872,-2.117788 -1.878506,-2.764424 0.133871,-7 1.572653,-3.310062 3.184109,-4.74479 5.54334,-4.935408 3.32241,-0.268439 3.32263,-0.267675 0.190307,0.680158 -1.724711,0.521895 -3.893671,2.742828 -4.81991,4.935407 -1.414909,3.349355 -1.360169,4.35944 0.34249,6.319843 1.114608,1.283333 1.72656,2.333333 1.359893,2.333333 -0.366667,0 -1.604163,-1.05 -2.749991,-2.333333 z M 16.154668,47.000001 c -0.08507,-4.583333 0.299656,-8.333333 0.85494,-8.333333 0.555284,0 0.826007,2.85 0.601604,6.333333 -0.652716,10.131973 -1.289387,11.006193 -1.456544,2 z m 86.938762,-0.333333 c 0,-4.766667 0.242,-6.716667 0.53776,-4.333333 0.29577,2.383333 0.29577,6.283333 0,8.666666 -0.29576,2.383334 -0.53776,0.433334 -0.53776,-4.333333 z M 23.884079,37.433193 c 1.036242,-0.655952 2.586086,-2.896764 3.444096,-4.979583 1.328397,-3.224685 1.167574,-4.320973 -1.083187,-7.383768 -2.495912,-3.396391 -2.519624,-3.785432 -0.425527,-6.981429 1.219723,-1.861534 3.740751,-4.382562 5.602284,-5.602285 3.203844,-2.099239 3.582912,-2.071063 7.097754,0.527572 2.492396,1.842708 4.332437,2.353234 5.596825,1.552859 1.036021,-0.655815 2.483676,-1.180317 3.217009,-1.165561 0.733334,0.01476 -0.152764,0.849516 -1.969104,1.855021 -2.930236,1.622144 -3.733674,1.521123 -7.128686,-0.896339 l -3.826248,-2.72453 -4.814386,4.814385 -4.814385,4.814386 2.695523,3.701373 c 2.495114,3.426181 2.551778,4.073116 0.762142,8.701374 -1.135505,2.93658 -2.821642,4.991574 -4.085784,4.979582 -1.782081,-0.01691 -1.828248,-0.225612 -0.268326,-1.213057 z M 91.792381,33.666668 C 89.960404,28.958326 90.026383,28.402395 92.923461,24.136157 94.615557,21.644375 96,20.227905 96,20.988445 c 0,0.760538 -1.121303,2.767549 -2.491784,4.460021 -2.169391,2.679085 -2.274001,3.595176 -0.808532,7.080502 0.925789,2.201802 2.797092,4.44135 4.158451,4.976774 2.2657,0.891103 2.2384,0.98143 -0.322548,1.067212 -2.036934,0.06823 -3.326791,-1.265974 -4.743206,-4.906286 z M 53.083333,24.422515 c 0.9625,-0.385161 2.1125,-0.337792 2.555556,0.105267 0.443055,0.443056 -0.344445,0.758188 -1.75,0.700293 -1.553257,-0.06397 -1.8692,-0.379921 -0.805556,-0.805556 z m 5.25,-1.305556 c 0.916667,-0.369882 2.416667,-0.369882 3.333334,0 0.916666,0.369884 0.166666,0.672515 -1.666667,0.672515 -1.833333,0 -2.583333,-0.302631 -1.666667,-0.672515 z M 90.565752,15 87.333333,11.333334 91,14.565752 c 3.427052,3.021183 4.278117,4.100915 3.232419,4.100915 -0.238836,0 -1.888836,-1.65 -3.666667,-3.666667 z m -15.899085,0.333334 c -1.833334,-1.048028 -2.733334,-1.917579 -2,-1.932336 0.733333,-0.01476 2.219629,0.533628 3.302881,1.218633 1.353175,0.855693 2.813613,0.536353 4.666667,-1.020417 2.681485,-2.252746 2.682396,-2.248491 0.157134,0.73412 -1.39699,1.65 -2.59699,2.978738 -2.666666,2.952753 C 78.057008,17.2601 76.5,16.381362 74.666667,15.333334 Z M 50.890187,9.2652715 c 0.779973,-2.2374342 1.595778,-3.8874343 1.8129,-3.6666668 0.825902,0.8397703 -1.066152,7.7347293 -2.122498,7.7347293 -0.609694,0 -0.470377,-1.830628 0.309598,-4.0680625 z M 67.2337,8.6044958 C 66.745775,6.0036351 66.718587,3.503635 67.173283,3.0489402 67.627977,2.5942454 68,3.5616672 68,5.1987665 c 0,1.6370994 0.621111,4.1370995 1.380245,5.5555555 0.888971,1.661057 0.910475,2.579012 0.06042,2.579012 -0.725906,0 -1.719039,-2.127977 -2.206963,-4.7288382 z"
       id="path36"
       inkscape:connector-curvature="0" />
    <path
       style="fill:#929292;stroke-width:1.33333337"
       d="m 58.333333,91.116961 c 0.916667,-0.369882 2.416667,-0.369882 3.333334,0 0.916666,0.369884 0.166666,0.672515 -1.666667,0.672515 -1.833333,0 -2.583333,-0.302631 -1.666667,-0.672515 z M 52,88.666669 c 0,-1.1 0.235807,-2 0.524015,-2 0.288208,0 0.869377,0.9 1.291486,2 0.422111,1.1 0.186304,2 -0.524014,2 -0.710318,0 -1.291487,-0.9 -1.291487,-2 z m 14.184499,0 c 0.422109,-1.1 1.003278,-2 1.291486,-2 0.288208,0 0.524015,0.9 0.524015,2 0,1.1 -0.581169,2 -1.291487,2 -0.710318,0 -0.946125,-0.9 -0.524014,-2 z M 50.308284,82.773548 c -0.579965,-2.217794 -0.406441,-2.73837 0.582983,-1.748946 0.774802,0.774803 1.146392,2.195759 0.82575,3.15768 -0.332864,0.998595 -0.937254,0.394204 -1.408733,-1.408734 z M 68,83.412025 c 0,-1.056721 0.544045,-2.257549 1.208988,-2.668507 0.664944,-0.410957 0.894965,0.453632 0.511159,1.921311 C 68.905996,85.778145 68,86.171692 68,83.412025 Z M 36,80.699309 c 6.157929,-3.561837 6.803572,-3.712828 9.740287,-2.277865 2.60635,1.273538 2.48077,1.352565 -1.148304,0.722632 -2.774054,-0.481518 -4.634955,-0.0322 -5.829927,1.407656 -0.965383,1.163216 -2.731775,2.106092 -3.925316,2.095281 C 33.355444,82.633596 33.72466,82.015398 36,80.699309 Z m 45.237944,-0.147577 c -1.194972,-1.439852 -3.055873,-1.889174 -5.829927,-1.407656 -3.629074,0.629933 -3.754654,0.550906 -1.148304,-0.722632 2.936715,-1.434963 3.582358,-1.283972 9.740287,2.277865 2.27534,1.316089 2.644556,1.934287 1.16326,1.947704 -1.193541,0.0108 -2.959933,-0.932065 -3.925316,-2.095281 z m -53.338859,-2.885063 -3.232418,-3.666667 3.666666,3.232419 C 30.35,79.010252 32,80.660252 32,80.899088 c 0,1.045698 -1.079732,0.194633 -4.100915,-3.232419 z m 62.767582,0.333333 c 1.722326,-1.833333 3.431504,-3.333333 3.79817,-3.333333 0.366667,0 -0.74251,1.5 -2.464837,3.333333 -1.722327,1.833334 -3.431504,3.333334 -3.798171,3.333334 -0.366666,0 0.742511,-1.5 2.464838,-3.333334 z M 24,72.344891 c 0,-0.760538 1.121303,-2.767549 2.491784,-4.460021 2.181027,-2.693455 2.278816,-3.583723 0.784119,-7.138562 -0.949575,-2.258372 -3.091608,-4.450333 -4.825118,-4.937582 -2.924089,-0.821895 -2.9415,-0.884488 -0.280712,-1.009151 3.053508,-0.143063 4.528931,1.300725 6.676923,6.53376 1.118913,2.725944 0.801968,4.158868 -1.739385,7.863844 C 25.398425,71.688961 24,73.105431 24,72.344891 Z m 26,-4.82047 C 41.952063,63.800055 37.333333,56.147292 37.333333,46.537044 c 0,-6.561267 2.650222,-13.035858 6.76905,-16.537043 2.643144,-2.24679 2.557148,-1.956372 -0.546171,1.844463 -4.563288,5.588953 -4.158821,8.323788 1.445827,9.776099 3.85829,0.999782 4.331294,1.637388 4.331294,5.838549 0,6.151614 2.081691,9.874223 5.521686,9.874223 1.518656,0 3.941094,1.5 5.383194,3.333333 3.239968,4.118953 9.332659,4.429129 13.09512,0.666667 3.144463,-3.144463 3.38917,-6.375132 0.766506,-10.119511 C 72.082008,48.332967 72.725767,46.218241 76,44.971856 c 1.574952,-0.599528 1.496031,-0.783699 -0.371356,-0.866592 -1.304245,-0.05789 -5.937135,-1.905263 -10.295311,-4.105263 -8.659112,-4.371105 -11.820001,-4.873893 -14.669029,-2.333333 -1.590036,1.41788 -1.605472,1.318365 -0.1034,-0.666667 2.401608,-3.173812 5.674968,-2.934384 13.399885,0.980127 6.382252,3.234132 6.558851,3.250281 7.376354,0.67456 0.460654,-1.451396 1.735361,-3.536708 2.83268,-4.634027 1.77128,-1.77128 1.574485,-2.391384 -1.754011,-5.526934 -2.827157,-2.66327 -3.046751,-3.165637 -0.892953,-2.042822 4.569869,2.382361 9.631005,9.236511 10.588325,14.339464 1.959949,10.447427 -1.207607,19.091873 -9.175645,25.040872 C 68.412564,69.208125 55.670901,70.148758 50,67.524421 Z m 41.663309,-0.524419 c -1.890872,-2.117788 -1.878506,-2.764424 0.133871,-7 1.572653,-3.310062 3.184109,-4.74479 5.54334,-4.935408 3.32241,-0.268439 3.32263,-0.267675 0.190307,0.680158 -1.724711,0.521895 -3.893671,2.742828 -4.81991,4.935407 -1.414909,3.349355 -1.360169,4.35944 0.34249,6.319843 1.114608,1.283333 1.72656,2.333333 1.359893,2.333333 -0.366667,0 -1.604163,-1.05 -2.749991,-2.333333 z M 16.154668,47.000001 c -0.08507,-4.583333 0.299656,-8.333333 0.85494,-8.333333 0.555284,0 0.826007,2.85 0.601604,6.333333 -0.652716,10.131973 -1.289387,11.006193 -1.456544,2 z m 86.938762,-0.333333 c 0,-4.766667 0.242,-6.716667 0.53776,-4.333333 0.29577,2.383333 0.29577,6.283333 0,8.666666 -0.29576,2.383334 -0.53776,0.433334 -0.53776,-4.333333 z M 23.884079,37.433193 c 1.036242,-0.655952 2.586086,-2.896764 3.444096,-4.979583 1.328397,-3.224685 1.167574,-4.320973 -1.083187,-7.383768 -2.495912,-3.396391 -2.519624,-3.785432 -0.425527,-6.981429 1.219723,-1.861534 3.740751,-4.382562 5.602284,-5.602285 3.203844,-2.099239 3.582912,-2.071063 7.097754,0.527572 2.492396,1.842708 4.332437,2.353234 5.596825,1.552859 1.036021,-0.655815 2.483676,-1.180317 3.217009,-1.165561 0.733334,0.01476 -0.152764,0.849516 -1.969104,1.855021 -2.930236,1.622144 -3.733674,1.521123 -7.128686,-0.896339 l -3.826248,-2.72453 -4.814386,4.814385 -4.814385,4.814386 2.695523,3.701373 c 2.495114,3.426181 2.551778,4.073116 0.762142,8.701374 -1.135505,2.93658 -2.821642,4.991574 -4.085784,4.979582 -1.782081,-0.01691 -1.828248,-0.225612 -0.268326,-1.213057 z M 91.792381,33.666668 C 89.960404,28.958326 90.026383,28.402395 92.923461,24.136157 94.615557,21.644375 96,20.227905 96,20.988445 c 0,0.760538 -1.121303,2.767549 -2.491784,4.460021 -2.169391,2.679085 -2.274001,3.595176 -0.808532,7.080502 0.925789,2.201802 2.797092,4.44135 4.158451,4.976774 2.2657,0.891103 2.2384,0.98143 -0.322548,1.067212 -2.036934,0.06823 -3.326791,-1.265974 -4.743206,-4.906286 z M 90.565752,15 87.333333,11.333334 91,14.565752 c 3.427052,3.021183 4.278117,4.100915 3.232419,4.100915 -0.238836,0 -1.888836,-1.65 -3.666667,-3.666667 z m -15.899085,0.333334 c -1.833334,-1.048028 -2.733334,-1.917579 -2,-1.932336 0.733333,-0.01476 2.219629,0.533628 3.302881,1.218633 1.353175,0.855693 2.813613,0.536353 4.666667,-1.020417 2.681485,-2.252746 2.682396,-2.248491 0.157134,0.73412 -1.39699,1.65 -2.59699,2.978738 -2.666666,2.952753 C 78.057008,17.2601 76.5,16.381362 74.666667,15.333334 Z M 50.890187,9.2652715 c 0.779973,-2.2374342 1.595778,-3.8874343 1.8129,-3.6666668 0.825902,0.8397703 -1.066152,7.7347293 -2.122498,7.7347293 -0.609694,0 -0.470377,-1.830628 0.309598,-4.0680625 z M 67.2337,8.6044958 C 66.745775,6.0036351 66.718587,3.503635 67.173283,3.0489402 67.627977,2.5942454 68,3.5616672 68,5.1987665 c 0,1.6370994 0.621111,4.1370995 1.380245,5.5555555 0.888971,1.661057 0.910475,2.579012 0.06042,2.579012 -0.725906,0 -1.719039,-2.127977 -2.206963,-4.7288382 z"
       id="path34"
       inkscape:connector-curvature="0" />
    <path
       style="fill:#7087aa;stroke-width:1.33333337"
       d="m 27.899085,77.666669 -3.232418,-3.666667 3.666666,3.232419 C 30.35,79.010252 32,80.660252 32,80.899088 c 0,1.045698 -1.079732,0.194633 -4.100915,-3.232419 z m 9.434248,3.16326 c 0,-0.276875 1.05,-1.326875 2.333334,-2.333333 2.114741,-1.658495 2.161901,-1.611335 0.503406,0.503406 -1.741825,2.220998 -2.83674,2.927306 -2.83674,1.829927 z m 42.496594,-1.829927 c -1.658495,-2.114741 -1.611335,-2.161901 0.503406,-0.503406 1.283334,1.006458 2.333334,2.056458 2.333334,2.333333 0,1.097379 -1.094915,0.391071 -2.83674,-1.829927 z m 10.83674,-1 c 1.722326,-1.833333 3.431504,-3.333333 3.79817,-3.333333 0.366667,0 -0.74251,1.5 -2.464837,3.333333 -1.722327,1.833334 -3.431504,3.333334 -3.798171,3.333334 -0.366666,0 0.742511,-1.5 2.464838,-3.333334 z M 50,67.524421 C 41.952063,63.800055 37.333333,56.147292 37.333333,46.537044 c 0,-6.561267 2.650222,-13.035858 6.76905,-16.537043 2.643144,-2.24679 2.557148,-1.956372 -0.546171,1.844463 -4.563288,5.588953 -4.158821,8.323788 1.445827,9.776099 3.85829,0.999782 4.331294,1.637388 4.331294,5.838549 0,6.151614 2.081691,9.874223 5.521686,9.874223 1.518656,0 3.941094,1.5 5.383194,3.333333 3.239968,4.118953 9.332659,4.429129 13.09512,0.666667 3.144463,-3.144463 3.38917,-6.375132 0.766506,-10.119511 C 72.082008,48.332967 72.725767,46.218241 76,44.971856 c 1.567904,-0.596845 1.484412,-0.784071 -0.386451,-0.866592 -2.571108,-0.113408 -12.946882,-5.055391 -12.946882,-6.166602 0,-0.370594 1.761066,0.236875 3.913482,1.349932 3.667202,1.896385 3.966378,1.857081 4.754012,-0.624533 0.462291,-1.456551 1.738336,-3.546081 2.835655,-4.6434 1.77128,-1.77128 1.574485,-2.391384 -1.754011,-5.526934 -2.827157,-2.66327 -3.04675,-3.165637 -0.892953,-2.042822 4.569869,2.382361 9.631005,9.236511 10.588325,14.339464 1.95995,10.447427 -1.207606,19.091873 -9.175645,25.040872 C 68.412564,69.208125 55.670901,70.148758 50,67.524421 Z m 40.765181,-1.405715 c -1.202934,-1.449449 -1.163894,-2.110647 0.170075,-2.880435 0.952276,-0.549525 1.286616,-0.508147 0.742979,0.09195 -0.543638,0.600098 -0.320171,1.896295 0.496593,2.880435 0.816763,0.984144 1.185024,1.789349 0.818357,1.789349 -0.366666,0 -1.369268,-0.846584 -2.228004,-1.881296 z m 3.54593,-10.284155 c 0.904445,-0.911224 1.980321,-1.320895 2.390837,-0.910379 0.410517,0.410516 -0.329483,1.156064 -1.644444,1.656772 -1.900264,0.72358 -2.053416,0.570428 -0.746393,-0.746393 z M 16.105263,52.555558 c 0.06397,-1.553258 0.379921,-1.869201 0.805556,-0.805557 0.385161,0.962501 0.337792,2.112501 -0.105267,2.555557 -0.443056,0.443054 -0.758188,-0.344446 -0.700293,-1.75 z m 86.666667,0 c 0.064,-1.553258 0.37992,-1.869201 0.80556,-0.805557 0.38516,0.962501 0.33779,2.112501 -0.10527,2.555557 -0.44306,0.443054 -0.75819,-0.344446 -0.70029,-1.75 z M 24.666667,37.333334 c 0.453225,-0.733333 1.088634,-1.333333 1.412022,-1.333333 0.323388,0 0.587978,0.6 0.587978,1.333333 0,0.733334 -0.635411,1.333334 -1.412023,1.333334 -0.776612,0 -1.041203,-0.6 -0.587977,-1.333334 z m 2.020417,-3.444444 c 0.0112,-0.672222 0.576908,-2.1021 1.257063,-3.177505 0.800052,-1.264973 0.675161,-2.677164 -0.35375,-4 -1.388517,-1.785167 -1.297766,-1.815383 0.714919,-0.238044 1.862053,1.45929 2.019605,2.356588 0.819393,4.666667 -1.886041,3.630114 -2.463218,4.28099 -2.437625,2.748882 z m 64.731973,-1.498052 c -0.72358,-1.900264 -0.570428,-2.053416 0.746394,-0.746393 0.911224,0.904445 1.320894,1.980321 0.910378,2.390837 C 92.665313,34.4458 91.919765,33.7058 91.419057,32.390838 Z m -2.085724,-3.560911 c 0,-0.276874 1.05,-1.326874 2.333334,-2.333333 2.114741,-1.658495 2.161901,-1.611335 0.503406,0.503407 -1.741825,2.220997 -2.83674,2.927305 -2.83674,1.829926 z M 24,21.412023 c 0,-0.690054 0.593128,-1.621217 1.318061,-2.06925 0.755814,-0.467119 0.979343,0.06808 0.524015,1.254644 C 24.955688,22.907306 24,23.329933 24,21.412023 Z m 2.666667,-4.582096 c 0,-0.276875 1.05,-1.326875 2.333333,-2.333333 2.114741,-1.658495 2.161901,-1.611334 0.503407,0.503406 -1.741826,2.220998 -2.83674,2.927306 -2.83674,1.829927 z M 44,14.666667 c 1.1,-0.710875 2.6,-1.292499 3.333333,-1.292499 0.733334,0 0.433334,0.581624 -0.666666,1.292499 -1.1,0.710875 -2.6,1.292499 -3.333334,1.292499 C 42.6,15.959166 42.9,15.377542 44,14.666667 Z"
       id="path32"
       inkscape:connector-curvature="0" />
    <path
       style="fill:#667894;stroke-width:1.33333337"
       d="m 27.899085,77.666669 -3.232418,-3.666667 3.666666,3.232419 C 30.35,79.010252 32,80.660252 32,80.899088 c 0,1.045698 -1.079732,0.194633 -4.100915,-3.232419 z m 9.434248,3.16326 c 0,-0.276875 1.05,-1.326875 2.333334,-2.333333 2.114741,-1.658495 2.161901,-1.611335 0.503406,0.503406 -1.741825,2.220998 -2.83674,2.927306 -2.83674,1.829927 z m 42.496594,-1.829927 c -1.658495,-2.114741 -1.611335,-2.161901 0.503406,-0.503406 1.283334,1.006458 2.333334,2.056458 2.333334,2.333333 0,1.097379 -1.094915,0.391071 -2.83674,-1.829927 z m 10.83674,-1 c 1.722326,-1.833333 3.431504,-3.333333 3.79817,-3.333333 0.366667,0 -0.74251,1.5 -2.464837,3.333333 -1.722327,1.833334 -3.431504,3.333334 -3.798171,3.333334 -0.366666,0 0.742511,-1.5 2.464838,-3.333334 z M 50,67.524421 C 41.760855,63.71157 37.333333,56.157559 37.333333,45.913201 v -5.9132 l 2.719912,2.719912 c 1.495951,1.495951 4.195951,3.2811 6,3.966999 2.186308,0.831232 3.280088,2.280704 3.280088,4.346755 0,3.577953 2.280862,6.299668 5.279271,6.299668 1.143599,0 2.842429,1.222009 3.775177,2.715576 6.203634,9.933599 20.678203,2.507583 16.52161,-8.476227 -1.269508,-3.354677 -1.253546,-4.517591 0.07649,-5.572683 2.320992,-1.841197 2.115747,-13.008312 -0.296237,-16.117868 -1.814471,-2.339236 -1.717121,-2.329546 1.184021,0.117868 4.162324,3.511349 6.793002,9.965731 6.793002,16.666667 0,12.777136 -8.318406,21.547637 -21.130362,22.278771 C 57.026929,69.202774 52.393415,68.632026 50,67.524421 Z m 40.765181,-1.405715 c -1.202934,-1.449449 -1.163894,-2.110647 0.170075,-2.880435 0.952276,-0.549525 1.286616,-0.508147 0.742979,0.09195 -0.543638,0.600098 -0.320171,1.896295 0.496593,2.880435 0.816763,0.984144 1.185024,1.789349 0.818357,1.789349 -0.366666,0 -1.369268,-0.846584 -2.228004,-1.881296 z m 3.54593,-10.284155 c 0.904445,-0.911224 1.980321,-1.320895 2.390837,-0.910379 0.410517,0.410516 -0.329483,1.156064 -1.644444,1.656772 -1.900264,0.72358 -2.053416,0.570428 -0.746393,-0.746393 z M 16.105263,52.555558 c 0.06397,-1.553258 0.379921,-1.869201 0.805556,-0.805557 0.385161,0.962501 0.337792,2.112501 -0.105267,2.555557 -0.443056,0.443054 -0.758188,-0.344446 -0.700293,-1.75 z m 86.666667,0 c 0.064,-1.553258 0.37992,-1.869201 0.80556,-0.805557 0.38516,0.962501 0.33779,2.112501 -0.10527,2.555557 -0.44306,0.443054 -0.75819,-0.344446 -0.70029,-1.75 z M 66.333333,40.570701 c -4.984588,-2.704184 -4.681177,-3.830471 0.333334,-1.237367 2.2,1.137664 4,2.353073 4,2.700907 0,0.857996 -0.143263,0.809611 -4.333334,-1.46354 z M 24.666667,37.333334 c 0.453225,-0.733333 1.088634,-1.333333 1.412022,-1.333333 0.323388,0 0.587978,0.6 0.587978,1.333333 0,0.733334 -0.635411,1.333334 -1.412023,1.333334 -0.776612,0 -1.041203,-0.6 -0.587977,-1.333334 z m 2.020417,-3.444444 c 0.0112,-0.672222 0.576908,-2.1021 1.257063,-3.177505 0.800052,-1.264973 0.675161,-2.677164 -0.35375,-4 -1.388517,-1.785167 -1.297766,-1.815383 0.714919,-0.238044 1.862053,1.45929 2.019605,2.356588 0.819393,4.666667 -1.886041,3.630114 -2.463218,4.28099 -2.437625,2.748882 z m 64.731973,-1.498052 c -0.72358,-1.900264 -0.570428,-2.053416 0.746394,-0.746393 0.911224,0.904445 1.320894,1.980321 0.910378,2.390837 C 92.665313,34.4458 91.919765,33.7058 91.419057,32.390838 Z m -2.085724,-3.560911 c 0,-0.276874 1.05,-1.326874 2.333334,-2.333333 2.114741,-1.658495 2.161901,-1.611335 0.503406,0.503407 -1.741825,2.220997 -2.83674,2.927305 -2.83674,1.829926 z M 24,21.412023 c 0,-0.690054 0.593128,-1.621217 1.318061,-2.06925 0.755814,-0.467119 0.979343,0.06808 0.524015,1.254644 C 24.955688,22.907306 24,23.329933 24,21.412023 Z m 2.666667,-4.582096 c 0,-0.276875 1.05,-1.326875 2.333333,-2.333333 2.114741,-1.658495 2.161901,-1.611334 0.503407,0.503406 -1.741826,2.220998 -2.83674,2.927306 -2.83674,1.829927 z M 44,14.666667 c 1.1,-0.710875 2.6,-1.292499 3.333333,-1.292499 0.733334,0 0.433334,0.581624 -0.666666,1.292499 -1.1,0.710875 -2.6,1.292499 -3.333334,1.292499 C 42.6,15.959166 42.9,15.377542 44,14.666667 Z"
       id="path30"
       inkscape:connector-curvature="0" />
    <path
       style="fill:#4e74aa;stroke-width:1.33333337"
       d="m 27.899085,77.666669 -3.232418,-3.666667 3.666666,3.232419 C 30.35,79.010252 32,80.660252 32,80.899088 c 0,1.045698 -1.079732,0.194633 -4.100915,-3.232419 z m 9.434248,3.16326 c 0,-0.276875 1.05,-1.326875 2.333334,-2.333333 2.114741,-1.658495 2.161901,-1.611335 0.503406,0.503406 -1.741825,2.220998 -2.83674,2.927306 -2.83674,1.829927 z m 42.496594,-1.829927 c -1.658495,-2.114741 -1.611335,-2.161901 0.503406,-0.503406 1.283334,1.006458 2.333334,2.056458 2.333334,2.333333 0,1.097379 -1.094915,0.391071 -2.83674,-1.829927 z m 10.83674,-1 c 1.722326,-1.833333 3.431504,-3.333333 3.79817,-3.333333 0.366667,0 -0.74251,1.5 -2.464837,3.333333 -1.722327,1.833334 -3.431504,3.333334 -3.798171,3.333334 -0.366666,0 0.742511,-1.5 2.464838,-3.333334 z M 49.572836,67.090994 c -7.247192,-3.571276 -11.309964,-10.09197 -11.74704,-18.853841 -0.207704,-4.163766 -0.06177,-6.532382 0.324287,-5.263589 0.392833,1.291045 3.009677,2.928307 5.942592,3.718059 4.13773,1.114174 5.240658,2.045745 5.240658,4.426437 0,3.377568 2.281611,6.215275 4.997288,6.215275 0.988508,0 3.17355,1.6 4.855648,3.555556 4.04435,4.701835 10.82227,4.881495 14.4646,0.383408 2.503906,-3.092193 2.635095,-7.038492 0.406944,-12.241306 -0.731284,-1.707573 -0.08135,-2.714529 2.515932,-3.897925 1.92606,-0.877572 2.903132,-1.965663 2.171271,-2.417977 -0.823703,-0.509078 -0.899531,-2.325873 -0.199033,-4.768741 l 1.131625,-3.946349 1.358556,3.333333 c 0.747205,1.833334 1.26812,6.682167 1.157589,10.775186 -0.157432,5.82975 -0.978178,8.46083 -3.788765,12.145698 -6.580556,8.627553 -19.149851,11.608027 -28.832152,6.836776 z m 41.192345,-0.972288 c -1.202934,-1.449449 -1.163894,-2.110647 0.170075,-2.880435 0.952276,-0.549525 1.286616,-0.508147 0.742979,0.09195 -0.543638,0.600098 -0.320171,1.896295 0.496593,2.880435 0.816763,0.984144 1.185024,1.789349 0.818357,1.789349 -0.366666,0 -1.369268,-0.846584 -2.228004,-1.881296 z m 3.54593,-10.284155 c 0.904445,-0.911224 1.980321,-1.320895 2.390837,-0.910379 0.410517,0.410516 -0.329483,1.156064 -1.644444,1.656772 -1.900264,0.72358 -2.053416,0.570428 -0.746393,-0.746393 z M 16.105263,52.555558 c 0.06397,-1.553258 0.379921,-1.869201 0.805556,-0.805557 0.385161,0.962501 0.337792,2.112501 -0.105267,2.555557 -0.443056,0.443054 -0.758188,-0.344446 -0.700293,-1.75 z m 86.666667,0 c 0.064,-1.553258 0.37992,-1.869201 0.80556,-0.805557 0.38516,0.962501 0.33779,2.112501 -0.10527,2.555557 -0.44306,0.443054 -0.75819,-0.344446 -0.70029,-1.75 z M 24.666667,37.333334 c 0.453225,-0.733333 1.088634,-1.333333 1.412022,-1.333333 0.323388,0 0.587978,0.6 0.587978,1.333333 0,0.733334 -0.635411,1.333334 -1.412023,1.333334 -0.776612,0 -1.041203,-0.6 -0.587977,-1.333334 z m 2.020417,-3.444444 c 0.0112,-0.672222 0.576908,-2.1021 1.257063,-3.177505 0.800052,-1.264973 0.675161,-2.677164 -0.35375,-4 -1.388517,-1.785167 -1.297766,-1.815383 0.714919,-0.238044 1.862053,1.45929 2.019605,2.356588 0.819393,4.666667 -1.886041,3.630114 -2.463218,4.28099 -2.437625,2.748882 z m 64.731973,-1.498052 c -0.72358,-1.900264 -0.570428,-2.053416 0.746394,-0.746393 0.911224,0.904445 1.320894,1.980321 0.910378,2.390837 C 92.665313,34.4458 91.919765,33.7058 91.419057,32.390838 Z m -2.085724,-3.560911 c 0,-0.276874 1.05,-1.326874 2.333334,-2.333333 2.114741,-1.658495 2.161901,-1.611335 0.503406,0.503407 -1.741825,2.220997 -2.83674,2.927305 -2.83674,1.829926 z M 24,21.412023 c 0,-0.690054 0.593128,-1.621217 1.318061,-2.06925 0.755814,-0.467119 0.979343,0.06808 0.524015,1.254644 C 24.955688,22.907306 24,23.329933 24,21.412023 Z m 2.666667,-4.582096 c 0,-0.276875 1.05,-1.326875 2.333333,-2.333333 2.114741,-1.658495 2.161901,-1.611334 0.503407,0.503406 -1.741826,2.220998 -2.83674,2.927306 -2.83674,1.829927 z M 44,14.666667 c 1.1,-0.710875 2.6,-1.292499 3.333333,-1.292499 0.733334,0 0.433334,0.581624 -0.666666,1.292499 -1.1,0.710875 -2.6,1.292499 -3.333334,1.292499 C 42.6,15.959166 42.9,15.377542 44,14.666667 Z"
       id="path28"
       inkscape:connector-curvature="0" />
    <path
       style="fill:#6e6f71;stroke-width:1.33333337"
       d="m 27.899085,77.666669 -3.232418,-3.666667 3.666666,3.232419 C 30.35,79.010252 32,80.660252 32,80.899088 c 0,1.045698 -1.079732,0.194633 -4.100915,-3.232419 z m 9.434248,3.16326 c 0,-0.276875 1.05,-1.326875 2.333334,-2.333333 2.114741,-1.658495 2.161901,-1.611335 0.503406,0.503406 -1.741825,2.220998 -2.83674,2.927306 -2.83674,1.829927 z m 42.496594,-1.829927 c -1.658495,-2.114741 -1.611335,-2.161901 0.503406,-0.503406 1.283334,1.006458 2.333334,2.056458 2.333334,2.333333 0,1.097379 -1.094915,0.391071 -2.83674,-1.829927 z m 10.83674,-1 c 1.722326,-1.833333 3.431504,-3.333333 3.79817,-3.333333 0.366667,0 -0.74251,1.5 -2.464837,3.333333 -1.722327,1.833334 -3.431504,3.333334 -3.798171,3.333334 -0.366666,0 0.742511,-1.5 2.464838,-3.333334 z M 49.572836,67.090994 c -7.247192,-3.571276 -11.309964,-10.09197 -11.74704,-18.853841 -0.207704,-4.163766 -0.06177,-6.532382 0.324287,-5.263589 0.392833,1.291045 3.009677,2.928307 5.942592,3.718059 3.862256,1.039997 5.240658,2.106553 5.240658,4.055024 0,4.600543 6.669952,13.175356 11.183404,14.377255 11.244526,2.994336 20.671456,-7.429674 15.484267,-17.122025 -1.075149,-2.008933 -0.783768,-2.663586 1.509504,-3.391442 1.730305,-0.549178 2.267265,-1.257066 1.372841,-1.80985 -0.965321,-0.596601 -1.080993,-2.26096 -0.337366,-4.854235 l 1.131625,-3.946349 1.358556,3.333333 c 0.747205,1.833334 1.26812,6.682167 1.157589,10.775186 -0.157432,5.82975 -0.978178,8.46083 -3.788765,12.145698 -6.580556,8.627553 -19.149851,11.608027 -28.832152,6.836776 z m 41.192345,-0.972288 c -1.202934,-1.449449 -1.163894,-2.110647 0.170075,-2.880435 0.952276,-0.549525 1.286616,-0.508147 0.742979,0.09195 -0.543638,0.600098 -0.320171,1.896295 0.496593,2.880435 0.816763,0.984144 1.185024,1.789349 0.818357,1.789349 -0.366666,0 -1.369268,-0.846584 -2.228004,-1.881296 z m 3.54593,-10.284155 c 0.904445,-0.911224 1.980321,-1.320895 2.390837,-0.910379 0.410517,0.410516 -0.329483,1.156064 -1.644444,1.656772 -1.900264,0.72358 -2.053416,0.570428 -0.746393,-0.746393 z M 16.105263,52.555558 c 0.06397,-1.553258 0.379921,-1.869201 0.805556,-0.805557 0.385161,0.962501 0.337792,2.112501 -0.105267,2.555557 -0.443056,0.443054 -0.758188,-0.344446 -0.700293,-1.75 z m 86.666667,0 c 0.064,-1.553258 0.37992,-1.869201 0.80556,-0.805557 0.38516,0.962501 0.33779,2.112501 -0.10527,2.555557 -0.44306,0.443054 -0.75819,-0.344446 -0.70029,-1.75 z M 24.666667,37.333334 c 0.453225,-0.733333 1.088634,-1.333333 1.412022,-1.333333 0.323388,0 0.587978,0.6 0.587978,1.333333 0,0.733334 -0.635411,1.333334 -1.412023,1.333334 -0.776612,0 -1.041203,-0.6 -0.587977,-1.333334 z m 2.020417,-3.444444 c 0.0112,-0.672222 0.576908,-2.1021 1.257063,-3.177505 0.800052,-1.264973 0.675161,-2.677164 -0.35375,-4 -1.388517,-1.785167 -1.297766,-1.815383 0.714919,-0.238044 1.862053,1.45929 2.019605,2.356588 0.819393,4.666667 -1.886041,3.630114 -2.463218,4.28099 -2.437625,2.748882 z m 64.731973,-1.498052 c -0.72358,-1.900264 -0.570428,-2.053416 0.746394,-0.746393 0.911224,0.904445 1.320894,1.980321 0.910378,2.390837 C 92.665313,34.4458 91.919765,33.7058 91.419057,32.390838 Z m -2.085724,-3.560911 c 0,-0.276874 1.05,-1.326874 2.333334,-2.333333 2.114741,-1.658495 2.161901,-1.611335 0.503406,0.503407 -1.741825,2.220997 -2.83674,2.927305 -2.83674,1.829926 z M 24,21.412023 c 0,-0.690054 0.593128,-1.621217 1.318061,-2.06925 0.755814,-0.467119 0.979343,0.06808 0.524015,1.254644 C 24.955688,22.907306 24,23.329933 24,21.412023 Z m 2.666667,-4.582096 c 0,-0.276875 1.05,-1.326875 2.333333,-2.333333 2.114741,-1.658495 2.161901,-1.611334 0.503407,0.503406 -1.741826,2.220998 -2.83674,2.927306 -2.83674,1.829927 z M 44,14.666667 c 1.1,-0.710875 2.6,-1.292499 3.333333,-1.292499 0.733334,0 0.433334,0.581624 -0.666666,1.292499 -1.1,0.710875 -2.6,1.292499 -3.333334,1.292499 C 42.6,15.959166 42.9,15.377542 44,14.666667 Z"
       id="path26"
       inkscape:connector-curvature="0" />
    <path
       style="fill:#4e6992;stroke-width:1.33333337"
       d="m 49.572836,67.090994 c -7.247192,-3.571276 -11.309964,-10.09197 -11.74704,-18.853841 -0.207704,-4.163766 -0.06177,-6.532382 0.324287,-5.263589 0.392833,1.291045 3.009677,2.928307 5.942592,3.718059 3.862256,1.039997 5.240658,2.106553 5.240658,4.055024 0,4.600543 6.669952,13.175356 11.183404,14.377255 11.244526,2.994336 20.671456,-7.429674 15.484267,-17.122025 -1.075149,-2.008933 -0.783768,-2.663586 1.509504,-3.391442 1.730305,-0.549178 2.267265,-1.257066 1.372841,-1.80985 -0.965321,-0.596601 -1.080993,-2.26096 -0.337366,-4.854235 l 1.131625,-3.946349 1.358556,3.333333 c 0.747205,1.833334 1.26812,6.682167 1.157589,10.775186 -0.157432,5.82975 -0.978178,8.46083 -3.788765,12.145698 -6.580556,8.627553 -19.149851,11.608027 -28.832152,6.836776 z"
       id="path24"
       inkscape:connector-curvature="0" />
    <path
       style="fill:#35578b;stroke-width:1.33333337"
       d="M 49.107313,66.630943 C 42.833176,63.316662 38.589141,57.313855 37.668799,50.452191 c -0.652144,-4.86209 -0.465786,-5.344818 1.801916,-4.66755 1.391106,0.415466 4.179285,1.148931 6.195952,1.62992 2.639297,0.629492 3.666666,1.705736 3.666666,3.841095 0,1.631612 0.45,3.416568 1,3.966568 0.55,0.55 1.075,1.55 1.166667,2.222222 0.09167,0.672222 0.241667,1.831041 0.333333,2.575153 0.254563,2.066432 8.441951,6.636466 11.899547,6.642086 5.086952,0.0083 11.03326,-3.907425 12.968937,-8.540153 1.82151,-4.359486 1.309202,-10.05276 -1.04489,-11.611855 -0.684008,-0.453012 0.292185,-1.209128 2.169317,-1.680257 2.308231,-0.579329 3.166233,-1.499576 2.650709,-2.843009 -0.419241,-1.092526 -0.136728,-1.98641 0.627808,-1.98641 0.832296,0 1.289934,3.076276 1.140519,7.666667 -0.182708,5.613286 -1.082544,8.835359 -3.359699,12.030186 -6.443126,9.039651 -19.872474,12.166773 -29.778268,6.934089 z"
       id="path22"
       inkscape:connector-curvature="0" />
    <path
       style="fill:#264778;stroke-width:1.33333337"
       d="M 48.670448,66.271102 C 42.702751,62.891327 36.908776,53.829627 37.576416,48.920184 c 0.383332,-2.818805 0.835372,-3.006901 4.756917,-1.979368 3.814903,0.999591 4.333334,1.67694 4.333334,5.661675 0,9.459897 11.281701,17.161496 20.623032,14.078579 7.252577,-2.393567 11.628872,-8.526615 11.188946,-15.680469 -0.273928,-4.454473 0.19916,-6.234161 1.912016,-7.192724 1.971203,-1.10314 2.273068,-0.595242 2.254072,3.792538 -0.07039,16.258261 -19.43929,26.90251 -33.974285,18.670687 z"
       id="path20"
       inkscape:connector-curvature="0" />
    <path
       style="fill:#183766;stroke-width:1.33333337"
       d="M 49.28252,66.333335 C 44.936457,64.141743 42.524925,61.730211 40.333333,57.384148 36.533612,49.849064 36.3365,45.322309 39.848104,46.240615 c 1.717727,0.449194 2.781463,2.325422 3.356213,5.91972 1.274947,7.973079 7.82734,14.372142 16.129016,15.751586 L 66,69.019685 60.615853,69.17651 C 57.408064,69.26995 52.826951,68.120687 49.28252,66.333335 Z m 27.327059,-5.702583 c 2.81169,-4.137936 3.501909,-6.533804 3.153465,-10.946203 -0.288863,-3.657902 0.144211,-5.875302 1.228771,-6.291488 4.568252,-1.753002 -0.32643,16.198807 -5.608828,20.571025 -1.415403,1.171523 -0.920439,-0.17357 1.226592,-3.333334 z"
       id="path18"
       inkscape:connector-curvature="0" />
    <path
       style="fill:#0b2958;stroke-width:1.33333337"
       d="m 55.75,68.422517 c 0.9625,-0.385162 2.1125,-0.337792 2.555556,0.105266 0.443055,0.443056 -0.344445,0.758188 -1.75,0.700294 -1.553257,-0.06397 -1.8692,-0.379922 -0.805556,-0.805556 z M 42.299455,60.330895 c -4.337178,-4.792527 -6.383022,-13.664227 -3.151018,-13.664227 1.212692,0 1.605551,1.096212 1.183706,3.302949 -0.372286,1.947483 0.505901,5.23053 2.139929,8.000001 3.067043,5.19825 3.016799,5.885542 -0.172617,2.361277 z m 38.297697,-9.974358 c 0.134933,-3.470573 0.655773,-6.720573 1.157424,-7.222222 1.25112,-1.251122 0.975896,7.569192 -0.339047,10.865687 -0.721877,1.809709 -0.98487,0.638848 -0.818377,-3.643465 z"
       id="path16"
       inkscape:connector-curvature="0" />
  </g>
</svg>
