<?xml version="1.0" encoding="UTF-8" standalone="no"?>
<!-- Created with Inkscape (http://www.inkscape.org/) -->

<svg
   xmlns:dc="http://purl.org/dc/elements/1.1/"
   xmlns:cc="http://creativecommons.org/ns#"
   xmlns:rdf="http://www.w3.org/1999/02/22-rdf-syntax-ns#"
   xmlns:svg="http://www.w3.org/2000/svg"
   xmlns="http://www.w3.org/2000/svg"
   xmlns:sodipodi="http://sodipodi.sourceforge.net/DTD/sodipodi-0.dtd"
   xmlns:inkscape="http://www.inkscape.org/namespaces/inkscape"
   version="1.1"
   id="svg2"
   width="126.66667"
   height="93.333336"
   viewBox="0 0 126.66667 93.333336"
   sodipodi:docname="filebrowser.svg"
   inkscape:version="0.92.2 5c3e80d, 2017-08-06">
  <metadata
     id="metadata8">
    <rdf:RDF>
      <cc:Work
         rdf:about="">
        <dc:format>image/svg+xml</dc:format>
        <dc:type
           rdf:resource="http://purl.org/dc/dcmitype/StillImage" />
        <dc:title></dc:title>
      </cc:Work>
    </rdf:RDF>
  </metadata>
  <defs
     id="defs6" />
  <sodipodi:namedview
     pagecolor="#ffffff"
     bordercolor="#666666"
     borderopacity="1"
     objecttolerance="10"
     gridtolerance="10"
     guidetolerance="10"
     inkscape:pageopacity="0"
     inkscape:pageshadow="2"
     inkscape:window-width="1918"
     inkscape:window-height="1027"
     id="namedview4"
     showgrid="false"
     inkscape:zoom="7.03"
     inkscape:cx="63.333336"
     inkscape:cy="48.156186"
     inkscape:window-x="0"
     inkscape:window-y="0"
     inkscape:window-maximized="1"
     inkscape:current-layer="svg2" />
  <g
     id="g64">
    <path
       style="fill:#d89302;stroke-width:1.33333337"
       d="M 32.000001,70.666669 29.333334,68.000002 V 49.272728 30.545456 l 3.226704,-3.226706 3.226706,-3.226704 0.455925,-2.379356 0.455924,-2.379356 15.097168,-0.37806 15.097167,-0.378059 0.709046,2.711392 0.709045,2.711394 h 9.735442 9.735441 l 2.158364,0.828241 2.158363,0.828243 2.049001,3.962332 2.049003,3.962332 -0.732761,0.73276 -0.73276,0.73276 -1.873356,-1.554747 -1.873355,-1.554746 -23.825534,0.364746 -23.825533,0.364746 v 1.333333 1.333333 l 24.567382,0.364316 24.567384,0.364318 1.76595,1.465609 1.765953,1.465609 v 14.503409 14.503407 l -2.666667,2.666667 -2.666667,2.666666 h -28.000001 -28 z"
       id="path74"
       inkscape:connector-curvature="0" />
    <path
       style="fill:#975f29;stroke-width:1.33333337"
       d="M 32.000001,70.666669 29.333334,68.000002 V 49.272728 30.545456 l 3.226704,-3.226706 3.226706,-3.226704 0.455925,-2.379356 0.455924,-2.379356 15.097168,-0.37806 15.097167,-0.378059 0.709046,2.711392 0.709045,2.711394 h 9.735442 9.735441 l 2.158364,0.828241 2.158363,0.828243 2.049001,3.962332 2.049003,3.962332 -0.732761,0.73276 -0.73276,0.73276 -1.873356,-1.554747 -1.873355,-1.554746 -23.825534,0.364746 -23.825533,0.364746 v 1.333333 1.333333 l 24.567382,0.364316 24.567384,0.364318 1.76595,1.465609 1.765953,1.465609 v 14.503409 14.503407 l -2.666667,2.666667 -2.666667,2.666666 h -28.000001 -28 z M 91.884918,68.805337 93.429686,66.944006 93.048177,53.13867 92.666669,39.333334 67.476236,38.666668 42.285805,38.000001 l -1.398917,-2.221569 -1.398916,-2.221571 1.752606,-2.111763 1.752608,-2.111764 h 23.915432 23.91543 L 90.000002,28.000001 89.175957,26.666667 H 77.796486 66.417016 L 65.719667,24.000001 65.022318,21.333334 H 51.844493 38.666668 v 2.452647 2.452646 l -3.333334,1.518768 -3.333333,1.518769 v 19.095252 19.095253 l 1.6,1.6 1.6,1.6 H 62.770075 90.34015 Z"
       id="path72"
       inkscape:connector-curvature="0" />
    <path
       style="fill:#7a5047;stroke-width:1.33333337"
       d="M 32.000001,70.666669 29.333334,68.000002 V 49.272728 30.545456 l 3.226704,-3.226706 3.226706,-3.226704 0.455925,-2.379356 0.455924,-2.379356 15.097168,-0.37806 15.097167,-0.378059 0.709046,2.711392 0.709045,2.711394 h 9.735442 9.735441 l 2.158364,0.828241 2.158363,0.828243 2.049001,3.962332 2.049003,3.962332 -0.732761,0.73276 -0.73276,0.73276 -1.873356,-1.554747 -1.873355,-1.554746 -23.825534,0.364746 -23.825533,0.364746 v 1.333333 1.333333 l 24.567382,0.364316 24.567384,0.364318 1.76595,1.465609 1.765953,1.465609 v 14.503409 14.503407 l -2.666667,2.666667 -2.666667,2.666666 h -28.000001 -28 z M 92.666669,54.000002 V 38.000001 L 67.805936,37.63776 42.945204,37.275518 l -1.587388,-1.912685 -1.587388,-1.912685 0.860142,-1.39174 0.860143,-1.39174 H 66.000002 90.50929 l 0.7827,-1.266436 0.7827,-1.266435 -2.616354,-1.400232 -2.616356,-1.400231 H 76.129503 65.417028 l 0.767472,-2 0.767472,-2 H 52.80932 38.666668 v 1.846653 1.846654 l -3.333334,2.184084 -3.333333,2.184084 v 19.74704 19.747042 l 0.913739,0.913738 0.913737,0.913738 29.419597,-0.358182 29.419595,-0.358183 z"
       id="path70"
       inkscape:connector-curvature="0" />
    <path
       style="fill:#78462c;stroke-width:1.33333337"
       d="m 32.266668,70.400002 -1.600001,-1.6 V 49.163441 29.526881 l 3.186013,-2.506118 3.186012,-2.506117 0.480654,-2.420033 0.480655,-2.420034 13.72889,0.0027 13.728888,0.0027 0.826667,0.826666 0.826666,0.826667 -14.222221,8.8e-5 H 38.666668 v 1.846653 1.846654 l -3.367775,2.20665 -3.367773,2.206651 0.367773,20.28003 0.367775,20.28003 h 30 30.000001 v -16 -16.000001 L 67.805936,37.63776 42.945204,37.275518 l -1.682759,-2.027601 -1.68276,-2.0276 1.245595,-1.245595 1.245594,-1.245594 24.63123,-0.364563 24.631232,-0.364564 -0.36637,-1.765774 -0.366368,-1.765773 1.205427,0.744995 1.205427,0.744994 0.616421,2.354113 0.616423,2.354112 H 68.457504 42.670713 l -0.335356,1.333333 -0.335356,1.333333 24.666667,0.336748 24.666668,0.336748 2.131596,2.561828 2.131595,2.561829 -0.564186,13.751071 -0.564187,13.751072 -1.397336,1.683685 -1.397334,1.683687 H 62.770075 33.866668 Z"
       id="path68"
       inkscape:connector-curvature="0" />
    <path
       style="fill:#6b3a2e;stroke-width:1.33333337"
       d="m 31.829928,69.666669 -1.829927,-2.333334 2.333333,1.829927 2.333334,1.829925 v 0.503408 0.503407 h -0.503407 -0.503408 z m 58.836741,1.829926 v -0.503408 l 2.333333,-1.829925 2.333334,-1.829927 -1.829927,2.333334 -1.829925,2.333333 h -0.503408 -0.503407 z m 2,-32.829927 -0.824045,-1.333334 H 67.333335 42.824046 l -0.620084,-1 -0.620084,-1 25.090405,0.388282 25.090405,0.38828 1.61425,1.945053 1.61425,1.945052 H 94.241952 93.490714 Z M 79.333335,32.000001 64.666668,31.193797 78.222225,30.930232 91.77778,30.666668 l 0.544093,-1.632281 0.544093,-1.632278 0.775526,2.965612 0.775525,2.965613 -0.208508,-0.263564 -0.208507,-0.263565 z m -29.029739,-0.962309 4.303593,-0.535544 5.029741,0.524789 5.029738,0.524789 -9.333333,0.0108 -9.333334,0.0108 4.303595,-0.535544 z M 37.333334,22.745357 v -2.587978 l 1.140724,-0.705006 1.140724,-0.705006 -0.629493,3.292983 -0.629493,3.292984 h -0.511231 -0.511231 z"
       id="path66"
       inkscape:connector-curvature="0" />
  </g>
</svg>
