<?xml version="1.0" encoding="UTF-8" standalone="no"?>
<!-- Created with Inkscape (http://www.inkscape.org/) -->

<svg
   xmlns:dc="http://purl.org/dc/elements/1.1/"
   xmlns:cc="http://creativecommons.org/ns#"
   xmlns:rdf="http://www.w3.org/1999/02/22-rdf-syntax-ns#"
   xmlns:svg="http://www.w3.org/2000/svg"
   xmlns="http://www.w3.org/2000/svg"
   xmlns:sodipodi="http://sodipodi.sourceforge.net/DTD/sodipodi-0.dtd"
   xmlns:inkscape="http://www.inkscape.org/namespaces/inkscape"
   version="1.1"
   id="svg82"
   width="126.66667"
   height="93.333336"
   viewBox="0 0 126.66667 93.333336"
   sodipodi:docname="filebrowser.svg"
   inkscape:version="0.92.2 5c3e80d, 2017-08-06">
  <metadata
     id="metadata88">
    <rdf:RDF>
      <cc:Work
         rdf:about="">
        <dc:format>image/svg+xml</dc:format>
        <dc:type
           rdf:resource="http://purl.org/dc/dcmitype/StillImage" />
        <dc:title></dc:title>
      </cc:Work>
    </rdf:RDF>
  </metadata>
  <defs
     id="defs86" />
  <sodipodi:namedview
     pagecolor="#ffffff"
     bordercolor="#666666"
     borderopacity="1"
     objecttolerance="10"
     gridtolerance="10"
     guidetolerance="10"
     inkscape:pageopacity="0"
     inkscape:pageshadow="2"
     inkscape:window-width="1918"
     inkscape:window-height="1027"
     id="namedview84"
     showgrid="false"
     inkscape:zoom="2.1552631"
     inkscape:cx="63.333336"
     inkscape:cy="46.666668"
     inkscape:window-x="0"
     inkscape:window-y="0"
     inkscape:window-maximized="1"
     inkscape:current-layer="svg82" />
  <g
     id="g311">
    <path
       style="fill:#f8f6f6;stroke-width:1.33333337"
       d="m 30.933334,71.733335 -1.6,-1.6 V 49.273319 28.413301 l 2.632628,-2.382495 2.632627,-2.382496 0.790556,-2.490821 0.790556,-2.490822 h 16.034976 16.034977 l 0.697349,2.666667 0.697349,2.666667 10.844491,0.02041 10.844493,0.02041 1.646589,1.045864 1.646589,1.045863 0.788358,3.93372 0.788359,3.933727 -25.768282,-0.06872 -25.768281,-0.06872 23.900715,0.433032 23.900717,0.433032 1.76595,1.46561 1.765953,1.465609 V 53.89658 70.13332 l -1.600001,1.6 -1.6,1.6 H 62.666668 32.533334 Z"
       id="path363"
       inkscape:connector-curvature="0" />
    <path
       style="fill:#e3d7d1;stroke-width:1.33333337"
       d="m 31.539985,70.895014 -2.206651,-2.43832 V 48.895013 29.333334 l 3,-3 3,-3 0.166667,-1 0.166667,-1 0.166666,-1.333333 0.166667,-1.333334 h 15.91015 15.910151 l 0.846366,2.666667 0.846367,2.666667 h 10.481579 10.481579 l 2.007893,2.007893 2.007892,2.007893 0.875754,2.759254 0.875753,2.759255 -0.81063,0.81063 -0.81063,0.810631 -1.577779,-1.577779 -1.577777,-1.577777 H 67.733335 44.000001 v 1.333333 1.333334 H 67.42099 90.84198 l 2.57901,1.380245 2.579013,1.380245 v 15.746438 15.746439 l -2.438322,2.20665 -2.43832,2.20665 H 62.434998 33.746634 Z"
       id="path361"
       inkscape:connector-curvature="0" />
    <path
       style="fill:#dcd1ce;stroke-width:1.33333337"
       d="m 31.539985,70.895014 -2.206651,-2.43832 V 48.831348 29.206004 l 3.333334,-3.08923 3.333333,-3.089228 v -2.18044 -2.180439 h 15.45816 15.458159 l 0.69735,2.666667 0.697349,2.666667 h 10.971175 10.971175 l 2.048943,2.333333 2.048942,2.333333 0.914225,3.000001 0.914224,3 H 94.835209 93.490714 L 92.666669,33.333334 91.842624,32.000001 H 68.000002 44.15738 l -0.773922,1.252231 -0.773921,1.25223 25.412734,0.414436 25.412734,0.414436 1.262081,2 1.262082,2 0.02041,14.79335 0.02042,14.793351 -2.438322,2.20665 -2.43832,2.20665 H 62.434998 33.746634 Z"
       id="path359"
       inkscape:connector-curvature="0" />
    <path
       style="fill:#d6c3ba;stroke-width:1.33333337"
       d="M 32.000001,70.666669 29.333334,68.000002 V 48.873319 29.746634 l 2.819684,-2.539983 2.819684,-2.539984 1.147315,-3 1.147315,-3 H 52.091827 66.91632 l 0.69735,2.666667 0.697349,2.666667 h 10.971175 10.971175 l 2.048943,2.333333 2.048942,2.333333 0.914225,3.000001 0.914224,3 h -1.156516 -1.156518 l -1.365056,-1.365056 -1.365056,-1.365056 -23.901611,0.365056 -23.901612,0.365056 v 1.333333 1.333333 l 25.273449,0.363759 25.273449,0.36376 1.039468,1.63624 1.039468,1.636241 0.02042,14.333334 0.02042,14.333334 -2.666667,2.666667 -2.666667,2.666666 h -28.000001 -28 z"
       id="path357"
       inkscape:connector-curvature="0" />
    <path
       style="fill:#c5aca1;stroke-width:1.33333337"
       d="M 32.000001,70.666669 29.333334,68.000002 V 48.873319 29.746634 l 2.819684,-2.539983 2.819684,-2.539984 1.147315,-3 1.147315,-3 H 52.091827 66.91632 l 0.69735,2.666667 0.697349,2.666667 h 9.735442 9.735441 l 2.158364,0.828241 2.158363,0.828243 2.049001,3.962332 2.049003,3.962332 -0.732761,0.73276 -0.73276,0.73276 -1.873356,-1.554747 -1.873355,-1.554746 -23.825534,0.364746 -23.825533,0.364746 v 1.333333 1.333333 l 24.567382,0.364316 24.567384,0.364318 1.76595,1.465609 1.765953,1.465609 v 14.503409 14.503407 l -2.666667,2.666667 -2.666667,2.666666 h -28.000001 -28 z"
       id="path355"
       inkscape:connector-curvature="0" />
    <path
       style="fill:#bda49d;stroke-width:1.33333337"
       d="M 32.000001,70.666669 29.333334,68.000002 V 49.272728 30.545456 l 3.226704,-3.226706 3.226706,-3.226704 0.455925,-2.379356 0.455924,-2.379356 15.097168,-0.37806 15.097167,-0.378059 0.709046,2.711392 0.709045,2.711394 h 9.735442 9.735441 l 2.158364,0.828241 2.158363,0.828243 2.049001,3.962332 2.049003,3.962332 -0.732761,0.73276 -0.73276,0.73276 -1.873356,-1.554747 -1.873355,-1.554746 -23.825534,0.364746 -23.825533,0.364746 v 1.333333 1.333333 l 24.567382,0.364316 24.567384,0.364318 1.76595,1.465609 1.765953,1.465609 v 14.503409 14.503407 l -2.666667,2.666667 -2.666667,2.666666 h -28.000001 -28 z"
       id="path353"
       inkscape:connector-curvature="0" />
    <path
       style="fill:#b79a92;stroke-width:1.33333337"
       d="M 32.000001,70.666669 29.333334,68.000002 V 49.272728 30.545456 l 3.226704,-3.226706 3.226706,-3.226704 0.455925,-2.379356 0.455924,-2.379356 15.010758,-0.377252 15.010756,-0.377251 1.096217,2.963359 1.096218,2.963357 7.578596,-0.351056 7.578595,-0.351056 3.988311,0.87598 3.98831,0.87598 1.976824,3.822757 1.976825,3.822756 V 33.9807 34.760492 L 93.363277,33.349358 90.72655,31.938225 67.029943,32.302446 43.333334,32.666668 v 1.333333 1.333333 l 24.567382,0.364316 24.567384,0.364318 1.76595,1.465609 1.765953,1.465609 v 14.503409 14.503407 l -2.666667,2.666667 -2.666667,2.666666 h -28.000001 -28 z"
       id="path351"
       inkscape:connector-curvature="0" />
    <path
       style="fill:#a58479;stroke-width:1.33333337"
       d="M 32.23242,70.247401 29.333334,67.161466 V 48.85346 30.545456 l 3.229886,-3.229886 3.229886,-3.229887 0.859964,-2.709508 0.859964,-2.709508 h 14.609819 14.609818 l 1.267331,3.333334 1.26733,3.333333 h 11.319423 11.319423 l 1.380246,2.579012 1.380245,2.579011 0.0016,1.087656 0.0016,1.087655 -26.139529,-0.413898 -26.139527,-0.413898 0.581252,1.747232 0.58125,1.74723 24.556716,0.350275 24.556715,0.350275 1.666667,2.237898 1.666667,2.237898 V 54.022423 67.535165 L 92.914145,70.43425 89.82821,73.333335 H 62.479819 35.131505 Z"
       id="path349"
       inkscape:connector-curvature="0" />
    <path
       style="fill:#e6a100;stroke-width:1.33333337"
       d="M 32.606061,70.060609 29.333334,66.787881 V 48.663609 30.539337 l 3.148027,-2.936335 3.148028,-2.936335 0.955376,-3.042701 0.955376,-3.042701 14.896596,0.376034 14.896598,0.376035 0.426068,3 0.426068,3 h 11.14536 11.145362 l 2.095237,2.095239 2.095239,2.095237 0.0014,1.57143 0.0014,1.571428 -26.131028,-0.388806 -26.131028,-0.388805 0.572888,1.722139 0.572886,1.722138 24.556716,0.350275 24.556715,0.350275 1.666667,2.237898 1.666667,2.237898 v 13.1391 13.139101 l -3.272727,3.272728 -3.272728,3.272726 H 62.666668 35.878789 Z"
       id="path347"
       inkscape:connector-curvature="0" />
    <path
       style="fill:#e09900;stroke-width:1.33333337"
       d="M 32.606061,70.060609 29.333334,66.787881 V 48.663609 30.539337 l 3.148027,-2.936335 3.148028,-2.936335 0.955376,-3.042701 0.955376,-3.042701 14.896596,0.376034 14.896598,0.376035 0.426068,3 0.426068,3 h 11.14536 11.145362 l 2.095237,2.095239 2.095239,2.095237 0.0014,1.57143 0.0014,1.571428 -26.131028,-0.388806 -26.131028,-0.388805 0.572888,1.722139 0.572886,1.722138 24.556716,0.350275 24.556715,0.350275 1.666667,2.237898 1.666667,2.237898 v 13.1391 13.139101 l -3.272727,3.272728 -3.272728,3.272726 H 62.666668 35.878789 Z m 32.304759,-47.643942 -0.700292,-1.75 -0.105264,2.555556 -0.105262,2.555555 0.805556,-0.805555 0.805554,-0.805556 z"
       id="path345"
       inkscape:connector-curvature="0" />
    <path
       style="fill:#d89302;stroke-width:1.33333337"
       d="M 32.606061,70.060609 29.333334,66.787881 V 48.663609 30.539337 l 3.148027,-2.936335 3.148028,-2.936335 0.955376,-3.042701 0.955376,-3.042701 14.896596,0.376034 14.896598,0.376035 0.426068,3 0.426068,3 h 11.14536 11.145362 l 2.095237,2.095239 2.095239,2.095237 0.0014,1.57143 0.0014,1.571428 -26.131028,-0.388806 -26.131028,-0.388805 0.572888,1.722139 0.572886,1.722138 24.556716,0.350275 24.556715,0.350275 1.666667,2.237898 1.666667,2.237898 v 13.1391 13.139101 l -3.272727,3.272728 -3.272728,3.272726 H 62.666668 35.878789 Z m 30.060607,-0.365807 -26,-0.366277 -2.333334,-2.811974 -2.333333,-2.811973 v 1.042724 1.042725 l 2.206651,2.43832 2.206649,2.438322 26.126685,-0.302795 26.126683,-0.302795 z M 92.775113,40.468474 92.106425,38.7259 67.091346,38.36295 42.076268,38.000001 40.391124,34.666668 38.70598,31.333334 l -0.01966,1.895012 -0.01966,1.895014 2.20665,2.43832 2.20665,2.438321 h 24.460018 24.460016 l 0.27418,13.000001 0.27418,13 0.44772,-11.894476 0.44772,-11.894477 z M 65.586894,28.635331 66.284896,27.937329 65.653679,24.635331 65.022463,21.333334 H 52.511232 40.000001 l -0.0031,1 -0.0031,1 11.824013,-0.423351 11.824013,-0.42335 0.70784,2.706784 0.70784,2.706785 -11.528781,0.442385 -11.528792,0.442387 11.444444,0.27418 11.444446,0.27418 z m 24.718664,-0.107553 -0.805556,-0.805555 -1.75,0.700292 -1.75,0.700292 2.555556,0.105265 2.555555,0.105262 z"
       id="path343"
       inkscape:connector-curvature="0" />
    <path
       style="fill:#967064;stroke-width:1.33333337"
       d="M 32.606061,70.060609 29.333334,66.787881 V 48.663609 30.539337 l 3.148027,-2.936335 3.148028,-2.936335 0.955376,-3.042701 0.955376,-3.042701 14.896596,0.376034 14.896598,0.376035 0.426068,3 0.426068,3 h 11.14536 11.145362 l 2.095237,2.095239 2.095239,2.095237 0.0014,1.57143 0.0014,1.571428 -26.131028,-0.388806 -26.131028,-0.388805 0.572888,1.722139 0.572886,1.722138 24.556716,0.350275 24.556715,0.350275 1.666667,2.237898 1.666667,2.237898 v 13.1391 13.139101 l -3.272727,3.272728 -3.272728,3.272726 H 62.666668 35.878789 Z m 58.952489,-1.168186 1.108119,-1.10758 V 53.55909 39.333334 l -25.190433,-0.666666 -25.190431,-0.666667 -1.398917,-2.221569 -1.398916,-2.221571 1.752606,-2.111763 1.752608,-2.111764 24.170076,-0.264929 24.170074,-0.26493 -10.000001,-0.405777 -10,-0.405777 -3,-0.68803 -3,-0.688029 V 23.974598 21.333334 H 52.666668 40.000001 v 2.666667 2.666666 h -1.333333 -1.333334 l -2.666666,2.666667 -2.666667,2.666667 v 17.238095 17.238097 l 2.169995,2.169994 2.169993,2.169994 27.055221,-0.40809 27.05522,-0.408089 z"
       id="path341"
       inkscape:connector-curvature="0" />
    <path
       style="fill:#d38902;stroke-width:1.33333337"
       d="m 32.505972,69.960518 -3.372817,-3.372816 0.433423,-18.736925 0.433423,-18.736923 3.666667,-2.668136 3.666666,-2.668135 V 21.177017 18.57645 l 14.333334,0.378441 14.333334,0.378443 1.31617,3 1.316172,3 h 10.921925 10.921924 l 2.095237,2.095239 2.095239,2.095237 0.0014,1.57143 0.0014,1.571428 -26.001426,-0.387956 -26.001426,-0.387958 v 2.054624 2.054623 H 67.95309 93.239512 l 1.380245,2.579012 1.380246,2.579011 v 12.814928 12.814929 l -3.272727,3.272728 -3.272728,3.272726 H 62.666668 35.878789 Z m 59.052578,-1.068095 1.108119,-1.10758 V 53.55909 39.333334 l -25.190433,-0.666666 -25.190431,-0.666667 -1.398917,-2.221569 -1.398916,-2.221571 1.752606,-2.111763 1.752608,-2.111764 24.170076,-0.264929 24.170074,-0.26493 -10.000001,-0.405777 -10,-0.405777 -3,-0.68803 -3,-0.688029 V 23.974598 21.333334 H 52.666668 40.000001 v 2.666667 2.666666 h -1.333333 -1.333334 l -2.666666,2.666667 -2.666667,2.666667 v 17.238095 17.238097 l 2.169995,2.169994 2.169993,2.169994 27.055221,-0.40809 27.05522,-0.408089 z"
       id="path339"
       inkscape:connector-curvature="0" />
    <path
       style="fill:#ca8405;stroke-width:1.33333337"
       d="m 32.505972,69.960518 -3.372817,-3.372816 0.433423,-18.736925 0.433423,-18.736923 3.666667,-2.668136 3.666666,-2.668135 V 21.177017 18.57645 l 14.333334,0.378441 14.333334,0.378443 1.31617,3 1.316172,3 h 10.921925 10.921924 l 2.095237,2.095239 2.095239,2.095237 0.0014,1.57143 0.0014,1.571428 -26.001426,-0.387956 -26.001426,-0.387958 v 2.054624 2.054623 H 67.95309 93.239512 l 1.380245,2.579012 1.380246,2.579011 v 12.814928 12.814929 l -3.272727,3.272728 -3.272728,3.272726 H 62.666668 35.878789 Z M 91.283193,68.526335 93.423525,66.386003 93.045097,52.859668 92.666669,39.333334 67.476236,38.666668 42.285805,38.000001 l -1.398917,-2.221569 -1.398916,-2.221571 1.752606,-2.111763 1.752608,-2.111764 24.170076,-0.02042 24.170074,-0.02042 -2,-1.352922 -2,-1.352923 -8.666667,0.187896 -8.666667,0.187896 -2.333334,-0.147889 -2.333333,-0.147891 v -2.66666 -2.666667 H 52.666668 40.000001 v 1.703088 1.703087 l -4,3.50994 -4,3.509939 v 17.358403 17.358402 l 2.095239,2.095237 2.095237,2.095239 H 62.666668 89.14286 Z"
       id="path337"
       inkscape:connector-curvature="0" />
    <path
       style="fill:#c67c03;stroke-width:1.33333337"
       d="m 32.505972,69.960518 -3.372817,-3.372816 0.433423,-18.736925 0.433423,-18.736923 3.666667,-2.668136 3.666666,-2.668135 V 21.177017 18.57645 l 14.333334,0.378441 14.333334,0.378443 1.31617,3 1.316172,3 h 10.921925 10.921924 l 2.095237,2.095239 2.095239,2.095237 0.0014,1.57143 0.0014,1.571428 -26.001426,-0.387956 -26.001426,-0.387958 v 2.054624 2.054623 H 67.95309 93.239512 l 1.380245,2.579012 1.380246,2.579011 v 12.814928 12.814929 l -3.272727,3.272728 -3.272728,3.272726 H 62.666668 35.878789 Z M 91.283193,68.526335 93.423525,66.386003 93.045097,52.859668 92.666669,39.333334 67.476236,38.666668 42.285805,38.000001 l -1.398917,-2.221569 -1.398916,-2.221571 1.752606,-2.111763 1.752608,-2.111764 24.170076,-0.02042 24.170074,-0.02042 -2,-1.292499 -2,-1.292499 -11.000001,-0.02042 -11,-0.02042 V 24.000001 21.333334 H 51.941552 38.549769 l 0.364955,1.666667 0.364953,1.666666 -3.639837,3.60606 -3.639839,3.606062 v 17.298702 17.298702 l 2.095239,2.095237 2.095237,2.095239 H 62.666668 89.14286 Z"
       id="path335"
       inkscape:connector-curvature="0" />
    <path
       style="fill:#8b6258;stroke-width:1.33333337"
       d="m 32.505972,69.960518 -3.372817,-3.372816 0.433423,-18.736925 0.433423,-18.736923 3.666667,-2.668136 3.666666,-2.668135 V 21.177017 18.57645 l 14.333334,0.378441 14.333334,0.378443 1.31617,3 1.316172,3 h 10.921925 10.921924 l 2.095237,2.095239 2.095239,2.095237 0.0014,1.57143 0.0014,1.571428 -26.001426,-0.387956 -26.001426,-0.387958 v 2.054624 2.054623 H 67.95309 93.239512 l 1.380245,2.579012 1.380246,2.579011 v 12.814928 12.814929 l -3.272727,3.272728 -3.272728,3.272726 H 62.666668 35.878789 Z M 91.884918,68.805337 93.429686,66.944006 93.048177,53.13867 92.666669,39.333334 67.476236,38.666668 42.285805,38.000001 l -1.398917,-2.221569 -1.398916,-2.221571 1.752606,-2.111763 1.752608,-2.111764 h 23.915432 23.91543 L 90.000002,28.000001 89.175957,26.666667 H 77.796486 66.417016 L 65.719667,24.000001 65.022318,21.333334 H 51.844493 38.666668 v 2.452647 2.452646 l -3.333334,1.518768 -3.333333,1.518769 v 19.095252 19.095253 l 1.6,1.6 1.6,1.6 H 62.770075 90.34015 Z"
       id="path333"
       inkscape:connector-curvature="0" />
    <path
       style="fill:#83594f;stroke-width:1.33333337"
       d="m 33.410194,70.997018 -2.885231,-2.336319 -0.09748,-3.997014 -0.09747,-3.997017 0.168326,-15.679716 0.168328,-15.679718 2.788395,-2.320283 2.788395,-2.320284 1.196401,-3.046812 1.196403,-3.046812 13.681871,0.380146 13.68187,0.380145 1.31617,3 1.316172,3 h 10.921925 10.921924 l 2.095237,2.095239 2.095239,2.095237 0.0014,1.57143 0.0014,1.571428 -26.001426,-0.387956 -26.001426,-0.387958 v 2.054624 2.054623 l 24.333334,0.02041 24.333334,0.02041 2,1.262268 2,1.262268 0.453003,13.991586 0.453001,13.991585 -3.392396,3.392396 -3.392396,3.392404 H 62.874987 36.295425 Z M 91.884918,68.805337 93.429686,66.944006 93.048177,53.13867 92.666669,39.333334 67.476236,38.666668 42.285805,38.000001 l -1.398917,-2.221569 -1.398916,-2.221571 1.752606,-2.111763 1.752608,-2.111764 h 23.915432 23.91543 L 90.000002,28.000001 89.175957,26.666667 H 77.796486 66.417016 L 65.719667,24.000001 65.022318,21.333334 H 51.844493 38.666668 v 2.452647 2.452646 l -3.333334,1.518768 -3.333333,1.518769 v 19.095252 19.095253 l 1.6,1.6 1.6,1.6 H 62.770075 90.34015 Z"
       id="path331"
       inkscape:connector-curvature="0" />
    <path
       style="fill:#a66713;stroke-width:1.33333337"
       d="m 34.666668,71.65113 -3.333334,-1.725788 -0.383351,-18.629338 -0.383352,-18.629336 0.719784,-2.911134 0.719783,-2.911133 2.579095,-0.818572 2.579093,-0.818574 0.417808,-2.93696 0.417807,-2.936961 13.68187,-0.380145 13.681871,-0.380146 1.285129,3.380146 1.285128,3.380145 h 11.29073 11.290729 l 2.075606,2.963341 2.075605,2.963342 0.0014,0.703325 0.0014,0.703326 -26.001426,-0.387956 -26.001426,-0.387958 v 2.054624 2.054623 l 24.333334,0.02041 24.333334,0.02041 2,1.264282 2,1.264284 v 14.667681 14.66768 l -2.377896,2.380954 -2.377898,2.38096 -26.28877,0.355125 -26.288771,0.355124 z M 91.884918,68.805337 93.429686,66.944006 93.048177,53.13867 92.666669,39.333334 67.476236,38.666668 42.285805,38.000001 l -1.398917,-2.221569 -1.398916,-2.221571 1.752606,-2.111763 1.752608,-2.111764 h 23.915432 23.91543 L 90.000002,28.000001 89.175957,26.666667 H 77.796486 66.417016 L 65.719667,24.000001 65.022318,21.333334 H 51.844493 38.666668 v 2.452647 2.452646 l -3.333334,1.518768 -3.333333,1.518769 v 19.095252 19.095253 l 1.6,1.6 1.6,1.6 H 62.770075 90.34015 Z"
       id="path329"
       inkscape:connector-curvature="0" />
    <path
       style="fill:#7a5047;stroke-width:1.33333337"
       d="m 34.666668,71.65113 -3.333334,-1.725788 -0.383351,-18.629338 -0.383352,-18.629336 0.719784,-2.911134 0.719783,-2.911133 2.579095,-0.818572 2.579093,-0.818574 0.417808,-2.93696 0.417807,-2.936961 13.68187,-0.380145 13.681871,-0.380146 1.285129,3.380146 1.285128,3.380145 h 11.29073 11.290729 l 2.075606,2.963341 2.075605,2.963342 0.0014,0.703325 0.0014,0.703326 -26.001426,-0.387956 -26.001426,-0.387958 v 2.054624 2.054623 l 24.333334,0.02041 24.333334,0.02041 2,1.264282 2,1.264284 v 14.667681 14.66768 l -2.377896,2.380954 -2.377898,2.38096 -26.28877,0.355125 -26.288771,0.355124 z m 57.21661,-2.843817 1.543128,-1.859356 -0.379868,-14.473978 -0.379869,-14.473978 -25.719633,-0.362309 -25.719632,-0.36231 -0.76287,-1.988004 -0.762868,-1.988004 1.64576,-1.98302 1.64576,-1.98302 H 66.829928 90.666669 V 28.000001 26.666667 H 80.109051 69.551435 L 67.442384,25.857349 65.333335,25.04803 V 23.190682 21.333334 H 52.000001 38.666668 v 1.846653 1.846654 l -3.333334,2.184084 -3.333333,2.184084 v 19.03593 19.03593 l 1.6,1.6 1.6,1.6 H 62.770075 90.34015 Z"
       id="path327"
       inkscape:connector-curvature="0" />
    <path
       style="fill:#915519;stroke-width:1.33333337"
       d="m 32.266668,70.400002 -1.600001,-1.6 V 49.163441 29.526881 l 3.186013,-2.506118 3.186012,-2.506117 0.496289,-2.590656 0.496291,-2.590656 13.666235,-0.380145 13.666235,-0.380146 1.285129,3.380146 1.285128,3.380145 h 11.29073 11.290729 l 2.075606,2.963341 2.075605,2.963342 0.0014,0.703325 0.0014,0.703326 -26.001426,-0.387956 -26.001426,-0.387958 v 2.054624 2.054623 H 67.25773 91.848792 l 1.893018,2.702663 1.893021,2.702664 -0.557724,13.582788 -0.557725,13.582787 -1.422949,1.71455 -1.422949,1.714549 H 62.770075 33.866668 Z m 59.61661,-1.592689 1.543128,-1.859356 -0.379868,-14.473978 -0.379869,-14.473978 -25.719633,-0.362309 -25.719632,-0.36231 -0.76287,-1.988004 -0.762868,-1.988004 1.64576,-1.98302 1.64576,-1.98302 H 66.829928 90.666669 V 28.000001 26.666667 H 80.109051 69.551435 L 67.442384,25.857349 65.333335,25.04803 V 23.190682 21.333334 H 52.000001 38.666668 v 1.846653 1.846654 l -3.333334,2.184084 -3.333333,2.184084 v 19.03593 19.03593 l 1.6,1.6 1.6,1.6 H 62.770075 90.34015 Z"
       id="path325"
       inkscape:connector-curvature="0" />
    <path
       style="fill:#855023;stroke-width:1.33333337"
       d="m 32.266668,70.400002 -1.600001,-1.6 V 49.163441 29.526881 l 3.186013,-2.506118 3.186012,-2.506117 0.498914,-2.590656 0.498915,-2.590656 h 13.829003 13.829002 l 1.109772,3 1.109773,3 h -1.290368 -1.290368 v -2 -2 H 52.000001 38.666668 v 1.846653 1.846654 l -3.367775,2.20665 -3.367773,2.206651 0.367773,20.28003 0.367775,20.28003 h 30 30.000001 v -16 -16.000001 L 67.805936,37.63776 42.945204,37.275518 l -1.587388,-1.912685 -1.587388,-1.912685 0.860142,-1.39174 0.860143,-1.39174 H 66.000002 90.50929 l 0.773399,-1.251387 0.7734,-1.251386 -2.361377,-1.374736 -2.361376,-1.374736 1.591061,-0.04054 1.591061,-0.04054 2.075606,2.963341 2.075605,2.963342 0.0014,0.703325 0.0014,0.703326 -26.001426,-0.387956 -26.001426,-0.387958 v 2.054624 2.054623 H 67.25773 91.848792 l 1.893018,2.702663 1.893021,2.702664 -0.557724,13.582788 -0.557725,13.582787 -1.422949,1.71455 -1.422949,1.714549 H 62.770075 33.866668 Z"
       id="path323"
       inkscape:connector-curvature="0" />
    <path
       style="fill:#714338;stroke-width:1.33333337"
       d="m 32.266668,70.400002 -1.600001,-1.6 V 49.273319 29.746634 l 3.000001,-2.539983 3,-2.539984 -2.370054,2.81223 -2.370052,2.812228 0.370052,19.854439 0.370054,19.854438 h 30 30.000001 v -16 -16.000001 L 68.099287,37.635685 43.531904,37.271368 41.845208,35.871533 40.15851,34.4717 40.888574,32.569184 41.618638,30.666668 H 66.063964 90.50929 l 0.773399,-1.251387 0.7734,-1.251386 -2.361377,-1.374736 -2.361376,-1.374736 1.591061,-0.04054 1.591061,-0.04054 2.075606,2.963341 2.075605,2.963342 0.0014,0.703325 0.0014,0.703326 -26.001426,-0.387956 -26.001426,-0.387958 v 2.054624 2.054623 H 67.25773 91.848792 l 1.893018,2.702663 1.893021,2.702664 -0.557724,13.582788 -0.557725,13.582787 -1.422949,1.71455 -1.422949,1.714549 H 62.770075 33.866668 Z m 5.48714,-47.733335 0.246193,-3.333333 13.215782,-0.384219 13.215781,-0.384218 1.384219,1.384218 1.384219,1.384219 H 53.0311 38.862198 l -0.677292,2.333333 -0.677292,2.333334 z"
       id="path321"
       inkscape:connector-curvature="0" />
    <path
       style="fill:#683e43;stroke-width:1.33333337"
       d="m 32.871837,71.000002 -0.618876,-1 h 30.206854 30.206854 v -16 -16.000001 L 67.805936,37.63776 42.945204,37.275518 l -1.741631,-2.304425 -1.741631,-2.304425 1.86903,1.666666 1.869029,1.666667 h 24.236741 24.236742 l 1.648569,1.986405 1.648571,1.986407 -0.102707,14.150938 -0.102707,14.150938 -1.545868,1.862656 -1.545858,1.862657 H 62.582098 33.490713 Z m -1.911487,-21.79335 -0.293683,-19.460018 3.000001,-2.539983 3,-2.539984 -2.295074,2.729378 -2.295074,2.729379 -0.411245,19.270621 -0.411242,19.270624 z m 61.574658,-16.893735 -1.464995,-0.979583 0.02055,-2.274681 0.02055,-2.274683 0.95017,0.587237 0.950169,0.587236 0.702783,2.687446 0.702789,2.687445 -0.208508,-0.02042 -0.208507,-0.02042 z m -42.231412,-1.275225 4.303593,-0.535544 5.029741,0.524789 5.029738,0.524789 -9.333333,0.0108 -9.333334,0.0108 4.303595,-0.535544 z m -12.549788,-8.222233 0.246193,-3.184541 13.970648,0.2663 13.970647,0.2663 0.584908,0.584908 0.584908,0.584908 H 52.986656 38.862198 l -0.677292,2.333333 -0.677292,2.333334 z"
       id="path319"
       inkscape:connector-curvature="0" />
    <path
       style="fill:#7b4726;stroke-width:1.33333337"
       d="m 32.871837,71.000002 -0.618876,-1 h 30.206854 30.206854 v -16 -16.000001 L 67.805936,37.63776 42.945204,37.275518 l -1.741631,-2.304425 -1.741631,-2.304425 1.86903,1.666666 1.869029,1.666667 h 24.236741 24.236742 l 1.648569,1.986405 1.648571,1.986407 -0.102707,14.150938 -0.102707,14.150938 -1.545868,1.862656 -1.545858,1.862657 H 62.582098 33.490713 Z M 30.96035,49.163261 30.666667,29.659853 l 2.333334,-1.829926 2.333333,-1.829926 -1.628577,2.090724 -1.628579,2.090723 -0.411073,19.242611 -0.411072,19.24261 z m 61.574658,-16.850344 -1.464995,-0.979583 0.02055,-2.274681 0.02055,-2.274683 0.95017,0.587237 0.950169,0.587236 0.702783,2.687446 0.702789,2.687445 -0.208508,-0.02042 -0.208507,-0.02042 z m -42.231412,-1.275225 4.303593,-0.535544 5.029741,0.524789 5.029738,0.524789 -9.333333,0.0108 -9.333334,0.0108 4.303595,-0.535544 z m -12.549788,-8.222233 0.246193,-3.184541 13.970648,0.2663 13.970647,0.2663 0.584908,0.584908 0.584908,0.584908 H 52.986656 38.862198 l -0.677292,2.333333 -0.677292,2.333334 z"
       id="path317"
       inkscape:connector-curvature="0" />
    <path
       style="fill:#6b3b31;stroke-width:1.33333337"
       d="m 90.666669,71.496595 v -0.503408 l 2.333333,-1.829925 2.333334,-1.829927 -1.829927,2.333334 -1.829925,2.333333 h -0.503408 -0.503407 z m 2,-32.829927 -0.824045,-1.333334 H 67.333335 42.824046 l -0.620084,-1 -0.620084,-1 25.090405,0.388282 25.090405,0.38828 1.61425,1.945053 1.61425,1.945052 h -0.751236 -0.751238 z m -0.262952,-6.388942 -1.596284,-1.014773 1.077968,-1.744189 1.077968,-1.744189 0.726824,2.779379 0.726824,2.77938 -0.208508,-0.02042 -0.208507,-0.02042 z m -42.100121,-1.240034 4.303593,-0.535544 5.029741,0.524789 5.029738,0.524789 -9.333333,0.0108 -9.333334,0.0108 4.303595,-0.535544 z M 37.333334,22.745357 v -2.587978 l 1.140724,-0.705006 1.140724,-0.705006 -0.629493,3.292983 -0.629493,3.292984 h -0.511231 -0.511231 z"
       id="path315"
       inkscape:connector-curvature="0" />
    <path
       style="fill:#6a392c;stroke-width:1.33333337"
       d="m 54.333335,36.33991 12.333333,-0.439978 12.333334,0.439978 12.333334,0.439979 H 66.666668 42.000001 Z"
       id="path313"
       inkscape:connector-curvature="0" />
  </g>
</svg>
