<?xml version="1.0" encoding="UTF-8" standalone="no"?>
<!-- Created with Inkscape (http://www.inkscape.org/) -->

<svg
   xmlns:dc="http://purl.org/dc/elements/1.1/"
   xmlns:cc="http://creativecommons.org/ns#"
   xmlns:rdf="http://www.w3.org/1999/02/22-rdf-syntax-ns#"
   xmlns:svg="http://www.w3.org/2000/svg"
   xmlns="http://www.w3.org/2000/svg"
   xmlns:sodipodi="http://sodipodi.sourceforge.net/DTD/sodipodi-0.dtd"
   xmlns:inkscape="http://www.inkscape.org/namespaces/inkscape"
   version="1.1"
   id="svg2"
   width="126.66667"
   height="93.333336"
   viewBox="0 0 126.66667 93.333336"
   sodipodi:docname="help.svg"
   inkscape:version="0.92.2 5c3e80d, 2017-08-06">
  <metadata
     id="metadata8">
    <rdf:RDF>
      <cc:Work
         rdf:about="">
        <dc:format>image/svg+xml</dc:format>
        <dc:type
           rdf:resource="http://purl.org/dc/dcmitype/StillImage" />
        <dc:title></dc:title>
      </cc:Work>
    </rdf:RDF>
  </metadata>
  <defs
     id="defs6" />
  <sodipodi:namedview
     pagecolor="#ffffff"
     bordercolor="#666666"
     borderopacity="1"
     objecttolerance="10"
     gridtolerance="10"
     guidetolerance="10"
     inkscape:pageopacity="0"
     inkscape:pageshadow="2"
     inkscape:window-width="1918"
     inkscape:window-height="1027"
     id="namedview4"
     showgrid="false"
     inkscape:pagecheckerboard="true"
     inkscape:zoom="2.1552631"
     inkscape:cx="63.333336"
     inkscape:cy="46.666668"
     inkscape:window-x="0"
     inkscape:window-y="0"
     inkscape:window-maximized="1"
     inkscape:current-layer="svg2" />
  <path
     style="fill:#ffffff;fill-opacity:1;stroke-width:0.4639805"
     d="m 42.454214,87.311358 c 0,-0.255189 -0.521978,-0.46398 -1.159951,-0.46398 -0.721748,0 -1.159951,-0.262924 -1.159951,-0.695971 0,-0.382784 -0.313187,-0.695971 -0.695971,-0.695971 -0.382784,0 -0.695971,-0.313187 -0.695971,-0.69597 0,-0.382784 -0.313187,-0.695971 -0.69597,-0.695971 -0.382784,0 -0.695971,-0.313187 -0.695971,-0.695971 0,-0.382784 -0.313187,-0.695971 -0.695971,-0.695971 -0.382784,0 -0.695971,-0.313186 -0.695971,-0.69597 0,-0.382784 -0.313186,-0.695971 -0.69597,-0.695971 -0.382784,0 -0.695971,-0.313187 -0.695971,-0.695971 0,-0.382784 -0.313187,-0.695971 -0.695971,-0.695971 -0.382784,0 -0.69597,-0.313186 -0.69597,-0.69597 0,-0.382784 -0.313187,-0.695971 -0.695971,-0.695971 -0.612152,0 -0.695971,-3.995387 -0.695971,-33.174604 0,-29.179218 0.08382,-33.174605 0.695971,-33.174605 0.54131,0 0.695971,-0.61864 0.695971,-2.7838829 0,-2.1652422 0.15466,-2.7838829 0.69597,-2.7838829 0.382784,0 0.695971,-0.3131868 0.695971,-0.6959707 0,-0.6103553 3.19631,-0.6959707 25.982907,-0.6959707 22.786597,0 25.982907,0.085615 25.982907,0.6959707 0,0.5567766 0.695971,0.6959707 3.479854,0.6959707 h 3.479853 v 2.7838829 c 0,2.1652429 0.154659,2.7838829 0.695971,2.7838829 0.612876,0 0.695971,4.459368 0.695971,37.350429 0,32.891061 -0.0831,37.350429 -0.695971,37.350429 -0.382784,0 -0.695971,0.208791 -0.695971,0.46398 0,0.303699 -8.815629,0.463981 -25.518926,0.463981 -16.703298,0 -25.518927,-0.160282 -25.518927,-0.463981 z"
     id="path12"
     inkscape:connector-curvature="0" />
  <g
     id="g14">
    <path
       style="fill:#cecdcc;stroke-width:1.33333337"
       d="m 61.42766,84.058298 -1.816238,-1.122496 0.81911,-2.134566 0.81911,-2.134567 h -2.62482 -2.624821 v -2 -2 h 3.235569 3.235568 l 0.609762,2.333333 0.609764,2.333334 0.15467,-2.333334 0.154668,-2.333333 h 3.333333 3.333334 v 2 2 h -2.624821 -2.62482 l 0.685499,1.786381 0.685499,1.786382 -1.772063,1.470682 -1.772064,1.470682 z m -22.37225,-7.724962 -0.860898,-2.333334 -1.274495,-0.854896 -1.274496,-0.854896 2.126135,-3.035483 2.126134,-3.035482 -2.152594,-1.574016 -2.152595,-1.574017 0.949056,-1.535605 0.949056,-1.535605 h 2.509288 2.509288 l 0.824045,-1.333334 0.824046,-1.333333 h -2.07869 -2.078689 v -1.561679 -1.56168 l 2.206651,-2.43832 2.206649,-2.438321 H 38.873318 33.333334 V 30.000001 10.666667 H 63.333335 93.333336 V 30.000001 49.333335 H 70.666669 48.000001 v 1.333333 1.333333 h 2 2 v 1.703679 1.703679 l -2.666666,2.283272 -2.666667,2.283271 0.154668,2.346384 0.154669,2.346383 0.609764,-2.333334 0.609763,-2.333333 h 1.804469 1.80447 l 0.609762,2.333333 0.609764,2.333334 0.15467,-2.333334 0.154668,-2.333333 h 2 2 v 2.222222 2.222222 l 0.812317,-0.812318 0.812318,-0.812317 -1.804466,-4.076571 -1.804467,-4.076572 h -1.00785 -1.007852 v -2 -2 h 1.902234 1.902235 l 0.609763,2.333334 0.609764,2.333333 0.154669,-2.2 0.154668,-2.2 h 4.594579 4.594579 l 0.584086,2.2 0.584086,2.2 0.154669,-2.166667 0.154668,-2.166667 h 7.35765 7.357651 l 0.726858,1.176084 0.72686,1.176085 -2.00032,0.767594 -2.000319,0.767595 0.659104,1.717597 0.659105,1.717599 -2.127809,0.816517 -2.127808,0.816516 -1.197637,-2.977793 -1.197637,-2.977793 -0.08452,2.254644 -0.08452,2.254644 -1.344612,0.831016 -1.344611,0.831014 -1.23754,-3.085658 -1.23754,-3.08566 -0.08452,2.254644 -0.08451,2.254644 -1.344613,0.831016 -1.34461,0.831014 -1.23754,-3.085658 -1.23754,-3.08566 -0.08452,2.254644 -0.08451,2.254644 -1.344612,0.831016 -1.344611,0.831014 -1.23754,-3.085658 -1.23754,-3.08566 -0.08452,3 -0.08451,3 h 1.235568 1.235568 l 0.609762,2.333333 0.609764,2.333334 0.15467,-2.333334 0.154668,-2.333333 h 2 2 l 0.04055,2.333333 0.04055,2.333334 1.359043,-2.333334 1.359037,-2.333333 h 1.26708 1.26708 l 0.02041,2.333333 0.02041,2.333334 1.253017,-1.981771 1.253018,-1.981772 6.786277,-0.127627 6.786279,-0.127627 0.652124,1.055159 0.652123,1.055159 -1.711836,2.895107 -1.711836,2.895108 1.666666,0.603573 1.666667,0.603573 v 1.888888 l 8e-6,1.888896 H 89.488844 88.31102 l -0.658699,2.518866 -0.658697,2.518865 -4.37453,-0.220006 -4.374528,-0.220007 -1.028568,-2.632192 -1.028568,-2.632192 -0.09372,3 -0.09371,3 h -1.45816 -1.458159 l -0.697349,-2.666667 -0.697349,-2.666667 h -1.080059 -1.08006 L 68.919101,71.000002 68.309337,68.666669 68.154668,71.000002 68,73.333335 H 66.097765 64.19553 l -0.609762,-2.333333 -0.609764,-2.333333 -0.15467,2.333333 -0.154668,2.333333 h -1.902234 -1.902235 l -0.609763,-2.333333 -0.609764,-2.333333 -0.154669,2.333333 -0.154668,2.333333 h -1.333334 -1.333333 v 2.666667 2.666667 h -1.907265 -1.907266 l -0.577825,-3 -0.577825,-3 -0.181576,3 -0.181576,3 h -1.907266 -1.907265 l -0.577825,-3 -0.577826,-3 -0.181576,3 -0.181576,3 h -2.041847 -2.041846 z m 3.188743,-5.916667 -0.700292,-1.75 -0.105264,2.555556 -0.105263,2.555554 0.805556,-0.805554 0.805555,-0.805556 z m 5.333334,0 -0.700292,-1.75 -0.105264,2.555556 -0.105263,2.555554 0.805556,-0.805554 0.805555,-0.805556 z m 5.333333,0 -0.700292,-1.75 -0.105264,2.555556 -0.105263,2.555554 0.805556,-0.805554 0.805555,-0.805556 z m 23.74641,-1.068062 0.814607,-1.31806 -2.069251,0.794046 -2.069251,0.794046 v 0.524015 0.524015 h 1.254644 1.254644 z m -31.74641,-2.931938 -0.700292,-1.75 -0.105264,2.555556 -0.105263,2.555554 0.805556,-0.805554 0.805555,-0.805556 z m 5.333333,0 -0.700292,-1.75 -0.105264,2.555556 -0.105262,2.555554 0.805556,-0.805554 0.805554,-0.805556 z m 5.333334,0 -0.700292,-1.75 -0.105264,2.555556 -0.105263,2.555554 0.805556,-0.805554 0.805555,-0.805556 z m 5.333333,0 -0.700292,-1.75 -0.105264,2.555556 -0.105262,2.555554 0.805556,-0.805554 0.805554,-0.805556 z m 5.333334,0 -0.700292,-1.75 -0.105264,2.555556 -0.105263,2.555554 0.805556,-0.805554 0.805555,-0.805556 z m 5.333333,0 -0.700292,-1.75 -0.105264,2.555556 -0.105262,2.555554 0.805556,-0.805554 0.805554,-0.805556 z M 66.000002,34.57285 v -4.760485 l 2.333333,-2.334754 2.333334,-2.334753 V 23.333334 21.52381 L 68.57143,19.428573 66.476192,17.333334 h -3.809524 -3.809524 l -2.038585,2.038585 -2.038586,2.038586 0.752666,1.961414 0.752666,1.961415 h 0.866957 0.866956 l -0.490214,6.163626 -0.490213,6.163624 1.813939,1.177346 1.813938,1.177346 2.666667,-0.340971 2.666667,-0.340971 z m -5.764432,0.690056 0.431098,-2.070428 1.315074,-0.262905 1.315073,-0.262905 0.449359,2.333333 0.449358,2.333333 h -2.19553 -2.195531 z m -0.235568,-6.517549 v -1.921311 l 1.333333,-0.824045 1.333333,-0.824046 v -1.344494 -1.344494 l -2.666666,0.846367 -2.666667,0.846367 v -2.08985 -2.08985 h 4.708513 4.708514 l 0.74036,1.929348 0.74036,1.929346 -2.448874,3.362087 -2.448873,3.362086 -1.666667,0.0419 -1.666666,0.0419 z m 26,28.587978 -0.824045,-1.333333 0.824045,-1.333334 0.824046,-1.333333 h 1.92131 1.921311 v 2.666667 2.666666 h -1.921311 -1.92131 z M 34.666668,52.666668 v -2.195531 l 2.333333,0.449359 2.333333,0.449359 -0.262905,1.315073 -0.262905,1.315074 -2.070428,0.431098 -2.070428,0.431099 z"
       id="path44"
       inkscape:connector-curvature="0" />
    <path
       style="fill:#73daf6;stroke-width:1.33333337"
       d="m 60.760038,82.817745 -0.730675,-1.182257 1.808415,-1.500851 1.808414,-1.500851 1.49867,1.805787 1.49867,1.805788 -0.877321,0.87732 -0.87732,0.877321 h -1.699089 -1.699088 z m -20.214378,-5.985624 -0.875095,-2.28046 0.853607,-0.853607 0.853606,-0.853608 1.577779,1.577779 1.577778,1.577777 -1.55629,1.55629 -1.556291,1.55629 z m 5.454341,0.501215 -0.967646,-1.565687 1.333333,-1.333334 1.333333,-1.333333 0.967647,1.565687 0.967647,1.565687 -1.333334,1.333333 -1.333333,1.333333 z m 5.333334,0 -0.967647,-1.565687 1.333333,-1.333334 1.333334,-1.333333 0.967646,1.565687 0.967647,1.565687 -1.333333,1.333333 -1.333334,1.333333 z m 5.637897,0.526785 -0.898733,-0.898732 0.709106,-1.14736 0.709109,-1.14736 h 2.699088 2.699089 l -0.554933,1.666667 -0.554934,1.666666 -1.954529,0.379427 -1.954529,0.379425 z m 7.953907,-0.04609 -0.85264,-0.85264 0.709107,-1.147361 0.709108,-1.147358 h 2.587977 2.587978 v 2 2 h -2.444445 -2.444445 l -0.85264,-0.85264 z m 7.754971,-0.458943 -0.837487,-1.355083 0.824046,-1.333333 0.824045,-1.333334 h 1.254644 1.254644 v 1.921311 1.921311 l -1.241203,0.767105 -1.241201,0.767106 z m 5.633983,0.514563 -0.797022,-0.79702 0.717451,-1.869647 0.717451,-1.869646 h -1.475986 -1.475985 v -2 -2 h 1.333333 1.333334 v 2 2 h 1.333333 1.333333 v 2.666667 2.666667 h -1.11111 -1.111112 z m 5.685909,-1.869646 v -2.666667 h -1.333333 -1.333334 v -2 -2 h 1.333334 1.333333 v 1.519676 1.519678 l 2.2037,1.611385 2.2037,1.611384 -0.949056,1.535606 -0.949056,1.535605 h -1.254644 -1.254644 z m -46.666668,-4.66667 v -2.222222 l 1.433334,0.477778 1.433333,0.477778 v 1.266666 1.266667 l -1.433333,0.477777 -1.433334,0.477779 z m 5.333334,0 v -2 h -1.007852 -1.007851 l -1.804467,-4.076572 -1.804465,-4.076571 0.723609,-0.723609 0.72361,-0.723609 1.51294,0.935048 1.512938,0.935048 -0.715718,1.865133 -0.715718,1.865132 h 1.860388 1.860388 l 0.609763,2.333334 0.609764,2.333333 0.15467,-2.333333 0.154668,-2.333334 h 1.902234 1.902235 l 0.609763,2.333334 0.609764,2.333333 0.154669,-2.333333 0.154668,-2.333334 h 1.902235 1.902234 l 0.609763,2.333334 0.609764,2.333333 0.154669,-2.333333 0.154668,-2.333334 h 2.000001 2 v 2 2 h 1.333333 1.333333 v 2 2 h -1.902234 -1.902235 l -0.609763,-2.333333 -0.609764,-2.333333 -0.154669,2.333333 -0.154668,2.333333 H 55.4311 53.528865 l -0.609762,-2.333333 -0.609764,-2.333333 -0.15467,2.333333 -0.154668,2.333333 h -1.902234 -1.902235 l -0.609763,-2.333333 -0.609764,-2.333333 -0.154669,2.333333 -0.154668,2.333333 h -2 -2 z m 21.333334,0.53916 v -1.460838 l -2.75098,-3.863395 -2.75098,-3.863395 0.843112,-1.364181 0.84311,-1.364183 1.3321,0.823284 1.3321,0.823283 -0.715718,1.865133 -0.715718,1.865132 h 1.958154 1.958153 v 2 2 h 1.333333 1.333334 v 2 2 h -2 -2 z m 6.258471,0.6082 -0.852641,-0.85264 0.709107,-1.14736 0.709108,-1.14736 h 1.254644 1.254644 v 2 2 h -1.11111 -1.111112 z m 16.408196,-1.14736 v -2.222222 l 1.433333,0.477778 1.433334,0.477778 v 1.266666 1.266667 l -1.433334,0.477777 -1.433333,0.477779 z m -20.568734,-5.370994 -2.20876,-3.370994 0.814211,-1.317423 0.814212,-1.317421 1.3321,0.823284 1.3321,0.823283 -0.715719,1.865133 -0.715717,1.865132 h 1.958153 1.958154 v 2 2 h -1.179987 -1.179987 z m 6.827204,2.518354 -0.85264,-0.85264 0.709107,-1.14736 0.709108,-1.14736 h 1.254644 1.254644 v 2 2 h -1.111111 -1.111112 z m 5.074863,-0.480693 -0.824045,-1.333333 h 0.952006 0.952006 l -2.209559,-2.441536 -2.20956,-2.441535 0.891799,-0.891799 0.891797,-0.891797 h 1.111112 1.111111 v 2.666666 2.666667 h 1.333333 1.333333 v 2 2 h -1.254644 -1.254644 z m 5.333334,0 -0.824046,-1.333333 h 0.952007 0.952005 l -2.209559,-2.441536 -2.20956,-2.441535 0.891799,-0.891799 0.891797,-0.891797 h 1.111113 1.11111 v 2.524014 2.524015 l 2.08451,0.799902 2.084509,0.799901 -0.829865,1.342751 -0.829866,1.34275 h -1.175954 -1.175955 z m -39.78975,-3.567527 -0.828362,-0.828361 0.741576,-2.954676 0.741577,-2.954675 -2.099188,-0.805535 -2.099188,-0.805533 v -1.37518 -1.37518 h 1.888889 1.888888 l 0.595239,1.666667 0.595238,1.666666 1.18254,-1.18254 1.18254,-1.18254 -1.666667,-0.595237 -1.666667,-0.595239 v -1.888888 -1.888889 l 1,0.02304 1,0.02304 2.976894,3.140887 2.976893,3.140886 -3.183469,2.390686 -3.18347,2.390685 0.630808,1.643859 0.630807,1.643858 -1.238257,0.765286 -1.238259,0.765285 -0.828362,-0.828362 z m 5.123082,-0.432473 -0.967647,-1.565687 1.333334,-1.333333 1.333333,-1.333334 0.967647,1.565687 0.967646,1.565687 -1.333333,1.333333 -1.333333,1.333334 z m 5.333333,0 -0.967646,-1.565687 1.333333,-1.333333 1.333333,-1.333334 0.967647,1.565687 0.967647,1.565687 -1.333334,1.333333 -1.333333,1.333334 z m 16.013442,0.02175 -0.837487,-1.355083 0.824046,-1.333333 0.824045,-1.333333 h 1.254644 1.254644 v 1.92131 1.921311 l -1.241202,0.767106 -1.241202,0.767105 z m 16.187443,-0.645716 -0.751086,-1.9573 1.391277,-0.859857 1.391279,-0.859856 1.367646,1.367646 1.367647,1.367647 -0.895845,1.449511 -0.895847,1.449509 h -1.111992 -1.111992 z m -29.945329,-6.1427 0.477778,-1.433333 h 1.266667 1.266666 l 0.477778,1.433333 0.477778,1.433333 h -2.222222 -2.222223 z m 5.333334,0 0.477777,-1.433333 h 1.266667 1.266667 l 0.477777,1.433333 0.477779,1.433333 h -2.222223 -2.222223 z m 5.383333,-0.15 0.527778,-1.583333 1.583333,-0.527778 1.583334,-0.527778 v 2.111112 2.11111 h -2.111111 -2.111112 z m 5.333334,0 0.527777,-1.583333 1.583334,-0.527778 1.583333,-0.527778 v 2.111112 2.11111 h -2.111111 -2.111112 z m 5.333333,0 0.527778,-1.583333 1.583333,-0.527778 1.583333,-0.527778 v 2.111112 2.11111 h -2.11111 -2.111112 z m 8.40461,0.320381 -0.867544,-1.403714 0.824045,-1.333334 0.824046,-1.333333 h 2.019076 2.019076 l -0.431099,2.222845 -0.431099,2.222844 -1.544478,0.514204 -1.544479,0.514204 z M 34.666668,52.666668 v -2 h 2 2 v 2 2 h -2 -2 z m 18.666667,0 v -2 h 2 2 v 2 2 h -2 -2 z m 5.333333,0 v -2 h 2 2 v 2 2 h -2 -2 z m 5.333334,0 v -2 h 2 2 v 2 2 h -2 -2 z m 6.222223,1.111111 -0.88889,-0.888888 v -1.111112 -1.111111 h 2 2 v 2 2 h -1.11111 -1.111112 z m 5.369581,0.03625 -0.85264,-0.85264 0.709107,-1.14736 0.709108,-1.147364 h 1.254644 1.254644 v 2 2 h -1.111111 -1.111112 l -0.85264,-0.85264 z m 5.333333,0 -0.85264,-0.85264 0.709107,-1.14736 0.709108,-1.147364 h 1.254644 1.254644 v 2 2 h -1.11111 -1.111113 l -0.85264,-0.85264 z m -47.296098,-24.147364 0.37096,-18.333334 25.333334,-0.391107 25.333334,-0.391106 4.333333,0.784857 4.333334,0.784857 V 30.060418 48.000001 H 63.295708 33.258082 Z m 32.509243,4.766478 0.138284,-4.900188 2.19505,-2.195049 2.195051,-2.195051 V 23.333334 21.52381 L 68.57143,19.428573 66.476192,17.333334 h -4.524517 -4.524516 l -1.392766,2.602404 -1.392764,2.602403 1.679187,1.56801 1.679186,1.568011 -0.480606,5.993211 -0.480605,5.993211 1.813939,1.177346 1.813938,1.177346 2.666667,-0.340971 2.666667,-0.340971 z m -6.138282,0.900188 v -2 h 2 2 v 2 2 h -2 -2 z m 0,-6.708513 v -2.041847 l 2,-0.767472 2,-0.767472 v -1.274492 -1.274492 l -2.333334,0.395296 -2.333333,0.395296 -0.666667,-1.311485 -0.666666,-1.311486 4.3425,-0.418494 4.3425,-0.418495 0.77304,2.014508 0.77304,2.014509 -2.448874,3.362087 -2.448873,3.362086 -1.666667,0.0419 -1.666666,0.0419 z"
       id="path42"
       inkscape:connector-curvature="0" />
    <path
       style="fill:#8bd0e1;stroke-width:1.33333337"
       d="m 60.760038,82.817745 -0.730675,-1.182257 1.808415,-1.500851 1.808414,-1.500851 1.49867,1.805787 1.49867,1.805788 -0.877321,0.87732 -0.87732,0.877321 h -1.699089 -1.699088 z m -20.214378,-5.985624 -0.875095,-2.28046 0.853607,-0.853607 0.853606,-0.853608 1.577779,1.577779 1.577778,1.577777 -1.55629,1.55629 -1.556291,1.55629 z m 5.454341,0.501215 -0.967646,-1.565687 1.333333,-1.333334 1.333333,-1.333333 0.967647,1.565687 0.967647,1.565687 -1.333334,1.333333 -1.333333,1.333333 z m 5.333334,0 -0.967647,-1.565687 1.333333,-1.333334 1.333334,-1.333333 0.967646,1.565687 0.967647,1.565687 -1.333333,1.333333 -1.333334,1.333333 z m 5.637897,0.526785 -0.898733,-0.898732 0.709106,-1.14736 0.709109,-1.14736 h 2.699088 2.699089 l -0.554933,1.666667 -0.554934,1.666666 -1.954529,0.379427 -1.954529,0.379425 z m 7.953907,-0.04609 -0.85264,-0.85264 0.709107,-1.147361 0.709108,-1.147358 h 2.587977 2.587978 v 2 2 h -2.444445 -2.444445 l -0.85264,-0.85264 z m 7.754971,-0.458943 -0.837487,-1.355083 0.824046,-1.333333 0.824045,-1.333334 h 1.254644 1.254644 v 1.921311 1.921311 l -1.241203,0.767105 -1.241201,0.767106 z m 5.633983,0.514563 -0.797022,-0.79702 0.717451,-1.869647 0.717451,-1.869646 h -1.475986 -1.475985 v -2 -2 h 1.333333 1.333334 v 2 2 h 1.333333 1.333333 v 2.666667 2.666667 h -1.11111 -1.111112 z m 5.685909,-1.869646 v -2.666667 h -1.333333 -1.333334 v -2 -2 h 1.333334 1.333333 v 1.519676 1.519678 l 2.2037,1.611385 2.2037,1.611384 -0.949056,1.535606 -0.949056,1.535605 h -1.254644 -1.254644 z m -46.666668,-4.66667 v -2.222222 l 1.433334,0.477778 1.433333,0.477778 v 1.266666 1.266667 l -1.433333,0.477777 -1.433334,0.477779 z m 5.333334,0 v -2 h -1.007852 -1.007851 l -1.804467,-4.076572 -1.804465,-4.076571 0.723609,-0.723609 0.72361,-0.723609 1.51294,0.935048 1.512938,0.935048 -0.715718,1.865133 -0.715718,1.865132 h 1.860388 1.860388 l 0.609763,2.333334 0.609764,2.333333 0.15467,-2.333333 0.154668,-2.333334 h 1.902234 1.902235 l 0.609763,2.333334 0.609764,2.333333 0.154669,-2.333333 0.154668,-2.333334 h 1.902235 1.902234 l 0.609763,2.333334 0.609764,2.333333 0.154669,-2.333333 0.154668,-2.333334 h 2.000001 2 v 2 2 h 1.333333 1.333333 v 2 2 h -1.902234 -1.902235 l -0.609763,-2.333333 -0.609764,-2.333333 -0.154669,2.333333 -0.154668,2.333333 H 55.4311 53.528865 l -0.609762,-2.333333 -0.609764,-2.333333 -0.15467,2.333333 -0.154668,2.333333 h -1.902234 -1.902235 l -0.609763,-2.333333 -0.609764,-2.333333 -0.154669,2.333333 -0.154668,2.333333 h -2 -2 z m 21.333334,0.53916 v -1.460838 l -2.75098,-3.863395 -2.75098,-3.863395 0.843112,-1.364181 0.84311,-1.364183 1.3321,0.823284 1.3321,0.823283 -0.715718,1.865133 -0.715718,1.865132 h 1.958154 1.958153 v 2 2 h 1.333333 1.333334 v 2 2 h -2 -2 z m 6.258471,0.6082 -0.852641,-0.85264 0.709107,-1.14736 0.709108,-1.14736 h 1.254644 1.254644 v 2 2 h -1.11111 -1.111112 z m 16.408196,-1.14736 v -2.222222 l 1.433333,0.477778 1.433334,0.477778 v 1.266666 1.266667 l -1.433334,0.477777 -1.433333,0.477779 z m -20.568734,-5.370994 -2.20876,-3.370994 0.814211,-1.317423 0.814212,-1.317421 1.3321,0.823284 1.3321,0.823283 -0.715719,1.865133 -0.715717,1.865132 h 1.958153 1.958154 v 2 2 h -1.179987 -1.179987 z m 6.827204,2.518354 -0.85264,-0.85264 0.709107,-1.14736 0.709108,-1.14736 h 1.254644 1.254644 v 2 2 h -1.111111 -1.111112 z m 5.074863,-0.480693 -0.824045,-1.333333 h 0.952006 0.952006 l -2.209559,-2.441536 -2.20956,-2.441535 0.891799,-0.891799 0.891797,-0.891797 h 1.111112 1.111111 v 2.666666 2.666667 h 1.333333 1.333333 v 2 2 h -1.254644 -1.254644 z m 5.333334,0 -0.824046,-1.333333 h 0.952007 0.952005 l -2.209559,-2.441536 -2.20956,-2.441535 0.891799,-0.891799 0.891797,-0.891797 h 1.111113 1.11111 v 2.524014 2.524015 l 2.08451,0.799902 2.084509,0.799901 -0.829865,1.342751 -0.829866,1.34275 h -1.175954 -1.175955 z m -39.78975,-3.567527 -0.828362,-0.828361 0.741576,-2.954676 0.741577,-2.954675 -2.099188,-0.805535 -2.099188,-0.805533 v -1.37518 -1.37518 h 1.888889 1.888888 l 0.595239,1.666667 0.595238,1.666666 1.18254,-1.18254 1.18254,-1.18254 -1.666667,-0.595237 -1.666667,-0.595239 v -1.888888 -1.888889 l 1,0.02304 1,0.02304 2.976894,3.140887 2.976893,3.140886 -3.183469,2.390686 -3.18347,2.390685 0.630808,1.643859 0.630807,1.643858 -1.238257,0.765286 -1.238259,0.765285 -0.828362,-0.828362 z m 5.123082,-0.432473 -0.967647,-1.565687 1.333334,-1.333333 1.333333,-1.333334 0.967647,1.565687 0.967646,1.565687 -1.333333,1.333333 -1.333333,1.333334 z m 5.333333,0 -0.967646,-1.565687 1.333333,-1.333333 1.333333,-1.333334 0.967647,1.565687 0.967647,1.565687 -1.333334,1.333333 -1.333333,1.333334 z m 16.013442,0.02175 -0.837487,-1.355083 0.824046,-1.333333 0.824045,-1.333333 h 1.254644 1.254644 v 1.92131 1.921311 l -1.241202,0.767106 -1.241202,0.767105 z m 16.187443,-0.645716 -0.751086,-1.9573 1.391277,-0.859857 1.391279,-0.859856 1.367646,1.367646 1.367647,1.367647 -0.895845,1.449511 -0.895847,1.449509 h -1.111992 -1.111992 z m -29.945329,-6.1427 0.477778,-1.433333 h 1.266667 1.266666 l 0.477778,1.433333 0.477778,1.433333 h -2.222222 -2.222223 z m 5.333334,0 0.477777,-1.433333 h 1.266667 1.266667 l 0.477777,1.433333 0.477779,1.433333 h -2.222223 -2.222223 z m 5.383333,-0.15 0.527778,-1.583333 1.583333,-0.527778 1.583334,-0.527778 v 2.111112 2.11111 h -2.111111 -2.111112 z m 5.333334,0 0.527777,-1.583333 1.583334,-0.527778 1.583333,-0.527778 v 2.111112 2.11111 h -2.111111 -2.111112 z m 5.333333,0 0.527778,-1.583333 1.583333,-0.527778 1.583333,-0.527778 v 2.111112 2.11111 h -2.11111 -2.111112 z m 8.40461,0.320381 -0.867544,-1.403714 0.824045,-1.333334 0.824046,-1.333333 h 2.019076 2.019076 l -0.431099,2.222845 -0.431099,2.222844 -1.544478,0.514204 -1.544479,0.514204 z M 34.666668,52.666668 v -2 h 2 2 v 2 2 h -2 -2 z m 18.666667,0 v -2 h 2 2 v 2 2 h -2 -2 z m 5.333333,0 v -2 h 2 2 v 2 2 h -2 -2 z m 5.333334,0 v -2 h 2 2 v 2 2 h -2 -2 z m 6.222223,1.111111 -0.88889,-0.888888 v -1.111112 -1.111111 h 2 2 v 2 2 h -1.11111 -1.111112 z m 5.369581,0.03625 -0.85264,-0.85264 0.709107,-1.14736 0.709108,-1.147364 h 1.254644 1.254644 v 2 2 h -1.111111 -1.111112 l -0.85264,-0.85264 z m 5.333333,0 -0.85264,-0.85264 0.709107,-1.14736 0.709108,-1.147364 h 1.254644 1.254644 v 2 2 h -1.11111 -1.111113 l -0.85264,-0.85264 z m -47.296098,-24.147364 0.37096,-18.333334 25.333334,-0.391107 25.333334,-0.391106 4.333333,0.784857 4.333334,0.784857 V 30.060418 48.000001 H 63.295708 33.258082 Z m 55.704295,-1.000001 v -14 H 62.666668 36.000001 v 14 14.000001 h 26.666667 26.666668 z m -29.333334,6.666667 v -2 h 2 2 v 2 2 h -2 -2 z m 0,-6.708513 v -2.041847 l 2,-0.767472 2,-0.767472 v -1.274492 -1.274492 l -2.333334,0.395296 -2.333333,0.395296 -0.666667,-1.311485 -0.666666,-1.311486 4.3425,-0.418494 4.3425,-0.418495 0.77304,2.014508 0.77304,2.014509 -2.448874,3.362087 -2.448873,3.362086 -1.666667,0.0419 -1.666666,0.0419 z"
       id="path40"
       inkscape:connector-curvature="0" />
    <path
       style="fill:#caafb0;stroke-width:1.33333337"
       d="m 60.760038,82.817745 -0.730675,-1.182257 1.808415,-1.500851 1.808414,-1.500851 1.49867,1.805787 1.49867,1.805788 -0.877321,0.87732 -0.87732,0.877321 h -1.699089 -1.699088 z m -20.214378,-5.985624 -0.875095,-2.28046 0.853607,-0.853607 0.853606,-0.853608 1.577779,1.577779 1.577778,1.577777 -1.55629,1.55629 -1.556291,1.55629 z m 5.454341,0.501215 -0.967646,-1.565687 1.333333,-1.333334 1.333333,-1.333333 0.967647,1.565687 0.967647,1.565687 -1.333334,1.333333 -1.333333,1.333333 z m 5.333334,0 -0.967647,-1.565687 1.333333,-1.333334 1.333334,-1.333333 0.967646,1.565687 0.967647,1.565687 -1.333333,1.333333 -1.333334,1.333333 z m 5.637897,0.526785 -0.898733,-0.898732 0.709106,-1.14736 0.709109,-1.14736 h 2.699088 2.699089 l -0.554933,1.666667 -0.554934,1.666666 -1.954529,0.379427 -1.954529,0.379425 z m 7.953907,-0.04609 -0.85264,-0.85264 0.709107,-1.147361 0.709108,-1.147358 h 2.587977 2.587978 v 2 2 h -2.444445 -2.444445 l -0.85264,-0.85264 z m 7.754971,-0.458943 -0.837487,-1.355083 0.824046,-1.333333 0.824045,-1.333334 h 1.254644 1.254644 v 1.921311 1.921311 l -1.241203,0.767105 -1.241201,0.767106 z m 5.633983,0.514563 -0.797022,-0.79702 0.717451,-1.869647 0.717451,-1.869646 h -1.475986 -1.475985 v -2 -2 h 1.333333 1.333334 v 2 2 h 1.333333 1.333333 v 2.666667 2.666667 h -1.11111 -1.111112 z m 5.685909,-1.869646 v -2.666667 h -1.333333 -1.333334 v -2 -2 h 1.333334 1.333333 v 1.519676 1.519678 l 2.2037,1.611385 2.2037,1.611384 -0.949056,1.535606 -0.949056,1.535605 h -1.254644 -1.254644 z m -46.666668,-4.66667 v -2.222222 l 1.433334,0.477778 1.433333,0.477778 v 1.266666 1.266667 l -1.433333,0.477777 -1.433334,0.477779 z m 5.333334,0 v -2 h -1.007852 -1.007851 l -1.804467,-4.076572 -1.804465,-4.076571 0.723609,-0.723609 0.72361,-0.723609 1.51294,0.935048 1.512938,0.935048 -0.715718,1.865133 -0.715718,1.865132 h 1.860388 1.860388 l 0.609763,2.333334 0.609764,2.333333 0.15467,-2.333333 0.154668,-2.333334 h 1.902234 1.902235 l 0.609763,2.333334 0.609764,2.333333 0.154669,-2.333333 0.154668,-2.333334 h 1.902235 1.902234 l 0.609763,2.333334 0.609764,2.333333 0.154669,-2.333333 0.154668,-2.333334 h 2.000001 2 v 2 2 h 1.333333 1.333333 v 2 2 h -1.902234 -1.902235 l -0.609763,-2.333333 -0.609764,-2.333333 -0.154669,2.333333 -0.154668,2.333333 H 55.4311 53.528865 l -0.609762,-2.333333 -0.609764,-2.333333 -0.15467,2.333333 -0.154668,2.333333 h -1.902234 -1.902235 l -0.609763,-2.333333 -0.609764,-2.333333 -0.154669,2.333333 -0.154668,2.333333 h -2 -2 z m 21.333334,0.53916 v -1.460838 l -2.75098,-3.863395 -2.75098,-3.863395 0.843112,-1.364181 0.84311,-1.364183 1.3321,0.823284 1.3321,0.823283 -0.715718,1.865133 -0.715718,1.865132 h 1.958154 1.958153 v 2 2 h 1.333333 1.333334 v 2 2 h -2 -2 z m 6.258471,0.6082 -0.852641,-0.85264 0.709107,-1.14736 0.709108,-1.14736 h 1.254644 1.254644 v 2 2 h -1.11111 -1.111112 z m 16.408196,-1.14736 v -2.222222 l 1.433333,0.477778 1.433334,0.477778 v 1.266666 1.266667 l -1.433334,0.477777 -1.433333,0.477779 z m -20.568734,-5.370994 -2.20876,-3.370994 0.814211,-1.317423 0.814212,-1.317421 1.3321,0.823284 1.3321,0.823283 -0.715719,1.865133 -0.715717,1.865132 h 1.958153 1.958154 v 2 2 h -1.179987 -1.179987 z m 6.827204,2.518354 -0.85264,-0.85264 0.709107,-1.14736 0.709108,-1.14736 h 1.254644 1.254644 v 2 2 h -1.111111 -1.111112 z m 5.074863,-0.480693 -0.824045,-1.333333 h 0.952006 0.952006 l -2.209559,-2.441536 -2.20956,-2.441535 0.891799,-0.891799 0.891797,-0.891797 h 1.111112 1.111111 v 2.666666 2.666667 h 1.333333 1.333333 v 2 2 h -1.254644 -1.254644 z m 5.333334,0 -0.824046,-1.333333 h 0.952007 0.952005 l -2.209559,-2.441536 -2.20956,-2.441535 0.891799,-0.891799 0.891797,-0.891797 h 1.111113 1.11111 v 2.524014 2.524015 l 2.08451,0.799902 2.084509,0.799901 -0.829865,1.342751 -0.829866,1.34275 h -1.175954 -1.175955 z m -39.78975,-3.567527 -0.828362,-0.828361 0.741576,-2.954676 0.741577,-2.954675 -2.099188,-0.805535 -2.099188,-0.805533 v -1.37518 -1.37518 h 1.888889 1.888888 l 0.595239,1.666667 0.595238,1.666666 1.18254,-1.18254 1.18254,-1.18254 -1.666667,-0.595237 -1.666667,-0.595239 v -1.888888 -1.888889 l 1,0.02304 1,0.02304 2.976894,3.140887 2.976893,3.140886 -3.183469,2.390686 -3.18347,2.390685 0.630808,1.643859 0.630807,1.643858 -1.238257,0.765286 -1.238259,0.765285 -0.828362,-0.828362 z m 5.123082,-0.432473 -0.967647,-1.565687 1.333334,-1.333333 1.333333,-1.333334 0.967647,1.565687 0.967646,1.565687 -1.333333,1.333333 -1.333333,1.333334 z m 5.333333,0 -0.967646,-1.565687 1.333333,-1.333333 1.333333,-1.333334 0.967647,1.565687 0.967647,1.565687 -1.333334,1.333333 -1.333333,1.333334 z m 16.013442,0.02175 -0.837487,-1.355083 0.824046,-1.333333 0.824045,-1.333333 h 1.254644 1.254644 v 1.92131 1.921311 l -1.241202,0.767106 -1.241202,0.767105 z m 16.187443,-0.645716 -0.751086,-1.9573 1.391277,-0.859857 1.391279,-0.859856 1.367646,1.367646 1.367647,1.367647 -0.895845,1.449511 -0.895847,1.449509 h -1.111992 -1.111992 z m -29.945329,-6.1427 0.477778,-1.433333 h 1.266667 1.266666 l 0.477778,1.433333 0.477778,1.433333 h -2.222222 -2.222223 z m 5.333334,0 0.477777,-1.433333 h 1.266667 1.266667 l 0.477777,1.433333 0.477779,1.433333 h -2.222223 -2.222223 z m 5.383333,-0.15 0.527778,-1.583333 1.583333,-0.527778 1.583334,-0.527778 v 2.111112 2.11111 h -2.111111 -2.111112 z m 5.333334,0 0.527777,-1.583333 1.583334,-0.527778 1.583333,-0.527778 v 2.111112 2.11111 h -2.111111 -2.111112 z m 5.333333,0 0.527778,-1.583333 1.583333,-0.527778 1.583333,-0.527778 v 2.111112 2.11111 h -2.11111 -2.111112 z m 8.40461,0.320381 -0.867544,-1.403714 0.824045,-1.333334 0.824046,-1.333333 h 2.019076 2.019076 l -0.431099,2.222845 -0.431099,2.222844 -1.544478,0.514204 -1.544479,0.514204 z M 34.666668,52.666668 v -2 h 2 2 v 2 2 h -2 -2 z m 18.666667,0 v -2 h 2 2 v 2 2 h -2 -2 z m 5.333333,0 v -2 h 2 2 v 2 2 h -2 -2 z m 5.333334,0 v -2 h 2 2 v 2 2 h -2 -2 z m 6.222223,1.111111 -0.88889,-0.888888 v -1.111112 -1.111111 h 2 2 v 2 2 h -1.11111 -1.111112 z m 5.369581,0.03625 -0.85264,-0.85264 0.709107,-1.14736 0.709108,-1.147364 h 1.254644 1.254644 v 2 2 h -1.111111 -1.111112 l -0.85264,-0.85264 z m 5.333333,0 -0.85264,-0.85264 0.709107,-1.14736 0.709108,-1.147364 h 1.254644 1.254644 v 2 2 h -1.11111 -1.111113 l -0.85264,-0.85264 z m -47.296098,-24.147364 0.37096,-18.333334 25.333334,-0.391107 25.333334,-0.391106 4.333333,0.784857 4.333334,0.784857 V 30.060418 48.000001 H 63.295708 33.258082 Z M 89.333336,29.333334 V 14.666667 H 62.666668 36.000001 v 14.666667 14.666667 h 26.666667 26.666668 z m -29.333334,6 v -2 h 2 2 v 2 2 h -2 -2 z m 0,-6.708513 v -2.041847 l 2,-0.767472 2,-0.767472 v -1.274492 -1.274492 l -2.333334,0.395296 -2.333333,0.395296 -0.666667,-1.311485 -0.666666,-1.311486 4.3425,-0.418494 4.3425,-0.418495 0.77304,2.014508 0.77304,2.014509 -2.448874,3.362087 -2.448873,3.362086 -1.666667,0.0419 -1.666666,0.0419 z"
       id="path38"
       inkscape:connector-curvature="0" />
    <path
       style="fill:#aeadab;stroke-width:1.33333337"
       d="m 60.760038,82.817745 -0.730675,-1.182257 1.808415,-1.500851 1.808414,-1.500851 1.49867,1.805787 1.49867,1.805788 -0.877321,0.87732 -0.87732,0.877321 h -1.699089 -1.699088 z m -20.09337,-5.484409 -0.967647,-1.565687 1.333333,-1.333334 1.333334,-1.333333 0.967646,1.565687 0.967647,1.565687 -1.333333,1.333333 -1.333334,1.333333 z m 5.333333,0 -0.967646,-1.565687 1.333333,-1.333334 1.333333,-1.333333 0.967647,1.565687 0.967647,1.565687 -1.333334,1.333333 -1.333333,1.333333 z m 5.333334,0 -0.967647,-1.565687 1.333333,-1.333334 1.333334,-1.333333 0.967646,1.565687 0.967647,1.565687 -1.333333,1.333333 -1.333334,1.333333 z m 5.327513,-0.0095 -0.829865,-1.342751 2.02066,-0.7754 2.02066,-0.7754 1.418932,0.876948 1.418932,0.87695 -0.767105,1.241201 -0.767106,1.241252 h -1.842621 -1.842621 l -0.829866,-1.342751 z m 8.310384,0.536203 -0.898733,-0.898732 0.709107,-1.147361 0.709108,-1.14731 h 2.699088 2.699089 l -0.554933,1.666667 -0.554933,1.666666 -1.95453,0.379427 -1.954529,0.379425 -0.898734,-0.898733 z m 7.708878,-0.504987 -0.837487,-1.355083 0.824046,-1.333333 0.824045,-1.333334 h 1.254644 1.254644 v 1.921311 1.921311 l -1.241203,0.767105 -1.241201,0.767106 z m 5.986559,-1.276393 v -2.745357 h -1.333334 -1.333333 v -2 -2 h 1.333333 1.333334 v 2 2 h 1.333333 1.333333 v -2 -2 h 1.333334 1.333333 v -2 -2 h 1.333334 1.333333 v -2.666667 -2.666666 h 1.254644 1.254644 l 0.932553,1.508902 0.932554,1.508903 -2.187198,1.224018 -2.187197,1.224017 v 1.791095 1.791094 l 2.333333,0.904546 2.333334,0.904545 -2.082628,1.57144 -2.08263,1.57144 -1.151958,2.666667 -1.15196,2.666667 -0.524814,-3 -0.524813,-3.000001 h -1.240599 -1.240599 v 1.921311 1.921311 l -1.333333,0.824045 -1.333333,0.824046 z m 8,-4.745357 v -2 h -1.333333 -1.333334 v 2 2 h 1.333334 1.333333 z m -49.333335,0 V 69.11108 l 1.433334,0.477778 1.433333,0.477778 v 1.266666 1.266667 l -1.433333,0.477777 -1.433334,0.477779 z m 5.333334,0 v -2 h 2 2 v 2 2 h -2 -2 z m 4.821317,-0.333333 -0.823032,-2.333333 -0.776921,-1.666667 -0.77692,-1.666667 h 1.955603 1.955602 l 0.823034,2.333334 0.823032,2.333333 0.776921,1.666667 0.77692,1.666666 h -1.955603 -1.955602 z m 5.84535,0.333333 v -2 l -1,-0.0104 -1,-0.0104 -1.629606,-3.510218 -1.629606,-3.510219 0.721737,-1.167795 0.721737,-1.167795 1.3321,0.823284 1.3321,0.823283 -0.715718,1.865133 -0.715718,1.865127 h 1.958154 1.958153 v 2 2 h 1.333333 1.333334 v 2 2 h -2 -2 z m 5.333333,0.53916 v -1.460838 l -2.75098,-3.863395 -2.75098,-3.863395 0.843112,-1.364181 0.843111,-1.364183 1.3321,0.823284 1.3321,0.823283 -0.715719,1.865133 -0.715717,1.865132 h 1.958153 1.958154 v 2 2 h 1.333333 1.333333 v 2 2 h -2 -2 z m 5.63889,-0.122493 0.527777,-1.583333 1.583333,-0.527778 1.583334,-0.527778 v 2.111112 2.11111 h -2.111111 -2.111112 z m 5.952915,0.730693 -0.852641,-0.85264 0.709107,-1.14736 0.709108,-1.14736 h 1.254644 1.254644 v 2 2 h -1.11111 -1.111112 z m -31.411975,-7.223932 -1.804465,-4.076571 0.723609,-0.723609 0.72361,-0.723609 1.51294,0.935048 1.512938,0.935048 -0.715718,1.865133 -0.715718,1.865132 1.62482,-0.0027 1.62482,-0.0027 0.270362,-3.878863 0.270361,-3.878863 -1.937028,-0.743274 -1.937028,-0.743307 v -1.37518 -1.37518 h 1.888889 1.888888 l 0.595239,1.666667 0.595238,1.666666 1.143926,-1.072497 1.143926,-1.072497 -1.798874,-1.111766 -1.798873,-1.111764 0.978208,-1.582773 0.978208,-1.582775 2.525947,2.711285 2.525945,2.711285 v 1.094738 1.09474 l -2.595252,1.870552 -2.595252,1.870552 0.650665,1.052799 0.650666,1.0528 -2.20876,3.370994 -2.208761,3.370994 h -0.854505 -0.854504 z m 21.918104,0.705578 -2.20876,-3.370994 0.81421,-1.317423 0.814212,-1.317421 1.3321,0.823284 1.3321,0.823283 -0.715718,1.865133 -0.715718,1.865132 h 1.958154 1.958153 v 2 2 h -1.179987 -1.179986 z m 5.333333,0 -2.20876,-3.370994 0.814211,-1.317423 0.814212,-1.317421 1.3321,0.823284 1.3321,0.823283 -0.715719,1.865133 -0.715717,1.865132 h 1.958153 1.958154 v 2 2 h -1.179987 -1.179987 z m 6.827204,2.518354 -0.85264,-0.85264 0.709107,-1.14736 0.709108,-1.14736 h 1.254644 1.254644 v 2 2 h -1.111111 -1.111112 z m 5.333334,0 -0.85264,-0.85264 0.709106,-1.14736 0.709108,-1.14736 h 1.254644 1.254644 v 2 2 h -1.11111 -1.111112 z m -8.24503,-4.458944 -0.837487,-1.355083 0.824046,-1.333333 0.824045,-1.333333 h 1.254644 1.254644 v 1.92131 1.921311 l -1.241202,0.767106 -1.241202,0.767105 z m 5.578363,-0.874389 -0.85264,-0.85264 0.709107,-1.14736 0.709108,-1.14736 h 1.254644 1.254644 v 2 2 h -1.111111 -1.111112 z m 5.333333,0 -0.85264,-0.85264 0.709107,-1.14736 0.709108,-1.14736 h 1.254644 1.254644 v 2 2 h -1.11111 -1.111113 z m -24.669582,-5.914027 0.477778,-1.433333 h 1.266667 1.266666 l 0.477778,1.433333 0.477778,1.433333 h -2.222222 -2.222223 z m 5.333334,0 0.477777,-1.433333 h 1.266667 1.266667 l 0.477777,1.433333 0.477779,1.433333 h -2.222223 -2.222223 z m 5.333333,0 0.477778,-1.433333 h 1.266666 1.266667 l 0.477778,1.433333 0.477778,1.433333 h -2.222223 -2.222222 z m 5.383334,-0.15 0.527777,-1.583333 1.583334,-0.527778 1.583333,-0.527778 v 2.111112 2.11111 h -2.111111 -2.111112 z m 5.333333,0 0.527778,-1.583333 1.583333,-0.527778 1.583333,-0.527778 v 2.111112 2.11111 h -2.11111 -2.111112 z m 8.702979,0.814091 -0.824798,-0.824799 0.71745,-1.869647 0.717451,-1.869645 h 1.955113 1.955114 l -0.431099,2.222845 -0.431099,2.222844 -1.416666,0.4716 -1.416667,0.4716 z M 34.666668,52.666668 v -2 h 2 2 v 2 2 h -2 -2 z m 18.666667,0 v -2 h 2 2 v 2 2 h -2 -2 z m 5.333333,0 v -2 h 2 2 v 2 2 h -2 -2 z m 5.333334,0 v -2 h 2 2 v 2 2 h -2 -2 z m 6.222223,1.111111 -0.88889,-0.888888 v -1.111112 -1.111111 h 2 2 v 2 2 h -1.11111 -1.111112 z m 5.369581,0.03625 -0.85264,-0.85264 0.709107,-1.14736 0.709108,-1.147364 h 1.254644 1.254644 v 2 2 h -1.111111 -1.111112 l -0.85264,-0.85264 z m 5.333333,0 -0.85264,-0.85264 0.709107,-1.14736 0.709108,-1.147364 h 1.254644 1.254644 v 2 2 h -1.11111 -1.111113 l -0.85264,-0.85264 z M 33.333334,30.000001 V 12 h 30.000001 30.000001 v 18.000001 18 H 63.333335 33.333334 Z M 89.333336,29.333334 V 14.666667 H 62.666668 36.000001 v 14.666667 14.666667 h 26.666667 26.666668 z m -29.333334,6 v -2 h 2 2 v 2 2 h -2 -2 z m 0,-5.83674 v -1.170075 l 2,-1.659852 2,-1.659852 v -1.170074 -1.170074 h -3.412023 -3.412023 l 0.824046,-1.333333 0.824045,-1.333333 h 3.091384 3.091385 l 1.542616,1.858738 1.542616,1.858739 -2.046024,2.046023 -2.046022,2.046024 v 1.428571 1.428572 h -2 -2 z"
       id="path36"
       inkscape:connector-curvature="0" />
    <path
       style="fill:#65bacc;stroke-width:1.33333337"
       d="m 61.568903,81.929574 0.431099,-2.070428 1.315073,-0.262905 1.315073,-0.262905 0.449359,2.333333 0.449359,2.333333 h -2.195531 -2.195531 z m 3.091945,-4.605656 -0.829865,-1.34275 2.02066,-0.775401 2.02066,-0.7754 1.418932,0.876948 1.418932,0.87695 -0.767105,1.241201 -0.767106,1.241203 h -1.842621 -1.842621 z m -24.405291,-1.423916 0.477777,-1.433333 h 1.266667 1.266667 l 0.477777,1.433333 0.477779,1.433334 h -2.222223 -2.222223 z m 5.333334,0 0.477777,-1.433333 h 1.266667 1.266666 l 0.477778,1.433333 0.477778,1.433334 h -2.222222 -2.222223 z m 5.333333,0 0.477777,-1.433333 h 1.266667 1.266667 l 0.477777,1.433333 0.477779,1.433334 h -2.222223 -2.222223 z m 5.744444,0.1 0.824046,-1.333333 h 1.842621 1.842621 l 0.824046,1.333333 0.824045,1.333334 h -3.490712 -3.490712 z m 15.333334,0 v -1.333333 h 2 2 v 1.333333 1.333334 h -2 -2 z m 6.666667,0 v -1.333333 h 1.333333 1.333333 v 1.333333 1.333334 h -1.333333 -1.333333 z m 5.333333,0 v -1.333333 h 1.333334 1.333333 v 1.333333 1.333334 H 85.333336 84.000002 Z M 37.333334,71.333335 v -2.222222 l 1.433334,0.477778 1.433333,0.477778 v 1.266666 1.266667 l -1.433333,0.477777 -1.433334,0.477779 z m 5.533334,0.733334 0.533333,-1.6 0.966667,0.1 0.966667,0.1 0.1,0.966666 0.1,0.966667 -1.600001,0.533333 -1.6,0.533334 z m 5.333333,0 0.533334,-1.6 0.966666,0.1 0.966667,0.1 0.1,0.966666 0.1,0.966667 -1.6,0.533333 -1.6,0.533334 z m 5.38889,-0.166667 0.477777,-1.433333 h 1.266667 1.266666 l 0.477778,1.433333 0.477779,1.433333 h -2.222223 -2.222223 z m 5.801384,0.192131 -0.767105,-1.241202 1.169109,-0.722549 1.169109,-0.722549 0.85264,0.85264 0.85264,0.85264 v 1.111112 1.11111 H 61.412024 60.15738 Z m 4.915283,-0.342131 0.527777,-1.583333 1.583333,-0.527778 1.583334,-0.527778 v 2.111112 2.11111 h -2.111111 -2.111112 z m 5.688624,0.240583 -0.829866,-1.342751 2.08451,-0.799901 2.084509,-0.799902 v -1.857348 -1.857348 h 1.333334 1.333333 v 2 2 h 1.333333 1.333334 v -2 -2 h 1.333333 1.333333 v 2 2 h 1.333334 1.333333 v -2 -2 h 1.333334 1.333333 v 1.857348 1.857348 l 2.084509,0.799902 2.08451,0.799901 -0.829866,1.342751 -0.829865,1.34275 h -1.254644 -1.254644 v -2 -2 h -1.333333 -1.333334 v 2 2 h -1.333333 -1.333334 v -2 -2 h -1.333333 -1.333333 v 2 2 h -1.333334 -1.333333 v -2 -2 h -1.333333 -1.333334 v 2 2 h -1.254644 -1.254644 z m -29.368897,-4.057542 -0.892312,-1.44379 0.822403,-0.822403 0.822402,-0.822404 1.427288,1.427288 1.427288,1.427288 -1.357378,0.838905 -1.357379,0.838907 z m 5.56069,0.475155 -0.85264,-0.85264 v -1.111112 -1.111111 h 2 2 v 1.254644 1.254644 l -1.14736,0.709108 -1.14736,0.709107 z m 5.333333,0 -0.85264,-0.85264 v -1.111112 -1.111111 h 2 2 v 1.254644 1.254644 l -1.14736,0.709108 -1.14736,0.709107 z m 5.276101,-0.199888 -0.838906,-1.357379 1.443791,-0.892312 1.44379,-0.892312 0.822403,0.822403 0.822404,0.822403 -1.427288,1.427288 -1.427288,1.427288 z m 5.333334,0 -0.838907,-1.357379 1.443791,-0.892312 1.443791,-0.892312 0.822402,0.822403 0.822404,0.822403 -1.427288,1.427288 -1.427288,1.427288 z m 5.333333,0 -0.838906,-1.357379 1.44379,-0.892312 1.443791,-0.892312 0.822403,0.822403 0.822404,0.822403 -1.427288,1.427288 -1.427288,1.427288 z M 37.333334,62.666668 v -1.333333 h 2 2 v 1.333333 1.333334 h -2 -2 z m 5.333334,0.753467 v -0.579868 l 1.330836,-3.500365 1.330837,-3.500366 1.452007,0.89739 1.452007,0.897389 -1.345318,1.345317 -1.345316,1.345316 0.705126,1.837527 0.705125,1.837527 H 44.80932 42.666668 Z m 5.588889,-0.853467 0.477778,-1.433333 h 1.266666 1.266667 l 0.477777,1.433333 0.477779,1.433334 h -2.222223 -2.222222 z m 5.333334,0 0.477777,-1.433333 h 1.266667 1.266666 l 0.477778,1.433333 0.477779,1.433334 h -2.222223 -2.222223 z m 5.333333,0 0.477778,-1.433333 h 1.266666 1.266667 l 0.477777,1.433333 0.477779,1.433334 h -2.222223 -2.222222 z m 5.333334,0 0.477777,-1.433333 h 1.266667 1.266666 l 0.477778,1.433333 0.477778,1.433334 h -2.222222 -2.222223 z m 5.801384,0.192131 -0.767106,-1.241201 1.16911,-0.72255 1.169109,-0.722549 0.85264,0.85264 0.85264,0.85264 v 1.111112 1.111111 h -1.254644 -1.254644 z m 5.94306,-0.09213 v -1.333333 h 1.333333 1.333334 v 1.333333 1.333334 h -1.333334 -1.333333 z m 5.333333,-0.745356 v -2.078689 l 1.333334,0.824045 1.333333,0.824046 v 1.254644 1.254644 h -1.333333 -1.333334 z m 5.333334,0.745356 v -1.333333 h 1.333333 1.333334 v 1.333333 1.333334 h -1.333334 -1.333333 z m -30.411112,-5.433333 0.477778,-1.433333 h 1.266667 1.266666 l 0.477778,1.433333 0.477778,1.433333 h -2.222222 -2.222223 z m 5.333334,0 0.477777,-1.433333 h 1.266667 1.266667 l 0.477777,1.433333 0.477779,1.433333 h -2.222223 -2.222223 z m 5.333333,0 0.477778,-1.433333 h 1.266666 1.266667 l 0.477778,1.433333 0.477778,1.433333 h -2.222223 -2.222222 z m 5.333334,0 0.477777,-1.433333 h 1.266667 1.266667 l 0.477777,1.433333 0.477779,1.433333 h -2.222223 -2.222223 z m 6.411111,-0.424015 v -1.857348 l -2.08451,-0.799901 -2.084509,-0.799901 0.829865,-1.342751 0.829866,-1.342751 h 1.099136 1.099134 l 0.823034,2.333334 0.823032,2.333333 0.776921,1.666667 0.77692,1.666666 h -1.444445 -1.444444 z m 8.545659,0.0228 -0.875095,-2.28046 0.853607,-0.853606 0.853606,-0.853608 1.577779,1.577778 1.577777,1.577778 -1.556289,1.556289 -1.556291,1.556291 z m -46.285763,-0.35 -0.851215,-0.851214 2.928298,-3.042494 2.928299,-3.042493 1.034028,0.639064 1.034026,0.639064 v 1.254644 1.254644 h -2 -2 v 2 2 H 42.88889 41.777778 Z m 6.66524,-0.0015 -0.85264,-0.85264 0.709107,-1.14736 0.709108,-1.147319 h 1.254644 1.254644 v 2 2 h -1.111111 -1.111112 l -0.85264,-0.85264 z m -12.299853,-3.214319 -0.892312,-1.443791 0.822402,-0.822403 0.822403,-0.822404 1.427288,1.427288 1.427288,1.427289 -1.357379,0.838905 -1.357378,0.838907 z m 18.836791,0.275267 -0.838907,-1.357379 1.443791,-0.892312 1.44379,-0.892312 0.822403,0.822402 0.822404,0.822403 -1.427288,1.427288 -1.427288,1.427288 z m 5.463063,0.272385 -0.85264,-0.85264 0.709106,-1.14736 0.709108,-1.147319 h 1.254644 1.254644 v 2 2 h -1.11111 -1.111112 l -0.85264,-0.85264 z m 5.333333,0 -0.85264,-0.85264 0.709107,-1.14736 0.709108,-1.147319 h 1.254644 1.254644 v 2 2 h -1.111111 -1.111112 l -0.85264,-0.85264 z m 5.333334,0 -0.852641,-0.85264 0.709107,-1.14736 0.709108,-1.147319 h 1.254644 1.254644 v 2 2 h -1.11111 -1.111112 l -0.85264,-0.85264 z m 10.666666,0 -0.85264,-0.85264 0.709107,-1.14736 0.709108,-1.147319 h 1.254644 1.254644 v 2 2 h -1.11111 -1.111113 l -0.85264,-0.85264 z M 33.83736,38.333334 34.417345,28.666667 34.542006,20.333334 34.666668,12 h 29.333334 29.333334 v 16.000001 16 h -2 -2 V 29.333334 14.666667 H 62.747388 36.161442 l -0.414054,15.335954 -0.414054,15.335954 29.000001,-0.0026 29.000001,-0.0026 v 1.333333 1.333333 H 63.295355 33.257376 Z m 26.162642,-3 v -2 h 2 2 v 2 2 h -2 -2 z m 0,-5.83674 v -1.170075 l 2,-1.659852 2,-1.659852 v -1.170074 -1.170074 h -3.412023 -3.412023 l 0.824046,-1.333333 0.824045,-1.333333 h 3.091384 3.091385 l 1.542616,1.858738 1.542616,1.858739 -2.046024,2.046023 -2.046022,2.046024 v 1.428571 1.428572 h -2 -2 z"
       id="path34"
       inkscape:connector-curvature="0" />
    <path
       style="fill:#f03e96;stroke-width:1.33333337"
       d="m 61.568903,81.929574 0.431099,-2.070428 1.315073,-0.262905 1.315073,-0.262905 0.449359,2.333333 0.449359,2.333333 h -2.195531 -2.195531 z m 3.091945,-4.605656 -0.829865,-1.34275 2.02066,-0.775401 2.02066,-0.7754 1.418932,0.876948 1.418932,0.87695 -0.767105,1.241201 -0.767106,1.241203 h -1.842621 -1.842621 z m -24.405291,-1.423916 0.477777,-1.433333 h 1.266667 1.266667 l 0.477777,1.433333 0.477779,1.433334 h -2.222223 -2.222223 z m 5.333334,0 0.477777,-1.433333 h 1.266667 1.266666 l 0.477778,1.433333 0.477778,1.433334 h -2.222222 -2.222223 z m 5.333333,0 0.477777,-1.433333 h 1.266667 1.266667 l 0.477777,1.433333 0.477779,1.433334 h -2.222223 -2.222223 z m 5.744444,0.1 0.824046,-1.333333 h 1.842621 1.842621 l 0.824046,1.333333 0.824045,1.333334 h -3.490712 -3.490712 z m 15.333334,0 v -1.333333 h 2 2 v 1.333333 1.333334 h -2 -2 z m 6.666667,0 v -1.333333 h 1.333333 1.333333 v 1.333333 1.333334 h -1.333333 -1.333333 z m 5.333333,0 v -1.333333 h 1.333334 1.333333 v 1.333333 1.333334 H 85.333336 84.000002 Z M 37.333334,71.333335 v -2.222222 l 1.433334,0.477778 1.433333,0.477778 v 1.266666 1.266667 l -1.433333,0.477777 -1.433334,0.477779 z m 5.533334,0.733334 0.533333,-1.6 0.966667,0.1 0.966667,0.1 0.1,0.966666 0.1,0.966667 -1.600001,0.533333 -1.6,0.533334 z m 5.333333,0 0.533334,-1.6 0.966666,0.1 0.966667,0.1 0.1,0.966666 0.1,0.966667 -1.6,0.533333 -1.6,0.533334 z m 5.38889,-0.166667 0.477777,-1.433333 h 1.266667 1.266666 l 0.477778,1.433333 0.477779,1.433333 h -2.222223 -2.222223 z m 5.801384,0.192131 -0.767105,-1.241202 1.169109,-0.722549 1.169109,-0.722549 0.85264,0.85264 0.85264,0.85264 v 1.111112 1.11111 H 61.412024 60.15738 Z m 4.915283,-0.342131 0.527777,-1.583333 1.583333,-0.527778 1.583334,-0.527778 v 2.111112 2.11111 h -2.111111 -2.111112 z m 5.688624,0.240583 -0.829866,-1.342751 2.08451,-0.799901 2.084509,-0.799902 v -1.857348 -1.857348 h 1.333334 1.333333 v 2 2 h 1.333333 1.333334 v -2 -2 h 1.333333 1.333333 v 2 2 h 1.333334 1.333333 v -2 -2 h 1.333334 1.333333 v 1.857348 1.857348 l 2.084509,0.799902 2.08451,0.799901 -0.829866,1.342751 -0.829865,1.34275 h -1.254644 -1.254644 v -2 -2 h -1.333333 -1.333334 v 2 2 h -1.333333 -1.333334 v -2 -2 h -1.333333 -1.333333 v 2 2 h -1.333334 -1.333333 v -2 -2 h -1.333333 -1.333334 v 2 2 h -1.254644 -1.254644 z m -29.368897,-4.057542 -0.892312,-1.44379 0.822403,-0.822403 0.822402,-0.822404 1.427288,1.427288 1.427288,1.427288 -1.357378,0.838905 -1.357379,0.838907 z m 5.56069,0.475155 -0.85264,-0.85264 v -1.111112 -1.111111 h 2 2 v 1.254644 1.254644 l -1.14736,0.709108 -1.14736,0.709107 z m 5.333333,0 -0.85264,-0.85264 v -1.111112 -1.111111 h 2 2 v 1.254644 1.254644 l -1.14736,0.709108 -1.14736,0.709107 z m 5.276101,-0.199888 -0.838906,-1.357379 1.443791,-0.892312 1.44379,-0.892312 0.822403,0.822403 0.822404,0.822403 -1.427288,1.427288 -1.427288,1.427288 z m 5.333334,0 -0.838907,-1.357379 1.443791,-0.892312 1.443791,-0.892312 0.822402,0.822403 0.822404,0.822403 -1.427288,1.427288 -1.427288,1.427288 z m 5.333333,0 -0.838906,-1.357379 1.44379,-0.892312 1.443791,-0.892312 0.822403,0.822403 0.822404,0.822403 -1.427288,1.427288 -1.427288,1.427288 z M 37.333334,62.666668 v -1.333333 h 2 2 v 1.333333 1.333334 h -2 -2 z m 5.333334,0.753467 v -0.579868 l 1.330836,-3.500365 1.330837,-3.500366 1.452007,0.89739 1.452007,0.897389 -1.345318,1.345317 -1.345316,1.345316 0.705126,1.837527 0.705125,1.837527 H 44.80932 42.666668 Z m 5.588889,-0.853467 0.477778,-1.433333 h 1.266666 1.266667 l 0.477777,1.433333 0.477779,1.433334 h -2.222223 -2.222222 z m 5.333334,0 0.477777,-1.433333 h 1.266667 1.266666 l 0.477778,1.433333 0.477779,1.433334 h -2.222223 -2.222223 z m 5.333333,0 0.477778,-1.433333 h 1.266666 1.266667 l 0.477777,1.433333 0.477779,1.433334 h -2.222223 -2.222222 z m 5.333334,0 0.477777,-1.433333 h 1.266667 1.266666 l 0.477778,1.433333 0.477778,1.433334 h -2.222222 -2.222223 z m 5.801384,0.192131 -0.767106,-1.241201 1.16911,-0.72255 1.169109,-0.722549 0.85264,0.85264 0.85264,0.85264 v 1.111112 1.111111 h -1.254644 -1.254644 z m 5.94306,-0.09213 v -1.333333 h 1.333333 1.333334 v 1.333333 1.333334 h -1.333334 -1.333333 z m 5.333333,-0.745356 v -2.078689 l 1.333334,0.824045 1.333333,0.824046 v 1.254644 1.254644 h -1.333333 -1.333334 z m 5.333334,0.745356 v -1.333333 h 1.333333 1.333334 v 1.333333 1.333334 h -1.333334 -1.333333 z m -30.411112,-5.433333 0.477778,-1.433333 h 1.266667 1.266666 l 0.477778,1.433333 0.477778,1.433333 h -2.222222 -2.222223 z m 5.333334,0 0.477777,-1.433333 h 1.266667 1.266667 l 0.477777,1.433333 0.477779,1.433333 h -2.222223 -2.222223 z m 5.333333,0 0.477778,-1.433333 h 1.266666 1.266667 l 0.477778,1.433333 0.477778,1.433333 h -2.222223 -2.222222 z m 5.333334,0 0.477777,-1.433333 h 1.266667 1.266667 l 0.477777,1.433333 0.477779,1.433333 h -2.222223 -2.222223 z m 6.411111,-0.424015 v -1.857348 l -2.08451,-0.799901 -2.084509,-0.799901 0.829865,-1.342751 0.829866,-1.342751 h 1.099136 1.099134 l 0.823034,2.333334 0.823032,2.333333 0.776921,1.666667 0.77692,1.666666 h -1.444445 -1.444444 z m 8.545659,0.0228 -0.875095,-2.28046 0.853607,-0.853606 0.853606,-0.853608 1.577779,1.577778 1.577777,1.577778 -1.556289,1.556289 -1.556291,1.556291 z m -46.285763,-0.35 -0.851215,-0.851214 2.928298,-3.042494 2.928299,-3.042493 1.034028,0.639064 1.034026,0.639064 v 1.254644 1.254644 h -2 -2 v 2 2 H 42.88889 41.777778 Z m 6.66524,-0.0015 -0.85264,-0.85264 0.709107,-1.14736 0.709108,-1.147319 h 1.254644 1.254644 v 2 2 h -1.111111 -1.111112 l -0.85264,-0.85264 z m -12.299853,-3.214319 -0.892312,-1.443791 0.822402,-0.822403 0.822403,-0.822404 1.427288,1.427288 1.427288,1.427289 -1.357379,0.838905 -1.357378,0.838907 z m 18.836791,0.275267 -0.838907,-1.357379 1.443791,-0.892312 1.44379,-0.892312 0.822403,0.822402 0.822404,0.822403 -1.427288,1.427288 -1.427288,1.427288 z m 5.463063,0.272385 -0.85264,-0.85264 0.709106,-1.14736 0.709108,-1.147319 h 1.254644 1.254644 v 2 2 h -1.11111 -1.111112 l -0.85264,-0.85264 z m 5.333333,0 -0.85264,-0.85264 0.709107,-1.14736 0.709108,-1.147319 h 1.254644 1.254644 v 2 2 h -1.111111 -1.111112 l -0.85264,-0.85264 z m 5.333334,0 -0.852641,-0.85264 0.709107,-1.14736 0.709108,-1.147319 h 1.254644 1.254644 v 2 2 h -1.11111 -1.111112 l -0.85264,-0.85264 z m 10.666666,0 -0.85264,-0.85264 0.709107,-1.14736 0.709108,-1.147319 h 1.254644 1.254644 v 2 2 h -1.11111 -1.111113 l -0.85264,-0.85264 z M 33.83736,38.333334 34.417345,28.666667 34.542006,20.333334 34.666668,12 h 29.333334 29.333334 v 16.000001 16 H 92.04367 90.754005 l -0.377001,-15 L 90.000002,14 63.07883,13.639311 l -26.921173,-0.36069 -0.412161,16.02988 -0.412162,16.029879 29.000001,-0.0025 29.000001,-0.0025 v 1.333333 1.333333 H 63.295355 33.257376 Z m 26.162642,-3 v -2 h 2 2 v 2 2 h -2 -2 z m 0,-5.83674 v -1.170075 l 2,-1.659852 2,-1.659852 v -1.170074 -1.170074 h -3.412023 -3.412023 l 0.824046,-1.333333 0.824045,-1.333333 h 3.091384 3.091385 l 1.542616,1.858738 1.542616,1.858739 -2.046024,2.046023 -2.046022,2.046024 v 1.428571 1.428572 h -2 -2 z"
       id="path32"
       inkscape:connector-curvature="0" />
    <path
       style="fill:#93918e;stroke-width:1.33333337"
       d="m 61.568903,81.929574 0.431099,-2.070428 1.315073,-0.262905 1.315073,-0.262905 0.449359,2.333333 0.449359,2.333333 h -2.195531 -2.195531 z m 3.091945,-4.605656 -0.829865,-1.34275 2.02066,-0.775401 2.02066,-0.7754 1.418932,0.876948 1.418932,0.87695 -0.767105,1.241201 -0.767106,1.241203 h -1.842621 -1.842621 z m -24.405291,-1.423916 0.477777,-1.433333 h 1.266667 1.266667 l 0.477777,1.433333 0.477779,1.433334 h -2.222223 -2.222223 z m 5.333334,0 0.477777,-1.433333 h 1.266667 1.266666 l 0.477778,1.433333 0.477778,1.433334 h -2.222222 -2.222223 z m 5.333333,0 0.477777,-1.433333 h 1.266667 1.266667 l 0.477777,1.433333 0.477779,1.433334 h -2.222223 -2.222223 z m 5.744444,0.1 0.824046,-1.333333 h 1.842621 1.842621 l 0.824046,1.333333 0.824045,1.333334 h -3.490712 -3.490712 z m 15.333334,0 v -1.333333 h 2 2 v 1.333333 1.333334 h -2 -2 z m 6.666667,0 v -1.333333 h 1.333333 1.333333 v 1.333333 1.333334 h -1.333333 -1.333333 z m 5.333333,0 v -1.333333 h 1.333334 1.333333 v 1.333333 1.333334 H 85.333336 84.000002 Z M 37.333334,71.333335 v -2.222222 l 1.433334,0.477778 1.433333,0.477778 v 1.266666 1.266667 l -1.433333,0.477777 -1.433334,0.477779 z m 5.533334,0.733334 0.533333,-1.6 0.966667,0.1 0.966667,0.1 0.1,0.966666 0.1,0.966667 -1.600001,0.533333 -1.6,0.533334 z m 5.333333,0 0.533334,-1.6 0.966666,0.1 0.966667,0.1 0.1,0.966666 0.1,0.966667 -1.6,0.533333 -1.6,0.533334 z m 5.38889,-0.166667 0.477777,-1.433333 h 1.266667 1.266666 l 0.477778,1.433333 0.477779,1.433333 h -2.222223 -2.222223 z m 5.801384,0.192131 -0.767105,-1.241202 1.169109,-0.722549 1.169109,-0.722549 0.85264,0.85264 0.85264,0.85264 v 1.111112 1.11111 H 61.412024 60.15738 Z m 4.915283,-0.342131 0.527777,-1.583333 1.583333,-0.527778 1.583334,-0.527778 v 2.111112 2.11111 h -2.111111 -2.111112 z m 5.688624,0.240583 -0.829866,-1.342751 2.08451,-0.799901 2.084509,-0.799902 v -1.857348 -1.857348 h 1.333334 1.333333 v 2 2 h 1.333333 1.333334 v -2 -2 h 1.333333 1.333333 v 2 2 h 1.333334 1.333333 v -2 -2 h 1.333334 1.333333 v 1.857348 1.857348 l 2.084509,0.799902 2.08451,0.799901 -0.829866,1.342751 -0.829865,1.34275 h -1.254644 -1.254644 v -2 -2 h -1.333333 -1.333334 v 2 2 h -1.333333 -1.333334 v -2 -2 h -1.333333 -1.333333 v 2 2 h -1.333334 -1.333333 v -2 -2 h -1.333333 -1.333334 v 2 2 h -1.254644 -1.254644 z m -29.368897,-4.057542 -0.892312,-1.44379 0.822403,-0.822403 0.822402,-0.822404 1.427288,1.427288 1.427288,1.427288 -1.357378,0.838905 -1.357379,0.838907 z m 5.56069,0.475155 -0.85264,-0.85264 v -1.111112 -1.111111 h 2 2 v 1.254644 1.254644 l -1.14736,0.709108 -1.14736,0.709107 z m 5.333333,0 -0.85264,-0.85264 v -1.111112 -1.111111 h 2 2 v 1.254644 1.254644 l -1.14736,0.709108 -1.14736,0.709107 z m 5.276101,-0.199888 -0.838906,-1.357379 1.443791,-0.892312 1.44379,-0.892312 0.822403,0.822403 0.822404,0.822403 -1.427288,1.427288 -1.427288,1.427288 z m 5.333334,0 -0.838907,-1.357379 1.443791,-0.892312 1.443791,-0.892312 0.822402,0.822403 0.822404,0.822403 -1.427288,1.427288 -1.427288,1.427288 z m 5.333333,0 -0.838906,-1.357379 1.44379,-0.892312 1.443791,-0.892312 0.822403,0.822403 0.822404,0.822403 -1.427288,1.427288 -1.427288,1.427288 z M 37.333334,62.666668 v -1.333333 h 2 2 v 1.333333 1.333334 h -2 -2 z m 5.333334,0.753467 v -0.579868 l 1.330836,-3.500365 1.330837,-3.500366 1.452007,0.89739 1.452007,0.897389 -1.345318,1.345317 -1.345316,1.345316 0.705126,1.837527 0.705125,1.837527 H 44.80932 42.666668 Z m 5.588889,-0.853467 0.477778,-1.433333 h 1.266666 1.266667 l 0.477777,1.433333 0.477779,1.433334 h -2.222223 -2.222222 z m 5.333334,0 0.477777,-1.433333 h 1.266667 1.266666 l 0.477778,1.433333 0.477779,1.433334 h -2.222223 -2.222223 z m 5.333333,0 0.477778,-1.433333 h 1.266666 1.266667 l 0.477777,1.433333 0.477779,1.433334 h -2.222223 -2.222222 z m 5.333334,0 0.477777,-1.433333 h 1.266667 1.266666 l 0.477778,1.433333 0.477778,1.433334 h -2.222222 -2.222223 z m 5.801384,0.192131 -0.767106,-1.241201 1.16911,-0.72255 1.169109,-0.722549 0.85264,0.85264 0.85264,0.85264 v 1.111112 1.111111 h -1.254644 -1.254644 z m 5.94306,-0.09213 v -1.333333 h 1.333333 1.333334 v 1.333333 1.333334 h -1.333334 -1.333333 z m 5.333333,-0.745356 v -2.078689 l 1.333334,0.824045 1.333333,0.824046 v 1.254644 1.254644 h -1.333333 -1.333334 z m 5.333334,0.745356 v -1.333333 h 1.333333 1.333334 v 1.333333 1.333334 h -1.333334 -1.333333 z m -30.411112,-5.433333 0.477778,-1.433333 h 1.266667 1.266666 l 0.477778,1.433333 0.477778,1.433333 h -2.222222 -2.222223 z m 5.333334,0 0.477777,-1.433333 h 1.266667 1.266667 l 0.477777,1.433333 0.477779,1.433333 h -2.222223 -2.222223 z m 5.333333,0 0.477778,-1.433333 h 1.266666 1.266667 l 0.477778,1.433333 0.477778,1.433333 h -2.222223 -2.222222 z m 5.333334,0 0.477777,-1.433333 h 1.266667 1.266667 l 0.477777,1.433333 0.477779,1.433333 h -2.222223 -2.222223 z m 6.411111,-0.424015 v -1.857348 l -2.08451,-0.799901 -2.084509,-0.799901 0.829865,-1.342751 0.829866,-1.342751 h 1.099136 1.099134 l 0.823034,2.333334 0.823032,2.333333 0.776921,1.666667 0.77692,1.666666 h -1.444445 -1.444444 z m 8.545659,0.0228 -0.875095,-2.28046 0.853607,-0.853606 0.853606,-0.853608 1.577779,1.577778 1.577777,1.577778 -1.556289,1.556289 -1.556291,1.556291 z m -46.285763,-0.35 -0.851215,-0.851214 2.928298,-3.042494 2.928299,-3.042493 1.034028,0.639064 1.034026,0.639064 v 1.254644 1.254644 h -2 -2 v 2 2 H 42.88889 41.777778 Z m 6.66524,-0.0015 -0.85264,-0.85264 0.709107,-1.14736 0.709108,-1.147319 h 1.254644 1.254644 v 2 2 h -1.111111 -1.111112 l -0.85264,-0.85264 z m -12.299853,-3.214319 -0.892312,-1.443791 0.822402,-0.822403 0.822403,-0.822404 1.427288,1.427288 1.427288,1.427289 -1.357379,0.838905 -1.357378,0.838907 z m 18.836791,0.275267 -0.838907,-1.357379 1.443791,-0.892312 1.44379,-0.892312 0.822403,0.822402 0.822404,0.822403 -1.427288,1.427288 -1.427288,1.427288 z m 5.463063,0.272385 -0.85264,-0.85264 0.709106,-1.14736 0.709108,-1.147319 h 1.254644 1.254644 v 2 2 h -1.11111 -1.111112 l -0.85264,-0.85264 z m 5.333333,0 -0.85264,-0.85264 0.709107,-1.14736 0.709108,-1.147319 h 1.254644 1.254644 v 2 2 h -1.111111 -1.111112 l -0.85264,-0.85264 z m 5.333334,0 -0.852641,-0.85264 0.709107,-1.14736 0.709108,-1.147319 h 1.254644 1.254644 v 2 2 h -1.11111 -1.111112 l -0.85264,-0.85264 z m 10.666666,0 -0.85264,-0.85264 0.709107,-1.14736 0.709108,-1.147319 h 1.254644 1.254644 v 2 2 h -1.11111 -1.111113 l -0.85264,-0.85264 z M 33.83736,38.333334 34.417345,28.666667 34.542006,20.333334 34.666668,12 h 29.333334 29.333334 v 16.000001 16 H 92.04367 90.754005 l -0.377001,-15 L 90.000002,14 63.07883,13.639311 l -26.921173,-0.36069 -0.412161,16.02988 -0.412162,16.029879 29.000001,-0.0025 29.000001,-0.0025 v 1.333333 1.333333 H 63.295355 33.257376 Z m 27.601238,-3.11111 0.105264,-2.555556 0.700292,1.75 0.700292,1.75 -0.805555,0.805556 -0.805556,0.805554 z m -0.105263,-6.659261 v -1.362962 l 1.483824,-1.483824 1.483823,-1.483823 -0.952024,-1.540408 -0.952024,-1.540408 -1.934383,0.742292 -1.934384,0.742292 0.814607,-1.31806 0.814606,-1.318061 h 2.629824 2.629824 l 0.81008,2.111036 0.81008,2.111036 -2.851926,2.851926 -2.851927,2.851927 z"
       id="path30"
       inkscape:connector-curvature="0" />
    <path
       style="fill:#6d8e92;stroke-width:1.33333337"
       d="m 61.333335,82.000002 v -2 h 2 2 v 2 2 h -2 -2 z m -21.333334,-6 v -1.333333 h 1.333333 1.333334 v 1.333333 1.333334 h -1.333334 -1.333333 z m 5.333334,0 v -1.333333 h 2 2 v 1.333333 1.333334 h -2 -2 z m 5.333333,0 v -1.333333 h 2 2 v 1.333333 1.333334 h -2 -2 z m 6.666667,0 v -1.333333 h 2 2 v 1.333333 1.333334 h -2 -2 z m 9.066667,-0.266667 1.6,-1.6 1.6,1.6 1.6,1.600001 h -3.2 -3.2 z m 6.933333,0.266667 v -1.333333 h 1.333334 1.333333 v 1.333333 1.333334 h -1.333333 -1.333334 z m 5.333334,0 v -1.333333 h 1.333333 1.333333 v 1.333333 1.333334 h -1.333333 -1.333333 z m 5.333333,0 v -1.333333 h 1.333334 1.333333 v 1.333333 1.333334 H 85.333336 84.000002 Z M 37.333334,71.333335 v -2.222222 l 1.433334,0.477778 1.433333,0.477778 v 1.266666 1.266667 l -1.433333,0.477777 -1.433334,0.477779 z m 6.070382,0.780547 -0.780547,-1.262951 1.262952,-0.780548 1.262951,-0.780546 0.780548,1.262952 0.780547,1.26295 -1.262952,0.780548 -1.262951,0.780547 z m 5.333333,0 -0.780546,-1.262951 1.262952,-0.780548 1.26295,-0.780546 0.780548,1.262952 0.780547,1.26295 -1.262952,0.780548 -1.262951,0.780547 z m 5.333334,0 -0.780547,-1.262951 1.262952,-0.780548 1.262951,-0.780546 0.780548,1.262952 0.780547,1.26295 -1.262953,0.780548 -1.26295,0.780547 z m 5.333333,0 -0.780546,-1.262951 1.262952,-0.780548 1.26295,-0.780546 0.780548,1.262952 0.780547,1.26295 -1.262952,0.780548 -1.262951,0.780547 z m 5.333334,0 -0.780547,-1.262951 1.262952,-0.780548 1.262951,-0.780546 0.780548,1.262952 0.780546,1.26295 -1.262952,0.780548 -1.26295,0.780547 z m 5.929619,-0.780547 v -2 h 1.333333 1.333333 v -2 -2 h 1.444444 1.444446 l -0.77692,1.666667 -0.776922,1.666667 -0.823032,2.333333 -0.823033,2.333333 h -1.177824 -1.177825 z m 5.333333,0 v -2 h 1.333333 1.333334 v -2 -2 h 1.444444 1.444445 l -0.77692,1.666667 -0.776921,1.666667 -0.823032,2.333333 -0.823034,2.333333 h -1.177824 -1.177825 z m 5.333333,0 v -2 h 1.333334 1.333333 v -2 -2 h 1.444444 1.444446 l -0.77692,1.666667 -0.776922,1.666667 -0.823032,2.333333 -0.823033,2.333333 h -1.177824 -1.177826 z m 5.333334,0 v -2 h 1.333333 1.333334 v 2 2 h -1.333334 -1.333333 z m -46.041384,-3.400292 -0.892312,-1.44379 0.822403,-0.822403 0.822402,-0.822404 1.427288,1.427288 1.427288,1.427288 -1.357378,0.838905 -1.357379,0.838907 z m 5.445098,0.180839 -0.780547,-1.262951 1.262952,-0.780548 1.262951,-0.780546 0.780548,1.262952 0.780546,1.26295 -1.262952,0.780548 -1.26295,0.780547 z m 5.333333,0 -0.780547,-1.262951 1.262952,-0.780548 1.262951,-0.780546 0.780548,1.262952 0.780547,1.26295 -1.262952,0.780548 -1.262951,0.780547 z m 5.391693,0.09443 -0.838906,-1.357379 1.443791,-0.892312 1.44379,-0.892312 0.822403,0.822403 0.822404,0.822402 -1.427288,1.427288 -1.427288,1.427288 z m 5.333334,0 -0.838907,-1.357379 1.443791,-0.892312 1.443791,-0.892312 0.822402,0.822403 0.822404,0.822402 -1.427288,1.427288 -1.427288,1.427288 z m 5.333333,0 -0.838906,-1.357379 1.44379,-0.892312 1.443791,-0.892312 0.822403,0.822403 0.822404,0.822402 -1.427288,1.427288 -1.427288,1.427288 z M 37.333334,62.666668 v -1.333333 h 1.333334 1.333333 v 1.333333 1.333334 h -1.333333 -1.333334 z m 5.333334,0 v -1.333333 h 2 2 v 1.333333 1.333334 h -2 -2 z m 5.333333,0 v -1.333333 h 2 2 v 1.333333 1.333334 h -2 -2 z m 5.333334,0 v -1.333333 h 2 2 v 1.333333 1.333334 h -2 -2 z m 5.333333,0 v -1.333333 h 2 2 v 1.333333 1.333334 h -2 -2 z m 5.333334,0 v -1.333333 h 2 2 v 1.333333 1.333334 h -2 -2 z m 6.666667,0 v -1.333333 h 1.333333 1.333333 v 1.333333 1.333334 h -1.333333 -1.333333 z m 5.333333,0 v -1.333333 h 1.333333 1.333334 v 1.333333 1.333334 h -1.333334 -1.333333 z m 5.333333,0 v -1.333333 h 1.333334 1.333333 v 1.333333 1.333334 h -1.333333 -1.333334 z m 5.333334,0 v -1.333333 h 1.333333 1.333334 v 1.333333 1.333334 h -1.333334 -1.333333 z m -42.466668,-3.933333 0.533334,-1.6 0.966666,0.1 0.966667,0.1 0.1,0.966667 0.1,0.966666 -1.6,0.533334 -1.6,0.533333 z m 12.466667,-1.4 -0.824045,-1.333333 h 2.078689 2.07869 v 1.333333 1.333333 h -1.254644 -1.254644 z m 5.333334,0 -0.824046,-1.333333 h 2.07869 2.078689 v 1.333333 1.333333 h -1.254644 -1.254644 z m 5.333333,0 -0.824045,-1.333333 h 2.078689 2.07869 v 1.333333 1.333333 H 69.412024 68.15738 Z m 5.333334,0 -0.824046,-1.333333 h 2.07869 2.078689 v 1.333333 1.333333 h -1.254644 -1.254644 z m 6,0 v -1.333333 h 1.333333 1.333333 v 1.333333 1.333333 h -1.333333 -1.333333 z m 8.666667,0 -0.967647,-1.565687 1.333333,-1.333333 1.333334,-1.333333 0.967646,1.565686 0.967647,1.565687 -1.333333,1.333333 -1.333334,1.333334 z M 41.333334,55.238096 v -0.761904 l 1.904762,-1.904762 1.904763,-1.904762 h 0.857142 0.857143 l 2.063492,2.063492 2.063492,2.063492 -1.007936,0.936508 -1.007937,0.936508 -0.595238,-1.666666 -0.595238,-1.666667 h -1.888888 -1.88889 v 1.333333 1.333334 h -1.333333 -1.333334 z m -5.929618,-1.790881 -0.780547,-1.262951 1.262952,-0.780548 1.262951,-0.780547 0.780548,1.262952 0.780546,1.262951 -1.262952,0.780548 -1.26295,0.780547 z m 18.666667,0 -0.780547,-1.262951 1.262952,-0.780548 1.262951,-0.780547 0.780548,1.262952 0.780547,1.262951 -1.262953,0.780548 -1.26295,0.780547 z m 5.391693,0.09443 -0.838906,-1.357379 1.44379,-0.892312 1.443791,-0.892312 0.822403,0.822402 0.822404,0.822403 -1.427288,1.427288 -1.427288,1.427288 z m 5.274974,-0.09443 -0.780547,-1.262951 1.262952,-0.780548 1.262951,-0.780547 0.780548,1.262952 0.780546,1.262951 -1.262952,0.780548 -1.26295,0.780547 z m 5.391693,0.09443 -0.838907,-1.357379 1.443791,-0.892312 1.443791,-0.892312 0.822403,0.822402 0.822404,0.822403 -1.427288,1.427288 -1.427288,1.427288 z m 5.871259,-0.796284 v -2.07869 h 1.333333 1.333334 v 1.254644 1.254644 l -1.333334,0.824046 -1.333333,0.824045 z m 5.333333,-0.07869 v -2 h 1.333334 1.333333 v 2 2 H 82.666669 81.333335 Z M 90.377004,29.000001 90.000002,14 63.043927,13.639199 36.087852,13.278399 35.662268,28.305866 35.236684,43.333335 34.951676,27.666667 34.666668,12 h 28.666667 28.666667 v 16.000001 16 h -0.622998 -0.622999 z m -28.938406,6.222223 0.105264,-2.555556 0.700292,1.75 0.700292,1.75 -0.805555,0.805556 -0.805556,0.805554 z m -0.105263,-6.659261 v -1.362962 l 1.483824,-1.483824 1.483823,-1.483823 -0.952024,-1.540408 -0.952024,-1.540408 -1.934383,0.742292 -1.934384,0.742292 0.814607,-1.31806 0.814606,-1.318061 h 2.629824 2.629824 l 0.81008,2.111036 0.81008,2.111036 -2.851926,2.851926 -2.851927,2.851927 z"
       id="path28"
       inkscape:connector-curvature="0" />
    <path
       style="fill:#81807e;stroke-width:1.33333337"
       d="m 61.333335,82.000002 v -2 h 2 2 v 2 2 h -2 -2 z m -21.333334,-6 v -1.333333 h 1.333333 1.333334 v 1.333333 1.333334 h -1.333334 -1.333333 z m 5.333334,0 v -1.333333 h 2 2 v 1.333333 1.333334 h -2 -2 z m 5.333333,0 v -1.333333 h 2 2 v 1.333333 1.333334 h -2 -2 z m 6.666667,0 v -1.333333 h 2 2 v 1.333333 1.333334 h -2 -2 z m 9.066667,-0.266667 1.6,-1.6 1.6,1.6 1.6,1.600001 h -3.2 -3.2 z m 6.933333,0.266667 v -1.333333 h 1.333334 1.333333 v 1.333333 1.333334 h -1.333333 -1.333334 z m 5.333334,0 v -1.333333 h 1.333333 1.333333 v 1.333333 1.333334 h -1.333333 -1.333333 z m 5.333333,0 v -1.333333 h 1.333334 1.333333 v 1.333333 1.333334 H 85.333336 84.000002 Z M 37.333334,71.333335 v -2.222222 l 1.433334,0.477778 1.433333,0.477778 v 1.266666 1.266667 l -1.433333,0.477777 -1.433334,0.477779 z m 6.070382,0.780547 -0.780547,-1.262951 1.262952,-0.780548 1.262951,-0.780546 0.780548,1.262952 0.780547,1.26295 -1.262952,0.780548 -1.262951,0.780547 z m 5.333333,0 -0.780546,-1.262951 1.262952,-0.780548 1.26295,-0.780546 0.780548,1.262952 0.780547,1.26295 -1.262952,0.780548 -1.262951,0.780547 z m 5.333334,0 -0.780547,-1.262951 1.262952,-0.780548 1.262951,-0.780546 0.780548,1.262952 0.780547,1.26295 -1.262953,0.780548 -1.26295,0.780547 z m 5.333333,0 -0.780546,-1.262951 1.262952,-0.780548 1.26295,-0.780546 0.780548,1.262952 0.780547,1.26295 -1.262952,0.780548 -1.262951,0.780547 z m 5.333334,0 -0.780547,-1.262951 1.262952,-0.780548 1.262951,-0.780546 0.780548,1.262952 0.780546,1.26295 -1.262952,0.780548 -1.26295,0.780547 z m 5.929619,-0.780547 v -2 h 1.333333 1.333333 v -2 -2 h 1.444444 1.444446 l -0.77692,1.666667 -0.776922,1.666667 -0.823032,2.333333 -0.823033,2.333333 h -1.177824 -1.177825 z m 5.333333,0 v -2 h 1.333333 1.333334 v -2 -2 h 1.444444 1.444445 l -0.77692,1.666667 -0.776921,1.666667 -0.823032,2.333333 -0.823034,2.333333 h -1.177824 -1.177825 z m 5.333333,0 v -2 h 1.333334 1.333333 v -2 -2 h 1.444444 1.444446 l -0.77692,1.666667 -0.776922,1.666667 -0.823032,2.333333 -0.823033,2.333333 h -1.177824 -1.177826 z m 5.333334,0 v -2 h 1.333333 1.333334 v 2 2 h -1.333334 -1.333333 z m -46.041384,-3.400292 -0.892312,-1.44379 0.822403,-0.822403 0.822402,-0.822404 1.427288,1.427288 1.427288,1.427288 -1.357378,0.838905 -1.357379,0.838907 z m 5.445098,0.180839 -0.780547,-1.262951 1.262952,-0.780548 1.262951,-0.780546 0.780548,1.262952 0.780546,1.26295 -1.262952,0.780548 -1.26295,0.780547 z m 5.333333,0 -0.780547,-1.262951 1.262952,-0.780548 1.262951,-0.780546 0.780548,1.262952 0.780547,1.26295 -1.262952,0.780548 -1.262951,0.780547 z m 5.391693,0.09443 -0.838906,-1.357379 1.443791,-0.892312 1.44379,-0.892312 0.822403,0.822403 0.822404,0.822402 -1.427288,1.427288 -1.427288,1.427288 z m 5.333334,0 -0.838907,-1.357379 1.443791,-0.892312 1.443791,-0.892312 0.822402,0.822403 0.822404,0.822402 -1.427288,1.427288 -1.427288,1.427288 z m 5.333333,0 -0.838906,-1.357379 1.44379,-0.892312 1.443791,-0.892312 0.822403,0.822403 0.822404,0.822402 -1.427288,1.427288 -1.427288,1.427288 z M 37.333334,62.666668 v -1.333333 h 1.333334 1.333333 v 1.333333 1.333334 h -1.333333 -1.333334 z m 5.333334,0 v -1.333333 h 2 2 v 1.333333 1.333334 h -2 -2 z m 5.333333,0 v -1.333333 h 2 2 v 1.333333 1.333334 h -2 -2 z m 5.333334,0 v -1.333333 h 2 2 v 1.333333 1.333334 h -2 -2 z m 5.333333,0 v -1.333333 h 2 2 v 1.333333 1.333334 h -2 -2 z m 5.333334,0 v -1.333333 h 2 2 v 1.333333 1.333334 h -2 -2 z m 6.666667,0 v -1.333333 h 1.333333 1.333333 v 1.333333 1.333334 h -1.333333 -1.333333 z m 5.333333,0 v -1.333333 h 1.333333 1.333334 v 1.333333 1.333334 h -1.333334 -1.333333 z m 5.333333,0 v -1.333333 h 1.333334 1.333333 v 1.333333 1.333334 h -1.333333 -1.333334 z m 5.333334,0 v -1.333333 h 1.333333 1.333334 v 1.333333 1.333334 h -1.333334 -1.333333 z m -42.466668,-3.933333 0.533334,-1.6 0.966666,0.1 0.966667,0.1 0.1,0.966667 0.1,0.966666 -1.6,0.533334 -1.6,0.533333 z m 12.466667,-1.4 -0.824045,-1.333333 h 2.078689 2.07869 v 1.333333 1.333333 h -1.254644 -1.254644 z m 5.333334,0 -0.824046,-1.333333 h 2.07869 2.078689 v 1.333333 1.333333 h -1.254644 -1.254644 z m 5.333333,0 -0.824045,-1.333333 h 2.078689 2.07869 v 1.333333 1.333333 H 69.412024 68.15738 Z m 5.333334,0 -0.824046,-1.333333 h 2.07869 2.078689 v 1.333333 1.333333 h -1.254644 -1.254644 z m 6,0 v -1.333333 h 1.333333 1.333333 v 1.333333 1.333333 h -1.333333 -1.333333 z m 8.666667,0 -0.967647,-1.565687 1.333333,-1.333333 1.333334,-1.333333 0.967646,1.565686 0.967647,1.565687 -1.333333,1.333333 -1.333334,1.333334 z M 41.333334,55.238096 v -0.761904 l 1.904762,-1.904762 1.904763,-1.904762 h 0.857142 0.857143 l 2.063492,2.063492 2.063492,2.063492 -1.007936,0.936508 -1.007937,0.936508 -0.595238,-1.666666 -0.595238,-1.666667 h -1.888888 -1.88889 v 1.333333 1.333334 h -1.333333 -1.333334 z m -5.929618,-1.790881 -0.780547,-1.262951 1.262952,-0.780548 1.262951,-0.780547 0.780548,1.262952 0.780546,1.262951 -1.262952,0.780548 -1.26295,0.780547 z m 18.666667,0 -0.780547,-1.262951 1.262952,-0.780548 1.262951,-0.780547 0.780548,1.262952 0.780547,1.262951 -1.262953,0.780548 -1.26295,0.780547 z m 5.391693,0.09443 -0.838906,-1.357379 1.44379,-0.892312 1.443791,-0.892312 0.822403,0.822402 0.822404,0.822403 -1.427288,1.427288 -1.427288,1.427288 z m 5.274974,-0.09443 -0.780547,-1.262951 1.262952,-0.780548 1.262951,-0.780547 0.780548,1.262952 0.780546,1.262951 -1.262952,0.780548 -1.26295,0.780547 z m 5.391693,0.09443 -0.838907,-1.357379 1.443791,-0.892312 1.443791,-0.892312 0.822403,0.822402 0.822404,0.822403 -1.427288,1.427288 -1.427288,1.427288 z m 5.871259,-0.796284 v -2.07869 h 1.333333 1.333334 v 1.254644 1.254644 l -1.333334,0.824046 -1.333333,0.824045 z m 5.333333,-0.07869 v -2 h 1.333334 1.333333 v 2 2 H 82.666669 81.333335 Z M 90.666669,28.693185 V 13.386367 L 62.333335,12.998547 34.000001,12.610726 63.000002,12.305363 92.000002,12 v 16.000001 16 h -0.666666 -0.666667 z m -29.228071,6.529039 0.105264,-2.555556 0.700292,1.75 0.700292,1.75 -0.805555,0.805556 -0.805556,0.805554 z m -0.105263,-6.659261 v -1.362962 l 1.483824,-1.483824 1.483823,-1.483823 -0.952024,-1.540408 -0.952024,-1.540408 -1.934383,0.742292 -1.934384,0.742292 0.814607,-1.31806 0.814606,-1.318061 h 2.629824 2.629824 l 0.81008,2.111036 0.81008,2.111036 -2.851926,2.851926 -2.851927,2.851927 z"
       id="path26"
       inkscape:connector-curvature="0" />
    <path
       style="fill:#da1c7a;stroke-width:1.33333337"
       d="m 61.333335,82.000002 v -2 h 2 2 v 2 2 h -2 -2 z m -21.333334,-6 v -1.333333 h 1.333333 1.333334 v 1.333333 1.333334 h -1.333334 -1.333333 z m 5.333334,0 v -1.333333 h 2 2 v 1.333333 1.333334 h -2 -2 z m 5.333333,0 v -1.333333 h 2.078689 2.07869 l -0.824046,1.333333 -0.824045,1.333334 h -1.254644 -1.254644 z m 6.666667,0 v -1.333333 h 1.254644 1.254644 l 0.824045,1.333333 0.824046,1.333334 h -2.07869 -2.078689 z m 9,0.450292 1.666667,-0.672515 1.666666,0.672515 1.666667,0.672515 h -3.333333 -3.333334 z m 7,-0.450292 v -1.333333 h 1.333334 1.333333 v 1.333333 1.333334 h -1.333333 -1.333334 z m 5.333334,0 v -1.333333 h 1.333333 1.333333 v 1.333333 1.333334 h -1.333333 -1.333333 z m 5.333333,0 v -1.333333 h 1.333334 1.333333 v 1.333333 1.333334 H 85.333336 84.000002 Z M 37.333334,72.078691 v -1.254644 l 1.333334,-0.824045 1.333333,-0.824045 v 2.078689 2.078689 h -1.333333 -1.333334 z m 6.070382,0.03519 -0.780547,-1.262951 1.262952,-0.780548 1.262951,-0.780546 0.780548,1.262952 0.780547,1.26295 -1.262952,0.780548 -1.262951,0.780547 z m 5.319892,-0.02175 -0.767105,-1.241201 1.355082,-0.837488 1.355083,-0.837485 v 2.078689 2.078689 h -0.587977 -0.587978 z m 5.346775,0.02175 -0.780547,-1.262951 1.262952,-0.780548 1.262951,-0.780546 0.780548,1.262952 0.780547,1.26295 -1.262953,0.780548 -1.26295,0.780547 z m 5.333333,0 -0.780546,-1.262951 1.262952,-0.780548 1.26295,-0.780546 0.780548,1.262952 0.780547,1.26295 -1.262952,0.780548 -1.262951,0.780547 z m 5.333334,0 -0.780547,-1.262951 1.262952,-0.780548 1.262951,-0.780546 0.780548,1.262952 0.780546,1.26295 -1.262952,0.780548 -1.26295,0.780547 z m 5.929619,-0.859232 V 69.17596 l 1.333333,0.824045 1.333333,0.824045 v 1.254644 1.254644 h -1.333333 -1.333333 z m 5.333333,0.07869 v -2 h 1.333333 1.333334 v 2 2 h -1.333334 -1.333333 z m 5.333333,0 v -2 h 1.333334 1.333333 v 2 2 h -1.333333 -1.333334 z m 5.333334,0 v -2 h 1.333333 1.333334 v 2 2 h -1.333334 -1.333333 z m -46.041384,-3.400292 -0.892312,-1.44379 0.822403,-0.822403 0.822402,-0.822404 1.427288,1.427288 1.427288,1.427288 -1.357378,0.838905 -1.357379,0.838907 z m 5.445098,0.180839 -0.780547,-1.262951 1.262952,-0.780548 1.262951,-0.780546 0.780548,1.262952 0.780546,1.26295 -1.262952,0.780548 -1.26295,0.780547 z m 5.333333,0 -0.780547,-1.262951 1.262952,-0.780548 1.262951,-0.780546 0.780548,1.262952 0.780547,1.26295 -1.262952,0.780548 -1.262951,0.780547 z m 5.929619,-0.859236 v -2.078689 l 1.355083,0.837486 1.355082,0.837488 -0.767105,1.241202 -0.767105,1.241202 h -0.587978 -0.587977 z m 10.666667,0.157379 v -2.07869 h 1.333333 1.333334 v 1.254644 1.254644 l -1.333334,0.824046 -1.333333,0.824045 z m -5.333334,-0.824046 v -1.412022 l 1.333334,0.824045 1.333333,0.824045 v 0.587978 0.587977 h -1.333333 -1.333334 z m 10.666667,0.07869 v -1.333334 h 1.333334 1.333333 v 1.333334 1.333333 h -1.333333 -1.333334 z m 5.333334,0 v -1.333334 h 1.333333 1.333333 v 1.333334 1.333333 h -1.333333 -1.333333 z m 5.333333,0 v -1.333334 h 1.333334 1.333333 v 1.333334 1.333333 H 85.333336 84.000002 Z M 37.333334,62.666668 v -1.333333 h 1.333334 1.333333 v 1.333333 1.333334 h -1.333333 -1.333334 z m 5.333334,0 v -1.333333 h 2.078689 2.07869 l -0.824046,1.333333 -0.824045,1.333334 h -1.254644 -1.254644 z m 5.333333,0 v -1.333333 h 1.333334 1.333333 v 1.333333 1.333334 h -1.333333 -1.333334 z m 5.333334,0 v -1.333333 h 1.333333 1.333333 v 1.333333 1.333334 h -1.333333 -1.333333 z m 6,0 -0.824045,-1.333333 h 2.078689 2.078689 v 1.333333 1.333334 H 61.412024 60.15738 Z m 5.333333,0 -0.824045,-1.333333 h 2.078689 2.07869 v 1.333333 1.333334 h -1.254644 -1.254644 z m 6.000001,0 v -1.333333 h 1.333333 1.333333 v 1.333333 1.333334 h -1.333333 -1.333333 z m 5.333333,0 v -1.333333 h 1.333333 1.333334 v 1.333333 1.333334 h -1.333334 -1.333333 z m 5.333333,0 v -1.333333 h 1.333334 1.333333 v 1.333333 1.333334 h -1.333333 -1.333334 z m 5.333334,0 v -1.333333 h 1.333333 1.333334 v 1.333333 1.333334 h -1.333334 -1.333333 z m -41.92962,-3.88612 -0.780547,-1.26295 1.262953,-0.780548 1.26295,-0.780547 0.780548,1.262952 0.780547,1.262951 -1.262952,0.780548 -1.262951,0.780546 z m 12.596286,-1.447213 v -1.333333 h 1.333333 1.333334 v 1.333333 1.333333 h -1.333334 -1.333333 z m 5.333333,0 v -1.333333 h 1.412023 1.412023 l -0.824046,1.333333 -0.824045,1.333333 h -0.587977 -0.587978 z m 5.333334,0 v -1.333333 h 1.333333 1.333334 v 1.333333 1.333333 h -1.333334 -1.333333 z m 5.333333,0 v -1.333333 h 1.333334 1.333333 v 1.333333 1.333333 h -1.333333 -1.333334 z m 5.333334,0 v -1.333333 h 1.333333 1.333333 v 1.333333 1.333333 h -1.333333 -1.333333 z m 8.666667,0 -0.967647,-1.565687 1.333333,-1.333333 1.333334,-1.333333 0.967646,1.565686 0.967647,1.565687 -1.333333,1.333333 -1.333334,1.333334 z M 41.333334,55.238096 v -0.761904 l 1.904762,-1.904762 1.904763,-1.904762 h 1.679986 1.679987 l -2.862331,2.666667 -2.862331,2.666667 h -0.722418 -0.722418 z m 6.666667,-0.571428 v -1.333333 h 1.333334 1.333333 v 1.333333 1.333334 h -1.333333 -1.333334 z m -12.596285,-1.219453 -0.780547,-1.262951 1.262952,-0.780548 1.262951,-0.780547 0.780548,1.262952 0.780546,1.262951 -1.262952,0.780548 -1.26295,0.780547 z m 18.666667,0 -0.780547,-1.262951 1.262952,-0.780548 1.262951,-0.780547 0.780548,1.262952 0.780547,1.262951 -1.262953,0.780548 -1.26295,0.780547 z m 5.333333,0 -0.780546,-1.262951 1.262952,-0.780548 1.26295,-0.780547 0.780548,1.262952 0.780547,1.262951 -1.262952,0.780548 -1.262951,0.780547 z m 5.333334,0 -0.780547,-1.262951 1.262952,-0.780548 1.262951,-0.780547 0.780548,1.262952 0.780546,1.262951 -1.262952,0.780548 -1.26295,0.780547 z m 5.929619,-0.859236 v -2.07869 l 1.355082,0.837487 1.355083,0.837488 -0.767105,1.241202 -0.767106,1.241202 h -0.587977 -0.587977 z m 5.333333,0 v -2.07869 l 1.355083,0.837487 1.355082,0.837488 -0.767105,1.241202 -0.767105,1.241202 h -0.587978 -0.587977 z m 5.333333,0.157379 v -2.07869 h 1.333334 1.333333 v 1.254644 1.254644 l -1.333333,0.824046 -1.333334,0.824045 z M 91.170894,28.000001 V 12.666667 l 0.481092,7.666667 0.481094,7.666667 -0.481094,7.666667 -0.481092,7.666667 z m -29.732296,7.222223 0.105264,-2.555556 0.700292,1.75 0.700292,1.75 -0.805555,0.805556 -0.805556,0.805554 z m -0.105263,-6.659261 v -1.362962 l 1.483824,-1.483824 1.483823,-1.483823 -0.952024,-1.540408 -0.952024,-1.540408 -1.934383,0.742292 -1.934384,0.742292 0.814607,-1.31806 0.814606,-1.318061 h 2.629824 2.629824 l 0.81008,2.111036 0.81008,2.111036 -2.851926,2.851926 -2.851927,2.851927 z"
       id="path24"
       inkscape:connector-curvature="0" />
    <path
       style="fill:#6d6d6d;stroke-width:1.33333337"
       d="m 61.333335,82.000002 v -2 h 2 2 v 2 2 h -2 -2 z m -21.333334,-6 v -1.333333 h 1.333333 1.333334 v 1.333333 1.333334 h -1.333334 -1.333333 z m 5.333334,0 v -1.333333 h 2 2 v 1.333333 1.333334 h -2 -2 z m 5.333333,0 v -1.333333 h 2.078689 2.07869 l -0.824046,1.333333 -0.824045,1.333334 h -1.254644 -1.254644 z m 6.666667,0 v -1.333333 h 1.254644 1.254644 l 0.824045,1.333333 0.824046,1.333334 h -2.07869 -2.078689 z m 9,0.450292 1.666667,-0.672515 1.666666,0.672515 1.666667,0.672515 h -3.333333 -3.333334 z m 7,-0.450292 v -1.333333 h 1.333334 1.333333 v 1.333333 1.333334 h -1.333333 -1.333334 z m 5.333334,0 v -1.333333 h 1.333333 1.333333 v 1.333333 1.333334 h -1.333333 -1.333333 z m 5.333333,0 v -1.333333 h 1.333334 1.333333 v 1.333333 1.333334 H 85.333336 84.000002 Z M 37.333334,72.078691 v -1.254644 l 1.333334,-0.824045 1.333333,-0.824045 v 2.078689 2.078689 h -1.333333 -1.333334 z m 6.070382,0.03519 -0.780547,-1.262951 1.262952,-0.780548 1.262951,-0.780546 0.780548,1.262952 0.780547,1.26295 -1.262952,0.780548 -1.262951,0.780547 z m 5.319892,-0.02175 -0.767105,-1.241201 1.355082,-0.837488 1.355083,-0.837485 v 2.078689 2.078689 h -0.587977 -0.587978 z m 5.346775,0.02175 -0.780547,-1.262951 1.262952,-0.780548 1.262951,-0.780546 0.780548,1.262952 0.780547,1.26295 -1.262953,0.780548 -1.26295,0.780547 z m 5.333333,0 -0.780546,-1.262951 1.262952,-0.780548 1.26295,-0.780546 0.780548,1.262952 0.780547,1.26295 -1.262952,0.780548 -1.262951,0.780547 z m 5.333334,0 -0.780547,-1.262951 1.262952,-0.780548 1.262951,-0.780546 0.780548,1.262952 0.780546,1.26295 -1.262952,0.780548 -1.26295,0.780547 z m 5.929619,-0.859232 V 69.17596 l 1.333333,0.824045 1.333333,0.824045 v 1.254644 1.254644 h -1.333333 -1.333333 z m 5.333333,0.07869 v -2 h 1.333333 1.333334 v 2 2 h -1.333334 -1.333333 z m 5.333333,0 v -2 h 1.333334 1.333333 v 2 2 h -1.333333 -1.333334 z m 5.333334,0 v -2 h 1.333333 1.333334 v 2 2 h -1.333334 -1.333333 z m -46.041384,-3.400292 -0.892312,-1.44379 0.822403,-0.822403 0.822402,-0.822404 1.427288,1.427288 1.427288,1.427288 -1.357378,0.838905 -1.357379,0.838907 z m 5.445098,0.180839 -0.780547,-1.262951 1.262952,-0.780548 1.262951,-0.780546 0.780548,1.262952 0.780546,1.26295 -1.262952,0.780548 -1.26295,0.780547 z m 5.333333,0 -0.780547,-1.262951 1.262952,-0.780548 1.262951,-0.780546 0.780548,1.262952 0.780547,1.26295 -1.262952,0.780548 -1.262951,0.780547 z m 5.929619,-0.859236 v -2.078689 l 1.355083,0.837486 1.355082,0.837488 -0.767105,1.241202 -0.767105,1.241202 h -0.587978 -0.587977 z m 10.666667,0.157379 v -2.07869 h 1.333333 1.333334 v 1.254644 1.254644 l -1.333334,0.824046 -1.333333,0.824045 z m -5.333334,-0.824046 v -1.412022 l 1.333334,0.824045 1.333333,0.824045 v 0.587978 0.587977 h -1.333333 -1.333334 z m 10.666667,0.07869 v -1.333334 h 1.333334 1.333333 v 1.333334 1.333333 h -1.333333 -1.333334 z m 5.333334,0 v -1.333334 h 1.333333 1.333333 v 1.333334 1.333333 h -1.333333 -1.333333 z m 5.333333,0 v -1.333334 h 1.333334 1.333333 v 1.333334 1.333333 H 85.333336 84.000002 Z M 37.333334,62.666668 v -1.333333 h 1.333334 1.333333 v 1.333333 1.333334 h -1.333333 -1.333334 z m 5.333334,0 v -1.333333 h 2.078689 2.07869 l -0.824046,1.333333 -0.824045,1.333334 h -1.254644 -1.254644 z m 5.333333,0 v -1.333333 h 1.333334 1.333333 v 1.333333 1.333334 h -1.333333 -1.333334 z m 5.333334,0 v -1.333333 h 1.333333 1.333333 v 1.333333 1.333334 h -1.333333 -1.333333 z m 6,0 -0.824045,-1.333333 h 2.078689 2.078689 v 1.333333 1.333334 H 61.412024 60.15738 Z m 5.333333,0 -0.824045,-1.333333 h 2.078689 2.07869 v 1.333333 1.333334 h -1.254644 -1.254644 z m 6.000001,0 v -1.333333 h 1.333333 1.333333 v 1.333333 1.333334 h -1.333333 -1.333333 z m 5.333333,0 v -1.333333 h 1.333333 1.333334 v 1.333333 1.333334 h -1.333334 -1.333333 z m 5.333333,0 v -1.333333 h 1.333334 1.333333 v 1.333333 1.333334 h -1.333333 -1.333334 z m 5.333334,0 v -1.333333 h 1.333333 1.333334 v 1.333333 1.333334 h -1.333334 -1.333333 z m -41.92962,-3.88612 -0.780547,-1.26295 1.262953,-0.780548 1.26295,-0.780547 0.780548,1.262952 0.780547,1.262951 -1.262952,0.780548 -1.262951,0.780546 z m 12.596286,-1.447213 v -1.333333 h 1.333333 1.333334 v 1.333333 1.333333 h -1.333334 -1.333333 z m 5.333333,0 v -1.333333 h 1.412023 1.412023 l -0.824046,1.333333 -0.824045,1.333333 h -0.587977 -0.587978 z m 5.333334,0 v -1.333333 h 1.333333 1.333334 v 1.333333 1.333333 h -1.333334 -1.333333 z m 5.333333,0 v -1.333333 h 1.333334 1.333333 v 1.333333 1.333333 h -1.333333 -1.333334 z m 5.333334,0 v -1.333333 h 1.333333 1.333333 v 1.333333 1.333333 h -1.333333 -1.333333 z m 8.666667,0 -0.967647,-1.565687 1.333333,-1.333333 1.333334,-1.333333 0.967646,1.565686 0.967647,1.565687 -1.333333,1.333333 -1.333334,1.333334 z M 41.333334,55.238096 v -0.761904 l 1.904762,-1.904762 1.904763,-1.904762 h 1.679986 1.679987 l -2.862331,2.666667 -2.862331,2.666667 h -0.722418 -0.722418 z m 6.666667,-0.571428 v -1.333333 h 1.333334 1.333333 v 1.333333 1.333334 h -1.333333 -1.333334 z m -12.596285,-1.219453 -0.780547,-1.262951 1.262952,-0.780548 1.262951,-0.780547 0.780548,1.262952 0.780546,1.262951 -1.262952,0.780548 -1.26295,0.780547 z m 18.666667,0 -0.780547,-1.262951 1.262952,-0.780548 1.262951,-0.780547 0.780548,1.262952 0.780547,1.262951 -1.262953,0.780548 -1.26295,0.780547 z m 5.333333,0 -0.780546,-1.262951 1.262952,-0.780548 1.26295,-0.780547 0.780548,1.262952 0.780547,1.262951 -1.262952,0.780548 -1.262951,0.780547 z m 5.333334,0 -0.780547,-1.262951 1.262952,-0.780548 1.262951,-0.780547 0.780548,1.262952 0.780546,1.262951 -1.262952,0.780548 -1.26295,0.780547 z m 5.929619,-0.859236 v -2.07869 l 1.355082,0.837487 1.355083,0.837488 -0.767105,1.241202 -0.767106,1.241202 h -0.587977 -0.587977 z m 5.333333,0 v -2.07869 l 1.355083,0.837487 1.355082,0.837488 -0.767105,1.241202 -0.767105,1.241202 h -0.587978 -0.587977 z m 5.333333,0.157379 v -2.07869 h 1.333334 1.333333 v 1.254644 1.254644 l -1.333333,0.824046 -1.333334,0.824045 z M 91.170894,28.000001 V 12.666667 l 0.481092,7.666667 0.481094,7.666667 -0.481094,7.666667 -0.481092,7.666667 z"
       id="path22"
       inkscape:connector-curvature="0" />
    <path
       style="fill:#504f4d;stroke-width:1.33333337"
       d="m 62.185975,83.074865 -0.85264,-0.85264 v -1.111112 -1.111111 h 2 2 v 1.254644 1.254644 l -1.14736,0.709108 -1.14736,0.709107 z M 40.000001,76.000002 v -1.333333 h 1.333333 1.333334 v 1.333333 1.333334 h -1.333334 -1.333333 z m 5.333334,0 v -1.333333 h 1.333333 1.333333 v 1.333333 1.333334 h -1.333333 -1.333333 z m 13.083333,0.422515 1.75,-0.700292 0.805556,0.805555 0.805555,0.805556 -2.555555,-0.105263 -2.555556,-0.105264 z m 8,0 1.75,-0.700292 0.805556,0.805555 0.805555,0.805556 -2.555555,-0.105263 -2.555556,-0.105264 z m 6.916667,-0.422515 v -1.333333 h 1.333334 1.333333 v 1.333333 1.333334 h -1.333333 -1.333334 z m 5.333334,0 v -1.333333 h 1.333333 1.333333 v 1.333333 1.333334 h -1.333333 -1.333333 z m 5.333333,0 v -1.333333 h 1.333334 1.333333 v 1.333333 1.333334 h -1.333333 -1.333334 z m -45.943061,-3.907869 -0.767105,-1.241202 1.355082,-0.837488 1.355083,-0.837486 v 2.078689 2.078689 h -0.587977 -0.587978 z m 5.333333,0 -0.767105,-1.241202 1.355083,-0.837488 1.355083,-0.837486 v 2.078689 2.078689 H 44.745357 44.15738 Z m 5.333334,0 -0.767105,-1.241202 1.355082,-0.837488 1.355083,-0.837486 v 2.078689 2.078689 h -0.587977 -0.587978 z m 5.333333,0 -0.767105,-1.241202 1.355083,-0.837488 1.355082,-0.837486 v 2.078689 2.078689 h -0.587977 -0.587977 z m 5.943061,-0.837487 v -2.078689 l 1.355082,0.837486 1.355083,0.837488 -0.767105,1.241202 -0.767106,1.241202 h -0.587977 -0.587977 z m 5.333333,0 v -2.078689 l 1.355083,0.837486 1.355082,0.837488 -0.767105,1.241202 -0.767105,1.241202 h -0.587978 -0.587977 z m 5.333334,0.745356 v -1.333333 h 1.412022 1.412023 l -0.824045,1.333333 -0.824046,1.333333 h -0.587977 -0.587977 z m 5.333333,0 v -1.333333 h 1.412023 1.412022 l -0.824045,1.333333 -0.824045,1.333333 h -0.587978 -0.587977 z m 5.333333,0 v -1.333333 h 1.412023 1.412023 l -0.824045,1.333333 -0.824046,1.333333 h -0.587977 -0.587978 z m 6.000001,0 -0.824046,-1.333333 h 1.412023 1.412023 v 1.333333 1.333333 h -0.587978 -0.587977 z m -46.666668,-5.333333 0.824045,-1.333334 h 0.587977 0.587978 v 1.333334 1.333333 h -1.412023 -1.412023 z m 6,-0.07869 v -1.412022 l 1.333333,0.824045 1.333334,0.824045 v 0.587978 0.587977 h -1.333334 -1.333333 z m 5.333333,0 v -1.412022 l 1.333334,0.824045 1.333333,0.824045 v 0.587978 0.587977 h -1.333333 -1.333334 z m 5.333334,0 v -1.412022 l 1.333333,0.824045 1.333334,0.824045 v 0.587978 0.587977 h -1.333334 -1.333333 z m 5.333333,0 v -1.412022 l 1.333334,0.824045 1.333333,0.824045 v 0.587978 0.587977 h -1.333333 -1.333334 z m 5.333334,0 v -1.412022 l 1.333333,0.824045 1.333334,0.824045 v 0.587978 0.587977 h -1.333334 -1.333333 z m 5.333333,0 v -1.412022 l 1.333334,0.824045 1.333333,0.824045 v 0.587978 0.587977 h -1.333333 -1.333334 z m 5.333334,0.07869 v -1.333334 h 1.333333 1.333333 v 1.333334 1.333333 h -1.333333 -1.333333 z m 5.333333,0 v -1.333334 h 1.333334 1.333333 v 1.333334 1.333333 H 85.333336 84.000002 Z M 37.333334,62.666668 v -1.333333 h 1.333334 1.333333 v 1.333333 1.333334 h -1.333333 -1.333334 z m 11.333334,0 -0.824045,-1.333333 h 1.412022 1.412023 v 1.333333 1.333334 h -0.587977 -0.587978 z m 5.333333,0 -0.824045,-1.333333 h 1.412023 1.412022 v 1.333333 1.333334 h -0.587977 -0.587977 z m 6.000001,0 v -1.333333 h 1.412022 1.412023 l -0.824045,1.333333 -0.824046,1.333334 h -0.587977 -0.587977 z m 5.333333,0 v -1.333333 h 1.333333 1.333334 v 1.333333 1.333334 h -1.333334 -1.333333 z m 5.333334,0 v -1.333333 h 1.333333 1.333333 v 1.333333 1.333334 h -1.333333 -1.333333 z m 5.333333,0 v -1.333333 h 1.333333 1.333334 v 1.333333 1.333334 h -1.333334 -1.333333 z m 5.333333,0 v -1.333333 h 1.333334 1.333333 v 1.333333 1.333334 h -1.333333 -1.333334 z m 5.333334,0 v -1.333333 h 1.333333 1.333334 v 1.333333 1.333334 h -1.333334 -1.333333 z m -42.000001,-4 -0.824046,-1.333333 h 1.412023 1.412023 v 1.333333 1.333334 h -0.587977 -0.587978 z m 12.666667,-1.333333 v -1.333333 h 1.412023 1.412022 l -0.824045,1.333333 -0.824045,1.333333 h -0.587978 -0.587977 z m 5.333333,0 v -1.333333 h 1.412023 1.412023 l -0.824046,1.333333 -0.824045,1.333333 h -0.587977 -0.587978 z m 5.333334,0 v -1.333333 h 1.412022 1.412023 l -0.824045,1.333333 -0.824046,1.333333 h -0.587977 -0.587977 z m 5.333333,0 v -1.333333 h 1.412023 1.412023 l -0.824046,1.333333 -0.824045,1.333333 h -0.587977 -0.587978 z m 5.333334,0 v -1.333333 h 1.333333 1.333333 v 1.333333 1.333333 h -1.333333 -1.333333 z m 8,-1.333333 v -1.333334 h 2 2 v 1.333334 1.333333 h -2 -2 z M 41.333334,54.666668 v -1.333333 h 1.333334 1.333333 v 1.333333 1.333334 h -1.333333 -1.333334 z m 6.666667,0 v -1.333333 h 1.333334 1.333333 v 1.333333 1.333334 h -1.333333 -1.333334 z m -12.609727,-1.241202 -0.767105,-1.241202 1.355083,-0.837488 1.355082,-0.837487 v 2.07869 2.078689 H 36.745357 36.15738 Z m 19.381657,-0.869908 0.105264,-2.555557 0.700292,1.75 0.700292,1.750001 -0.805555,0.805556 -0.805556,0.805554 z m 5.228071,0.03242 v -2.07869 l 1.355082,0.837487 1.355083,0.837488 -0.767105,1.241202 -0.767106,1.241202 h -0.587977 -0.587977 z m 5.333333,0 v -2.07869 l 1.355083,0.837487 1.355082,0.837488 -0.767105,1.241202 -0.767105,1.241202 h -0.587978 -0.587977 z m 5.333334,0 v -2.07869 l 1.355082,0.837487 1.355083,0.837488 -0.767105,1.241202 -0.767106,1.241202 h -0.587977 -0.587977 z m 5.333333,0 v -2.07869 l 1.355083,0.837487 1.355082,0.837488 -0.767105,1.241202 -0.767105,1.241202 h -0.587978 -0.587977 z m 5.333333,0 v -2.07869 l 1.355083,0.837487 1.355083,0.837488 -0.767105,1.241202 -0.767106,1.241202 H 81.921313 81.333335 Z M 44.666668,52.000001 43.842622,50.666668 h 1.412023 1.412023 v 1.333333 1.333334 h -0.587977 -0.587978 z"
       id="path20"
       inkscape:connector-curvature="0" />
    <path
       style="fill:#31302f;stroke-width:1.33333337"
       d="m 62.070383,82.780549 -0.780547,-1.262951 1.262952,-0.780548 1.262951,-0.780546 0.780548,1.262952 0.780547,1.26295 -1.262952,0.780548 -1.262951,0.780547 z M 40.000001,76.000002 v -1.333333 h 1.333333 1.333334 v 1.333333 1.333334 h -1.333334 -1.333333 z m 18.416667,0.422515 1.75,-0.700292 0.805556,0.805555 0.805555,0.805556 -2.555555,-0.105263 -2.555556,-0.105264 z m 8,0 1.75,-0.700292 0.805556,0.805555 0.805555,0.805556 -2.555555,-0.105263 -2.555556,-0.105264 z m 6.916667,-0.422515 v -1.333333 h 1.333334 1.333333 v 1.333333 1.333334 h -1.333333 -1.333334 z m 5.333334,0 v -1.333333 h 1.333333 1.333333 v 1.333333 1.333334 h -1.333333 -1.333333 z m 5.333333,0 v -1.333333 h 1.333334 1.333333 v 1.333333 1.333334 h -1.333333 -1.333334 z m -43.333334,-9.333333 0.824045,-1.333334 h 0.587977 0.587978 v 1.333334 1.333333 h -1.412023 -1.412023 z m 22,-0.07869 v -1.412022 l 1.333334,0.824045 1.333333,0.824045 v 0.587978 0.587977 h -1.333333 -1.333334 z m 5.333334,0 v -1.412022 l 1.333333,0.824045 1.333334,0.824045 v 0.587978 0.587977 h -1.333334 -1.333333 z m 5.333333,0 v -1.412022 l 1.333334,0.824045 1.333333,0.824045 v 0.587978 0.587977 h -1.333333 -1.333334 z m 5.333334,0 v -1.412022 l 1.333333,0.824045 1.333333,0.824045 v 0.587978 0.587977 h -1.333333 -1.333333 z m 5.333333,0 v -1.412022 l 1.333334,0.824045 1.333333,0.824045 v 0.587978 0.587977 H 85.333336 84.000002 Z M 38.000001,62.666668 37.175956,61.333335 h 1.412022 1.412023 v 1.333333 1.333334 h -0.587977 -0.587978 z m 32.666668,0 v -1.333333 h 1.412022 1.412023 l -0.824045,1.333333 -0.824046,1.333334 h -0.587977 -0.587977 z m 5.333333,0 v -1.333333 h 1.412023 1.412022 l -0.824045,1.333333 -0.824045,1.333334 h -0.587978 -0.587977 z m 5.333333,0 v -1.333333 h 1.412023 1.412023 l -0.824045,1.333333 -0.824046,1.333334 h -0.587977 -0.587978 z m 5.333334,0 v -1.333333 h 1.333333 1.333334 v 1.333333 1.333334 H 88.000002 86.666669 Z M 73.333335,57.333335 v -1.333333 h 1.412023 1.412023 l -0.824046,1.333333 -0.824045,1.333333 h -0.587977 -0.587978 z m 5.333334,0 v -1.333333 h 1.412022 1.412023 l -0.824045,1.333333 -0.824046,1.333333 h -0.587977 -0.587977 z m 8,-1.333333 v -1.333334 h 2.078689 2.07869 l -0.824046,1.333334 -0.824045,1.333333 H 87.921313 86.666669 Z M 41.333334,54.587979 v -1.412023 l 1.333334,0.824046 1.333333,0.824045 v 0.587977 0.587978 h -1.333333 -1.333334 z m 6.666667,0.07869 v -1.333333 h 1.333334 1.333333 v 1.333333 1.333334 h -1.333333 -1.333334 z"
       id="path18"
       inkscape:connector-curvature="0" />
    <path
       style="fill:#080807;stroke-width:1.33333337"
       d="m 62.056942,82.7588 -0.767106,-1.241202 1.13286,-0.700146 1.132862,-0.700147 v 1.941349 1.941348 h -0.365756 -0.365755 z m -3.640274,-6.336283 1.75,-0.700292 0.805556,0.805555 0.805555,0.805556 -2.555555,-0.105263 -2.555556,-0.105264 z m 8,0 1.75,-0.700292 0.805556,0.805555 0.805555,0.805556 -2.555555,-0.105263 -2.555556,-0.105264 z m 17.583334,-0.422515 v -1.333333 h 1.412023 1.412023 l -0.824046,1.333333 -0.824045,1.333334 H 84.58798 84.000002 Z"
       id="path16"
       inkscape:connector-curvature="0" />
  </g>
</svg>
