<?xml version="1.0" encoding="UTF-8" standalone="no"?>
<!-- Created with Inkscape (http://www.inkscape.org/) -->

<svg
   xmlns:dc="http://purl.org/dc/elements/1.1/"
   xmlns:cc="http://creativecommons.org/ns#"
   xmlns:rdf="http://www.w3.org/1999/02/22-rdf-syntax-ns#"
   xmlns:svg="http://www.w3.org/2000/svg"
   xmlns="http://www.w3.org/2000/svg"
   xmlns:sodipodi="http://sodipodi.sourceforge.net/DTD/sodipodi-0.dtd"
   xmlns:inkscape="http://www.inkscape.org/namespaces/inkscape"
   version="1.1"
   id="svg2"
   width="95"
   height="70"
   viewBox="0 0 95 70"
   sodipodi:docname="imageviewer.svg"
   inkscape:version="0.92.2 5c3e80d, 2017-08-06">
  <metadata
     id="metadata8">
    <rdf:RDF>
      <cc:Work
         rdf:about="">
        <dc:format>image/svg+xml</dc:format>
        <dc:type
           rdf:resource="http://purl.org/dc/dcmitype/StillImage" />
        <dc:title></dc:title>
      </cc:Work>
    </rdf:RDF>
  </metadata>
  <defs
     id="defs6" />
  <sodipodi:namedview
     pagecolor="#ffffff"
     bordercolor="#666666"
     borderopacity="1"
     objecttolerance="10"
     gridtolerance="10"
     guidetolerance="10"
     inkscape:pageopacity="0"
     inkscape:pageshadow="2"
     inkscape:window-width="1918"
     inkscape:window-height="1027"
     id="namedview4"
     showgrid="false"
     inkscape:pagecheckerboard="true"
     inkscape:zoom="2.8736842"
     inkscape:cx="47.5"
     inkscape:cy="35"
     inkscape:window-x="0"
     inkscape:window-y="0"
     inkscape:window-maximized="1"
     inkscape:current-layer="svg2" />
  <path
     style="fill:#ffffff;fill-opacity:1;stroke-width:0.34798536"
     d="m 63.855311,63.569597 c 0,-0.400712 -0.444648,-0.521978 -1.913919,-0.521978 -1.469271,0 -1.913919,-0.121266 -1.913919,-0.521978 0,-0.405984 -0.46398,-0.521978 -2.087913,-0.521978 -1.623932,0 -2.087912,-0.115994 -2.087912,-0.521978 0,-0.400712 -0.444648,-0.521978 -1.913919,-0.521978 -1.469271,0 -1.913919,-0.121266 -1.913919,-0.521978 0,-0.405984 -0.46398,-0.521978 -2.087913,-0.521978 -1.623931,0 -2.087912,-0.115994 -2.087912,-0.521978 0,-0.45528 -1.778591,-0.521978 -13.919414,-0.521978 -12.140822,0 -13.919413,-0.0667 -13.919413,-0.521978 0,-0.401523 -0.44741,-0.521978 -1.938776,-0.521978 -1.216292,0 -2.124028,-0.185254 -2.435897,-0.497122 -0.42033,-0.420331 -0.497122,-3.887494 -0.497122,-22.445055 0,-14.399965 0.119673,-21.947933 0.347985,-21.947933 0.191392,0 0.347985,-0.23489 0.347985,-0.521978 0,-0.444096 0.908629,-0.521978 6.089744,-0.521978 h 6.089744 v -1.391941 c 0,-1.0052915 0.144994,-1.3919419 0.521978,-1.3919419 0.347985,0 0.521978,-0.3479853 0.521978,-1.043956 V 7.021978 h 3.479853 c 2.861213,0 3.479854,0.092796 3.479854,0.521978 0,0.4007105 0.444648,0.5219781 1.913919,0.5219781 1.469271,0 1.913919,0.1212676 1.913919,0.521978 0,0.4059829 0.463981,0.521978 2.087912,0.521978 1.623932,0 2.087913,0.1159951 2.087913,0.521978 0,0.4007109 0.444648,0.5219779 1.913919,0.5219779 1.052656,0 1.913919,0.156594 1.913919,0.347986 0,0.201058 1.101954,0.347985 2.60989,0.347985 2.087913,0 2.609891,0.104395 2.609891,0.521978 0,0.446581 1.005291,0.521978 6.959707,0.521978 5.954415,0 6.959706,0.0754 6.959706,0.521978 0,0.287088 0.234891,0.521978 0.521979,0.521978 0.38665,0 0.521978,0.405983 0.521978,1.565934 v 1.565934 h 1.913919 c 1.469271,0 1.913919,0.121268 1.913919,0.521978 0,0.405983 0.46398,0.521978 2.087912,0.521978 1.623933,0 2.087913,0.115995 2.087913,0.521978 0,0.37851 0.389413,0.521978 1.416798,0.521978 1.366708,0 2.41104,0.592148 2.41104,1.367085 0,0.205063 0.23489,0.372842 0.521978,0.372842 0.38665,0 0.521978,0.405983 0.521978,1.565934 0,1.159951 -0.135328,1.565934 -0.521978,1.565934 -0.414269,0 -0.521978,0.502645 -0.521978,2.435897 0,1.391942 -0.149136,2.435898 -0.347985,2.435898 -0.193327,0 -0.347985,0.927961 -0.347985,2.087912 0,1.623932 -0.115994,2.087912 -0.521978,2.087912 -0.400712,0 -0.521978,0.444648 -0.521978,1.913919 0,1.469272 -0.121266,1.91392 -0.521978,1.91392 -0.417583,0 -0.521978,0.521978 -0.521978,2.60989 0,2.087912 -0.104396,2.60989 -0.521978,2.60989 -0.400713,0 -0.521978,0.444649 -0.521978,1.91392 0,1.46927 -0.121266,1.913919 -0.521978,1.913919 -0.405985,0 -0.521979,0.463979 -0.521979,2.087912 0,1.623933 -0.115993,2.087912 -0.521978,2.087912 -0.400712,0 -0.521978,0.444649 -0.521978,1.91392 0,1.46927 -0.121265,1.913919 -0.521978,1.913919 -0.405984,0 -0.521978,0.463979 -0.521978,2.087912 0,1.623933 -0.115994,2.087912 -0.521978,2.087912 -0.400712,0 -0.521978,0.444649 -0.521978,1.91392 0,1.052655 -0.156593,1.913919 -0.347985,1.913919 -0.191392,0 -0.347985,0.46978 -0.347985,1.043956 0,0.927962 -0.115994,1.043956 -1.043956,1.043956 -0.695971,0 -1.043956,0.173993 -1.043956,0.521978 0,0.417582 -0.521978,0.521978 -2.609891,0.521978 -2.087912,0 -2.60989,-0.104396 -2.60989,-0.521978 z"
     id="path12"
     inkscape:connector-curvature="0" />
  <g
     id="g14">
    <path
       style="fill:#c7cdb5"
       d="M 54,61.425799 C 46.389659,59.516545 42.052355,59.060422 32.1948,59.132703 25.42694,59.18233 19.61444,58.947773 19.278133,58.611466 18.941827,58.27516 29.054862,58 41.751546,58 54.448229,58 65.548229,57.726855 66.418213,57.393011 67.790755,56.866317 68,54.022214 68,35.893011 68,24.401855 68.250731,15 68.55718,15 c 1.861107,0 10.16586,2.46398 11.294242,3.350947 0.987491,0.776219 1.173372,2.420445 0.69025,6.10567 C 79.607445,31.582856 72.074067,61.205828 70.808113,62.73121 69.326937,64.515917 64.967808,64.177363 54,61.425799 Z M 14.424763,35 c 0,-11.825 0.144653,-16.6625 0.32145,-10.75 0.176798,5.9125 0.176798,15.5875 0,21.5 -0.176797,5.9125 -0.32145,1.075 -0.32145,-10.75 z m 5.104094,18.046691 c -0.324048,-0.52432 -0.280988,-8.84932 0.09569,-18.5 L 20.309413,17 h 21.195402 21.195402 l 0.701855,17.511414 c 0.386019,9.631277 0.426913,17.956277 0.09087,18.5 C 63.156907,53.555136 62.112381,54 61.171776,54 59.732435,54 59.464629,52.975363 59.480793,47.530246 59.503768,39.79126 57.560647,37.153142 51.210088,36.301353 44.441002,35.393428 40.162477,36.685603 37.956042,40.304261 35.823364,43.801952 35.413587,49.03576 37.035184,52.065741 38.022903,53.911311 37.658796,54 29.094201,54 24.157309,54 19.852904,53.571011 19.528857,53.046691 Z M 53.076923,32.076923 C 54.82147,30.332376 56,28.096553 56,26.531469 56,22.901881 51.855383,19 48,19 44.144617,19 40,22.901881 40,26.531469 40,29.737397 44.971444,35 48,35 c 1.184615,0 3.469231,-1.315385 5.076923,-2.923077 z M 27,11.110784 c 0,-0.489069 0.846866,-1.9350508 1.881923,-3.2132932 L 30.763847,5.5734138 43.631923,8.7175261 56.5,11.861638 41.75,11.930819 C 33.6375,11.968869 27,11.599853 27,11.110784 Z"
       id="path30"
       inkscape:connector-curvature="0" />
    <path
       style="fill:#98ccd4"
       d="m 55.5,61.513012 -9,-2.283253 8.815741,-0.114879 C 68.881696,58.938099 68,60.521412 68,36.337008 V 15.744384 l 3.941291,0.630237 C 77.987434,17.341439 81,18.777021 81,20.69138 81,25.282274 71.693148,61.606603 70.223935,62.75 68.112865,64.392913 66.227479,64.234518 55.5,61.513012 Z M 20.226926,35.25 20.5,17.5 41.75,17.230112 63,16.960225 V 34.980112 C 63,52.5055 62.943497,53 60.940983,53 c -1.304532,0 -1.796945,-0.424042 -1.343812,-1.157225 0.994036,-1.608385 0.587307,-9.629557 -0.60086,-11.849668 -1.40227,-2.620165 -7.399292,-4.304931 -13.30405,-3.737559 -7.211627,0.692946 -9.986695,4.013628 -9.525938,11.398859 L 36.5,53.002727 28.226926,53.001363 19.953851,53 Z M 53.076923,32.076923 C 56.684146,28.4697 56.847906,24.756997 53.545455,21.454545 48.548651,16.457742 40,19.775628 40,26.711782 40,29.737878 45.079135,35 48,35 c 1.184615,0 3.469231,-1.315385 5.076923,-2.923077 z M 30.25,32.337719 c -0.6875,-0.277412 -1.8125,-0.277412 -2.5,0 -0.6875,0.277413 -0.125,0.504386 1.25,0.504386 1.375,0 1.9375,-0.226973 1.25,-0.504386 z M 28,10.035184 C 28,6.1873616 30.981355,5.9706379 42.557807,8.9769329 L 53.5,11.818517 40.75,11.909258 C 28.711982,11.994933 28,11.890281 28,10.035184 Z"
       id="path28"
       inkscape:connector-curvature="0" />
    <path
       style="fill:#77b9cd"
       d="m 55.5,61.513012 -9,-2.283253 8.815741,-0.114879 C 68.881696,58.938099 68,60.521412 68,36.337008 V 15.744384 l 3.941291,0.630237 C 77.987434,17.341439 81,18.777021 81,20.69138 81,25.282274 71.693148,61.606603 70.223935,62.75 68.112865,64.392913 66.227479,64.234518 55.5,61.513012 Z M 20.348033,42.344437 C 20.706615,36.483878 21,28.608878 21,24.844437 V 18 l 12.75,0.06339 c 7.734317,0.03845 11.949569,0.387833 10.715282,0.888138 -2.821363,1.14361 -4.346002,3.202074 -5.076331,6.85372 -0.515912,2.579559 -0.108375,3.629178 2.372267,6.10982 C 44.893824,35.04767 44.90721,36 41.818635,36 38.63906,36 35.877683,41.78436 36.208691,47.751363 L 36.5,53.002727 28.098033,53.001363 19.696067,53 Z M 30.25,32.337719 c -0.6875,-0.277412 -1.8125,-0.277412 -2.5,0 -0.6875,0.277413 -0.125,0.504386 1.25,0.504386 1.375,0 1.9375,-0.226973 1.25,-0.504386 z M 59.853502,50.866985 C 60.988069,47.799958 59.627529,40.350893 57.504263,38.00471 56.33131,36.708612 54.419282,35.998679 52.095012,35.996262 L 48.5,35.992524 51.774926,33.995802 C 56.186316,31.306178 57.401401,27.89645 55.537864,23.43638 54.740912,21.529003 53.056366,19.554052 51.79443,19.047598 50.043285,18.34481 51.098294,18.111764 56.25,18.063386 L 63,18 V 35.5 C 63,52.237807 62.914296,53 61.032224,53 59.443595,53 59.216482,52.589015 59.853502,50.866985 Z M 28,10.035184 C 28,6.1873616 30.981355,5.9706379 42.557807,8.9769329 L 53.5,11.818517 40.75,11.909258 C 28.711982,11.994933 28,11.890281 28,10.035184 Z"
       id="path26"
       inkscape:connector-curvature="0" />
    <path
       style="fill:#b68e4a"
       d="m 55.5,61.513012 -9,-2.283253 8.815741,-0.114879 C 68.881696,58.938099 68,60.521412 68,36.337008 V 15.744384 l 3.941291,0.630237 C 77.987434,17.341439 81,18.777021 81,20.69138 81,25.282274 71.693148,61.606603 70.223935,62.75 68.112865,64.392913 66.227479,64.234518 55.5,61.513012 Z M 20,46 v -7 h 9.122445 c 7.902361,0 8.959684,0.196115 7.905498,1.466331 -0.740396,0.892122 -1.082041,3.633826 -0.872445,7.001363 L 36.5,53.002727 28.25,53.001363 20,53 Z m 40.398799,2.25 c 0.05566,-2.6125 -0.266623,-5.7625 -0.716187,-7 C 59.002778,39.378639 59.213132,39 60.932612,39 62.825568,39 63,39.59061 63,46 c 0,5.212949 -0.344952,7 -1.351201,7 -0.959496,0 -1.321863,-1.376996 -1.25,-4.75 z M 24.035184,30.065741 C 21.450297,25.235837 24.123197,20 29.173753,20 32.452973,20 35,22.897848 35,26.628741 35,30.583448 33.374164,32 28.835184,32 c -2.698708,0 -4.057957,-0.547737 -4.8,-1.934259 z M 28,10.035184 C 28,6.1873616 30.981355,5.9706379 42.557807,8.9769329 L 53.5,11.818517 40.75,11.909258 C 28.711982,11.994933 28,11.890281 28,10.035184 Z"
       id="path24"
       inkscape:connector-curvature="0" />
    <path
       style="fill:#ea7812"
       d="m 56,61.5 -8.5,-2.308634 8.527494,-0.09568 C 69.627767,58.943081 69.13785,59.812406 68.955468,36.155821 L 68.803929,16.5 l 3.267884,0.27684 c 5.703451,0.483171 8.457047,2.417015 8.211279,5.766763 C 79.86703,28.214414 71.55952,61.297622 70.213619,62.643524 68.419807,64.437335 66.139235,64.253857 56,61.5 Z M 20,46 v -7 l 8.25,-7.46e-4 8.25,-7.46e-4 v 6.998278 6.998279 l -8.25,0.0025 L 20,53 Z m 40.405371,1.75 c 0.03682,-2.8875 -0.312474,-6.0375 -0.776203,-7 C 58.964417,39.370269 59.231824,39 60.893011,39 62.834997,39 63,39.548185 63,46 c 0,5.159965 -0.349813,7 -1.330785,7 -0.947226,0 -1.311491,-1.513158 -1.263844,-5.25 z M 24.332541,29.384769 c -1.534636,-2.34215 -1.559891,-2.890353 -0.241857,-5.25 1.864432,-3.337853 7.621178,-4.249307 9.615176,-1.522351 C 36.711235,26.722512 33.893855,32 28.694312,32 26.941926,32 25.466451,31.115334 24.332541,29.384769 Z M 28,11.081787 C 28,8.6079249 29.453737,7 31.690376,7 34.175564,7 50.135656,10.805676 50.916667,11.5845 51.145833,11.813025 46.083333,12 39.666667,12 33.248342,12 28,11.586935 28,11.081787 Z"
       id="path22"
       inkscape:connector-curvature="0" />
    <path
       style="fill:#3a8531"
       d="m 56,61.5 -8.5,-2.308634 8.527494,-0.09568 C 69.627767,58.943081 69.13785,59.812406 68.955468,36.155821 L 68.803929,16.5 l 3.267884,0.27684 c 5.703451,0.483171 8.457047,2.417015 8.211279,5.766763 C 79.86703,28.214414 71.55952,61.297622 70.213619,62.643524 68.419807,64.437335 66.139235,64.253857 56,61.5 Z M 20,46 v -7 l 8.25,-7.46e-4 8.25,-7.46e-4 v 6.998278 6.998279 l -8.25,0.0025 L 20,53 Z m 40.405371,1.75 c 0.03682,-2.8875 -0.312474,-6.0375 -0.776203,-7 C 58.964417,39.370269 59.231824,39 60.893011,39 62.834997,39 63,39.548185 63,46 c 0,5.159965 -0.349813,7 -1.330785,7 -0.947226,0 -1.311491,-1.513158 -1.263844,-5.25 z M 28,11.081787 C 28,8.6079249 29.453737,7 31.690376,7 34.175564,7 50.135656,10.805676 50.916667,11.5845 51.145833,11.813025 46.083333,12 39.666667,12 33.248342,12 28,11.586935 28,11.081787 Z"
       id="path20"
       inkscape:connector-curvature="0" />
    <path
       style="fill:#4b453a"
       d="m 56,61.5 -8.5,-2.308634 8.527494,-0.09568 C 69.627767,58.943081 69.13785,59.812406 68.955468,36.155821 L 68.803929,16.5 l 3.267884,0.27684 c 5.703451,0.483171 8.457047,2.417015 8.211279,5.766763 C 79.86703,28.214414 71.55952,61.297622 70.213619,62.643524 68.419807,64.437335 66.139235,64.253857 56,61.5 Z m -35.056085,-9 c -0.02829,0 -0.139739,-2.812774 -0.247673,-6.25061 L 20.5,39.998781 28,39.99939 35.5,40 v 5.929739 5.929738 l -7.252328,0.320262 C 24.258892,52.355882 20.972201,52.5 20.943915,52.5 Z m 4.858369,-2.211209 C 23.38123,49.919451 23.066415,49.396409 22.732533,45.188623 L 22.360496,40.5 22.180248,45.75 22,51 25.25,50.850168 c 2.947964,-0.135908 2.99929,-0.188079 0.552284,-0.561377 z m 35.104979,2.127876 c -0.05101,-0.504167 -0.01889,-2.79874 0.07137,-5.099051 0.09026,-2.300312 -0.35535,-5.152998 -0.990241,-6.339304 -0.984179,-1.838956 -0.903338,-2.106902 0.548391,-1.817616 1.387812,0.276549 1.702348,1.504327 1.700625,6.638324 -0.0012,3.46446 -0.280056,6.57696 -0.619762,6.916666 -0.339706,0.339706 -0.659379,0.205147 -0.710383,-0.299019 z M 28,11.081787 C 28,8.6079249 29.453737,7 31.690376,7 34.175564,7 50.135656,10.805676 50.916667,11.5845 51.145833,11.813025 46.083333,12 39.666667,12 33.248342,12 28,11.586935 28,11.081787 Z"
       id="path18"
       inkscape:connector-curvature="0" />
    <path
       style="fill:#297b20"
       d="m 20.943915,52.5 c -0.02829,0 -0.139739,-2.812774 -0.247673,-6.25061 L 20.5,39.998781 28,39.99939 35.5,40 v 5.929739 5.929738 l -7.252328,0.320262 C 24.258892,52.355882 20.972201,52.5 20.943915,52.5 Z m 4.858369,-2.211209 C 23.38123,49.919451 23.066415,49.396409 22.732533,45.188623 L 22.360496,40.5 22.180248,45.75 22,51 25.25,50.850168 c 2.947964,-0.135908 2.99929,-0.188079 0.552284,-0.561377 z m 35.104979,2.127876 c -0.05101,-0.504167 -0.01889,-2.79874 0.07137,-5.099051 0.09026,-2.300312 -0.35535,-5.152998 -0.990241,-6.339304 -0.984179,-1.838956 -0.903338,-2.106902 0.548391,-1.817616 1.387812,0.276549 1.702348,1.504327 1.700625,6.638324 -0.0012,3.46446 -0.280056,6.57696 -0.619762,6.916666 -0.339706,0.339706 -0.659379,0.205147 -0.710383,-0.299019 z"
       id="path16"
       inkscape:connector-curvature="0" />
  </g>
</svg>
