<?xml version="1.0" encoding="UTF-8" standalone="no"?>
<!-- Created with Inkscape (http://www.inkscape.org/) -->

<svg
   xmlns:dc="http://purl.org/dc/elements/1.1/"
   xmlns:cc="http://creativecommons.org/ns#"
   xmlns:rdf="http://www.w3.org/1999/02/22-rdf-syntax-ns#"
   xmlns:svg="http://www.w3.org/2000/svg"
   xmlns="http://www.w3.org/2000/svg"
   xmlns:sodipodi="http://sodipodi.sourceforge.net/DTD/sodipodi-0.dtd"
   xmlns:inkscape="http://www.inkscape.org/namespaces/inkscape"
   version="1.1"
   id="svg2"
   width="95"
   height="70"
   viewBox="0 0 95 70"
   sodipodi:docname="mediaplayer.svg"
   inkscape:version="0.92.2 5c3e80d, 2017-08-06">
  <metadata
     id="metadata8">
    <rdf:RDF>
      <cc:Work
         rdf:about="">
        <dc:format>image/svg+xml</dc:format>
        <dc:type
           rdf:resource="http://purl.org/dc/dcmitype/StillImage" />
        <dc:title></dc:title>
      </cc:Work>
    </rdf:RDF>
  </metadata>
  <defs
     id="defs6" />
  <sodipodi:namedview
     pagecolor="#ffffff"
     bordercolor="#666666"
     borderopacity="1"
     objecttolerance="10"
     gridtolerance="10"
     guidetolerance="10"
     inkscape:pageopacity="0"
     inkscape:pageshadow="2"
     inkscape:window-width="1918"
     inkscape:window-height="1027"
     id="namedview4"
     showgrid="false"
     inkscape:pagecheckerboard="true"
     inkscape:zoom="2.8736842"
     inkscape:cx="47.5"
     inkscape:cy="35"
     inkscape:window-x="0"
     inkscape:window-y="0"
     inkscape:window-maximized="1"
     inkscape:current-layer="svg2" />
  <path
     style="fill:#ffffff;fill-opacity:1;stroke-width:0.34798536"
     d="m 54.111722,58.349817 c 0,-0.458627 -2.745219,-0.521978 -22.619048,-0.521978 -14.847375,0 -22.6190476,-0.119564 -22.6190476,-0.347986 0,-0.191391 -0.2348901,-0.347985 -0.521978,-0.347985 -0.4585004,0 -0.5219781,-2.687219 -0.5219781,-22.097069 0,-19.40985 0.063478,-22.09707 0.5219781,-22.09707 0.2870879,0 0.521978,-0.23489 0.521978,-0.521978 0,-0.455058 1.7399266,-0.521978 13.5714286,-0.521978 11.831502,0 13.571429,-0.06692 13.571429,-0.521978 0,-0.347985 0.347985,-0.521978 1.043956,-0.521978 0.69597,0 1.043956,0.173993 1.043956,0.521978 0,0.450334 1.217948,0.521978 8.873626,0.521978 7.655678,0 8.873626,-0.07164 8.873626,-0.521978 0,-0.405983 0.46398,-0.521978 2.087912,-0.521978 1.623933,0 2.087913,0.115995 2.087913,0.521978 0,0.452933 1.44994,0.521978 10.961538,0.521978 9.511598,0 10.961538,-0.06904 10.961538,-0.521978 0,-0.287088 0.234891,-0.521978 0.521978,-0.521978 0.287088,0 0.521978,0.23489 0.521978,0.521978 0,0.347985 0.347986,0.521978 1.043957,0.521978 0.69597,0 1.043956,0.173993 1.043956,0.521978 0,0.287088 0.23489,0.521978 0.521978,0.521978 0.458502,0 0.521978,2.68722 0.521978,22.09707 0,19.40985 -0.06348,22.097069 -0.521978,22.097069 -0.287088,0 -0.521978,0.156594 -0.521978,0.347985 0,0.226595 -5.219781,0.347986 -14.96337,0.347986 -13.068785,0 -14.96337,0.06609 -14.96337,0.521978 0,0.287088 -0.23489,0.521978 -0.521978,0.521978 -0.287088,0 -0.521978,-0.23489 -0.521978,-0.521978 z"
     id="path12"
     inkscape:connector-curvature="0" />
  <g
     id="g14">
    <path
       style="fill:#d5d3d5"
       d="M 10,35 V 14 H 47 84 V 35 56 H 47 10 Z M 58.792458,37.25 58.584916,27.5 58.254932,36.75 57.924948,46 H 47 36.075052 L 35.745068,36.75 35.415084,27.5 35.207542,37.25 35,47 H 47 59 Z M 48.136743,39.930239 52.193811,37.860477 51.846905,37.553158 51.5,37.245839 47.25,35.102596 43,32.959352 V 37.479676 42 h 0.539838 0.539838 z"
       id="path42"
       inkscape:connector-curvature="0" />
    <path
       style="fill:#feacbe"
       d="M 10.678952,55.345619 10,54.666667 V 34.333333 14 H 47.020288 84.040577 L 83.770288,34.75 83.5,55.5 47.428952,55.762286 11.357904,56.024571 Z M 59,36.968265 V 26.936529 L 47.25,27.218265 35.5,27.5 35.213788,37.25 34.927576,47 H 46.963788 59 Z M 36,37 v -9 h 11 11 v 9 9 H 47 36 Z M 48.00263,40.183336 52.934424,37.366672 48.440461,35.183336 43.946497,33 H 42.973249 42 v 5 5 h 0.535418 0.535418 z M 32.776433,16.273107 29.052866,15.882421 24.776433,16.266503 20.5,16.650586 l 8,0.0066 8,0.0066 -3.723567,-0.390687 z"
       id="path40"
       inkscape:connector-curvature="0" />
    <path
       style="fill:#78d2ea"
       d="M 10.678952,55.345619 10,54.666667 V 34.333333 14 H 47.020288 84.040577 L 83.770288,34.75 83.5,55.5 47.428952,55.762286 11.357904,56.024571 Z M 59,36.968265 V 26.936529 L 47.25,27.218265 35.5,27.5 35.213788,37.25 34.927576,47 H 46.963788 59 Z M 36,37.5 V 29 H 47 58 V 37.5 46 H 47 36 Z m 12.132678,2.932767 5.06619,-2.567233 L 52.849434,37.553068 52.5,37.240601 47.25,34.603455 42,31.966308 V 37.483154 43 h 0.533244 0.533243 z M 32.776433,16.273107 29.052866,15.882421 24.776433,16.266503 20.5,16.650586 l 8,0.0066 8,0.0066 -3.723567,-0.390687 z"
       id="path38"
       inkscape:connector-curvature="0" />
    <path
       style="fill:#b3b3b4"
       d="M 10.678952,55.345619 10,54.666667 V 34.333333 14 H 47.020288 84.040577 L 83.770288,34.75 83.5,55.5 47.428952,55.762286 11.357904,56.024571 Z M 59,36.968265 V 26.936529 L 47.25,27.218265 35.5,27.5 35.213788,37.25 34.927576,47 H 46.963788 59 Z M 36,37.5 V 29 H 47 58 V 37.5 46 H 47 36 Z m 12.132678,2.932767 5.06619,-2.567233 L 52.849434,37.553068 52.5,37.240601 47.25,34.603455 42,31.966308 V 37.483154 43 h 0.533244 0.533243 z M 17.448973,42.532119 16,39.064237 V 36.482459 33.90068 L 17.52568,30.95034 19.05136,28 H 17.02568 15 v 9 9 h 1.948973 1.948974 z M 79,37 V 28 H 77.051027 75.102053 L 76.551027,31.467881 78,34.935763 77.993839,37.217881 77.987679,39.5 76.493839,42.364307 75,45.228614 V 45.614307 46 h 2 2 z M 32.776433,16.273107 29.052866,15.882421 24.776433,16.266503 20.5,16.650586 l 8,0.0066 8,0.0066 -3.723567,-0.390687 z"
       id="path36"
       inkscape:connector-curvature="0" />
    <path
       style="fill:#78bbc7"
       d="M 10.451048,54.733029 9.9552702,53.441053 10.227635,33.970526 10.5,14.5 H 47 83.5 V 35 55.5 L 47.223413,55.762502 10.946826,56.025004 Z M 59.183587,37.002179 58.867173,27 H 46.933587 35 V 37 47 L 47.25,47.0022 59.5,47.0044 59.183587,37.002221 Z M 36,37.5 V 29 H 47 58 V 37.5 46 H 47 36 Z m 12.132678,2.932767 5.06619,-2.567233 L 52.849434,37.553068 52.5,37.240601 47.25,34.603455 42,31.966308 V 37.483154 43 h 0.533244 0.533243 z M 17.448973,42.532119 16,39.064237 V 36.482459 33.90068 L 17.52568,30.95034 19.05136,28 H 17.02568 15 v 9 9 h 1.948973 1.948974 z M 31,43.240547 v -2.759453 l -2,-1.249021 -2,-1.249021 v -1.585145 -1.585146 l 2,-0.523012 2,-0.523012 V 30.883369 28 H 28.454545 25.909091 L 23.454545,30.454545 21,32.909091 v 3.322948 3.322949 l 1.606999,2.294311 1.606998,2.294312 2.143002,0.864808 L 28.5,45.873227 29.75,45.936614 31,46 Z M 70.75,42.406587 73,39.888473 V 37.020962 34.153451 L 70.411106,31.076725 67.822213,28 H 65.411106 63 v 3 3 h 1.531385 1.531385 l 0.58049,1.512735 0.580491,1.512735 -1.225182,1.476254 -1.225183,1.476255 L 63.886693,39.429973 63,38.881966 v 3.667425 3.667425 l 2.75,-0.646057 2.75,-0.646058 z M 79,37 V 28 H 77.051027 75.102053 L 76.551027,31.467881 78,34.935763 77.993839,37.217881 77.987679,39.5 76.493839,42.364307 75,45.228614 V 45.614307 46 h 2 2 z M 34.25,16.262758 29,15.895481 23.75,16.262758 18.5,16.630035 H 29 39.5 Z"
       id="path34"
       inkscape:connector-curvature="0" />
    <path
       style="fill:#95938b"
       d="M 10.451048,54.733029 9.9552702,53.441053 10.227635,33.970526 10.5,14.5 H 47 83.5 V 35 55.5 L 47.223413,55.762502 10.946826,56.025004 Z M 20,46.464817 v -0.535184 l -1.666667,-2.543654 -1.666666,-2.543655 v -4.20198 -4.20198 L 18.502565,29.63643 20.338463,26.834495 17.419231,27.167248 14.5,27.5 l -0.293131,8.416411 -0.293131,8.41641 0.511746,1.33359 L 14.93723,47 H 17.468615 20 Z M 59.183587,37.002179 58.867173,27 H 46.933587 35 V 37 47 L 47.25,47.0022 59.5,47.0044 59.183587,37.002221 Z M 36,37.5 V 29 H 47 58 V 37.5 46 H 47 36 Z m 12.132678,2.932767 5.06619,-2.567233 L 52.849434,37.553068 52.5,37.240601 47.25,34.603455 42,31.966308 V 37.483154 43 h 0.533244 0.533243 z M 79,37 V 27 H 76.47432 73.94864 L 75.47432,29.95034 77,32.90068 v 4.35853 4.358531 L 75.531803,43.55887 74.063607,45.5 74.031803,46.25 74,47 h 2.5 2.5 z m -48,6.240547 v -2.759453 l -2,-1.249021 -2,-1.249021 v -1.585145 -1.585146 l 2,-0.523012 2,-0.523012 V 30.883369 28 H 28.454545 25.909091 L 23.454545,30.454545 21,32.909091 v 3.322948 3.322949 l 1.606999,2.294311 1.606998,2.294312 2.143002,0.864808 L 28.5,45.873227 29.75,45.936614 31,46 Z M 70.75,42.406587 73,39.888473 V 37.020962 34.153451 L 70.411106,31.076725 67.822213,28 H 65.411106 63 v 3 3 h 1.531385 1.531385 l 0.58049,1.512735 0.580491,1.512735 -1.225182,1.476254 -1.225183,1.476255 L 63.886693,39.429973 63,38.881966 v 3.667425 3.667425 l 2.75,-0.646057 2.75,-0.646058 z M 34.25,16.262758 29,15.895481 23.75,16.262758 18.5,16.630035 H 29 39.5 Z"
       id="path32"
       inkscape:connector-curvature="0" />
    <path
       style="fill:#739ca0"
       d="M 11,35 V 14 H 47 83 V 35 56 H 47 11 Z M 59.183587,37.098441 58.867173,27 46.683587,26.997821 34.5,26.995642 l 0.315744,9.971012 0.315743,9.971013 11.684257,0.281166 L 58.5,47.5 59,47.348441 59.5,47.196883 Z M 36,37.5 V 29 H 47 58 V 37.5 46 H 47 36 Z m 12.132678,2.932767 5.06619,-2.567233 L 52.849434,37.553068 52.5,37.240601 47.25,34.603455 42,31.966308 V 37.483154 43 h 0.533244 0.533243 z M 20,46.464817 v -0.535184 l -1.666667,-2.543654 -1.666666,-2.543655 v -4.20198 -4.20198 L 18.502565,29.63643 20.338463,26.834495 17.419231,27.167248 14.5,27.5 l -0.293131,8.416411 -0.293131,8.41641 0.511746,1.33359 L 14.93723,47 H 17.468615 20 Z M 79,37 V 27 H 76.47432 73.94864 L 75.47432,29.95034 77,32.90068 v 4.35853 4.358531 L 75.531803,43.55887 74.063607,45.5 74.031803,46.25 74,47 H 76.5 79 Z M 31,42.616631 V 39.233263 L 29,38.710251 27,38.187239 V 36.5 34.812761 l 2,-0.523012 2,-0.523012 V 30.883369 28 H 28.454545 25.909091 L 23.454545,30.454545 21,32.909091 v 3.956561 3.956561 L 24.076725,43.411106 27.153451,46 H 29.076725 31 Z M 69.923275,43.411106 73,40.822213 V 36.865652 32.909091 L 70.545455,30.454545 68.090909,28 H 65.545455 63 v 2.589707 2.589708 l 2.159109,1.74834 2.159109,1.748341 -0.718126,1.161952 L 65.881966,39 H 64.440983 63 v 3.5 3.5 h 1.923275 1.923274 z M 34.286513,16.264024 29.073025,15.898013 23.286513,16.259922 17.5,16.621831 l 11,0.0041 11,0.0041 -5.213487,-0.366011 z"
       id="path30"
       inkscape:connector-curvature="0" />
    <path
       style="fill:#f61e89"
       d="M 11,35 V 14 H 47 83 V 35 56 H 47 11 Z M 59.183587,37.098441 58.867173,27 46.683587,26.997821 34.5,26.995642 l 0.315744,9.971012 0.315743,9.971013 11.684257,0.281166 L 58.5,47.5 59,47.348441 59.5,47.196883 Z M 36,37.5 V 29 H 47 58 V 37.5 46 H 47 36 Z m 12.132678,2.932767 5.06619,-2.567233 L 52.849434,37.553068 52.5,37.240601 47.25,34.603455 42,31.966308 V 37.483154 43 h 0.533244 0.533243 z M 21,46.428571 v -0.571428 l -1.460718,-1.460718 -1.460717,-1.460717 -0.686412,-3.65889 -0.686412,-3.65889 1.024119,-2.558964 1.024119,-2.558964 0.729999,-1.75 0.73,-1.75 H 17.106989 14 V 37 47 H 17.5 21 Z M 80,37 V 27 h -3 -3 l 0.03544,0.75 0.03544,0.75 1.42912,2.5 1.429129,2.5 0.0317,3 0.0317,3 -1.996262,3.27417 L 73,46.048339 V 46.52417 47 H 76.5 80 Z M 31,42.616631 V 39.233263 L 29,38.710251 27,38.187239 V 36.5 34.812761 l 2,-0.523012 2,-0.523012 V 30.883369 28 H 28.454545 25.909091 L 23.454545,30.454545 21,32.909091 v 3.956561 3.956561 L 24.076725,43.411106 27.153451,46 H 29.076725 31 Z M 69.923275,43.411106 73,40.822213 V 36.865652 32.909091 L 70.545455,30.454545 68.090909,28 H 65.545455 63 v 2.589707 2.589708 l 2.159109,1.74834 2.159109,1.748341 -0.718126,1.161952 L 65.881966,39 H 64.440983 63 v 3.5 3.5 h 1.923275 1.923274 z M 34.286513,16.264024 29.073025,15.898013 23.286513,16.259922 17.5,16.621831 l 11,0.0041 11,0.0041 -5.213487,-0.366011 z"
       id="path28"
       inkscape:connector-curvature="0" />
    <path
       style="fill:#83827f"
       d="M 11,35 V 14 H 47 83 V 35 56 H 47 11 Z M 59.183587,37.098441 58.867173,27 46.683587,26.997821 34.5,26.995642 l 0.315744,9.971012 0.315743,9.971013 11.684257,0.281166 L 58.5,47.5 59,47.348441 59.5,47.196883 Z M 38.337576,45.249644 37.175152,44.490216 36.837576,36.74278 36.5,28.995345 47.290442,28.997672 58.080885,29 57.790442,37.25 57.5,45.5 l -9,0.254537 -9,0.254536 z M 51,38.982376 l 2.5,-1.748852 2,-0.50076 2,-0.500761 L 54.210162,36.116001 50.920324,36 47,34 43.079676,32 H 42.539838 42 v 6.02568 6.02568 l 3.25,-1.660066 3.25,-1.660066 z m 4.761659,2.330544 -1.738341,-0.455078 -2.261659,0.434897 -2.261659,0.434897 4,0.02018 4,0.02018 z M 55.25,32.294267 53,31.860898 50.75,32.294267 48.5,32.727636 H 53 57.5 Z M 21,46.428571 v -0.571428 l -1.460718,-1.460718 -1.460717,-1.460717 -0.686412,-3.65889 -0.686412,-3.65889 1.024119,-2.558964 1.024119,-2.558964 0.729999,-1.75 0.73,-1.75 H 17.106989 14 V 37 47 H 17.5 21 Z M 80,37 V 27 h -3 -3 l 0.03544,0.75 0.03544,0.75 1.42912,2.5 1.429129,2.5 0.0317,3 0.0317,3 -1.996262,3.27417 L 73,46.048339 V 46.52417 47 H 76.5 80 Z M 31,42.616631 V 39.233263 L 29,38.710251 27,38.187239 V 36.5 34.812761 l 2,-0.523012 2,-0.523012 V 30.883369 28 H 28.454545 25.909091 L 23.454545,30.454545 21,32.909091 v 3.956561 3.956561 L 24.076725,43.411106 27.153451,46 H 29.076725 31 Z M 69.923275,43.411106 73,40.822213 V 36.865652 32.909091 L 70.545455,30.454545 68.090909,28 H 65.545455 63 v 2.589707 2.589708 l 2.159109,1.74834 2.159109,1.748341 -0.718126,1.161952 L 65.881966,39 H 64.440983 63 v 3.5 3.5 h 1.923275 1.923274 z M 34.286513,16.264024 29.073025,15.898013 23.286513,16.259922 17.5,16.621831 l 11,0.0041 11,0.0041 -5.213487,-0.366011 z"
       id="path26"
       inkscape:connector-curvature="0" />
    <path
       style="fill:#ed0c7a"
       d="M 11,34.5 V 14 H 47 83 V 34.5 55 H 47 11 Z M 21,47.315724 V 46.631449 L 18.835128,42.15942 16.670256,37.687392 17.697607,34.093696 18.724957,30.5 19.469467,28.75 20.213978,27 H 17.106989 14 V 37.5 48 H 17.5 21 Z M 59.784983,37.25 60.069966,27 H 47.034983 34 V 37.529877 48.059754 L 46.75,47.779877 59.5,47.5 Z M 38.337576,45.249644 37.175152,44.490216 36.837576,36.74278 36.5,28.995345 47.290442,28.997672 58.080885,29 57.790442,37.25 57.5,45.5 l -9,0.254537 -9,0.254536 z M 51,38.982376 l 2.5,-1.748852 2,-0.50076 2,-0.500761 L 54.210162,36.116001 50.920324,36 47,34 43.079676,32 H 42.539838 42 v 6.02568 6.02568 l 3.25,-1.660066 3.25,-1.660066 z m 4.761659,2.330544 -1.738341,-0.455078 -2.261659,0.434897 -2.261659,0.434897 4,0.02018 4,0.02018 z M 55.25,32.294267 53,31.860898 50.75,32.294267 48.5,32.727636 H 53 57.5 Z M 80,37.5 V 27 h -3 -3 v 1.3 1.3 l 1.128263,1.128263 1.128263,1.128263 -0.09425,4.695348 -0.09425,4.695348 -1.534017,2.341206 L 73,45.929633 V 46.964817 48 H 76.5 80 Z M 31.816971,42.744314 32.133942,39.988629 30.316971,39.317256 28.5,38.645883 27.807202,37.60648 27.114405,36.567077 28.179647,35.283538 29.244889,34 h 1.440914 1.440914 L 31.813358,30.75 31.5,27.5 28.62859,27.704887 25.75718,27.909774 23.763827,29.704887 21.770474,31.5 l -0.915251,2.394042 -0.915251,2.394042 1.106543,3.352857 1.106542,3.352856 2.173472,1.536098 L 26.5,46.065992 29,45.782996 31.5,45.5 Z M 70.363636,43.363636 73,40.727273 73.115154,38.613636 73.230309,36.5 l -0.19235,-2 -0.19235,-2 L 70.614601,30.214524 68.383594,27.929049 65.441797,27.714524 62.5,27.5 62.196386,30.619348 61.892772,33.738696 63.946386,34.275729 66,34.812761 v 1.976988 1.976988 l -2,0.523012 -2,0.523012 v 2.426953 2.426953 L 62.666667,45.333333 63.333333,46 h 2.19697 2.19697 z M 37,17.051043 41.5,16.250333 29,16.267072 16.5,16.283811 20.5,17 l 4,0.716189 4,0.06778 4,0.06778 4.5,-0.800711 z"
       id="path24"
       inkscape:connector-curvature="0" />
    <path
       style="fill:#656667"
       d="M 11,34.5 V 14 H 47 83 V 34.5 55 H 47 11 Z M 21,47.315724 V 46.631449 L 18.835128,42.15942 16.670256,37.687392 17.697607,34.093696 18.724957,30.5 19.469467,28.75 20.213978,27 H 17.106989 14 V 37.5 48 H 17.5 21 Z M 59.784983,37.25 60.069966,27 H 47.034983 34 V 37.529877 48.059754 L 46.75,47.779877 59.5,47.5 Z M 80,37.5 V 27 h -3 -3 v 1.3 1.3 l 1.128263,1.128263 1.128263,1.128263 -0.09425,4.695348 -0.09425,4.695348 -1.534017,2.341206 L 73,45.929633 V 46.964817 48 H 76.5 80 Z M 31.816971,42.744314 32.133942,39.988629 30.316971,39.317256 28.5,38.645883 27.807202,37.60648 27.114405,36.567077 28.179647,35.283538 29.244889,34 h 1.440914 1.440914 L 31.813358,30.75 31.5,27.5 28.62859,27.704887 25.75718,27.909774 23.763827,29.704887 21.770474,31.5 l -0.915251,2.394042 -0.915251,2.394042 1.106543,3.352857 1.106542,3.352856 2.173472,1.536098 L 26.5,46.065992 29,45.782996 31.5,45.5 Z M 70.363636,43.363636 73,40.727273 73.115154,38.613636 73.230309,36.5 l -0.19235,-2 -0.19235,-2 L 70.614601,30.214524 68.383594,27.929049 65.441797,27.714524 62.5,27.5 62.196386,30.619348 61.892772,33.738696 63.946386,34.275729 66,34.812761 v 1.976988 1.976988 l -2,0.523012 -2,0.523012 v 2.426953 2.426953 L 62.666667,45.333333 63.333333,46 h 2.19697 2.19697 z M 37,17.051043 41.5,16.250333 29,16.267072 16.5,16.283811 20.5,17 l 4,0.716189 4,0.06778 4,0.06778 4.5,-0.800711 z"
       id="path22"
       inkscape:connector-curvature="0" />
    <path
       style="fill:#5f5f60"
       d="M 11,35 V 15 l 3.75,0.09968 3.75,0.09968 -2.5,0.695655 -2.5,0.695656 V 34.794757 52.998843 L 47.25,52.999422 81,53 V 35 17 L 70.25,16.822838 59.5,16.645677 l -6,0.214949 -6,0.214948 L 43,16.147353 38.5,15.219131 60.75,15.109566 83,15 V 35 55 H 47 11 Z M 32.890184,46.75 32.780368,45.5 32.58877,36.686284 32.397173,27.872567 33.198587,27.377267 34,26.881966 V 37.440983 48 H 33.5 33 Z m -12.799929,-1.977087 -1.334036,-2.13613 -0.813837,-2.837686 -0.813838,-2.837686 1.042661,0.6444 1.042661,0.644399 L 18.609475,34.875105 18.005084,31.5 l 0.927173,2 0.927172,2 0.07029,2.173275 L 20,39.846549 22.702009,43.173275 25.404018,46.5 22.702009,44.075686 20,41.651372 V 42.625686 43.6 l 1.183333,1.183333 1.183334,1.183334 -0.471189,0.471188 -0.471188,0.471188 z M 26.75,46.337719 28,45.833333 l 1.25,0.504386 1.25,0.504386 H 28 25.5 Z M 60,37 V 26.881966 l 0.972815,0.601233 0.972816,0.601233 -0.509789,5.373833 -0.509789,5.373833 2.036974,-0.53268 L 65,37.766737 V 36.966702 36.166667 L 63.75,35.662281 62.5,35.157895 64.25,35.078947 66,35 v 1.59362 1.593619 l -2,0.523012 -2,0.523012 -0.110691,1.133368 -0.110691,1.133369 0.16974,2.154489 0.169741,2.154488 -1.05905,0.654529 L 60,47.118034 Z m 5.790956,9.015562 3.290956,-0.779716 1.758053,-1.367923 L 72.598019,42.5 70.243246,44.75 67.888473,47 65.194236,46.897639 62.5,46.795277 Z m 7.309435,-1.720084 1.323899,-2.204521 0.478331,0.478331 0.478331,0.478331 -1.802229,1.726191 -1.80223,1.72619 z m 1.432477,-5.19192 -0.601907,-1.896441 0.246972,-0.853559 L 74.424904,35.5 73.157286,33 l -1.267618,-2.5 1.454165,1.803003 1.454165,1.803002 0.522054,-1.303002 L 75.842105,31.5 75.921053,36.25 76,41 H 75.567388 75.134775 Z M 28.666667,38.333333 28,37.666667 V 36.333333 35 l 1.75,0.07895 1.75,0.07895 -1.25,0.504386 -1.25,0.504386 v 0.843342 0.843343 l 1.75,0.457322 1.75,0.457323 -1.583333,0.116002 L 29.333333,39 Z M 20,29 21.070368,27 h 0.5 0.5 L 21,29 19.929632,31 h -0.5 -0.5 z m 53,0 -1.070368,-2 h 0.5 0.5 L 74,29 l 1.070368,2 h -0.5 -0.5 z M 68,28 66.5,27.030626 67.690983,27.015313 68.881966,27 69.5,28 70.118034,29 69.809017,28.984687 69.5,28.969374 Z M 15,19.573324 V 18.146648 L 16.663991,17.823324 18.327983,17.5 49.163991,17.777893 80,18.055786 V 19.527893 21 H 47.5 15 Z"
       id="path20"
       inkscape:connector-curvature="0" />
    <path
       style="fill:#4b4a4d"
       d="M 11,35 V 15 l 2.75,0.136182 2.75,0.136182 -2.25,0.433369 L 12,16.139102 V 35.069551 54 H 47 82 V 35.020705 16.041411 L 61.75,15.748807 41.5,15.456203 62.25,15.228102 83,15 V 35 55 H 47 11 Z M 15,19.486147 V 17.972294 L 47.166991,18.236147 79.333982,18.5 79.750325,19.75 80.166667,21 H 47.583333 15 Z"
       id="path18"
       inkscape:connector-curvature="0" />
    <path
       style="fill:#2a212b"
       d="M 30.75,19.251794 47,18.950457 63.25,19.251794 79.5,19.553131 H 47 14.5 Z"
       id="path16"
       inkscape:connector-curvature="0" />
  </g>
</svg>
