<?xml version="1.0" encoding="UTF-8" standalone="no"?>
<!-- Created with Inkscape (http://www.inkscape.org/) -->

<svg
   xmlns:dc="http://purl.org/dc/elements/1.1/"
   xmlns:cc="http://creativecommons.org/ns#"
   xmlns:rdf="http://www.w3.org/1999/02/22-rdf-syntax-ns#"
   xmlns:svg="http://www.w3.org/2000/svg"
   xmlns="http://www.w3.org/2000/svg"
   xmlns:sodipodi="http://sodipodi.sourceforge.net/DTD/sodipodi-0.dtd"
   xmlns:inkscape="http://www.inkscape.org/namespaces/inkscape"
   version="1.1"
   id="svg2"
   width="126.66667"
   height="93.333336"
   viewBox="0 0 126.66667 93.333336"
   sodipodi:docname="musicsequencer.svg"
   inkscape:version="0.92.2 5c3e80d, 2017-08-06">
  <metadata
     id="metadata8">
    <rdf:RDF>
      <cc:Work
         rdf:about="">
        <dc:format>image/svg+xml</dc:format>
        <dc:type
           rdf:resource="http://purl.org/dc/dcmitype/StillImage" />
        <dc:title></dc:title>
      </cc:Work>
    </rdf:RDF>
  </metadata>
  <defs
     id="defs6" />
  <sodipodi:namedview
     pagecolor="#ffffff"
     bordercolor="#666666"
     borderopacity="1"
     objecttolerance="10"
     gridtolerance="10"
     guidetolerance="10"
     inkscape:pageopacity="0"
     inkscape:pageshadow="2"
     inkscape:window-width="1918"
     inkscape:window-height="1027"
     id="namedview4"
     showgrid="false"
     inkscape:pagecheckerboard="true"
     inkscape:zoom="2.1552631"
     inkscape:cx="63.333336"
     inkscape:cy="46.666668"
     inkscape:window-x="0"
     inkscape:window-y="0"
     inkscape:window-maximized="1"
     inkscape:current-layer="svg2" />
  <path
     style="fill:#ffffff;fill-opacity:1;stroke-width:0.4639805"
     d="m 18.79121,84.759466 c 0,-0.382784 -0.313187,-0.695971 -0.695971,-0.695971 -0.382784,0 -0.695971,-0.313187 -0.695971,-0.695971 0,-0.382784 -0.313187,-0.695971 -0.695971,-0.695971 -0.612767,0 -0.69597,-4.382035 -0.69597,-36.654458 0,-32.27242 0.0832,-36.6544579 0.69597,-36.6544579 0.382784,0 0.695971,-0.3131868 0.695971,-0.6959707 0,-0.3827839 0.313187,-0.6959707 0.695971,-0.6959707 0.382784,0 0.695971,-0.3131868 0.695971,-0.6959707 0,-0.6137308 5.181115,-0.6959708 43.846155,-0.6959708 38.665035,0 43.846155,0.08224 43.846155,0.6959708 0,0.3827839 0.31319,0.6959707 0.69597,0.6959707 0.38279,0 0.69597,0.3131868 0.69597,0.6959707 0,0.3827839 0.31319,0.6959707 0.69597,0.6959707 0.61277,0 0.69597,4.3820379 0.69597,36.6544579 0,32.272423 -0.0832,36.654458 -0.69597,36.654458 -0.38278,0 -0.69597,0.313187 -0.69597,0.695971 0,0.382784 -0.31318,0.695971 -0.69597,0.695971 -0.38278,0 -0.69597,0.313187 -0.69597,0.695971 0,0.61373 -5.18112,0.69597 -43.846155,0.69597 -38.66504,0 -43.846155,-0.08224 -43.846155,-0.69597 z"
     id="path12"
     inkscape:connector-curvature="0" />
  <g
     id="g46">
    <path
       style="fill:#76d1ed;stroke-width:1.33333337"
       d="M 18.666667,46.000001 V 9.3333336 H 62.666668 106.66667 V 46.000001 82.666669 H 62.666668 18.666667 Z m 36.000001,-4 v -4.666667 h -4.666667 -4.666666 v 4.666667 4.666667 h 4.666666 4.666667 z M 65.333335,35.333334 V 24.000001 h -4.666667 -4.666667 v 11.333333 11.333334 h 4.666667 4.666667 z m 10.666667,3.333334 v -8 h -4.666667 -4.666667 v 8 8 h 4.666667 4.666667 z M 86.666669,33.333334 V 20.000001 h -4.666667 -4.666667 v 13.333333 13.333334 h 4.666667 4.666667 z m 10.666667,4.666667 v -8.666667 h -4.666667 -4.666667 v 8.666667 8.666667 h 4.666667 4.666667 z m -61.579822,3 0.442018,-2.333333 h -5.431099 -5.431099 v 1.777777 1.777779 l 0.95208,0.95208 0.95208,0.95208 4.037001,-0.396525 4.037001,-0.396524 z m 0,-10.666667 0.442018,-2.333333 h -5.431099 -5.431099 v 1.777777 1.777779 l 0.95208,0.95208 0.95208,0.95208 4.037001,-0.396525 4.037001,-0.396524 z m 0,-10.666667 0.442018,-2.333333 h -5.431099 -5.431099 v 1.777777 1.777779 l 0.95208,0.95208 0.95208,0.95208 4.037001,-0.396525 4.037001,-0.396524 z"
       id="path76"
       inkscape:connector-curvature="0" />
    <path
       style="fill:#939da6;stroke-width:1.33333337"
       d="M 18.666667,46.000001 V 9.3333336 H 62.666668 106.66667 V 46.000001 82.666669 H 62.666668 18.666667 Z M 101.33334,31.333334 V 16 H 72.000002 42.666668 v 15.333334 15.333334 h 29.333334 29.333338 z m -65.579826,9.666667 0.442018,-2.333333 h -5.431099 -5.431099 v 1.777777 1.777779 l 0.95208,0.95208 0.95208,0.95208 4.037001,-0.396525 4.037001,-0.396524 z m 0,-10.666667 0.442018,-2.333333 h -5.431099 -5.431099 v 1.777777 1.777779 l 0.95208,0.95208 0.95208,0.95208 4.037001,-0.396525 4.037001,-0.396524 z m 0,-10.666667 0.442018,-2.333333 h -5.431099 -5.431099 v 1.777777 1.777779 l 0.95208,0.95208 0.95208,0.95208 4.037001,-0.396525 4.037001,-0.396524 z"
       id="path74"
       inkscape:connector-curvature="0" />
    <path
       style="fill:#94ef4b;stroke-width:1.33333337"
       d="M 18.666667,46.000001 V 9.3333336 H 62.666668 106.66667 V 46.000001 82.666669 H 62.666668 18.666667 Z M 101.33334,31.333334 V 16 H 72.000002 42.666668 v 15.333334 15.333334 h 29.333334 29.333338 z m -65.573938,9.666667 -0.426068,-3 -2.333333,0.166667 -2.333334,0.166666 -2.666666,0.166667 -2.666667,0.166667 v 2.666667 2.666666 h 5.426068 5.426068 z m 0.593175,-8.463688 0.797021,-0.79702 -0.71745,-1.869647 -0.717451,-1.869645 h -5.190682 -5.190681 v 2.666667 2.666666 h 5.111111 5.111112 z m 0.314091,-12.536312 v -2 l -5.666667,-0.409998 -5.666667,-0.409997 v 2.819995 2.819994 l 5.666667,-0.409997 5.666667,-0.409997 z"
       id="path72"
       inkscape:connector-curvature="0" />
    <path
       style="fill:#758591;stroke-width:1.33333337"
       d="M 18.666667,46.000001 V 9.3333336 H 62.666668 106.66667 V 46.000001 82.666669 H 62.666668 18.666667 Z m 13.333334,23.333334 v -1.333333 h -1.333334 -1.333333 v 1.333333 1.333334 h 1.333333 1.333334 z M 101.33334,31.333334 V 16 H 72.000002 42.666668 v 15.333334 15.333334 h 29.333334 29.333338 z m -65.573938,9.666667 -0.426068,-3 -2.333333,0.166667 -2.333334,0.166666 -2.666666,0.166667 -2.666667,0.166667 v 2.666667 2.666666 h 5.426068 5.426068 z m 0.593175,-8.463688 0.797021,-0.79702 -0.71745,-1.869647 -0.717451,-1.869645 h -5.190682 -5.190681 v 2.666667 2.666666 h 5.111111 5.111112 z m 0.314091,-12.536312 v -2 l -5.666667,-0.409998 -5.666667,-0.409997 v 2.819995 2.819994 l 5.666667,-0.409997 5.666667,-0.409997 z"
       id="path70"
       inkscape:connector-curvature="0" />
    <path
       style="fill:#ec0879;stroke-width:1.33333337"
       d="M 18.666667,46.000001 V 9.3333336 H 62.666668 106.66667 V 46.000001 82.666669 H 62.666668 18.666667 Z m 13.333334,23.333334 v -1.333333 h -1.333334 -1.333333 v 1.333333 1.333334 h 1.333333 1.333334 z M 101.33334,31.333334 V 16 H 72.084479 42.835624 l -0.417812,4.333334 -0.417811,4.333333 0.431299,11.000001 0.431297,11 h 29.23537 29.235373 z m -64.666672,9.333334 v -2.666667 l -5.175706,-0.424295 -5.175704,-0.424296 -1.334672,1.334672 -1.334672,1.334672 0.831511,2.166883 0.83151,2.166884 5.678867,-0.410593 5.678866,-0.410593 z m 0.236136,-9.4679 0.81911,-2.134567 -1.860957,-1.17835 -1.860956,-1.178349 h -3.333334 -3.333333 l -1.860956,1.178349 -1.860957,1.17835 0.81911,2.134567 0.81911,2.134566 h 5.417026 5.417027 z M 36.666668,19.333334 v -2.666667 l -4.702656,-0.262459 -4.702655,-0.262457 -1.824968,1.127892 -1.824968,1.127891 0.848757,2.211827 0.848757,2.211826 5.678867,-0.410593 5.678866,-0.410593 z"
       id="path68"
       inkscape:connector-curvature="0" />
    <path
       style="fill:#5db05f;stroke-width:1.33333337"
       d="M 18.666667,46.000001 V 9.3333336 H 62.666668 106.66667 V 46.000001 82.666669 H 62.666668 18.666667 Z m 13.333334,23.333334 v -1.333333 h -1.333334 -1.333333 v 1.333333 1.333334 h 1.333333 1.333334 z m 20,-5.333333 v -1.333334 h -2.666666 -2.666667 v 1.333334 1.333333 h 2.666667 2.666666 z m 10.666667,0 v -1.333334 h -2.666666 -2.666667 v 1.333334 1.333333 h 2.666667 2.666666 z m 12.000001,0 v -1.333334 h -2.666667 -2.666667 v 1.333334 1.333333 h 2.666667 2.666667 z m 10.666667,0 v -1.333334 h -2.666667 -2.666667 v 1.333334 1.333333 h 2.666667 2.666667 z m 10.666667,0 v -1.333334 h -2.666667 -2.666667 v 1.333334 1.333333 h 2.666667 2.666667 z M 101.33334,31.333334 V 16 H 72.084479 42.835624 l -0.417812,4.333334 -0.417811,4.333333 0.431299,11.000001 0.431297,11 h 29.23537 29.235373 z m -64.666672,9.333334 v -2.666667 l -5.175706,-0.424295 -5.175704,-0.424296 -1.334672,1.334672 -1.334672,1.334672 0.831511,2.166883 0.83151,2.166884 5.678867,-0.410593 5.678866,-0.410593 z m 0.236136,-9.4679 0.81911,-2.134567 -1.860957,-1.17835 -1.860956,-1.178349 h -3.333334 -3.333333 l -1.860956,1.178349 -1.860957,1.17835 0.81911,2.134567 0.81911,2.134566 h 5.417026 5.417027 z M 36.666668,19.333334 v -2.666667 l -4.702656,-0.262459 -4.702655,-0.262457 -1.824968,1.127892 -1.824968,1.127891 0.848757,2.211827 0.848757,2.211826 5.678867,-0.410593 5.678866,-0.410593 z"
       id="path66"
       inkscape:connector-curvature="0" />
    <path
       style="fill:#5e7482;stroke-width:1.33333337"
       d="M 18.666667,46.000001 V 9.3333336 H 62.666668 106.66667 V 46.000001 82.666669 H 62.666668 18.666667 Z m 14.412839,23.666668 -0.449358,-2.333334 h -1.963481 -1.96348 l -0.449358,2.333334 -0.449359,2.333333 h 2.862197 2.862198 z m 18.920495,-5.666667 v -1.333334 h -2.666666 -2.666667 v 1.333334 1.333333 h 2.666667 2.666666 z m 10.666667,0 v -1.333334 h -2.666666 -2.666667 v 1.333334 1.333333 h 2.666667 2.666666 z m 12.000001,0 v -1.333334 h -2.666667 -2.666667 v 1.333334 1.333333 h 2.666667 2.666667 z m 10.666667,0 v -1.333334 h -2.666667 -2.666667 v 1.333334 1.333333 h 2.666667 2.666667 z m 10.666667,0 v -1.333334 h -2.666667 -2.666667 v 1.333334 1.333333 h 2.666667 2.666667 z M 101.33334,31.333334 V 16 H 72.084479 42.835624 l -0.417812,4.333334 -0.417811,4.333333 0.431299,11.000001 0.431297,11 h 29.23537 29.235373 z m -64.666672,9.333334 v -2.666667 l -5.175706,-0.424295 -5.175704,-0.424296 -1.334672,1.334672 -1.334672,1.334672 0.831511,2.166883 0.83151,2.166884 5.678867,-0.410593 5.678866,-0.410593 z m 0.236136,-9.4679 0.81911,-2.134567 -1.860957,-1.17835 -1.860956,-1.178349 h -3.333334 -3.333333 l -1.860956,1.178349 -1.860957,1.17835 0.81911,2.134567 0.81911,2.134566 h 5.417026 5.417027 z M 36.666668,19.333334 v -2.666667 l -4.702656,-0.262459 -4.702655,-0.262457 -1.824968,1.127892 -1.824968,1.127891 0.848757,2.211827 0.848757,2.211826 5.678867,-0.410593 5.678866,-0.410593 z"
       id="path64"
       inkscape:connector-curvature="0" />
    <path
       style="fill:#a0585b;stroke-width:1.33333337"
       d="M 18.666667,46.000001 V 9.3333336 H 62.666668 106.66667 V 46.000001 82.666669 H 62.666668 18.666667 Z m 14.64625,24.333334 -0.02042,-1.666666 -1.312916,-2 -1.312917,-2 -1.312916,2 -1.312916,2 -0.02042,1.666666 -0.02042,1.666667 h 2.666666 2.666667 l -0.02041,-1.666667 z m 18.687084,-6.333333 v -1.333334 h -2.666666 -2.666667 v 1.333334 1.333333 h 2.666667 2.666666 z m 10.666667,0 v -1.333334 h -2.666666 -2.666667 v 1.333334 1.333333 h 2.666667 2.666666 z m 12.000001,0 v -1.333334 h -2.666667 -2.666667 v 1.333334 1.333333 h 2.666667 2.666667 z m 10.666667,0 v -1.333334 h -2.666667 -2.666667 v 1.333334 1.333333 h 2.666667 2.666667 z m 10.666667,0 v -1.333334 h -2.666667 -2.666667 v 1.333334 1.333333 h 2.666667 2.666667 z M 101.33334,31.307825 V 15.948983 L 71.666669,16.307824 42.000001,16.666667 41.623,31.666668 l -0.377002,15 h 30.043669 30.043673 z m -64.240604,9.692176 -0.426068,-3 h -6.000001 -6 l -0.426068,3 -0.426068,3 h 6.852136 6.852137 z m 0,-10.666667 -0.426068,-3 h -6.000001 -6 l -0.426068,3 -0.426068,3 h 6.852136 6.852137 z m 0,-10.666667 -0.426068,-3 h -6.000001 -6 l -0.426068,3 -0.426068,3 h 6.852136 6.852137 z"
       id="path62"
       inkscape:connector-curvature="0" />
    <path
       style="fill:#4e6979;stroke-width:1.33333337"
       d="M 18.666667,46.000001 V 9.3333336 H 62.666668 106.66667 V 46.000001 82.666669 H 62.666668 18.666667 Z m 14.64625,24.333334 -0.02042,-1.666666 -1.312916,-2 -1.312917,-2 -1.312916,2 -1.312916,2 -0.02042,1.666666 -0.02042,1.666667 h 2.666666 2.666667 l -0.02041,-1.666667 z M 76.000002,64.000002 V 62.97754 l -3.247139,-0.620729 -3.247139,-0.620731 -1.752861,1.131962 -1.752861,1.13196 1.752861,1.13196 1.752861,1.131961 3.247139,-0.62073 3.247139,-0.62073 z m -22.666667,0 v -1.333334 h -4 -4 v 1.333334 1.333333 h 4 4 z m 10.666667,0 v -1.333334 h -4 -4.000001 v 1.333334 1.333333 h 4.000001 4 z m 22.666667,0 v -1.333334 h -4 -4 v 1.333334 1.333333 h 4 4 z m 10.666667,0 v -1.333334 h -4 -4 v 1.333334 1.333333 h 4 4 z m -63.048087,-4.835724 0.494124,-1.502391 -2.225351,-0.853947 -2.225349,-0.853946 -1.816323,1.507413 -1.816321,1.507413 0.777798,1.258506 0.777799,1.258504 2.769751,-0.40958 2.769749,-0.409582 z M 101.33334,31.307825 V 15.948983 L 71.666669,16.307824 42.000001,16.666667 41.623,31.666668 l -0.377002,15 h 30.043669 30.043673 z m -64.240604,9.692176 -0.426068,-3 h -6.000001 -6 l -0.426068,3 -0.426068,3 h 6.852136 6.852137 z m 0,-10.666667 -0.426068,-3 h -6.000001 -6 l -0.426068,3 -0.426068,3 h 6.852136 6.852137 z m 0,-10.666667 -0.426068,-3 h -6.000001 -6 l -0.426068,3 -0.426068,3 h 6.852136 6.852137 z"
       id="path60"
       inkscape:connector-curvature="0" />
    <path
       style="fill:#555876;stroke-width:1.33333337"
       d="M 18.666667,46.000001 V 9.3333336 H 62.666668 106.66667 V 46.000001 82.666669 H 62.666668 18.666667 Z m 14.996033,24.34524 0.551586,-1.654763 -1.773809,-1.773809 -1.77381,-1.77381 -1.773809,1.77381 -1.773809,1.773809 0.551586,1.654763 0.551588,1.654761 h 2.444444 2.444445 z m 19.670635,-6.011906 v -1.666667 h -2.666667 -2.666667 l -1,-0.07043 -1,-0.07043 -0.366905,1.737095 -0.366904,1.737095 h 4.033571 4.033572 v -1.666667 z m 10.666667,0.333334 v -2.000001 h -4 -4.000001 v 1.244771 1.24477 l 3.666667,0.555454 3.666667,0.555454 0.333333,0.199776 0.333334,0.199776 z m 12,-0.666667 V 62.97754 l -3.247139,-0.620729 -3.247139,-0.620731 -1.752861,1.131962 -1.752861,1.13196 1.752861,1.13196 1.752861,1.131961 3.247139,-0.62073 3.247139,-0.62073 z m 21.333334,-0.102414 v -2.102409 l -4,0.587075 -4,0.587076 v 0.959778 0.959779 l 0.555556,0.555555 0.555554,0.555556 h 3.444446 l 3.444444,4e-6 v -2.10241 z m -10.666667,0.102414 v -1.333334 h -4.745356 -4.745356 l 0.824045,1.333334 0.824045,1.333333 h 3.921311 3.921311 z M 34.666668,59.749255 v -1.273063 l -2,-2 -2.000001,-2 -2.132409,2.13241 -2.132411,2.13241 1.514767,1.825182 1.514767,1.825182 2.617644,-0.684529 2.617643,-0.684529 z M 101.33334,31.333334 V 16 H 71.333335 41.333334 v 15.333334 15.333334 h 30.000001 30.000005 z m -64.000006,9.254644 v -3.254644 h -6.666667 -6.666666 v 3.25667 3.256669 l 5.666666,0.419456 5.666667,0.419455 1,-0.42148 1,-0.421481 z m -0.24477,-10.254644 0.421897,-3.666667 H 30.75523 24.000001 v 3.111111 3.111112 l 0.558928,0.555555 0.558926,0.555556 h 5.774407 5.774406 z M 36.666668,19.847746 v -3.181079 l -5.678866,-0.410593 -5.678867,-0.410594 -0.797118,2.077261 -0.79712,2.07726 0.638442,1.666666 0.638443,1.666667 5.837543,-0.152255 5.837543,-0.152254 z"
       id="path58"
       inkscape:connector-curvature="0" />
    <path
       style="fill:#386279;stroke-width:1.33333337"
       d="M 18.666667,46.000001 V 9.3333336 H 62.666668 106.66667 V 46.000001 82.666669 H 62.666668 18.666667 Z m 14.996033,24.34524 0.551586,-1.654763 -1.773809,-1.773809 -1.77381,-1.77381 -1.773809,1.77381 -1.773809,1.773809 0.551586,1.654763 0.551588,1.654761 h 2.444444 2.444445 z m 19.670635,-6.345239 v -2.222223 h -4 -4 v 2.222223 2.222223 h 4 4 z m 11.728876,-0.24352 0.416619,-2.163332 -4.739414,0.134344 -4.739415,0.134342 v 2.246394 2.246393 l 4.322795,-0.217405 4.322795,-0.217404 z m 10.937791,0.8434 V 62.97754 l -3.666667,-0.719534 -3.666667,-0.719535 -1.15049,1.114589 -1.15049,1.114588 0.758506,1.227289 0.758505,1.227288 h 4.058651 4.058652 z M 86.666669,63.85735 v -2.809319 l -2.109049,0.809319 -2.109051,0.809318 h -2.720876 -2.720876 l 1.659852,2.000001 1.659852,2 h 3.170075 3.170073 z m 10.979583,0.825888 0.979583,-1.349903 0.02042,-0.868031 0.02042,-0.86803 -4.666667,0.13228 -4.666666,0.13228 v 2.261366 2.261369 l 3.666666,-0.175716 3.666667,-0.175715 0.979583,-1.349903 z m -65.088634,-2.825888 2.10905,-0.809319 v -1.694088 -1.694089 l -2.066918,-1.71539 -2.066919,-1.715389 -2.151878,2.151879 -2.151879,2.151878 1.715389,2.066919 1.71539,2.066917 h 0.394357 0.394357 z M 101.33334,31.333334 V 16 H 71.333335 41.333334 v 15.333334 15.333334 h 30.000001 30.000005 z m -64.000006,9.254644 v -3.254644 h -6.666667 -6.666666 v 3.25667 3.256669 l 5.666666,0.419456 5.666667,0.419455 1,-0.42148 1,-0.421481 z m -0.24477,-10.254644 0.421897,-3.666667 H 30.75523 24.000001 v 3.111111 3.111112 l 0.558928,0.555555 0.558926,0.555556 h 5.774407 5.774406 z M 36.666668,19.847746 v -3.181079 l -6.984689,-0.402481 -6.984689,-0.402483 0.651356,2.06915 0.651355,2.069148 0.49579,1.666666 0.495791,1.666667 5.837543,-0.152255 5.837543,-0.152254 z"
       id="path56"
       inkscape:connector-curvature="0" />
    <path
       style="fill:#395b7a;stroke-width:1.33333337"
       d="M 18.666667,46.000001 V 9.3333336 H 62.666668 106.66667 V 46.000001 82.666669 H 62.666668 18.666667 Z m 85.333333,0 V 12 H 62.666668 21.333334 l 0.175521,17.666668 0.175522,17.666667 0.98229,-4.666667 0.982291,-4.666667 0.175521,3 0.175522,3 5.666666,0.157895 5.666667,0.157895 1,-0.157895 1,-0.157895 v 1.93499 1.934989 l -5.666667,-0.07559 -5.666666,-0.07559 -2.333334,0.140593 -2.333333,0.140601 v 16.000001 16 H 62.666668 104 Z M 48.000001,72.000002 v -6.666667 h 1.333334 1.333333 v 6.666667 6.666667 h -1.333333 -1.333334 z m 10.666667,0 v -6.666667 h 1.333334 1.333333 v 6.666667 6.666667 h -1.333333 -1.333334 z m 12.000001,0 v -6.666667 h 1.333333 1.333333 v 6.666667 6.666667 h -1.333333 -1.333333 z m 10.666666,0.666667 v -6 h 1.333334 1.333333 v 6 6 h -1.333333 -1.333334 z m 10.666667,-0.666667 v -6.666667 h 1.333334 1.333333 v 6.666667 6.666667 h -1.333333 -1.333334 z m -64.757973,1 -2.504606,-3 1.897956,1.666667 1.897955,1.666666 h 2.987977 2.987978 l 0.824045,1.333334 0.824046,1.333333 h -3.205372 -3.205374 z m -0.575362,-6.333333 v -1.333334 h 1.412023 1.412023 l -0.824046,1.333334 -0.824045,1.333333 h -0.587977 -0.587978 z m 3.333334,-1.844378 -4,-2.949344 -0.352646,-1.936472 -0.352645,-1.936473 1.921393,2.454261 1.921395,2.454261 2.764584,-0.877444 2.764586,-0.877445 v 3.423183 3.423184 l -0.333334,-0.114187 -0.333333,-0.114186 -4,-2.949344 z m 16.631726,-4.057231 -1.234943,-1.234942 1.366353,-1.646355 1.366354,-1.646355 -1.339847,-0.828069 -1.339845,-0.828071 0.730748,-1.904298 0.730748,-1.904299 -2.699045,0.519788 -2.699042,0.519788 0.193802,-2.57279 0.193803,-2.572789 h 29.637572 29.637575 l 0.72198,1.168199 0.72199,1.168198 -3.97663,-0.338385 -3.976631,-0.338387 v 7.170189 7.170186 h -1.333333 -1.333334 v -6 -6 h -4 -4 v 6 6 h -1.456733 -1.456732 l 0.456732,-7.05039 0.456733,-7.050391 -4.333333,0.0028 -4.333334,0.0028 v 7.04762 7.047561 h -1.333333 -1.333333 v -7.333333 -7.333334 l -5.000001,-0.0019 -5,-0.0019 0.437407,7.001819 0.437408,7.001915 h -6.837408 -6.837407 z m -20.421072,-4.332182 -0.877321,-0.87732 v -1.177651 -1.177649 l 7.348668,0.399872 7.348668,0.399872 0.317999,1.200468 0.317999,1.200468 -3.174676,0.484489 -3.174676,0.484491 -1.825324,-1.514884 -1.825325,-1.514884 -1.789345,1.485024 -1.789347,1.485025 z m 75.609655,-23.76621 0.006,-13.333334 0.49125,7.044696 0.49125,7.044696 -0.49756,6.288638 -0.49757,6.288637 0.006,-13.333333 z m -75.463097,3.700358 4.357212,-0.539542 3.642788,0.553149 3.642788,0.553149 -8,-0.0136 -8,-0.01361 z m -3.690546,-5.033692 v -3.333333 h 0.511231 0.511231 l 0.637206,3.333333 0.637207,3.333334 h -1.148437 -1.148438 z m 3.690546,-5.632975 4.357212,-0.539542 3.642788,0.553149 3.642788,0.553149 -8,-0.0136 -8,-0.01361 z m -3.690546,-5.033692 v -3.333333 h 0.511231 0.511231 l 0.637206,3.333333 0.637207,3.333334 h -1.148437 -1.148438 z m 5.666667,2.414232 2.333333,-0.609762 2.333334,0.609762 2.333333,0.609764 h -4.666667 -4.666666 z m 1,-7.080899 -7.333333,-0.898676 7.666666,-0.217328 7.666667,-0.217329 V 16 17.333334 l -0.333333,-0.21733 -0.333333,-0.217328 z M 56.408561,15.003659 72.150457,14.580738 87.075229,15.005362 102,15.429984 l -30.666665,-0.0017 -30.666667,-0.0017 15.741893,-0.422922 z"
       id="path54"
       inkscape:connector-curvature="0" />
    <path
       style="fill:#33576c;stroke-width:1.33333337"
       d="M 18.666667,46.000001 V 9.3333336 H 62.666668 106.66667 V 46.000001 82.666669 H 62.666668 18.666667 Z m 85.333333,0 V 12 H 62.666668 21.333334 V 46.000001 80.000002 H 62.666668 104 Z M 48.000001,72.000002 v -6.666667 h 1.333334 1.333333 v 6.666667 6.666667 h -1.333333 -1.333334 z m 10.666667,0 v -6.666667 h 1.333334 1.333333 v 6.666667 6.666667 h -1.333333 -1.333334 z m 12.000001,0 v -6.666667 h 1.333333 1.333333 v 6.666667 6.666667 h -1.333333 -1.333333 z m 10.666666,0.666667 v -6 h 1.333334 1.333333 v 6 6 h -1.333333 -1.333334 z m 10.666667,-0.666667 v -6.666667 h 1.333334 1.333333 v 6.666667 6.666667 h -1.333333 -1.333334 z m -62.916668,1.755848 1.75,-0.700292 0.805556,0.805555 0.805555,0.805556 -2.555555,-0.105263 -2.555556,-0.105264 z M 48.000001,56.666668 v -6 h 1.333334 1.333333 v 6 6 h -1.333333 -1.333334 z m 10.666667,0 v -6 h 1.333334 1.333333 v 6 6 h -1.333333 -1.333334 z m 12.000001,0 v -6 h 1.333333 1.333333 v 6 6 h -1.333333 -1.333333 z m 10.666666,0 v -6 h 1.333334 1.333333 v 6 6 h -1.333333 -1.333334 z m 10.666667,0 v -6 h 1.333334 1.333333 v 6 6 h -1.333333 -1.333334 z m 9.820308,-24 0.006,-13.333334 0.49125,7.044696 0.49125,7.044696 -0.49756,6.288638 -0.49757,6.288637 0.006,-13.333333 z m -72.804764,3.723652 3.015546,-0.579863 2.317788,0.606771 2.317788,0.606769 -5.333334,-0.02691 -5.333333,-0.02691 3.015545,-0.579863 z m 0.06779,-10.634471 1.75,-0.700292 0.805556,0.805554 0.805555,0.805556 -2.555555,-0.105262 -2.555556,-0.105264 z"
       id="path52"
       inkscape:connector-curvature="0" />
    <path
       style="fill:#274454;stroke-width:1.33333337"
       d="M 18.666667,46.000001 V 9.3333336 H 62.666668 106.66667 V 46.000001 82.666669 H 62.666668 18.666667 Z m 86.666673,0 V 10.666667 H 62.666668 20.000001 V 46.000001 81.333336 H 62.666668 105.33334 Z M 48.000001,72.000002 v -6.666667 h 1.333334 1.333333 v 6.666667 6.666667 h -1.333333 -1.333334 z m 10.666667,0 v -6.666667 h 1.333334 1.333333 v 6.666667 6.666667 h -1.333333 -1.333334 z m 12.000001,0 v -6.666667 h 1.333333 1.333333 v 6.666667 6.666667 h -1.333333 -1.333333 z m 10.666666,0.666667 v -6 h 1.333334 1.333333 v 6 6 h -1.333333 -1.333334 z m 10.666667,-0.666667 v -6.666667 h 1.333334 1.333333 v 6.666667 6.666667 H 93.333336 92.000002 Z M 48.000001,56.666668 v -6 h 1.333334 1.333333 v 6 6 h -1.333333 -1.333334 z m 10.666667,0 v -6 h 1.333334 1.333333 v 6 6 h -1.333333 -1.333334 z m 12.000001,0 v -6 h 1.212858 1.21286 l -0.09071,6 -0.09071,6 h -1.122155 -1.12215 z m 10.666666,0 v -6 h 1.333334 1.333333 v 6 6 h -1.333333 -1.333334 z m 10.666667,0 v -6 h 1.333334 1.333333 v 6 6 h -1.333333 -1.333334 z"
       id="path50"
       inkscape:connector-curvature="0" />
    <path
       style="fill:#193143;stroke-width:1.33333337"
       d="m 18.666667,81.254646 v -1.412022 l 1.333334,0.824045 1.333333,0.824045 v 0.587978 0.587977 h -1.333333 -1.333334 z m 86.000003,0.07869 0.82404,-1.333334 h 0.58798 0.58798 v 1.333334 1.333333 h -1.41202 -1.41203 z M 48.000001,72.666669 v -6 h 1.333334 1.333333 v 6 6 h -1.333333 -1.333334 z m 10.666667,0 v -6 h 1.333334 1.333333 v 6 6 h -1.333333 -1.333334 z m 12.020418,-1 0.02041,-7 1.096779,1.728972 1.09678,1.728973 0.206539,5.271027 0.206544,5.271028 h -1.323736 -1.323736 z m 10.646249,1 v -6 h 1.333334 1.333333 v 6 6 h -1.333333 -1.333334 z m 10.666667,-0.666667 v -5.333333 h 1.333334 1.333333 v 5.333333 5.333334 H 93.333336 92.000002 Z M 48.000001,56.745358 v -6.07869 h 1.333334 1.333333 v 5.254644 5.254644 l -1.333333,0.824046 -1.333334,0.824045 z m 22.666668,0.06484 v -6.300913 l 1.130742,0.698838 1.130743,0.698837 -0.289015,4.760346 -0.289013,4.760346 -0.841729,0.841728 -0.841728,0.841732 v -6.30091 z m 10.666666,-0.06484 v -6.07869 h 1.333334 1.333333 v 5.254644 5.254644 l -1.333333,0.824046 -1.333334,0.824045 z m -22.666667,0 V 52.15738 l 1.333334,-0.824045 1.333333,-0.824046 v 5.412023 5.412023 h -1.333333 -1.333334 z m 33.333334,-0.745356 v -5.333334 h 1.333334 1.333333 v 5.333334 5.333333 H 93.333336 92.000002 Z M 18.666667,10.666667 V 9.3333336 h 1.412023 1.412023 L 20.666667,10.666667 19.842622,12 h -0.587977 -0.587978 z m 86.000003,0 -0.82405,-1.3333334 h 1.41203 1.41202 V 10.666667 12 h -0.58798 -0.58798 z"
       id="path48"
       inkscape:connector-curvature="0" />
  </g>
</svg>
