<?xml version="1.0" encoding="UTF-8" standalone="no"?>
<!-- Created with Inkscape (http://www.inkscape.org/) -->

<svg
   xmlns:dc="http://purl.org/dc/elements/1.1/"
   xmlns:cc="http://creativecommons.org/ns#"
   xmlns:rdf="http://www.w3.org/1999/02/22-rdf-syntax-ns#"
   xmlns:svg="http://www.w3.org/2000/svg"
   xmlns="http://www.w3.org/2000/svg"
   xmlns:sodipodi="http://sodipodi.sourceforge.net/DTD/sodipodi-0.dtd"
   xmlns:inkscape="http://www.inkscape.org/namespaces/inkscape"
   version="1.1"
   id="svg80"
   width="95"
   height="70"
   viewBox="0 0 95 70"
   sodipodi:docname="pico8terminal.svg"
   inkscape:version="0.92.2 5c3e80d, 2017-08-06">
  <metadata
     id="metadata86">
    <rdf:RDF>
      <cc:Work
         rdf:about="">
        <dc:format>image/svg+xml</dc:format>
        <dc:type
           rdf:resource="http://purl.org/dc/dcmitype/StillImage" />
        <dc:title></dc:title>
      </cc:Work>
    </rdf:RDF>
  </metadata>
  <defs
     id="defs84" />
  <sodipodi:namedview
     pagecolor="#ffffff"
     bordercolor="#666666"
     borderopacity="1"
     objecttolerance="10"
     gridtolerance="10"
     guidetolerance="10"
     inkscape:pageopacity="0"
     inkscape:pageshadow="2"
     inkscape:window-width="1918"
     inkscape:window-height="1027"
     id="namedview82"
     showgrid="false"
     inkscape:pagecheckerboard="true"
     inkscape:zoom="8.09"
     inkscape:cx="47.5"
     inkscape:cy="28.473193"
     inkscape:window-x="0"
     inkscape:window-y="0"
     inkscape:window-maximized="1"
     inkscape:current-layer="svg80" />
  <path
     style="fill:#ffffff;fill-opacity:1;stroke-width:0.12360939"
     d="M 25.00309,62.49096 V 61.996522 H 24.014215 23.02534 V 61.502085 61.007647 H 22.530902 22.036465 V 60.018772 59.029897 H 21.542027 21.04759 V 34.493432 9.9569672 h 0.494437 0.494438 V 8.9680921 7.9792169 h 0.494437 0.494438 V 7.4847793 6.9903418 h 0.988875 0.988875 V 6.4959042 6.0014666 H 47.5 69.99691 v 0.4944376 0.4944376 h 0.988875 0.988875 v 0.4944375 0.4944376 h 0.494438 0.494437 v 0.9888752 0.9888751 h 0.494438 0.494437 V 34.493432 59.029897 h -0.494437 -0.494438 v 0.988875 0.988875 H 72.469098 71.97466 v 0.494438 0.494437 H 70.985785 69.99691 v 0.494438 0.494437 H 47.5 25.00309 Z"
     id="path92"
     inkscape:connector-curvature="0" />
  <g
     id="g94">
    <path
       style="fill:#efefef"
       d="M 37,47.5 V 39 H 47.5 58 V 47.5 56 H 47.5 37 Z m -8,3.883369 C 29,50.336049 28.383721,49.927898 27.25,50.224373 25.904576,50.576209 25.5,50.061964 25.5,48 c 0,-2.061964 0.404576,-2.576209 1.75,-2.224373 C 28.383721,46.072102 29,45.663951 29,44.616631 29,43.727484 29.675,43 30.5,43 c 0.825,0 1.5,0.675 1.5,1.5 0,0.825 0.675,1.5 1.5,1.5 0.833333,0 1.5,0.888889 1.5,2 0,1.111111 -0.666667,2 -1.5,2 C 32.675,50 32,50.675 32,51.5 32,52.325 31.325,53 30.5,53 29.675,53 29,52.272516 29,51.383369 Z M 63,51 c 0,-1.506149 0.522151,-2.046091 1.75,-1.809629 0.9625,0.18536 1.75,0.999694 1.75,1.809629 0,0.809935 -0.7875,1.624269 -1.75,1.809629 C 63.522151,53.046091 63,52.506149 63,51 Z M 59.190371,47.25 C 59.375731,46.2875 60.190065,45.5 61,45.5 c 0.809935,0 1.624269,0.7875 1.809629,1.75 C 63.046091,48.477849 62.506149,49 61,49 59.493851,49 58.953909,48.477849 59.190371,47.25 Z M 66,47.5 C 66,46.675 65.325,46 64.5,46 62.792091,46 62.465205,43.448555 64.047803,42.470456 65.41426,41.625939 70.374061,46.58574 69.529544,47.952197 68.551445,49.534795 66,49.207909 66,47.5 Z M 25,23.5 V 10 h 23.116631 23.116632 l -0.602977,2.25 c -0.331637,1.2375 -0.609121,7.3125 -0.616631,13.5 L 70,37 H 47.5 25 Z"
       id="path124"
       inkscape:connector-curvature="0" />
    <path
       style="fill:#d6d6d6"
       d="M 37.700461,55.367127 C 37.315207,54.981874 37,51.141667 37,46.833333 V 39 H 47.540442 58.080885 L 57.790442,47.25 57.5,55.5 47.950461,55.783794 c -5.252247,0.156087 -9.864747,-0.03141 -10.25,-0.416667 z M 29,51.5 C 29,50.675 28.325,50 27.5,50 26.666667,50 26,49.111111 26,48 c 0,-1.111111 0.666667,-2 1.5,-2 0.825,0 1.5,-0.675 1.5,-1.5 0,-0.825 0.675,-1.5 1.5,-1.5 0.825,0 1.5,0.675 1.5,1.5 0,0.825 0.675,1.5 1.5,1.5 0.833333,0 1.5,0.888889 1.5,2 0,1.111111 -0.666667,2 -1.5,2 C 32.675,50 32,50.675 32,51.5 32,52.325 31.325,53 30.5,53 29.675,53 29,52.325 29,51.5 Z M 63.229167,50.8125 C 63.847241,48.958277 66,48.65074 66,50.416667 66,51.2875 65.2875,52 64.416667,52 c -0.870834,0 -1.405209,-0.534375 -1.1875,-1.1875 z m -3.783018,-2.899632 c -1.030521,-1.667419 1.287209,-3.57951 2.666719,-2.2 C 63.266792,46.866792 62.544589,49 61,49 60.514919,49 59.815686,48.51079 59.446149,47.912868 Z M 66.5,48 C 66.100846,47.354154 66.224265,46.375735 66.774265,45.825735 67.440931,45.159069 68.016176,45.217157 68.5,46 c 0.399154,0.645846 0.275735,1.624265 -0.274265,2.174265 C 67.559069,48.840931 66.983824,48.782843 66.5,48 Z M 63.666667,45.333333 C 62.516033,44.1827 62.938426,43 64.5,43 c 0.825,0 1.5,0.675 1.5,1.5 0,1.561574 -1.1827,1.983967 -2.333333,0.833333 z M 25,23.5 V 11 h 20.918213 c 11.505016,0 21.630016,-0.273145 22.5,-0.606989 C 69.811014,9.858543 70,11.351994 70,22.893011 V 36 H 47.5 25 Z"
       id="path122"
       inkscape:connector-curvature="0" />
    <path
       style="fill:#dcf7a8"
       d="m 37.417143,53.644673 c -0.286049,-0.74543 -0.384426,-4.23293 -0.218616,-7.75 L 37.5,39.5 h 10 10 l 0.292064,7.75 0.292065,7.75 H 48.010679 C 40.456895,55 37.807141,54.660993 37.417143,53.644673 Z M 29,51.5 C 29,50.675 28.325,50 27.5,50 26.666667,50 26,49.111111 26,48 c 0,-1.111111 0.666667,-2 1.5,-2 0.825,0 1.5,-0.675 1.5,-1.5 0,-0.825 0.675,-1.5 1.5,-1.5 0.825,0 1.5,0.675 1.5,1.5 0,0.825 0.675,1.5 1.5,1.5 0.833333,0 1.5,0.888889 1.5,2 0,1.111111 -0.666667,2 -1.5,2 C 32.675,50 32,50.675 32,51.5 32,52.325 31.325,53 30.5,53 29.675,53 29,52.325 29,51.5 Z M 63.229167,50.8125 C 63.847241,48.958277 66,48.65074 66,50.416667 66,51.2875 65.2875,52 64.416667,52 c -0.870834,0 -1.405209,-0.534375 -1.1875,-1.1875 z m -3.783018,-2.899632 c -1.030521,-1.667419 1.287209,-3.57951 2.666719,-2.2 C 63.266792,46.866792 62.544589,49 61,49 60.514919,49 59.815686,48.51079 59.446149,47.912868 Z M 64.75,46.106679 C 62.604914,43.931618 62.529945,43 64.5,43 c 0.825,0 1.5,0.675 1.5,1.5 0,0.825 0.675,1.5 1.5,1.5 0.825,0 1.5,0.45 1.5,1 0,1.555265 -2.315063,1.068655 -4.25,-0.893321 z M 25,23.5 V 11 H 47.5 70 V 23.5 36 H 47.5 25 Z"
       id="path120"
       inkscape:connector-curvature="0" />
    <path
       style="fill:#fe9892"
       d="m 37.417143,53.644673 c -0.286049,-0.74543 -0.384426,-4.23293 -0.218616,-7.75 L 37.5,39.5 h 10 10 l 0.292064,7.75 0.292065,7.75 H 48.010679 C 40.456895,55 37.807141,54.660993 37.417143,53.644673 Z M 29,51.5 C 29,50.675 28.325,50 27.5,50 26.666667,50 26,49.111111 26,48 c 0,-1.111111 0.666667,-2 1.5,-2 0.825,0 1.5,-0.675 1.5,-1.5 0,-0.825 0.675,-1.5 1.5,-1.5 0.825,0 1.5,0.675 1.5,1.5 0,0.825 0.675,1.5 1.5,1.5 0.833333,0 1.5,0.888889 1.5,2 0,1.111111 -0.666667,2 -1.5,2 C 32.675,50 32,50.675 32,51.5 32,52.325 31.325,53 30.5,53 29.675,53 29,52.325 29,51.5 Z M 63.229167,50.8125 C 63.847241,48.958277 66,48.65074 66,50.416667 66,51.2875 65.2875,52 64.416667,52 c -0.870834,0 -1.405209,-0.534375 -1.1875,-1.1875 z M 60,47 c 0,-0.55 0.45,-1 1,-1 0.55,0 1,0.45 1,1 0,0.55 -0.45,1 -1,1 -0.55,0 -1,-0.45 -1,-1 z m 6,0 c 0,-0.55 0.675,-1 1.5,-1 0.825,0 1.5,0.45 1.5,1 0,0.55 -0.675,1 -1.5,1 C 66.675,48 66,47.55 66,47 Z m -2,-3 c 0,-0.55 0.45,-1 1,-1 0.55,0 1,0.45 1,1 0,0.55 -0.45,1 -1,1 -0.55,0 -1,-0.45 -1,-1 z M 25,23.5 V 11 H 47.5 70 V 23.5 36 H 47.5 25 Z"
       id="path118"
       inkscape:connector-curvature="0" />
    <path
       style="fill:#b0b0b0"
       d="m 37.417143,53.644673 c -0.286049,-0.74543 -0.384426,-4.23293 -0.218616,-7.75 L 37.5,39.5 h 10 10 l 0.292064,7.75 0.292065,7.75 H 48.010679 C 40.456895,55 37.807141,54.660993 37.417143,53.644673 Z M 29,51.5 C 29,50.675 28.325,50 27.5,50 26.666667,50 26,49.111111 26,48 c 0,-1.111111 0.666667,-2 1.5,-2 0.825,0 1.5,-0.675 1.5,-1.5 0,-0.825 0.675,-1.5 1.5,-1.5 0.825,0 1.5,0.675 1.5,1.5 0,0.825 0.675,1.5 1.5,1.5 0.833333,0 1.5,0.888889 1.5,2 0,1.111111 -0.666667,2 -1.5,2 C 32.675,50 32,50.675 32,51.5 32,52.325 31.325,53 30.5,53 29.675,53 29,52.325 29,51.5 Z M 64,51 c 0,-0.55 0.45,-1 1,-1 0.55,0 1,0.45 1,1 0,0.55 -0.45,1 -1,1 -0.55,0 -1,-0.45 -1,-1 z m -4,-4 c 0,-0.55 0.45,-1 1,-1 0.55,0 1,0.45 1,1 0,0.55 -0.45,1 -1,1 -0.55,0 -1,-0.45 -1,-1 z m 6,0 c 0,-0.55 0.675,-1 1.5,-1 0.825,0 1.5,0.45 1.5,1 0,0.55 -0.675,1 -1.5,1 C 66.675,48 66,47.55 66,47 Z m -2,-3 c 0,-0.55 0.45,-1 1,-1 0.55,0 1,0.45 1,1 0,0.55 -0.45,1 -1,1 -0.55,0 -1,-0.45 -1,-1 z M 25,23.5 V 11 H 47.5 70 V 23.5 36 H 47.5 25 Z"
       id="path116"
       inkscape:connector-curvature="0" />
    <path
       style="fill:#37b5fe"
       d="M 38,47 V 38.927576 L 47.75,39.213788 57.5,39.5 V 47 54.5 L 47.75,54.786212 38,55.072424 Z m -9,4.5 C 29,50.675 28.325,50 27.5,50 26.666667,50 26,49.111111 26,48 c 0,-1.111111 0.666667,-2 1.5,-2 0.825,0 1.5,-0.675 1.5,-1.5 0,-0.825 0.675,-1.5 1.5,-1.5 0.825,0 1.5,0.675 1.5,1.5 0,0.825 0.675,1.5 1.5,1.5 0.833333,0 1.5,0.888889 1.5,2 0,1.111111 -0.666667,2 -1.5,2 C 32.675,50 32,50.675 32,51.5 32,52.325 31.325,53 30.5,53 29.675,53 29,52.325 29,51.5 Z M 64,51 c 0,-0.55 0.45,-1 1,-1 0.55,0 1,0.45 1,1 0,0.55 -0.45,1 -1,1 -0.55,0 -1,-0.45 -1,-1 z m -4,-4 c 0,-0.55 0.45,-1 1,-1 0.55,0 1,0.45 1,1 0,0.55 -0.45,1 -1,1 -0.55,0 -1,-0.45 -1,-1 z m 6,0 c 0,-0.55 0.675,-1 1.5,-1 0.825,0 1.5,0.45 1.5,1 0,0.55 -0.675,1 -1.5,1 C 66.675,48 66,47.55 66,47 Z m -2,-3 c 0,-0.55 0.45,-1 1,-1 0.55,0 1,0.45 1,1 0,0.55 -0.45,1 -1,1 -0.55,0 -1,-0.45 -1,-1 z M 25,23.5 V 11 H 47.5 70 V 23.5 36 H 47.5 25 Z m 23,-2.306011 c 0,-0.860798 0.978441,-2.60659 2.174314,-3.879538 L 52.348628,15 H 50.003055 C 46.781184,15 44,17.770815 44,20.980674 44,22.536451 42.95634,24.63184 41.5,26 c -4.258759,4.000897 -2.749005,4.33794 2,0.446488 2.475,-2.028077 4.5,-4.391701 4.5,-5.252499 z"
       id="path114"
       inkscape:connector-curvature="0" />
    <path
       style="fill:#fecd12"
       d="M 38,47 V 38.927576 L 47.75,39.213788 57.5,39.5 V 47 54.5 L 47.75,54.786212 38,55.072424 Z m -9,4.5 C 29,50.675 28.325,50 27.5,50 26.666667,50 26,49.111111 26,48 c 0,-1.111111 0.666667,-2 1.5,-2 0.825,0 1.5,-0.675 1.5,-1.5 0,-0.825 0.675,-1.5 1.5,-1.5 0.825,0 1.5,0.675 1.5,1.5 0,0.825 0.675,1.5 1.5,1.5 0.833333,0 1.5,0.888889 1.5,2 0,1.111111 -0.666667,2 -1.5,2 C 32.675,50 32,50.675 32,51.5 32,52.325 31.325,53 30.5,53 29.675,53 29,52.325 29,51.5 Z M 64,51 c 0,-0.55 0.45,-1 1,-1 0.55,0 1,0.45 1,1 0,0.55 -0.45,1 -1,1 -0.55,0 -1,-0.45 -1,-1 z m -4,-4 c 0,-0.55 0.45,-1 1,-1 0.55,0 1,0.45 1,1 0,0.55 -0.45,1 -1,1 -0.55,0 -1,-0.45 -1,-1 z m 4,-3 c 0,-0.55 0.45,-1 1,-1 0.55,0 1,0.45 1,1 0,0.55 -0.45,1 -1,1 -0.55,0 -1,-0.45 -1,-1 z M 25,23.5 V 11 H 47.5 70 V 23.5 36 H 47.5 25 Z m 23,-2.306011 c 0,-0.860798 0.978441,-2.60659 2.174314,-3.879538 L 52.348628,15 H 50.003055 C 46.781184,15 44,17.770815 44,20.980674 44,22.536451 42.95634,24.63184 41.5,26 c -4.258759,4.000897 -2.749005,4.33794 2,0.446488 2.475,-2.028077 4.5,-4.391701 4.5,-5.252499 z"
       id="path112"
       inkscape:connector-curvature="0" />
    <path
       style="fill:#8a8a8a"
       d="M 38,47 V 38.927576 L 47.75,39.213788 57.5,39.5 V 47 54.5 L 47.75,54.786212 38,55.072424 Z m -9,4.5 C 29,50.675 28.325,50 27.5,50 26.666667,50 26,49.111111 26,48 c 0,-1.111111 0.666667,-2 1.5,-2 0.825,0 1.5,-0.675 1.5,-1.5 0,-0.825 0.675,-1.5 1.5,-1.5 0.825,0 1.5,0.675 1.5,1.5 0,0.825 0.675,1.5 1.5,1.5 0.833333,0 1.5,0.888889 1.5,2 0,1.111111 -0.666667,2 -1.5,2 C 32.675,50 32,50.675 32,51.5 32,52.325 31.325,53 30.5,53 29.675,53 29,52.325 29,51.5 Z M 64,51 c 0,-0.55 0.45,-1 1,-1 0.55,0 1,0.45 1,1 0,0.55 -0.45,1 -1,1 -0.55,0 -1,-0.45 -1,-1 z m -4,-4 c 0,-0.55 0.45,-1 1,-1 0.55,0 1,0.45 1,1 0,0.55 -0.45,1 -1,1 -0.55,0 -1,-0.45 -1,-1 z M 25,23.5 V 11 H 47.5 70 V 23.5 36 H 47.5 25 Z m 23,-2.306011 c 0,-0.860798 0.978441,-2.60659 2.174314,-3.879538 L 52.348628,15 H 50.003055 C 46.781184,15 44,17.770815 44,20.980674 44,22.536451 42.95634,24.63184 41.5,26 c -4.258759,4.000897 -2.749005,4.33794 2,0.446488 2.475,-2.028077 4.5,-4.391701 4.5,-5.252499 z"
       id="path110"
       inkscape:connector-curvature="0" />
    <path
       style="fill:#55fe0b"
       d="M 38,47.5 V 40 H 47.5 57 V 47.5 55 H 47.5 38 Z M 64,51 c 0,-0.55 0.45,-1 1,-1 0.55,0 1,0.45 1,1 0,0.55 -0.45,1 -1,1 -0.55,0 -1,-0.45 -1,-1 z m -4,-4 c 0,-0.55 0.45,-1 1,-1 0.55,0 1,0.45 1,1 0,0.55 -0.45,1 -1,1 -0.55,0 -1,-0.45 -1,-1 z M 25,23.5 V 11 H 47.5 70 V 23.5 36 H 47.5 25 Z M 49.354219,27 C 52.77858,27 56,24.221994 56,21.268982 v -2.61761 l -2.314451,2.174314 C 52.412601,22.021559 50.823477,23 50.154164,23 47.800607,23 47.741288,19.904288 50.0478,17.449119 L 52.348628,15 H 49.745743 C 46.508265,15 44,17.398676 44,20.494703 c 0,1.293516 -1.172603,3.745406 -2.605785,5.448646 -2.116701,2.515556 -2.376553,3.373006 -1.384463,4.568401 1.056057,1.272472 1.622016,1.13444 4.18251,-1.020074 C 45.820916,28.121254 48.143796,27 49.354219,27 Z m -8.794163,3.097172 c -0.62125,-1.005203 3.211587,-4.658863 4.029408,-3.841041 0.317462,0.317461 -0.343884,1.498289 -1.469656,2.624061 -1.125773,1.125773 -2.277661,1.673414 -2.559752,1.21698 z"
       id="path108"
       inkscape:connector-curvature="0" />
    <path
       style="fill:#6b6b6b"
       d="M 38,47.5 V 40 H 47.5 57 V 47.5 55 H 47.5 38 Z M 64,51 c 0,-0.55 0.45,-1 1,-1 0.55,0 1,0.45 1,1 0,0.55 -0.45,1 -1,1 -0.55,0 -1,-0.45 -1,-1 z M 25,23.5 V 11 H 47.5 70 V 23.5 36 H 47.5 25 Z M 49.354219,27 C 52.77858,27 56,24.221994 56,21.268982 v -2.61761 l -2.314451,2.174314 C 52.412601,22.021559 50.823477,23 50.154164,23 47.800607,23 47.741288,19.904288 50.0478,17.449119 L 52.348628,15 H 49.745743 C 46.508265,15 44,17.398676 44,20.494703 c 0,1.293516 -1.172603,3.745406 -2.605785,5.448646 -2.116701,2.515556 -2.376553,3.373006 -1.384463,4.568401 1.056057,1.272472 1.622016,1.13444 4.18251,-1.020074 C 45.820916,28.121254 48.143796,27 49.354219,27 Z m -8.794163,3.097172 c -0.62125,-1.005203 3.211587,-4.658863 4.029408,-3.841041 0.317462,0.317461 -0.343884,1.498289 -1.469656,2.624061 -1.125773,1.125773 -2.277661,1.673414 -2.559752,1.21698 z"
       id="path106"
       inkscape:connector-curvature="0" />
    <path
       style="fill:#fd1812"
       d="M 38,47.5 V 40 H 47.5 57 V 47.5 55 H 47.5 38 Z M 64,51 c 0,-0.55 0.45,-1 1,-1 0.55,0 1,0.45 1,1 0,0.55 -0.45,1 -1,1 -0.55,0 -1,-0.45 -1,-1 z M 25,23 V 11 H 47.5 70 V 23 35 H 47.5 25 Z m 20.182369,6.5 c 1.634095,-1.375 3.949055,-2.506891 5.144356,-2.515313 2.773551,-0.01954 4.068636,-0.905509 5.616212,-3.842046 0.958886,-1.819494 0.971286,-2.618069 0.05435,-3.5 -0.898745,-0.864434 -1.559691,-0.594818 -2.714613,1.107359 -1.786833,2.633516 -3.813645,2.914653 -4.682846,0.649553 -0.393508,-1.025466 0.32332,-2.337861 1.995273,-3.65302 2.181492,-1.715961 2.35965,-2.192351 1.086368,-2.904916 C 48.134589,12.856683 43,17.177216 43,22.146694 c 0,1.281064 -1.190745,3.227644 -2.720582,4.447493 -2.346954,1.871396 -2.536139,2.391557 -1.377555,3.787565 1.814634,2.186501 2.798203,2.048413 6.280506,-0.881752 z"
       id="path104"
       inkscape:connector-curvature="0" />
    <path
       style="fill:#585958"
       d="M 38,47.5 V 40 H 47.5 57 V 47.5 55 H 47.5 38 Z M 25,23 V 11 H 47.5 70 V 23 35 H 47.5 25 Z m 20.182369,6.5 c 1.634095,-1.375 3.949055,-2.506891 5.144356,-2.515313 2.773551,-0.01954 4.068636,-0.905509 5.616212,-3.842046 0.958886,-1.819494 0.971286,-2.618069 0.05435,-3.5 -0.898745,-0.864434 -1.559691,-0.594818 -2.714613,1.107359 -1.786833,2.633516 -3.813645,2.914653 -4.682846,0.649553 -0.393508,-1.025466 0.32332,-2.337861 1.995273,-3.65302 2.181492,-1.715961 2.35965,-2.192351 1.086368,-2.904916 C 48.134589,12.856683 43,17.177216 43,22.146694 c 0,1.281064 -1.190745,3.227644 -2.720582,4.447493 -2.346954,1.871396 -2.536139,2.391557 -1.377555,3.787565 1.814634,2.186501 2.798203,2.048413 6.280506,-0.881752 z"
       id="path102"
       inkscape:connector-curvature="0" />
    <path
       style="fill:#3f403f"
       d="M 38,47.5 V 40 H 47.5 57 V 47.5 55 H 47.5 38 Z M 25,23 V 11 H 47.5 70 V 23 35 H 47.5 25 Z m 19.27559,7.250594 c 1.06319,-0.962173 3.784795,-2.199673 6.048013,-2.75 4.565044,-1.110042 7.51494,-4.873002 6.300683,-8.037306 -0.651752,-1.698438 -0.918934,-1.625087 -3.254199,0.893392 -2.060434,2.222085 -2.820186,2.51466 -3.995991,1.538829 -1.243024,-1.031618 -1.084663,-1.588174 1.101032,-3.869548 1.40408,-1.465544 2.246573,-2.970926 1.872206,-3.345294 C 49.88084,12.214174 43,16.976307 43,21.149827 c 0,1.232404 -1.193603,3.486589 -2.652452,5.009298 -2.215232,2.312205 -2.442303,3.021777 -1.377555,4.304719 1.651712,1.990191 2.927483,1.938914 5.305597,-0.21325 z"
       id="path100"
       inkscape:connector-curvature="0" />
    <path
       style="fill:#202020"
       d="M 38.666667,54.333333 C 38.3,53.966667 38,50.591667 38,46.833333 V 40 h 9.5 9.5 v 7.5 7.5 h -8.833333 c -4.858334,0 -9.133334,-0.3 -9.5,-0.666667 z M 25,23 V 11 H 47.5 70 V 23 35 H 47.5 25 Z m 19.727129,7 c 1.398424,-1.1 3.627357,-2 4.953184,-2 C 52.596198,28 57,23.851388 57,21.104472 c 0,-2.88624 -1.733505,-3.504061 -3.20784,-1.143275 -1.292971,2.070375 -4.240027,2.74119 -5.202323,1.184163 C 48.299329,20.675308 49.158902,19.259896 50.5,18 53.127407,15.531679 52.964989,14 50.075842,14 47.057152,14 43,17.880562 43,20.767861 c 0,1.475229 -1.160489,3.83399 -2.652452,5.391264 -2.215232,2.312205 -2.442303,3.021777 -1.377555,4.304719 1.677622,2.021411 2.702635,1.938827 5.757136,-0.463844 z"
       id="path98"
       inkscape:connector-curvature="0" />
    <path
       style="fill:#0f0f0f"
       d="m 39.19586,46.75 0.195861,-7.25 0.34795,6.667558 0.34795,6.667559 8.014799,-0.02562 c 4.408139,-0.01409 8.288424,0.24801 8.622856,0.582442 C 57.059707,53.726374 53.208333,54 48.166667,54 H 39 Z M 48,41 40.5,40.360316 48.809017,40.180158 C 54.136758,40.064641 56.896283,40.3588 56.5,41 56.160081,41.55 55.796024,41.918929 55.690983,41.819842 55.585942,41.720755 52.125,41.351826 48,41 Z"
       id="path96"
       inkscape:connector-curvature="0" />
  </g>
</svg>
