<?xml version="1.0" encoding="UTF-8" standalone="no"?>
<!-- Created with Inkscape (http://www.inkscape.org/) -->

<svg
   xmlns:dc="http://purl.org/dc/elements/1.1/"
   xmlns:cc="http://creativecommons.org/ns#"
   xmlns:rdf="http://www.w3.org/1999/02/22-rdf-syntax-ns#"
   xmlns:svg="http://www.w3.org/2000/svg"
   xmlns="http://www.w3.org/2000/svg"
   xmlns:sodipodi="http://sodipodi.sourceforge.net/DTD/sodipodi-0.dtd"
   xmlns:inkscape="http://www.inkscape.org/namespaces/inkscape"
   version="1.1"
   id="svg2"
   width="95"
   height="70"
   viewBox="0 0 95 70"
   sodipodi:docname="pico8.svg"
   inkscape:version="0.92.2 5c3e80d, 2017-08-06">
  <metadata
     id="metadata8">
    <rdf:RDF>
      <cc:Work
         rdf:about="">
        <dc:format>image/svg+xml</dc:format>
        <dc:type
           rdf:resource="http://purl.org/dc/dcmitype/StillImage" />
        <dc:title></dc:title>
      </cc:Work>
    </rdf:RDF>
  </metadata>
  <defs
     id="defs6" />
  <sodipodi:namedview
     pagecolor="#ffffff"
     bordercolor="#666666"
     borderopacity="1"
     objecttolerance="10"
     gridtolerance="10"
     guidetolerance="10"
     inkscape:pageopacity="0"
     inkscape:pageshadow="2"
     inkscape:window-width="1918"
     inkscape:window-height="1027"
     id="namedview4"
     showgrid="false"
     inkscape:pagecheckerboard="true"
     inkscape:zoom="2.8736842"
     inkscape:cx="47.5"
     inkscape:cy="35"
     inkscape:window-x="0"
     inkscape:window-y="0"
     inkscape:window-maximized="1"
     inkscape:current-layer="svg2" />
  <path
     style="fill:#ffffff;fill-opacity:1;stroke-width:0.34798536"
     d="m 42.97619,62.525641 c 0,-0.347985 -0.347985,-0.521978 -1.043956,-0.521978 -0.69597,0 -1.043956,-0.173993 -1.043956,-0.521978 0,-0.287088 -0.23489,-0.521978 -0.521978,-0.521978 -0.433721,0 -0.521978,-0.676637 -0.521978,-4.001832 v -4.001831 h -4.349817 c -3.634513,0 -4.349816,-0.08584 -4.349816,-0.521978 0,-0.287088 -0.23489,-0.521978 -0.521978,-0.521978 -0.324787,0 -0.521978,-0.328651 -0.521978,-0.869963 0,-0.541313 -0.197192,-0.869964 -0.521978,-0.869964 -0.430839,0 -0.521978,-0.637972 -0.521978,-3.653846 v -3.653846 h -3.479854 c -2.087912,0 -3.479853,-0.139194 -3.479853,-0.347985 0,-0.191392 -0.234891,-0.347986 -0.521978,-0.347986 -0.347986,0 -0.521978,-0.347985 -0.521978,-1.043956 0,-0.695971 -0.173993,-1.043956 -0.521978,-1.043956 -0.439982,0 -0.521978,-0.792633 -0.521978,-5.045787 0,-4.253155 0.082,-5.045788 0.521978,-5.045788 0.347985,0 0.521978,-0.347985 0.521978,-1.043956 0,-0.695971 0.173992,-1.043956 0.521978,-1.043956 0.287087,0 0.521978,-0.23489 0.521978,-0.521978 0,-0.429182 0.61864,-0.521978 3.479853,-0.521978 h 3.479854 v -3.479854 c 0,-2.861212 0.0928,-3.479853 0.521978,-3.479853 0.324786,0 0.521978,-0.328653 0.521978,-0.869963 0,-0.541311 0.197191,-0.869964 0.521978,-0.869964 0.287088,0 0.521978,-0.23489 0.521978,-0.521978 0,-0.436141 0.715303,-0.521978 4.349816,-0.521978 h 4.349817 v -4.001831 c 0,-3.3251937 0.08826,-4.0018319 0.521978,-4.0018319 0.287088,0 0.521978,-0.2348901 0.521978,-0.521978 0,-0.3479854 0.347986,-0.521978 1.043956,-0.521978 0.695971,0 1.043956,-0.1739927 1.043956,-0.5219781 0,-0.4372123 0.734636,-0.521978 4.52381,-0.521978 3.789174,0 4.52381,0.084766 4.52381,0.521978 0,0.3866504 0.405983,0.5219781 1.565934,0.5219781 1.15995,0 1.565934,0.1353276 1.565934,0.521978 0,0.2870879 0.156593,0.521978 0.347985,0.521978 0.211819,0 0.347985,1.5659339 0.347985,4.0018319 v 4.001831 h 4.001832 c 3.325195,0 4.001831,0.08826 4.001831,0.521978 0,0.287088 0.23489,0.521978 0.521978,0.521978 0.287088,0 0.521978,0.156594 0.521978,0.347986 0,0.191391 0.234891,0.347985 0.521978,0.347985 0.433722,0 0.521978,0.676638 0.521978,4.001831 v 4.001832 h 3.479854 c 2.861212,0 3.479853,0.0928 3.479853,0.521978 0,0.287088 0.234891,0.521978 0.521978,0.521978 0.347986,0 0.521978,0.347985 0.521978,1.043956 0,0.695971 0.173993,1.043956 0.521978,1.043956 0.439983,0 0.521978,0.792633 0.521978,5.045788 0,4.253154 -0.082,5.045787 -0.521978,5.045787 -0.347985,0 -0.521978,0.347985 -0.521978,1.043956 0,0.695971 -0.173992,1.043956 -0.521978,1.043956 -0.287087,0 -0.521978,0.156594 -0.521978,0.347986 0,0.208791 -1.391941,0.347985 -3.479853,0.347985 H 65.943223 V 46.8663 c 0,3.325195 -0.08826,4.001832 -0.521978,4.001832 -0.287087,0 -0.521978,0.23489 -0.521978,0.521978 0,0.287088 -0.23489,0.521978 -0.521978,0.521978 -0.287088,0 -0.521978,0.23489 -0.521978,0.521978 0,0.433722 -0.676636,0.521978 -4.001831,0.521978 h -4.001832 v 4.001831 c 0,2.435898 -0.136166,4.001832 -0.347985,4.001832 -0.191392,0 -0.347985,0.23489 -0.347985,0.521978 0,0.38665 -0.405984,0.521978 -1.565934,0.521978 -1.159951,0 -1.565934,0.135328 -1.565934,0.521978 0,0.437212 -0.734636,0.521978 -4.52381,0.521978 -3.789174,0 -4.52381,-0.08477 -4.52381,-0.521978 z"
     id="path12"
     inkscape:connector-curvature="0" />
  <g
     id="g48">
    <path
       style="fill:#b6daf0"
       d="M 42,55.554791 V 51.109582 L 37.25,50.804791 32.5,50.5 32.19774,45.25 31.895481,40 H 27.44774 23 v -5 -5 h 4.44774 4.447741 L 32.19774,24.75 32.5,19.5 37.25,19.195209 42,18.890418 V 14.445209 10 h 5.5 5.5 v 5 5 h 5 5 v 5 5 h 4.5 4.5 v 5 5 H 67.5 63 v 5 5 h -5 -5 v 5 5 H 47.5 42 Z M 52,45 v -5 h 5 5 V 35 30 H 57.554791 53.109582 L 52.804791,25.25 52.5,20.5 47.75,20.195209 43,19.890418 V 24.945209 30 h -5 -5 v 4.5 4.5 h 5 5 v 5.5 5.5 h 4.5 4.5 z"
       id="path78"
       inkscape:connector-curvature="0" />
    <path
       style="fill:#f6de9f"
       d="M 43,55 V 50 H 38.054791 33.109582 L 32.804791,45.25 32.5,40.5 27.75,40.195209 23,39.890418 V 34.945209 30 h 4.44774 4.447741 L 32.19774,24.75 32.5,19.5 37.25,19.195209 42,18.890418 V 14.445209 10 h 5.5 5.5 v 5 5 h 5 5 v 5 5 h 4.5 4.5 v 5 5 H 67 62 V 35 30 H 57.554791 53.109582 L 52.804791,25.25 52.5,20.5 47.75,20.195209 43,19.890418 V 24.945209 30 h -5 -5 v 5 5 h 5 5 v 5 5 h 5 5 V 44.945209 39.890418 L 57.75,40.195209 62.5,40.5 V 45 49.5 L 57.75,49.804791 53,50.109582 V 55.054791 60 h -5 -5 z"
       id="path76"
       inkscape:connector-curvature="0" />
    <path
       style="fill:#fda78e"
       d="m 43,55 v -5 h -5 -5 v -5 -5 h 5 5 v 5 5 h 5 5 V 44.945209 39.890418 L 57.75,40.195209 62.5,40.5 V 45 49.5 L 57.75,49.804791 53,50.109582 V 55.054791 60 H 48 43 Z M 23,35 v -5 h 4.5 4.5 v 5 5 H 27.5 23 Z m 40,0 v -5 h 4.5 4.5 v 5 5 H 67.5 63 Z M 33,25.054791 V 20.109582 L 37.721155,19.804791 42.44231,19.5 42.145627,14.75 41.848943,10 H 47.424471 53 v 5 5 h 4.5 4.5 v 5 5 H 57.5 53 v -5 -5 h -5 -5 v 5 5 h -5 -5 z"
       id="path74"
       inkscape:connector-curvature="0" />
    <path
       style="fill:#f9f92a"
       d="m 43,55 v -5 h -5 -5 v -5 -5 h 5 5 v 5 5 h 5 5 V 44.945209 39.890418 L 57.75,40.195209 62.5,40.5 V 45 49.5 L 57.75,49.804791 53,50.109582 V 55.054791 60 H 48 43 Z M 23,35 v -5 h 4.5 4.5 v 5 5 H 27.5 23 Z m 40,0 v -5 h 4.5 4.5 v 5 5 H 67.5 63 Z M 33,25 v -5 h 4.5 4.5 v 5 5 H 37.5 33 Z M 43,15 v -5 h 5 5 v 5 5 h -5 -5 z"
       id="path72"
       inkscape:connector-curvature="0" />
    <path
       style="fill:#62a6f9"
       d="m 43,55 v -5 h -5 -5 v -5 -5 h 5 5 v 5 5 h 5 5 V 44.945209 39.890418 L 57.75,40.195209 62.5,40.5 V 45 49.5 L 57.75,49.804791 53,50.109582 V 55.054791 60 H 48 43 Z M 63,35 v -5 h 4.5 4.5 v 5 5 H 67.5 63 Z M 33,25 v -5 h 4.5 4.5 v 5 5 H 37.5 33 Z M 43,15 v -5 h 5 5 v 5 5 h -5 -5 z"
       id="path70"
       inkscape:connector-curvature="0" />
    <path
       style="fill:#f66586"
       d="M 43,55.5 V 51 H 47.5 52 V 55.5 60 H 47.5 43 Z M 33,45 v -5 h 5 5 v 5 5 h -5 -5 z m 20,0 V 39.890418 L 57.75,40.195209 62.5,40.5 V 45 49.5 L 57.75,49.804791 53,50.109582 Z M 63,35 v -5 h 4.5 4.5 v 5 5 H 67.5 63 Z M 33,25 v -5 h 4.5 4.5 v 5 5 H 37.5 33 Z M 43,15 v -5 h 5 5 v 5 5 h -5 -5 z"
       id="path68"
       inkscape:connector-curvature="0" />
    <path
       style="fill:#2c87f6"
       d="M 43,55.5 V 51 H 47.5 52 V 55.5 60 H 47.5 43 Z M 33,45 v -5 h 5 5 v 5 5 h -5 -5 z m 20,0 V 39.890418 L 57.75,40.195209 62.5,40.5 V 45 49.5 L 57.75,49.804791 53,50.109582 Z M 33,25 v -5 h 4.5 4.5 v 5 5 H 37.5 33 Z M 43,14.5 V 10 H 47.5 52 V 14.5 19 H 47.5 43 Z"
       id="path66"
       inkscape:connector-curvature="0" />
    <path
       style="fill:#6f748d"
       d="m 33,45 v -5 h 5 5 v 5 5 h -5 -5 z m 20,0 V 39.890418 L 57.75,40.195209 62.5,40.5 V 45 49.5 L 57.75,49.804791 53,50.109582 Z M 33,25 v -5 h 4.5 4.5 v 5 5 H 37.5 33 Z M 43,14.5 V 10 H 47.5 52 V 14.5 19 H 47.5 43 Z"
       id="path64"
       inkscape:connector-curvature="0" />
    <path
       style="fill:#cb8715"
       d="m 33,45 v -5 h 5 5 v 5 5 h -5 -5 z m 20.5,0 V 41 H 57.75 62 v 4 4 H 57.75 53.5 Z M 33,25 v -5 h 4.5 4.5 v 5 5 H 37.5 33 Z M 43,14.5 V 10 H 47.5 52 V 14.5 19 H 47.5 43 Z"
       id="path62"
       inkscape:connector-curvature="0" />
    <path
       style="fill:#33c16b"
       d="m 33,45 v -5 h 5 5 v 5 5 h -5 -5 z m 20.5,0 V 41 H 57.75 62 v 4 4 H 57.75 53.5 Z M 33.82861,25 c 0.37352,-3.916731 0.462544,-4 4.276425,-4 C 41.982494,21 42,21.017978 42,25 v 4 H 37.723574 33.447148 Z M 43,14.5 V 10 H 47.5 52 V 14.5 19 H 47.5 43 Z"
       id="path60"
       inkscape:connector-curvature="0" />
    <path
       style="fill:#c57701"
       d="m 33,45 v -4 h 4.5 4.5 v 4 4 H 37.5 33 Z m 20.5,0 V 41 H 57.75 62 v 4 4 H 57.75 53.5 Z M 33.82861,25 c 0.37352,-3.916731 0.462544,-4 4.276425,-4 C 41.982494,21 42,21.017978 42,25 v 4 H 37.723574 33.447148 Z M 43,14.5 V 10 H 47.5 52 V 14.5 19 H 47.5 43 Z"
       id="path58"
       inkscape:connector-curvature="0" />
    <path
       style="fill:#5a617d"
       d="m 33,45 v -4 h 4.5 4.5 v 4 4 H 37.5 33 Z m 20.5,0 V 41 H 57.75 62 v 4 4 H 57.75 53.5 Z M 43,14.5 V 10 H 47.5 52 V 14.5 19 H 47.5 43 Z"
       id="path56"
       inkscape:connector-curvature="0" />
    <path
       style="fill:#d30246"
       d="m 33,45 v -4 h 4.5 4.5 v 4 4 H 37.5 33 Z M 43,14.5 V 10 H 47.5 52 V 14.5 19 H 47.5 43 Z"
       id="path54"
       inkscape:connector-curvature="0" />
    <path
       style="fill:#03b34b"
       d="m 33,45 v -4 h 4.5 4.5 v 4 4 H 37.5 33 Z"
       id="path52"
       inkscape:connector-curvature="0" />
    <path
       style="fill:#00ad3d"
       d="m 41,45.560365 c 0,-3.238287 -0.219516,-3.462597 -3.75,-3.831897 L 33.5,41.336206 37.75,41.168103 42,41 v 4 c 0,2.2 -0.225,4 -0.5,4 C 41.225,49 41,47.452164 41,45.560365 Z"
       id="path50"
       inkscape:connector-curvature="0" />
  </g>
</svg>
