<?xml version="1.0" encoding="UTF-8" standalone="no"?>
<!-- Created with Inkscape (http://www.inkscape.org/) -->

<svg
   xmlns:dc="http://purl.org/dc/elements/1.1/"
   xmlns:cc="http://creativecommons.org/ns#"
   xmlns:rdf="http://www.w3.org/1999/02/22-rdf-syntax-ns#"
   xmlns:svg="http://www.w3.org/2000/svg"
   xmlns="http://www.w3.org/2000/svg"
   xmlns:sodipodi="http://sodipodi.sourceforge.net/DTD/sodipodi-0.dtd"
   xmlns:inkscape="http://www.inkscape.org/namespaces/inkscape"
   version="1.1"
   id="svg2"
   width="126.66667"
   height="93.333336"
   viewBox="0 0 126.66667 93.333336"
   sodipodi:docname="terminal.svg"
   inkscape:version="0.92.2 5c3e80d, 2017-08-06">
  <metadata
     id="metadata8">
    <rdf:RDF>
      <cc:Work
         rdf:about="">
        <dc:format>image/svg+xml</dc:format>
        <dc:type
           rdf:resource="http://purl.org/dc/dcmitype/StillImage" />
        <dc:title></dc:title>
      </cc:Work>
    </rdf:RDF>
  </metadata>
  <defs
     id="defs6" />
  <sodipodi:namedview
     pagecolor="#ffffff"
     bordercolor="#666666"
     borderopacity="1"
     objecttolerance="10"
     gridtolerance="10"
     guidetolerance="10"
     inkscape:pageopacity="0"
     inkscape:pageshadow="2"
     inkscape:window-width="1918"
     inkscape:window-height="1027"
     id="namedview4"
     showgrid="false"
     inkscape:pagecheckerboard="true"
     inkscape:zoom="2.1552631"
     inkscape:cx="-67.973141"
     inkscape:cy="46.666668"
     inkscape:window-x="0"
     inkscape:window-y="0"
     inkscape:window-maximized="1"
     inkscape:current-layer="svg2" />
  <path
     style="fill:#ffffff;fill-opacity:1;stroke-width:0.4639805"
     d="m 14.708181,81.975583 c 0,-0.515534 -0.54131,-0.695971 -2.087912,-0.695971 h -2.087912 v -2.551893 c 0,-1.959027 -0.16169,-2.551892 -0.6959708,-2.551892 -0.6115024,0 -0.6959707,-3.660291 -0.6959707,-30.158732 0,-26.498441 0.084468,-30.158731 0.6959707,-30.158731 0.5026458,0 0.6959708,-0.515534 0.6959708,-1.855922 0,-1.340388 0.193325,-1.855922 0.695971,-1.855922 0.382784,0 0.69597,-0.313187 0.69597,-0.695971 0,-0.515534 0.541311,-0.69597 2.087913,-0.69597 1.546601,0 2.087912,-0.180437 2.087912,-0.695971 0,-0.6139541 5.413106,-0.6959709 45.934068,-0.6959709 40.520959,0 45.934069,0.082017 45.934069,0.6959709 0,0.552358 0.67019,0.695971 3.24786,0.695971 h 3.24787 v 1.855922 c 0,1.340388 0.19332,1.855921 0.69597,1.855921 0.61191,0 0.69597,3.866504 0.69597,32.014654 0,28.148151 -0.0841,32.014653 -0.69597,32.014653 -0.46398,0 -0.69597,0.463981 -0.69597,1.391941 0,1.31461 -0.10311,1.391942 -1.85593,1.391942 -1.34039,0 -1.85592,0.193327 -1.85592,0.695971 0,0.614157 -5.6451,0.69597 -48.021979,0.69597 -42.376884,0 -48.02198,-0.08181 -48.02198,-0.69597 z"
     id="path12"
     inkscape:connector-curvature="0" />
  <g
     id="g14">
    <path
       style="fill:#97dff4;stroke-width:1.33333337"
       d="M 12.888889,79.111113 C 12.4,78.622225 12,63.995691 12,46.607705 c 0,-25.115594 0.374863,-31.925627 1.82355,-33.12793 1.30421,-1.082399 15.638903,-1.41369 50.333334,-1.16326 l 48.509786,0.350152 0.35623,33.666668 0.35623,33.666667 H 63.578452 c -27.390371,0 -50.200674,-0.4 -50.689563,-0.888889 z m 27.624829,-24.925731 8.002694,-8.977613 -8.912527,-8.912525 -8.912526,-8.912527 -2.965878,2.965879 -2.965879,2.965877 5.6202,5.726567 c 3.09111,3.149611 5.620199,6.281144 5.620199,6.958961 0,0.677818 -2.508312,3.78818 -5.574027,6.911915 -5.486464,5.5903 -5.535119,5.72251 -3.097324,8.416244 1.362187,1.505199 3.085479,2.533799 3.829539,2.285779 0.74406,-0.24802 4.954048,-4.490871 9.355529,-9.428557 z m 31.486284,7.147953 c 0,-2.457516 -0.888889,-2.666667 -11.333334,-2.666667 -10.444444,0 -11.333333,0.209151 -11.333333,2.666667 0,2.457516 0.888889,2.666667 11.333333,2.666667 10.444445,0 11.333334,-0.209151 11.333334,-2.666667 z"
       id="path36"
       inkscape:connector-curvature="0" />
    <path
       style="fill:#77d5f1;stroke-width:1.33333337"
       d="m 13.616138,78.41614 c -2.08403,-2.08403 -2.297983,-59.984077 -0.235892,-63.837128 1.325377,-2.47649 3.273237,-2.5782 49.000001,-2.558595 26.190866,0.01123 48.380663,0.503384 49.310673,1.093676 1.30659,0.829323 1.60964,8.476598 1.33333,33.646251 l -0.35758,32.572992 -48.717198,0.34947 C 27.171499,79.946632 14.836206,79.636206 13.616138,78.41614 Z M 40.427961,56.149447 c 4.897955,-5.051139 8.905374,-9.717231 8.905374,-10.369094 0,-0.651862 -4.201232,-5.354244 -9.336073,-10.449736 l -9.336072,-9.264532 -3.640004,3.640004 -3.640005,3.640004 6.295389,6.295389 6.29539,6.29539 -6.243194,6.338505 -6.243193,6.338505 3.156298,3.359726 c 1.735966,1.84785 3.544294,3.359727 4.018508,3.359727 0.474214,0 4.869626,-4.132749 9.767582,-9.183888 z m 32.238708,5.183888 c 0,-3.287685 -0.168899,-3.338584 -12.333334,-3.716701 L 48.000001,57.233266 v 4.100069 4.10007 L 60.333335,65.050037 C 72.49777,64.671919 72.666669,64.621021 72.666669,61.333335 Z"
       id="path34"
       inkscape:connector-curvature="0" />
    <path
       style="fill:#789e93;stroke-width:1.33333337"
       d="m 13.616138,78.41614 c -2.08403,-2.08403 -2.297983,-59.984077 -0.235892,-63.837128 1.325377,-2.47649 3.273237,-2.5782 49.000001,-2.558595 26.190866,0.01123 48.380663,0.503384 49.310673,1.093676 1.30659,0.829323 1.60964,8.476598 1.33333,33.646251 l -0.35758,32.572992 -48.717198,0.34947 C 27.171499,79.946632 14.836206,79.636206 13.616138,78.41614 Z M 83.333336,46.000001 V 20.666667 L 53.50122,20.307383 c -20.883595,-0.251512 -30.382411,0.09743 -31.666667,1.16326 -2.488459,2.065238 -2.679248,46.484663 -0.210264,48.953647 1.202753,1.202753 9.420858,1.531479 31.666667,1.266667 l 30.04238,-0.357622 z"
       id="path32"
       inkscape:connector-curvature="0" />
    <path
       style="fill:#8c7155;stroke-width:1.33333337"
       d="M 13.616138,78.41614 C 12.445335,77.245337 12,68.480083 12,46.606652 12,19.049146 12.212863,16.220663 14.438322,14.206651 16.607966,12.243149 21.942415,12 62.85015,12 c 34.679179,0 46.53358,0.409533 48.25326,1.666999 2.05914,1.505675 2.24509,4.763782 1.92151,33.666668 l -0.35825,31.999669 -48.717198,0.34947 C 27.171499,79.946632 14.836206,79.636206 13.616138,78.41614 Z m 70.117198,-8.016138 c 2.248348,-2.248348 2.248348,-46.551653 0,-48.800001 -2.269745,-2.269744 -61.196925,-2.269744 -63.466669,0 -2.248348,2.248348 -2.248348,46.551653 0,48.800001 2.269744,2.269744 61.196924,2.269744 63.466669,0 z"
       id="path30"
       inkscape:connector-curvature="0" />
    <path
       style="fill:#90613f;stroke-width:1.33333337"
       d="m 13.982288,77.000002 c -0.40435,-1.65 -0.565781,-16.5 -0.358736,-33.000001 L 14,14 60.666668,13.628056 c 25.666668,-0.204569 48.016672,-0.04313 49.666672,0.358736 l 3,0.73068 v 31.041265 c 0,22.365429 -0.44719,31.488455 -1.6,32.641265 -1.18483,1.184823 -13.979544,1.6 -49.307936,1.6 H 14.717472 Z M 84.666669,46.000001 V 20.666667 L 53.500055,20.308351 c -21.870361,-0.25144 -31.713469,0.09553 -33.000001,1.163259 -2.486688,2.063768 -2.677196,46.484583 -0.20994,48.951839 1.204745,1.204745 9.715745,1.531429 33.000001,1.266666 l 31.376554,-0.35678 z"
       id="path28"
       inkscape:connector-curvature="0" />
    <path
       style="fill:#8a5d3a;stroke-width:1.33333337"
       d="m 13.982288,77.000002 c -0.40435,-1.65 -0.565781,-16.5 -0.358736,-33.000001 L 14,14 60.666668,13.628056 c 25.666668,-0.204569 48.016672,-0.04313 49.666672,0.358736 l 3,0.73068 v 31.041265 c 0,22.365429 -0.44719,31.488455 -1.6,32.641265 -1.18483,1.184823 -13.979544,1.6 -49.307936,1.6 H 14.717472 Z m 53.760846,-0.661696 c -8.574612,-0.231884 -22.974613,-0.232597 -32.000001,-0.0016 -9.02539,0.231028 -2.009799,0.420752 15.590202,0.421624 17.6,8.72e-4 24.98441,-0.188138 16.409799,-0.420024 z m 41.281946,-30.022277 0.35841,-30.350641 -46.358411,0.35064 c -45.302827,0.342655 -46.361396,0.411359 -46.489456,3.017306 -0.09975,2.029901 0.002,2.109497 0.426068,0.333333 0.517023,-2.16543 3.812548,-2.333333 45.797712,-2.333333 H 108 v 29.337759 29.33776 L 97.924804,75.857405 c -5.54136,-0.08329 -10.467666,0.241017 -10.947348,0.720699 -0.479682,0.479681 4.204158,0.695842 10.408533,0.480357 l 11.280681,-0.391792 z m -92.114261,24.10064 c -0.425635,-1.063644 -0.741577,-0.747702 -0.805556,0.805556 -0.05789,1.405554 0.257237,2.193054 0.700293,1.75 0.443055,-0.443056 0.490424,-1.593056 0.105267,-2.555556 z M 84.666669,46.000001 V 20.666667 L 53.500055,20.308351 c -21.870361,-0.25144 -31.713469,0.09553 -33.000001,1.163259 -2.486688,2.063768 -2.677196,46.484583 -0.20994,48.951839 1.204745,1.204745 9.715745,1.531429 33.000001,1.266666 l 31.376554,-0.35678 z m 8.322067,-17.666667 c -0.256542,-4.95 -0.466439,-0.9 -0.466439,9 0,9.900001 0.209897,13.950001 0.466439,9.000001 0.256542,-4.95 0.256542,-13.050001 0,-18.000001 z m 13.677934,9 c 0,-10.666667 -0.51282,-17.333333 -1.33333,-17.333333 -0.82052,0 -1.33334,6.666666 -1.33334,17.333333 0,10.666667 0.51282,17.333334 1.33334,17.333334 0.82051,0 1.33333,-6.666667 1.33333,-17.333334 z"
       id="path26"
       inkscape:connector-curvature="0" />
    <path
       style="fill:#645841;stroke-width:1.33333337"
       d="m 13.982288,77.000002 c -0.40435,-1.65 -0.565781,-16.5 -0.358736,-33.000001 L 14,14 60.666668,13.628056 c 25.666668,-0.204569 48.016672,-0.04313 49.666672,0.358736 l 3,0.73068 v 31.041265 c 0,22.365429 -0.44719,31.488455 -1.6,32.641265 -1.18483,1.184823 -13.979544,1.6 -49.307936,1.6 H 14.717472 Z M 110,46.666668 V 16.666667 L 63.000002,16.316276 16,15.965887 V 46.666668 77.367449 L 63.000002,77.01706 110,76.666669 Z M 18.933334,73.066669 c -1.133707,-1.133707 -1.6,-9.085873 -1.6,-27.286422 0,-24.030806 0.16623,-25.775386 2.579012,-27.066668 1.563428,-0.836722 14.659906,-1.380245 33.257729,-1.380245 30.191026,0 30.711713,0.04711 32.754322,2.963341 1.68796,2.4099 2.075605,7.351647 2.075605,26.460018 0,21.069874 -0.251836,23.724584 -2.438321,25.703325 -2.123097,1.921379 -6.484094,2.206651 -33.733334,2.206651 -22.562788,0 -31.74146,-0.446447 -32.895013,-1.6 z M 84.666669,46.000001 V 20.666667 L 53.500055,20.308351 c -21.870361,-0.25144 -31.713469,0.09553 -33.000001,1.163259 -2.486688,2.063768 -2.677196,46.484583 -0.20994,48.951839 1.204745,1.204745 9.715745,1.531429 33.000001,1.266666 l 31.376554,-0.35678 z m 6,22.000001 c 0,-0.752137 3.777777,-1.333333 8.666667,-1.333333 4.888894,0 8.666664,0.581196 8.666664,1.333333 0,0.752137 -3.77777,1.333333 -8.666664,1.333333 -4.88889,0 -8.666667,-0.581196 -8.666667,-1.333333 z m 0,-4 c 0,-0.752138 3.777777,-1.333334 8.666667,-1.333334 4.888894,0 8.666664,0.581196 8.666664,1.333334 0,0.752137 -3.77777,1.333333 -8.666664,1.333333 -4.88889,0 -8.666667,-0.581196 -8.666667,-1.333333 z m 0,-4 c 0,-0.752138 3.777777,-1.333334 8.666667,-1.333334 4.888894,0 8.666664,0.581196 8.666664,1.333334 0,0.752137 -3.77777,1.333333 -8.666664,1.333333 -4.88889,0 -8.666667,-0.581196 -8.666667,-1.333333 z m 0,-4 c 0,-0.752138 3.777777,-1.333334 8.666667,-1.333334 4.888894,0 8.666664,0.581196 8.666664,1.333334 0,0.752137 -3.77777,1.333333 -8.666664,1.333333 -4.88889,0 -8.666667,-0.581196 -8.666667,-1.333333 z"
       id="path24"
       inkscape:connector-curvature="0" />
    <path
       style="fill:#784823;stroke-width:1.33333337"
       d="m 13.982288,77.000002 c -0.40435,-1.65 -0.565781,-16.5 -0.358736,-33.000001 L 14,14 60.666668,13.628056 c 25.666668,-0.204569 48.016672,-0.04313 49.666672,0.358736 l 3,0.73068 v 31.041265 c 0,22.365429 -0.44719,31.488455 -1.6,32.641265 -1.18483,1.184823 -13.979544,1.6 -49.307936,1.6 H 14.717472 Z M 110,46.666668 V 16.666667 L 63.000002,16.316276 16,15.965887 V 46.666668 77.367449 L 63.000002,77.01706 110,76.666669 Z M 18.933334,73.066669 c -1.133707,-1.133707 -1.6,-9.085873 -1.6,-27.286422 0,-24.030806 0.16623,-25.775386 2.579012,-27.066668 1.563428,-0.836722 14.659906,-1.380245 33.257729,-1.380245 30.191026,0 30.711713,0.04711 32.754322,2.963341 1.68796,2.4099 2.075605,7.351647 2.075605,26.460018 0,21.069874 -0.251836,23.724584 -2.438321,25.703325 -2.123097,1.921379 -6.484094,2.206651 -33.733334,2.206651 -22.562788,0 -31.74146,-0.446447 -32.895013,-1.6 z m 63.82099,-1.113579 c 2.406573,-1.287959 2.579012,-3.023245 2.579012,-25.953089 0,-22.929843 -0.172439,-24.66513 -2.579012,-25.953088 -1.545543,-0.827151 -13.92587,-1.380246 -30.895013,-1.380246 -24.477238,0 -28.646562,0.299152 -30.754322,2.206651 -2.180225,1.973075 -2.438322,4.608217 -2.438322,24.895013 0,19.240662 0.33532,23.058887 2.206651,25.126683 2.006877,2.217576 4.791123,2.438321 30.754322,2.438321 17.128839,0 29.579255,-0.552086 31.126684,-1.380245 z m 7.912345,-3.953088 c 0,-0.752137 3.777777,-1.333333 8.666667,-1.333333 4.888894,0 8.666664,0.581196 8.666664,1.333333 0,0.752137 -3.77777,1.333333 -8.666664,1.333333 -4.88889,0 -8.666667,-0.581196 -8.666667,-1.333333 z m 0,-4 c 0,-0.752138 3.777777,-1.333334 8.666667,-1.333334 4.888894,0 8.666664,0.581196 8.666664,1.333334 0,0.752137 -3.77777,1.333333 -8.666664,1.333333 -4.88889,0 -8.666667,-0.581196 -8.666667,-1.333333 z m 0,-4 c 0,-0.752138 3.777777,-1.333334 8.666667,-1.333334 4.888894,0 8.666664,0.581196 8.666664,1.333334 0,0.752137 -3.77777,1.333333 -8.666664,1.333333 -4.88889,0 -8.666667,-0.581196 -8.666667,-1.333333 z m 0,-4 c 0,-0.752138 3.777777,-1.333334 8.666667,-1.333334 4.888894,0 8.666664,0.581196 8.666664,1.333334 0,0.752137 -3.77777,1.333333 -8.666664,1.333333 -4.88889,0 -8.666667,-0.581196 -8.666667,-1.333333 z"
       id="path22"
       inkscape:connector-curvature="0" />
    <path
       style="fill:#764318;stroke-width:1.33333337"
       d="m 14.933334,78.400002 c -2.269745,-2.269744 -2.269745,-61.196924 0,-63.466668 2.093005,-2.093006 91.935796,-2.299051 95.820986,-0.219755 2.43385,1.302555 2.57902,3.088732 2.57902,31.733334 0,21.830181 -0.44927,30.802357 -1.6,31.953089 -2.29336,2.293358 -94.506649,2.293358 -96.800006,0 z m 94.262696,-1.567885 c 1.06583,-1.284256 1.41477,-10.783072 1.16326,-31.666668 L 110,15.333334 64.945608,14.982199 C 35.400997,14.75194 18.991951,15.112332 17.27894,16.029111 c -2.467016,1.320307 -2.612273,2.957276 -2.612273,29.43879 0,16.779402 0.554315,29.076493 1.380245,30.619756 1.322867,2.4718 3.256067,2.579012 46.503408,2.579012 36.674259,0 45.40825,-0.343504 46.64571,-1.834552 z M 19.428573,72.57143 c -1.75271,-1.752709 -2.091902,-6.057673 -2.074822,-26.333334 0.0112,-13.330952 0.491056,-24.979061 1.066281,-25.884685 0.575224,-0.905624 2.816038,-1.878174 4.979583,-2.161221 2.163546,-0.283048 3.033719,-0.23014 1.933719,0.117572 -1.1,0.347713 -3.05,1.563256 -4.333333,2.701205 -2.052317,1.819819 -2.333334,4.842815 -2.333334,25.100446 0,19.159901 0.352206,23.383652 2.095239,25.126684 1.779083,1.779084 6.567388,2.095238 31.733334,2.095238 21.274074,0 30.089624,-0.451528 31.238096,-1.6 2.25321,-2.25321 2.25321,-49.213457 0,-51.466668 -1.11641,-1.116409 -9.680005,-1.691725 -28.333335,-1.90348 l -26.733334,-0.30348 26.368106,-0.391489 c 16.726004,-0.248332 27.330519,0.123573 29.000001,1.017059 2.48167,1.328149 2.631895,2.887241 2.631895,27.314724 0,24.24807 -0.165068,25.99452 -2.579012,27.286422 -1.558524,0.834098 -14.44669,1.380246 -32.571429,1.380246 -25.488057,0 -30.307087,-0.31467 -32.087655,-2.095239 z m 71.238096,-4.571428 c 0,-0.752137 3.777777,-1.333333 8.666667,-1.333333 4.888894,0 8.666664,0.581196 8.666664,1.333333 0,0.752137 -3.77777,1.333333 -8.666664,1.333333 -4.88889,0 -8.666667,-0.581196 -8.666667,-1.333333 z m 0,-4 c 0,-0.752138 3.777777,-1.333334 8.666667,-1.333334 4.888894,0 8.666664,0.581196 8.666664,1.333334 0,0.752137 -3.77777,1.333333 -8.666664,1.333333 -4.88889,0 -8.666667,-0.581196 -8.666667,-1.333333 z m 0,-4 c 0,-0.752138 3.777777,-1.333334 8.666667,-1.333334 4.888894,0 8.666664,0.581196 8.666664,1.333334 0,0.752137 -3.77777,1.333333 -8.666664,1.333333 -4.88889,0 -8.666667,-0.581196 -8.666667,-1.333333 z m 0,-4 c 0,-0.752138 3.777777,-1.333334 8.666667,-1.333334 4.888894,0 8.666664,0.581196 8.666664,1.333334 0,0.752137 -3.77777,1.333333 -8.666664,1.333333 -4.88889,0 -8.666667,-0.581196 -8.666667,-1.333333 z"
       id="path20"
       inkscape:connector-curvature="0" />
    <path
       style="fill:#653c18;stroke-width:1.33333337"
       d="m 14.933334,78.400002 c -2.269745,-2.269744 -2.269745,-61.196924 0,-63.466668 1.19519,-1.195191 13.255125,-1.520306 47.666668,-1.285007 l 46.066668,0.314993 -45.218406,0.369674 c -30.63284,0.250432 -45.793074,0.846605 -47.000001,1.848266 -2.436239,2.021899 -2.604577,58.462427 -0.181596,60.885409 1.182184,1.182184 13.530316,1.6 47.286423,1.6 43.80422,0 45.74329,-0.106253 47.06667,-2.579012 1.90887,-3.566751 1.83631,-55.410794 -0.0826,-58.996247 -1.15482,-2.157802 -1.08464,-2.607394 0.33333,-2.135367 2.41285,0.803209 3.34739,60.371538 0.99167,63.210001 -2.08121,2.507705 -94.43221,2.730614 -96.928866,0.233958 z m 4,-6.666667 c -2.253211,-2.25321 -2.253211,-49.213457 0,-51.466668 2.590544,-2.590544 4.353589,-1.828684 1.939984,0.838322 -3.205631,3.542181 -3.30208,46.942441 -0.111413,50.133108 1.152381,1.152381 1.572381,2.095238 0.933334,2.095238 -0.639048,0 -1.881905,-0.72 -2.761905,-1.6 z m 65.33823,-1.006029 c 1.839702,-2.945831 3.13501,-2.578644 1.935002,0.548525 -0.434245,1.131627 -1.413453,2.057504 -2.176016,2.057504 -0.877541,0 -0.789072,-0.956598 0.241014,-2.606029 z m 6.395105,-2.727304 c 0,-0.752137 3.777777,-1.333333 8.666667,-1.333333 4.888894,0 8.666664,0.581196 8.666664,1.333333 0,0.752137 -3.77777,1.333333 -8.666664,1.333333 -4.88889,0 -8.666667,-0.581196 -8.666667,-1.333333 z m 0,-4 c 0,-0.752138 3.777777,-1.333334 8.666667,-1.333334 4.888894,0 8.666664,0.581196 8.666664,1.333334 0,0.752137 -3.77777,1.333333 -8.666664,1.333333 -4.88889,0 -8.666667,-0.581196 -8.666667,-1.333333 z m 0,-4 c 0,-0.752138 3.777777,-1.333334 8.666667,-1.333334 4.888894,0 8.666664,0.581196 8.666664,1.333334 0,0.752137 -3.77777,1.333333 -8.666664,1.333333 -4.88889,0 -8.666667,-0.581196 -8.666667,-1.333333 z m 0,-4 c 0,-0.752138 3.777777,-1.333334 8.666667,-1.333334 4.888894,0 8.666664,0.581196 8.666664,1.333334 0,0.752137 -3.77777,1.333333 -8.666664,1.333333 -4.88889,0 -8.666667,-0.581196 -8.666667,-1.333333 z M 84.271564,21.272697 c -1.030086,-1.649431 -1.118555,-2.60603 -0.241014,-2.60603 0.762563,0 1.741771,0.925878 2.176016,2.057504 1.200008,3.12717 -0.09529,3.494356 -1.935002,0.548526 z"
       id="path18"
       inkscape:connector-curvature="0" />
    <path
       style="fill:#5a3611;stroke-width:1.33333337"
       d="m 14.933334,78.400002 c -1.150372,-1.150372 -1.6,-10.097053 -1.6,-31.836741 0,-27.23539 0.23161,-30.412001 2.333333,-32.002363 1.985032,-1.502065 2.084547,-1.486629 0.666667,0.1034 -2.327191,2.609753 -2.38859,60.080441 -0.06667,62.402364 2.349436,2.349436 91.842156,2.286108 94.212336,-0.06667 1.34621,-1.336331 1.50293,-1.204197 0.79068,0.666666 -0.82278,2.161202 -4.35009,2.33334 -47.812333,2.33334 -34.71868,0 -47.34019,-0.416173 -48.524016,-1.6 z m 67.733335,-5.570073 c 0,-0.276875 1.05,-1.326875 2.333333,-2.333334 2.114742,-1.658494 2.161902,-1.611334 0.503407,0.503407 -1.741825,2.220997 -2.83674,2.927305 -2.83674,1.829927 z m 8,-4.784875 c 0,-0.807585 3.588933,-1.378385 8.666667,-1.378385 4.766664,0 8.666664,0.51298 8.666664,1.139956 0,0.626974 -3.9,1.247248 -8.666664,1.378385 -5.231491,0.143924 -8.666667,-0.307916 -8.666667,-1.139956 z m 3.636928,-5.007362 c 2.366976,-0.294549 6.566973,-0.299389 9.333333,-0.0108 2.76636,0.288679 0.82974,0.529674 -4.303594,0.53559 -5.133334,0.0059 -7.396716,-0.23024 -5.029739,-0.52479 z m 4.363072,-3.03769 -8.666667,-0.87307 9.000001,-0.230132 C 104.26453,58.762186 108,59.220071 108,60.000002 c 0,0.733333 -0.15,1.229773 -0.33333,1.103201 -0.18333,-0.126572 -4.23333,-0.623013 -9.000001,-1.103201 z m -4.363072,-4.96231 c 2.366976,-0.294549 6.566973,-0.299389 9.333333,-0.0108 2.76636,0.288679 0.82974,0.529674 -4.303594,0.53559 -5.133334,0.0059 -7.396716,-0.23024 -5.029739,-0.52479 z M 83.829929,20.333334 c -1.658495,-2.114741 -1.611335,-2.161901 0.503407,-0.503407 2.220997,1.741826 2.927305,2.83674 1.829926,2.83674 -0.276874,0 -1.326874,-1.05 -2.333333,-2.333333 z M 19.644445,19.83455 c 0.904445,-0.911224 1.980321,-1.320895 2.390837,-0.910379 0.410517,0.410516 -0.329483,1.156064 -1.644444,1.656772 -1.900264,0.72358 -2.053416,0.570428 -0.746393,-0.746393 z M 110,16 c -0.45322,-0.733333 -0.22404,-1.333333 0.50929,-1.333333 0.73333,0 1.70415,0.6 2.15738,1.333333 0.45322,0.733334 0.22404,1.333334 -0.50929,1.333334 -0.73333,0 -1.70415,-0.6 -2.15738,-1.333334 z"
       id="path16"
       inkscape:connector-curvature="0" />
  </g>
</svg>
