<?xml version="1.0" encoding="UTF-8" standalone="no"?>
<!-- Created with Inkscape (http://www.inkscape.org/) -->

<svg
   xmlns:dc="http://purl.org/dc/elements/1.1/"
   xmlns:cc="http://creativecommons.org/ns#"
   xmlns:rdf="http://www.w3.org/1999/02/22-rdf-syntax-ns#"
   xmlns:svg="http://www.w3.org/2000/svg"
   xmlns="http://www.w3.org/2000/svg"
   xmlns:sodipodi="http://sodipodi.sourceforge.net/DTD/sodipodi-0.dtd"
   xmlns:inkscape="http://www.inkscape.org/namespaces/inkscape"
   version="1.1"
   id="svg2"
   width="126.66667"
   height="93.333336"
   viewBox="0 0 126.66667 93.333336"
   sodipodi:docname="texteditor.svg"
   inkscape:version="0.92.2 5c3e80d, 2017-08-06">
  <metadata
     id="metadata8">
    <rdf:RDF>
      <cc:Work
         rdf:about="">
        <dc:format>image/svg+xml</dc:format>
        <dc:type
           rdf:resource="http://purl.org/dc/dcmitype/StillImage" />
        <dc:title></dc:title>
      </cc:Work>
    </rdf:RDF>
  </metadata>
  <defs
     id="defs6" />
  <sodipodi:namedview
     pagecolor="#ffffff"
     bordercolor="#666666"
     borderopacity="1"
     objecttolerance="10"
     gridtolerance="10"
     guidetolerance="10"
     inkscape:pageopacity="0"
     inkscape:pageshadow="2"
     inkscape:window-width="1918"
     inkscape:window-height="1027"
     id="namedview4"
     showgrid="false"
     inkscape:zoom="2.1552631"
     inkscape:cx="63.333336"
     inkscape:cy="46.666668"
     inkscape:window-x="0"
     inkscape:window-y="0"
     inkscape:window-maximized="1"
     inkscape:current-layer="svg2" />
  <g
     id="g30">
    <path
       style="fill:#f4f4f4;stroke-width:1.33333337"
       d="m 28.266667,83.733336 -1.6,-1.6 V 45.780247 9.4271569 L 29.245679,8.046912 31.82469,6.6666669 h 33.154324 33.154322 l 1.6,1.6 1.600004,1.6 V 46.000001 82.133336 l -1.600004,1.6 -1.6,1.6 H 64.000002 29.866667 Z"
       id="path52"
       inkscape:connector-curvature="0" />
    <path
       style="fill:#acf8ec;stroke-width:1.33333337"
       d="M 29.333334,46.000001 V 9.3333336 H 64.000002 98.666669 V 46.000001 82.666669 H 64.000002 29.333334 Z M 43.691241,46.333335 43.333334,15.333334 39.666668,14.911438 36.000001,14.48954 v 2.088564 2.088563 h 2 2 v 2.666667 2.666667 h -2 -2 v 5.190681 5.190682 l 2,0.767472 2,0.767472 v 2.041846 2.041847 h -2 -2 v 6 6 h 2 2 v 2.041847 2.041847 l -2,0.767472 -2,0.767472 v 5.857348 5.857348 h 2 2 v 2.666667 2.666667 h -2 -2 v 1.333333 1.333334 h 4.024573 4.024575 z M 46.329949,30.4098 45.909927,14 45.908327,46.000001 45.906727,78.000002 46.328336,62.4098 46.749944,46.819597 46.329921,30.4098 Z M 92.000002,46.000001 V 14.666667 H 70.666669 49.333335 v 3.333334 3.333333 h 20.078689 20.07869 l -0.824045,1.333333 -0.824045,1.333334 H 68.587979 49.333335 v 2.666666 2.666667 h 20.078689 20.07869 l -0.824045,1.333334 -0.824045,1.333333 H 68.587979 49.333335 v 2.666667 2.666666 h 20.078689 20.07869 l -0.824045,1.333334 -0.824045,1.333333 H 68.587979 49.333335 v 2.666667 2.666667 h 20.078689 20.07869 l -0.824045,1.333333 -0.824045,1.333333 H 68.587979 49.333335 v 2.666667 2.666667 h 20.078689 20.07869 l -0.824045,1.333333 -0.824045,1.333334 H 68.587979 49.333335 v 2.666666 2.666667 h 20.078689 20.07869 l -0.824045,1.333333 -0.824045,1.333334 H 68.587979 49.333335 v 2.666667 2.666666 h 20.078689 20.07869 l -0.824045,1.333334 -0.824045,1.333333 H 68.587979 49.333335 v 2.666667 2.666667 H 70.666669 92.000002 Z M 34.666668,72.000002 v -1.333333 h -1.333334 -1.333333 v 1.333333 1.333333 h 1.333333 1.333334 z m 0,-50.666668 v -1.333333 h -1.333334 -1.333333 v 1.333333 1.333333 h 1.333333 1.333334 z"
       id="path50"
       inkscape:connector-curvature="0" />
    <path
       style="fill:#63fcec;stroke-width:1.33333337"
       d="M 29.333334,46.000001 V 9.3333336 H 64.000002 98.666669 V 46.000001 82.666669 H 64.000002 29.333334 Z M 43.691241,46.333335 43.333334,15.333334 39.666668,14.911438 36.000001,14.48954 v 2.088564 2.088563 h 2 2 v 2.666667 2.666667 h -2 -2 v 5.190681 5.190682 l 2,0.767472 2,0.767472 v 2.041846 2.041847 h -2 -2 v 6 6 h 2 2 v 2.041847 2.041847 l -2,0.767472 -2,0.767472 v 5.857348 5.857348 h 2 2 v 2.666667 2.666667 h -2 -2 v 1.333333 1.333334 h 4.024573 4.024575 z M 46.329949,30.4098 45.909927,14 45.908327,46.000001 45.906727,78.000002 46.328336,62.4098 46.749944,46.819597 46.329921,30.4098 Z M 92.000002,46.000001 V 14.666667 H 70.666669 49.333335 v 3.333334 3.333333 l 19.666667,0.294832 19.666667,0.294833 -19.666667,0.407478 -19.666667,0.407478 v 3.29769 3.297689 L 69.000002,29.628166 88.666669,29.923 69.000002,30.330477 49.333335,30.737956 v 3.297689 3.297689 L 69.000002,37.628166 88.666669,37.923 69.000002,38.330477 49.333335,38.737956 v 3.297689 3.29769 L 69.000002,45.628167 88.666669,45.923 69.000002,46.330477 49.333335,46.737956 v 3.297689 3.29769 L 69.000002,53.628167 88.666669,53.923 69.000002,54.330478 49.333335,54.737956 v 3.29769 3.297689 L 69.000002,61.628167 88.666669,61.923 69.000002,62.330478 49.333335,62.737956 v 3.29769 3.297689 l 19.666667,0.294832 19.666667,0.294834 -19.666667,0.407477 -19.666667,0.407479 v 3.297689 3.29769 H 70.666669 92.000002 Z M 34.666668,72.000002 v -1.333333 h -1.333334 -1.333333 v 1.333333 1.333333 h 1.333333 1.333334 z m 0,-50.666668 v -1.333333 h -1.333334 -1.333333 v 1.333333 1.333333 h 1.333333 1.333334 z"
       id="path48"
       inkscape:connector-curvature="0" />
    <path
       style="fill:#dba3a4;stroke-width:1.33333337"
       d="M 29.333334,46.000001 V 9.3333336 H 64.000002 98.666669 V 46.000001 82.666669 H 64.000002 29.333334 Z M 43.691241,46.333335 43.333334,15.333334 39.666668,14.911438 36.000001,14.48954 v 2.088564 2.088563 h 2 2 v 2.666667 2.666667 h -2 -2 v 5.190681 5.190682 l 2,0.767472 2,0.767472 v 2.041846 2.041847 h -2 -2 v 6 6 h 2 2 v 2.041847 2.041847 l -2,0.767472 -2,0.767472 v 5.857348 5.857348 h 2 2 v 2.666667 2.666667 h -2 -2 v 1.333333 1.333334 h 4.024573 4.024575 z M 46.329949,30.4098 45.909927,14 45.908327,46.000001 45.906727,78.000002 46.328336,62.4098 46.749944,46.819597 46.329921,30.4098 Z M 92.000002,46.000001 V 14.666667 H 70.666669 49.333335 V 46.000001 77.333336 H 70.666669 92.000002 Z M 34.666668,72.000002 v -1.333333 h -1.333334 -1.333333 v 1.333333 1.333333 h 1.333333 1.333334 z m 0,-50.666668 v -1.333333 h -1.333334 -1.333333 v 1.333333 1.333333 h 1.333333 1.333334 z"
       id="path46"
       inkscape:connector-curvature="0" />
    <path
       style="fill:#b19b90;stroke-width:1.33333337"
       d="M 29.645238,46.333335 30.000001,10 h 34.000001 34.000001 l 0.354762,36.333335 0.354763,36.333334 H 64.000002 29.290475 Z M 92.000002,45.950459 V 14.56758 l -28,0.228652 -28.000001,0.228652 v 1.820892 1.820891 h 2 2 v 2.041847 2.041847 l -2,0.767472 -2,0.767472 v 5.048029 5.04803 l 2,0.767472 2,0.767472 v 2.041846 2.041847 h -2 -2 v 6 6 h 2 2 v 2.041847 2.041847 l -2,0.767472 -2,0.767472 v 5.714696 5.714696 l 2,0.767472 2,0.767472 v 2.041847 2.041847 h -2 -2 v 1.333333 1.333334 h 28.000001 28 z M 34.666668,72.000002 V 70.666669 H 33.412024 32.15738 l -0.824046,1.333333 -0.824045,1.333333 h 2.078689 2.07869 z m -0.361111,-18.13889 -0.805556,-0.805554 -1.75,0.700292 -1.75,0.700292 2.555556,0.105264 2.555555,0.105262 z m 0,-16 -0.805556,-0.805555 -1.75,0.700292 -1.75,0.700292 2.555556,0.105264 2.555555,0.105263 z m 0.361111,-16.527778 v -1.333333 h -2.07869 -2.078689 l 0.824045,1.333333 0.824046,1.333333 h 1.254644 1.254644 z"
       id="path44"
       inkscape:connector-curvature="0" />
    <path
       style="fill:#a78473;stroke-width:1.33333337"
       d="M 29.645238,46.333335 30.000001,10 h 34.000001 34.000001 l 0.354762,36.333335 0.354763,36.333334 H 64.000002 29.290475 Z M 92.000002,45.959992 V 14.58665 l -28,0.183808 -28.000001,0.183809 v 1.375876 1.375878 l 2.2037,1.611385 2.2037,1.611384 -0.949056,1.535605 -0.949056,1.535606 -1.587977,-0.001 -1.587978,-0.001 0.191234,5.001011 0.191233,5.001012 0.994317,2.445128 0.994319,2.445128 1.127365,-1.778461 1.127364,-1.778462 0.02042,1.791494 0.02042,1.791492 -2.337421,0.611249 -2.33742,0.611249 0.471678,5.930593 0.471679,5.93059 h 1.865743 1.865741 l -0.02042,2.333334 -0.02042,2.333333 -1.221305,-1.93046 -1.221305,-1.93046 -0.693404,3.263794 -0.693404,3.263793 -0.463806,5 -0.463806,5 h 1.653577 1.653576 l 0.949056,1.535606 0.949056,1.535605 -2.2037,1.611384 -2.2037,1.611385 v 0.853011 0.85301 h 28.000001 28 z m -57.333334,26.04001 v -1.333333 h -2 -2.000001 v 1.333333 1.333333 h 2.000001 2 z m 0,-17.333334 v -1.333333 h -2 -2.000001 v 1.333333 1.333334 h 2.000001 2 z m 0,-17.333334 v -1.333333 h -2 -2.000001 v 1.333333 1.333334 h 2.000001 2 z m 0,-16 v -1.333333 h -2 -2.000001 v 1.333333 1.333333 h 2.000001 2 z"
       id="path42"
       inkscape:connector-curvature="0" />
    <path
       style="fill:#865f4b;stroke-width:1.33333337"
       d="M 30.28113,81.836688 29.406389,80.961945 29.380659,45.836999 29.35493,10.712052 32.344133,9.9800968 35.333334,9.2481415 66.666668,9.6240709 98.000003,10 V 46.000001 82.000002 L 64.577938,82.355716 31.155873,82.71143 Z M 93.024576,46.333335 92.666669,15.333334 H 64.111112 35.555557 l -0.498967,1.4969 -0.498966,1.4969 2.721188,0.711608 2.721189,0.711607 -0.105263,1.791492 -0.105264,1.791493 -0.69607,-1.737337 -0.696072,-1.737336 -1.822928,2.404002 -1.822927,2.404004 v 4.666667 4.666667 l 1.756097,2.312608 1.756099,2.312609 1.081931,-0.979276 1.081932,-0.979274 -0.959124,1.666666 -0.959123,1.666667 h -1.921311 -1.92131 v 5.844492 5.844491 l 2.666666,0.697349 2.666667,0.69735 -0.105267,1.791492 -0.10526,1.791493 -0.69607,-1.737337 -0.696072,-1.737336 -1.822928,2.404003 -1.822927,2.404004 v 5.333333 5.333334 l 1.822927,2.404004 1.822928,2.404002 0.696072,-1.737336 0.69607,-1.737337 0.105264,1.791493 0.105263,1.791492 -2.666667,0.69735 -2.666666,0.697349 v 1.177824 1.177826 H 64.024575 93.382484 Z M 34.666668,72.000002 v -1.333333 h -2 -2.000001 v 1.333333 1.333333 h 2.000001 2 z M 34.411112,54.566668 33.933334,53.133335 h -1.266666 -1.266667 l -0.477778,1.433333 -0.477778,1.433334 h 2.222223 2.222222 z m 0.255556,-17.312023 v -1.254644 h -2 -2.000001 v 1.111111 1.111112 l 0.85264,0.85264 0.852641,0.85264 1.14736,-0.709107 1.14736,-0.709108 z m 0,-15.921311 v -1.333333 h -2 -2.000001 v 1.333333 1.333333 h 2.000001 2 z"
       id="path40"
       inkscape:connector-curvature="0" />
    <path
       style="fill:#795847;stroke-width:1.33333337"
       d="m 30.244603,81.800161 -0.911269,-0.911269 0.04054,-14.111113 0.04054,-14.111111 1.374736,2.361376 1.374737,2.361378 1.251385,-0.7734 1.251387,-0.773399 V 53.921312 52.000001 H 32.000001 29.333334 V 32.266668 12.533334 l 1.6,-1.6 1.6,-1.6000004 31.400001,0.020417 31.400001,0.020417 1.689275,1.0722444 1.689274,1.072245 -0.355941,35.240672 -0.355941,35.240673 -33.422065,0.355714 -33.422065,0.355714 z M 93.024134,46.333335 93.381598,14.666667 H 64.024134 34.666668 v 2.041847 2.041847 l -2,0.767472 -2.000001,0.767472 v 1.190681 1.190681 h 2.000001 2 v -2 -2 h 1.333333 1.333333 v 1.921311 1.921311 l -1.333333,0.824045 -1.333333,0.824045 v 4.60607 4.606069 l 1.666666,2.822779 1.666667,2.82278 -1.666667,0.603573 -1.666666,0.603574 v 5.777777 5.777778 l 1.666666,0.559596 1.666667,0.559596 -1.583988,3.218183 -1.583987,3.218181 -0.433721,4.666667 -0.433723,4.666667 2.239932,2.222222 2.239931,2.222222 0.991545,-0.888888 0.991546,-0.88889 -0.959124,1.666667 -0.959123,1.666667 h -1.921311 -1.92131 v -2 -2 h -2 -2.000001 v 0.553398 0.553399 l 2.934638,3.294667 2.934636,3.294665 L 64.601306,78.1814 92.666669,78.000002 Z M 34.666668,38.000001 v -2 h -2 -2.000001 v 2 2 h 2.000001 2 z"
       id="path38"
       inkscape:connector-curvature="0" />
    <path
       style="fill:#854e31;stroke-width:1.33333337"
       d="m 30.666667,78.617454 v -3.950785 h 1.907266 1.907265 l 0.524814,-3 0.524813,-3 1.095544,2.4679 1.095545,2.4679 -1.698444,1.049694 -1.698444,1.049696 0.82137,1.329003 0.821368,1.329003 28.349452,-0.179932 28.349453,-0.179931 0.357465,-31.666667 0.357464,-31.666668 H 64.024134 34.666668 v 1.888889 1.888889 l 1.666666,0.603573 1.666667,0.603573 -1.666667,2.82278 -1.666666,2.822779 v 4.529251 4.529249 l -2.666667,0.69735 -2.666667,0.697349 v -6.541841 -6.541841 h 2.666667 2.666667 v -2 -2 H 32.777778 30.88889 L 30.328121,17 29.76735,15.333334 30.372518,13 l 0.605167,-2.333333 14.511158,-0.08 14.511159,-0.08 h 13.333333 13.333334 l 5.666667,0.07946 5.666667,0.07946 -0.3054,33.000545 -0.3054,33.000545 -0.02793,2.999525 -0.02793,2.999526 L 64.000002,82.61698 30.666667,82.56824 Z M 29.333334,68.213581 v -2.546912 l 0.833333,-4.166667 0.833334,-4.166667 h 1.833333 1.833334 v 5.286421 5.286422 l -2.666667,1.427157 -2.666667,1.427158 z m 5.333334,-14.213579 v -2.000001 h -2.666667 -2.666667 l 0.105267,-7.666666 0.105266,-7.666667 0.672515,1.666666 0.672515,1.666667 h 1.888888 1.888883 v -2 -2 h 1.333333 1.333333 v 2 2 h -1.333333 -1.333333 v 6 6 h 1.333333 1.333333 v 2.000001 2 h -1.333333 -1.333333 z"
       id="path36"
       inkscape:connector-curvature="0" />
    <path
       style="fill:#774e37;stroke-width:1.33333337"
       d="M 30.666667,80.503409 V 78.34015 l 1.722253,1.429342 1.72225,1.429341 9.27775,0.472771 9.277748,0.47277 -11,0.261148 -11.000001,0.261147 z m 42.573455,1.164655 20.573452,-0.406772 1.759882,-1.460571 1.75988,-1.460571 v 2.163259 2.16326 L 75.000002,82.370752 52.666668,82.074834 Z M 34.666668,71.921313 v -2.745356 l 1.333333,0.824045 1.333333,0.824045 v 1.921311 1.921311 h -1.333333 -1.333333 z m -5.023997,-5.254644 v -4.666667 l 0.609764,2.333333 0.609763,2.333334 -0.609763,2.333333 -0.609764,2.333333 z m 5.023997,-12.666667 v -2.000001 h 1.333333 1.333333 v 2.000001 2 h -1.333333 -1.333333 z m -5.109197,-9.05257 -0.224137,-7.719235 1.852447,1.719235 1.852448,1.719236 -1.086453,0.683968 -1.086453,0.683968 -0.541857,5.316032 -0.541857,5.316032 z m 5.109197,-6.947431 v -2 h 1.333333 1.333333 v 2 2 h -1.333333 -1.333333 z m -5.093003,-8.333333 -0.240331,-7.000001 h 2.666667 2.666667 v -2 -2 h 1.431098 1.431099 l -0.44472,2.333334 -0.444719,2.333333 -2.916738,0.416943 -2.916741,0.416941 -0.495976,6.249726 -0.495976,6.249724 z m 66.885118,-15.67707 -1.541221,-3.322931 h 1.874554 1.874553 V 14 17.333334 l -0.333333,-0.0104 -0.333333,-0.0104 -1.54122,-3.322931 z m -66.178448,-0.656264 0.69735,-2.666667 h 1.831441 1.831442 L 32.357297,13.333334 30.074025,16 h -0.245519 -0.24552 z"
       id="path34"
       inkscape:connector-curvature="0" />
    <path
       style="fill:#533425;stroke-width:1.33333337"
       d="m 34.666668,72.745358 v -2.078689 h 1.333333 1.333333 v 1.254644 1.254644 l -1.333333,0.824045 -1.333333,0.824045 z"
       id="path32"
       inkscape:connector-curvature="0" />
  </g>
</svg>
