<?xml version="1.0" encoding="UTF-8" standalone="no"?>
<!-- Created with Inkscape (http://www.inkscape.org/) -->

<svg
   xmlns:dc="http://purl.org/dc/elements/1.1/"
   xmlns:cc="http://creativecommons.org/ns#"
   xmlns:rdf="http://www.w3.org/1999/02/22-rdf-syntax-ns#"
   xmlns:svg="http://www.w3.org/2000/svg"
   xmlns="http://www.w3.org/2000/svg"
   xmlns:sodipodi="http://sodipodi.sourceforge.net/DTD/sodipodi-0.dtd"
   xmlns:inkscape="http://www.inkscape.org/namespaces/inkscape"
   version="1.1"
   id="svg2"
   width="95"
   height="70"
   viewBox="0 0 95 70"
   sodipodi:docname="update.svg"
   inkscape:version="0.92.2 5c3e80d, 2017-08-06">
  <metadata
     id="metadata8">
    <rdf:RDF>
      <cc:Work
         rdf:about="">
        <dc:format>image/svg+xml</dc:format>
        <dc:type
           rdf:resource="http://purl.org/dc/dcmitype/StillImage" />
        <dc:title></dc:title>
      </cc:Work>
    </rdf:RDF>
  </metadata>
  <defs
     id="defs6" />
  <sodipodi:namedview
     pagecolor="#ffffff"
     bordercolor="#666666"
     borderopacity="1"
     objecttolerance="10"
     gridtolerance="10"
     guidetolerance="10"
     inkscape:pageopacity="0"
     inkscape:pageshadow="2"
     inkscape:window-width="1918"
     inkscape:window-height="1027"
     id="namedview4"
     showgrid="false"
     inkscape:zoom="2.8736842"
     inkscape:cx="47.5"
     inkscape:cy="35"
     inkscape:window-x="0"
     inkscape:window-y="0"
     inkscape:window-maximized="1"
     inkscape:current-layer="svg2" />
  <g
     id="g44">
    <path
       style="fill:#d4e4eb"
       d="M 25.893269,53.503091 C 22.274607,51.536244 20,47.707122 20,43.582236 c 0,-5.055396 1.805753,-8.262177 5.690521,-10.10562 1.877374,-0.890872 3.818483,-2.685198 4.313575,-3.98739 1.055903,-2.777233 3.072015,-3.968746 8.319348,-4.916692 2.723276,-0.491968 5.084109,-2.006418 8.204664,-5.263211 4.247895,-4.433349 4.530866,-4.558115 9.298794,-4.099977 C 64.321536,16.025572 69,20.806427 69,28.670744 c 0,2.317625 0.86351,4.566768 2.5,6.511625 4.517642,5.368913 2.65261,16.668513 -3.112996,18.860592 -4.176231,1.5878 -39.402583,1.140261 -42.493735,-0.53987 z"
       id="path74"
       inkscape:connector-curvature="0" />
    <path
       style="fill:#c3dae3"
       d="m 25.673764,53.123413 c -3.340826,-2.202693 -5.675235,-6.31474 -5.670026,-9.98772 0.0048,-3.353092 3.276817,-8.772575 5.775293,-9.56556 1.054363,-0.334642 3.356617,-2.399821 5.11612,-4.589287 C 33.574555,25.646686 34.689199,25 37.756637,25 c 3.050707,0 4.338495,-0.736417 7.710489,-4.409215 5.485701,-5.97506 9.764377,-6.817237 16.017397,-3.152723 C 66.348375,20.288469 69,24.82915 69,30.307673 c 0,1.800584 0.927521,4.050726 2.25,5.45844 2.674069,2.846416 3.052464,9.431694 0.785362,13.667813 -2.675,4.998282 -5.255077,5.566679 -25.235702,5.559485 -16.167874,-0.0058 -18.628897,-0.223664 -21.125896,-1.869998 z"
       id="path72"
       inkscape:connector-curvature="0" />
    <path
       style="fill:#bbd6e0"
       d="M 26.264415,53.435573 C 22.705818,51.597297 19.997937,47.125361 20.003738,43.096362 20.007947,40.172678 23.413689,34 25.022606,34 c 0.578602,0 3.020078,-2.025 5.425502,-4.5 3.543151,-3.645634 5.038987,-4.5 7.878666,-4.5 2.886506,0 4.056608,-0.696251 6.629482,-3.944768 3.940415,-4.97518 9.289481,-6.141075 15.949293,-3.476347 3.499782,1.400335 4.724669,2.59159 6.279918,6.107489 1.062656,2.402311 1.664309,5.211578 1.337007,6.242816 -0.364104,1.147192 0.389393,3.325703 1.941216,5.612441 3.40488,5.017372 3.540858,12.205513 0.28631,15.135043 -3.424043,3.082098 -4.563158,3.269196 -23.565612,3.870614 C 31.885514,55.03149 29.06354,54.881526 26.264415,53.435573 Z"
       id="path70"
       inkscape:connector-curvature="0" />
    <path
       style="fill:#afcbd7"
       d="M 26.298549,53.040484 C 22.934007,50.989003 20,46.406619 20,43.203298 c 0,-2.969136 2.931811,-8.101861 5.325974,-9.324188 1.195714,-0.610465 3.809541,-2.858001 5.808503,-4.994524 C 34.032871,25.786737 35.486453,25 38.311673,25 c 2.873876,0 4.122845,-0.703794 6.615523,-3.727844 L 48,17.544312 v 5.727844 C 48,28.225425 48.255991,29 49.893011,29 c 1.041156,0 2.138629,0.64007 2.438829,1.422377 0.329061,0.85752 1.346345,1.213034 2.56164,0.895228 2.226505,-0.582245 2.979032,1.358388 2.979032,7.682395 0,6.324007 -0.752527,8.26464 -2.979032,7.682395 -1.215295,-0.317806 -2.232579,0.03771 -2.56164,0.895228 C 52.03164,48.35993 50.934167,49 49.893011,49 48.456332,49 48,49.723184 48,52 v 3 L 38.75,54.9963 C 31.340332,54.9933 28.863056,54.604194 26.298549,53.040522 Z M 50.5,39 c 0,-0.733333 -0.5625,-1.520833 -1.25,-1.75 C 48.50641,37.002137 48,37.711111 48,39 c 0,1.288889 0.50641,1.997863 1.25,1.75 0.6875,-0.229167 1.25,-1.016667 1.25,-1.75 z"
       id="path68"
       inkscape:connector-curvature="0" />
    <path
       style="fill:#9cc0d1"
       d="m 27,53.248446 c -1.975845,-0.987045 -4.361111,-3.356672 -5.477417,-5.441502 -1.857165,-3.468472 -1.882868,-3.952372 -0.422647,-7.957257 1.081348,-2.96577 2.596951,-4.84221 4.977417,-6.16245 1.882456,-1.044036 3.601624,-2.387702 3.820374,-2.985924 C 30.967637,27.775399 35.097655,25 38.381742,25 c 2.792981,0 4.074061,-0.729615 6.545454,-3.727844 L 48,17.544312 v 5.727844 C 48,28.333333 48.232781,29 50,29 c 1.149328,0 2,0.666667 2,1.567388 0,1.07263 0.586749,1.38116 1.858817,0.977422 2.771507,-0.879642 3.932987,1.322007 3.932987,7.45519 0,6.133183 -1.16148,8.334832 -3.932987,7.45519 C 52.586749,46.051452 52,46.359982 52,47.432612 52,48.333333 51.149328,49 50,49 c -1.555556,0 -2,0.666667 -2,3 v 3 L 39.25,54.9984 C 32.923305,54.9973 29.530678,54.512615 27,53.2484 Z M 51,39 c 0,-1.111111 -0.666667,-2 -1.5,-2 -0.833333,0 -1.5,0.888889 -1.5,2 0,1.111111 0.666667,2 1.5,2 0.833333,0 1.5,-0.888889 1.5,-2 z"
       id="path66"
       inkscape:connector-curvature="0" />
    <path
       style="fill:#a3bac3"
       d="m 27.307227,53.533194 c -2.015641,-0.876593 -3.971891,-2.91572 -5.306001,-5.53079 -2.018944,-3.957459 -2.041052,-4.331254 -0.495525,-8.378161 1.134497,-2.970638 2.6765,-4.806093 5.162409,-6.144843 1.949588,-1.049922 3.938753,-2.945371 4.420365,-4.212108 C 32.040445,26.763423 35.616555,25 39.742274,25 c 1.709584,0 3.573338,-1.122898 5.394259,-3.25 l 2.782186,-3.25 0.04064,5.25 C 47.994734,28.319786 48.259129,29 50,29 c 1.149328,0 2,0.666667 2,1.567388 0,1.07263 0.586749,1.38116 1.858817,0.977422 2.771507,-0.879642 3.932987,1.322007 3.932987,7.45519 0,6.133183 -1.16148,8.334832 -3.932987,7.45519 C 52.586749,46.051452 52,46.359982 52,47.432612 52,48.333333 51.149328,49 50,49 c -1.555556,0 -2,0.666667 -2,3 v 3 L 39.25,54.96086 C 34.069556,54.937684 29.197511,54.35527 27.307227,53.533194 Z M 51,39 c 0,-1.111111 -0.666667,-2 -1.5,-2 -0.833333,0 -1.5,0.888889 -1.5,2 0,1.111111 0.666667,2 1.5,2 0.833333,0 1.5,-0.888889 1.5,-2 z"
       id="path64"
       inkscape:connector-curvature="0" />
    <path
       style="fill:#8bb6c9"
       d="m 27.307227,53.533194 c -2.015641,-0.876593 -3.971891,-2.91572 -5.306001,-5.53079 -2.018944,-3.957459 -2.041052,-4.331254 -0.495525,-8.378161 1.134497,-2.970638 2.6765,-4.806093 5.162409,-6.144843 1.949588,-1.049922 3.938753,-2.945371 4.420365,-4.212108 C 32.040445,26.763423 35.616555,25 39.742274,25 c 1.709584,0 3.573338,-1.122898 5.394259,-3.25 l 2.782186,-3.25 0.04064,5.25 C 47.994734,28.319786 48.259129,29 50,29 c 1.111111,0 2,0.666667 2,1.5 0,0.922253 0.936957,1.5 2.432612,1.5 2.855809,0 4.371277,3.326446 2.527562,5.547988 -0.940084,1.132732 -0.940084,1.771292 0,2.904024 C 58.803889,42.673554 57.288421,46 54.432612,46 52.936957,46 52,46.577747 52,47.5 c 0,0.833333 -0.888889,1.5 -2,1.5 -1.555556,0 -2,0.666667 -2,3 v 3 L 39.25,54.96086 C 34.069556,54.937684 29.197511,54.35527 27.307227,53.533194 Z M 50.5,39 c 0,-1.283333 -0.5625,-2.520833 -1.25,-2.75 C 48.425439,35.975146 48,36.911111 48,39 c 0,2.088889 0.425439,3.024854 1.25,2.75 0.6875,-0.229167 1.25,-1.466667 1.25,-2.75 z"
       id="path62"
       inkscape:connector-curvature="0" />
    <path
       style="fill:#7dadc3"
       d="M 26.120967,52.610324 C 23.710982,51.274362 21,46.207319 21,43.038828 21,39.671561 24.256612,34.845273 27.606695,33.24773 29.473013,32.357745 31,31.107665 31,30.469775 31,28.267655 34.668888,26 38.231746,26 c 2.918979,0 4.135903,-0.687504 6.637729,-3.75 l 3.063464,-3.75 0.03353,5.25 C 47.995671,28.322157 48.258226,29 50,29 c 1.111111,0 2,0.666667 2,1.5 0,0.922253 0.936957,1.5 2.432612,1.5 2.855809,0 4.371277,3.326446 2.527562,5.547988 -0.940084,1.132732 -0.940084,1.771292 0,2.904024 C 58.803889,42.673554 57.288421,46 54.432612,46 52.936957,46 52,46.577747 52,47.5 c 0,0.833333 -0.888889,1.5 -2,1.5 -1.466667,0 -2,0.666667 -2,2.5 0,2.498149 -0.0072,2.499974 -9.75,2.464565 -6.139114,-0.02231 -10.631069,-0.523852 -12.129033,-1.354241 z M 50.5,39 c 0,-1.283333 -0.5625,-2.520833 -1.25,-2.75 C 48.425439,35.975146 48,36.911111 48,39 c 0,2.088889 0.425439,3.024854 1.25,2.75 0.6875,-0.229167 1.25,-1.466667 1.25,-2.75 z"
       id="path60"
       inkscape:connector-curvature="0" />
    <path
       style="fill:#93a7ae"
       d="M 45,47.432612 C 45,46.359982 44.413251,46.051452 43.141183,46.45519 40.369676,47.334832 39.208196,45.133183 39.208196,39 c 0,-6.133183 1.16148,-8.334832 3.932987,-7.45519 C 44.413251,31.948548 45,31.640018 45,30.567388 45,29.442754 45.988677,29 48.5,29 c 2.444444,0 3.5,0.452381 3.5,1.5 0,0.922253 0.936957,1.5 2.432612,1.5 2.855809,0 4.371277,3.326446 2.527562,5.547988 -0.940084,1.132732 -0.940084,1.771292 0,2.904024 C 58.803889,42.673554 57.288421,46 54.432612,46 52.936957,46 52,46.577747 52,47.5 52,48.547619 50.944444,49 48.5,49 45.988677,49 45,48.557246 45,47.432612 Z m 5.84378,-7.871698 c 0.555438,-2.865166 -1.567782,-4.265483 -3.51502,-2.318245 -1.384884,1.384883 -1.441167,1.916963 -0.342772,3.240448 1.592966,1.919406 3.390209,1.489777 3.857792,-0.922203 z"
       id="path58"
       inkscape:connector-curvature="0" />
    <path
       style="fill:#729aad"
       d="M 45,47.432612 C 45,46.359982 44.413251,46.051452 43.141183,46.45519 40.369676,47.334832 39.208196,45.133183 39.208196,39 c 0,-6.133183 1.16148,-8.334832 3.932987,-7.45519 C 44.413251,31.948548 45,31.640018 45,30.567388 c 0,-2.473933 6.617206,-2.139198 7.272826,0.3679 0.356488,1.363211 1.101475,1.779591 2.520228,1.408579 2.480219,-0.648592 3.998509,2.997431 2.16712,5.204121 -0.940084,1.132732 -0.940084,1.771292 0,2.904024 1.831389,2.20669 0.313099,5.852713 -2.16712,5.204121 -1.418753,-0.371012 -2.16374,0.04537 -2.520228,1.408579 C 51.617206,49.57181 45,49.906545 45,47.432612 Z m 6.429755,-7.110153 c 0.36418,-0.949036 -0.02363,-2.344904 -0.893011,-3.214286 -1.382325,-1.382326 -1.70396,-1.369529 -3.200841,0.127353 -1.37467,1.374669 -1.440336,1.933714 -0.377556,3.214286 1.683648,2.028671 3.665727,1.972218 4.471408,-0.127353 z"
       id="path56"
       inkscape:connector-curvature="0" />
    <path
       style="fill:#6f868f"
       d="M 45,47.5 C 45,46.577747 44.063043,46 42.567388,46 c -2.855809,0 -4.371277,-3.326446 -2.527562,-5.547988 0.940084,-1.132732 0.940084,-1.771292 0,-2.904024 C 38.196111,35.326446 39.711579,32 42.567388,32 44.063043,32 45,31.422253 45,30.5 c 0,-2.414396 6.631409,-2.017498 7.272826,0.435288 0.356488,1.363211 1.101475,1.779591 2.520228,1.408579 2.480219,-0.648592 3.998509,2.997431 2.16712,5.204121 -0.940084,1.132732 -0.940084,1.771292 0,2.904024 1.831389,2.20669 0.313099,5.852713 -2.16712,5.204121 -1.418753,-0.371012 -2.16374,0.04537 -2.520228,1.408579 C 51.631409,49.517498 45,49.914396 45,47.5 Z m 6.410264,-7.126748 C 52.134616,38.485621 50.39308,36 48.34617,36 c -1.702621,0 -2.776736,2.43558 -1.984544,4.5 0.768991,2.003957 4.264687,1.916196 5.048638,-0.126748 z"
       id="path54"
       inkscape:connector-curvature="0" />
    <path
       style="fill:#667a82"
       d="m 45.048272,47.090197 c -0.652891,-1.219937 -1.714447,-1.728749 -2.93878,-1.408579 -2.386689,0.624133 -3.852972,-3.080853 -2.069666,-5.229606 0.940084,-1.132732 0.940084,-1.771292 0,-2.904024 -1.783306,-2.148753 -0.317023,-5.853739 2.069666,-5.229606 1.224333,0.32017 2.285889,-0.188642 2.93878,-1.408579 1.375845,-2.570791 5.626436,-2.510067 6.452357,0.09218 0.479309,1.510169 1.209689,1.857844 2.973103,1.415256 1.796523,-0.450899 2.494402,-0.093 3.014602,1.546007 0.380147,1.197737 0.1486,2.769297 -0.52816,3.584744 -0.940084,1.132732 -0.940084,1.771292 0,2.904024 0.67676,0.815447 0.908307,2.387007 0.52816,3.584744 -0.5202,1.639006 -1.218079,1.996906 -3.014602,1.546007 -1.763414,-0.442588 -2.493794,-0.09491 -2.973103,1.415256 -0.825921,2.602245 -5.076512,2.662969 -6.452357,0.09218 z M 51.361626,40.5 C 52.215724,38.274257 51.029992,36 49.015456,36 48.041644,36 46.684689,36.675 46,37.5 c -1.532194,1.846181 0.246133,4.5 3.015456,4.5 0.973811,0 2.029588,-0.675 2.34617,-1.5 z"
       id="path52"
       inkscape:connector-curvature="0" />
    <path
       style="fill:#5b6a70"
       d="m 45.486736,46.95821 c -0.454613,-1.43236 -1.202744,-1.865733 -2.506484,-1.451942 -2.499948,0.793452 -4.67169,-2.96821 -2.927201,-5.07019 0.922451,-1.111486 0.922451,-1.76067 0,-2.872156 -1.744489,-2.10198 0.427253,-5.863642 2.927201,-5.07019 1.30374,0.413791 2.051871,-0.01958 2.506484,-1.451942 0.885899,-2.79122 5.09306,-2.756655 5.82646,0.04787 0.407529,1.558393 1.057286,1.927529 2.555727,1.451942 2.644332,-0.839278 4.894976,2.83303 3.078026,5.02232 -0.922451,1.111486 -0.922451,1.76067 0,2.872156 1.81695,2.18929 -0.433694,5.861598 -3.078026,5.02232 -1.498441,-0.475587 -2.148198,-0.106451 -2.555727,1.451942 -0.7334,2.804525 -4.940561,2.83909 -5.82646,0.04787 z m 6.018795,-5.967159 C 52.567514,39.272727 50.960692,36 49.055057,36 c -2.393649,0 -4.2463,2.338054 -3.465321,4.373252 0.684798,1.784555 4.921267,2.226979 5.915795,0.617799 z"
       id="path50"
       inkscape:connector-curvature="0" />
    <path
       style="fill:#545c60"
       d="m 45.686804,46.91034 c -0.407529,-1.558393 -1.057286,-1.927529 -2.555727,-1.451942 -2.644332,0.839278 -4.894976,-2.83303 -3.078026,-5.02232 0.922451,-1.111486 0.922451,-1.76067 0,-2.872156 -1.81695,-2.18929 0.433694,-5.861598 3.078026,-5.02232 1.498441,0.475587 2.148198,0.106451 2.555727,-1.451942 0.742002,-2.837417 4.88439,-2.837417 5.626392,0 0.407529,1.558393 1.057286,1.927529 2.555727,1.451942 2.644332,-0.839278 4.894976,2.83303 3.078026,5.02232 -0.922451,1.111486 -0.922451,1.76067 0,2.872156 1.81695,2.18929 -0.433694,5.861598 -3.078026,5.02232 C 52.370482,44.982811 51.720725,45.351947 51.313196,46.91034 50.961668,48.254582 49.958153,49 48.5,49 47.041847,49 46.038332,48.254582 45.686804,46.91034 Z M 51.5,39 c 0,-1.953769 -0.572942,-2.566442 -2.622253,-2.804095 -1.661087,-0.192632 -2.840845,0.265546 -3.218615,1.25 -1.044707,2.722462 0.40434,4.684554 3.218615,4.35819 C 50.927058,41.566442 51.5,40.953769 51.5,39 Z"
       id="path48"
       inkscape:connector-curvature="0" />
    <path
       style="fill:#525a5c"
       d="m 45.611915,46.431049 c -0.392405,-1.022589 -1.279038,-1.354088 -2.546086,-0.951942 -1.381116,0.438349 -2.292736,-0.03457 -3.148324,-1.63325 -0.892807,-1.668225 -0.90856,-2.348839 -0.0609,-2.631391 1.33945,-0.446483 1.548008,-3.894255 0.265018,-4.381133 -0.50224,-0.190593 -0.505036,-1.32657 -0.0065,-2.652793 0.665601,-1.770757 1.363125,-2.163535 2.948553,-1.66034 1.550209,0.492017 2.20754,0.158794 2.59278,-1.314366 0.591469,-2.26178 4.076016,-1.89266 5.948968,0.630179 0.623146,0.839368 1.816227,1.216174 2.734746,0.863705 1.066871,-0.409396 2.029341,0.122143 2.788006,1.539721 0.866616,1.619287 0.870461,2.261026 0.01525,2.546095 -1.484847,0.494949 -1.484847,3.933983 0,4.428932 0.847657,0.282552 0.831904,0.963166 -0.0609,2.631391 -0.855588,1.59868 -1.767208,2.071599 -3.148324,1.63325 C 52.667123,45.076961 51.78049,45.40846 51.388085,46.431049 51.056951,47.293972 49.757312,48 48.5,48 47.242688,48 45.943049,47.293972 45.611915,46.431049 Z m 6.198769,-7.74871 C 51.570579,36.995766 50.821595,36.5 48.513695,36.5 c -3.545551,0 -4.749928,3.122876 -1.984295,5.145156 2.435516,1.780893 5.696196,-0.04836 5.281284,-2.962817 z"
       id="path46"
       inkscape:connector-curvature="0" />
  </g>
</svg>
