<?xml version="1.0" encoding="UTF-8" standalone="no"?>
<!-- Created with Inkscape (http://www.inkscape.org/) -->

<svg
   xmlns:dc="http://purl.org/dc/elements/1.1/"
   xmlns:cc="http://creativecommons.org/ns#"
   xmlns:rdf="http://www.w3.org/1999/02/22-rdf-syntax-ns#"
   xmlns:svg="http://www.w3.org/2000/svg"
   xmlns="http://www.w3.org/2000/svg"
   xmlns:sodipodi="http://sodipodi.sourceforge.net/DTD/sodipodi-0.dtd"
   xmlns:inkscape="http://www.inkscape.org/namespaces/inkscape"
   version="1.1"
   id="svg2"
   width="95"
   height="70"
   viewBox="0 0 95 70"
   sodipodi:docname="virtualboy.svg"
   inkscape:version="0.92.2 5c3e80d, 2017-08-06">
  <metadata
     id="metadata8">
    <rdf:RDF>
      <cc:Work
         rdf:about="">
        <dc:format>image/svg+xml</dc:format>
        <dc:type
           rdf:resource="http://purl.org/dc/dcmitype/StillImage" />
        <dc:title></dc:title>
      </cc:Work>
    </rdf:RDF>
  </metadata>
  <defs
     id="defs6" />
  <sodipodi:namedview
     pagecolor="#ffffff"
     bordercolor="#666666"
     borderopacity="1"
     objecttolerance="10"
     gridtolerance="10"
     guidetolerance="10"
     inkscape:pageopacity="0"
     inkscape:pageshadow="2"
     inkscape:window-width="1918"
     inkscape:window-height="1027"
     id="namedview4"
     showgrid="false"
     inkscape:zoom="2.8736842"
     inkscape:cx="47.5"
     inkscape:cy="35"
     inkscape:window-x="0"
     inkscape:window-y="0"
     inkscape:window-maximized="1"
     inkscape:current-layer="svg2" />
  <g
     id="g12">
    <path
       style="fill:#dc9fa5"
       d="m 42.889309,55.75 c -0.06088,-2.3375 -0.02301,-5.305692 0.08414,-6.595982 0.107159,-1.29029 -0.767003,-3.369812 -1.942582,-4.621158 -1.778903,-1.893555 -2.874744,-2.192069 -6.533274,-1.779699 -3.781152,0.42619 -4.92736,0.07566 -8.196727,-2.506717 C 23.410803,37.963667 21.002312,37.071643 16.25,36.523939 L 10,35.803626 v -4.852592 c 0,-2.668925 0.475841,-7.07136 1.057423,-9.783187 1.000038,-4.663012 1.25782,-4.961004 4.75,-5.490923 C 17.838341,15.368745 24.5625,14.352934 30.75,13.419567 38.742664,12.213897 42,11.328394 42,10.361268 42,9.394413 43.448697,9 47,9 c 3.777778,0 5,0.3666667 5,1.5 0,1.016555 1.01742,1.5 3.156782,1.5 1.73623,0 8.294201,0.957426 14.573269,2.127613 10.522932,1.961088 11.494892,2.332865 12.418221,4.75 1.535219,4.018971 2.295244,15.730245 1.069987,16.487496 -0.576465,0.356275 -3.742708,0.929413 -7.036095,1.27364 -4.471084,0.467321 -6.683761,1.271034 -8.734601,3.17268 -2.211833,2.050927 -3.618886,2.501661 -7.226467,2.314918 -3.463504,-0.179285 -5.017666,0.273364 -6.85047,1.995193 C 51.325518,46.04282 51,47.285884 51,53.174314 V 60 h -4 -4 z"
       id="path36"
       inkscape:connector-curvature="0" />
    <path
       style="fill:#9b9998"
       d="M 43,53.174314 C 43,44.497646 40.90831,42 33.641905,42 29.983069,42 28.302496,41.434176 26.216574,39.5 24.686484,38.08122 22.319864,37 20.744469,37 19.217687,37 16.122934,36.4375 13.86724,35.75 L 9.7659778,34.5 10.374442,27.200228 c 0.334656,-4.014875 1.035637,-8.097951 1.557737,-9.073503 C 12.673912,16.740784 15.5852,15.976998 25.248302,14.633198 40.445727,12.519766 42,12.125454 42,10.383369 42,9.3899929 43.409577,9 47,9 c 3.777778,0 5,0.3666667 5,1.5 0,0.825 0.7875,1.495481 1.75,1.489958 0.9625,-0.0055 7.423399,0.99783 14.357553,2.229675 12.175986,2.163051 12.652892,2.342146 13.932059,5.231984 0.728478,1.645747 1.355079,5.929893 1.392447,9.520325 0.06383,6.13303 -0.06285,6.510034 -2.093469,6.230208 -1.188776,-0.163817 -2.452833,0.173683 -2.809017,0.75 C 78.173389,36.528468 76.303499,37 74.374261,37 72.173421,37 69.645396,37.931424 67.588887,39.5 65.10257,41.396407 63.103881,42 59.310597,42 52.303688,42 51,43.69871 51,52.828741 V 60 h -4 -4 z"
       id="path34"
       inkscape:connector-curvature="0" />
    <path
       style="fill:#ed525f"
       d="M 43,52.654988 C 43,43.528757 41.727008,42 34.127615,42 29.950689,42 28.376072,41.502399 26.216574,39.5 24.35006,37.76927 22.381547,37 19.819235,37 17.783575,37 15.839919,36.55 15.5,36 15.160081,35.45 13.721454,35 12.303051,35 H 9.7241368 l 0.6953042,-7.672943 c 0.382417,-4.220118 1.092812,-8.415694 1.578656,-9.323502 0.659736,-1.232728 4.01397,-2.085919 13.250205,-3.370357 14.812178,-2.059857 16.751886,-2.523022 16.751076,-3.999829 -4.05e-4,-0.7396444 1.736561,-1.0129926 5,-0.7868556 C 49.74972,10.037096 52,10.599596 52,11.096513 c 0,0.496918 0.7875,0.898968 1.75,0.893445 0.9625,-0.0055 7.423399,0.99783 14.357553,2.229675 14.429849,2.563448 14.372613,2.513478 15.526726,13.555438 0.575045,5.501733 0.438466,6.245521 -1.244162,6.775544 -1.039564,0.327459 -2.671511,1.012532 -3.626548,1.522383 C 77.808532,36.582849 75.641007,37 73.946847,37 72.201915,37 69.44563,38.083793 67.588887,39.5 65.10257,41.396407 63.103881,42 59.310597,42 52.303688,42 51,43.69871 51,52.828741 V 60 h -4 -4 z"
       id="path32"
       inkscape:connector-curvature="0" />
    <path
       style="fill:#f8364a"
       d="M 43,52.654988 C 43,43.528757 41.727008,42 34.127615,42 29.950689,42 28.376072,41.502399 26.216574,39.5 24.35006,37.76927 22.381547,37 19.819235,37 17.783575,37 15.839919,36.55 15.5,36 15.160081,35.45 13.783524,35 12.440983,35 10.276361,35 10.006749,34.575436 10.059611,31.25 10.155829,25.197154 11.620602,17.852515 12.88771,17.069399 13.533207,16.67046 19.56004,15.558368 26.280671,14.598084 40.806459,12.522552 42,12.22471 42,10.675406 c 0,-1.2882084 9.083116,-1.042178 10,0.270866 0.275,0.39382 6.840768,1.778131 14.590595,3.076247 16.128412,2.70155 15.86654,2.490245 17.043684,13.752552 0.575045,5.501733 0.438466,6.245521 -1.244162,6.775544 -1.039564,0.327459 -2.671511,1.012532 -3.626548,1.522383 C 77.808532,36.582849 75.641007,37 73.946847,37 72.201915,37 69.44563,38.083793 67.588887,39.5 65.10257,41.396407 63.103881,42 59.310597,42 52.303688,42 51,43.69871 51,52.828741 V 60 H 47 43 Z M 19,22 c 0,-4.63443 -0.17847,-5 -2.440983,-5 -1.342541,0 -2.719098,0.45 -3.059017,1 -0.339919,0.55 0.08352,1 0.940983,1 C 15.541202,19 16,19.980955 16,22.333333 c 0,1.833334 0.3,3.633334 0.666667,4 C 18.293024,27.95969 19,26.646734 19,22 Z m 58,1 c 0,-2.888889 0.416667,-4 1.5,-4 0.825,0 1.5,-0.45 1.5,-1 0,-0.55 -1.35,-1 -3,-1 -2.871795,0 -3,0.185185 -3,4.333333 0,2.383334 0.3,4.633334 0.666667,5 C 76.2122,27.878866 77,26.753437 77,23 Z M 23.924314,18.75 C 25.257687,17.2375 26.062717,16 25.713269,16 24.739742,16 21,20.249104 21,21.355228 c 0,0.537958 0.1125,0.790605 0.25,0.561439 C 21.3875,21.6875 22.590941,20.2625 23.924314,18.75 Z m 48.165466,1.417756 c -0.539323,-1.007735 -1.766171,-2.470235 -2.72633,-3.25 -1.080267,-0.877309 -0.838792,-0.17886 0.633462,1.832244 2.626457,3.587746 3.611241,4.254861 2.092868,1.417756 z M 45,14 C 46.142569,13.261615 45.785137,13.050729 43.5,13.114993 41.85,13.161395 39.375,13.559648 38,14 35.831172,14.69458 36.029875,14.811816 39.5,14.885007 41.7,14.931409 44.175,14.533156 45,14 Z m 13,0 C 58,13.45 55.6375,13.006891 52.75,13.015313 48.99155,13.026275 47.926157,13.30603 49,14 c 1.978998,1.278927 9,1.278927 9,0 z m 4.25,0.337719 c -0.6875,-0.277412 -1.8125,-0.277412 -2.5,0 -0.6875,0.277413 -0.125,0.504386 1.25,0.504386 1.375,0 1.9375,-0.226973 1.25,-0.504386 z"
       id="path30"
       inkscape:connector-curvature="0" />
    <path
       style="fill:#777676"
       d="M 43,52.654988 C 43,43.528757 41.727008,42 34.127615,42 29.950689,42 28.376072,41.502399 26.216574,39.5 24.35006,37.76927 22.381547,37 19.819235,37 17.783575,37 15.839919,36.55 15.5,36 15.160081,35.45 13.783524,35 12.440983,35 10.276361,35 10.006749,34.575436 10.059611,31.25 10.155829,25.197154 11.620602,17.852515 12.88771,17.069399 13.533207,16.67046 19.56004,15.558368 26.280671,14.598084 40.806459,12.522552 42,12.22471 42,10.675406 c 0,-1.2882084 9.083116,-1.042178 10,0.270866 0.275,0.39382 6.840768,1.778131 14.590595,3.076247 16.128412,2.70155 15.86654,2.490245 17.043684,13.752552 0.575045,5.501733 0.438466,6.245521 -1.244162,6.775544 -1.039564,0.327459 -2.671511,1.012532 -3.626548,1.522383 C 77.808532,36.582849 75.641007,37 73.946847,37 72.201915,37 69.44563,38.083793 67.588887,39.5 65.10257,41.396407 63.103881,42 59.310597,42 52.303688,42 51,43.69871 51,52.828741 V 60 H 47 43 Z M 21.425883,23.543385 c 0.414595,-2.209981 1.807176,-4.370104 3.861291,-5.989498 L 28.5,15.021004 25.006602,16.010502 C 23.085233,16.554726 19.849291,17 17.815619,17 c -2.033672,0 -3.9757,0.45 -4.315619,1 -0.339919,0.55 0.08352,1 0.940983,1 C 15.593169,19 16,20.043813 16,23 c 0,3.550304 0.268548,4 2.388709,4 1.932509,0 2.512554,-0.660152 3.037174,-3.456615 z M 77.810365,22.75 C 77.981066,20.6875 78.543566,19 79.060365,19 79.577164,19 80,18.55 80,18 80,17.45 78.645236,17 76.989413,17 75.33359,17 69.82109,16.062299 64.739413,14.91622 57.64681,13.316614 53.408819,12.948351 46.5,13.331296 c -7.71367,0.427556 -15.530279,1.412625 -16.194901,2.040923 -0.107195,0.101337 7.891897,0.210958 17.775759,0.243602 l 17.970659,0.05935 2.925655,2.802955 c 1.609109,1.541625 3.213954,4.115579 3.566322,5.719897 0.4984,2.269199 1.119861,2.848662 2.798587,2.609458 1.703244,-0.242697 2.223313,-1.097612 2.468284,-4.057484 z"
       id="path28"
       inkscape:connector-curvature="0" />
    <path
       style="fill:#b83b46"
       d="M 43,52.654988 C 43,43.528757 41.727008,42 34.127615,42 29.950689,42 28.376072,41.502399 26.216574,39.5 24.35006,37.76927 22.381547,37 19.819235,37 17.783575,37 15.839919,36.55 15.5,36 c -0.339919,-0.55 -1.716476,-1 -3.059017,-1 -1.870681,0 -2.436285,-0.525682 -2.420876,-2.25 0.03235,-3.620361 1.804657,-14.908097 2.440591,-15.544032 0.320506,-0.320505 6.967684,-1.569623 14.771508,-2.775817 7.803823,-1.206193 14.35655,-2.69642 14.561615,-3.311615 C 42.213275,9.8601763 52,9.5500278 52,10.795095 c 0,0.437302 6.450483,1.867125 14.334407,3.177384 13.781569,2.290412 14.382244,2.490363 15.574781,5.184491 0.682206,1.54121 1.319223,5.543933 1.415593,8.894941 L 83.5,34.144652 l -4,1.412618 c -2.2,0.776939 -5.082524,1.419393 -6.405609,1.427674 C 71.771306,36.993225 69.213831,38.125 67.411113,39.5 64.943071,41.382467 62.920181,42 59.221709,42 52.313371,42 51,43.729829 51,52.828741 V 60 h -4 -4 z m -8.709746,-18.63596 c -3.415361,-0.389028 -7.015361,-1.332202 -8,-2.095943 -1.540483,-1.194882 -1.524475,-1.077109 0.114734,0.844148 1.615518,1.893491 2.831144,2.211976 8,2.095943 L 40.5,34.726352 Z m 31.657838,0.0088 c 0.999136,-0.534721 2.113917,-1.746991 2.477293,-2.693933 0.568923,-1.482588 0.362553,-1.451724 -1.485873,0.22222 -1.408399,1.275453 -4.260209,2.149406 -8.293035,2.541446 L 52.5,34.695026 l 5.815741,0.152487 c 3.198658,0.08387 6.633216,-0.285012 7.632351,-0.819733 z M 27.174498,19.506623 c 3.151837,-2.652096 3.02295,-3.217845 -0.324898,-1.426132 -2.172447,1.162659 -4.914797,6.731077 -4.746248,9.63739 0.05684,0.980166 0.550842,0.0976 1.097773,-1.961258 0.546932,-2.058857 2.33495,-4.871357 3.973373,-6.25 z m -5.748615,4.036762 c 0.414595,-2.209981 1.807176,-4.370104 3.861291,-5.989498 L 28.5,15.021004 25.006602,16.010502 C 23.085233,16.554726 19.849291,17 17.815619,17 c -2.033672,0 -3.9757,0.45 -4.315619,1 -0.339919,0.55 0.08352,1 0.940983,1 C 15.593169,19 16,20.043813 16,23 c 0,3.550304 0.268548,4 2.388709,4 1.932509,0 2.512554,-0.660152 3.037174,-3.456615 z M 77.810365,22.75 C 77.981066,20.6875 78.543566,19 79.060365,19 79.577164,19 80,18.55 80,18 80,17.45 78.5375,16.988447 76.75,16.974326 74.9625,16.960206 69.675,16.071759 65,15 60.325,13.928241 55.3,13.039794 53.833333,13.025674 52.366667,13.011553 50.904167,12.4375 50.583333,11.75 c -0.451732,-0.967998 -0.723443,-0.942471 -1.204384,0.113153 -0.524335,1.15087 -0.769784,1.15087 -1.576131,0 -0.806346,-1.150871 -1.03994,-1.150871 -1.5,0 -0.46006,1.15087 -0.681798,1.15087 -1.423869,0 -0.622747,-0.965812 -1.097564,-1.038082 -1.628949,-0.247934 -0.879513,1.307798 -3.233207,2.103091 -8.75,2.956548 -2.2,0.340343 -4.087705,0.701132 -4.194901,0.801753 -0.107195,0.100621 7.891897,0.209657 17.775759,0.242301 l 17.970659,0.05935 2.925655,2.802955 c 1.609109,1.541625 3.213954,4.115579 3.566322,5.719897 0.4984,2.269199 1.119861,2.848662 2.798587,2.609458 1.703244,-0.242697 2.223313,-1.097612 2.468284,-4.057484 z m -7.297183,0.291532 C 69.828944,20.885689 66.211268,17 64.888362,17 c -0.403984,0 0.580869,1.315385 2.188561,2.923077 C 68.684615,21.530769 70,23.630769 70,24.589744 c 0,0.958974 0.266088,1.477502 0.591306,1.152283 0.325219,-0.325218 0.290063,-1.540441 -0.07812,-2.700495 z"
       id="path26"
       inkscape:connector-curvature="0" />
    <path
       style="fill:#ce2727"
       d="M 43,52.654988 C 43,43.528757 41.727008,42 34.127615,42 29.950689,42 28.376072,41.502399 26.216574,39.5 24.35006,37.76927 22.381547,37 19.819235,37 17.783575,37 15.839919,36.55 15.5,36 15.160081,35.45 13.7311,35 12.324486,35 h -2.55748 l 0.677655,-6.75 C 11.374844,18.98461 11.704333,18.109921 14.034787,18.719348 15.562807,19.118934 16,20.09718 16,23.116631 16,26.543977 16.280505,27 18.388709,27 c 1.932516,0 2.512554,-0.660151 3.037184,-3.456669 0.378224,-2.016105 1.779039,-4.356053 3.361291,-5.614763 L 27.5,15.770474 23,16.499477 C 20.475679,16.908419 18.865863,16.849045 19.333325,16.36424 20.326004,15.334734 74,15.13985 74,16.165753 c 0,0.389678 -1.6875,0.450337 -3.75,0.134798 l -3.75,-0.573708 2.678677,2.886579 c 1.473272,1.587618 2.990608,4.14819 3.371856,5.69016 0.526127,2.127933 1.206052,2.730421 2.821323,2.5 1.613107,-0.230111 2.20661,-1.125371 2.452365,-3.699232 0.178322,-1.867608 0.905085,-3.976513 1.615028,-4.686456 1.995904,-1.995904 3.650533,2.043548 3.872709,9.454461 L 83.5,34.144652 l -4,1.412618 c -2.2,0.776939 -5.082524,1.419393 -6.405609,1.427674 C 71.771306,36.993225 69.213831,38.125 67.411113,39.5 64.943071,41.382467 62.920181,42 59.221709,42 52.313371,42 51,43.729829 51,52.828741 V 60 h -4 -4 z m -8.709746,-18.63596 c -3.415361,-0.389028 -7.015361,-1.332202 -8,-2.095943 -1.540483,-1.194882 -1.524475,-1.077109 0.114734,0.844148 1.615518,1.893491 2.831144,2.211976 8,2.095943 L 40.5,34.726352 Z m 31.657838,0.0088 c 0.999136,-0.534721 2.113917,-1.746991 2.477293,-2.693933 0.568923,-1.482588 0.362553,-1.451724 -1.485873,0.22222 -1.408399,1.275453 -4.260209,2.149406 -8.293035,2.541446 L 52.5,34.695026 l 5.815741,0.152487 c 3.198658,0.08387 6.633216,-0.285012 7.632351,-0.819733 z M 27.174498,19.506623 c 3.151837,-2.652096 3.02295,-3.217845 -0.324898,-1.426132 -2.172447,1.162659 -4.914797,6.731077 -4.746248,9.63739 0.05684,0.980166 0.550842,0.0976 1.097773,-1.961258 0.546932,-2.058857 2.33495,-4.871357 3.973373,-6.25 z m 43.338684,3.534909 C 69.828944,20.885689 66.211268,17 64.888362,17 c -0.403984,0 0.580869,1.315385 2.188561,2.923077 C 68.684615,21.530769 70,23.630769 70,24.589744 c 0,0.958974 0.266088,1.477502 0.591306,1.152283 0.325219,-0.325218 0.290063,-1.540441 -0.07812,-2.700495 z m -11.24415,-9.734523 c 0.972967,-0.253543 2.322967,-0.236869 3,0.03705 C 62.946064,13.617986 62.15,13.825431 60.5,13.805051 58.85,13.784672 58.296064,13.560553 59.269032,13.307009 Z M 41.638374,11.5 C 42.283076,9.8199313 52,9.2887519 52,10.933578 c 0,0.513467 1.2375,1.121043 2.75,1.350168 2.625604,0.397745 2.606756,0.423367 -0.416667,0.566422 -1.741666,0.08241 -3.394907,-0.412668 -3.673869,-1.100168 -0.393702,-0.970278 -0.720927,-0.944957 -1.462282,0.113153 -0.806347,1.15087 -1.03994,1.15087 -1.5,0 -0.46006,-1.150871 -0.693654,-1.150871 -1.5,0 -0.806347,1.15087 -1.051796,1.15087 -1.576131,0 C 44.14011,10.807529 43.868399,10.782002 43.416667,11.75 42.584304,13.533634 40.946358,13.303365 41.638374,11.5 Z"
       id="path24"
       inkscape:connector-curvature="0" />
    <path
       style="fill:#ba2835"
       d="M 43,52.654988 C 43,43.528757 41.727008,42 34.127615,42 29.950689,42 28.376072,41.502399 26.216574,39.5 24.35006,37.76927 22.381547,37 19.819235,37 17.783575,37 15.839919,36.55 15.5,36 15.160081,35.45 13.7311,35 12.324486,35 h -2.55748 l 0.677655,-6.75 C 11.374844,18.98461 11.704333,18.109921 14.034787,18.719348 15.562807,19.118934 16,20.09718 16,23.116631 16,26.543977 16.280505,27 18.388709,27 c 1.932516,0 2.512554,-0.660151 3.037184,-3.456669 0.362778,-1.933774 1.755367,-4.32735 3.160899,-5.432941 l 2.512424,-1.976273 -3.299608,-0.322582 c -1.814784,-0.17742 6.970707,-0.260349 19.523315,-0.184285 l 22.822922,0.138296 2.878491,2.757769 c 1.583169,1.516773 3.16679,4.070393 3.519158,5.674711 0.4984,2.269199 1.119861,2.848662 2.798587,2.609458 1.710675,-0.243756 2.223,-1.097375 2.471931,-4.118647 0.268633,-3.260406 0.626445,-3.766196 2.476016,-3.5 C 81.992424,19.433852 82.620383,20.456631 83.243953,24 84.656822,32.028471 84.012522,34.022095 79.5,35.584732 77.3,36.346567 74.417476,36.976663 73.094391,36.984944 71.771306,36.993225 69.213831,38.125 67.411113,39.5 64.943071,41.382467 62.920181,42 59.221709,42 52.313371,42 51,43.729829 51,52.828741 V 60 h -4 -4 z m -8.709746,-18.63596 c -3.415361,-0.389028 -7.015361,-1.332202 -8,-2.095943 -1.540483,-1.194882 -1.524475,-1.077109 0.114734,0.844148 1.615518,1.893491 2.831144,2.211976 8,2.095943 L 40.5,34.726352 Z m 31.657838,0.0088 c 0.999136,-0.534721 2.113917,-1.746991 2.477293,-2.693933 0.568923,-1.482588 0.362553,-1.451724 -1.485873,0.22222 -1.408399,1.275453 -4.260209,2.149406 -8.293035,2.541446 L 52.5,34.695026 l 5.815741,0.152487 c 3.198658,0.08387 6.633216,-0.285012 7.632351,-0.819733 z M 44,26.5 V 23 h -6 -6 v 3.5 3.5 h 6 6 z m 18,0 V 23 H 55.5 49 V 26.5 30 H 55.5 62 Z M 27.174498,19.506623 c 3.151837,-2.652096 3.02295,-3.217845 -0.324898,-1.426132 -2.172447,1.162659 -4.914797,6.731077 -4.746248,9.63739 0.05684,0.980166 0.550842,0.0976 1.097773,-1.961258 0.546932,-2.058857 2.33495,-4.871357 3.973373,-6.25 z m 43.338684,3.534909 C 69.828944,20.885689 66.211268,17 64.888362,17 c -0.403984,0 0.580869,1.315385 2.188561,2.923077 C 68.684615,21.530769 70,23.630769 70,24.589744 c 0,0.958974 0.266088,1.477502 0.591306,1.152283 0.325219,-0.325218 0.290063,-1.540441 -0.07812,-2.700495 z m -0.24415,-7.734523 c 0.972967,-0.253543 2.322967,-0.236869 3,0.03705 C 73.946064,15.617986 73.15,15.825431 71.5,15.805051 69.85,15.784672 69.296064,15.560553 70.269032,15.307009 Z m -11,-2 c 0.972967,-0.253543 2.322967,-0.236869 3,0.03705 C 62.946064,13.617986 62.15,13.825431 60.5,13.805051 58.85,13.784672 58.296064,13.560553 59.269032,13.307009 Z M 41.638374,11.5 C 42.283076,9.8199313 52,9.2887519 52,10.933578 c 0,0.513467 1.2375,1.121043 2.75,1.350168 2.625604,0.397745 2.606756,0.423367 -0.416667,0.566422 -1.741666,0.08241 -3.394907,-0.412668 -3.673869,-1.100168 -0.393702,-0.970278 -0.720927,-0.944957 -1.462282,0.113153 -0.806347,1.15087 -1.03994,1.15087 -1.5,0 -0.46006,-1.150871 -0.693654,-1.150871 -1.5,0 -0.806347,1.15087 -1.051796,1.15087 -1.576131,0 C 44.14011,10.807529 43.868399,10.782002 43.416667,11.75 42.584304,13.533634 40.946358,13.303365 41.638374,11.5 Z"
       id="path22"
       inkscape:connector-curvature="0" />
    <path
       style="fill:#434a49"
       d="M 43,52.654988 C 43,43.528757 41.727008,42 34.127615,42 29.950689,42 28.376072,41.502399 26.216574,39.5 24.35006,37.76927 22.381547,37 19.819235,37 17.783575,37 15.839919,36.55 15.5,36 15.160081,35.45 13.737853,35 12.339492,35 H 9.7970172 L 10.511971,27.75 C 11.341587,19.337277 11.478311,19 14.059017,19 15.656831,19 16,19.707208 16,23 c 0,3.519039 0.279394,4 2.323635,4 1.838583,0 2.51701,-0.762797 3.25,-3.654174 0.523638,-2.065563 2.114721,-4.536152 3.659858,-5.682927 2.521512,-1.871424 4.208554,-2.028753 21.754347,-2.028753 h 19.020853 l 2.947067,2.823469 c 1.620886,1.552908 3.235366,4.136093 3.587734,5.740411 0.4984,2.269199 1.119861,2.848662 2.798587,2.609458 1.710675,-0.243756 2.223,-1.097375 2.471931,-4.118647 0.268633,-3.260406 0.626445,-3.766196 2.476016,-3.5 C 81.992424,19.433852 82.620383,20.456631 83.243953,24 84.656822,32.028471 84.012522,34.022095 79.5,35.584732 77.3,36.346567 74.417476,36.976663 73.094391,36.984944 71.771306,36.993225 69.213831,38.125 67.411113,39.5 64.943071,41.382467 62.920181,42 59.221709,42 52.313371,42 51,43.729829 51,52.828741 V 60 h -4 -4 z m -8.709746,-18.63596 c -3.415361,-0.389028 -7.015361,-1.332202 -8,-2.095943 -1.540483,-1.194882 -1.524475,-1.077109 0.114734,0.844148 1.615518,1.893491 2.831144,2.211976 8,2.095943 L 40.5,34.726352 Z m 31.657838,0.0088 c 0.999136,-0.534721 2.113917,-1.746991 2.477293,-2.693933 0.568923,-1.482588 0.362553,-1.451724 -1.485873,0.22222 -1.408399,1.275453 -4.260209,2.149406 -8.293035,2.541446 L 52.5,34.695026 l 5.815741,0.152487 c 3.198658,0.08387 6.633216,-0.285012 7.632351,-0.819733 z M 44,26.5 V 23 h -6 -6 v 3.5 3.5 h 6 6 z m 18,0 V 23 H 55.5 49 V 26.5 30 H 55.5 62 Z M 27.174498,19.506623 c 3.151837,-2.652096 3.02295,-3.217845 -0.324898,-1.426132 -2.172447,1.162659 -4.914797,6.731077 -4.746248,9.63739 0.05684,0.980166 0.550842,0.0976 1.097773,-1.961258 0.546932,-2.058857 2.33495,-4.871357 3.973373,-6.25 z m 43.338684,3.534909 C 69.828944,20.885689 66.211268,17 64.888362,17 c -0.403984,0 0.580869,1.315385 2.188561,2.923077 C 68.684615,21.530769 70,23.630769 70,24.589744 c 0,0.958974 0.266088,1.477502 0.591306,1.152283 0.325219,-0.325218 0.290063,-1.540441 -0.07812,-2.700495 z M 42.015313,11.75 C 42.002753,10.314625 42.898928,10 47,10 c 4.101072,0 4.997247,0.314625 4.984687,1.75 -0.01311,1.498173 -0.15701,1.534148 -1,0.25 -0.81935,-1.248137 -1.13227,-1.271115 -1.863636,-0.136847 -0.742071,1.15087 -0.963809,1.15087 -1.423869,0 -0.46006,-1.150871 -0.693654,-1.150871 -1.5,0 -0.806347,1.15087 -1.03994,1.15087 -1.5,0 C 44.250306,10.745263 43.961396,10.769885 43.091444,12 c -0.915406,1.294386 -1.062917,1.260117 -1.076131,-0.25 z"
       id="path20"
       inkscape:connector-curvature="0" />
    <path
       style="fill:#3c4140"
       d="M 43,52.654988 C 43,43.651495 41.684948,42 34.51565,42 30.907702,42 28.861078,41.368679 26.411113,39.5 24.354604,37.931424 21.826579,37 19.625739,37 17.696501,37 15.839919,36.55 15.5,36 15.160081,35.45 13.756275,35 12.380431,35 H 9.8788963 L 10.568658,27.75 C 11.283339,20.238066 11.607296,19 12.858216,19 c 0.4071,0 0.563714,1.511577 0.348031,3.359061 -0.331623,2.840588 -0.03051,3.455883 1.950801,3.986345 4.587998,1.228356 5.597373,0.777181 6.268845,-2.802075 0.678942,-3.619071 4.639333,-7.590601 7.458966,-7.479945 1.147,0.04501 1.003022,0.310711 -0.496742,0.916683 -4.348199,1.75687 -6.398165,5.821022 -6.257,12.40479 L 22.262235,35.5 22.985728,29.876617 c 0.828857,-6.442338 2.48383,-9.246362 7.189093,-12.180502 C 33.086532,15.880411 35.116478,15.618524 46.5,15.589979 56.878884,15.563952 60.137476,15.900409 62.661704,17.25871 67.943556,20.100905 70,23.569129 70,29.634859 70,32.585686 70.45,35 71,35 c 1.354919,0 1.268161,-7.932306 -0.130646,-11.944925 -0.621855,-1.783855 -2.534355,-4.099323 -4.25,-5.145486 -1.746637,-1.06506 -2.431573,-1.903758 -1.556445,-1.905851 2.203081,-0.0053 6.660582,4.954979 7.498868,8.344642 0.626997,2.535304 1.033273,2.78261 3.696323,2.25 C 77.903645,26.269271 79.692983,26 80.234406,26 c 0.541423,0 0.800534,-1.575 0.575801,-3.5 -0.224733,-1.925 -0.05754,-3.5 0.371542,-3.5 1.123916,0 2.025642,4.244568 2.182356,10.272698 0.126436,4.863444 -0.03812,5.250598 -2.364105,5.561978 -1.375,0.184072 -2.9275,0.746572 -3.45,1.25 C 77.0275,36.588104 75.096007,37 73.257794,37 70.145257,37 69.213943,37.452325 65.536725,40.75 64.770098,41.4375 61.930459,42 59.226416,42 52.312859,42 51,43.728165 51,52.828741 V 60 H 47 43 Z M 42,40 c 0,-0.55 -0.45,-1 -1,-1 -0.55,0 -1,0.45 -1,1 0,0.55 0.45,1 1,1 0.55,0 1,-0.45 1,-1 z m 12,0 c 0,-0.55 -0.701558,-1 -1.559017,-1 -0.857459,0 -1.280902,0.45 -0.940983,1 0.339919,0.55 1.041476,1 1.559017,1 C 53.576558,41 54,40.55 54,40 Z M 35.5,33.986552 C 28.849452,33.166539 26,32.238655 26,30.893011 26,30.401855 25.471559,30 24.825686,30 24.179813,30 24.708255,31.125 26,32.5 c 2.07704,2.210908 3.10902,2.484178 8.924314,2.363176 L 41.5,34.726352 Z m 31.671259,-0.64154 C 68.177067,32.434769 69,31.240025 69,30.690025 c 0,-0.55 -0.846609,-0.233829 -1.881354,0.702602 -1.053327,0.953247 -4.684341,2.065959 -8.25,2.528182 L 52.5,34.74639 l 6.421259,0.126805 c 4.706919,0.09295 6.909495,-0.315042 8.25,-1.528183 z M 44,26.5 V 23 h -6 -6 v 3.5 3.5 h 6 6 z m 18,0 V 23 H 55.5 49 V 26.5 30 H 55.5 62 Z M 15.232003,22 c 0,-1.925 0.205795,-2.7125 0.457323,-1.75 0.251527,0.9625 0.251527,2.5375 0,3.5 -0.251528,0.9625 -0.457323,0.175 -0.457323,-1.75 z m 63,0 c 0,-1.925 0.205795,-2.7125 0.457323,-1.75 0.251527,0.9625 0.251527,2.5375 0,3.5 -0.251528,0.9625 -0.457323,0.175 -0.457323,-1.75 z M 44.25,10.283746 c 1.5125,-0.229125 3.9875,-0.229125 5.5,0 1.5125,0.229124 0.275,0.41659 -2.75,0.41659 -3.025,0 -4.2625,-0.187466 -2.75,-0.41659 z"
       id="path18"
       inkscape:connector-curvature="0" />
    <path
       style="fill:#5b2a26"
       d="M 43,55.5 V 51 h 4 4 v 4.5 4.5 h -4 -4 z m 0,-8.345012 C 43,44.003134 39.737676,42 34.604537,42 31.091402,42 29.019225,41.353709 26.588887,39.5 24.496798,37.904286 22.010279,37 19.714626,37 17.7365,37 15.839919,36.55 15.5,36 15.160081,35.45 13.770991,35 12.413133,35 9.9716398,35 9.9510526,34.92525 10.554015,28.25 c 0.746671,-8.266211 1.038673,-9.271228 2.6646,-9.171053 1.003642,0.06184 1.010444,0.188275 0.03139,0.583334 -0.6875,0.277412 -1.25,1.760636 -1.25,3.296052 0,2.326667 0.520522,2.895771 3.125,3.416667 5.100397,1.020079 5.622302,0.785531 6.300893,-2.831669 0.678942,-3.619071 4.639333,-7.590601 7.458966,-7.479945 1.147,0.04501 1.003022,0.310711 -0.496742,0.916683 C 24.056293,18.730323 22,22.803817 22,29.634859 22,33.135686 22.340743,36 22.757206,36 23.173669,36 23.356831,34.018676 23.164231,31.597058 22.704046,25.810974 25.194768,20.690154 29.843149,17.865485 33.113358,15.878287 34.874503,15.638792 46.5,15.600358 60.69198,15.553439 63.839159,16.437477 67.911704,21.614879 69.49567,23.628566 70,25.70042 70,30.193876 c 0,3.694795 0.376317,5.691581 1,5.306124 1.348214,-0.833242 1.268449,-8.43148 -0.130646,-12.444925 -0.621855,-1.783855 -2.534355,-4.099323 -4.25,-5.145486 -1.746637,-1.06506 -2.431573,-1.903758 -1.556445,-1.905851 2.203081,-0.0053 6.660582,4.954979 7.498868,8.344642 0.626997,2.535304 1.033273,2.78261 3.696323,2.25 C 77.903645,26.269271 79.877551,26 80.644557,26 82.022733,26 81.940333,22.330507 80.510195,20.016496 80.164669,19.457423 80.338133,19 80.89567,19 c 1.165614,0 2.408415,5.660994 2.524682,11.5 0.07042,3.536782 -0.209864,4.038757 -2.420352,4.334676 -1.375,0.184072 -2.9275,0.746572 -3.45,1.25 C 77.0275,36.588104 74.997902,37 73.039782,37 70.627852,37 68.609969,37.806333 66.783426,39.5 64.671737,41.458069 63.027562,42 59.198632,42 54.060335,42 51,43.98908 51,47.328741 51,48.611877 50.071064,49 47,49 43.778671,49 43,48.640835 43,47.154988 Z m -1,-6.987261 c 0,-0.45775 -2.5875,-0.648622 -5.75,-0.424161 -8.334639,0.591557 -8.755217,1.086782 -1,1.177487 3.7125,0.04342 6.75,-0.295576 6.75,-0.753326 z m 21.916667,0.467614 C 62.939442,39.78009 51.042474,39.259708 51.558582,40.094788 51.866281,40.592655 54.866476,41 58.225684,41 c 3.359207,0 5.920149,-0.164097 5.690983,-0.364659 z m -44.1875,-5.239508 c -0.332292,-0.332291 -1.194792,-0.367818 -1.916667,-0.07895 -0.797733,0.319226 -0.560776,0.556183 0.604167,0.604167 1.054166,0.04342 1.644791,-0.192928 1.3125,-0.52522 z M 35.5,33.986552 C 28.849452,33.166539 26,32.238655 26,30.893011 26,30.401855 25.471559,30 24.825686,30 24.179813,30 24.708255,31.125 26,32.5 c 2.07704,2.210908 3.10902,2.484178 8.924314,2.363176 L 41.5,34.726352 Z m 31.671259,-0.64154 C 68.177067,32.434769 69,31.240025 69,30.690025 c 0,-0.55 -0.846609,-0.233829 -1.881354,0.702602 -1.053327,0.953247 -4.684341,2.065959 -8.25,2.528182 L 52.5,34.74639 l 6.421259,0.126805 c 4.706919,0.09295 6.909495,-0.315042 8.25,-1.528183 z M 44,26.5 V 23 h -6 -6 v 3.5 3.5 h 6 6 z m 18,0 V 23 H 55.5 49 V 26.5 30 H 55.5 62 Z M 15.232003,22 c 0,-1.925 0.205795,-2.7125 0.457323,-1.75 0.251527,0.9625 0.251527,2.5375 0,3.5 -0.251528,0.9625 -0.457323,0.175 -0.457323,-1.75 z m 63,0 c 0,-1.925 0.205795,-2.7125 0.457323,-1.75 0.251527,0.9625 0.251527,2.5375 0,3.5 -0.251528,0.9625 -0.457323,0.175 -0.457323,-1.75 z"
       id="path16"
       inkscape:connector-curvature="0" />
    <path
       style="fill:#0c0a08"
       d="M 43,55.5 V 51 h 4 4 v 4.5 4.5 h -4 -4 z m 0,-8.345012 C 43,44.003134 39.737676,42 34.604537,42 31.091402,42 29.019225,41.353709 26.588887,39.5 24.496798,37.904286 22.010279,37 19.714626,37 17.7365,37 15.839919,36.55 15.5,36 c -0.339919,-0.55 -1.719618,-1 -3.065999,-1 -2.430545,0 -2.4434486,-0.05159 -1.813317,-7.25 0.349057,-3.9875 0.93679,-7.587092 1.306075,-7.999093 0.369286,-0.412002 0.493084,0.778552 0.275108,2.645675 -0.382848,3.279364 -0.258282,3.418091 3.664208,4.080792 2.233291,0.377312 4.527043,0.3977 5.097227,0.04531 C 21.626718,26.112667 22,27.703559 22,30.940983 22,33.723442 22.340743,36 22.757206,36 23.173669,36 23.356831,34.018676 23.164231,31.597058 22.708603,25.868276 25.195142,20.672429 29.650309,18.043817 32.677827,16.257537 34.814483,16 46.60682,16 61.25188,16 64.081678,16.74579 67.911704,21.614879 69.49567,23.628566 70,25.70042 70,30.193876 c 0,3.694795 0.376317,5.691581 1,5.306124 0.55,-0.339919 1,-2.333503 1,-4.430186 v -3.812153 l 4.989308,-0.661855 4.989308,-0.661855 -0.478404,-3.716975 c -0.401387,-3.11859 -0.319467,-3.341529 0.508858,-1.384823 0.542994,1.282684 1.100587,4.882684 1.239096,8 0.238598,5.369955 0.120439,5.685437 -2.248166,6.002523 -1.375,0.184072 -2.9275,0.746572 -3.45,1.25 C 77.0275,36.588104 74.997902,37 73.039782,37 70.627852,37 68.609969,37.806333 66.783426,39.5 64.671737,41.458069 63.027562,42 59.198632,42 54.060335,42 51,43.98908 51,47.328741 51,48.611877 50.071064,49 47,49 43.778671,49 43,48.640835 43,47.154988 Z m -1,-6.987261 c 0,-0.45775 -2.5875,-0.648622 -5.75,-0.424161 -8.334639,0.591557 -8.755217,1.086782 -1,1.177487 3.7125,0.04342 6.75,-0.295576 6.75,-0.753326 z m 21.916667,0.467614 C 62.939442,39.78009 51.042474,39.259708 51.558582,40.094788 51.866281,40.592655 54.866476,41 58.225684,41 c 3.359207,0 5.920149,-0.164097 5.690983,-0.364659 z m -44.1875,-5.239508 c -0.332292,-0.332291 -1.194792,-0.367818 -1.916667,-0.07895 -0.797733,0.319226 -0.560776,0.556183 0.604167,0.604167 1.054166,0.04342 1.644791,-0.192928 1.3125,-0.52522 z M 35.5,33.986552 C 28.849452,33.166539 26,32.238655 26,30.893011 26,30.401855 25.471559,30 24.825686,30 24.179813,30 24.708255,31.125 26,32.5 c 2.07704,2.210908 3.10902,2.484178 8.924314,2.363176 L 41.5,34.726352 Z m 31.671259,-0.64154 C 68.177067,32.434769 69,31.240025 69,30.690025 c 0,-0.55 -0.846609,-0.233829 -1.881354,0.702602 -1.053327,0.953247 -4.684341,2.065959 -8.25,2.528182 L 52.5,34.74639 l 6.421259,0.126805 c 4.706919,0.09295 6.909495,-0.315042 8.25,-1.528183 z M 44,26.5 V 23 h -6 -6 v 3.5 3.5 h 6 6 z m 18,0 V 23 H 55.5 49 v 3.5 3.5 h 6.5 6.5 z m 8.581571,-4.031019 C 70.232186,21.07692 68.495902,19.053602 66.723163,17.972719 64.950423,16.891835 64.097115,16.005794 64.826923,16.003738 66.674191,15.998534 72,21.507185 72,23.423077 72,25.793785 71.297435,25.32121 70.581571,22.468981 Z M 78.194949,22.5 c 0.02038,-1.65 0.244498,-2.203936 0.498042,-1.230968 0.253543,0.972967 0.236869,2.322967 -0.03705,3 C 78.382014,24.946064 78.174569,24.15 78.194949,22.5 Z M 22,22.600925 c 0,-1.617206 2.046092,-4.404634 3.698693,-5.038797 1.313219,-0.50393 1.131647,0.03216 -0.722219,2.132351 C 23.614413,21.237515 22.3875,22.6875 22.25,22.916667 22.1125,23.145833 22,23.00375 22,22.600925 Z"
       id="path14"
       inkscape:connector-curvature="0" />
  </g>
</svg>
