<?xml version="1.0" encoding="UTF-8" standalone="no"?>
<!-- Created with Inkscape (http://www.inkscape.org/) -->

<svg
   xmlns:dc="http://purl.org/dc/elements/1.1/"
   xmlns:cc="http://creativecommons.org/ns#"
   xmlns:rdf="http://www.w3.org/1999/02/22-rdf-syntax-ns#"
   xmlns:svg="http://www.w3.org/2000/svg"
   xmlns="http://www.w3.org/2000/svg"
   xmlns:sodipodi="http://sodipodi.sourceforge.net/DTD/sodipodi-0.dtd"
   xmlns:inkscape="http://www.inkscape.org/namespaces/inkscape"
   version="1.1"
   id="svg32"
   width="95"
   height="70"
   viewBox="0 0 95 70"
   sodipodi:docname="webbrowser.svg"
   inkscape:version="0.92.2 5c3e80d, 2017-08-06">
  <metadata
     id="metadata38">
    <rdf:RDF>
      <cc:Work
         rdf:about="">
        <dc:format>image/svg+xml</dc:format>
        <dc:type
           rdf:resource="http://purl.org/dc/dcmitype/StillImage" />
        <dc:title></dc:title>
      </cc:Work>
    </rdf:RDF>
  </metadata>
  <defs
     id="defs36" />
  <sodipodi:namedview
     pagecolor="#ffffff"
     bordercolor="#666666"
     borderopacity="1"
     objecttolerance="10"
     gridtolerance="10"
     guidetolerance="10"
     inkscape:pageopacity="0"
     inkscape:pageshadow="2"
     inkscape:window-width="1918"
     inkscape:window-height="1027"
     id="namedview34"
     showgrid="false"
     inkscape:zoom="2.8736842"
     inkscape:cx="-50.979853"
     inkscape:cy="35"
     inkscape:window-x="0"
     inkscape:window-y="0"
     inkscape:window-maximized="1"
     inkscape:current-layer="svg32" />
  <g
     id="g466">
    <path
       style="fill:#90dcf2"
       d="m 38.941601,62.116221 -2.5584,-0.84077 -2.4416,-1.254518 L 31.5,58.766416 27.240437,54.665615 22.980874,50.564813 20.990437,45.244894 19,39.924975 v -4.784349 -4.784348 l 1.554276,-4.56155 1.554276,-4.56155 3.557872,-4.156573 3.557872,-4.156572 L 34.342662,10.32636 39.461028,7.7326876 45.480514,7.2648151 51.5,6.7969425 57,8.9665222 l 5.5,2.1695798 3.834734,3.681949 3.834735,3.681949 1.929311,3.737695 1.929312,3.737694 0.609502,5.831403 0.609503,5.831403 -1.67384,5.757805 -1.673839,5.757805 -4.154761,4.507383 -4.154761,4.507384 -3.925642,2.002713 -3.925643,2.002713 -7.119305,0.391497 L 41.5,62.956992 Z"
       id="path492"
       inkscape:connector-curvature="0" />
    <path
       style="fill:#73d5f3"
       d="m 40.331982,62.09934 -3.168018,-0.813207 -4.624145,-2.709929 -4.624145,-2.70993 -2.984031,-4.119336 -2.984032,-4.119336 -1.588914,-5.46567 -1.588913,-5.46567 0.608398,-4.438749 0.608398,-4.438749 2.060325,-4.659382 L 24.107229,18.5 26.803614,15.656753 29.5,12.813506 l 4.892902,-2.496013 4.892902,-2.4960125 2.326836,0.4448029 2.326835,0.4448029 -0.626953,-1.0144319 -0.626953,-1.0144318 6.264277,0.6547466 6.264276,0.6547465 4.841765,2.6352183 4.841765,2.635219 2.08457,2.218923 L 69.066793,17.7 65.797091,17.6 62.52739,17.5 62.154435,15.5634 61.78148,13.6268 64.39074,15.336453 67,17.046106 V 16.591147 16.136188 L 64.15,14.106809 61.3,12.07743 61.4,15.288715 61.5,18.5 l 4.333469,0.311576 4.333468,0.311577 2.007216,4.537644 2.007216,4.537645 -0.497426,1.902159 -0.497425,1.902159 0.906741,-0.560397 L 75,30.881966 74.9944,34.690983 74.9888,38.5 74.001471,42.054074 73.014142,45.608147 68.944046,45.848301 64.87395,46.088454 65.186952,42.294227 65.5,38.5 66.75,38.75 68,39 v -1 -1 h -1.894965 -1.894964 l -0.387038,4.058477 -0.387038,4.058477 1.036017,0.859818 1.036018,0.859819 3.386655,0.331704 L 72.281339,47.5 68.89067,51.897724 65.5,56.295447 60.253571,59.242228 55.007142,62.189008 49.253571,62.550777 43.5,62.912546 Z M 61,41 v -1 h -1.440983 -1.440983 l -0.684246,-1.107134 -0.684247,-1.107134 2.12523,0.674522 L 61,39.134775 V 38.067388 37 H 57.825686 54.651372 L 57,39.5 59.348628,42 H 60.174314 61 Z M 68.25,32.206499 65,31.873283 v -3.703976 -3.703975 l 3.495401,0.164402 3.495402,0.164402 L 71.436384,23.897068 70.881966,23 H 66.833994 62.786022 L 63.393011,24.581787 64,26.163575 v 3.717412 3.717412 l 3.75,-0.529342 3.75,-0.529342 z M 60.630286,30.75 60.027309,28.5 60.013655,25.75 60,23 h -2 -2 v 1 1 l 1.188072,-0.25 1.188072,-0.25 0.65451,3.75 0.654509,3.75 H 54.842582 50 V 29.2 26.4 L 51.25,24.998228 52.5,23.596456 50.75,24.920673 49,26.244889 V 29.622445 33 h 6.116631 6.116632 z M 58.329452,17.416154 57.721673,15.832308 57.110837,16.800472 56.5,17.768636 l -2,0.49968 -2,0.499681 3.218615,0.116002 L 58.93723,19 Z M 50.195851,13.25 49.669045,10.5 49.240193,11.782989 48.811341,13.065978 49.374286,14.532989 49.93723,16 h 0.392713 0.392713 z"
       id="path490"
       inkscape:connector-curvature="0" />
    <path
       style="fill:#49cbef"
       d="M 41.310045,62.003476 37.120091,61.124793 34.310045,59.385398 31.5,57.646004 27.266633,53.631118 23.033266,49.616232 21.319066,44.558116 19.604866,39.5 19.703558,33.867737 19.80225,28.235474 21.954739,23.367737 24.107229,18.5 26.803614,15.656753 29.5,12.813506 34.216756,10.406753 38.933513,8 H 40.466756 42 V 8.5477489 9.0954978 L 39.5,11.41242 37,13.729341 V 14.864671 16 h 1.059017 1.059017 l -0.723062,1.169939 -0.723062,1.169938 1.715983,-0.658484 1.715983,-0.658484 -0.56825,0.919447 -0.56825,0.919447 0.903005,0.558088 0.903005,0.558088 1.064064,-1.282119 1.064064,-1.282118 0.358398,-3.493568 0.358397,-3.493568 L 45.321397,9.288985 46.024486,8.1513639 44.262243,7.6638031 42.5,7.1762423 46.75,7.2836289 51,7.3910155 V 8.4955078 9.6 l -1.184387,1.184387 -1.184386,1.184386 -0.144287,1.958505 -0.144287,1.958504 0.578673,-0.06131 L 49.5,15.763158 50.916667,15.881579 52.333333,16 51.714286,16.619048 51.095238,17.238095 52.47619,18.619048 53.857143,20 H 56.428571 59 V 18.688561 17.377123 L 56.961045,15.188561 54.92209,13 h 0.562008 0.562008 L 54.408043,10.5 52.76998,8 54.13499,8.0419155 55.5,8.0838311 59,10.103271 62.5,12.12271 60.75,11.59274 59,11.06277 v 0.846491 0.846491 l 1.549964,3.709586 1.549964,3.709586 3.983023,-0.460084 3.983023,-0.460083 1.002197,1.872622 L 72.070368,23 h -4.666027 -4.666026 l 0.619837,3.75 0.619837,3.75 0.011,1.75 L 64,34 h 3.065741 3.065742 L 72.03406,32.981772 73.936637,31.963543 72.99307,29.481772 72.049502,27 h 0.913976 0.913976 l 0.662757,4.419582 0.662758,4.419582 -0.689382,4.080418 L 73.824204,44 h -0.971119 -0.971119 l 0.713526,1.154508 0.713525,1.154509 -1.17082,-0.723607 -1.170821,-0.723607 0.575329,-0.930901 L 72.118034,43 H 71.059017 70 v -3 -3 h -2.872192 -2.872192 l -0.676101,4.228103 -0.676101,4.228104 1.798293,1.335212 1.798293,1.335212 2.687592,-0.380963 2.687591,-0.380963 -0.974906,1.821628 -0.974906,1.821629 -3.26628,3.246019 L 63.39281,57.5 58.560169,59.888193 53.727528,62.276386 49.613764,62.579273 45.5,62.882159 Z M 61,40 V 37 L 57.25,37.0269 53.5,37.0538 57,40 l 3.5,2.946198 0.25,0.0269 L 61,43 Z M 60.98635,30.75 60.9727,27.5 60.36483,25.231289 59.75696,22.962578 55.233208,23.351352 50.709457,23.740127 49.390168,26.120063 48.070871,28.5 48.035435,30.583333 48,32.666667 48.666667,33.333333 49.333333,34 H 55.166667 61 Z"
       id="path488"
       inkscape:connector-curvature="0" />
    <path
       style="fill:#33c7f2"
       d="m 42.5,62.063643 -4,-0.686024 -3.309737,-1.745381 -3.309737,-1.74538 L 27.88372,54.275983 23.886913,50.665108 22.394995,47.094444 20.903076,43.52378 20.014229,39.567812 19.125382,35.611844 20.082197,30.555922 21.039012,25.5 22.025737,25.16459 23.012461,24.82918 22.465364,23.943957 21.918266,23.058735 23.369857,20.279368 24.821447,17.5 27.660724,14.860018 30.5,12.220037 34.710162,10.110018 38.920324,8 h 1.726929 1.726929 L 39.687091,10.804719 37,13.609438 v 1.156326 1.156326 l 2.169234,2.020948 2.169233,2.020949 1.330767,-1.104438 L 44,17.755111 V 15.577555 13.4 L 45.2,12.2 46.4,11 H 45.077555 43.755111 L 44.868879,9.6579907 45.982648,8.3159815 45.324657,7.6579907 44.666667,7 h 1.584879 1.584879 L 49.418213,7.6069888 51,8.2139776 v 1 1.0000004 L 49.736665,9.7291904 48.47333,9.2444032 48.4169,12.56983 48.36047,15.895256 49.070855,15.456214 49.78124,15.017172 51.413677,17.508586 53.046106,20 H 56.023053 59 l -0.0043,-1.25 -0.0043,-1.25 -2.956245,-4.456141 -2.956244,-4.4561415 0.428461,-0.4284607 0.428461,-0.4284607 2.964814,1.2280662 2.964814,1.2280667 -0.494944,1.289802 -0.494943,1.289803 1.511167,3.616733 L 61.897947,20 h 4.444038 4.444037 l 0.575604,1.5 0.575604,1.5 h -4.798319 -4.79832 l 0.987676,5.449052 0.987677,5.449053 3.592028,0.300947 L 71.5,34.5 l 1.816973,-2 1.816973,-2 -0.479309,6.329003 -0.479309,6.329002 -0.563498,0.563498 -0.563498,0.563498 L 71.524166,43.020056 70,41.755111 V 39.314197 36.873283 L 66.756695,37.186642 63.51339,37.5 63.210007,41.912128 62.906624,46.324257 64.203312,47.146816 65.5,47.969374 68.25,47.984687 71,48 v 0.863158 0.863158 L 66.042841,54.363158 61.085682,59 h -0.572778 -0.572779 l 2.156173,-2.91638 2.156173,-2.91638 2.123765,-0.689617 L 68.5,51.788006 66.701961,51.311427 64.903921,50.834849 63.451961,52.039869 62,53.244889 61.966731,54.372445 61.933461,55.5 60.118733,57.67307 58.304004,59.846139 54.529878,61.42307 50.755752,63 48.627876,62.874833 46.5,62.749667 Z M 39.454536,56.92798 36.883982,52.85596 39.691991,53.17798 42.5,53.5 42.810365,57.25 43.120731,61 H 44.060365 45 v -3.171259 -3.17126 L 43.345012,52.828741 41.690025,51 H 38.345012 35 v 0.54966 0.54966 l 1.624982,3.20034 1.624982,3.20034 0.997463,1.25 0.997462,1.25 h 0.8901 0.8901 z M 32.763372,54.184057 31.561525,51 h -2.83978 -2.839779 L 26.5,52 l 0.618034,1 h 1.325973 1.325973 l 1.694913,2.586764 1.694913,2.586764 0.402706,-0.402707 0.402707,-0.402707 z M 30.486244,45.75 29.934384,43.5 29.717192,40.251987 29.5,37.003975 25.25,37.001987 21,37 v 1 1 h 2.940983 2.940983 l 0.420759,0.75 0.420758,0.75 0.651711,2.727691 0.651711,2.72769 -3.013452,-0.60269 L 23,44.75 v 1.061642 1.061641 l 3.25,0.403321 3.25,0.403322 0.769052,0.160037 L 31.038104,48 Z M 41.57997,44.694193 41.839414,42.888385 40.669707,43.79976 39.5,44.711136 37.25,45.261948 35,45.812761 V 43.40638 41 h -1 -1 v 1.418213 1.418212 l 0.627242,1.634567 0.627242,1.634567 L 37.787505,46.80278 41.320526,46.5 Z M 60,45 V 44 H 58.910293 57.820585 L 56.160293,42.005755 54.5,40.01151 53,41.081886 l -1.5,1.070376 1.403409,-0.377267 1.403409,-0.377268 2.301137,2.301137 L 58.909091,46 H 59.454545 60 Z M 39.5,43 38.881966,42 37.190983,42.015313 35.5,42.030626 37,43 l 1.5,0.969374 0.809017,0.01531 L 40.118034,44 Z M 61,39.995084 v -3.004916 l -6.022077,0.136129 -6.022077,0.136129 -0.466913,0.75548 -0.466912,0.75548 1.680948,1.363307 1.680948,1.363307 -0.680711,-1.13631 -0.680711,-1.13631 2.029454,-0.530714 2.029454,-0.530714 2.709299,2.385423 2.709298,2.385423 0.75,0.0316 L 61,43 Z M 45,39 v -2 l -3.25,0.07895 -3.25,0.07895 1.482143,0.581767 1.482143,0.581767 1.339285,1.339285 L 44.142857,41 H 44.571429 45 Z M 24.841004,32.117014 23.665059,30.234028 22.434013,31.367014 21.202966,32.5 23.351483,33.15032 25.5,33.80064 25.758474,33.90032 26.016948,34 Z M 29,33.622445 V 33.244889 L 27.25,31.872445 25.5,30.5 26.872445,32.25 28.244889,34 H 28.622445 29 Z M 60.984687,29.75 60.969374,25.5 60.094192,24.118166 59.21901,22.736332 55.51107,23.431945 51.80313,24.127559 52.305606,23.31378 52.808082,22.5 50.303573,22.349532 47.799064,22.199064 48.899532,23.299532 50,24.4 v 0.8 0.8 h -1.361328 -1.361328 l 0.442431,2.75 0.442431,2.75 0.387512,1.25 L 48.93723,34 H 54.968615 61 Z M 73.078947,28.416667 73.157895,26.5 73.683114,27.8125 74.208333,29.125 73.604167,29.729167 73,30.333333 73.07895,28.416667 Z"
       id="path486"
       inkscape:connector-curvature="0" />
    <path
       style="fill:#f8a74b"
       d="M 45.514002,61.75 45.090774,60.5 44.76789,56 44.445005,51.5 39.59245,51.189897 34.739895,50.879795 35.369948,52.521685 36,54.163575 v 0.841487 0.841487 L 38.588894,58.923275 41.177787,62 h -0.54184 -0.541841 L 37.572969,60.851293 35.051832,59.702586 33.409851,55.40312 31.76787,51.103653 27.642562,50.801827 23.517254,50.5 23.157329,48.604744 22.797404,46.709488 26.926873,47.263366 31.056341,47.817244 30.474469,44.658622 29.892597,41.5 29.733494,39.25 29.574391,37 h -5.360519 -5.36052 l 0.330496,-1.716131 0.330497,-1.716132 4.903593,0.301547 4.903593,0.301546 -2.743809,-3.260833 -2.74381,-3.260832 0.434935,-2.275213 L 24.703781,23.09874 24.10189,23.29937 23.5,23.5 23.25,22.75 23,22 v -0.965204 -0.965204 l 3.15998,-3.599018 3.15998,-3.599018 4.806776,-2.435778 L 38.933513,8 h 1.720334 1.720335 l -2.784266,2.906148 -2.784266,2.906148 0.586001,1.846327 0.586002,1.846327 2.145192,1.339695 2.145193,1.339695 0.850668,-1.34217 L 43.969374,17.5 43.984687,15.45 44,13.4 45.2,12.2 46.4,11 H 45.077555 43.755111 L 44.868879,9.6579907 45.982648,8.3159815 45.324657,7.6579907 44.666667,7 h 1.584879 1.584879 L 49.418213,7.6069888 51,8.2139776 v 1 1.0000004 L 49.75,9.7357142 48.5,9.2574508 l -0.254247,3.4329162 -0.254247,3.432917 0.894863,-0.553056 0.894863,-0.553056 1.632437,2.491414 L 53.046106,20 H 56.023053 59 l -0.0043,-1.25 -0.0043,-1.25 -2.956245,-4.456141 -2.956244,-4.4561415 0.428461,-0.4284607 0.428461,-0.4284607 2.964814,1.2280662 2.964814,1.2280667 -0.494944,1.289802 -0.494943,1.289803 1.511167,3.616733 L 61.897947,20 h 4.444038 4.444037 l 0.604529,1.575377 0.604529,1.575378 L 67.24754,22.868881 62.5,22.587006 62.770677,25.043503 63.041354,27.5 l 0.513696,3.191684 0.513696,3.191684 3.715627,0.308316 L 71.5,34.5 l 1.816973,-2 1.816973,-2 -0.479309,6.329003 -0.479309,6.329002 -0.563498,0.563498 -0.563498,0.563498 L 71.524166,43.020056 70,41.755111 V 39.377555 37 H 66.5 63 v 5.295613 5.295613 l 3.712289,0.250009 3.712289,0.25001 0.471044,0.471044 0.471045,0.471044 -1.206281,1.206281 -1.206281,1.206281 L 65.727052,51.185271 62.5,50.924647 60.55285,55.401758 58.6057,59.878869 54.519417,61.439434 50.433134,63 H 48.185182 45.93723 Z M 43,47.3151 v -0.184901 l -0.998127,-2.625274 -0.998128,-2.625274 -1.156381,0.714683 -1.156381,0.714683 0.818553,-1.324447 0.818554,-1.324447 -1.715983,0.658484 -1.715983,0.658484 0.540284,-0.874196 0.540283,-0.874197 L 35.488345,39.753021 33,39.277344 33.01365,41.388672 33.0273,43.5 l 0.537601,2 0.5376,2 H 38.551246 43 Z M 60.375,44.875 61,41.75 V 39.375 37 H 54.625 48.25 v 2.430456 2.430457 l 3.082107,1.27665 3.082107,1.276651 1.792893,1.792893 L 58,48 h 0.875 0.875 z M 55.5,41 53.690025,39 h 1 1 L 57.5,41 l 1.809975,2 h -1 -1 z M 44.984687,39.75 45,37 H 40.5 36 v 0.98821 0.988211 L 38.25,38.73821 40.5,38.5 42,41.635971 43.5,44.771942 44.234687,43.635971 44.969374,42.5 Z M 45,32.581787 V 31.163575 L 45.56907,29.331787 46.13814,27.5 44.604505,30 43.070871,32.5 43.035435,33.25 43,34 h 1 1 z M 61.154306,29 60.840744,24.5 59.935985,23.565613 59.031227,22.631227 57.015613,22.482732 55,22.334238 V 23.167119 24 h -1.559017 -1.559017 l 0.486924,-0.787859 0.486923,-0.787859 -2.63374,-0.217975 -2.633741,-0.217975 1.205834,1.205834 L 50,24.4 v 0.8 0.8 h -1.361328 -1.361328 l 0.442431,2.75 0.442431,2.75 0.405952,1.298053 0.405952,1.298054 6.246879,-0.298054 L 61.467869,33.5 Z M 60,58.570368 v -0.5 L 62,57 64,55.929632 v 0.5 0.5 L 62,58 60,59.070368 Z M 20.157895,30 v -2.5 l 0.504386,1.25 0.504386,1.25 -0.504386,1.25 -0.504386,1.25 z M 73.078947,28.416667 73.157895,26.5 73.683114,27.8125 74.208333,29.125 73.604167,29.729167 73,30.333333 73.07895,28.416667 Z"
       id="path484"
       inkscape:connector-curvature="0" />
    <path
       style="fill:#96ac93"
       d="M 45.50733,61.732611 45.090774,60.5 44.76789,56 44.445005,51.5 39.59245,51.189897 34.739895,50.879795 35.369948,52.521685 36,54.163575 v 0.841487 0.841487 L 38.588894,58.923275 41.177787,62 h -0.54184 -0.541841 L 37.572969,60.851293 35.051832,59.702586 33.409851,55.40312 31.76787,51.103653 27.642562,50.801827 23.517254,50.5 23.157329,48.604744 22.797404,46.709488 26.926873,47.263366 31.056341,47.817244 30.474469,44.658622 29.892597,41.5 29.733494,39.25 29.574391,37 h -5.360519 -5.36052 l 0.330496,-1.716131 0.330497,-1.716132 4.903593,0.301547 4.903593,0.301546 -2.743809,-3.260833 -2.74381,-3.260832 0.438587,-2.29432 0.438587,-2.29432 -0.786445,0.486049 -0.786444,0.48605 -0.535875,-0.867064 -0.535875,-0.867064 2.31172,-3.13336 2.31172,-3.133361 2.405057,-1.874492 L 31.5,12.28279 l 3,-1.51471 3,-1.5147096 L 40,8.525686 42.5,7.7980016 39.25,10.84263 36,13.887258 V 14.943629 16 h 1 1 l -0.25,1.204545 -0.25,1.204546 1,0.06077 1,0.06077 1.257671,0.798445 1.257671,0.798445 1.589456,-1.589457 1.589457,-1.589456 L 44.628512,15.474301 44.06277,14 h 1.027632 1.027632 l -0.575329,-0.930902 -0.575329,-0.930901 1.023375,-0.632481 1.023375,-0.63248 0.521882,1.360004 0.521883,1.360004 -2.452722,4.612935 -2.452721,4.612935 0.673776,0.783335 L 44.5,24.385783 40.200326,21.069519 35.900651,17.753256 35.325326,14.876628 34.75,12 h -0.764216 -0.764216 l -2.192135,1.775083 -2.192135,1.775083 8.056196,6.798492 8.056195,6.798493 -1.589854,2.426424 L 41.76998,34 h 1.498433 1.498433 l 0.525208,-2.747452 0.525209,-2.747452 -0.955966,-0.590819 -0.955966,-0.590819 1.487894,-1.234842 1.487893,-1.234842 -0.507733,-1.323132 -0.507734,-1.323133 2.317175,-1.631946 L 50.5,18.943617 49.302786,18.195415 48.105573,17.447214 48.927786,16.116844 49.75,14.786475 50.434017,15.893237 51.118034,17 h -0.750147 -0.750146 l 1.941129,1.468197 1.94113,1.468196 2.75,0.0318 L 59,20 v -1.095708 -1.095708 l -1.75,-3.135978 -1.75,-3.135977 -1.297619,-1.387362 -1.297619,-1.3873622 0.404491,-0.404491 0.404491,-0.404491 1.637384,0.6283234 1.637385,0.6283234 -0.459676,0.7437714 -0.459676,0.743771 1.722592,1.901444 1.722592,1.901444 1.221389,2.75 1.221388,2.75 h 4.41445 4.41445 l 0.604529,1.575377 0.604529,1.575378 L 67.24754,22.868881 62.5,22.587006 62.770677,25.043503 63.041354,27.5 63.56599,30.75 64.090626,34 h 3.53802 3.538021 L 70.756034,35.25 70.345401,36.5 66.6727,36.810365 63,37.120731 v 5.235247 5.235248 l 3.712289,0.250009 3.712289,0.25001 0.471044,0.471044 0.471045,0.471044 -1.206281,1.206281 -1.206281,1.206281 L 65.727052,51.185271 62.5,50.924647 60.527752,55.45812 58.555505,59.991593 55.527752,60.903092 52.5,61.814591 49.211943,62.389907 45.923885,62.965223 Z M 43,47.3151 v -0.184901 l -0.998127,-2.625274 -0.998128,-2.625274 -1.156381,0.714683 -1.156381,0.714683 0.818553,-1.324447 0.818554,-1.324447 -1.715983,0.658484 -1.715983,0.658484 0.610955,-0.988545 L 38.118034,40 37.309017,39.923489 36.5,39.846977 34.75,39.511973 33,39.176968 33.01365,41.338484 33.0273,43.5 l 0.537601,2 0.5376,2 H 38.551246 43 Z M 60.375,44.875 61,41.75 V 39.375 37 h -6.34782 -6.34782 l -0.08822,3.102704 -0.08822,3.102703 0.606211,-0.606211 0.606211,-0.606211 2.329826,1.52656 L 54,45.046106 V 44.523053 44 l 2,2 2,2 h 0.875 0.875 z M 55.5,41 53.690025,39 h 1 1 L 57.5,41 l 1.809975,2 h -1 -1 z M 44.984687,39.75 45,37 H 40.5 36 v 0.98821 0.988211 L 38.25,38.73821 40.5,38.5 42,41.635971 43.5,44.771942 44.234687,43.635971 44.969374,42.5 Z M 61.154306,29 60.840744,24.5 59.881978,23.511606 58.923212,22.523212 57.211606,22.511606 55.5,22.5 l -0.734687,1 -0.734687,1 -0.01531,-1.25 L 54,22 H 52.940983 51.881966 L 52.51514,23.25 53.148315,24.5 51.824157,22.963601 50.5,21.427203 48.75,21.786925 47,22.146648 v 0.985693 0.985693 l 0.930902,-0.575329 0.930901,-0.575329 0.628116,1.016312 L 50.118034,25 H 48.584017 47.05 l 0.561534,3.25 0.561535,3.25 0.40052,1.298053 0.400521,1.298054 6.246879,-0.298054 L 61.467869,33.5 Z M 60,58.570368 v -0.5 L 62,57 64,55.929632 v 0.5 0.5 L 62,58 60,59.070368 Z M 71.452254,42.184017 70.5,41.5 l 0.103727,-2 0.103727,-2 1.216591,-3 1.216592,-3 1.021345,1.825003 1.021346,1.825003 L 74.591664,35.74167 74,36.333333 73.984687,34.916667 73.969374,33.5 73,35 l -0.969374,1.5 0.08437,3 0.08437,3 L 73,40 73.80064,37.5 73.90032,39.690983 74,41.881966 73.202254,42.375 72.404508,42.868034 Z M 20.157895,30 v -2.5 l 0.504386,1.25 0.504386,1.25 -0.504386,1.25 -0.504386,1.25 z M 49,9 V 8 h 1 1 v 1 1 h -1 -1 z"
       id="path482"
       inkscape:connector-curvature="0" />
    <path
       style="fill:#2ebae9"
       d="M 47,61.811878 V 60.881966 L 46,61.5 45,62.118034 44.88465,57.809017 44.769301,53.5 44.63465,52.022183 44.5,50.544365 40,50.862961 35.5,51.181556 35.222022,51.45209 34.944043,51.722623 36.038634,54.611312 37.133225,57.5 39.240926,59.75 41.348628,62 H 40.721367 40.094106 L 37.572969,60.851293 35.051832,59.702586 33.409851,55.40312 31.76787,51.103653 27.642562,50.801827 23.517254,50.5 23.157329,48.604744 22.797404,46.709488 26.926873,47.263366 31.056341,47.817244 30.474469,44.658622 29.892597,41.5 29.733494,39.25 29.574391,37 h -5.360519 -5.36052 l 0.330496,-1.716131 0.330497,-1.716132 4.881528,0.30019 L 29.2774,34.168116 27.1387,31.449199 25,28.730283 24.984687,25.115141 24.969374,21.5 24.109687,22.856763 23.25,24.213525 22.658223,23.256011 22.066447,22.298496 24.559875,18.918844 27.053303,15.539192 31.036679,12.863926 35.020054,10.188659 38.260027,9.0688501 41.5,7.9490408 38.75,10.514989 36,13.080938 v 1.268401 1.268402 l 1.25,1.636396 1.25,1.636397 2.655716,0.639477 2.655715,0.639477 0.658832,-2.075795 0.658832,-2.075796 L 44.505531,15.008949 43.881966,14 H 45 46.118034 L 45.5,13 44.881966,12 h 1 1 l 0.514756,0.832892 0.514755,0.832892 -1.705738,3.634543 L 44.5,20.934869 43.127555,20.967435 41.755111,21 43.127555,22.730835 44.5,24.46167 40.200326,21.107463 35.900651,17.753256 35.325326,14.876628 34.75,12 h -0.764216 -0.764216 l -2.202383,1.783381 -2.202382,1.783381 7.657262,6.411522 7.657261,6.411522 -0.452209,1.555097 -0.45221,1.555097 -0.724794,1.761341 -0.724794,1.76134 1.371307,-0.52622 1.371307,-0.52622 1.059294,-3.384379 1.059294,-3.38438 -1.56926,0.568824 L 43.5,28.339131 45.119512,26.419565 46.739024,24.5 46.317276,23.343292 45.895528,22.186583 48.197764,20.489579 50.5,18.792575 49.243769,18.310877 47.987539,17.82918 48.598177,16.841146 49.208815,15.853113 50.661112,17.926556 52.113408,20 h 3.551704 3.551704 l -0.590199,-2.351542 -0.5902,-2.351542 0.665111,-0.66511 0.66511,-0.665111 1.268407,3.016653 L 61.903452,20 h 4.441285 4.441285 l 0.604529,1.575377 0.604529,1.575378 L 67.24754,22.868881 62.5,22.587006 62.770677,25.043503 63.041354,27.5 63.56599,30.75 64.090626,34 h 3.53802 3.538021 L 70.756034,35.25 70.345401,36.5 66.6727,36.810365 63,37.120731 v 5.235247 5.235248 l 3.712289,0.250009 3.712289,0.25001 0.471044,0.471044 0.471045,0.471044 -1.194843,1.194843 -1.194842,1.194842 -3.886754,-0.280632 -3.886753,-0.280632 -0.756246,1.223631 -0.756246,1.223632 1.154509,-0.713525 L 62,51.881966 61.984687,52.690983 61.969374,53.5 61.122884,54.83541 60.276393,56.17082 59.388197,56.130858 58.5,56.090896 58.792002,57.922341 59.084005,59.753787 57.292002,60.44794 55.5,61.142094 51.25,61.941942 47,62.741789 Z M 45.147344,39.75 44.773001,37 h -4.303167 -4.303167 l -0.5657,-1.25 -0.565699,-1.25 0.270681,2 0.27068,2 1.908682,-0.171722 1.908681,-0.171721 1.271201,1.671721 1.2712,1.671722 0.0318,0.583333 0.0318,0.583334 H 40.543982 39.08797 L 39.604156,41.831461 40.120342,40.996255 37.495075,39.998127 34.869801,39 H 33.9349 33 l 0.01365,2.25 0.01365,2.25 0.543096,2.021014 0.543095,2.021014 3.94325,-0.37605 L 42,46.789929 42.0016,48.144965 42.0032,49.5 43.76249,46 45.521779,42.5 45.147436,39.75 Z M 60.78816,42.993912 61.07632,37 h -6.38598 -6.38598 l -0.08032,2.825095 -0.08032,2.825095 3.428144,1.239633 L 55,45.129456 v 0.851939 0.851938 l 2.75,1.004386 2.75,1.004386 v 0.07286 0.07286 z M 55.5,41 53.690025,39 h 1 1 L 57.5,41 l 1.809975,2 h -1 -1 z M 40.25,33.337719 39,32.833333 37.75,33.337719 36.5,33.842105 H 39 41.5 Z M 61.142953,29 60.818038,24.5 59.949806,23.446683 59.081575,22.393365 55.105023,22.497256 51.12847,22.601147 51.689465,21.69344 52.250459,20.785732 49.875229,21.517094 47.5,22.248455 47.02896,22.678601 46.557921,23.108746 48.02896,24.03906 49.5,24.969374 48.275,24.984687 47.05,25 l 0.561534,3.25 0.561535,3.25 0.40052,1.298053 0.400521,1.298054 6.246879,-0.298054 L 61.467869,33.5 Z M 60,58.570368 v -0.5 L 62,57 64,55.929632 v 0.5 0.5 L 62,58 60,59.070368 Z M 71.540446,41.813382 71.095017,40.5 70.874503,39 70.65399,37.5 l 1.355839,-2.798985 1.35584,-2.798986 0.908829,1.623988 0.90883,1.623989 L 74.591664,35.74167 74,36.333333 73.984687,34.916667 73.969374,33.5 73,35 l -0.969374,1.5 0.08437,3 0.08437,3 L 73,40 73.80064,37.5 73.90032,39.690983 74,41.881966 72.992937,42.504365 71.985874,43.126764 Z M 20.157895,30 v -2.5 l 0.504386,1.25 0.504386,1.25 -0.504386,1.25 -0.504386,1.25 z M 56.08102,12.151388 55,10.131483 V 9.5657415 9 h 1.166667 1.166666 l -0.65799,0.6579907 -0.657991,0.6579903 1.133825,1.366176 1.133824,1.366175 -0.56148,0.56148 -0.56148,0.561481 z"
       id="path480"
       inkscape:connector-curvature="0" />
    <path
       style="fill:#fc9a29"
       d="M 47,61.811878 V 60.881966 L 46,61.5 45,62.118034 44.88465,57.809017 44.769301,53.5 44.63465,52.5 44.5,51.5 43.75,51.25 43,51 h -4.516846 -4.516846 l 2.587927,5.107027 2.587926,5.107027 L 37.82108,60.812127 36.5,60.4102 34.143906,55.7051 31.787812,51 H 28.000895 24.213978 L 23.638374,49.5 23.06277,48 H 27.156385 31.25 L 30.625,44.875 30,41.75 V 39.42726 37.104519 L 24.828603,36.80226 19.657205,36.5 19.245269,35.25 18.833333,34 h 5.155914 5.155913 L 27.07258,31.365141 25,28.730283 24.984687,25.115141 24.969374,21.5 24.109687,22.856763 23.25,24.213525 22.658223,23.256011 22.066447,22.298496 24.559875,18.918844 27.053303,15.539192 31.036679,12.863926 35.020054,10.188659 38.260027,9.0688501 41.5,7.9490408 38.75,10.514989 36,13.080938 v 1.025272 1.025273 l 0.973622,1.81923 0.973623,1.81923 2.644376,0.663696 2.644377,0.663697 -0.609323,0.609323 -0.609323,0.609322 1.241324,1.572845 L 44.5,24.46167 40.200326,21.107463 35.900651,17.753256 35.325326,14.876628 34.75,12 h -0.764216 -0.764216 l -2.202383,1.783381 -2.202382,1.783381 7.657262,6.411522 7.657261,6.411522 -0.452209,1.555097 -0.45221,1.555097 -0.692444,1.677037 -0.692443,1.677037 2.135547,-0.558459 2.135548,-0.558458 -0.552971,-1.441021 -0.552972,-1.44102 1.019553,-1.905053 1.019553,-1.905052 -1.773139,0.64706 L 43.5,28.339131 45.119512,26.419565 46.739024,24.5 46.317276,23.343292 45.895528,22.186583 48.197764,20.489579 50.5,18.792575 49.243769,18.310877 47.987539,17.82918 48.598177,16.841146 49.208815,15.853113 50.661112,17.926556 52.113408,20 h 3.97848 3.97848 L 59.035184,18.065741 58,16.131483 V 15.565741 15 h 0.980948 0.980948 l 0.62746,2.5 0.62746,2.5 h 4.269147 4.269148 l 1.039099,1.25 1.0391,1.25 -5.061072,-0.356253 -5.061072,-0.356253 0.630762,2.356253 L 62.972691,26.5 62.986345,30.25 63,34 h 4.083333 4.083334 l -0.419502,1.25 -0.419502,1.25 H 66.913831 63.5 L 62.988083,42.25 62.476167,48 h 4.230532 4.230531 l -0.601272,1.566891 -0.601272,1.56689 -3.855834,-0.278399 -3.855834,-0.2784 -1.261509,1.358213 L 59.5,53.293409 60.75,52.587687 62,51.881966 v 0.867887 0.867888 L 60.425843,55.55887 58.851685,57.5 l 0.728666,-1.404508 0.728666,-1.404509 -1.110835,0.686534 -1.110834,0.686533 0.501835,1.307761 0.501835,1.307761 -1.402078,1.163622 -1.402079,1.163622 -4.64343,0.867487 L 47,62.741789 Z M 45.620299,39.75 45.983164,37 h -4.908249 -4.908248 l -0.5657,-1.25 -0.565699,-1.25 0.270681,2 0.27068,2 1.908682,-0.171722 1.908681,-0.171721 1.271201,1.671721 1.2712,1.671722 0.0318,0.583333 0.0318,0.583334 H 40.555549 39.111104 L 39.305549,41.708333 39.5,40.75 36.5,39.712771 33.5,38.675542 32.175843,37.087771 30.851685,35.5 l 0.666111,1.303293 0.666111,1.303292 0.477253,4.154177 0.477252,4.154177 0.547829,0.886405 0.547828,0.886405 3.882966,-0.3703 L 42,47.447148 42.03914,48.473574 42.07828,49.5 43.667855,46 45.25743,42.5 45.620295,39.75 Z m 14.958167,6.5 0.07411,-2.75 0.753349,-3.250825 0.75335,-3.250826 L 60.56345,36.385974 58.967626,35.773599 53.483814,36.458756 48,37.143913 v 2.727155 2.727155 l 3.5,1.265617 3.5,1.265616 v 0.851939 0.851938 l 2.75,1.004386 2.75,1.004386 0.0022,0.07895 0.0022,0.07895 0.07411,-2.75 z M 40.25,33.337719 39,32.833333 37.75,33.337719 36.5,33.842105 H 39 41.5 Z M 61.514847,29.75 60.853899,25.5 60.39987,23.877 59.945841,22.254 55.394845,21.741037 50.843848,21.228074 48.921924,21.730668 47,22.233263 V 23.116631 24 l 1.25,0.01531 1.25,0.01531 -1.073,0.734687 -1.073001,0.734687 0.428036,4.25 0.428036,4.25 h 6.982862 6.982863 l -0.660949,-4.25 z M 71.540446,41.813382 71.095017,40.5 70.874503,39 70.65399,37.5 l 1.355839,-2.798985 1.35584,-2.798986 0.908829,1.623988 0.90883,1.623989 L 74.591664,35.74167 74,36.333333 73.984687,34.916667 73.969374,33.5 73,35 l -0.969374,1.5 0.08437,3 0.08437,3 L 73,40 73.80064,37.5 73.90032,39.690983 74,41.881966 72.992937,42.504365 71.985874,43.126764 Z M 44.305442,17.754484 44.5,14.008968 45.309017,14.004484 46.118034,14 45.5,13 44.881966,12 h 1 1 l 0.419459,0.75 0.419459,0.75 -1.805,4 -1.804999,4 z M 56.08102,12.151388 55,10.131483 V 9.5657415 9 h 1.166667 1.166666 l -0.65799,0.6579907 -0.657991,0.6579903 1.133825,1.366176 1.133824,1.366175 -0.56148,0.56148 -0.56148,0.561481 z"
       id="path478"
       inkscape:connector-curvature="0" />
    <path
       style="fill:#09adea"
       d="M 47,61.811878 V 60.881966 L 46,61.5 45,62.118034 44.88465,57.809017 44.769301,53.5 44.63465,52.5 44.5,51.5 43.75,51.25 43,51 h -4.516846 -4.516846 l 2.587927,5.107027 2.587926,5.107027 L 37.82108,60.812127 36.5,60.4102 34.143906,55.7051 31.787812,51 H 28.000895 24.213978 L 23.638374,49.5 23.06277,48 H 27.156385 31.25 L 30.625,44.875 30,41.75 V 39.42726 37.104519 L 24.828603,36.80226 19.657205,36.5 19.245269,35.25 18.833333,34 h 5.155914 5.155913 L 27.07258,31.365141 25,28.730283 24.984687,25.115141 24.969374,21.5 24.109687,22.856763 23.25,24.213525 l -0.578252,-0.935631 -0.578253,-0.935632 3.033316,-3.679938 3.033316,-3.679939 7.958787,7.186374 7.958787,7.186373 L 43.53885,30.677566 43,32 42.42101,33.427037 41.84202,34.854074 43.949053,34.303072 46.056086,33.752071 45.523353,32.073579 44.99062,30.395087 46.463507,28.447543 47.936393,26.5 47.968197,30.25 48,34 h 7.087898 7.087898 L 61.514847,29.75 60.853899,25.5 60.359562,23.75 59.865225,22 H 56.432612 53 v -1 -1 h 3.535184 3.535184 L 59.035184,18.065741 58,16.131483 V 15.565741 15 h 0.980948 0.980948 l 0.62746,2.5 0.62746,2.5 h 4.269147 4.269148 l 1.039099,1.25 1.0391,1.25 -5.061072,-0.356253 -5.061072,-0.356253 0.630762,2.356253 L 62.972691,26.5 62.986345,30.25 63,34 h 4.083333 4.083334 l -0.419502,1.25 -0.419502,1.25 H 66.913831 63.5 L 62.988083,42.25 62.476167,48 h 4.230532 4.230531 l -0.601272,1.566891 -0.601272,1.56689 -3.855834,-0.278399 -3.855834,-0.2784 -1.261509,1.358213 L 59.5,53.293409 60.75,52.587687 62,51.881966 v 0.867887 0.867888 L 60.425843,55.55887 58.851685,57.5 l 0.728666,-1.404508 0.728666,-1.404509 -1.110835,0.686534 -1.110834,0.686533 0.501835,1.307761 0.501835,1.307761 -1.402078,1.163622 -1.402079,1.163622 -4.64343,0.867487 L 47,62.741789 Z M 45.620299,39.75 45.983164,37 h -4.908249 -4.908248 l -0.594422,-1.25 -0.594421,-1.25 0.417468,2.25 0.417469,2.25 h -1.046138 -1.046138 l -1.4344,-1.75 -1.4344,-1.75 0.666111,1.303293 0.666111,1.303292 0.477253,4.154177 0.477252,4.154177 0.547829,0.886405 0.547828,0.886405 3.882966,-0.3703 L 42,47.447148 42.039142,48.473574 42.078284,49.5 43.667859,46 45.257434,42.5 Z M 39.374328,42.31146 40.042065,41.122921 38.271032,40.091869 36.5,39.060817 38.190983,39.030409 39.881966,39 l 0.671885,1.087132 0.671884,1.087133 -1.259572,1.162867 L 38.706591,43.5 Z M 60.578466,46.25 60.652576,43.5 61.405925,40.249175 62.159275,36.998349 60.56345,36.385974 58.967626,35.773599 53.483814,36.458756 48,37.143913 v 2.727155 2.727155 l 3.5,1.265617 3.5,1.265616 v 0.851939 0.851938 l 2.75,1.004386 2.75,1.004386 0.0022,0.07895 0.0022,0.07895 0.07411,-2.75 z M 40.25,33.337719 39,32.833333 37.75,33.337719 36.5,33.842105 H 39 41.5 Z M 45.5,13 44.881966,12 h 1 1 L 47.5,13 l 0.618034,1 h -1 -1 z"
       id="path476"
       inkscape:connector-curvature="0" />
    <path
       style="fill:#fe7823"
       d="m 46.373559,60.352241 -0.59843,-2.384333 0.474088,-1.812913 0.474087,-1.812914 -1.369809,-1.873326 -1.369809,-1.873326 -4.978795,-0.04771 -4.978795,-0.04771 0.600973,2 0.600973,2 2.053566,3.389196 L 39.335174,61.2784 37.917587,60.844296 36.5,60.4102 34.143906,55.7051 31.787812,51 H 28.516351 25.244889 L 24,49.5 22.755111,48 h 4.253287 4.253287 L 30.641848,44.25 30.022011,40.5 30.011006,38.80226 30,37.104519 24.828603,36.80226 19.657205,36.5 19.20045,35.115542 18.743695,33.731085 24.315689,34.193158 29.887683,34.655231 27.443842,31.75089 25,28.846549 v -3.339941 -3.339941 l -1.113864,-0.371288 -1.113864,-0.371288 2.703156,-3.21252 2.703157,-3.212519 7.949558,7.17804 7.949558,7.17804 L 43.53885,30.677566 43,32 42.42101,33.427037 41.84202,34.854074 43.92101,34.310405 46,33.766737 46.031803,32.133369 46.063607,30.5 47.281803,32.061971 48.5,33.623943 50.25,34.280586 52,34.93723 V 35.968615 37 h -2 -2 v 2.799112 2.799111 l 3.5,1.265617 3.5,1.265616 v 0.837447 0.837447 l 3.034245,1.057743 3.034245,1.057744 -0.537489,-0.869676 -0.53749,-0.869677 0.608029,-1.584498 0.60803,-1.584499 0.963388,0.595407 0.963389,0.595407 -0.536789,1.39885 L 62.06277,48 64.781385,48.178281 67.5,48.356563 l 1.728986,-0.0054 1.728987,-0.0054 -1.13239,1.364447 -1.13239,1.364446 -3.242411,-0.515302 -3.242411,-0.515301 -1.22663,1.477998 L 59.755111,53 h 0.777432 0.777432 L 59.404988,55.171894 57.5,57.343789 58.853727,56.548771 60.207453,55.753753 58.488717,58.376876 56.76998,61 56.13499,61.043551 55.5,61.087102 51.235994,61.911838 46.971988,62.736574 Z M 46,39.288558 V 37 L 44.25,36.8885 42.5,36.777001 40,36.6385 37.5,36.5 36.092476,35.593628 34.684953,34.687256 35.248857,36.843628 35.812761,39 h -1.046138 -1.046138 l -1.181257,-1.615465 -1.181257,-1.615466 1.003565,6.06813 1.003566,6.06813 4.558416,0.297335 L 42.481934,48.5 44.240967,45.038558 46,41.577116 Z M 38.557298,40.418239 36.617741,39 h 1.632112 1.632113 l 0.659153,1.066531 0.659152,1.066531 -0.351708,0.351708 -0.351708,0.351708 z M 41,34 v -1 h -2 -2 v 1 1 h 2 2 z m 21.232003,6 v -3.5 l 0.457323,1.75 0.457322,1.75 -0.457322,1.75 -0.457323,1.75 z m -6.470344,-4.707261 2.261659,-0.434897 1.738341,0.455078 1.738341,0.455077 -4,-0.02018 -4,-0.02018 z m 9.507373,0.01427 1.769032,-0.460988 1.230968,0.498042 1.230968,0.498042 -3,-0.03705 -3,-0.03705 1.769032,-0.460988 z M 62.194949,31.5 l 0.03705,-3 0.460988,1.769032 0.460988,1.769032 -0.498042,1.230968 -0.498042,1.230968 0.03705,-3 z M 61.078947,24.416667 61.157895,22.5 61.683114,23.8125 62.208333,25.125 61.604167,25.729167 61,26.333333 61.07895,24.416667 Z m -4.809915,-3.109658 1.769032,-0.460988 1.230968,0.498042 1.230968,0.498042 -3,-0.03705 -3,-0.03705 1.769032,-0.460988 z m 7.994718,-0.02459 2.763749,-0.417917 2.236251,0.431567 2.23625,0.431567 -5,-0.01365 -5,-0.01365 z M 59.623539,18.461341 59,16.836425 59.063386,15.668213 59.126773,14.5 l 0.958096,2.395184 0.958097,2.395184 -0.397945,0.397944 -0.397944,0.397944 z"
       id="path474"
       inkscape:connector-curvature="0" />
    <path
       style="fill:#fd6f0a"
       d="m 46.486023,60.977384 -0.632012,-1.022615 0.300783,-2.8675 0.300783,-2.867499 -1.390174,-2.597563 -1.390173,-2.597562 -1.323842,1.098692 -1.323842,1.098691 -3.517569,-0.410657 -3.51757,-0.410656 0.617817,2.049643 0.617818,2.049642 2.053566,3.389196 2.053566,3.389195 L 37.917587,60.844296 36.5,60.4102 34.143906,55.7051 31.787812,51 H 28.516351 25.244889 L 24,49.5 22.755111,48 h 4.253287 4.253287 L 30.641848,44.25 30.022011,40.5 30.011006,38.80226 30,37.104519 24.828603,36.80226 19.657205,36.5 l -0.462272,-1.401009 -0.462273,-1.40101 6.11398,0.554396 6.11398,0.554397 -3.041219,-3.041219 -3.041219,-3.041219 0.304467,-2.902624 0.304467,-2.902624 L 24.167618,22.103594 22.84812,21.288099 25.17406,18.84504 27.5,16.401981 26.25,18.029731 25,19.657481 V 20.828741 22 h 1 1 v 3.702393 3.702393 l 3.138165,3.237764 3.138165,3.237765 1.611835,-1.931687 L 36.5,32.016941 39,31.758471 41.5,31.5 42.831635,30 44.16327,28.5 43.581635,30.25 43,32 42.42101,33.427037 41.84202,34.854074 43.92101,34.310405 46,33.766737 46.031803,32.133369 46.063607,30.5 47.281803,32.061971 48.5,33.623943 50.25,34.280586 52,34.93723 V 35.968615 37 H 50 48 V 39.5 42 H 47 46 V 39.5 37 L 44.25,36.8885 42.5,36.777001 39.714547,36.6385 36.929094,36.5 35.886258,35 34.843422,33.5 35.283039,36.25 35.722656,39 h -0.532587 -0.532588 l -1.625938,-1.471454 -1.625938,-1.471453 0.973583,5.886836 0.973582,5.886836 4.813691,0.334617 L 42.980152,48.5 43.938057,45.75 44.895961,43 h 2.352655 2.352655 l 2.691562,1.25 2.691563,1.25 0.0078,0.73658 0.0078,0.73658 3.622362,1.513519 3.622362,1.51352 -1.113686,1.34191 -1.113686,1.34191 0.657991,0.65799 L 61.333329,54 h -1.273655 -1.273656 l 0.50334,1.311681 0.503339,1.311681 -1.64635,2.089392 L 56.5,60.802146 53,61.406002 l -3.5,0.603856 2.096907,-0.916072 2.096907,-0.916072 3.195716,-4.82465 3.195715,-4.824649 L 57.542622,49.680874 55,48.833333 V 47.942347 47.05136 L 52.04966,45.52568 49.09932,44 h -1.514476 -1.514476 l -1.060981,1.982459 -1.06098,1.98246 2.553762,3.858994 2.553762,3.858994 -0.240673,3.158547 L 48.574585,62 H 47.846309 47.118034 Z M 47.692991,56.269032 47.232003,54.5 l -0.03705,3 -0.03705,3 0.498042,-1.230968 0.498042,-1.230968 -0.460988,-1.769032 z m 9.113881,1.204507 -0.559795,-0.559795 -0.682784,1.793128 L 54.881509,60.5 56.124088,59.266667 57.366667,58.033333 Z M 41,33.393011 V 31.786022 L 39.418213,32.393011 37.836425,33 h -0.977229 -0.97723 L 36.5,34 37.118034,35 H 39.059017 41 Z m 20.762191,15.615507 -1.884569,-1.526032 0.665974,-1.735499 0.665974,-1.7355 0.963388,0.595407 0.963389,0.595407 -0.536789,1.39885 L 62.06277,48 64.781385,48.178281 67.5,48.356563 l 1.728986,-0.0054 1.728987,-0.0054 -1.084863,1.30718 -1.084862,1.307179 -2.570744,-0.212761 -2.570743,-0.212762 -1.88457,-1.526031 z M 62.232003,40 v -3.5 l 0.457323,1.75 0.457322,1.75 -0.457322,1.75 -0.457323,1.75 z M 38.557298,40.418239 36.617741,39 h 1.632112 1.632113 l 0.659153,1.066531 0.659152,1.066531 -0.351708,0.351708 -0.351708,0.351708 z m 17.204361,-5.1255 2.261659,-0.434897 1.738341,0.455078 1.738341,0.455077 -4,-0.02018 -4,-0.02018 z m 9.507373,0.01427 1.769032,-0.460988 1.230968,0.498042 1.230968,0.498042 -3,-0.03705 -3,-0.03705 1.769032,-0.460988 z M 62.194949,31.5 l 0.03705,-3 0.460988,1.769032 0.460988,1.769032 -0.498042,1.230968 -0.498042,1.230968 0.03705,-3 z M 61.078947,24.416667 61.157895,22.5 61.683114,23.8125 62.208333,25.125 61.604167,25.729167 61,26.333333 61.07895,24.416667 Z m -4.809915,-3.109658 1.769032,-0.460988 1.230968,0.498042 1.230968,0.498042 -3,-0.03705 -3,-0.03705 1.769032,-0.460988 z m 7.994718,-0.02459 2.763749,-0.417917 2.236251,0.431567 2.23625,0.431567 -5,-0.01365 -5,-0.01365 z M 59.623539,18.461341 59,16.836425 59.063386,15.668213 59.126773,14.5 l 0.958096,2.395184 0.958097,2.395184 -0.397945,0.397944 -0.397944,0.397944 z"
       id="path472"
       inkscape:connector-curvature="0" />
    <path
       style="fill:#068eda"
       d="M 36.143829,59.673303 35.042768,58.346606 33.507964,54.673303 31.97316,51 H 28.609025 25.244889 L 24,49.5 22.755111,48 h 4.253287 4.253287 L 30.641848,44.25 30.022011,40.5 30.011006,38.80226 30,37.104519 24.828603,36.80226 19.657205,36.5 19.20045,35.115542 l -0.456755,-1.384457 5.720191,0.474363 5.720192,0.474362 0.866164,1.401484 0.866164,1.401483 0.650731,5.208269 0.65073,5.208269 4.641066,0.300343 L 42.5,48.5 l -0.5,1 -0.5,1 h -3.739485 -3.739484 l 0.603505,2 0.603506,2 1.967538,3.25 1.967539,3.25 H 38.204004 37.244889 Z M 46.232003,58 v -3.5 l 0.457323,1.75 0.457322,1.75 -0.457322,1.75 -0.457323,1.75 z m 9.988011,1.01931 1.236961,-1.98069 1.274837,-0.489201 1.274838,-0.489201 -1.618335,2.469891 L 56.76998,61 h -0.893464 -0.893464 z m 5.542177,-10.010792 -1.884569,-1.526032 0.665974,-1.735499 0.665974,-1.7355 0.963388,0.595407 0.963389,0.595407 -0.536789,1.39885 L 62.06277,48 64.781385,48.178281 67.5,48.356563 l 1.728986,-0.0054 1.728987,-0.0054 -1.084863,1.30718 -1.084862,1.307179 -2.570744,-0.212761 -2.570743,-0.212762 -1.88457,-1.526031 z M 62.232003,40 v -3.5 l 0.457323,1.75 0.457322,1.75 -0.457322,1.75 -0.457323,1.75 z M 46,39.5 V 37 L 44.25,36.8885 42.5,36.777001 39.584176,36.6385 36.668352,36.5 l -0.334258,-1 -0.334257,-1 3.232851,0.09551 3.232852,0.09551 1.76723,-0.462141 L 46,33.766737 46.031803,32.133369 46.063607,30.5 47.281803,32.061971 48.5,33.623943 50.25,34.280586 52,34.93723 V 35.968615 37 h -2 -2 v 2.5 2.5 h -1 -1 z m 9.761659,-4.207261 2.261659,-0.434897 1.738341,0.455078 1.738341,0.455077 -4,-0.02018 -4,-0.02018 z m 9.507373,0.01427 1.769032,-0.460988 1.230968,0.498042 1.230968,0.498042 -3,-0.03705 -3,-0.03705 1.769032,-0.460988 z M 62.194949,31.5 l 0.03705,-3 0.460988,1.769032 0.460988,1.769032 -0.498042,1.230968 -0.498042,1.230968 0.03705,-3 z M 61.078947,24.416667 61.157895,22.5 61.683114,23.8125 62.208333,25.125 61.604167,25.729167 61,26.333333 61.07895,24.416667 Z m -4.809915,-3.109658 1.769032,-0.460988 1.230968,0.498042 1.230968,0.498042 -3,-0.03705 -3,-0.03705 1.769032,-0.460988 z m 7.994718,-0.02459 2.763749,-0.417917 2.236251,0.431567 2.23625,0.431567 -5,-0.01365 -5,-0.01365 z M 59.623539,18.461341 59,16.836425 59.063386,15.668213 59.126773,14.5 l 0.958096,2.395184 0.958097,2.395184 -0.397945,0.397944 -0.397944,0.397944 z"
       id="path470"
       inkscape:connector-curvature="0" />
    <path
       style="fill:#0372d1"
       d="M 34.961891,56.9253 32.883134,52.850599 33.191567,51.957266 33.5,51.063933 36.141436,56.031966 38.782872,61 H 37.91176 37.040648 Z M 46.157895,57 v -2.5 l 0.504386,1.25 0.504386,1.25 -0.504386,1.25 -0.504386,1.25 z m -22.528732,-7.79101 -0.488871,-0.79101 3.679854,0.363485 3.679854,0.363486 1,0.348577 1,0.348577 -4.190983,0.07895 L 24.118034,50 Z m 9.32667,-0.762208 -1.289057,-1.553218 -0.668327,-4.403786 -0.668328,-4.403786 0.83494,0.516021 L 32,39.118034 v 3.249853 3.249854 l 1.25,1.635161 1.25,1.635161 3.5,0.395931 3.5,0.395932 -3.627555,0.160037 L 34.244889,50 Z M 64,49 v -1 l 0.75,0.01531 0.75,0.01531 L 67,49 68.5,49.969374 66.25,49.984687 64,50 Z M 61.078947,45.416667 61.157895,43.5 61.683114,44.8125 62.208333,46.125 61.604167,46.729167 61,47.333333 Z M 46,38.7 v -1.3 l 1.2,-1.2 1.2,-1.2 2.05,0.09968 2.05,0.09968 -2.5,0.719584 -2.5,0.719584 0.138889,1.680736 L 47.777778,40 H 46.888889 46 Z m -23.73625,-3.417581 2.763749,-0.417917 2.236251,0.431567 2.23625,0.431567 -5,-0.01365 -5,-0.01365 z m 17,0 2.763749,-0.417917 2.236251,0.431567 2.23625,0.431567 -5,-0.01365 -5,-0.01365 z M 46,32.440983 v -1.559017 l 1.016312,0.628115 1.016312,0.628116 -0.575329,0.930901 L 46.881966,34 H 46.440983 46 Z"
       id="path468"
       inkscape:connector-curvature="0" />
  </g>
</svg>
