<?xml version="1.0" encoding="UTF-8" standalone="no"?>
<!-- Created with Inkscape (http://www.inkscape.org/) -->

<svg
   xmlns:dc="http://purl.org/dc/elements/1.1/"
   xmlns:cc="http://creativecommons.org/ns#"
   xmlns:rdf="http://www.w3.org/1999/02/22-rdf-syntax-ns#"
   xmlns:svg="http://www.w3.org/2000/svg"
   xmlns="http://www.w3.org/2000/svg"
   xmlns:sodipodi="http://sodipodi.sourceforge.net/DTD/sodipodi-0.dtd"
   xmlns:inkscape="http://www.inkscape.org/namespaces/inkscape"
   version="1.1"
   id="svg2"
   width="96"
   height="96"
   viewBox="0 0 96 96"
   sodipodi:docname="window.svg"
   inkscape:version="0.92.2 5c3e80d, 2017-08-06">
  <metadata
     id="metadata8">
    <rdf:RDF>
      <cc:Work
         rdf:about="">
        <dc:format>image/svg+xml</dc:format>
        <dc:type
           rdf:resource="http://purl.org/dc/dcmitype/StillImage" />
        <dc:title></dc:title>
      </cc:Work>
    </rdf:RDF>
  </metadata>
  <defs
     id="defs6" />
  <sodipodi:namedview
     pagecolor="#ffffff"
     bordercolor="#666666"
     borderopacity="1"
     objecttolerance="10"
     gridtolerance="10"
     guidetolerance="10"
     inkscape:pageopacity="0"
     inkscape:pageshadow="2"
     inkscape:window-width="1918"
     inkscape:window-height="1027"
     id="namedview4"
     showgrid="false"
     inkscape:pagecheckerboard="true"
     inkscape:zoom="2.4583333"
     inkscape:cx="48"
     inkscape:cy="48"
     inkscape:window-x="0"
     inkscape:window-y="0"
     inkscape:window-maximized="1"
     inkscape:current-layer="svg2" />
  <path
     style="fill:#ffffff;fill-opacity:1;stroke-width:0.40677965"
     d="m 8.9491525,89.706537 c 0,-0.563178 -1.034886,-1.598062 -1.5980629,-1.598062 -0.2397094,0 -0.4358354,-0.274577 -0.4358354,-0.61017 0,-0.335593 -0.1830508,-0.610169 -0.4067796,-0.610169 -0.2683168,0 -0.4067797,-13.084748 -0.4067797,-38.440678 0,-25.355932 0.1384629,-38.440678 0.4067797,-38.440678 0.2237288,0 0.4067796,-0.4576275 0.4067796,-1.0169495 0,-0.6327684 0.2305085,-1.0169491 0.6101695,-1.0169491 0.3355932,0 0.6101695,-0.1830509 0.6101695,-0.4067797 0,-0.2237288 0.4576271,-0.4067797 1.0169492,-0.4067797 0.6327685,0 1.0169496,-0.2305085 1.0169496,-0.6101695 0,-0.5379988 4.474576,-0.6101694 37.830508,-0.6101694 33.355932,0 37.830508,0.072171 37.830508,0.6101694 0,0.379661 0.384179,0.6101695 1.01695,0.6101695 0.559322,0 1.016949,0.1830509 1.016949,0.4067797 0,0.2237288 0.274576,0.4067797 0.610169,0.4067797 0.37966,0 0.61017,0.3841807 0.61017,1.0169491 0,0.559322 0.183051,1.0169495 0.406779,1.0169495 0.268316,0 0.40678,13.084746 0.40678,38.440678 0,25.35593 -0.138464,38.440678 -0.40678,38.440678 -0.223728,0 -0.406779,0.274576 -0.406779,0.610169 0,0.335593 -0.196125,0.61017 -0.435836,0.61017 -0.563178,0 -1.598063,1.034884 -1.598063,1.598062 0,0.306903 -11.552542,0.435836 -39.050847,0.435836 -27.498305,0 -39.0508475,-0.128933 -39.0508475,-0.435836 z"
     id="path12"
     inkscape:connector-curvature="0" />
  <g
     id="g58">
    <path
       style="fill:#f3f3f3"
       d="M 5.0769231,91.923077 2,88.846154 V 49.938853 11.031553 L 4.917971,7.7657765 7.8359419,4.5 H 48 88.164058 L 91.082029,7.7657765 94,11.031553 v 38.9073 38.907301 L 90.923077,91.923077 87.846154,95 H 48 8.1538462 Z M 84,55 V 28 H 48 12 v 27 27 h 36 36 z"
       id="path100"
       inkscape:connector-curvature="0" />
    <path
       style="fill:#ececec"
       d="M 9.3742735,94.33254 7.248547,93.893469 4.8742735,91.367659 2.5,88.84185 2.1415235,74.670925 1.7830469,60.5 2.5037336,35.274154 3.2244202,10.048307 5.7485737,7.5241535 8.2727273,5 H 47.949272 87.625818 l 2.761129,2.8819985 2.76113,2.8819985 0.175962,39.087451 L 93.5,88.938899 90.728395,91.71945 87.95679,94.5 49.728395,94.635806 11.5,94.771611 Z M 84,55 V 28 H 48 12 v 27 27 h 36 36 z"
       id="path98"
       inkscape:connector-curvature="0" />
    <path
       style="fill:#e1e1e1"
       d="M 5.6363636,91.363636 3,88.727273 V 51.331518 13.935763 L 4.3924315,10.603205 5.784863,7.2706475 9.0416548,6.1353237 12.298447,5 h 35.882895 35.882895 l 3.332558,1.3924315 3.332558,1.3924315 1.135323,3.256792 L 93,14.298447 V 51.51286 88.727273 L 90.363636,91.363636 87.727273,94 H 48 8.2727273 Z M 84,55 V 28 H 48 12 v 27 27 h 36 36 z"
       id="path96"
       inkscape:connector-curvature="0" />
    <path
       style="fill:#d5d5d5"
       d="M 8.3843453,92.56562 5.2686907,91.209524 4.2343903,88.242528 3.20009,85.275532 3.7519323,48.1199 4.3037745,10.964267 6.6041384,8.4821336 8.9045022,6 H 48 87.095498 l 2.300364,2.4821336 2.300363,2.4821334 0.551843,37.155633 0.551842,37.155632 -1.035279,2.969803 -1.035278,2.969802 -3.332558,1.392432 L 84.064237,94 47.782119,93.960858 11.5,93.921716 Z M 84,55 V 28 H 48 12 v 27 27 h 36 36 z"
       id="path94"
       inkscape:connector-curvature="0" />
    <path
       style="fill:#cfcfcf"
       d="M 6.4545455,90.545455 4,88.090909 V 51.110554 14.130199 L 4.9162506,11.720278 5.8325012,9.310356 7.4876792,7.655178 9.1428571,6 H 48 86.857143 l 1.655178,1.655178 1.655178,1.655178 0.91625,2.409922 L 92,14.130199 V 51.110554 88.090909 L 89.545455,90.545455 87.090909,93 H 48 8.9090909 Z M 84,55 V 28 H 48 12 V 55 82 H 48 84 Z M 6.7297981,23.272304 6.3362062,19.5 l -0.00807,7 -0.00807,7 0.4016579,-3.227696 0.4016579,-3.227695 -0.3935918,-3.772305 z m 82.9999999,0 L 89.336206,19.5 l -0.0081,7 -0.0081,7 0.401658,-3.227696 0.401658,-3.227695 -0.393592,-3.772305 z"
       id="path92"
       inkscape:connector-curvature="0" />
    <path
       style="fill:#c8c8c8"
       d="M 6.4545455,90.545455 4,88.090909 V 51.110554 14.130199 L 4.9162506,11.720278 5.8325012,9.310356 7.4876792,7.655178 9.1428571,6 H 48 86.857143 l 1.655178,1.655178 1.655178,1.655178 0.91625,2.409922 L 92,14.130199 V 51.110554 88.090909 L 89.545455,90.545455 87.090909,93 H 48 8.9090909 Z M 81,89.194991 V 88.389982 L 48.583319,88.444991 16.166639,88.5 15.416653,89.25 14.666667,90 H 47.833333 81 Z M 84,55 V 28 H 48 12 V 55 82 H 48 84 Z M 8.7156716,22.852765 10.383917,21.5 9.6329414,22.75 8.881966,24 H 9.940983 11 l 0.07895,-1.25 0.07895,-1.25 0.504386,1.25 0.504386,1.25 h 0.975683 0.975684 l -0.515028,-0.833333 -0.515029,-0.833334 h 1.412023 1.412023 L 15.396999,23.166667 14.881966,24 H 15.940983 17 l 0.07895,-1.25 0.07895,-1.25 0.504386,1.25 0.504386,1.25 h 0.975683 0.975684 l -0.515028,-0.833333 -0.515029,-0.833334 h 1.412023 1.412023 L 21.396999,23.166667 20.881966,24 H 21.940983 23 l 0.07895,-1.25 0.07895,-1.25 0.504386,1.25 0.504386,1.25 h 0.975683 0.975684 l -0.515028,-0.833333 -0.515029,-0.833334 h 1.412023 1.412023 L 27.396999,23.166667 26.881966,24 H 27.940983 29 l 0.07895,-1.25 0.07895,-1.25 0.504386,1.25 0.504386,1.25 h 0.975683 0.975684 l -0.515028,-0.833333 -0.515029,-0.833334 h 1.412023 1.412023 L 33.396999,23.166667 32.881966,24 H 33.940983 35 l 0.07895,-1.25 0.07895,-1.25 0.504386,1.25 0.504386,1.25 h 0.975683 0.975684 l -0.515028,-0.833333 -0.515029,-0.833334 h 1.412023 1.412023 L 39.396999,23.166667 38.881966,24 H 39.940983 41 l 0.07895,-1.25 0.07895,-1.25 0.504386,1.25 0.504386,1.25 h 0.975683 0.975684 l -0.515028,-0.833333 -0.515029,-0.833334 h 1.412023 1.412023 L 45.396999,23.166667 44.881966,24 H 45.940983 47 l 0.07895,-1.25 0.07895,-1.25 0.504386,1.25 0.504386,1.25 h 0.975683 0.975684 l -0.515028,-0.833333 -0.515029,-0.833334 h 1.412023 1.412023 L 51.396999,23.166667 50.881966,24 H 51.940983 53 l 0.07895,-1.25 0.07895,-1.25 0.504386,1.25 0.504386,1.25 h 0.975683 0.975684 l -0.515028,-0.833333 -0.515029,-0.833334 h 1.412023 1.412023 L 57.396999,23.166667 56.881966,24 H 57.940983 59 l 0.07895,-1.25 0.07895,-1.25 0.504386,1.25 0.504386,1.25 h 0.975683 0.975684 l -0.515028,-0.833333 -0.515029,-0.833334 h 1.412023 1.412023 L 63.396999,23.166667 62.881966,24 H 63.940983 65 l 0.07895,-1.25 0.07895,-1.25 0.504386,1.25 0.504386,1.25 h 0.975683 0.975684 l -0.515028,-0.833333 -0.515029,-0.833334 h 1.412023 1.412023 L 69.396999,23.166667 68.881966,24 H 69.940983 71 l 0.07895,-1.25 0.07895,-1.25 0.504386,1.25 0.504386,1.25 h 0.975683 0.975684 l -0.515028,-0.833333 -0.515029,-0.833334 h 1.412023 1.412023 L 75.396999,23.166667 74.881966,24 H 75.940983 77 l 0.07895,-1.25 0.07895,-1.25 0.504386,1.25 0.504386,1.25 h 0.975683 0.975684 l -0.515028,-0.833333 -0.515029,-0.833334 h 1.412023 1.412023 L 81.396999,23.166667 80.881966,24 H 81.940983 83 l 0.07895,-1.25 0.07895,-1.25 0.504386,1.25 0.504386,1.25 h 0.975683 0.975684 l -0.515028,-0.833333 -0.515029,-0.833334 h 1.412023 1.412023 L 87.396999,23.166667 86.881966,24 h 1.034838 1.034838 L 89.251697,40.75 89.551751,57.5 89.775876,38.75 90,20 H 48 6 L 6.2241244,38.75 6.4482487,57.5 6.7478375,40.852765 7.0474263,24.205529 Z M 45,13.5 V 13 H 44.5 44 v 0.5 0.5 h 0.5 0.5 z m -2,-1 V 12 H 42.5 42 v 0.5 0.5 h 0.5 0.5 z"
       id="path90"
       inkscape:connector-curvature="0" />
    <path
       style="fill:#b5b5b5"
       d="M 8.3211782,91.811266 6.1423565,90.757893 4.9129948,87.789951 3.6836331,84.822009 4.3600903,48.161005 5.0365475,11.5 6.8761943,9 8.7158411,6.5 H 48 87.284159 l 1.839647,2.5 1.839646,2.5 0.676458,36.661005 0.676457,36.661004 -1.225772,2.959276 -1.225773,2.959276 L 87.385358,91.87028 84.905894,93 47.702947,92.93232 10.5,92.864639 Z M 87.715323,87.715515 89.5,85.931029 89.78882,52.965515 90.077641,20 H 48.03882 6 V 51.4349 82.869801 L 6.9854551,85.461744 7.9709102,88.053687 10.235455,88.98179 12.5,89.909892 49.215323,89.704946 85.930645,89.5 Z M 11,55 V 27 H 48 85 V 55 83 H 48 11 Z m 73,0 V 28 H 48 12 V 55 82 H 48 84 Z M 45,13.5 V 13 H 44.5 44 v 0.5 0.5 h 0.5 0.5 z m -2,-1 V 12 H 42.5 42 v 0.5 0.5 h 0.5 0.5 z"
       id="path88"
       inkscape:connector-curvature="0" />
    <path
       style="fill:#a9a9a9"
       d="M 10.354429,92.330424 8.2088588,91.888268 6.5599868,90.066285 4.9111148,88.244302 5.2055574,49.225911 5.5,10.207521 7.4049876,8.1037604 9.3099751,6 H 48 86.690025 L 88.595012,8.1037816 90.5,10.207563 90.792877,49.409991 91.085753,88.612419 88.939183,90.55621 86.792612,92.5 49.646306,92.63629 12.5,92.772581 Z M 87.545455,87.545455 90,85.090909 V 52.545455 20 H 48 6 V 52.545455 85.090909 L 8.4545455,87.545455 10.909091,90 H 48 85.090909 Z M 11,55 V 27 H 48 85 V 55 83 H 48 11 Z m 73,0 V 28 H 48 12 V 55 82 H 48 84 Z M 38,14.5 V 14 H 37.5 37 V 14.5 15 H 37.5 38 Z M 42.683114,12.8125 42.157895,11.5 42.078947,13.416667 42,15.333333 42.604167,14.729167 43.208333,14.125 Z M 67,14.559017 V 14.118034 L 65.845492,13.404508 64.690983,12.690983 65.404508,13.845492 66.118034,15 H 66.559017 67 Z m -31,-1 V 13.118034 L 34.845492,12.404508 33.690983,11.690983 34.404508,12.845492 35.118034,14 H 35.559017 36 Z M 45,13.5 V 13 H 44.5 44 v 0.5 0.5 h 0.5 0.5 z m 3,0 V 13 H 47.5 47 v 0.5 0.5 h 0.5 0.5 z m 15,0 V 13 H 62.5 62 v 0.5 0.5 h 0.5 0.5 z m -3,-1 V 12 H 59.5 59 V 12.5 13 H 59.5 60 Z M 21.2,10.8 20,9.6 18.8,10.8 17.6,12 h 2.4 2.4 z m 6,0 L 26,9.6 24.8,10.8 23.6,12 h 2.4 2.4 z"
       id="path86"
       inkscape:connector-curvature="0" />
    <path
       style="fill:#989898"
       d="M 6.9031845,89.903184 4.806369,87.806369 5.1531845,49.007607 5.5,10.208845 7.4049876,8.1044223 9.3099751,6 H 48 86.690025 L 88.595012,8.1044223 90.5,10.208845 90.846816,49.007607 91.193631,87.806369 89.096816,89.903184 87,92 H 48 9 Z M 87.545455,87.545455 90,85.090909 V 52.545455 20 H 48 6 V 52.545455 85.090909 L 8.4545455,87.545455 10.909091,90 H 48 85.090909 Z M 11.22761,47.25 11,27 H 48 85 L 84.77239,47.25 84.54478,67.5 84.25125,47.75 83.95772,28 H 48 12.04228 L 11.74875,47.75 11.45522,67.5 Z M 38.29011,13.99862 38.813482,11.99724 37.906741,12.557637 37,13.118034 V 14.559017 16 h 0.383369 0.383368 z M 35.728279,13.042906 35.580855,11.085811 35.094817,11.57185 34.608778,12.057889 34.392873,13.528944 34.176968,15 h 0.849367 0.849367 z M 40.666667,13.333333 40,12.666667 V 14 15.333333 L 40.666667,14.666667 41.333333,14 Z M 42.683114,12.8125 42.157895,11.5 42.078947,13.416667 42,15.333333 42.604167,14.729167 43.208333,14.125 Z M 48.361626,13.5 48.93723,12 H 47.968615 47 v 1.5 1.5 h 0.393011 0.393011 z m 12,0 L 60.93723,12 H 59.968615 59 v 1.5 1.5 h 0.393011 0.393011 z m 3.305041,0.04399 V 12.087978 L 62.833333,12.603007 62,13.118034 V 14.059017 15 h 0.833333 0.833334 v -1.456011 z m 4.266696,0.0363 1.178252,-1.419707 -1.805808,0.343196 L 65.5,12.846977 65.190983,12.923489 64.881966,13 65.5,14 l 0.618034,1 h 0.318538 0.318539 l 1.178252,-1.419707 z M 66,13.5 V 13 H 66.5 67 V 13.5 14 H 66.5 66 Z M 45.5,13 46.118034,12 h -0.5 -0.5 L 44.5,13 43.881966,14 h 0.5 0.5 z M 54,13.5 V 13 H 53.5 53 v 0.5 0.5 h 0.5 0.5 z m 18,0 V 13 H 71.5 71 V 13.5 14 H 71.5 72 Z M 21.75,11.75 21.333333,10.5 H 20 18.666667 L 18.25,11.75 17.833333,13 H 20 22.166667 Z m 6,0 -0.416667,-1.25 H 26 24.666667 L 24.25,11.75 23.833333,13 H 26 28.166667 Z M 51,12.5 V 12 H 50.5 50 v 0.5 0.5 h 0.5 0.5 z m 6,0 V 12 H 56.5 56 v 0.5 0.5 h 0.5 0.5 z"
       id="path84"
       inkscape:connector-curvature="0" />
    <path
       style="fill:#878787"
       d="M 7.4545455,89.545455 5,87.090909 5.2093101,66.795455 5.4186202,46.5 5.9593101,66.832656 6.5,87.165312 8.4411296,88.582656 10.382259,90 H 48 85.617741 L 87.55887,88.582656 89.5,87.165312 90.04069,66.832656 90.58138,46.5 90.79069,66.795455 91,87.090909 88.545455,89.545455 86.090909,92 H 48 9.9090909 Z M 11.19268,33.75 11,27 H 48 85 L 84.80732,33.75 84.614641,40.5 84.259603,34.25 83.904565,28 H 48 12.095435 l -0.355038,6.25 -0.355038,6.25 z M 6,15 V 10 L 8,8 10,6 h 38 38 l 2,2 2,2 v 5 5 H 48 6 Z M 38.984687,12.690983 39,11.881966 38,12.5 37,13.118034 37.015313,14.809017 37.030626,16.5 38,15 l 0.969374,-1.5 0.01531,-0.809017 z M 35.725047,13 35.574391,11 h -0.725046 -0.725047 l 0.150655,2 0.150656,2 h 0.725046 0.725047 z M 40.683114,12.8125 40.157895,11.5 40.078947,13.416667 40,15.333333 40.604167,14.729167 41.208333,14.125 Z m 2,0 L 42.157895,11.5 42.078947,13.416667 42,15.333333 42.604167,14.729167 43.208333,14.125 Z M 45.666667,13.5 V 12 H 44.833333 44 v 1.5 1.5 h 0.833333 0.833334 z m 4.31802,0.5 0.984687,1.5 0.01531,-1.75 L 51,12 h -2 -2 l 0.01531,1.75 0.01531,1.75 L 48.015313,14 49,12.5 Z M 57.752778,13.758333 57.45,12.85 H 56.5 55.55 l -0.302778,0.908333 -0.302778,0.908334 H 56.5 58.055556 Z M 60.361626,13.5 60.93723,12 H 59.968615 59 v 1.5 1.5 h 0.393011 0.393011 z m 3.305041,0 V 12 H 62.833333 62 v 1.5 1.5 h 0.833333 0.833334 z M 69.678571,13.53571 69.333333,12.5 67.916667,12.435134 66.5,12.370268 l -0.766312,0.383964 -0.766312,0.383965 0.442893,0.716616 0.442893,0.716616 h 2.085324 2.085324 L 69.678571,13.535714 Z M 66,13.5 V 13 H 66.5 67 V 13.5 14 H 66.5 66 Z M 21.809629,12.25 21.47261,10.5 H 20 18.52739 L 18.190371,12.25 17.853352,14 H 20 22.146648 Z m 6,0 L 27.47261,10.5 H 26 24.52739 L 24.190371,12.25 23.853352,14 H 26 28.146648 Z M 53.666667,12.333333 53,11.666667 V 13 14.333333 L 53.666667,13.666667 54.333333,13 Z m 18,0 L 71,11.666667 V 13 14.333333 L 71.666667,13.666667 72.333333,13 Z"
       id="path82"
       inkscape:connector-curvature="0" />
    <path
       style="fill:#dd4e41"
       d="M 9.008858,90.710141 6.517716,89.449766 6.1680448,87.63407 5.8183736,85.818374 7.9091868,87.909187 10,90 h 38 38 l 2.090813,-2.090813 2.090813,-2.090813 -0.349671,1.815696 -0.349671,1.815696 -2.491142,1.260375 L 84.5,91.970516 H 48 11.5 Z M 5.2860141,80.5 l 0.01365,-5 0.417917,2.76375 0.4179171,2.763749 L 5.7039312,83.26375 5.2723641,85.5 Z m 84.9999999,0 0.01365,-5 0.417917,2.76375 0.417917,2.763749 L 90.703931,83.26375 90.272364,85.5 Z M 6,15 V 10 L 8,8 10,6 h 38 38 l 2,2 2,2 v 5 5 H 48 6 Z M 40.10152,14.130023 40.969374,15.5 40.984687,13.633369 41,11.766737 39.000996,12.289489 37.001992,12.81224 36.441979,11.90612 35.881966,11 h -0.878834 -0.878834 l 0.150655,2 0.150656,2 h 0.894184 0.894185 L 35.618443,13.448062 35.022909,11.896124 36.011454,12.507079 37,13.118034 37.03041,14.809017 37.06082,16.5 l 1.086425,-1.869977 1.086424,-1.869978 0.867854,1.369978 z M 42.683114,12.8125 42.157895,11.5 42.078947,13.416667 42,15.333333 42.604167,14.729167 43.208333,14.125 Z M 46,13.5 V 12 h -1 -1 v 1.5 1.5 h 1 1 z M 48.984687,13.75 49,15 h 1 1 V 13.5 12 h -2 -2 l 0.01531,1.75 0.01531,1.75 L 48,14 l 0.969374,-1.5 0.01531,1.25 z M 58,13.406892 V 12.25 H 55.5 53 v 1.363798 1.363799 L 55.5,14.770691 58,14.563784 Z M 60.361626,13.5 60.93723,12 H 59.968615 59 v 1.5 1.5 h 0.393011 0.393011 z m 11.415215,-0.330523 0.414425,-1.243275 -2.439557,0.442376 -2.439557,0.442377 L 65.99676,11.997997 64.681368,11.18504 63.340684,11.699509 62,12.213978 v 1.404757 1.404757 l 4.681208,-0.305371 4.681208,-0.30537 z M 63,13.5 V 13 H 63.5 64 V 13.5 14 H 63.5 63 Z m 3,0 V 13 H 66.5 67 V 13.5 14 H 66.5 66 Z M 21.809629,12.25 21.47261,10.5 H 20 18.52739 L 18.190371,12.25 17.853352,14 H 20 22.146648 Z m 6,0 L 27.47261,10.5 H 26 24.52739 L 24.190371,12.25 23.853352,14 H 26 28.146648 Z"
       id="path80"
       inkscape:connector-curvature="0" />
    <path
       style="fill:#757575"
       d="M 9.008858,90.710141 6.517716,89.449766 6.1680448,87.63407 5.8183736,85.818374 7.9091868,87.909187 10,90 h 38 38 l 2.090813,-2.090813 2.090813,-2.090813 -0.349671,1.815696 -0.349671,1.815696 -2.491142,1.260375 L 84.5,91.970516 H 48 11.5 Z M 5.2860141,80.5 l 0.01365,-5 0.417917,2.76375 0.4179171,2.763749 L 5.7039312,83.26375 5.2723641,85.5 Z m 84.9999999,0 0.01365,-5 0.417917,2.76375 0.417917,2.763749 L 90.703931,83.26375 90.272364,85.5 Z M 6,15 V 10 L 8,8 10,6 h 38 38 l 2,2 2,2 v 5 5 H 48 6 Z M 40.10152,14.130023 40.969374,15.5 40.984687,13.633369 41,11.766737 39.000996,12.289489 37.001992,12.81224 36.441979,11.90612 35.881966,11 h -0.878834 -0.878834 l 0.150655,2 0.150656,2 h 0.894184 0.894185 L 35.618443,13.448062 35.022909,11.896124 36.011454,12.507079 37,13.118034 37.03041,14.809017 37.06082,16.5 l 1.086425,-1.869977 1.086424,-1.869978 0.867854,1.369978 z M 42.683114,12.8125 42.157895,11.5 42.078947,13.416667 42,15.333333 42.604167,14.729167 43.208333,14.125 Z M 46,13.5 V 12 h -1 -1 v 1.5 1.5 h 1 1 z M 48.984687,13.75 49,15 h 1 1 V 13.5 12 h -2 -2 l 0.01531,1.75 0.01531,1.75 L 48,14 l 0.969374,-1.5 0.01531,1.25 z M 58,13.406892 V 12.25 H 55.5 53 v 1.363798 1.363799 L 55.5,14.770691 58,14.563784 Z M 60.361626,13.5 60.93723,12 H 59.968615 59 v 1.5 1.5 h 0.393011 0.393011 z m 11.415215,-0.330523 0.414425,-1.243275 -2.439557,0.442376 -2.439557,0.442377 L 65.99676,11.997997 64.681368,11.18504 63.340684,11.699509 62,12.213978 v 1.404757 1.404757 l 4.681208,-0.305371 4.681208,-0.30537 z M 63,13.5 V 13 H 63.5 64 V 13.5 14 H 63.5 63 Z m 3,0 V 13 H 66.5 67 V 13.5 14 H 66.5 66 Z M 21.809629,12.25 21.47261,10.5 H 20 18.52739 L 18.190371,12.25 17.853352,14 H 20 22.146648 Z m 6,0 L 27.47261,10.5 H 26 24.52739 L 24.190371,12.25 23.853352,14 H 26 28.146648 Z M 15.2,10.8 14,9.6 12.8,10.8 11.6,12 h 2.4 2.4 z"
       id="path78"
       inkscape:connector-curvature="0" />
    <path
       style="fill:#814e49"
       d="M 7.4049876,88.75 5.5,86.5 7.5787407,88.25 9.6574813,90 H 48 86.342519 L 88.421259,88.25 90.5,86.5 88.595012,88.75 86.690025,91 H 48 9.3099751 Z M 6.0153128,15.25 6.0306255,10.5 6.7653128,9.399704 7.5,8.299408 9.6842585,7.149704 11.868517,6 H 48 84.131483 L 86.315741,7.149704 88.5,8.299408 89.234687,9.399704 89.969374,10.5 89.984687,15.25 90,20 H 48 6 Z M 39.51514,13.75 38.881966,15 H 39.940983 41 l 0.01531,-1.25 0.01531,-1.25 0.846971,1.336189 0.846972,1.336189 2.387716,-0.336189 L 47.5,14.5 l 0.734687,-1 0.734687,-1 0.01531,1.25 L 49,15 h 1 1 v -1.469549 -1.469548 l -3.25,0.0165 -3.25,0.0165 -5.172516,-0.343372 -5.172516,-0.343372 0.13532,1.796421 L 34.425609,15 h 0.894184 0.894185 L 35.618443,13.448062 35.022909,11.896124 36.011454,12.507079 37,13.118034 v 1.632113 1.632112 L 38.574157,14.44113 40.148315,12.5 Z M 43,13.5 V 13 H 43.5 44 V 13.5 14 H 43.5 43 Z M 21.819551,12.171672 22.139102,10 H 20.069551 18 v 1.833333 1.833334 l 0.6875,0.6875 0.6875,0.6875 1.0625,-0.349162 1.0625,-0.349161 z m 6,0 L 28.139102,10 H 26.069551 24 v 1.833333 1.833334 l 0.6875,0.6875 0.6875,0.6875 1.0625,-0.349162 L 27.5,14.343344 Z M 58,13.138672 V 11.277344 L 55.5,11.755249 53,12.233154 V 13.616577 15 h 2.5 2.5 z m 14,0.466363 V 12.210071 L 67.75,11.754556 63.5,11.29904 62.628145,12.071375 61.75629,12.84371 60.378145,12.314866 59,11.786022 V 13.393011 15 H 65.5 72 Z M 63,13.5 V 13 H 63.5 64 V 13.5 14 H 63.5 63 Z m 3,0 V 13 H 66.5 67 V 13.5 14 H 66.5 66 Z M 15.2,10.8 14,9.6 12.8,10.8 11.6,12 h 2.4 2.4 z"
       id="path76"
       inkscape:connector-curvature="0" />
    <path
       style="fill:#ce201a"
       d="M 7.4049876,88.75 5.5,86.5 7.5787407,88.25 9.6574813,90 H 48 86.342519 L 88.421259,88.25 90.5,86.5 88.595012,88.75 86.690025,91 H 48 9.3099751 Z M 6.0153128,15.25 6.0306255,10.5 6.7653128,9.399704 7.5,8.299408 9.6842585,7.149704 11.868517,6 H 48 84.131483 L 86.315741,7.149704 88.5,8.299408 89.234687,9.399704 89.969374,10.5 89.984687,15.25 90,20 H 48 6 Z M 39.51514,13.75 38.881966,15 H 39.940983 41 l 0.01531,-1.25 0.01531,-1.25 0.846971,1.336189 0.846972,1.336189 2.387716,-0.336189 L 47.5,14.5 l 0.734687,-1 0.734687,-1 0.01531,1.25 L 49,15 h 1 1 v -1.469549 -1.469548 l -3.25,0.0165 -3.25,0.0165 -5.172516,-0.343372 -5.172516,-0.343372 0.13532,1.796421 L 34.425609,15 h 0.894184 0.894185 L 35.618443,13.448062 35.022909,11.896124 36.011454,12.507079 37,13.118034 v 1.632113 1.632112 L 38.574157,14.44113 40.148315,12.5 Z M 43,13.5 V 13 H 43.5 44 V 13.5 14 H 43.5 43 Z M 21.819551,12.171672 22.139102,10 H 20.069551 18 v 1.833333 1.833334 l 0.6875,0.6875 0.6875,0.6875 1.0625,-0.349162 1.0625,-0.349161 z m 6,0 L 28.139102,10 H 26.069551 24 v 1.833333 1.833334 l 0.6875,0.6875 0.6875,0.6875 1.0625,-0.349162 L 27.5,14.343344 Z M 58,13.138672 V 11.277344 L 55.5,11.755249 53,12.233154 V 13.616577 15 h 2.5 2.5 z m 14,0.466363 V 12.210071 L 67.75,11.754556 63.5,11.29904 62.628145,12.071375 61.75629,12.84371 60.378145,12.314866 59,11.786022 V 13.393011 15 H 65.5 72 Z M 63,13.5 V 13 H 63.5 64 V 13.5 14 H 63.5 63 Z m 3,0 V 13 H 66.5 67 V 13.5 14 H 66.5 66 Z M 16,11 v -1 h -2 -2 v 1 1 h 2 2 z"
       id="path74"
       inkscape:connector-curvature="0" />
    <path
       style="fill:#555555"
       d="M 7.4049876,88.75 5.5,86.5 7.5787407,88.25 9.6574813,90 H 48 86.342519 L 88.421259,88.25 90.5,86.5 88.595012,88.75 86.690025,91 H 48 9.3099751 Z M 6.0153128,15.25 6.0306255,10.5 6.7653128,9.399704 7.5,8.299408 9.6842585,7.149704 11.868517,6 H 48 84.131483 L 86.315741,7.149704 88.5,8.299408 89.234687,9.399704 89.969374,10.5 89.984687,15.25 90,20 H 48 6 Z M 39.51514,13.75 38.881966,15 H 39.940983 41 l 0.01531,-1.25 0.01531,-1.25 0.846971,1.336189 0.846972,1.336189 2.387716,-0.336189 L 47.5,14.5 l 0.734687,-1 0.734687,-1 0.01531,1.25 L 49,15 h 1 1 v -1.469549 -1.469548 l -3.25,0.0165 -3.25,0.0165 -5.172516,-0.343372 -5.172516,-0.343372 0.13532,1.796421 L 34.425609,15 h 0.894184 0.894185 L 35.618443,13.448062 35.022909,11.896124 36.011454,12.507079 37,13.118034 v 1.632113 1.632112 L 38.574157,14.44113 40.148315,12.5 Z M 43,13.5 V 13 H 43.5 44 V 13.5 14 H 43.5 43 Z M 15.819551,12.171672 16.139102,10 H 14.069551 12 v 1.833333 1.833334 l 0.6875,0.6875 0.6875,0.6875 1.0625,-0.349162 1.0625,-0.349161 z m 6,0 L 22.139102,10 H 20.069551 18 v 1.833333 1.833334 l 0.6875,0.6875 0.6875,0.6875 1.0625,-0.349162 1.0625,-0.349161 z m 6,0 L 28.139102,10 H 26.069551 24 v 1.833333 1.833334 l 0.6875,0.6875 0.6875,0.6875 1.0625,-0.349162 L 27.5,14.343344 Z M 58,13.138672 V 11.277344 L 55.5,11.755249 53,12.233154 V 13.616577 15 h 2.5 2.5 z m 14,0.466363 V 12.210071 L 67.75,11.754556 63.5,11.29904 62.628145,12.071375 61.75629,12.84371 60.378145,12.314866 59,11.786022 V 13.393011 15 H 65.5 72 Z M 63,13.5 V 13 H 63.5 64 V 13.5 14 H 63.5 63 Z m 3,0 V 13 H 66.5 67 V 13.5 14 H 66.5 66 Z"
       id="path72"
       inkscape:connector-curvature="0" />
    <path
       style="fill:#454545"
       d="M 29.25,90.251377 48,89.955869 66.75,90.251377 85.5,90.546884 H 48 10.5 Z M 6,16 V 12 L 7.9931183,10.006882 9.9862365,8.0137635 48.012452,8.071091 86.038667,8.1284185 85.467396,9.0527548 84.896124,9.9770912 86.37137,9.4109864 87.846616,8.8448815 88.923308,10.856699 90,12.868517 V 16.434259 20 H 48 6 Z M 50.917217,14.401763 52.334435,13.934435 51.417217,13.024611 50.5,12.114788 42.254471,11.767755 34.008941,11.420722 34.254471,12.960361 34.5,14.5 l 0.732949,0.548479 0.732949,0.548479 6.767051,-0.363934 L 49.5,14.86909 Z M 35.564293,13.293128 34.881509,11.5 l 1.242579,1.233333 1.242579,1.233334 -0.559795,0.559794 -0.559795,0.559795 z M 41,13.5 V 13 H 41.5 42 V 13.5 14 H 41.5 41 Z m 2,0 V 13 H 43.5 44 V 13.5 14 H 43.5 43 Z M 15.819551,12.171672 16.139102,10 H 14.069551 12 v 1.833333 1.833334 l 0.6875,0.6875 0.6875,0.6875 1.0625,-0.349162 1.0625,-0.349161 z m 5.938067,1.67071 1.157619,-1.157619 1.542381,1.280063 L 26,15.244889 27.440559,14.049332 28.881118,12.853774 28.33357,11.426887 27.786022,10 H 25.976345 24.166667 L 23.583333,11.25 23,12.5 22.416667,11.25 21.833333,10 H 20.023655 18.213978 L 17.685134,11.378145 17.15629,12.75629 18.278145,13.878145 19.4,15 H 20 20.6 Z M 72,13.5 V 12 l -3.75,-0.117048 -3.75,-0.117048 -4,0.04679 -4,0.04679 -1.75,0.07026 L 53,12 v 1.5 1.5 h 9.5 9.5 z m -6,0 V 13 H 66.5 67 V 13.5 14 H 66.5 66 Z M 84,10.785714 V 10 h -2 -2 v 0.785714 0.785715 h 2 2 z"
       id="path70"
       inkscape:connector-curvature="0" />
    <path
       style="fill:#3b3b3b"
       d="M 29.25,90.251377 48,89.955869 66.75,90.251377 85.5,90.546884 H 48 10.5 Z M 6.0136547,17.75 6.0273094,15.5 6.6043335,13.349243 7.1813576,11.198486 9.5405555,10.747496 11.899753,10.296507 12.199877,12.398254 12.5,14.5 H 14 15.5 L 15.819551,12.25 16.139102,10 h 1.037438 1.037438 l -0.547548,1.426887 -0.547548,1.426887 1.440559,1.195558 L 20,15.244889 21.5,14 23,12.755111 24.5,14 l 1.5,1.244889 1.440559,-1.195557 1.440559,-1.195558 -0.483506,-1.259998 -0.483507,-1.259997 3.126684,0.4589 3.126684,0.4589 -0.515983,1.973124 -0.515984,1.973124 1.933627,-0.505655 1.933627,-0.505654 -0.665425,1.07668 -0.665425,1.076679 1.745833,-0.669938 L 39.163575,15 h 6.501546 6.501546 L 51.755679,13.75 51.344692,12.5 46.922346,11.900194 42.5,11.300387 50,11.286376 57.5,11.272364 55.25,11.705733 53,12.139102 V 13.569551 15 H 62.5 72 V 13.5 12 L 68.25,11.819842 64.5,11.639684 72,11.069842 79.5,10.5 79.833333,11.25 80.166667,12 H 82.083333 84 v -0.861328 -0.861328 l 2.409321,0.460571 2.409321,0.460571 0.577025,2.150757 L 89.972691,15.5 89.986345,17.75 90,20 H 48 6 Z M 43,13.5 V 13 H 43.5 44 V 13.5 14 H 43.5 43 Z m 23,0 V 13 H 66.5 67 V 13.5 14 H 66.5 66 Z m -30.120916,-1.779084 0.877271,-0.877271 2.871823,0.358178 2.871822,0.358179 -3.749093,0.519092 -3.749094,0.519093 z M 22,11 v -1 h 1 1 v 1 1 h -1 -1 z m 37.75,0.337719 1.25,-0.504386 1.25,0.504386 1.25,0.504386 H 61 58.5 Z"
       id="path68"
       inkscape:connector-curvature="0" />
    <path
       style="fill:#323232"
       d="M 7,17.5 V 15 h 2 2 l 0.06339,-2.25 0.06339,-2.25 0.904389,2.25 0.90439,2.25 h 1.125843 1.125844 l 0.51644,-1.974867 0.516439,-1.974867 1.775325,2.192434 1.775326,2.192434 1.614615,-1.340012 L 23,12.755111 24.5,14 26,15.244889 27.5,14 29,12.755111 V 13.877555 15 h 3.5 3.5 v 1.2 1.2 L 37.2,16.2 38.4,15 H 58.7 79 l 0.116001,-2.25 0.116002,-2.25 0.457323,1.75 0.457322,1.75 H 82 83.853352 l 0.457322,-1.75 0.457323,-1.75 0.116002,2.25 L 85,15 h 2 2 V 17.5 20 H 48 7 Z m 28,-5 V 12 H 35.5 36 V 12.5 13 H 35.5 35 Z"
       id="path66"
       inkscape:connector-curvature="0" />
    <path
       style="fill:#53201f"
       d="M 37,16.5 V 16 H 37.5 38 V 16.5 17 H 37.5 37 Z M 11.552235,15.218901 11,14.666667 V 13.142204 11.617741 L 12.5,13.55887 14,15.5 15.472482,13.596503 16.944965,11.693006 17.579471,13.346503 18.213978,15 h 1.809677 1.809678 L 22.416667,13.75 23,12.5 23.583333,13.75 24.166667,15 H 26 27.833333 L 28.341667,13.975 28.85,12.95 28.592241,14.225 28.334482,15.5 20.219476,15.635568 12.10447,15.771136 Z M 34.333333,15.333333 35,14.666667 35.666667,15.333333 36.333333,16 H 35 33.666667 Z m 5,0 L 40,14.666667 40.666667,15.333333 41.333333,16 H 40 38.666667 Z m 3.416667,0.0044 1.25,-0.504386 1.25,0.504386 1.25,0.504386 H 44 41.5 Z m 5,0 1.25,-0.504386 1.25,0.504386 1.25,0.504386 H 49 46.5 Z m 6.519032,-0.03071 1.769032,-0.460988 1.230968,0.498042 1.230968,0.498042 -3,-0.03705 -3,-0.03705 1.769032,-0.460988 z M 60.75,15.294267 63,14.860898 l 2.25,0.433369 2.25,0.433369 H 63 58.5 Z m 8,0.04345 1.25,-0.504386 1.25,0.504386 1.25,0.504386 H 70 67.5 Z m 10.958849,0.0378 L 79,14.666667 V 14.083333 13.5 h 3 3 l -0.328328,1 -0.328328,1 -1.962823,0.292183 -1.962823,0.292182 -0.708849,-0.708849 z"
       id="path64"
       inkscape:connector-curvature="0" />
    <path
       style="fill:#262626"
       d="M 37,16.5 V 16 H 37.5 38 V 16.5 17 H 37.5 37 Z M 11.388583,14.819724 10.799729,13.866938 11.399864,13.266802 12,12.666667 V 13.833333 15 h 1.916667 1.916666 L 16.416667,13.75 17,12.5 17.583333,13.75 18.166667,15 H 20 21.833333 L 22.416667,13.75 23,12.5 23.583333,13.75 24.166667,15 H 26 27.833333 L 28.341667,13.975 28.85,12.95 28.592241,14.225 28.334482,15.5 20.15596,15.636255 11.977437,15.77251 Z M 34.333333,15.333333 35,14.666667 35.666667,15.333333 36.333333,16 H 35 33.666667 Z m 5,0 L 40,14.666667 40.666667,15.333333 41.333333,16 H 40 38.666667 Z m 3.416667,0.0044 1.25,-0.504386 1.25,0.504386 1.25,0.504386 H 44 41.5 Z m 5,0 1.25,-0.504386 1.25,0.504386 1.25,0.504386 H 49 46.5 Z m 6.519032,-0.03071 1.769032,-0.460988 1.230968,0.498042 1.230968,0.498042 -3,-0.03705 -3,-0.03705 1.769032,-0.460988 z M 60.75,15.294267 63,14.860898 l 2.25,0.433369 2.25,0.433369 H 63 58.5 Z m 8,0.04345 1.25,-0.504386 1.25,0.504386 1.25,0.504386 H 70 67.5 Z m 10.958849,0.0378 L 79,14.666667 V 14.083333 13.5 h 3 3 l -0.328328,1 -0.328328,1 -1.962823,0.292183 -1.962823,0.292182 -0.708849,-0.708849 z"
       id="path62"
       inkscape:connector-curvature="0" />
    <path
       style="fill:#191717"
       d="M 13.333333,15.333333 14,14.666667 14.666667,15.333333 15.333333,16 H 14 12.666667 Z m 6,0 L 20,14.666667 20.666667,15.333333 21.333333,16 H 20 18.666667 Z m 6,0 L 26,14.666667 26.666667,15.333333 27.333333,16 H 26 24.666667 Z M 34,15.5 V 15 H 34.5 35 V 15.5 16 H 34.5 34 Z m 6,0 V 15 H 40.5 41 V 15.5 16 H 40.5 40 Z m 5,0 V 15 H 45.5 46 V 15.5 16 H 45.5 45 Z m 21,0 V 15 H 66.5 67 V 15.5 16 H 66.5 66 Z M 79.872445,14.25 78.5,12.5 80.25,13.872445 82,15.244889 83.75,13.872445 85.5,12.5 84.127555,14.25 82.755111,16 H 82 81.244889 Z M 11,13.5 V 13 H 11.5 12 V 13.5 14 H 11.5 11 Z m 5,0 V 13 H 16.5 17 V 13.5 14 H 16.5 16 Z"
       id="path60"
       inkscape:connector-curvature="0" />
  </g>
</svg>
