<?xml version="1.0" encoding="UTF-8" standalone="no"?>
<!-- Created with Inkscape (http://www.inkscape.org/) -->

<svg
   xmlns:dc="http://purl.org/dc/elements/1.1/"
   xmlns:cc="http://creativecommons.org/ns#"
   xmlns:rdf="http://www.w3.org/1999/02/22-rdf-syntax-ns#"
   xmlns:svg="http://www.w3.org/2000/svg"
   xmlns="http://www.w3.org/2000/svg"
   xmlns:sodipodi="http://sodipodi.sourceforge.net/DTD/sodipodi-0.dtd"
   xmlns:inkscape="http://www.inkscape.org/namespaces/inkscape"
   version="1.1"
   id="svg2"
   width="95"
   height="70"
   viewBox="0 0 95 70"
   sodipodi:docname="youtube.svg"
   inkscape:version="0.92.2 5c3e80d, 2017-08-06">
  <metadata
     id="metadata8">
    <rdf:RDF>
      <cc:Work
         rdf:about="">
        <dc:format>image/svg+xml</dc:format>
        <dc:type
           rdf:resource="http://purl.org/dc/dcmitype/StillImage" />
        <dc:title></dc:title>
      </cc:Work>
    </rdf:RDF>
  </metadata>
  <defs
     id="defs6" />
  <sodipodi:namedview
     pagecolor="#ffffff"
     bordercolor="#666666"
     borderopacity="1"
     objecttolerance="10"
     gridtolerance="10"
     guidetolerance="10"
     inkscape:pageopacity="0"
     inkscape:pageshadow="2"
     inkscape:window-width="1918"
     inkscape:window-height="1027"
     id="namedview4"
     showgrid="false"
     inkscape:pagecheckerboard="true"
     inkscape:zoom="2.8736842"
     inkscape:cx="47.5"
     inkscape:cy="35"
     inkscape:window-x="0"
     inkscape:window-y="0"
     inkscape:window-maximized="1"
     inkscape:current-layer="svg2" />
  <path
     style="fill:#ffffff;fill-opacity:1;stroke-width:0.34798536"
     d="m 14.093407,63.569597 c 0,-0.417582 -0.521978,-0.521978 -2.609891,-0.521978 -2.0879116,0 -2.6098896,-0.104396 -2.6098896,-0.521978 0,-0.287088 -0.2348901,-0.521978 -0.521978,-0.521978 -0.287088,0 -0.5219781,-0.23489 -0.5219781,-0.521978 0,-0.287088 -0.1565934,-0.521978 -0.3479853,-0.521978 -0.191392,0 -0.3479854,-0.23489 -0.3479854,-0.521978 0,-0.287088 -0.2348901,-0.521978 -0.521978,-0.521978 -0.4591135,0 -0.521978,-2.99654 -0.521978,-24.880952 0,-21.884412 0.062864,-24.880953 0.521978,-24.880953 0.2870879,0 0.521978,-0.23489 0.521978,-0.5219779 0,-0.2870879 0.1565934,-0.521978 0.3479854,-0.521978 0.1913919,0 0.3479853,-0.2348901 0.3479853,-0.521978 0,-0.2870879 0.2348901,-0.521978 0.5219781,-0.521978 0.2870879,0 0.521978,-0.2348901 0.521978,-0.5219781 0,-0.4253154 0.5799757,-0.521978 3.1318686,-0.521978 2.551892,0 3.131868,-0.096663 3.131868,-0.521978 0,-0.2870879 0.156593,-0.521978 0.347985,-0.521978 0.191392,0 0.347985,0.2348901 0.347985,0.521978 0,0.4587476 2.803216,0.521978 23.141026,0.521978 20.337809,0 23.141026,-0.06323 23.141026,-0.521978 0,-0.2870879 0.23489,-0.521978 0.521978,-0.521978 0.287088,0 0.521978,0.2348901 0.521978,0.521978 0,0.4534355 1.507935,0.521978 11.483516,0.521978 9.975581,0 11.483517,0.068543 11.483517,0.521978 0,0.287088 0.23489,0.5219781 0.521978,0.5219781 0.287088,0 0.521978,0.2348901 0.521978,0.521978 0,0.2870879 0.156593,0.521978 0.347985,0.521978 0.191392,0 0.347985,0.2348901 0.347985,0.521978 0,0.2870879 0.23489,0.5219779 0.521978,0.5219779 0.459115,0 0.521978,2.996541 0.521978,24.880953 0,21.884412 -0.06286,24.880952 -0.521978,24.880952 -0.287088,0 -0.521978,0.23489 -0.521978,0.521978 0,0.287088 -0.156593,0.521978 -0.347985,0.521978 -0.191392,0 -0.347985,0.23489 -0.347985,0.521978 0,0.287088 -0.23489,0.521978 -0.521978,0.521978 -0.287088,0 -0.521978,0.23489 -0.521978,0.521978 0,0.453435 -1.507936,0.521978 -11.483517,0.521978 -9.975581,0 -11.483516,0.06854 -11.483516,0.521978 0,0.287088 -0.23489,0.521978 -0.521978,0.521978 -0.287088,0 -0.521978,-0.23489 -0.521978,-0.521978 0,-0.458826 -2.841882,-0.521978 -23.489011,-0.521978 -20.647131,0 -23.489011,0.06315 -23.489011,0.521978 0,0.287088 -0.23489,0.521978 -0.521978,0.521978 -0.287088,0 -0.521978,-0.23489 -0.521978,-0.521978 z"
     id="path12"
     inkscape:connector-curvature="0" />
  <g
     id="g14">
    <path
       style="fill:#cfedf6"
       d="m 9.2,59.8 c -1.7044189,-1.704419 -1.7044189,-47.895581 0,-49.6 1.72174,-1.7217401 74.87826,-1.7217401 76.6,0 1.704419,1.704419 1.704419,47.895581 0,49.6 -1.72174,1.72174 -74.87826,1.72174 -76.6,0 z M 52.428571,48.428571 C 54.714305,46.142838 54.650464,32.784193 52.34467,30.872445 51.141332,29.87475 47.360359,29.5 38.497617,29.5 23.23267,29.5 23,29.650898 23,39.551016 23,49.844279 23.230996,50 38.5,50 48.400433,50 51.169557,49.687586 52.428571,48.428571 Z M 27,40.5 C 27,37.475 26.55,35 26,35 c -0.55,0 -1,-0.45 -1,-1 0,-1.527185 5.952613,-1.190244 7.571429,0.428571 0.785714,0.785715 1.496158,3.373215 1.578765,5.75 L 34.300387,44.5 34.900194,40.077654 C 35.814029,33.339988 38,33.579059 38,40.416667 38,45.953704 37.975124,46 35,46 32.030303,46 32,45.944444 32,40.5 32,37.475 31.55,35 31,35 30.45,35 30,37.475 30,40.5 30,44.722222 29.651515,46 28.5,46 27.348485,46 27,44.722222 27,40.5 Z m 12,-1 c 0,-5.111111 0.320513,-6.5 1.5,-6.5 0.825,0 1.5,0.675 1.5,1.5 0,0.825 0.5625,1.3875 1.25,1.25 0.844105,-0.168821 1.348148,1.454758 1.55226,5 L 45.104519,46 H 42.05226 39 Z m 3.692991,0.769032 C 42.439447,39.296064 42.215328,39.85 42.194949,41.5 c -0.02038,1.65 0.187065,2.446064 0.460988,1.769032 0.273923,-0.677033 0.290597,-2.027033 0.03705,-3 z m 3.973676,5.064301 C 45.501449,44.168115 45.948528,38.452652 47.355392,36.52865 49.143968,34.082627 52,35.20975 52,38.361626 c 0,1.333418 -0.675,2.683418 -1.5,3 -0.825,0.316583 -1.447799,1.377228 -1.383999,2.356989 0.108716,1.669503 0.144724,1.671474 0.573325,0.03139 C 50.315375,41.354347 52,41.536612 52,44 c 0,1.428571 -0.666667,2 -2.333333,2 -1.283334,0 -2.633334,-0.3 -3,-0.666667 z M 35.300491,25.659316 C 35.944435,23.981224 35.017254,22.544961 32.75,21.708443 30.102277,20.731549 30.464151,17.62661 33.14405,18.327419 34.632855,18.71675 34.96923,18.56923 34.244714,17.844714 32.860686,16.460686 29,17.744545 29,19.588826 c 0,0.799729 1.125,1.966636 2.5,2.593128 1.375,0.626492 2.5,1.794304 2.5,2.595138 0,1.013908 -0.759161,1.310939 -2.5,0.978157 -1.375,-0.262848 -2.5,-0.09031 -2.5,0.383423 0,1.412113 5.742316,0.975225 6.300491,-0.479356 z M 39.992978,20 c 0.479735,0 1.157896,0.9 1.507022,2 0.531939,1.675992 2.5,2.921213 2.5,1.581787 0,-0.230016 0.309254,-1.242516 0.687231,-2.25 0.570072,-1.519506 0.435189,-1.627356 -0.791204,-0.632628 -1.188973,0.964377 -1.716763,0.817535 -2.695705,-0.75 -2.042382,-3.270373 -3.208945,-2.192826 -3.032219,2.800841 0.154012,4.351823 0.200985,4.43565 0.560365,1 C 38.944213,21.6875 39.513242,20 39.992978,20 Z M 48,22.5 C 48,19.033512 47.630924,18 46.393011,18 c -1.054521,0 -1.398311,0.543804 -1,1.581787 C 45.726855,20.451771 46,22.476771 46,24.081787 46,25.686804 46.45,27 47,27 c 0.55,0 1,-2.025 1,-4.5 z"
       id="path44"
       inkscape:connector-curvature="0" />
    <path
       style="fill:#9fdcee"
       d="m 9.0351838,59.065741 c -1.3874726,-2.592516 -1.3874726,-45.538966 0,-48.131482 C 10.030334,9.0748031 11.517875,9 47.5,9 83.482125,9 84.969666,9.0748031 85.964816,10.934259 86.588946,12.100456 87,21.656554 87,35 87,48.343446 86.588946,57.899544 85.964816,59.065741 84.969666,60.925197 83.482125,61 47.5,61 11.517875,61 10.030334,60.925197 9.0351838,59.065741 Z M 52.365141,48.92742 C 54.758595,47.044729 55,46.220151 55,39.92742 55,29.52232 54.211316,29 38.5,29 22.788684,29 22,29.52232 22,39.92742 c 0,6.292731 0.241405,7.117309 2.634859,9 C 26.945212,50.744744 28.652821,51 38.5,51 48.347179,51 50.054788,50.744744 52.365141,48.92742 Z M 27,40.7 c 0,-2.915 -0.54,-5.84 -1.2,-6.5 -0.933333,-0.933333 -0.333333,-1.2 2.7,-1.2 3.033333,0 3.633333,0.266667 2.7,1.2 C 30.54,34.86 30,37.785 30,40.7 30,44.744444 29.644654,46 28.5,46 27.355346,46 27,44.744444 27,40.7 Z m 5,0.3 c 0,-2.75 0.45,-5 1,-5 0.55,0 1,1.8 1,4 0,2.2 0.45,4 1,4 0.55,0 1,-1.8 1,-4 0,-2.2 0.45,-4 1,-4 0.55,0 1,2.25 1,5 0,4.888889 -0.06667,5 -3,5 -2.933333,0 -3,-0.111111 -3,-5 z m 7,-1.5 c 0,-3.666667 0.435897,-6.5 1,-6.5 0.55,0 1,0.9551 1,2.122445 0,1.662182 0.291021,1.880918 1.342009,1.008676 C 44.324072,34.486154 45,35.766695 45,41.166667 45,45.87037 44.91954,46 42,46 h -3 z m 4,1.5 c 0,-1.65 -0.45,-3 -1,-3 -0.55,0 -1,1.35 -1,3 0,1.65 0.45,3 1,3 0.55,0 1,-1.35 1,-3 z m 4,-0.06955 c 0,-4.685327 0.170529,-5.045332 2.25,-4.75 C 51.924832,36.560336 53.140373,41 50.569551,41 49.62103,41 49,41.866972 49,43.19113 c 0,2.141321 0.03337,2.147004 1.468197,0.25 1.431466,-1.892568 1.468992,-1.884841 1.5,0.30887 C 51.992817,45.491814 51.435349,46 49.5,46 47.162094,46 47,45.671303 47,40.93045 Z m 2.683114,-3.11795 c -0.319226,-0.797733 -0.556183,-0.560776 -0.604167,0.604167 -0.04342,1.054166 0.192928,1.644791 0.52522,1.3125 0.332291,-0.332292 0.367818,-1.194792 0.07895,-1.916667 z M 35.5,24.5 c 0,-1.11592 -0.996248,-2.437064 -2.253752,-2.988744 -2.887219,-1.266653 -2.302144,-3.114946 0.846705,-2.674797 1.822067,0.25469 2.131291,0.05184 1.272382,-0.834665 -1.84613,-1.905449 -5.822446,-0.803411 -6.180254,1.71286 -0.237593,1.670864 0.314877,2.372723 2.25,2.858408 C 32.845786,22.927127 34,23.891816 34,24.716816 c 0,1.100656 -0.665573,1.332952 -2.5,0.87254 -1.513352,-0.379827 -2.5,-0.200277 -2.5,0.45495 0,0.618794 1.392038,0.948193 3.25,0.769052 C 34.728881,26.57435 35.5,26.025465 35.5,24.5 Z M 39.213308,24 c -0.494925,-3.372138 0.428082,-3.860064 2.36462,-1.25 1.225997,1.652397 1.383748,1.638454 2.828439,-0.25 1.470534,-1.922234 1.531263,-1.87363 1.56183,1.25 C 45.985688,25.5375 46.45,27 47,27 c 0.55,0 1,-2.25 1,-5 0,-5.444948 -1.007356,-6.240762 -3.481001,-2.75 l -1.59441,2.25 -1.82508,-2.39382 C 40.095715,17.789578 38.868835,16.963031 38.373108,17.269407 37.326817,17.91605 37.844368,27 38.927501,27 c 0.399362,0 0.527975,-1.35 0.285807,-3 z"
       id="path42"
       inkscape:connector-curvature="0" />
    <path
       style="fill:#cdcec6"
       d="m 9.0351838,59.065741 c -1.3874726,-2.592516 -1.3874726,-45.538966 0,-48.131482 C 10.030334,9.0748031 11.517875,9 47.5,9 83.482125,9 84.969666,9.0748031 85.964816,10.934259 86.588946,12.100456 87,21.656554 87,35 87,48.343446 86.588946,57.899544 85.964816,59.065741 84.969666,60.925197 83.482125,61 47.5,61 11.517875,61 10.030334,60.925197 9.0351838,59.065741 Z M 53,49 c 1.641736,-1.641736 2,-3.333333 2,-9.443296 C 55,29.337869 54.450606,29 37.834198,29 22.495475,29 22,29.351169 22,40.222506 22,50.456593 22.831938,51 38.5,51 49.666667,51 51.213333,50.786667 53,49 Z M 28.19268,40.323324 C 28.038534,35.381916 27.650019,34.055189 26.25,33.689326 c -0.9625,-0.251528 0.05,-0.457323 2.25,-0.457323 2.2,0 3.23322,0.201805 2.296044,0.448455 -1.320907,0.347643 -1.783392,1.838962 -2.05732,6.633999 L 28.385359,46.5 Z m 4.473987,5.010009 C 31.554823,44.221489 31.915807,36 33.076469,36 c 0.644869,0 0.955607,1.673929 0.775024,4.175008 -0.183314,2.538894 0.156103,4.327524 0.866118,4.564196 0.751105,0.250368 1.302094,-1.327988 1.544728,-4.425008 L 36.639504,35.5 36.819752,40.75 C 36.9739,45.239787 36.734529,46 35.166667,46 c -1.008334,0 -2.133334,-0.3 -2.5,-0.666667 z m 7.469515,-5.916666 c 0.0749,-3.804167 0.332793,-5.891994 0.573096,-4.639616 0.278383,1.45084 1.045366,2.176525 2.113818,2 1.33946,-0.2213 1.738237,0.678792 1.981695,4.472949 0.167635,2.6125 -0.127044,4.75 -0.654843,4.75 -0.542326,0 -0.726326,-1.739449 -0.423122,-4 0.444638,-3.315025 0.243979,-4 -1.171775,-4 -1.338033,0 -1.643932,0.746963 -1.411365,3.446363 0.163307,1.8955 -0.02722,3.7705 -0.423382,4.166667 -0.396167,0.396167 -0.659022,-2.392197 -0.584122,-6.196363 z m 7.565054,5.951236 C 46.675388,44.342055 46.84405,37.214416 47.909758,36.555773 49.493915,35.57671 52,37.139836 52,39.106989 52,40.333333 51.295655,41 50,41 c -1.333333,0 -2,0.666667 -2,2 0,2.069361 2.445127,2.782777 3.341667,0.975 0.279583,-0.56375 0.392293,-0.45125 0.250467,0.25 -0.293389,1.450636 -2.836235,2.197566 -3.890898,1.142903 z M 50.36383,38.505744 C 50.04846,37.683903 49.387584,37.26046 48.895215,37.564761 47.483292,38.437377 47.851226,40 49.468615,40 c 0.892084,0 1.243517,-0.586597 0.895215,-1.494256 z M 34.418213,27.393011 C 36.999478,26.402487 36.380846,22.095296 33.5,21 32.125,20.477226 31,19.76458 31,19.416343 c 0,-0.348238 1.125,-0.350802 2.5,-0.0057 1.782599,0.447404 2.5,0.222254 2.5,-0.784603 0,-1.769927 -2.690291,-2.859114 -5.140877,-2.081328 -2.896273,0.919241 -2.423246,5.290309 0.701051,6.478165 2.935705,1.116153 2.455559,3.055503 -0.56117,2.266611 -2.158474,-0.564454 -2.809805,1.216679 -0.749004,2.04823 1.801553,0.726943 2.397325,0.734846 4.168213,0.05529 z m 5.612196,-3.202028 c 0.02611,-2.310746 0.174433,-2.443708 1.04969,-0.940983 1.386483,2.380447 2.804211,2.198161 3.888739,-0.5 0.784841,-1.952581 0.912768,-1.754301 0.967776,1.5 C 45.971476,26.3125 46.45,28 47,28 c 0.55,0 1,-2.475 1,-5.5 0,-5.974959 -1.071366,-6.868383 -3.959412,-3.301796 L 42.26059,21.396408 41.562907,19.198204 C 41.161311,17.932886 40.045052,17 38.932612,17 37.28903,17 37,17.722844 37,21.833333 c 0,2.658334 0.287766,5.1211 0.63948,5.472814 1.167195,1.167194 2.3601,-0.387054 2.390929,-3.115164 z"
       id="path40"
       inkscape:connector-curvature="0" />
    <path
       style="fill:#77cee9"
       d="M 9.6549876,59.171259 C 8.2181511,57.583573 8,54.374551 8,34.826247 8,14.282841 8.1602334,12.164966 9.8287407,10.654988 11.459314,9.1793392 15.569363,9 47.757312,9 79.242007,9 84.05804,9.2008973 85.428571,10.571429 86.76514,11.907997 87,15.546516 87,34.916441 87,55.709127 86.840932,57.833979 85.171259,59.345012 83.540851,60.820512 79.436443,61 47.326247,61 13.70426,61 11.199955,60.878429 9.6549876,59.171259 Z M 80,34 V 14 H 73.5 67 v 20 20 h 6.5 6.5 z m -10.559875,9.548963 c -3.316332,-5.061362 1.979624,-10.469628 7.018911,-7.167761 3.01254,1.973892 3.335886,5.589428 0.712223,7.96381 -2.624157,2.374831 -5.872659,2.040343 -7.731134,-0.796049 z M 74.767927,41 c 0.686961,-1.1 0.885208,-2 0.440547,-2 C 74.166696,39 72,41.160974 72,42.2 c 0,1.473397 1.506151,0.820424 2.767927,-1.2 z M 70,30 c -2.406924,-2.406924 -2.500669,-3.840182 -0.443296,-6.777494 1.888061,-2.695584 5.53818,-2.880129 7.788308,-0.393765 2.304582,2.546534 2.064245,5.771196 -0.567518,7.614555 C 73.840182,32.500669 72.406924,32.406924 70,30 Z m 5.020056,-3.524166 C 76.748508,24.393177 75.47372,23.383423 73.547619,25.309524 72.696429,26.160714 72,27.114286 72,27.428571 c 0,1.110533 1.771504,0.551676 3.020056,-0.952737 z M 53,49 c 1.641736,-1.641736 2,-3.333333 2,-9.443296 C 55,29.337869 54.450606,29 37.834198,29 22.495475,29 22,29.351169 22,40.222506 22,50.456593 22.831938,51 38.5,51 49.666667,51 51.213333,50.786667 53,49 Z M 28.19268,40.323324 C 28.038534,35.381916 27.650019,34.055189 26.25,33.689326 c -0.9625,-0.251528 0.05,-0.457323 2.25,-0.457323 2.2,0 3.23322,0.201805 2.296044,0.448455 -1.320907,0.347643 -1.783392,1.838962 -2.05732,6.633999 L 28.385359,46.5 Z m 4.473987,5.010009 C 31.554823,44.221489 31.915807,36 33.076469,36 c 0.644869,0 0.955607,1.673929 0.775024,4.175008 -0.183314,2.538894 0.156103,4.327524 0.866118,4.564196 0.751105,0.250368 1.302094,-1.327988 1.544728,-4.425008 L 36.639504,35.5 36.819752,40.75 C 36.9739,45.239787 36.734529,46 35.166667,46 c -1.008334,0 -2.133334,-0.3 -2.5,-0.666667 z m 7.469515,-5.916666 c 0.0749,-3.804167 0.332793,-5.891994 0.573096,-4.639616 0.278383,1.45084 1.045366,2.176525 2.113818,2 1.33946,-0.2213 1.738237,0.678792 1.981695,4.472949 0.167635,2.6125 -0.127044,4.75 -0.654843,4.75 -0.542326,0 -0.726326,-1.739449 -0.423122,-4 0.444638,-3.315025 0.243979,-4 -1.171775,-4 -1.338033,0 -1.643932,0.746963 -1.411365,3.446363 0.163307,1.8955 -0.02722,3.7705 -0.423382,4.166667 -0.396167,0.396167 -0.659022,-2.392197 -0.584122,-6.196363 z m 7.565054,5.951236 C 46.675388,44.342055 46.84405,37.214416 47.909758,36.555773 49.493915,35.57671 52,37.139836 52,39.106989 52,40.333333 51.295655,41 50,41 c -1.333333,0 -2,0.666667 -2,2 0,2.069361 2.445127,2.782777 3.341667,0.975 0.279583,-0.56375 0.392293,-0.45125 0.250467,0.25 -0.293389,1.450636 -2.836235,2.197566 -3.890898,1.142903 z M 50.36383,38.505744 C 50.04846,37.683903 49.387584,37.26046 48.895215,37.564761 47.483292,38.437377 47.851226,40 49.468615,40 c 0.892084,0 1.243517,-0.586597 0.895215,-1.494256 z M 34.418213,27.393011 C 36.999478,26.402487 36.380846,22.095296 33.5,21 32.125,20.477226 31,19.76458 31,19.416343 c 0,-0.348238 1.125,-0.350802 2.5,-0.0057 1.782599,0.447404 2.5,0.222254 2.5,-0.784603 0,-1.769927 -2.690291,-2.859114 -5.140877,-2.081328 -2.896273,0.919241 -2.423246,5.290309 0.701051,6.478165 2.935705,1.116153 2.455559,3.055503 -0.56117,2.266611 -2.158474,-0.564454 -2.809805,1.216679 -0.749004,2.04823 1.801553,0.726943 2.397325,0.734846 4.168213,0.05529 z m 5.612196,-3.202028 c 0.02611,-2.310746 0.174433,-2.443708 1.04969,-0.940983 1.386483,2.380447 2.804211,2.198161 3.888739,-0.5 0.784841,-1.952581 0.912768,-1.754301 0.967776,1.5 C 45.971476,26.3125 46.45,28 47,28 c 0.55,0 1,-2.475 1,-5.5 0,-5.974959 -1.071366,-6.868383 -3.959412,-3.301796 L 42.26059,21.396408 41.562907,19.198204 C 41.161311,17.932886 40.045052,17 38.932612,17 37.28903,17 37,17.722844 37,21.833333 c 0,2.658334 0.287766,5.1211 0.63948,5.472814 1.167195,1.167194 2.3601,-0.387054 2.390929,-3.115164 z"
       id="path38"
       inkscape:connector-curvature="0" />
    <path
       style="fill:#c5a4a0"
       d="M 9.6549876,59.171259 C 8.2181511,57.583573 8,54.374551 8,34.826247 8,14.282841 8.1602334,12.164966 9.8287407,10.654988 11.459314,9.1793392 15.569363,9 47.757312,9 79.242007,9 84.05804,9.2008973 85.428571,10.571429 86.76514,11.907997 87,15.546516 87,34.916441 87,55.709127 86.840932,57.833979 85.171259,59.345012 83.540851,60.820512 79.436443,61 47.326247,61 13.70426,61 11.199955,60.878429 9.6549876,59.171259 Z M 64,33.5 V 13 H 38.5 13 V 33.5 54 H 38.5 64 Z M 80,34 V 14 H 73.5 67 v 20 20 h 6.5 6.5 z m -10.559875,9.548963 c -3.316332,-5.061362 1.979624,-10.469628 7.018911,-7.167761 3.01254,1.973892 3.335886,5.589428 0.712223,7.96381 -2.624157,2.374831 -5.872659,2.040343 -7.731134,-0.796049 z M 74.767927,41 c 0.686961,-1.1 0.885208,-2 0.440547,-2 C 74.166696,39 72,41.160974 72,42.2 c 0,1.473397 1.506151,0.820424 2.767927,-1.2 z M 70,30 c -2.406924,-2.406924 -2.500669,-3.840182 -0.443296,-6.777494 1.888061,-2.695584 5.53818,-2.880129 7.788308,-0.393765 2.304582,2.546534 2.064245,5.771196 -0.567518,7.614555 C 73.840182,32.500669 72.406924,32.406924 70,30 Z m 5.020056,-3.524166 C 76.748508,24.393177 75.47372,23.383423 73.547619,25.309524 72.696429,26.160714 72,27.114286 72,27.428571 c 0,1.110533 1.771504,0.551676 3.020056,-0.952737 z"
       id="path36"
       inkscape:connector-curvature="0" />
    <path
       style="fill:#a3a5a3"
       d="M 9.6549876,59.171259 C 8.2181511,57.583573 8,54.374551 8,34.826247 8,14.282841 8.1602334,12.164966 9.8287407,10.654988 11.459314,9.1793392 15.569363,9 47.757312,9 79.242007,9 84.05804,9.2008973 85.428571,10.571429 86.76514,11.907997 87,15.546516 87,34.916441 87,55.709127 86.840932,57.833979 85.171259,59.345012 83.540851,60.820512 79.436443,61 47.326247,61 13.70426,61 11.199955,60.878429 9.6549876,59.171259 Z M 64,33.5 V 13 H 38.5 13 V 33.5 54 H 38.5 64 Z m 16.5,0.499872 V 13.999877 l -6.75,6.2e-5 L 67,14 v 20 20 l 6.75,-6.7e-5 6.75,-6.7e-5 z M 71.222506,44.443296 C 68.804604,42.749731 68.290699,39.109301 70.2,37.2 72.101469,35.298531 76.791576,35.742038 77.964816,37.934259 79.435434,40.682133 79.268526,41.731474 77,44 c -2.40751,2.40751 -2.917337,2.446628 -5.777494,0.443296 z M 74.607954,41.25 c 2.109264,-2.778608 1.607189,-3.499956 -1.076529,-1.546685 -1.357716,0.988177 -2.482716,2.134185 -2.5,2.546685 -0.0587,1.401045 2.242247,0.757697 3.576529,-1 z M 70.2,29.8 c -1.819021,-1.819021 -1.438657,-5.274043 0.804062,-7.303676 3.880708,-3.511992 9.556698,1.718852 7.016153,6.465903 C 76.793934,31.253554 72.150953,31.750953 70.2,29.8 Z m 5.834398,-5.136982 c -0.965728,-0.99992 -5.1558,2.331532 -4.42324,3.51684 0.279787,0.452705 1.571356,0.03493 2.870153,-0.928379 1.298797,-0.963313 1.997686,-2.128121 1.553087,-2.588461 z"
       id="path34"
       inkscape:connector-curvature="0" />
    <path
       style="fill:#cb535c"
       d="m 10.2,59.8 c -1.7044189,-1.704419 -1.7044189,-47.895581 0,-49.6 1.720903,-1.7209029 72.879097,-1.7209029 74.6,0 1.704419,1.704419 1.704419,47.895581 0,49.6 -1.720903,1.720903 -72.879097,1.720903 -74.6,0 z M 64,34 V 13 H 38.5 13 V 34 55 H 38.5 64 Z m 16.5,0 V 13.5 L 73.25,13.20619 66,12.912381 v 20.377143 c 0,11.207428 0.318431,20.695573 0.707624,21.084766 0.389193,0.389193 3.651693,0.576693 7.25,0.416667 L 80.5,54.5 Z M 71.222506,44.443296 C 68.804604,42.749731 68.290699,39.109301 70.2,37.2 72.101469,35.298531 76.791576,35.742038 77.964816,37.934259 79.435434,40.682133 79.268526,41.731474 77,44 c -2.40751,2.40751 -2.917337,2.446628 -5.777494,0.443296 z m 5.077985,-2.78398 c 0.774736,-2.018929 -0.797845,-3.902317 -2.920318,-3.497493 -1.038799,0.198132 -2.023171,1.360908 -2.199724,2.598393 C 70.923662,42.560081 71.344573,43 73.32346,43 c 1.354409,0 2.694073,-0.603308 2.977031,-1.340684 z M 70.2,29.8 c -1.819021,-1.819021 -1.438657,-5.274043 0.804062,-7.303676 3.880708,-3.511992 9.556698,1.718852 7.016153,6.465903 C 76.793934,31.253554 72.150953,31.750953 70.2,29.8 Z m 5.729632,-2.668517 C 77.07671,24.988149 76.433839,24 73.89235,24 c -2.150908,0 -3.268287,1.57794 -2.512348,3.547887 0.783681,2.042238 3.36,1.806441 4.54963,-0.416404 z"
       id="path32"
       inkscape:connector-curvature="0" />
    <path
       style="fill:#a7636b"
       d="m 10.2,59.8 c -1.7044189,-1.704419 -1.7044189,-47.895581 0,-49.6 1.720903,-1.7209029 72.879097,-1.7209029 74.6,0 1.704419,1.704419 1.704419,47.895581 0,49.6 -1.720903,1.720903 -72.879097,1.720903 -74.6,0 z M 64,34 V 13 H 38.5 13 V 34 55 H 38.5 64 Z m 16.5,0 V 13.5 L 73.25,13.20619 66,12.912381 v 20.377143 c 0,11.207428 0.318431,20.695573 0.707624,21.084766 0.389193,0.389193 3.651693,0.576693 7.25,0.416667 L 80.5,54.5 Z M 72.33794,44.953996 C 68.101331,43.338397 68.286348,37.468203 72.608065,36.383521 76.22788,35.475006 78,36.602348 78,39.813628 c 0,3.742018 -2.75948,6.247244 -5.66206,5.140368 z m 4.149505,-3.707967 c -0.183933,-0.960316 -0.368853,-2.031045 -0.410934,-2.379398 -0.2055,-1.701152 -3.875544,-1.418078 -5.002094,0.385817 -1.355676,2.170781 -0.650109,3.32692 2.425583,3.974551 2.68506,0.565378 3.386116,0.100509 2.987445,-1.98097 z M 70.463886,29.597252 c -1.595473,-1.166639 -1.74983,-1.881997 -0.917048,-4.25 C 70.332752,23.112518 71.164915,22.5 73.415095,22.5 c 3.475251,0 5.110686,2.268986 4.213107,5.845223 -0.759544,3.026265 -3.970495,3.587407 -7.164316,1.252029 z m 5.610138,-2.735568 c 1.522783,-2.845346 0.320691,-3.895243 -3.096129,-2.704134 -3.386432,1.180517 -3.395894,1.200266 -1.799661,3.756239 1.349804,2.16138 3.413311,1.717932 4.89579,-1.052105 z"
       id="path30"
       inkscape:connector-curvature="0" />
    <path
       style="fill:#626567"
       d="m 10.2,59.8 c -1.7044189,-1.704419 -1.7044189,-47.895581 0,-49.6 1.720903,-1.7209029 72.879097,-1.7209029 74.6,0 1.704419,1.704419 1.704419,47.895581 0,49.6 -1.720903,1.720903 -72.879097,1.720903 -74.6,0 z M 64,34 V 13 H 38.5 13 V 34 55 H 38.5 64 Z M 80.770288,33.75 81.040577,13 H 73.520288 66 v 20.333333 c 0,11.183334 0.318431,20.651764 0.707624,21.040957 0.389193,0.389193 3.651693,0.576693 7.25,0.416667 L 80.5,54.5 Z M 69.979785,42.962227 C 68.468591,40.138535 69.661583,37.123041 72.579636,36.390657 75.556443,35.643526 78,37.461098 78,40.422445 c 0,4.533139 -5.945732,6.415989 -8.020215,2.539782 z m 6.710747,-0.59815 c 0.762893,-1.988068 -0.828129,-4.750458 -2.980244,-5.174407 -2.258184,-0.444844 -4.210183,3.503067 -2.657237,5.374252 1.606081,1.935209 4.862481,1.819772 5.637481,-0.199845 z M 70.571429,29.428571 C 68.728699,27.585842 68.628785,26.562138 70.035184,23.934259 72.040398,20.187481 78,22.107274 78,26.5 c 0,4.211155 -4.408157,5.948986 -7.428571,2.928571 z m 5.730535,-1.542648 c 2.313391,-3.673993 -2.459452,-6.810941 -5.248913,-3.449845 -0.899325,1.083619 -0.912817,1.957435 -0.05497,3.56033 1.274364,2.381172 3.767676,2.329234 5.303886,-0.110485 z"
       id="path28"
       inkscape:connector-curvature="0" />
    <path
       style="fill:#d9142c"
       d="m 10.211959,58.811959 c -1.8568299,-1.85683 -1.7124237,-46.151721 0.155514,-47.701971 0.978472,-0.81206 11.859324,-1.060242 38.25,-0.872445 L 85.5,10.5 V 35 59.5 l -37.038041,0.261959 c -27.972609,0.197842 -37.33468,-0.03468 -38.25,-0.95 z M 64,34 V 13 H 38 12 v 21 21 h 26 26 z m 17,0 V 13 H 73.5 66 V 34 55 H 73.5 81 Z M 69.979785,42.962227 C 68.468591,40.138535 69.661583,37.123041 72.579636,36.390657 75.556443,35.643526 78,37.461098 78,40.422445 c 0,4.533139 -5.945732,6.415989 -8.020215,2.539782 z m 6.710747,-0.59815 c 0.762893,-1.988068 -0.828129,-4.750458 -2.980244,-5.174407 -2.258184,-0.444844 -4.210183,3.503067 -2.657237,5.374252 1.606081,1.935209 4.862481,1.819772 5.637481,-0.199845 z M 70.571429,29.428571 C 68.728699,27.585842 68.628785,26.562138 70.035184,23.934259 72.040398,20.187481 78,22.107274 78,26.5 c 0,4.211155 -4.408157,5.948986 -7.428571,2.928571 z m 5.730535,-1.542648 c 2.313391,-3.673993 -2.459452,-6.810941 -5.248913,-3.449845 -0.899325,1.083619 -0.912817,1.957435 -0.05497,3.56033 1.274364,2.381172 3.767676,2.329234 5.303886,-0.110485 z"
       id="path26"
       inkscape:connector-curvature="0" />
    <path
       style="fill:#a94f00"
       d="m 10.211959,58.811959 c -1.8568299,-1.85683 -1.7124237,-46.151721 0.155514,-47.701971 0.978472,-0.81206 11.859324,-1.060242 38.25,-0.872445 L 85.5,10.5 V 35 59.5 l -37.038041,0.261959 c -27.972609,0.197842 -37.33468,-0.03468 -38.25,-0.95 z M 64,34 V 13 H 38 12 v 21 21 h 26 26 z m 17,0 V 13 H 73.5 66 v 21 21 h 7.5 7.5 z"
       id="path24"
       inkscape:connector-curvature="0" />
    <path
       style="fill:#20526e"
       d="m 10.211959,58.811959 c -1.8568299,-1.85683 -1.7124237,-46.151721 0.155514,-47.701971 0.978472,-0.81206 11.859324,-1.060242 38.25,-0.872445 L 85.5,10.5 V 35 59.5 l -37.038041,0.261959 c -27.972609,0.197842 -37.33468,-0.03468 -38.25,-0.95 z M 84.5,35 V 11.5 h -37 -37 l -0.269738,22.477371 c -0.148357,12.362554 -0.04785,23.05561 0.223353,23.762348 0.391816,1.021055 8.046662,1.231094 37.269739,1.022629 L 84.5,58.5 Z M 12,56 c 0,-0.641026 9.333333,-1 26,-1 H 64 V 34 c 0,-13.333333 0.365079,-21 1,-21 0.634921,0 1,7.666667 1,21 V 55 H 73.5 81 V 34 c 0,-13.333333 0.365079,-21 1,-21 0.636364,0 1,8 1,22 V 57 H 47.5 C 24.5,57 12,56.647887 12,56 Z"
       id="path22"
       inkscape:connector-curvature="0" />
    <path
       style="fill:#544729"
       d="m 10.211959,58.811959 c -1.8568299,-1.85683 -1.7124237,-46.151721 0.155514,-47.701971 0.978472,-0.81206 11.859324,-1.060242 38.25,-0.872445 L 85.5,10.5 V 35 59.5 l -37.038041,0.261959 c -27.972609,0.197842 -37.33468,-0.03468 -38.25,-0.95 z M 84.5,35 V 11.5 h -37 -37 l -0.269738,22.477371 c -0.148357,12.362554 -0.04785,23.05561 0.223353,23.762348 0.391816,1.021055 8.046662,1.231094 37.269739,1.022629 L 84.5,58.5 Z M 12,56.016603 c 0,-0.612782 9.892868,-1.083871 26.25,-1.25 L 64.5,54.5 V 33.749475 c 0,-11.412789 0.3375,-20.750289 0.75,-20.75 C 65.6625,12.999764 66,22.45 66,34 V 55 H 73.5 81 V 34 c 0,-13.333333 0.365079,-21 1,-21 0.636364,0 1,8 1,22 V 57 H 47.5 C 24.899582,57 12,56.642665 12,56.016603 Z"
       id="path20"
       inkscape:connector-curvature="0" />
    <path
       style="fill:#503d2c"
       d="m 10.211959,58.811959 c -1.8568299,-1.85683 -1.7124237,-46.151721 0.155514,-47.701971 0.978472,-0.81206 11.859324,-1.060242 38.25,-0.872445 L 85.5,10.5 V 35 59.5 l -37.038041,0.261959 c -27.972609,0.197842 -37.33468,-0.03468 -38.25,-0.95 z M 84.5,35 V 11.5 h -37 -37 l -0.269738,22.477371 c -0.148357,12.362554 -0.04785,23.05561 0.223353,23.762348 0.391816,1.021055 8.046662,1.231094 37.269739,1.022629 L 84.5,58.5 Z M 12,56 c 0,-0.639126 9.472954,-1.030469 26.25,-1.084431 14.4375,-0.04644 30.075,-0.158938 34.75,-0.25 L 81.5,54.5 V 33.749475 c 0,-11.412789 0.3375,-20.750289 0.75,-20.75 C 82.6625,12.999764 83,22.9 83,35 V 57 H 47.5 C 24.5,57 12,56.647887 12,56 Z"
       id="path18"
       inkscape:connector-curvature="0" />
    <path
       style="fill:#333232"
       d="m 10.211959,58.811959 c -1.8568299,-1.85683 -1.7124237,-46.151721 0.155514,-47.701971 0.978472,-0.81206 11.859324,-1.060242 38.25,-0.872445 L 85.5,10.5 V 35 59.5 l -37.038041,0.261959 c -27.972609,0.197842 -37.33468,-0.03468 -38.25,-0.95 z M 84.5,35 V 11.5 h -37 -37 l -0.269738,22.477371 c -0.148357,12.362554 -0.04785,23.05561 0.223353,23.762348 0.391816,1.021055 8.046662,1.231094 37.269739,1.022629 L 84.5,58.5 Z M 11.999232,56.25 c -4.23e-4,-0.4125 11.109176,-0.621819 24.687997,-0.465152 13.57882,0.156666 25.391666,-0.01 26.250768,-0.37029 C 63.797099,55.054232 68.325,54.701051 73,54.62971 L 81.5,54.5 V 33.749475 c 0,-11.412789 0.3375,-20.750289 0.75,-20.75 C 82.6625,12.999764 83,22.9 83,35 V 57 H 47.5 C 27.975,57 11.999654,56.6625 11.999232,56.25 Z"
       id="path16"
       inkscape:connector-curvature="0" />
  </g>
</svg>
