<?xml version="1.0" encoding="UTF-8" standalone="no"?>
<!-- Created with Inkscape (http://www.inkscape.org/) -->

<svg
   xmlns:dc="http://purl.org/dc/elements/1.1/"
   xmlns:cc="http://creativecommons.org/ns#"
   xmlns:rdf="http://www.w3.org/1999/02/22-rdf-syntax-ns#"
   xmlns:svg="http://www.w3.org/2000/svg"
   xmlns="http://www.w3.org/2000/svg"
   xmlns:sodipodi="http://sodipodi.sourceforge.net/DTD/sodipodi-0.dtd"
   xmlns:inkscape="http://www.inkscape.org/namespaces/inkscape"
   version="1.1"
   id="svg2"
   width="60"
   height="29.333332"
   viewBox="0 0 60 29.333332"
   sodipodi:docname="settingsIcon.svg"
   inkscape:version="0.92.2 2405546, 2018-03-11">
  <metadata
     id="metadata8">
    <rdf:RDF>
      <cc:Work
         rdf:about="">
        <dc:format>image/svg+xml</dc:format>
        <dc:type
           rdf:resource="http://purl.org/dc/dcmitype/StillImage" />
        <dc:title />
      </cc:Work>
    </rdf:RDF>
  </metadata>
  <defs
     id="defs6" />
  <sodipodi:namedview
     pagecolor="#ffffff"
     bordercolor="#666666"
     borderopacity="1"
     objecttolerance="10"
     gridtolerance="10"
     guidetolerance="10"
     inkscape:pageopacity="0"
     inkscape:pageshadow="2"
     inkscape:window-width="1834"
     inkscape:window-height="1026"
     id="namedview4"
     showgrid="false"
     inkscape:pagecheckerboard="true"
     inkscape:zoom="11.42"
     inkscape:cx="56.954118"
     inkscape:cy="13.787155"
     inkscape:window-x="84"
     inkscape:window-y="0"
     inkscape:window-maximized="0"
     inkscape:current-layer="layer2"
     inkscape:measure-start="23.2757,25.3558"
     inkscape:measure-end="24.5894,31.6181" />
  <g
     inkscape:groupmode="layer"
     id="layer2"
     inkscape:label="Layer 2">
    <path
       style="opacity:1;fill:#ffffff;fill-opacity:1;stroke:#ffff00;stroke-width:36.07806396;stroke-miterlimit:4;stroke-dasharray:none;stroke-dashoffset:75.59055328;stroke-opacity:0"
       d="m 26.195693,0.03816134 a 14.7,14.7 0 0 0 -2.687344,0.2698828 L 23.309287,2.5934347 22.568545,4.6299972 A 10.78,10.78 0 0 0 19.42374,6.4387862 L 17.297216,6.0636301 15.218545,5.0951144 a 14.7,14.7 0 0 0 -2.804102,4.8578913 l 1.879609,1.3149613 1.383868,1.648007 a 10.78,10.78 0 0 0 -0.166523,1.822187 10.78,10.78 0 0 0 0.156952,1.833672 l -1.372383,1.636524 -1.881523,1.316875 a 14.7,14.7 0 0 0 2.804102,4.85789 l 2.084414,-0.972343 2.115039,-0.373243 a 10.78,10.78 0 0 0 3.148632,1.803047 l 0.742657,2.040391 0.199062,2.287305 a 14.7,14.7 0 0 0 5.610117,0 l 0.200977,-2.291133 0.74457,-2.048047 a 10.78,10.78 0 0 0 3.102696,-1.799218 l 2.155234,0.380898 2.086329,0.972343 a 14.7,14.7 0 0 0 2.804101,-4.85789 l -1.881524,-1.318789 -1.41832,-1.690118 a 10.78,10.78 0 0 0 0.158868,-1.778164 10.78,10.78 0 0 0 -0.151212,-1.787734 l 1.410664,-1.680546 1.881524,-1.3168753 A 14.7,14.7 0 0 0 37.408272,5.0951144 L 35.329599,6.0636301 33.170537,6.4445285 A 10.78,10.78 0 0 0 30.067841,4.6567941 L 29.317529,2.5972629 29.118466,0.30804414 a 14.7,14.7 0 0 0 -2.922773,-0.2698828 z m 0.0957,9.80000036 a 4.9,4.9 0 0 1 4.9,4.8999993 4.9,4.9 0 0 1 -4.9,4.9 4.9,4.9 0 0 1 -4.9,-4.9 4.9,4.9 0 0 1 4.9,-4.8999993 z"
       id="path1456-3"
       inkscape:connector-curvature="0" />
    <path
       style="fill:#ffffff;stroke-width:0.12263095"
       d="m 47.793135,23.659052 c 0.150109,-0.06057 0.804526,-0.623567 1.454257,-1.251113 0.932283,-0.900447 4.487344,-4.37192 5.286245,-5.161952 0.08615,-0.0852 0.375422,-0.420788 0.642824,-0.745764 0.669852,-0.814075 0.669852,-1.320326 0,-2.134401 C 54.909059,14.04085 54.619788,13.705254 54.533637,13.620061 53.734759,12.830053 50.179971,9.3588461 49.248891,8.4595711 48.599983,7.8328311 47.928205,7.2663252 47.75605,7.2006709 47.583896,7.1350169 47.097024,7.0813007 46.674114,7.0813007 c -1.00597,0 -1.174212,0.1735289 -1.174212,1.2111034 0,0.806012 0.222575,1.519357 0.528341,1.693315 0.173489,0.0987 4.215533,3.9318759 5.073412,4.8112449 0.500085,0.512614 0.500085,0.759504 0,1.272117 -0.857879,0.879373 -4.899923,4.712546 -5.073412,4.811249 -0.522646,0.297343 -0.748162,2.298342 -0.304425,2.701153 0.248457,0.225544 1.578972,0.275421 2.069317,0.07757 z"
       id="path12"
       inkscape:connector-curvature="0"
       sodipodi:nodetypes="cccccccsssccccccc" />
  </g>
</svg>
