<?xml version="1.0" encoding="UTF-8" standalone="no"?>
<!-- Created with Inkscape (http://www.inkscape.org/) -->

<svg
   xmlns:dc="http://purl.org/dc/elements/1.1/"
   xmlns:cc="http://creativecommons.org/ns#"
   xmlns:rdf="http://www.w3.org/1999/02/22-rdf-syntax-ns#"
   xmlns:svg="http://www.w3.org/2000/svg"
   xmlns="http://www.w3.org/2000/svg"
   xmlns:sodipodi="http://sodipodi.sourceforge.net/DTD/sodipodi-0.dtd"
   xmlns:inkscape="http://www.inkscape.org/namespaces/inkscape"
   version="1.1"
   id="svg2"
   width="128"
   height="128"
   viewBox="0 0 128 128"
   sodipodi:docname="brightnessIconHi.svg"
   inkscape:version="0.92.4 5da689c313, 2019-01-14">
  <metadata
     id="metadata8">
    <rdf:RDF>
      <cc:Work
         rdf:about="">
        <dc:format>image/svg+xml</dc:format>
        <dc:type
           rdf:resource="http://purl.org/dc/dcmitype/StillImage" />
        <dc:title />
      </cc:Work>
    </rdf:RDF>
  </metadata>
  <defs
     id="defs6" />
  <sodipodi:namedview
     pagecolor="#ffffff"
     bordercolor="#666666"
     borderopacity="1"
     objecttolerance="10"
     gridtolerance="10"
     guidetolerance="10"
     inkscape:pageopacity="0"
     inkscape:pageshadow="2"
     inkscape:window-width="1654"
     inkscape:window-height="1025"
     id="namedview4"
     showgrid="false"
     inkscape:pagecheckerboard="true"
     inkscape:zoom="2.6"
     inkscape:cx="-29.130378"
     inkscape:cy="64"
     inkscape:window-x="0"
     inkscape:window-y="0"
     inkscape:window-maximized="0"
     inkscape:current-layer="svg2" />
  <path
     style="fill:#ffffff"
     d="M 64.256871,116 H 62.382259 L 60.662195,114.74226 58.942131,113.48452 59.221066,99.015033 59.5,84.545549 62.20971,83.593902 64.91942,82.642255 67.45971,83.799689 70,84.957122 V 99.443377 113.92963 L 68.065741,114.96482 66.131483,116 Z M 32.884702,102.884 31.5,102.768 29.693213,102.29974 27.886427,101.83148 26.943213,99.35064 26,96.869801 V 95.800199 94.730597 L 35.18422,85.365298 44.36844,76 h 2.744351 2.744352 L 51.428571,77.571429 53,79.142857 v 2.744352 2.744351 L 43.634702,93.81578 34.269403,103 Z m 64.846064,-0.34153 -2.769233,0.684 L 85.480766,93.929015 76,84.63156 V 81.887209 79.142857 L 77.571429,77.571429 79.142857,76 h 2.744352 2.744351 l 9.297455,9.480766 9.297455,9.480767 -0.684,2.769233 -0.684,2.769234 -0.67923,0.67924 -0.67924,0.67923 z M 65.867702,75.599637 61.5,75.980133 l -2,-0.872037 -2,-0.872037 -2,-2.223017 -2,-2.223017 V 64.41774 59.045455 L 56.272727,56.272727 59.045455,53.5 H 64.5 69.954545 L 72.727273,56.272727 75.5,59.045455 V 64.5 69.954545 l -2.632298,2.632298 -2.632297,2.632298 z M 29.5,70 H 14.957122 L 13.799689,67.45971 12.642255,64.91942 13.595209,62.20971 14.548163,59.5 H 29.5 44.451837 l 0.952954,2.70971 0.952954,2.70971 -1.157434,2.54029 L 44.042878,70 Z m 70,0 H 84.957122 L 83.799689,67.45971 82.642255,64.91942 83.595209,62.20971 84.548163,59.5 H 99.5 114.45184 l 0.95295,2.70971 0.95295,2.70971 -1.15743,2.54029 L 114.04288,70 Z M 47.112791,53 H 44.36844 L 35.070985,43.519234 25.773529,34.038467 26.457527,31.269234 27.141525,28.5 27.820763,27.820763 28.5,27.141525 31.269234,26.457527 34.038467,25.773529 43.519234,35.070985 53,44.36844 v 2.744351 2.744352 L 51.428571,51.428571 49.857143,53 Z m 34.774418,0 H 79.142857 L 77.571429,51.428571 76,49.857143 V 47.112791 44.36844 l 9.480766,-9.297455 9.480767,-9.297456 2.769233,0.683998 2.769234,0.683998 0.67924,0.679238 0.67923,0.679237 0.684,2.769234 0.684,2.769233 -9.297455,9.480767 L 84.63156,53 Z M 64.256871,46 H 62.382259 L 60.662195,44.742258 58.942131,43.484517 59.221066,29.015033 59.5,14.545549 62.20971,13.593902 64.91942,12.642255 67.45971,13.799689 70,14.957122 V 29.443377 43.929632 L 68.065741,44.964816 66.131483,46 Z"
     id="path12"
     inkscape:connector-curvature="0" />
  <rect
     style="opacity:1;vector-effect:none;fill:none;fill-opacity:1;fill-rule:evenodd;stroke:none;stroke-width:0;stroke-linecap:butt;stroke-linejoin:miter;stroke-miterlimit:4;stroke-dasharray:none;stroke-dashoffset:285.63296509;stroke-opacity:1"
     id="rect4515"
     width="129.23077"
     height="128.84616"
     x="0"
     y="-0.07692308"
     rx="1.73611"
     ry="1.51144" />
</svg>
