<?xml version="1.0" encoding="UTF-8" standalone="no"?>
<!-- Created with Inkscape (http://www.inkscape.org/) -->

<svg
   xmlns:dc="http://purl.org/dc/elements/1.1/"
   xmlns:cc="http://creativecommons.org/ns#"
   xmlns:rdf="http://www.w3.org/1999/02/22-rdf-syntax-ns#"
   xmlns:svg="http://www.w3.org/2000/svg"
   xmlns="http://www.w3.org/2000/svg"
   xmlns:sodipodi="http://sodipodi.sourceforge.net/DTD/sodipodi-0.dtd"
   xmlns:inkscape="http://www.inkscape.org/namespaces/inkscape"
   version="1.1"
   id="svg52"
   width="25.000006"
   height="19.99999"
   viewBox="0 0 25.000006 19.99999"
   sodipodi:docname="wifiStrength3.svg"
   inkscape:version="0.92.4 5da689c313, 2019-01-14">
  <metadata
     id="metadata58">
    <rdf:RDF>
      <cc:Work
         rdf:about="">
        <dc:format>image/svg+xml</dc:format>
        <dc:type
           rdf:resource="http://purl.org/dc/dcmitype/StillImage" />
        <dc:title />
      </cc:Work>
    </rdf:RDF>
  </metadata>
  <defs
     id="defs56" />
  <sodipodi:namedview
     pagecolor="#ffffff"
     bordercolor="#666666"
     borderopacity="1"
     objecttolerance="10"
     gridtolerance="10"
     guidetolerance="10"
     inkscape:pageopacity="0"
     inkscape:pageshadow="2"
     inkscape:window-width="1918"
     inkscape:window-height="1028"
     id="namedview54"
     showgrid="false"
     inkscape:pagecheckerboard="true"
     inkscape:zoom="30.14"
     inkscape:cx="4.5771294"
     inkscape:cy="13.514209"
     inkscape:window-x="0"
     inkscape:window-y="0"
     inkscape:window-maximized="1"
     inkscape:current-layer="svg52" />
  <path
     inkscape:connector-curvature="0"
     id="path171"
     d="m 11.290272,19.575225 c -0.525646,-0.674092 -0.396587,-2.008654 0.247968,-2.56411 0.72368,-0.623695 1.311517,-0.623695 2.035202,0 0.644548,0.555456 0.773612,1.890018 0.24796,2.56411 -0.187347,0.240251 -0.719816,0.414765 -1.265564,0.414765 -0.545744,0 -1.07822,-0.174514 -1.265566,-0.414765 z M 8.2906361,16.066323 c -1.1634316,-0.442534 -1.3273315,-2.055721 -0.313618,-3.086799 2.3573739,-2.397772 6.8002729,-2.397772 9.1576409,0 1.080053,1.098563 0.834855,2.77445 -0.456403,3.119361 -0.491854,0.131395 -0.957915,-0.02922 -1.847546,-0.636843 -1.612671,-1.101372 -2.98752,-1.104856 -4.532919,-0.0115 -1.1469703,0.811483 -1.3382915,0.870173 -2.0071549,0.615759 z M 4.0254351,11.712208 C 3.2348913,10.87084 3.3953535,9.9940636 4.5573573,8.8057113 6.4245238,6.8962227 9.7019396,5.5706294 12.555838,5.5706294 c 2.814762,0 6.01756,1.2778978 7.974582,3.1818013 1.194894,1.1624645 1.369758,2.0935333 0.555822,2.9597773 -0.740608,0.788223 -1.489923,0.657524 -2.957149,-0.51581 -3.570335,-2.8551828 -7.576177,-2.8551828 -11.1465073,0 -1.4672273,1.173334 -2.2165458,1.304033 -2.9571506,0.51581 z M 0.41713029,7.8964572 C 0.09456664,7.645423 -0.00348543,7.2677957 0.05556068,6.5039237 0.12651573,5.5859933 0.32352563,5.295274 1.6419345,4.1630207 4.8250403,1.4293847 8.3468676,0.12699 12.555838,0.12699 c 4.208976,0 7.7308,1.3023947 10.91391,4.0360307 1.318408,1.1322533 1.515418,1.4229726 1.586372,2.340903 0.05906,0.763872 -0.03901,1.1414993 -0.361577,1.3925335 C 23.85549,8.5494345 22.944934,8.2968348 21.545796,7.0229564 19.18356,4.8722121 15.593526,3.4423232 12.555838,3.4423232 c -3.0376859,0 -6.6277242,1.4298889 -8.9899563,3.5806332 C 2.1667455,8.2968348 1.2561884,8.5494345 0.41713029,7.8964572 Z"
     style="opacity:1;fill:#ffffff;stroke-width:0.25883359" />
  <rect
     style="opacity:1;vector-effect:none;fill:none;fill-opacity:1;fill-rule:evenodd;stroke:none;stroke-width:0;stroke-linecap:butt;stroke-linejoin:miter;stroke-miterlimit:4;stroke-dasharray:none;stroke-dashoffset:285.69659424;stroke-opacity:1"
     id="rect812"
     width="25.116125"
     height="20.039814"
     x="0"
     y="-0.0066452366" />
</svg>
