<?xml version="1.0" encoding="UTF-8" standalone="no"?>
<!-- Created with Inkscape (http://www.inkscape.org/) -->

<svg
   xmlns:dc="http://purl.org/dc/elements/1.1/"
   xmlns:cc="http://creativecommons.org/ns#"
   xmlns:rdf="http://www.w3.org/1999/02/22-rdf-syntax-ns#"
   xmlns:svg="http://www.w3.org/2000/svg"
   xmlns="http://www.w3.org/2000/svg"
   xmlns:sodipodi="http://sodipodi.sourceforge.net/DTD/sodipodi-0.dtd"
   xmlns:inkscape="http://www.inkscape.org/namespaces/inkscape"
   version="1.1"
   id="svg22"
   width="25.000002"
   height="19.999983"
   viewBox="0 0 25.000002 19.999983"
   sodipodi:docname="wifiOff.svg"
   inkscape:version="0.92.4 5da689c313, 2019-01-14">
  <metadata
     id="metadata28">
    <rdf:RDF>
      <cc:Work
         rdf:about="">
        <dc:format>image/svg+xml</dc:format>
        <dc:type
           rdf:resource="http://purl.org/dc/dcmitype/StillImage" />
        <dc:title />
      </cc:Work>
    </rdf:RDF>
  </metadata>
  <defs
     id="defs26" />
  <sodipodi:namedview
     pagecolor="#ffffff"
     bordercolor="#666666"
     borderopacity="1"
     objecttolerance="10"
     gridtolerance="10"
     guidetolerance="10"
     inkscape:pageopacity="0"
     inkscape:pageshadow="2"
     inkscape:window-width="958"
     inkscape:window-height="1026"
     id="namedview24"
     showgrid="false"
     inkscape:pagecheckerboard="true"
     inkscape:zoom="22.84"
     inkscape:cx="13.331556"
     inkscape:cy="9.2168063"
     inkscape:window-x="0"
     inkscape:window-y="0"
     inkscape:window-maximized="0"
     inkscape:current-layer="svg22"
     inkscape:snap-global="false"
     showguides="false" />
  <path
     style="opacity:1;vector-effect:none;fill:#ffffff;fill-opacity:1;fill-rule:evenodd;stroke:none;stroke-width:0;stroke-linecap:butt;stroke-linejoin:miter;stroke-miterlimit:4;stroke-dasharray:none;stroke-dashoffset:285.69659424;stroke-opacity:1"
     d="M 13.068359,-0.0078125 C 8.47241,-0.15416625 4.0039608,1.6620603 0.60351562,5.0585938 0.39498766,5.1640443 0.31623598,5.3752471 0.19040586,5.5351562 -0.12449526,6.1080482 -0.12589628,6.8270083 0.30078122,7.390625 3.6771631,11.417223 7.0707372,15.430957 10.46875,19.439453 c 0.727947,0.801565 1.800715,0.427558 2.740234,0.542969 0.965381,0.08715 1.585125,-0.713811 2.121094,-1.384766 C 18.476907,14.859885 21.60672,11.1002 24.741187,7.3525152 25.223912,6.2514151 24.760674,5.8292581 24.199075,5.0117188 21.074829,1.9129827 17.277387,0.13391139 13.068359,-0.0078125 Z m -0.410156,2.0351563 c 3.169708,0.1064134 6.072998,1.4455365 8.425931,3.7789203 0.121517,0.1142444 0.40213,0.4611445 0.510233,0.5724085 0.226092,0.5621415 -0.07285,0.4527596 -0.15368,0.8470901 -2.360414,2.8222013 -5.557189,6.6295423 -7.926923,9.4442693 -0.403606,0.505266 -0.421241,0.700019 -1.148218,0.634389 -0.707507,-0.08691 -0.616404,-0.02893 -1.16459,-0.632546 C 8.6420789,13.653268 6.08534,10.629892 3.54275,7.5976562 3.2383013,7.0751462 2.7769061,6.8811153 2.8159115,6.4806249 2.9290879,6.3693158 3.0156282,6.0982657 3.1211108,5.9965957 5.6819479,3.4391124 9.1973012,1.9168967 12.658203,2.0273438 Z"
     id="path816"
     inkscape:connector-curvature="0"
     sodipodi:nodetypes="ccccccccccccccccccccc" />
  <path
     style="opacity:1;vector-effect:none;fill:#ffffff;fill-opacity:1;fill-rule:evenodd;stroke:#040000;stroke-width:0;stroke-linecap:butt;stroke-linejoin:miter;stroke-miterlimit:4;stroke-dasharray:none;stroke-dashoffset:285.69659424;stroke-opacity:1"
     d="M 9.4356948,4.6611358 C 9.0876412,4.6611359 8.7405415,4.79521 8.473845,5.0619064 l -0.054963,0.054963 c -0.5333929,0.5333929 -0.5495093,1.4069249 0,1.9236989 L 10.097539,8.7192247 8.4188821,10.39788 c -0.5333929,0.533393 -0.5333929,1.392598 0,1.92599 l 0.054963,0.05496 c 0.533393,0.533392 1.4082414,0.54859 1.9259889,0 l 1.678657,-1.678657 1.676366,1.678657 c 0.533392,0.533392 1.392596,0.533392 1.925989,0 l 0.05496,-0.05496 c 0.533392,-0.533392 0.517748,-1.377398 0,-1.92599 L 14.057152,8.7192247 15.735809,7.0405682 c 0.533392,-0.533392 0.533392,-1.390306 0,-1.9236989 l -0.05496,-0.054963 c -0.533393,-0.5333929 -1.392597,-0.5333928 -1.925989,0 L 12.078491,6.7405629 10.399834,5.0619064 C 10.133138,4.7952104 9.7837482,4.6611358 9.4356948,4.6611358 Z"
     id="rect815"
     inkscape:connector-curvature="0"
     sodipodi:nodetypes="sssscsccsccssscsccccss" />
  <g
     id="g842" />
</svg>
