<?xml version="1.0" encoding="UTF-8" standalone="no"?>
<!-- Created with Inkscape (http://www.inkscape.org/) -->

<svg
   xmlns:dc="http://purl.org/dc/elements/1.1/"
   xmlns:cc="http://creativecommons.org/ns#"
   xmlns:rdf="http://www.w3.org/1999/02/22-rdf-syntax-ns#"
   xmlns:svg="http://www.w3.org/2000/svg"
   xmlns="http://www.w3.org/2000/svg"
   xmlns:sodipodi="http://sodipodi.sourceforge.net/DTD/sodipodi-0.dtd"
   xmlns:inkscape="http://www.inkscape.org/namespaces/inkscape"
   version="1.1"
   id="svg52"
   width="25.000006"
   height="19.99999"
   viewBox="0 0 25.000006 19.99999"
   sodipodi:docname="wifiStrength1.svg"
   inkscape:version="0.92.4 5da689c313, 2019-01-14">
  <metadata
     id="metadata58">
    <rdf:RDF>
      <cc:Work
         rdf:about="">
        <dc:format>image/svg+xml</dc:format>
        <dc:type
           rdf:resource="http://purl.org/dc/dcmitype/StillImage" />
        <dc:title />
      </cc:Work>
    </rdf:RDF>
  </metadata>
  <defs
     id="defs56" />
  <sodipodi:namedview
     pagecolor="#ffffff"
     bordercolor="#666666"
     borderopacity="1"
     objecttolerance="10"
     gridtolerance="10"
     guidetolerance="10"
     inkscape:pageopacity="0"
     inkscape:pageshadow="2"
     inkscape:window-width="1918"
     inkscape:window-height="1028"
     id="namedview54"
     showgrid="false"
     inkscape:pagecheckerboard="true"
     inkscape:zoom="30.14"
     inkscape:cx="4.5439509"
     inkscape:cy="13.514209"
     inkscape:window-x="0"
     inkscape:window-y="0"
     inkscape:window-maximized="1"
     inkscape:current-layer="svg52" />
  <path
     inkscape:connector-curvature="0"
     id="path171"
     d="m 11.290272,19.575225 c -0.525646,-0.674092 -0.396587,-2.008654 0.247968,-2.56411 0.72368,-0.623695 1.311517,-0.623695 2.035202,0 0.644548,0.555456 0.773612,1.890018 0.24796,2.56411 -0.187347,0.240251 -0.719816,0.414765 -1.265564,0.414765 -0.545744,0 -1.07822,-0.174514 -1.265566,-0.414765 z M 8.2906361,16.066323 c -1.1634316,-0.442534 -1.3273315,-2.055721 -0.313618,-3.086799 2.3573739,-2.397772 6.8002729,-2.397772 9.1576409,0 1.080053,1.098563 0.834855,2.77445 -0.456403,3.119361 -0.491854,0.131395 -0.957915,-0.02922 -1.847546,-0.636843 -1.612671,-1.101372 -2.98752,-1.104856 -4.532919,-0.0115 -1.1469703,0.811483 -1.3382915,0.870173 -2.0071549,0.615759 z"
     style="opacity:1;fill:#ffffff;stroke-width:0.25883359"
     sodipodi:nodetypes="ccccscccsccccc" />
  <rect
     style="opacity:1;vector-effect:none;fill:none;fill-opacity:1;fill-rule:evenodd;stroke:none;stroke-width:0;stroke-linecap:butt;stroke-linejoin:miter;stroke-miterlimit:4;stroke-dasharray:none;stroke-dashoffset:285.69659424;stroke-opacity:1"
     id="rect13"
     width="25.182482"
     height="20.106171"
     x="-0.033178501"
     y="-0.0066452366" />
</svg>
