<?xml version="1.0" encoding="UTF-8" standalone="no"?>
<!-- Created with Inkscape (http://www.inkscape.org/) -->

<svg
   xmlns:dc="http://purl.org/dc/elements/1.1/"
   xmlns:cc="http://creativecommons.org/ns#"
   xmlns:rdf="http://www.w3.org/1999/02/22-rdf-syntax-ns#"
   xmlns:svg="http://www.w3.org/2000/svg"
   xmlns="http://www.w3.org/2000/svg"
   xmlns:sodipodi="http://sodipodi.sourceforge.net/DTD/sodipodi-0.dtd"
   xmlns:inkscape="http://www.inkscape.org/namespaces/inkscape"
   version="1.1"
   id="svg52"
   width="25.000006"
   height="19.99999"
   viewBox="0 0 25.000006 19.99999"
   sodipodi:docname="wifiStrength1.svg"
   inkscape:version="0.92.2 5c3e80d, 2017-08-06">
  <metadata
     id="metadata58">
    <rdf:RDF>
      <cc:Work
         rdf:about="">
        <dc:format>image/svg+xml</dc:format>
        <dc:type
           rdf:resource="http://purl.org/dc/dcmitype/StillImage" />
        <dc:title></dc:title>
      </cc:Work>
    </rdf:RDF>
  </metadata>
  <defs
     id="defs56" />
  <sodipodi:namedview
     pagecolor="#ffffff"
     bordercolor="#666666"
     borderopacity="1"
     objecttolerance="10"
     gridtolerance="10"
     guidetolerance="10"
     inkscape:pageopacity="0"
     inkscape:pageshadow="2"
     inkscape:window-width="1918"
     inkscape:window-height="1028"
     id="namedview54"
     showgrid="false"
     inkscape:pagecheckerboard="true"
     inkscape:zoom="8.6599296"
     inkscape:cx="-31.157217"
     inkscape:cy="23.741084"
     inkscape:window-x="0"
     inkscape:window-y="0"
     inkscape:window-maximized="1"
     inkscape:current-layer="svg52" />
  <g
     id="g12">
    <path
       inkscape:connector-curvature="0"
       id="path62"
       d="m 12.028526,19.969042 c -1.186917,-0.293539 -1.069943,-2.105038 -0.421271,-2.890025 0.983447,-1.036673 2.288337,0.01288 2.560914,1.12084 0.06452,1.233852 -0.895319,2.107588 -2.139643,1.769185 z m 3.939615,-3.75156 c -1.075523,-0.452548 -1.874883,-1.474217 -3.04379,-1.652458 -1.136875,-0.257587 -1.936906,0.612521 -2.810464,1.146889 C 9.1918786,16.5111 7.8962906,16.129189 7.3066731,15.149164 6.8130787,13.881124 7.8606146,13.074188 8.7755468,12.44685 9.885441,11.94814 11.014485,11.266179 12.25269,11.191262 c 1.206981,-0.200855 2.232104,0.450347 3.319931,0.831213 0.938181,0.498653 2.343914,1.107965 2.284813,2.358569 0.240733,1.150692 -0.910379,1.816414 -1.889293,1.836438 z"
       style="fill:#ffffff;stroke-width:0.05362582"
       sodipodi:nodetypes="ccccccccccccc" />
    <rect
       y="0.022922698"
       x="-0.11547438"
       height="20"
       width="25"
       id="rect8"
       style="opacity:1;fill:none;fill-opacity:1" />
  </g>
</svg>
