<?xml version="1.0" encoding="UTF-8" standalone="no"?>
<!-- Created with Inkscape (http://www.inkscape.org/) -->

<svg
   xmlns:dc="http://purl.org/dc/elements/1.1/"
   xmlns:cc="http://creativecommons.org/ns#"
   xmlns:rdf="http://www.w3.org/1999/02/22-rdf-syntax-ns#"
   xmlns:svg="http://www.w3.org/2000/svg"
   xmlns="http://www.w3.org/2000/svg"
   xmlns:sodipodi="http://sodipodi.sourceforge.net/DTD/sodipodi-0.dtd"
   xmlns:inkscape="http://www.inkscape.org/namespaces/inkscape"
   version="1.1"
   id="svg2"
   width="41.333332"
   height="26.666668"
   viewBox="0 0 41.333332 26.666668"
   sodipodi:docname="battery_0.svg"
   inkscape:version="0.92.2 5c3e80d, 2017-08-06">
  <metadata
     id="metadata8">
    <rdf:RDF>
      <cc:Work
         rdf:about="">
        <dc:format>image/svg+xml</dc:format>
        <dc:type
           rdf:resource="http://purl.org/dc/dcmitype/StillImage" />
        <dc:title />
      </cc:Work>
    </rdf:RDF>
  </metadata>
  <defs
     id="defs6" />
  <sodipodi:namedview
     pagecolor="#ffffff"
     bordercolor="#666666"
     borderopacity="1"
     objecttolerance="10"
     gridtolerance="10"
     guidetolerance="10"
     inkscape:pageopacity="0"
     inkscape:pageshadow="2"
     inkscape:window-width="1304"
     inkscape:window-height="934"
     id="namedview4"
     showgrid="false"
     inkscape:zoom="36.83"
     inkscape:cx="22.560424"
     inkscape:cy="13.333334"
     inkscape:window-x="0"
     inkscape:window-y="0"
     inkscape:window-maximized="0"
     inkscape:current-layer="svg2"
     inkscape:pagecheckerboard="true" />
  <g
     id="g40"
     style="fill:#ff0000">
    <path
       style="fill:#ff0000;fill-opacity:1;stroke-width:1.33333337"
       d="M 2.6666666,13.333334 V 2.6666668 h 15.9999994 16 v 2.6666668 2.6666668 h 1.999999 2 v 5.3333336 5.333334 h -2 -1.999999 v 2.666666 2.666667 h -16 -15.9999994 z m 29.3333324,0 V 5.3333336 H 18.666666 5.3333332 v 8.0000004 8 H 18.666666 31.999999 Z"
       id="path52"
       inkscape:connector-curvature="0" />
    <path
       style="fill:#ff0000;fill-opacity:1;stroke-width:1.33333337"
       d="M 2.6666666,13.333334 V 2.6666668 h 15.9999994 16 v 2.6666668 2.6666668 h 1.999999 2 v 5.3333336 5.333334 h -2 -1.999999 v 2.666666 2.666667 h -16 -15.9999994 z m 29.3333324,0 V 5.3333336 H 18.666666 5.3333332 v 8.0000004 8 H 18.666666 31.999999 Z"
       id="path50"
       inkscape:connector-curvature="0" />
    <path
       style="fill:#ff0000;fill-opacity:1;stroke-width:1.33333337"
       d="M 2.6666666,13.333334 V 2.6666668 h 15.9999994 16 v 2.6666668 2.6666668 h 1.999999 2 v 5.3333336 5.333334 h -2 -1.999999 v 2.666666 2.666667 h -16 -15.9999994 z m 29.3333324,0 V 5.3333336 H 18.666666 5.3333332 v 8.0000004 8 H 18.666666 31.999999 Z"
       id="path48"
       inkscape:connector-curvature="0" />
    <path
       style="fill:#ff0000;fill-opacity:1;stroke-width:1.33333337"
       d="M 2.6666666,13.333334 V 2.6666668 h 15.9999994 16 v 2.6666668 2.6666668 h 1.999999 2 v 5.3333336 5.333334 h -2 -1.999999 v 2.666666 2.666667 h -16 -15.9999994 z m 29.3333324,0 V 5.3333336 H 18.666666 5.3333332 v 8.0000004 8 H 18.666666 31.999999 Z"
       id="path46"
       inkscape:connector-curvature="0" />
    <path
       style="fill:#ff0000;fill-opacity:1;stroke-width:1.33333337"
       d="M 2.6666666,13.333334 V 2.6666668 h 15.9999994 16 v 2.6666668 2.6666668 h 1.999999 2 v 5.3333336 5.333334 h -2 -1.999999 v 2.666666 2.666667 h -16 -15.9999994 z m 29.3333324,0 V 5.3333336 H 18.666666 5.3333332 v 8.0000004 8 H 18.666666 31.999999 Z"
       id="path44"
       inkscape:connector-curvature="0" />
    <path
       style="fill:#ff0000;fill-opacity:1;stroke-width:1.33333337"
       d="M 2.6666666,13.333334 V 2.6666668 h 15.9999994 16 v 2.6666668 2.6666668 h 1.999999 2 v 5.3333336 5.333334 h -2 -1.999999 v 2.666666 2.666667 h -16 -15.9999994 z m 29.3333324,0 V 5.3333336 H 18.666666 5.3333332 v 8.0000004 8 H 18.666666 31.999999 Z"
       id="path42"
       inkscape:connector-curvature="0" />
  </g>
</svg>
