<?xml version="1.0" encoding="UTF-8" standalone="no"?>
<!-- Created with Inkscape (http://www.inkscape.org/) -->

<svg
   xmlns:dc="http://purl.org/dc/elements/1.1/"
   xmlns:cc="http://creativecommons.org/ns#"
   xmlns:rdf="http://www.w3.org/1999/02/22-rdf-syntax-ns#"
   xmlns:svg="http://www.w3.org/2000/svg"
   xmlns="http://www.w3.org/2000/svg"
   xmlns:sodipodi="http://sodipodi.sourceforge.net/DTD/sodipodi-0.dtd"
   xmlns:inkscape="http://www.inkscape.org/namespaces/inkscape"
   version="1.1"
   id="svg2"
   width="128"
   height="128"
   viewBox="0 0 128 128"
   sodipodi:docname="bluetoothIcon.svg"
   inkscape:version="0.92.2 5c3e80d, 2017-08-06">
  <metadata
     id="metadata8">
    <rdf:RDF>
      <cc:Work
         rdf:about="">
        <dc:format>image/svg+xml</dc:format>
        <dc:type
           rdf:resource="http://purl.org/dc/dcmitype/StillImage" />
        <dc:title />
      </cc:Work>
    </rdf:RDF>
  </metadata>
  <defs
     id="defs6" />
  <sodipodi:namedview
     pagecolor="#ffffff"
     bordercolor="#666666"
     borderopacity="1"
     objecttolerance="10"
     gridtolerance="10"
     guidetolerance="10"
     inkscape:pageopacity="0"
     inkscape:pageshadow="2"
     inkscape:window-width="1918"
     inkscape:window-height="1027"
     id="namedview4"
     showgrid="false"
     inkscape:pagecheckerboard="true"
     inkscape:zoom="1.84375"
     inkscape:cx="-90.576271"
     inkscape:cy="64"
     inkscape:window-x="0"
     inkscape:window-y="0"
     inkscape:window-maximized="1"
     inkscape:current-layer="svg2" />
  <path
     style="fill:#ffffff"
     d="M 64.57954,109.96584 59,115.43168 V 95.494728 75.557777 L 52.723095,81.778888 46.446189,88 H 44.294523 42.142857 L 40.571429,86.428571 39,84.857143 V 83.29387 81.730597 L 47.979505,72.574049 56.95901,63.417502 47.979505,54.4796 39,45.541699 V 43.925837 42.309975 L 40.828741,40.654988 42.657481,39 h 1.757813 1.757814 L 52.586554,45.158507 59,51.317015 V 31.912476 12.507937 l 15.738621,15.738621 15.738621,15.738621 -9.732891,9.76955 -9.732892,9.76955 9.669364,9.669364 9.669363,9.669364 L 80.254633,93.681503 70.159079,104.5 Z M 72.527058,87.764685 76,84.02937 V 83.210852 82.392334 L 72.5,79 69,75.607666 69.027058,83.553833 69.054115,91.5 Z M 72.733333,47.733333 76.466667,44 72.733333,40.266667 69,36.533333 V 44 51.466667 Z"
     id="path12"
     inkscape:connector-curvature="0" />
</svg>
