<?xml version="1.0" encoding="UTF-8" standalone="no"?>
<!-- Created with Inkscape (http://www.inkscape.org/) -->

<svg
   xmlns:dc="http://purl.org/dc/elements/1.1/"
   xmlns:cc="http://creativecommons.org/ns#"
   xmlns:rdf="http://www.w3.org/1999/02/22-rdf-syntax-ns#"
   xmlns:svg="http://www.w3.org/2000/svg"
   xmlns="http://www.w3.org/2000/svg"
   xmlns:sodipodi="http://sodipodi.sourceforge.net/DTD/sodipodi-0.dtd"
   xmlns:inkscape="http://www.inkscape.org/namespaces/inkscape"
   version="1.1"
   id="svg2"
   width="128"
   height="128"
   viewBox="0 0 128 128"
   sodipodi:docname="brightnessIconLo.svg"
   inkscape:version="0.92.2 5c3e80d, 2017-08-06">
  <metadata
     id="metadata8">
    <rdf:RDF>
      <cc:Work
         rdf:about="">
        <dc:format>image/svg+xml</dc:format>
        <dc:type
           rdf:resource="http://purl.org/dc/dcmitype/StillImage" />
        <dc:title />
      </cc:Work>
    </rdf:RDF>
  </metadata>
  <defs
     id="defs6" />
  <sodipodi:namedview
     pagecolor="#ffffff"
     bordercolor="#666666"
     borderopacity="1"
     objecttolerance="10"
     gridtolerance="10"
     guidetolerance="10"
     inkscape:pageopacity="0"
     inkscape:pageshadow="2"
     inkscape:window-width="1918"
     inkscape:window-height="1028"
     id="namedview4"
     showgrid="false"
     inkscape:pagecheckerboard="true"
     inkscape:zoom="1.84375"
     inkscape:cx="-3.254237"
     inkscape:cy="64"
     inkscape:window-x="0"
     inkscape:window-y="0"
     inkscape:window-maximized="1"
     inkscape:current-layer="svg2" />
  <path
     style="fill:#ffffff"
     d="M 64.577555,97 H 61.4 L 60.2,95.8 59,94.6 v -4.821439 -4.821439 l 2.54029,-1.157433 2.54029,-1.157434 2.70971,0.947842 2.70971,0.947843 0.307964,4.808724 0.307965,4.808724 L 68.93552,95.577694 67.755111,97 Z M 45.385549,89 H 42.4 L 41.2,87.8 40,86.6 V 83.474314 80.348628 L 42.314451,78.174314 44.628902,76 h 2.614121 2.61412 L 51.428571,77.571429 53,79.142857 v 2.754258 2.754257 L 50.685549,86.825686 48.371098,89 Z m 38.088765,0 H 80.348628 L 78.174314,86.685549 76,84.371098 v -2.614121 -2.61412 L 77.571429,77.571429 79.142857,76 h 2.754258 2.754257 L 86.825686,78.314451 89,80.628902 V 83.614451 86.6 L 87.8,87.8 86.6,89 Z M 65.867702,75.599637 61.5,75.980133 l -2,-0.872037 -2,-0.872037 -2,-2.223017 -2,-2.223017 V 64.41774 59.045455 L 56.272727,56.272727 59.045455,53.5 H 64.5 69.954545 L 72.727273,56.272727 75.5,59.045455 V 64.5 69.954545 l -2.632298,2.632298 -2.632297,2.632298 z M 39.221439,70 H 34.4 L 33.2,68.8 32,67.6 v -3.177555 -3.177556 l 1.422306,-1.180409 1.422306,-1.180409 4.808724,0.307965 4.808724,0.307964 0.947843,2.70971 0.947842,2.70971 -1.157434,2.54029 L 44.042878,70 Z m 50.557122,0 H 84.957122 L 83.799689,67.45971 82.642255,64.91942 83.590097,62.20971 84.53794,59.5 89.346664,59.192036 94.155388,58.884071 95.577694,60.06448 97,61.244889 V 64.422445 67.6 L 95.8,68.8 94.6,70 Z M 47.102885,53 H 44.348628 L 42.174314,50.685549 40,48.371098 V 45.385549 42.4 l 1.2,-1.2 1.2,-1.2 h 3.125686 3.125686 L 50.825686,42.314451 53,44.628902 v 2.614121 2.61412 L 51.428571,51.428571 49.857143,53 Z m 34.654092,0 h -2.61412 L 77.571429,51.428571 76,49.857143 V 47.102885 44.348628 L 78.314451,42.174314 80.628902,40 H 83.614451 86.6 l 1.2,1.2 1.2,1.2 v 3.125686 3.125686 L 86.685549,50.825686 84.371098,53 Z M 64.315741,45.969591 62.5,45.939183 60.75,44.919901 59,43.90062 V 39.15031 34.4 l 1.2,-1.2 1.2,-1.2 h 3.1 3.1 l 1.2,1.2 1.2,1.2 v 4.764816 4.764816 L 68.065741,44.964816 66.131483,46 Z"
     id="path12"
     inkscape:connector-curvature="0" />
  <rect
     style="opacity:1;fill:none;fill-opacity:1"
     id="rect47"
     width="129.08475"
     height="129.08475"
     x="-0.54237288"
     y="0"
     ry="0.0230521" />
</svg>
