<?xml version="1.0" encoding="UTF-8" standalone="no"?>
<!-- Created with Inkscape (http://www.inkscape.org/) -->

<svg
   xmlns:dc="http://purl.org/dc/elements/1.1/"
   xmlns:cc="http://creativecommons.org/ns#"
   xmlns:rdf="http://www.w3.org/1999/02/22-rdf-syntax-ns#"
   xmlns:svg="http://www.w3.org/2000/svg"
   xmlns="http://www.w3.org/2000/svg"
   xmlns:sodipodi="http://sodipodi.sourceforge.net/DTD/sodipodi-0.dtd"
   xmlns:inkscape="http://www.inkscape.org/namespaces/inkscape"
   width="127mm"
   height="71.966667mm"
   viewBox="0 0 127 71.966667"
   version="1.1"
   id="svg8"
   inkscape:version="0.92.2 5c3e80d, 2017-08-06"
   sodipodi:docname="innerFrame.svg">
  <defs
     id="defs2" />
  <sodipodi:namedview
     id="base"
     pagecolor="#ffffff"
     bordercolor="#666666"
     borderopacity="0.0"
     inkscape:pageopacity="0.0"
     inkscape:pageshadow="2"
     inkscape:zoom="1.88"
     inkscape:cx="131.41213"
     inkscape:cy="123.39915"
     inkscape:document-units="mm"
     inkscape:current-layer="layer1"
     showgrid="false"
     inkscape:window-width="1918"
     inkscape:window-height="1027"
     inkscape:window-x="0"
     inkscape:window-y="0"
     inkscape:window-maximized="1"
     inkscape:snap-bbox="true"
     inkscape:bbox-nodes="true" />
  <metadata
     id="metadata5">
    <rdf:RDF>
      <cc:Work
         rdf:about="">
        <dc:format>image/svg+xml</dc:format>
        <dc:type
           rdf:resource="http://purl.org/dc/dcmitype/StillImage" />
        <dc:title />
      </cc:Work>
    </rdf:RDF>
  </metadata>
  <g
     inkscape:label="Layer 1"
     inkscape:groupmode="layer"
     id="layer1"
     transform="translate(-27.378622,-105.11354)">
    <g
       id="g3871"
       transform="translate(-1.0583333,-0.26458367)"
       style="fill:#000000" />
    <path
       sodipodi:nodetypes="cccccccccccccccccccccc"
       inkscape:connector-curvature="0"
       id="path71"
       d="M 27.561453,177.08021 27.378622,105.11354 H 154.37862 v 71.96667 z m 113.683067,-10.74425 6.80512,-0.69561 3.36593,-2.68207 -0.22976,-43.24161 -3.25646,-4.1777 -6.68483,-0.68269 -5.54784,-3.96157 H 45.739193 l -5.547842,3.96157 -6.68482,0.68269 -3.320142,5.00557 -0.16608,42.41374 3.365927,2.68207 6.805115,0.69561 5.547842,3.95509 h 89.957487 z"
       style="fill:#000000;stroke-width:0.26647303" />
    <path
       style="fill:#000000;stroke-width:0.26647303"
       d="M 27.561453,177.08021 27.378622,105.11354 H 154.37862 v 71.96667 z m 113.683067,-10.74425 6.80512,-0.69561 3.36593,-2.68207 -0.22976,-43.24161 -3.25646,-4.1777 -6.68483,-0.68269 -5.54784,-3.96157 H 46.350564 l -5.547842,3.96157 -6.68482,0.68269 -3.320142,5.00557 -0.16608,42.41374 3.365927,2.68207 6.805115,0.69561 5.547842,3.95509 h 89.346116 z"
       id="path36"
       inkscape:connector-curvature="0"
       sodipodi:nodetypes="cccccccccccccccccccccc" />
  </g>
</svg>
