<?xml version="1.0" encoding="UTF-8" standalone="no"?>
<!-- Created with Inkscape (http://www.inkscape.org/) -->

<svg
   xmlns:dc="http://purl.org/dc/elements/1.1/"
   xmlns:cc="http://creativecommons.org/ns#"
   xmlns:rdf="http://www.w3.org/1999/02/22-rdf-syntax-ns#"
   xmlns:svg="http://www.w3.org/2000/svg"
   xmlns="http://www.w3.org/2000/svg"
   xmlns:sodipodi="http://sodipodi.sourceforge.net/DTD/sodipodi-0.dtd"
   xmlns:inkscape="http://www.inkscape.org/namespaces/inkscape"
   version="1.1"
   id="svg2"
   width="34"
   height="34"
   viewBox="0 0 34 34"
   sodipodi:docname="installApp.svg"
   inkscape:version="0.92.2 5c3e80d, 2017-08-06">
  <metadata
     id="metadata8">
    <rdf:RDF>
      <cc:Work
         rdf:about="">
        <dc:format>image/svg+xml</dc:format>
        <dc:type
           rdf:resource="http://purl.org/dc/dcmitype/StillImage" />
        <dc:title></dc:title>
      </cc:Work>
    </rdf:RDF>
  </metadata>
  <defs
     id="defs6" />
  <sodipodi:namedview
     pagecolor="#ffffff"
     bordercolor="#666666"
     borderopacity="1"
     objecttolerance="10"
     gridtolerance="10"
     guidetolerance="10"
     inkscape:pageopacity="0"
     inkscape:pageshadow="2"
     inkscape:window-width="1438"
     inkscape:window-height="887"
     id="namedview4"
     showgrid="false"
     inkscape:zoom="6.9411765"
     inkscape:cx="17"
     inkscape:cy="17"
     inkscape:window-x="0"
     inkscape:window-y="0"
     inkscape:window-maximized="0"
     inkscape:current-layer="svg2" />
  <g
     id="g12">
    <path
       style="fill:#9f9f9f"
       d="M 10.071085,30.248446 6.6421697,28.5 4.68145,25.824492 2.7207303,23.148983 2.3049878,18.324492 1.8892452,13.5 3.6946226,10.071085 5.5,6.6421697 8.1755083,4.68145 10.851017,2.7207303 15.675508,2.3049878 20.5,1.8892452 23.928915,3.6946226 27.35783,5.5 l 1.985373,2.7085288 1.985373,2.7085292 0.391381,5.291471 0.39138,5.291471 -2.046529,3.25914 -2.046528,3.25914 -3.25914,1.987122 -3.25914,1.987122 -4,0.0022 -4,0.0022 -3.428915,-1.748446 z"
       id="path20"
       inkscape:connector-curvature="0" />
    <path
       style="fill:#f40075"
       d="M 12.604322,30.96157 9.7086448,30.095046 6.8383736,27.345152 3.9681024,24.595258 2.9455071,20.797629 1.9229119,17 2.9754029,13.091347 4.027894,9.1826931 7.3970029,6.2245763 10.766112,3.2664595 l 3.374281,-0.633019 3.374281,-0.6330189 3.417386,0.9800935 3.417387,0.9800935 2.841225,2.7220669 2.841226,2.7220668 1.022595,3.7976287 L 32.077088,17 l -1.022595,3.797629 -1.022595,3.797629 -2.841226,2.722067 -2.841225,2.722066 -3.418122,0.980305 L 17.513204,32 16.506602,31.914047 15.5,31.828095 Z"
       id="path18"
       inkscape:connector-curvature="0" />
    <path
       style="fill:#6c6d6c"
       d="M 12.604322,30.96157 9.7086448,30.095046 6.8383736,27.345152 3.9681024,24.595258 2.9455071,20.797629 1.9229119,17 2.9754029,13.091347 4.027894,9.1826931 7.3970029,6.2245763 10.766112,3.2664595 l 3.374281,-0.633019 3.374281,-0.6330189 3.417386,0.9800935 3.417387,0.9800935 2.841225,2.7220669 2.841226,2.7220668 1.022595,3.7976287 L 32.077088,17 l -1.022595,3.797629 -1.022595,3.797629 -2.841226,2.722067 -2.841225,2.722066 -3.418122,0.980305 L 17.513204,32 16.506602,31.914047 15.5,31.828095 Z M 20,23 v -3 h 3 3 V 17 14 H 23 20 V 11 8 h -3 -3 v 3 3 H 11 8 v 3 3 h 3 3 v 3 3 h 3 3 z"
       id="path16"
       inkscape:connector-curvature="0" />
    <path
       style="fill:#494949"
       d="M 17,28.5 14.651372,26 H 17.325686 20 v -3 -3 h 3 3 v -2.727273 -2.727272 l 2.698793,2.698793 2.698793,2.698793 -1.685878,3.535324 -1.685879,3.535324 -3.262914,1.989417 L 21.5,30.992524 20.424314,30.996262 19.348628,31 Z M 11,22.5 8.6513719,20 H 11.325686 14 V 22.5 25 H 13.674314 13.348628 Z M 20,11.325686 V 8.6513719 L 22.5,11 25,13.348628 V 13.674314 14 H 22.5 20 Z"
       id="path14"
       inkscape:connector-curvature="0" />
  </g>
</svg>
