<?xml version="1.0" encoding="UTF-8" standalone="no"?>
<!-- Created with Inkscape (http://www.inkscape.org/) -->

<svg
   xmlns:dc="http://purl.org/dc/elements/1.1/"
   xmlns:cc="http://creativecommons.org/ns#"
   xmlns:rdf="http://www.w3.org/1999/02/22-rdf-syntax-ns#"
   xmlns:svg="http://www.w3.org/2000/svg"
   xmlns="http://www.w3.org/2000/svg"
   xmlns:sodipodi="http://sodipodi.sourceforge.net/DTD/sodipodi-0.dtd"
   xmlns:inkscape="http://www.inkscape.org/namespaces/inkscape"
   version="1.1"
   id="svg2"
   width="133.33333"
   height="106.66667"
   viewBox="0 0 133.33333 106.66667"
   sodipodi:docname="llselection.svg"
   inkscape:version="0.92.2 5c3e80d, 2017-08-06">
  <metadata
     id="metadata8">
    <rdf:RDF>
      <cc:Work
         rdf:about="">
        <dc:format>image/svg+xml</dc:format>
        <dc:type
           rdf:resource="http://purl.org/dc/dcmitype/StillImage" />
        <dc:title></dc:title>
      </cc:Work>
    </rdf:RDF>
  </metadata>
  <defs
     id="defs6" />
  <sodipodi:namedview
     pagecolor="#ffffff"
     bordercolor="#666666"
     borderopacity="1"
     objecttolerance="10"
     gridtolerance="10"
     guidetolerance="10"
     inkscape:pageopacity="0"
     inkscape:pageshadow="2"
     inkscape:window-width="1588"
     inkscape:window-height="750"
     id="namedview4"
     showgrid="false"
     inkscape:zoom="2.0475001"
     inkscape:cx="66.666664"
     inkscape:cy="53.333336"
     inkscape:window-x="0"
     inkscape:window-y="0"
     inkscape:window-maximized="0"
     inkscape:current-layer="svg2" />
  <g
     id="g12">
    <path
       style="fill:#61c2eb;stroke-width:1.33333337"
       d="M 5.8187757,105.10722 C 0.37173207,102.46971 0,99.162142 0,53.333335 0,6.9184695 0.33044719,4.1591597 6.2097662,1.4803624 c 4.5343308,-2.06597944 116.3794638,-2.06597944 120.9137938,0 5.87932,2.6787973 6.20977,5.4381071 6.20977,51.8529726 0,46.414865 -0.33045,49.174175 -6.20977,51.852975 -4.33319,1.97433 -117.2159934,1.90073 -121.3047843,-0.0791 z"
       id="path18"
       inkscape:connector-curvature="0" />
    <path
       style="fill:#54b8e2;stroke-width:1.33333337"
       d="M 4.102564,102.56411 0,98.461542 V 53.333335 8.2051285 L 4.102564,4.1025643 8.2051281,0 H 66.666665 125.1282 l 4.10257,4.1025643 4.10256,4.1025642 V 53.333335 98.461542 l -4.10256,4.102568 -4.10257,4.10256 H 66.666665 8.2051281 Z m 90.987634,1.77094 c -15.533723,-0.21315 -41.333722,-0.21341 -57.333332,-5.7e-4 -15.999609,0.21284 -3.2902,0.38724 28.243132,0.38756 31.533333,3.1e-4 44.623922,-0.17383 29.0902,-0.38699 z m 30.471482,-3.87503 C 127.83149,98.405867 128,95.165044 128,53.565006 128,13.853111 127.75427,8.6051121 125.79335,6.4383211 c -2.07282,-2.2904327 -5.69574,-2.438321 -59.733336,-2.438321 -42.965196,0 -57.9316821,0.4050012 -59.1266808,1.6000001 -2.2927412,2.2927412 -2.2927412,93.1739278 0,95.4666698 1.1947987,1.1948 16.1100018,1.6 58.8950108,1.6 51.442516,0 57.544076,-0.2254 59.733336,-2.20665 z M 95.090198,1.6683826 C 79.556475,1.4552256 53.756476,1.4549666 37.756866,1.6678069 c -15.999609,0.2128402 -3.2902,0.3872413 28.243132,0.387558 31.533333,3.168e-4 44.623922,-0.1738254 29.0902,-0.3869823 z"
       id="path16"
       inkscape:connector-curvature="0" />
    <path
       style="fill:#1c8ebd;stroke-width:1.33333337"
       d="m 7.1279437,105.64625 c -0.8462976,-0.53877 25.9466513,-0.97958 59.5398863,-0.97958 33.59324,0 60.38566,0.44081 59.53872,0.97958 -0.84694,0.53877 -27.639886,0.97959 -59.539885,0.97959 -31.899999,0 -58.6924237,-0.44082 -59.5387213,-0.97959 z M 0.80931838,99.224287 C -0.56368892,95.646287 -0.07224448,8.8416435 1.3333333,6.6666669 2.1809851,5.3550191 2.6328595,21.301847 2.6462495,53.000002 2.657479,79.583336 2.4308599,101.33334 2.1426517,101.33334 c -0.2882083,0 -0.8882082,-0.94908 -1.33333332,-2.109053 z M 130.7075,53.333335 c 0,-31.905993 0.44513,-47.9778734 1.2925,-46.6666681 0.76892,1.1898205 1.2925,20.0940091 1.2925,46.6666681 0,26.572659 -0.52358,45.476848 -1.2925,46.666665 -0.84737,1.31121 -1.2925,-14.760672 -1.2925,-46.666665 z M 7.1279437,1.0204171 c 2.0103047,-1.27980199 117.0667763,-1.27980199 119.0786063,0 0.84694,0.5387705 -25.94548,0.979583 -59.53872,0.979583 -33.593235,0 -60.3861839,-0.4408125 -59.5398863,-0.979583 z"
       id="path14"
       inkscape:connector-curvature="0" />
  </g>
</svg>
