<?xml version="1.0" encoding="UTF-8" standalone="no"?>
<!-- Created with Inkscape (http://www.inkscape.org/) -->

<svg
   xmlns:dc="http://purl.org/dc/elements/1.1/"
   xmlns:cc="http://creativecommons.org/ns#"
   xmlns:rdf="http://www.w3.org/1999/02/22-rdf-syntax-ns#"
   xmlns:svg="http://www.w3.org/2000/svg"
   xmlns="http://www.w3.org/2000/svg"
   xmlns:sodipodi="http://sodipodi.sourceforge.net/DTD/sodipodi-0.dtd"
   xmlns:inkscape="http://www.inkscape.org/namespaces/inkscape"
   version="1.1"
   id="svg2"
   width="128"
   height="128"
   viewBox="0 0 128 128"
   sodipodi:docname="lock.svg"
   inkscape:version="0.92.2 5c3e80d, 2017-08-06">
  <metadata
     id="metadata8">
    <rdf:RDF>
      <cc:Work
         rdf:about="">
        <dc:format>image/svg+xml</dc:format>
        <dc:type
           rdf:resource="http://purl.org/dc/dcmitype/StillImage" />
        <dc:title />
      </cc:Work>
    </rdf:RDF>
  </metadata>
  <defs
     id="defs6" />
  <sodipodi:namedview
     pagecolor="#ffffff"
     bordercolor="#666666"
     borderopacity="1"
     objecttolerance="10"
     gridtolerance="10"
     guidetolerance="10"
     inkscape:pageopacity="0"
     inkscape:pageshadow="2"
     inkscape:window-width="1918"
     inkscape:window-height="1028"
     id="namedview4"
     showgrid="false"
     inkscape:pagecheckerboard="true"
     inkscape:zoom="1.84375"
     inkscape:cx="-183.05085"
     inkscape:cy="64"
     inkscape:window-x="0"
     inkscape:window-y="0"
     inkscape:window-maximized="1"
     inkscape:current-layer="svg2" />
  <path
     style="fill:#ffffff"
     d="m 64.5,103.99252 c -7,0 -14,0 -21,0 -2.130356,-1.29895 -4.260709,-2.59791 -6.39106,-3.89687 C 36.390745,97.403495 35.335632,94.758347 34.824127,92.037354 35.057342,75.191569 35.290556,58.345785 35.52377,41.5 c 1.521625,-3.114715 2.772374,-6.405306 4.460177,-9.412124 2.129767,-2.344051 4.126682,-4.861644 6.338299,-7.098776 3.801985,-1.798717 7.547151,-3.842036 11.384362,-5.4891 4.644934,0 9.289868,0 13.934802,0 3.954692,2.091419 8.070081,3.99134 11.926097,6.200348 2.380859,3.227257 4.92794,6.368131 7.206881,9.648355 0.719113,2.599284 1.88631,5.122709 2.31629,7.770942 0.38825,16.126785 0.7765,32.25357 1.16475,48.380355 -0.785692,2.863737 -1.571385,5.727473 -2.357077,8.59121 -2.212733,1.26098 -4.341988,2.81922 -6.604959,3.90131 -6.931131,0 -13.862261,0 -20.793392,0 z M 64.05202,46 C 70.03468,46 76.01734,46 82,46 81.949793,44.428262 82.312966,42.755051 81.234651,41.435686 80.15176,39.487664 79.420892,37.273561 77.527683,35.938029 75.958817,34.647487 74.701485,32.859479 72.92018,31.908166 70.563135,31.189375 68.354471,29.65804 65.803718,30 c -1.835232,0.11598 -3.777975,-0.236866 -5.544198,0.180048 -2.763552,1.415525 -5.713123,2.613239 -8.363577,4.161192 -1.54248,2.461637 -3.737425,4.594059 -4.385497,7.506987 -0.468802,1.383925 -0.937605,2.767849 -1.406407,4.151773 5.98266,0 11.965321,0 17.947981,0 z"
     id="path12"
     inkscape:connector-curvature="0" />
</svg>
