<?xml version="1.0" encoding="UTF-8" standalone="no"?>
<!-- Created with Inkscape (http://www.inkscape.org/) -->

<svg
   xmlns:dc="http://purl.org/dc/elements/1.1/"
   xmlns:cc="http://creativecommons.org/ns#"
   xmlns:rdf="http://www.w3.org/1999/02/22-rdf-syntax-ns#"
   xmlns:svg="http://www.w3.org/2000/svg"
   xmlns="http://www.w3.org/2000/svg"
   xmlns:sodipodi="http://sodipodi.sourceforge.net/DTD/sodipodi-0.dtd"
   xmlns:inkscape="http://www.inkscape.org/namespaces/inkscape"
   version="1.1"
   id="svg2"
   width="128"
   height="128"
   viewBox="0 0 128 128"
   sodipodi:docname="lock.svg"
   inkscape:version="0.92.2 5c3e80d, 2017-08-06">
  <metadata
     id="metadata8">
    <rdf:RDF>
      <cc:Work
         rdf:about="">
        <dc:format>image/svg+xml</dc:format>
        <dc:type
           rdf:resource="http://purl.org/dc/dcmitype/StillImage" />
        <dc:title />
      </cc:Work>
    </rdf:RDF>
  </metadata>
  <defs
     id="defs6" />
  <sodipodi:namedview
     pagecolor="#ffffff"
     bordercolor="#666666"
     borderopacity="1"
     objecttolerance="10"
     gridtolerance="10"
     guidetolerance="10"
     inkscape:pageopacity="0"
     inkscape:pageshadow="2"
     inkscape:window-width="1918"
     inkscape:window-height="1027"
     id="namedview4"
     showgrid="false"
     inkscape:pagecheckerboard="true"
     inkscape:zoom="1.84375"
     inkscape:cx="-89.491525"
     inkscape:cy="64"
     inkscape:window-x="0"
     inkscape:window-y="0"
     inkscape:window-maximized="1"
     inkscape:current-layer="svg2" />
  <path
     style="fill:#ffffff"
     d="m 64.5,103.99252 h -21 L 40.30447,102.04409 37.10894,100.09565 35.963673,96.273089 34.818407,92.450531 35.171089,66.975266 35.52377,41.5 l 2.093771,-4.550805 2.093772,-4.550806 3.21274,-3.659109 3.21274,-3.659109 5.681604,-2.790086 L 57.5,19.5 h 7.070705 7.070705 l 5.90076,3.01776 5.900761,3.017761 3.634083,4.808253 3.634082,4.808254 1.182332,3.673986 L 93.07576,42.5 93.665594,67 l 0.589834,24.5 -1.178539,4.295607 -1.178538,4.295603 -3.199176,1.95066 L 85.5,103.99252 Z M 64.05202,46 H 82 V 44.45034 42.90068 L 80.589276,40.20034 79.178553,37.5 76.339276,34.813618 73.5,32.127237 70.6849,31.063618 67.869801,30 h -3.619176 -3.619176 l -4.308745,2.085828 -4.308745,2.085827 -1.854027,2.664173 L 48.305905,39.5 47.204972,42.75 46.104039,46 Z"
     id="path12"
     inkscape:connector-curvature="0" />
</svg>
