<?xml version="1.0" encoding="UTF-8" standalone="no"?>
<!-- Created with Inkscape (http://www.inkscape.org/) -->

<svg
   xmlns:dc="http://purl.org/dc/elements/1.1/"
   xmlns:cc="http://creativecommons.org/ns#"
   xmlns:rdf="http://www.w3.org/1999/02/22-rdf-syntax-ns#"
   xmlns:svg="http://www.w3.org/2000/svg"
   xmlns="http://www.w3.org/2000/svg"
   xmlns:sodipodi="http://sodipodi.sourceforge.net/DTD/sodipodi-0.dtd"
   xmlns:inkscape="http://www.inkscape.org/namespaces/inkscape"
   version="1.1"
   id="svg2"
   width="41.333332"
   height="26.666668"
   viewBox="0 0 41.333332 26.666668"
   sodipodi:docname="noBattery.svg"
   inkscape:version="0.92.2 5c3e80d, 2017-08-06">
  <metadata
     id="metadata8">
    <rdf:RDF>
      <cc:Work
         rdf:about="">
        <dc:format>image/svg+xml</dc:format>
        <dc:type
           rdf:resource="http://purl.org/dc/dcmitype/StillImage" />
        <dc:title></dc:title>
      </cc:Work>
    </rdf:RDF>
  </metadata>
  <defs
     id="defs6" />
  <sodipodi:namedview
     pagecolor="#ffffff"
     bordercolor="#666666"
     borderopacity="1"
     objecttolerance="10"
     gridtolerance="10"
     guidetolerance="10"
     inkscape:pageopacity="0"
     inkscape:pageshadow="2"
     inkscape:window-width="1304"
     inkscape:window-height="934"
     id="namedview4"
     showgrid="false"
     inkscape:zoom="16.029507"
     inkscape:cx="22.789502"
     inkscape:cy="13.333334"
     inkscape:window-x="0"
     inkscape:window-y="0"
     inkscape:window-maximized="0"
     inkscape:current-layer="svg2"
     inkscape:pagecheckerboard="true"
     inkscape:measure-start="0,0"
     inkscape:measure-end="0,0" />
  <g
     id="g40"
     style="fill:#ffffff">
    <path
       style="fill:#ffffff;fill-opacity:1;stroke-width:1.33333337"
       d="M 2.6666666,13.333334 V 2.6666668 h 15.9999994 16 v 2.6666668 2.6666668 h 1.999999 2 v 5.3333336 5.333334 h -2 -1.999999 v 2.666666 2.666667 h -16 -15.9999994 z m 29.3333324,0 V 5.3333336 H 18.666666 5.3333332 v 8.0000004 8 H 18.666666 31.999999 Z"
       id="path52"
       inkscape:connector-curvature="0" />
    <path
       style="fill:#ffffff;fill-opacity:1;stroke-width:1.33333337"
       d="M 2.6666666,13.333334 V 2.6666668 h 15.9999994 16 v 2.6666668 2.6666668 h 1.999999 2 v 5.3333336 5.333334 h -2 -1.999999 v 2.666666 2.666667 h -16 -15.9999994 z m 29.3333324,0 V 5.3333336 H 18.666666 5.3333332 v 8.0000004 8 H 18.666666 31.999999 Z"
       id="path50"
       inkscape:connector-curvature="0" />
    <path
       style="fill:#ffffff;fill-opacity:1;stroke-width:1.33333337"
       d="M 2.6666666,13.333334 V 2.6666668 h 15.9999994 16 v 2.6666668 2.6666668 h 1.999999 2 v 5.3333336 5.333334 h -2 -1.999999 v 2.666666 2.666667 h -16 -15.9999994 z m 29.3333324,0 V 5.3333336 H 18.666666 5.3333332 v 8.0000004 8 H 18.666666 31.999999 Z"
       id="path48"
       inkscape:connector-curvature="0" />
    <path
       style="fill:#ffffff;fill-opacity:1;stroke-width:1.33333337"
       d="M 2.6666666,13.333334 V 2.6666668 h 15.9999994 16 v 2.6666668 2.6666668 h 1.999999 2 v 5.3333336 5.333334 h -2 -1.999999 v 2.666666 2.666667 h -16 -15.9999994 z m 29.3333324,0 V 5.3333336 H 18.666666 5.3333332 v 8.0000004 8 H 18.666666 31.999999 Z"
       id="path46"
       inkscape:connector-curvature="0" />
    <path
       style="fill:#ffffff;fill-opacity:1;stroke-width:1.33333337"
       d="M 2.6666666,13.333334 V 2.6666668 h 15.9999994 16 v 2.6666668 2.6666668 h 1.999999 2 v 5.3333336 5.333334 h -2 -1.999999 v 2.666666 2.666667 h -16 -15.9999994 z m 29.3333324,0 V 5.3333336 H 18.666666 5.3333332 v 8.0000004 8 H 18.666666 31.999999 Z"
       id="path44"
       inkscape:connector-curvature="0" />
    <path
       style="fill:#ffffff;fill-opacity:1;stroke-width:1.33333337"
       d="m 2.6660156,2.6660156 c 0,7.1113281 0,14.2226564 0,21.3339844 10.6666664,0 21.3333334,0 32.0000004,0 0,-1.777995 0,-3.555989 0,-5.333984 1.333333,0 2.666667,0 4,0 0,-3.555339 0,-7.110677 0,-10.666016 -1.333333,0 -2.666667,0 -4,0 0,-1.7779948 0,-3.5559896 0,-5.3339844 -10.666667,0 -21.333334,0 -32.0000004,0 z m 2.6679688,2.6679688 c 8.8886716,0 17.7773436,0 26.6660156,0 0,5.3333336 0,10.6666666 0,15.9999996 -8.888672,0 -17.777344,0 -26.6660156,0 0,-5.333333 0,-10.666666 0,-15.9999996 z M 21.775391,7.6835938 C 20.760278,7.7843754 20.211733,8.780968 19.462441,9.3673496 19.088242,9.7221134 18.714043,10.076877 18.339844,10.431641 17.36756,9.5814079 16.52354,8.5567744 15.456239,7.8352766 14.263992,7.4198633 13.576185,8.6843003 12.777344,9.3164062 c -0.88169,0.8141298 -0.04272,1.8188858 0.668037,2.3678398 0.595029,0.564236 1.190059,1.128471 1.785088,1.692707 -0.877816,0.903138 -1.923819,1.669113 -2.677732,2.67367 -0.424904,1.118029 0.819061,1.720633 1.440006,2.421426 0.706144,0.855996 1.866163,0.405041 2.440488,-0.342781 0.635538,-0.602334 1.271075,-1.204668 1.906613,-1.807002 0.972866,0.851636 1.817473,1.877568 2.885558,2.60027 1.191047,0.415208 1.879251,-0.847291 2.677967,-1.478403 0.854786,-0.774896 0.10148,-1.783987 -0.604629,-2.312765 -0.617158,-0.584805 -1.234316,-1.16961 -1.851474,-1.754415 0.89059,-0.865578 1.82776,-1.686684 2.687824,-2.581405 C 24.798383,9.8621139 23.813622,9.0801053 23.178588,8.5059665 22.778118,8.1336817 22.385257,7.6487236 21.775391,7.6835938 Z"
       id="path42"
       inkscape:connector-curvature="0" />
  </g>
</svg>
