<?xml version="1.0" encoding="UTF-8" standalone="no"?>
<!-- Created with Inkscape (http://www.inkscape.org/) -->

<svg
   xmlns:dc="http://purl.org/dc/elements/1.1/"
   xmlns:cc="http://creativecommons.org/ns#"
   xmlns:rdf="http://www.w3.org/1999/02/22-rdf-syntax-ns#"
   xmlns:svg="http://www.w3.org/2000/svg"
   xmlns="http://www.w3.org/2000/svg"
   xmlns:sodipodi="http://sodipodi.sourceforge.net/DTD/sodipodi-0.dtd"
   xmlns:inkscape="http://www.inkscape.org/namespaces/inkscape"
   version="1.1"
   id="svg2"
   width="60"
   height="29.333332"
   viewBox="0 0 60 29.333332"
   sodipodi:docname="powerIcon.svg"
   inkscape:version="0.92.2 2405546, 2018-03-11">
  <metadata
     id="metadata8">
    <rdf:RDF>
      <cc:Work
         rdf:about="">
        <dc:format>image/svg+xml</dc:format>
        <dc:type
           rdf:resource="http://purl.org/dc/dcmitype/StillImage" />
        <dc:title />
      </cc:Work>
    </rdf:RDF>
  </metadata>
  <defs
     id="defs6" />
  <sodipodi:namedview
     pagecolor="#ffffff"
     bordercolor="#666666"
     borderopacity="1"
     objecttolerance="10"
     gridtolerance="10"
     guidetolerance="10"
     inkscape:pageopacity="0"
     inkscape:pageshadow="2"
     inkscape:window-width="1918"
     inkscape:window-height="1028"
     id="namedview4"
     showgrid="false"
     inkscape:pagecheckerboard="true"
     inkscape:zoom="3.92"
     inkscape:cx="32.349156"
     inkscape:cy="14.926637"
     inkscape:window-x="0"
     inkscape:window-y="0"
     inkscape:window-maximized="1"
     inkscape:current-layer="layer1" />
  <g
     inkscape:groupmode="layer"
     id="layer1"
     inkscape:label="Layer 1"
     style="display:inline;opacity:1">
    <g
       id="g870">
      <path
         inkscape:connector-curvature="0"
         id="path864"
         d="M 16.564286,23.250788 C 16.414177,23.190221 15.75976,22.627221 15.110029,21.999675 14.177746,21.099228 10.622685,17.627755 9.8237841,16.837723 9.7376324,16.752523 9.4483616,16.416935 9.18096,16.091959 8.5111077,15.277884 8.5111077,14.771633 9.18096,13.957558 9.4483616,13.632586 9.7376325,13.29699 9.8237841,13.211797 10.622662,12.421789 14.17745,8.9505822 15.10853,8.0513075 c 0.648908,-0.6267401 1.320686,-1.1932458 1.492841,-1.2589001 0.172154,-0.065654 0.659026,-0.1193702 1.081936,-0.1193702 1.00597,0 1.174212,0.1735289 1.174212,1.2111034 0,0.8060118 -0.222575,1.5193565 -0.528341,1.6933149 -0.173489,0.098699 -4.215533,3.9318755 -5.073412,4.8112445 -0.500085,0.512614 -0.500085,0.759504 0,1.272117 0.857879,0.879373 4.899923,4.712546 5.073412,4.811249 0.522646,0.297343 0.748162,2.298342 0.304425,2.701153 -0.248457,0.225544 -1.578972,0.275421 -2.069317,0.07757 z"
         style="fill:#ffffff;stroke-width:0.12263095" />
      <path
         inkscape:connector-curvature="0"
         id="path12"
         d="M 33.04284,16.707806 32.636298,16.360872 V 8.6512016 c 0,-9.15902247 -0.247702,-8.27504637 2.318796,-8.27504637 2.567333,0 2.318796,-0.89384548 2.318796,8.33929317 0,9.2143886 0.235427,8.3392946 -2.24351,8.3392946 -1.457753,0 -1.612693,-0.02704 -1.98754,-0.346937 z"
         style="fill:#ffffff;fill-opacity:1;stroke-width:0.15300508" />
      <path
         id="path824"
         d="M 27.441406 3.4101562 C 27.307049 3.3980562 27.186695 3.4080824 27.089844 3.4414062 C 23.856836 5.6224767 21.772611 8.9802074 21.132812 12.644531 C 20.878095 13.750542 20.825968 14.936928 20.978516 16.222656 C 21.060909 17.198415 21.236292 18.175892 21.53125 19.140625 C 23.330927 25.026246 28.763347 29.046268 34.917969 29.046875 C 34.931736 29.046876 34.945225 29.044962 34.958984 29.044922 C 34.972113 29.044958 34.984912 29.046876 34.998047 29.046875 C 41.152669 29.046268 46.585089 25.026246 48.384766 19.140625 C 48.675594 18.189399 48.849492 17.225821 48.933594 16.263672 C 49.092401 14.959356 49.042124 13.756517 48.783203 12.636719 C 48.141841 8.9753586 46.056941 5.6209666 42.826172 3.4414062 C 42.051358 3.1748153 39.792608 4.3806005 40.589844 6.7578125 C 43.8015 8.9244675 45.431579 12.715772 44.894531 16.462891 C 44.772468 16.969333 44.634162 17.474038 44.482422 17.970703 C 43.200604 22.163167 39.337985 25.028473 34.957031 25.044922 C 30.576887 25.027624 26.71522 22.16254 25.433594 17.970703 C 25.279877 17.467568 25.140769 16.956467 25.017578 16.443359 C 24.489026 12.702632 26.120121 8.9206868 29.326172 6.7578125 C 30.023753 4.677752 28.38191 3.4948568 27.441406 3.4101562 z "
         style="opacity:1;vector-effect:none;fill:#ffffff;fill-opacity:1;stroke:#ffff00;stroke-width:36.81435013;stroke-linecap:butt;stroke-linejoin:miter;stroke-miterlimit:4;stroke-dasharray:none;stroke-dashoffset:75.59055328;stroke-opacity:0" />
    </g>
  </g>
</svg>
