<?xml version="1.0" encoding="UTF-8" standalone="no"?>
<!-- Created with Inkscape (http://www.inkscape.org/) -->

<svg
   xmlns:dc="http://purl.org/dc/elements/1.1/"
   xmlns:cc="http://creativecommons.org/ns#"
   xmlns:rdf="http://www.w3.org/1999/02/22-rdf-syntax-ns#"
   xmlns:svg="http://www.w3.org/2000/svg"
   xmlns="http://www.w3.org/2000/svg"
   xmlns:sodipodi="http://sodipodi.sourceforge.net/DTD/sodipodi-0.dtd"
   xmlns:inkscape="http://www.inkscape.org/namespaces/inkscape"
   version="1.1"
   id="svg2"
   width="60"
   height="29.333332"
   viewBox="0 0 60 29.333332"
   sodipodi:docname="powerIcon.svg"
   inkscape:version="0.92.2 5c3e80d, 2017-08-06">
  <metadata
     id="metadata8">
    <rdf:RDF>
      <cc:Work
         rdf:about="">
        <dc:format>image/svg+xml</dc:format>
        <dc:type
           rdf:resource="http://purl.org/dc/dcmitype/StillImage" />
        <dc:title />
      </cc:Work>
    </rdf:RDF>
  </metadata>
  <defs
     id="defs6" />
  <sodipodi:namedview
     pagecolor="#ffffff"
     bordercolor="#666666"
     borderopacity="1"
     objecttolerance="10"
     gridtolerance="10"
     guidetolerance="10"
     inkscape:pageopacity="0"
     inkscape:pageshadow="2"
     inkscape:window-width="1918"
     inkscape:window-height="1027"
     id="namedview4"
     showgrid="false"
     inkscape:pagecheckerboard="true"
     inkscape:zoom="2.59"
     inkscape:cx="190.73359"
     inkscape:cy="-5.0884417"
     inkscape:window-x="0"
     inkscape:window-y="0"
     inkscape:window-maximized="1"
     inkscape:current-layer="svg2" />
  <path
     style="fill:#ffffff;stroke-width:0.12263095"
     d="m 32.731476,27.057604 c -0.636563,-0.06719 -1.06045,-0.196117 -1.530533,-0.465523 -0.35758,-0.204922 -0.92564,-0.440017 -1.262357,-0.522427 -0.757404,-0.185371 -1.149724,-0.379967 -1.855507,-0.920365 -0.302987,-0.231986 -0.636176,-0.421791 -0.740422,-0.421791 -0.209691,0 -0.947881,-0.684391 -2.507274,-2.324546 -0.247709,-0.260539 -0.599471,-0.76985 -0.781698,-1.131806 -0.182223,-0.361956 -0.467088,-0.82079 -0.633038,-1.019637 -0.357226,-0.428039 -0.49962,-0.775597 -0.65589,-1.600887 -0.06367,-0.336275 -0.286729,-0.940913 -0.495682,-1.343637 -0.319365,-0.615528 -0.39999,-0.95362 -0.50587,-2.121325 -0.187274,-2.065334 0.0058,-3.935803 0.50587,-4.899514 0.208953,-0.4027279 0.43201,-1.0073657 0.495682,-1.3436403 0.15627,-0.8252876 0.298664,-1.1728447 0.65589,-1.6008875 0.16595,-0.1988438 0.452234,-0.6604845 0.636192,-1.0258726 0.183955,-0.3653847 0.508169,-0.8426491 0.720472,-1.0605889 0.212305,-0.2179364 0.557295,-0.5960285 0.766645,-0.8401987 0.353256,-0.412013 0.4301,-0.4439495 1.068154,-0.4439495 0.731408,0 0.661866,-0.046149 1.886277,1.2517689 0.08335,0.088359 0.262426,0.2670448 0.397937,0.3970783 0.353961,0.3396537 0.315616,1.0287222 -0.105809,1.9013804 -0.193706,0.4011132 -0.548522,0.9022077 -0.78848,1.1135424 -0.287203,0.2529426 -0.4955,0.5868435 -0.609556,0.9771237 -0.09529,0.3260808 -0.360345,0.8263898 -0.588999,1.1117948 l -0.415733,0.518919 v 2.553948 2.553951 l 0.415733,0.518919 c 0.228654,0.285405 0.490856,0.775966 0.582671,1.090138 0.133383,0.456417 0.434233,0.849737 1.49692,1.957031 1.178198,1.227652 1.400537,1.40448 1.948176,1.549389 0.340004,0.08997 0.842274,0.344214 1.11616,0.56499 0.463418,0.373558 0.586429,0.408335 1.772771,0.501208 0.701141,0.05489 1.879706,0.05595 2.61904,0.0023 1.279914,-0.09278 1.372797,-0.118441 1.940961,-0.536276 0.3282,-0.241361 0.821489,-0.499377 1.096203,-0.573371 0.307811,-0.08291 0.662438,-0.311619 0.92414,-0.596015 0.233562,-0.253815 0.55979,-0.582862 0.724947,-0.731216 0.909697,-0.817124 1.484994,-1.517835 1.604228,-1.953948 0.07193,-0.263093 0.327323,-0.747698 0.56754,-1.076908 0.414948,-0.56866 0.441567,-0.665275 0.532999,-1.934406 0.05293,-0.734714 0.05293,-1.936979 0,-2.671697 -0.09149,-1.269896 -0.117827,-1.365356 -0.53373,-1.934375 C 42.955886,10.197071 42.69866,9.7022622 42.624896,9.4267013 42.543319,9.1219571 42.310547,8.7557734 42.03071,8.4919578 41.777671,8.2534038 41.452627,7.9261745 41.308385,7.7647771 41.164144,7.603383 40.874871,7.3257048 40.66556,7.1477215 40.220209,6.7690234 40.155601,6.1946909 40.499912,5.6751296 c 0.551871,-0.8327647 0.711305,-1.0416459 0.925751,-1.2128777 0.126896,-0.1013261 0.416217,-0.36385 0.642928,-0.5833911 0.226715,-0.2195412 0.496115,-0.3991624 0.598665,-0.3991624 0.442759,0 1.804981,0.6604178 1.996699,0.9680184 0.110239,0.1768714 0.437354,0.5817433 0.726919,0.8997141 0.289565,0.3179743 0.526483,0.6591694 0.526483,0.7582151 0,0.099046 0.189223,0.4287452 0.420498,0.7326638 0.538739,0.7079549 0.732737,1.101481 0.91754,1.8612142 0.08216,0.3377527 0.319137,0.9121352 0.526625,1.2764047 0.337649,0.5927893 0.390576,0.8280743 0.504219,2.2414573 0.08767,1.090314 0.08767,2.067977 0,3.158292 -0.113643,1.413387 -0.16657,1.648671 -0.504219,2.241457 -0.207488,0.36427 -0.444467,0.938652 -0.526625,1.276405 -0.180204,0.740834 -0.413103,1.228139 -0.821349,1.71855 -0.168279,0.202146 -0.401013,0.589969 -0.51719,0.861828 -0.279606,0.654302 -2.59077,2.97258 -3.243064,3.253044 -0.271028,0.116534 -0.65766,0.349984 -0.859185,0.518779 -0.488909,0.409506 -0.974717,0.64312 -1.713277,0.82388 -0.336717,0.08241 -0.90009,0.314814 -1.251937,0.516448 -0.495569,0.284004 -0.881844,0.392171 -1.714198,0.480018 -1.233318,0.13017 -3.12451,0.126511 -4.403719,-0.0085 z M 16.564286,23.250788 C 16.414177,23.190221 15.75976,22.627221 15.110029,21.999675 14.177746,21.099228 10.622685,17.627755 9.8237841,16.837723 9.7376324,16.752523 9.4483616,16.416935 9.18096,16.091959 8.5111077,15.277884 8.5111077,14.771633 9.18096,13.957558 9.4483616,13.632586 9.7376325,13.29699 9.8237841,13.211797 10.622662,12.421789 14.17745,8.9505822 15.10853,8.0513075 c 0.648908,-0.6267401 1.320686,-1.1932458 1.492841,-1.2589001 0.172154,-0.065654 0.659026,-0.1193702 1.081936,-0.1193702 1.00597,0 1.174212,0.1735289 1.174212,1.2111034 0,0.8060118 -0.222575,1.5193565 -0.528341,1.6933149 -0.173489,0.098699 -4.215533,3.9318755 -5.073412,4.8112445 -0.500085,0.512614 -0.500085,0.759504 0,1.272117 0.857879,0.879373 4.899923,4.712546 5.073412,4.811249 0.522646,0.297343 0.748162,2.298342 0.304425,2.701153 -0.248457,0.225544 -1.578972,0.275421 -2.069317,0.07757 z M 32.994087,15.828667 32.693546,15.527202 V 8.8279594 c 0,-7.95864495 -0.183117,-7.1905223 1.714198,-7.1905223 1.897932,0 1.714198,-0.77669855 1.714198,7.2463489 0,8.006754 0.174042,7.246349 -1.658542,7.246349 -1.077662,0 -1.192202,-0.0235 -1.469313,-0.301468 z"
     id="path12"
     inkscape:connector-curvature="0" />
</svg>
