<?xml version="1.0" encoding="UTF-8" standalone="no"?>
<!-- Created with Inkscape (http://www.inkscape.org/) -->

<svg
   xmlns:dc="http://purl.org/dc/elements/1.1/"
   xmlns:cc="http://creativecommons.org/ns#"
   xmlns:rdf="http://www.w3.org/1999/02/22-rdf-syntax-ns#"
   xmlns:svg="http://www.w3.org/2000/svg"
   xmlns="http://www.w3.org/2000/svg"
   xmlns:sodipodi="http://sodipodi.sourceforge.net/DTD/sodipodi-0.dtd"
   xmlns:inkscape="http://www.inkscape.org/namespaces/inkscape"
   version="1.1"
   id="svg2"
   width="60"
   height="29.333332"
   viewBox="0 0 60 29.333332"
   sodipodi:docname="settingsIcon.svg"
   inkscape:version="0.92.2 5c3e80d, 2017-08-06">
  <metadata
     id="metadata8">
    <rdf:RDF>
      <cc:Work
         rdf:about="">
        <dc:format>image/svg+xml</dc:format>
        <dc:type
           rdf:resource="http://purl.org/dc/dcmitype/StillImage" />
        <dc:title />
      </cc:Work>
    </rdf:RDF>
  </metadata>
  <defs
     id="defs6" />
  <sodipodi:namedview
     pagecolor="#ffffff"
     bordercolor="#666666"
     borderopacity="1"
     objecttolerance="10"
     gridtolerance="10"
     guidetolerance="10"
     inkscape:pageopacity="0"
     inkscape:pageshadow="2"
     inkscape:window-width="1918"
     inkscape:window-height="1027"
     id="namedview4"
     showgrid="false"
     inkscape:pagecheckerboard="true"
     inkscape:zoom="3.2796268"
     inkscape:cx="52.514324"
     inkscape:cy="40.670669"
     inkscape:window-x="0"
     inkscape:window-y="0"
     inkscape:window-maximized="1"
     inkscape:current-layer="svg2" />
  <path
     style="fill:#ffffff;stroke-width:0.12468284"
     d="m 23.788538,29.819511 c 0.04296,-0.06767 8.76e-4,-0.123046 -0.09371,-0.123046 -0.352301,0 -0.764199,-1.113452 -0.849879,-2.297422 -0.113228,-1.564653 -0.476052,-2.143975 -1.720665,-2.747434 -0.488523,-0.236863 -1.048888,-0.555242 -1.245253,-0.707512 -0.446567,-0.346277 -0.539899,-0.345113 -1.083267,0.01351 -0.78058,0.515182 -2.033548,0.852661 -2.953824,0.795591 -1.006246,-0.0624 -1.257745,-0.256726 -1.535192,-1.186199 -0.124341,-0.416575 -0.389764,-0.890125 -0.677079,-1.208017 -0.259915,-0.287569 -0.538162,-0.736068 -0.618329,-0.996664 -0.08018,-0.260597 -0.317593,-0.634139 -0.527605,-0.830097 -0.294676,-0.274948 -0.381848,-0.463803 -0.381848,-0.827254 0,-0.393365 0.06366,-0.508673 0.386336,-0.699785 0.212487,-0.125847 0.596252,-0.435473 0.852808,-0.688055 0.256561,-0.252582 0.720874,-0.635035 1.031804,-0.849896 1.125446,-0.777715 1.59285,-1.890647 1.341671,-3.194626 -0.11403,-0.591973 -1.031785,-1.646852 -1.735986,-1.995364 -0.323494,-0.160102 -0.702811,-0.472969 -0.844921,-0.696912 -0.141839,-0.22351 -0.403569,-0.539673 -0.581628,-0.702584 -0.417865,-0.38232 -0.429995,-0.9700197 -0.02977,-1.4435564 0.161674,-0.1912982 0.393828,-0.5957986 0.515902,-0.8988894 0.122074,-0.3030907 0.444628,-0.7863446 0.716784,-1.0738969 0.272162,-0.2875529 0.494907,-0.6209586 0.49499,-0.7409018 8.2e-5,-0.1199433 0.128006,-0.3651918 0.284268,-0.5449963 0.156265,-0.1798045 0.365988,-0.4404555 0.466055,-0.5792239 0.495371,-0.6869571 1.853617,-0.5945824 3.265052,0.2220564 0.474839,0.2747342 0.971038,0.4995172 1.10266,0.4995172 0.131628,0 0.41259,-0.1589604 0.624363,-0.3532454 0.211772,-0.194285 0.656917,-0.4516507 0.989212,-0.5719242 0.769612,-0.2785622 1.551142,-1.0128966 1.724291,-1.6201662 0.07359,-0.2581009 0.13412,-0.8499431 0.134505,-1.3152049 4.37e-4,-0.6481521 0.07859,-1.0149444 0.333815,-1.56882794 0.183211,-0.39759327 0.413983,-0.72289681 0.512828,-0.72289681 0.09884,0 0.144575,-0.0553704 0.101632,-0.12304532 -0.05119,-0.0806412 0.904128,-0.12304531 2.772057,-0.12304531 1.815876,0 2.850158,0.0446514 2.850158,0.12304531 0,0.067675 0.07651,0.12304532 0.170022,0.12304532 0.208384,0 0.588029,1.58589955 0.588029,2.45639315 0,0.3320456 0.05869,0.7540325 0.130398,0.9377485 0.226764,0.5808623 1.093535,1.4734483 1.66307,1.7125959 0.299124,0.1256027 0.753464,0.4200433 1.009643,0.6543122 0.399651,0.3654654 0.528126,0.4160911 0.904856,0.3565515 0.24149,-0.038168 0.731969,-0.2656139 1.089958,-0.5054403 0.72549,-0.4860279 1.243755,-0.6267808 2.294447,-0.6231409 0.850291,0.00296 1.043016,0.1361237 1.303877,0.9010143 0.108824,0.3190809 0.423685,0.8728503 0.699695,1.2305992 0.27601,0.357749 0.570436,0.8734469 0.65428,1.1459963 0.09766,0.3174343 0.325466,0.6309564 0.633825,0.8722948 0.404555,0.3166245 0.481377,0.4510136 0.481377,0.8420769 0,0.38586 -0.07439,0.520585 -0.435591,0.7889 -0.23958,0.177966 -0.545404,0.504827 -0.679611,0.726357 -0.144044,0.237764 -0.484077,0.515964 -0.829969,0.679037 -0.322274,0.151939 -0.642235,0.378674 -0.711027,0.503856 -0.06879,0.125182 -0.352096,0.483062 -0.629568,0.795291 -0.455937,0.513048 -0.5045,0.63249 -0.5045,1.240908 0,0.370269 0.07976,0.859121 0.177239,1.086335 0.244248,0.569317 1.035407,1.394428 1.611495,1.680658 0.263659,0.130998 0.604445,0.402925 0.757304,0.604283 0.152859,0.201359 0.495344,0.506233 0.761077,0.677498 0.418361,0.269634 0.483151,0.373757 0.483151,0.776471 0,0.377246 -0.08948,0.548106 -0.473781,0.904685 -0.27879,0.258677 -0.565461,0.695566 -0.696537,1.061524 -0.122518,0.342057 -0.406779,0.837952 -0.631709,1.101989 -0.224931,0.264037 -0.522667,0.633282 -0.661646,0.820544 -0.138975,0.187263 -0.435021,0.537537 -0.657876,0.778387 -0.401915,0.434364 -0.411635,0.43731 -1.200253,0.363922 -0.927358,-0.0863 -2.095119,-0.455039 -2.641902,-0.834224 -0.317817,-0.2204 -0.436948,-0.242962 -0.689996,-0.130674 -0.16822,0.07464 -0.305855,0.188272 -0.305855,0.252501 0,0.06423 -0.355341,0.281652 -0.789639,0.483161 -0.524115,0.243185 -0.959574,0.563878 -1.295006,0.95371 -0.728247,0.846344 -0.811763,1.024226 -0.816751,1.739591 -0.0063,0.913302 -0.381992,2.495163 -0.592504,2.495163 -0.09351,0 -0.170022,0.05537 -0.170022,0.123046 0,0.0784 -1.034282,0.123045 -2.850158,0.123045 -1.867929,0 -2.823247,-0.0424 -2.772072,-0.123045 z m 4.77203,-9.642925 c 0.410838,-0.121428 0.794582,-0.367819 1.205311,-0.773889 0.331416,-0.327657 0.742429,-0.685349 0.913368,-0.794869 0.203252,-0.130224 0.540316,-0.707365 0.974094,-1.667896 0.772982,-1.711654 0.834203,-2.251888 0.354635,-3.12925 -0.169761,-0.310576 -0.460487,-0.934046 -0.646054,-1.385491 -0.217731,-0.529688 -0.472374,-0.918216 -0.717966,-1.095449 -0.209312,-0.151052 -0.659036,-0.53587 -0.999389,-0.85515 -0.79093,-0.7419614 -1.302169,-0.8831688 -3.202844,-0.8846489 -1.729371,-0.00135 -2.123294,0.1144329 -2.992995,0.8796899 -0.299522,0.26355 -0.730218,0.604361 -0.957105,0.757355 -0.496298,0.334668 -0.700863,0.696562 -0.97398,1.723042 -0.113647,0.427135 -0.317221,0.977565 -0.452386,1.223174 -0.318841,0.579357 -0.314686,0.640203 0.136663,2.002745 0.69871,2.109297 0.728725,2.166074 1.364257,2.580879 0.324857,0.212033 0.74446,0.565175 0.932454,0.784759 0.335155,0.391474 0.60525,0.499094 1.995527,0.795115 0.720129,0.153331 2.281793,0.07179 3.06641,-0.160116 z m 17.401021,3.370978 c 0,-0.695512 0.563133,-1.787694 1.083111,-2.100674 0.232859,-0.140158 0.598266,-0.469888 0.812022,-0.732732 0.213756,-0.262845 0.571254,-0.58803 0.794451,-0.722634 0.223186,-0.134602 0.509749,-0.41671 0.636797,-0.626907 0.127048,-0.210198 0.456125,-0.520586 0.731282,-0.689753 0.27516,-0.169166 0.567647,-0.451554 0.649977,-0.627529 0.08232,-0.175973 0.397506,-0.470175 0.7004,-0.653782 0.380381,-0.230578 0.678458,-0.558366 0.963734,-1.059802 l 0.413018,-0.725973 -0.409953,-0.720814 C 52.055272,14.392615 51.763277,14.07137 51.407039,13.86448 51.121352,13.698562 50.801005,13.399711 50.695159,13.200365 50.589312,13.001019 50.273185,12.696808 49.992662,12.52434 49.712132,12.351872 49.3685,12.022407 49.22903,11.792195 49.089565,11.561982 48.866085,11.339819 48.732408,11.2985 48.598735,11.257179 48.251321,10.948433 47.960375,10.612392 47.66943,10.276354 47.249121,9.8917059 47.026354,9.7576209 46.19634,9.2580297 45.620637,7.3174349 46.266996,7.1979708 c 0.133235,-0.024622 0.556079,0.05797 0.939661,0.1835446 0.757234,0.2478982 1.155839,0.5962047 6.040752,5.2784526 l 2.316186,2.220096 v 0.726885 0.726885 l -2.378124,2.282446 c -4.93849,4.739805 -5.117642,4.898973 -5.815687,5.166936 -0.362723,0.139239 -0.827955,0.253166 -1.033847,0.253166 -0.352082,0 -0.374348,-0.02907 -0.374348,-0.488818 z"
     id="path12"
     inkscape:connector-curvature="0" />
</svg>
