<?xml version="1.0" encoding="UTF-8" standalone="no"?>
<!-- Created with Inkscape (http://www.inkscape.org/) -->

<svg
   xmlns:dc="http://purl.org/dc/elements/1.1/"
   xmlns:cc="http://creativecommons.org/ns#"
   xmlns:rdf="http://www.w3.org/1999/02/22-rdf-syntax-ns#"
   xmlns:svg="http://www.w3.org/2000/svg"
   xmlns="http://www.w3.org/2000/svg"
   xmlns:sodipodi="http://sodipodi.sourceforge.net/DTD/sodipodi-0.dtd"
   xmlns:inkscape="http://www.inkscape.org/namespaces/inkscape"
   version="1.1"
   id="svg2"
   width="30"
   height="29.999992"
   viewBox="0 0 30 29.999992"
   sodipodi:docname="spinner0.svg"
   inkscape:version="0.92.2 5c3e80d, 2017-08-06">
  <metadata
     id="metadata8">
    <rdf:RDF>
      <cc:Work
         rdf:about="">
        <dc:format>image/svg+xml</dc:format>
        <dc:type
           rdf:resource="http://purl.org/dc/dcmitype/StillImage" />
        <dc:title />
      </cc:Work>
    </rdf:RDF>
  </metadata>
  <defs
     id="defs6" />
  <sodipodi:namedview
     pagecolor="#ffffff"
     bordercolor="#666666"
     borderopacity="1"
     objecttolerance="10"
     gridtolerance="10"
     guidetolerance="10"
     inkscape:pageopacity="0"
     inkscape:pageshadow="2"
     inkscape:window-width="1918"
     inkscape:window-height="1027"
     id="namedview4"
     showgrid="false"
     inkscape:pagecheckerboard="true"
     inkscape:zoom="1.21"
     inkscape:cx="-546.56274"
     inkscape:cy="264.58643"
     inkscape:window-x="0"
     inkscape:window-y="0"
     inkscape:window-maximized="1"
     inkscape:current-layer="svg2" />
  <path
     style="fill:#ffffff;stroke-width:0.066696"
     d="M 13.784308,29.98558 C 12.906759,29.92548 12.214456,29.80635 11.54498,29.60025 11.151977,29.47927 10.342341,29.25786 9.745788,29.10823 8.500685,28.79594 8.083626,28.61855 7.564861,28.18062 7.361145,28.00864 6.978442,27.74413 6.714409,27.59281 6.450377,27.44149 6.153123,27.21806 6.053846,27.09631 5.954566,26.97456 5.671637,26.74597 5.425108,26.58833 5.166481,26.42295 4.874108,26.16372 4.733937,25.97549 4.600322,25.79608 4.352126,25.55711 4.182391,25.44445 3.975191,25.30692 3.784134,25.09154 3.600966,24.78898 3.450917,24.54113 3.210495,24.24845 3.066694,24.13858 2.895145,24.0075 2.673138,23.70604 2.421082,23.26191 2.209796,22.88961 1.887695,22.41474 1.705301,22.20664 1.331737,21.78042 1.204233,21.45254 0.884966,20.0971 0.775158,19.63091 0.605985,19.0284 0.509026,18.75818 0.157558,17.77864 0,16.61274 0,14.99145 0,13.37017 0.157558,12.20426 0.509026,11.22473 0.605986,10.95451 0.775158,10.35199 0.884966,9.8858 1.204233,8.53036 1.331737,8.20248 1.705301,7.77627 1.887695,7.56817 2.209796,7.09329 2.421082,6.721 2.673138,6.27686 2.895145,5.9754 3.066694,5.84433 3.210495,5.73445 3.450917,5.44177 3.600966,5.19392 3.784134,4.89137 3.975191,4.67598 4.182391,4.53845 4.352126,4.42579 4.600322,4.18682 4.733937,4.00741 4.874108,3.81918 5.166481,3.55995 5.425108,3.39457 5.671637,3.23693 5.954569,3.00834 6.053846,2.88659 6.153126,2.76484 6.450377,2.54142 6.714409,2.3901 6.978442,2.23877 7.361145,1.97426 7.564861,1.80228 8.083626,1.36435 8.500685,1.18696 9.745788,0.87467 10.342341,0.72504 11.151281,0.50396 11.543434,0.38337 12.567481,0.06848 13.186046,0 15.006603,0 c 1.820559,0 2.439123,0.0685 3.46317,0.38337 0.392153,0.12059 1.201094,0.34167 1.797646,0.4913 1.245104,0.31229 1.662163,0.48968 2.180927,0.92761 0.203716,0.17198 0.58642,0.43649 0.850452,0.58782 0.264033,0.15132 0.561286,0.37474 0.660563,0.49649 0.09928,0.12175 0.382209,0.35034 0.628739,0.50798 0.258626,0.16538 0.550999,0.42461 0.691171,0.61284 0.133615,0.17941 0.38181,0.41838 0.551546,0.53104 0.207199,0.13753 0.398256,0.35292 0.581424,0.65547 0.150049,0.24785 0.390472,0.54053 0.534273,0.65041 0.171548,0.13107 0.393556,0.43253 0.645611,0.87667 0.211286,0.37229 0.533388,0.84717 0.715781,1.05527 0.373565,0.42621 0.501069,0.75409 0.820335,2.10953 0.109809,0.46619 0.278982,1.06871 0.37594,1.33893 0.432729,1.206 0.577278,2.68556 0.452923,4.63597 -0.08877,1.39224 -0.186542,1.99247 -0.450376,2.76483 -0.09261,0.27112 -0.243472,0.83838 -0.335246,1.26059 -0.292942,1.34769 -0.465226,1.79188 -0.918392,2.36785 -0.222929,0.28335 -0.531799,0.74969 -0.686378,1.03632 -0.154578,0.28664 -0.403628,0.62964 -0.553445,0.76224 -0.149815,0.1326 -0.403924,0.4359 -0.564687,0.674 -0.160762,0.2381 -0.451691,0.56236 -0.646508,0.72059 -0.194817,0.15823 -0.444118,0.41353 -0.554001,0.56734 -0.110106,0.15412 -0.404089,0.4095 -0.654921,0.56892 -0.250325,0.15909 -0.523306,0.3782 -0.606625,0.48692 -0.08332,0.10872 -0.363146,0.31897 -0.621837,0.46723 -0.258691,0.14827 -0.64384,0.41603 -0.855888,0.59504 -0.55084,0.46501 -1.021787,0.6698 -2.246934,0.97707 -0.593498,0.14885 -1.39994,0.36921 -1.792093,0.48968 -0.392153,0.12048 -0.957464,0.25176 -1.256248,0.29173 -0.572956,0.0767 -2.795526,0.13793 -3.429217,0.0945 z M 25.834904,14.30444 c 0.12116,-0.0386 0.292395,-0.14418 0.380521,-0.23467 0.28326,-0.29088 0.188017,-0.87398 -0.555648,-3.40186 -0.07467,-0.25382 -0.249913,-0.61943 -0.39249,-0.81886 C 25.125612,9.65089 24.887192,9.23591 24.737463,8.92686 24.523413,8.48506 24.332675,8.22604 23.845034,7.71496 23.503928,7.35746 23.224459,7.0439 23.223992,7.01816 23.223533,6.99246 22.810784,6.62205 22.30679,6.1951 21.594527,5.59172 21.25802,5.35641 20.795897,5.13855 20.468901,4.9844 20.018014,4.74486 19.793926,4.60625 19.334315,4.32196 18.633486,4.084 17.78715,3.92487 17.471656,3.86557 17.035384,3.7568 16.817654,3.68321 16.433425,3.55335 16.417734,3.55295 16.284162,3.66951 c -0.07569,0.066 -0.196252,0.23089 -0.267913,0.36634 -0.124852,0.23599 -0.130189,0.43755 -0.127797,4.8263 0.0015,2.76866 0.02935,4.71665 0.07041,4.92547 0.03735,0.18999 0.126809,0.40593 0.198798,0.47986 0.129789,0.1333 0.170124,0.13431 4.793924,0.12078 3.093831,-0.009 4.737166,-0.0373 4.883324,-0.0838 z"
     id="path215"
     inkscape:connector-curvature="0" />
</svg>
