<?xml version="1.0" encoding="UTF-8" standalone="no"?>
<!-- Created with Inkscape (http://www.inkscape.org/) -->

<svg
   xmlns:dc="http://purl.org/dc/elements/1.1/"
   xmlns:cc="http://creativecommons.org/ns#"
   xmlns:rdf="http://www.w3.org/1999/02/22-rdf-syntax-ns#"
   xmlns:svg="http://www.w3.org/2000/svg"
   xmlns="http://www.w3.org/2000/svg"
   xmlns:sodipodi="http://sodipodi.sourceforge.net/DTD/sodipodi-0.dtd"
   xmlns:inkscape="http://www.inkscape.org/namespaces/inkscape"
   version="1.1"
   id="svg12"
   width="29.999998"
   height="30.000008"
   viewBox="0 0 29.999998 30.000007"
   sodipodi:docname="spinner1.svg"
   inkscape:version="0.92.2 5c3e80d, 2017-08-06">
  <metadata
     id="metadata18">
    <rdf:RDF>
      <cc:Work
         rdf:about="">
        <dc:format>image/svg+xml</dc:format>
        <dc:type
           rdf:resource="http://purl.org/dc/dcmitype/StillImage" />
        <dc:title />
      </cc:Work>
    </rdf:RDF>
  </metadata>
  <defs
     id="defs16" />
  <sodipodi:namedview
     pagecolor="#ffffff"
     bordercolor="#666666"
     borderopacity="1"
     objecttolerance="10"
     gridtolerance="10"
     guidetolerance="10"
     inkscape:pageopacity="0"
     inkscape:pageshadow="2"
     inkscape:window-width="1918"
     inkscape:window-height="1027"
     id="namedview14"
     showgrid="false"
     inkscape:pagecheckerboard="true"
     inkscape:zoom="0.34235978"
     inkscape:cx="-566.499"
     inkscape:cy="329.1209"
     inkscape:window-x="0"
     inkscape:window-y="0"
     inkscape:window-maximized="1"
     inkscape:current-layer="svg12" />
  <path
     style="fill:#ffffff;stroke-width:0.06793325"
     d="m 14.072106,29.967742 c -0.777172,-0.0704 -1.317384,-0.20115 -2.068772,-0.50075 -0.414687,-0.16536 -0.828938,-0.26483 -1.495392,-0.35909 -1.095108,-0.15488 -1.69353,-0.33904 -2.086488,-0.64212 -0.158882,-0.12255 -0.491335,-0.33437 -0.738785,-0.47073 -0.650597,-0.35852 -1.014007,-0.60438 -1.430996,-0.96814 -0.202554,-0.17669 -0.535633,-0.42829 -0.740176,-0.55911 -0.204543,-0.13082 -0.472651,-0.37299 -0.595797,-0.53817 -0.123145,-0.16518 -0.383899,-0.42215 -0.579454,-0.57104 -0.195556,-0.1489 -0.519849,-0.49965 -0.720653,-0.77943 -0.200803,-0.27979 -0.522324,-0.68872 -0.714489,-0.90874 -0.192165,-0.22003 -0.459242,-0.61891 -0.593505,-0.8864 -0.134262,-0.2675 -0.369664,-0.62609 -0.523115,-0.79687 -0.463905,-0.51631 -0.68346,-1.14908 -0.815556,-2.35049 -0.05318,-0.48371 -0.15282,-0.90612 -0.322391,-1.3668 C 0.170192,16.975762 0,16.115762 0,15.002852 c 0,-1.1129 0.170192,-1.9729 0.646537,-3.267 0.169571,-0.46068 0.269207,-0.8831 0.322391,-1.36681 0.132096,-1.2014095 0.351651,-1.8341795 0.815556,-2.3504795 0.153451,-0.17079 0.388853,-0.52938 0.523115,-0.79687 0.134263,-0.2675 0.40134,-0.66638 0.593505,-0.8864 0.192165,-0.22002 0.513686,-0.62896 0.714489,-0.90874 0.200804,-0.27979 0.525097,-0.63053 0.720653,-0.77943 0.195555,-0.1489 0.456309,-0.40587 0.579454,-0.57104 0.123146,-0.16518 0.391254,-0.40736 0.595797,-0.53818 0.204543,-0.13082 0.537622,-0.38242 0.740176,-0.55911 0.416989,-0.36375 0.780399,-0.60962 1.430996,-0.96813 0.24745,-0.13636 0.579903,-0.34819 0.738785,-0.47073 0.392958,-0.30308 0.99138,-0.48725 2.086488,-0.64213002 0.666454,-0.0942 1.080705,-0.19373 1.495392,-0.35908 0.790574,-0.31523 1.26555,-0.42346 2.207622,-0.50301 1.355778,-0.11449 2.704754,0.0494 3.68102,0.44709 0.584277,0.23804 0.733859,0.27492 1.583759,0.39048 1.039134,0.14130002 1.744779,0.36812002 2.23571,0.71865002 0.221604,0.15823 0.66021,0.43354 0.974681,0.61179 0.31447,0.17826 0.778381,0.50078 1.030914,0.71671 0.252533,0.21593 0.621937,0.49671 0.820899,0.62396 0.198961,0.12725 0.462503,0.36651 0.585649,0.53169 0.123145,0.16517 0.380562,0.4196 0.572038,0.56539 0.191474,0.14579 0.523037,0.50104 0.736805,0.78944 0.213768,0.2884 0.536917,0.69988 0.718117,0.91439 0.1812,0.21452 0.45878,0.63006 0.61684,0.92342 0.15806,0.29336 0.40226,0.66001 0.54266,0.81476 0.41945,0.46232 0.54264,0.85905 0.8614,2.7742495 0.06,0.36045 0.21678,0.92399 0.34842,1.25231 0.37131,0.92614 0.48013,1.58176 0.48013,2.89281 0,1.31105 -0.10882,1.96668 -0.48013,2.89281 -0.13164,0.32832 -0.28842,0.89186 -0.34842,1.25232 -0.31876,1.91519 -0.44195,2.31192 -0.8614,2.77425 -0.1404,0.15475 -0.3846,0.52139 -0.54266,0.81475 -0.15806,0.29337 -0.43564,0.70891 -0.61684,0.92342 -0.1812,0.21452 -0.504349,0.62599 -0.718117,0.91439 -0.213768,0.2884 -0.545331,0.64365 -0.736805,0.78944 -0.191476,0.1458 -0.448893,0.40022 -0.572038,0.5654 -0.123146,0.16518 -0.386688,0.40443 -0.585649,0.53168 -0.198962,0.12725 -0.568366,0.40804 -0.820899,0.62397 -0.252533,0.21593 -0.716444,0.53844 -1.030914,0.7167 -0.314471,0.17826 -0.753077,0.45357 -0.974681,0.61179 -0.494379,0.353 -1.199685,0.57824 -2.254315,0.71993 -0.424381,0.057 -0.950114,0.16784 -1.168296,0.24628 -0.975275,0.35061 -1.32619,0.45419 -1.7467,0.51559 -0.710074,0.10369 -1.777697,0.13488 -2.470028,0.0722 z m 2.870552,-2.89087 c 0.21784,-0.0883 0.598459,-0.20975 0.84582,-0.26984 0.911786,-0.22152 2.140317,-0.64878 2.535239,-0.88171 0.22347,-0.13181 0.743313,-0.43573 1.155208,-0.67538 0.411895,-0.23965 0.84796,-0.54595 0.969035,-0.68067 0.121074,-0.13472 0.414883,-0.38678 0.65291,-0.56013 0.238026,-0.17335 0.524901,-0.44416 0.637499,-0.6018 0.112599,-0.15764 0.385063,-0.46369 0.605476,-0.68011 0.225128,-0.22104 0.537252,-0.63401 0.712228,-0.94233 0.171311,-0.30186 0.459993,-0.74833 0.641516,-0.99215 0.216368,-0.29063 0.378834,-0.60625 0.471709,-0.91638 0.145345,-0.48534 0.407138,-1.24864 0.71106,-2.07323 0.22361,-0.60667 0.33835,-1.55629 0.33835,-2.80029 0,-1.24399 -0.11474,-2.19362 -0.33835,-2.80029 -0.303922,-0.82458 -0.565715,-1.58789 -0.71106,-2.07323 -0.09288,-0.3101295 -0.255341,-0.6257495 -0.471709,-0.9163795 -0.181523,-0.24382 -0.470205,-0.69029 -0.641516,-0.99215 -0.174976,-0.30832 -0.4871,-0.72128 -0.712228,-0.94233 -0.220413,-0.21641 -0.492877,-0.52246 -0.605476,-0.68011 -0.112598,-0.15764 -0.399473,-0.42845 -0.637499,-0.6018 -0.238027,-0.17335 -0.531836,-0.4254 -0.65291,-0.56012 -0.121075,-0.13473 -0.55714,-0.44103 -0.969035,-0.68068 -0.411895,-0.23965 -0.931738,-0.54357 -1.155208,-0.67537 -0.394922,-0.23294 -1.623453,-0.6602 -2.535239,-0.88171 -0.247361,-0.0601 -0.634172,-0.18404 -0.85958,-0.27542 -0.567734,-0.23018 -0.679521,-0.17223 -0.885471,0.45905 l -0.158574,0.48606 v 11.1344795 11.13449 l 0.15688,0.48068 c 0.138619,0.42473 0.274476,0.61078 0.450852,0.6174 0.0297,0.001 0.232232,-0.0702 0.450073,-0.15855 z"
     id="path194"
     inkscape:connector-curvature="0" />
</svg>
