<?xml version="1.0" encoding="UTF-8" standalone="no"?>
<!-- Created with Inkscape (http://www.inkscape.org/) -->

<svg
   xmlns:dc="http://purl.org/dc/elements/1.1/"
   xmlns:cc="http://creativecommons.org/ns#"
   xmlns:rdf="http://www.w3.org/1999/02/22-rdf-syntax-ns#"
   xmlns:svg="http://www.w3.org/2000/svg"
   xmlns="http://www.w3.org/2000/svg"
   xmlns:sodipodi="http://sodipodi.sourceforge.net/DTD/sodipodi-0.dtd"
   xmlns:inkscape="http://www.inkscape.org/namespaces/inkscape"
   version="1.1"
   id="svg22"
   width="30"
   height="29.999924"
   viewBox="0 0 30 29.999924"
   sodipodi:docname="spinner2.svg"
   inkscape:version="0.92.2 5c3e80d, 2017-08-06">
  <metadata
     id="metadata28">
    <rdf:RDF>
      <cc:Work
         rdf:about="">
        <dc:format>image/svg+xml</dc:format>
        <dc:type
           rdf:resource="http://purl.org/dc/dcmitype/StillImage" />
        <dc:title />
      </cc:Work>
    </rdf:RDF>
  </metadata>
  <defs
     id="defs26" />
  <sodipodi:namedview
     pagecolor="#ffffff"
     bordercolor="#666666"
     borderopacity="1"
     objecttolerance="10"
     gridtolerance="10"
     guidetolerance="10"
     inkscape:pageopacity="0"
     inkscape:pageshadow="2"
     inkscape:window-width="1918"
     inkscape:window-height="1027"
     id="namedview24"
     showgrid="false"
     inkscape:pagecheckerboard="true"
     inkscape:zoom="0.34235978"
     inkscape:cx="-555.64045"
     inkscape:cy="309.15159"
     inkscape:window-x="0"
     inkscape:window-y="0"
     inkscape:window-maximized="1"
     inkscape:current-layer="svg22" />
  <path
     style="fill:#ffffff;stroke-width:0.06795556"
     d="m 14.050966,29.940963 c -0.747691,-0.0641 -1.338597,-0.2012 -1.962596,-0.45549 -0.508551,-0.20724 -0.896024,-0.30003 -1.698434,-0.40674 -1.104119,-0.14682 -1.669633,-0.34116 -2.218362,-0.76234 -0.152513,-0.11707 -0.472757,-0.32505 -0.711655,-0.4622 -0.238898,-0.13714 -0.75534,-0.49563 -1.14765,-0.79665 -0.39231,-0.30101 -0.822338,-0.61206 -0.955617,-0.69121 -0.133281,-0.0792 -0.345418,-0.28185 -0.471416,-0.45044 -0.125998,-0.16859 -0.389286,-0.42821 -0.585087,-0.57694 -0.1958,-0.14872 -0.485467,-0.45418 -0.643705,-0.67881 -0.158237,-0.22462 -0.461318,-0.59949 -0.673514,-0.83305 -0.212194,-0.23355 -0.509717,-0.66821 -0.66116,-0.9659 -0.151444,-0.2977 -0.427302,-0.72309 -0.613018,-0.94532 -0.385442,-0.46121 -0.607375,-1.02517 -0.71452397,-1.81569 -0.141679,-1.04528 -0.220554,-1.38821 -0.461453,-2.00625 C 0.11182903,17.013973 -6.7969032e-5,16.362553 3.0968451e-8,14.992353 5.2030968e-5,13.613403 0.13020503,12.863873 0.53805203,11.893383 c 0.251285,-0.59794 0.345764,-1.00072 0.453346,-1.9327005 0.09354,-0.81036 0.32111697,-1.42487 0.67698197,-1.82802 0.162469,-0.18406 0.440524,-0.61373 0.617902,-0.95482 0.177377,-0.34109 0.471883,-0.77722 0.654456,-0.96917 0.182573,-0.19196 0.485477,-0.56316 0.67312,-0.8249 0.187643,-0.26174 0.504807,-0.60018 0.704809,-0.7521 0.2,-0.15191 0.461398,-0.40947 0.580883,-0.57236 0.119484,-0.16289 0.373959,-0.39253 0.565499,-0.51032 0.191541,-0.11778 0.582507,-0.40303 0.868815,-0.63388 0.286306,-0.23086 0.754525,-0.5585 1.040486,-0.7281 0.285961,-0.16959 0.644711,-0.40357 0.797224,-0.51995 0.555024,-0.42352 1.187625,-0.63191 2.329387,-0.76733998 0.719169,-0.0853 0.969388,-0.14788 1.56741,-0.39201 0.674357,-0.27529 1.199876,-0.39155 2.120383,-0.4691 1.446994,-0.12189 2.606835,0.0395 4.024235,0.55983 0.261101,0.0959 0.807026,0.22079 1.213167,0.27762 1.312123,0.18359998 1.827776,0.35326998 2.40221,0.79043998 0.152513,0.11606 0.459477,0.3141 0.682143,0.44008 0.222666,0.12598 0.679696,0.44067 1.015621,0.69932 0.335924,0.25865 0.782361,0.58383 0.99208,0.72262 0.209719,0.1388 0.481269,0.38611 0.603444,0.54959 0.122175,0.16347 0.382337,0.41891 0.578137,0.56763 0.1958,0.14872 0.485467,0.45419 0.643705,0.67881 0.158237,0.22463 0.461319,0.5995 0.673513,0.83305 0.212196,0.23355 0.509718,0.66821 0.661162,0.9659 0.151443,0.2977 0.43041,0.72682 0.619926,0.95359 0.383757,0.4592 0.59031,0.96897 0.703401,1.73599 0.03916,0.2656305 0.103334,0.6964905 0.1426,0.9574805 0.03927,0.26098 0.183559,0.76228 0.320652,1.114 0.423388,1.08623 0.53525,1.73572 0.53525,3.10779 0,1.37206 -0.111862,2.02155 -0.53525,3.10778 -0.137093,0.35172 -0.281386,0.85302 -0.320652,1.11401 -0.03927,0.26098 -0.103436,0.69184 -0.1426,0.95747 -0.113091,0.76702 -0.319644,1.27679 -0.703401,1.73599 -0.189516,0.22678 -0.468483,0.65589 -0.619926,0.95359 -0.151444,0.29769 -0.448966,0.73235 -0.661162,0.9659 -0.212194,0.23356 -0.515276,0.60843 -0.673513,0.83305 -0.158238,0.22463 -0.447905,0.53009 -0.643705,0.67881 -0.1958,0.14873 -0.455962,0.40416 -0.578137,0.56764 -0.122175,0.16347 -0.393725,0.41078 -0.603444,0.54958 -0.209719,0.13879 -0.656156,0.46397 -0.99208,0.72262 -0.335925,0.25865 -0.792955,0.57335 -1.015621,0.69932 -0.222666,0.12598 -0.52963,0.32402 -0.682143,0.44008 -0.574434,0.43717 -1.090087,0.60684 -2.40221,0.79044 -0.406141,0.0568 -0.952066,0.18176 -1.213167,0.27762 -0.937331,0.34412 -1.551467,0.4891 -2.360943,0.55734 -0.897231,0.0756 -0.887555,0.0756 -1.80108,-0.003 z m 2.855409,-2.88702 c 0.761514,-0.16842 2.946473,-0.88776 3.306339,-1.08853 1.173128,-0.65449 1.95268,-1.15522 2.347217,-1.50769 0.249848,-0.2232 0.569039,-0.48911 0.709312,-0.59089 0.140273,-0.10179 0.379054,-0.36055 0.530624,-0.57502 0.15157,-0.21448 0.393903,-0.48027 0.538517,-0.59066 0.144614,-0.11039 0.407102,-0.43617 0.583306,-0.72396 0.614921,-1.00434 0.692022,-1.12457 0.890904,-1.38924 0.110122,-0.14655 0.266247,-0.47629 0.346944,-0.73276 0.0807,-0.25647 0.305446,-0.93094 0.499442,-1.49882 0.437756,-1.28145 0.541002,-1.92345 0.541002,-3.36402 0,-1.44058 -0.103246,-2.08257 -0.541002,-3.36403 -0.193996,-0.56788 -0.418745,-1.24235 -0.499442,-1.49882 -0.0807,-0.2564605 -0.236822,-0.5862005 -0.346944,-0.7327605 -0.198882,-0.26467 -0.275983,-0.3849 -0.890904,-1.38924 -0.176204,-0.28779 -0.438692,-0.61357 -0.583306,-0.72396 -0.144614,-0.11039 -0.386947,-0.37618 -0.538517,-0.59066 -0.15157,-0.21447 -0.390351,-0.47323 -0.530624,-0.57501 -0.140273,-0.10179 -0.459464,-0.36769 -0.709312,-0.5909 -0.401179,-0.35841 -1.292489,-0.92865 -2.372084,-1.51761 -0.437669,-0.23877 -3.33529,-1.18902 -3.658022,-1.19962 -0.197414,-0.006 -0.259671,0.0278 -0.365808,0.20124 -0.319947,0.52294 -0.339712,0.91654 -0.325059,6.47303 0.01349,5.1144705 0.01106,5.2200705 -0.124223,5.3957605 -0.283896,0.36868 -0.07745,0.35657 -5.940693,0.34857 -5.444747,-0.007 -6.133598,0.0165 -6.674858,0.23161 -0.374344,0.1488 -0.398339,0.27214 -0.230674,1.18574 0.0928,0.50568 0.248297,1.04982 0.4127,1.44422 0.145086,0.34806 0.364756,0.97757 0.488156,1.3989 0.24538,0.83783 0.316953,0.99702 0.654994,1.45681 0.124735,0.16966 0.360377,0.53329 0.523651,0.80808 0.163274,0.27478 0.520417,0.72443 0.793652,0.99921 0.273236,0.27479 0.56608,0.60944 0.650765,0.74368 0.08469,0.13424 0.310036,0.34031 0.50078,0.45792 0.190744,0.11762 0.478419,0.35755 0.639277,0.53319 0.18734,0.20455 0.541659,0.45634 0.985708,0.70046 0.381281,0.20962 0.836092,0.48066 1.01069,0.60231 0.387489,0.26999 0.51118,0.31805 1.519629,0.59047 0.438474,0.11845 1.019835,0.30943 1.291914,0.4244 0.817484,0.34543 1.13203,0.38528 2.902177,0.36766 0.796732,-0.008 1.335706,-0.0465 1.663772,-0.11906 z"
     id="path173"
     inkscape:connector-curvature="0" />
</svg>
