<?xml version="1.0" encoding="UTF-8" standalone="no"?>
<!-- Created with Inkscape (http://www.inkscape.org/) -->

<svg
   xmlns:dc="http://purl.org/dc/elements/1.1/"
   xmlns:cc="http://creativecommons.org/ns#"
   xmlns:rdf="http://www.w3.org/1999/02/22-rdf-syntax-ns#"
   xmlns:svg="http://www.w3.org/2000/svg"
   xmlns="http://www.w3.org/2000/svg"
   xmlns:sodipodi="http://sodipodi.sourceforge.net/DTD/sodipodi-0.dtd"
   xmlns:inkscape="http://www.inkscape.org/namespaces/inkscape"
   version="1.1"
   id="svg62"
   width="30"
   height="30.000004"
   viewBox="0 0 30 30.000004"
   sodipodi:docname="spinner6.svg"
   inkscape:version="0.92.2 5c3e80d, 2017-08-06">
  <metadata
     id="metadata68">
    <rdf:RDF>
      <cc:Work
         rdf:about="">
        <dc:format>image/svg+xml</dc:format>
        <dc:type
           rdf:resource="http://purl.org/dc/dcmitype/StillImage" />
        <dc:title />
      </cc:Work>
    </rdf:RDF>
  </metadata>
  <defs
     id="defs66" />
  <sodipodi:namedview
     pagecolor="#ffffff"
     bordercolor="#666666"
     borderopacity="1"
     objecttolerance="10"
     gridtolerance="10"
     guidetolerance="10"
     inkscape:pageopacity="0"
     inkscape:pageshadow="2"
     inkscape:window-width="1918"
     inkscape:window-height="1027"
     id="namedview64"
     showgrid="false"
     inkscape:pagecheckerboard="true"
     inkscape:zoom="1.13"
     inkscape:cx="81.674532"
     inkscape:cy="-313.68574"
     inkscape:window-x="0"
     inkscape:window-y="0"
     inkscape:window-maximized="1"
     inkscape:current-layer="svg62" />
  <path
     style="fill:#ffffff;stroke-width:0.06797934"
     d="m 13.81539,29.938712 c -0.697942,-0.0779 -1.278937,-0.22998 -1.899838,-0.4974 -0.396799,-0.1709 -0.758295,-0.26111 -1.445247,-0.36066 -1.5068108,-0.21834 -1.5106698,-0.2199 -3.1648116,-1.28351 -0.442514,-0.28454 -0.950911,-0.64657 -1.129773,-0.80451 -0.178861,-0.15794 -0.475139,-0.38449 -0.658395,-0.50344 -0.183256,-0.11895 -0.464377,-0.37605 -0.624714,-0.57134 -0.160336,-0.19529 -0.452862,-0.47796 -0.650058,-0.62815 -0.197196,-0.15019 -0.436209,-0.39987 -0.53114,-0.55484 -0.09493,-0.15498 -0.361226,-0.48643 -0.591766,-0.73656 -0.23054,-0.25014 -0.559191,-0.7145 -0.730335,-1.03193 -0.171144,-0.31742 -0.468573,-0.76497 -0.660953,-0.99455 -0.444805,-0.53082 -0.683475,-1.21802 -0.77662602,-2.23613 -0.06415,-0.70117 -0.107649,-0.85836 -0.577601,-2.08721 -0.297859,-0.77885 -0.407774,-1.67594 -0.365374,-2.98203 0.04162,-1.28204 0.131258,-1.75115 0.529799,-2.77265 0.218966,-0.56124 0.298829,-0.89172 0.383576,-1.58729 C 1.0677144,9.1116423 1.2931054,8.4788228 1.7478194,7.9882628 c 0.125252,-0.13512 0.378428,-0.52193 0.562613,-0.85958 0.184185,-0.33764 0.521172,-0.81518 0.748861,-1.0612 0.227689,-0.24601 0.501822,-0.58392 0.609184,-0.7509 0.107363,-0.16698 0.408879,-0.48682 0.670037,-0.71075 0.261158,-0.22393 0.550384,-0.5129 0.642725,-0.64215 0.09234,-0.12926 0.313114,-0.32619 0.490608,-0.43764 0.177493,-0.11145 0.531882,-0.37673 0.787531,-0.5895 0.255648,-0.21278 0.754886,-0.56662 1.109416,-0.78632 0.35453,-0.2197 0.813902,-0.51036 1.020826,-0.64592 0.4366348,-0.28604 1.0908288,-0.47275 2.1536166,-0.61465003 0.738626,-0.0986 0.921714,-0.14823 1.693235,-0.45884 1.191382,-0.47966003 3.491043,-0.57431003 4.991021,-0.20543 0.232737,0.0572 0.669375,0.21013 0.970308,0.33977 0.40958,0.17644 0.765737,0.26732 1.416531,0.36144 1.373798,0.19869003 1.663353,0.30547003 2.785303,1.02714003 1.311587,0.84365 2.316098,1.63239 3.170607,2.48954 0.977118,0.98015 1.991485,2.20812 2.314932,2.80241 0.150188,0.27595 0.371775,0.62048 0.492415,0.76562 0.468468,0.5636 0.709467,1.2182295 0.862471,2.3427392 0.107934,0.79327 0.190881,1.14419 0.570839,2.41501 0.18229,0.60968 0.189101,0.69002 0.189101,2.23028 0,1.54027 -0.0068,1.6206 -0.189101,2.23029 -0.379958,1.27081 -0.462905,1.62173 -0.570839,2.415 -0.153004,1.12452 -0.394003,1.77915 -0.862471,2.34275 -0.12064,0.14513 -0.342227,0.48966 -0.492415,0.76562 -0.323447,0.59429 -1.337814,1.82226 -2.314932,2.8024 -0.854509,0.85716 -1.85902,1.64589 -3.170607,2.48955 -1.12195,0.72167 -1.411505,0.82845 -2.785303,1.02714 -0.650794,0.0941 -1.006951,0.185 -1.416531,0.36144 -0.300933,0.12963 -0.734564,0.28175 -0.963625,0.33804 -0.906328,0.22272 -2.306943,0.2912 -3.418786,0.16715 z m 1.386562,-15.3573 0.158085,-0.15163 0.01937,-5.0745697 c 0.01691,-4.4311995 0.0053,-5.1414895 -0.09139,-5.6024095 -0.203763,-0.97109 -0.337776,-1.07872 -1.170432,-0.94004 -1.219536,0.20312 -3.769953,0.95499 -4.2758458,1.26054 -0.209973,0.12681 -0.740979,0.42925 -1.1800128,0.67207 -0.487509,0.26964 -0.889283,0.54485 -1.032113,0.70699 -0.128627,0.14601 -0.420366,0.38695 -0.648307,0.53542 -0.227941,0.14847 -0.513146,0.4093 -0.633788,0.57963 -0.120643,0.17033 -0.39809,0.48443 -0.616548,0.69801 -0.222754,0.21778 -0.554609,0.65637 -0.75561,0.99864 -0.197126,0.33567 -0.449266,0.72256 -0.560312,0.8597495 -0.207326,0.25614 -0.540902,0.8879597 -0.542111,1.0267997 -3.64e-4,0.0428 -0.186868,0.61206 -0.414435,1.26494 -0.227566,0.65288 -0.460402,1.44171 -0.517413,1.75295 -0.05701,0.31124 -0.124538,0.66291 -0.150059,0.78149 -0.05971,0.27741 0.09609,0.51371 0.401998,0.6097 0.524185,0.16449 1.458019,0.19056 6.5253318,0.18217 l 5.3255068,-0.009 z"
     id="path72"
     inkscape:connector-curvature="0" />
</svg>
