<?xml version="1.0" encoding="UTF-8" standalone="no"?>
<!-- Created with Inkscape (http://www.inkscape.org/) -->

<svg
   xmlns:dc="http://purl.org/dc/elements/1.1/"
   xmlns:cc="http://creativecommons.org/ns#"
   xmlns:rdf="http://www.w3.org/1999/02/22-rdf-syntax-ns#"
   xmlns:svg="http://www.w3.org/2000/svg"
   xmlns="http://www.w3.org/2000/svg"
   xmlns:sodipodi="http://sodipodi.sourceforge.net/DTD/sodipodi-0.dtd"
   xmlns:inkscape="http://www.inkscape.org/namespaces/inkscape"
   version="1.1"
   id="svg32"
   width="30"
   height="30.000002"
   viewBox="0 0 30 30.000002"
   sodipodi:docname="spinner3.svg"
   inkscape:version="0.92.2 5c3e80d, 2017-08-06">
  <metadata
     id="metadata38">
    <rdf:RDF>
      <cc:Work
         rdf:about="">
        <dc:format>image/svg+xml</dc:format>
        <dc:type
           rdf:resource="http://purl.org/dc/dcmitype/StillImage" />
        <dc:title />
      </cc:Work>
    </rdf:RDF>
  </metadata>
  <defs
     id="defs36" />
  <sodipodi:namedview
     pagecolor="#ffffff"
     bordercolor="#666666"
     borderopacity="1"
     objecttolerance="10"
     gridtolerance="10"
     guidetolerance="10"
     inkscape:pageopacity="0"
     inkscape:pageshadow="2"
     inkscape:window-width="1918"
     inkscape:window-height="1027"
     id="namedview34"
     showgrid="false"
     inkscape:pagecheckerboard="true"
     inkscape:zoom="0.34235978"
     inkscape:cx="-530.36154"
     inkscape:cy="330.4087"
     inkscape:window-x="0"
     inkscape:window-y="0"
     inkscape:window-maximized="1"
     inkscape:current-layer="svg32" />
  <path
     style="fill:#ffffff;stroke-width:0.06697383"
     d="M 13.738637,29.98778 C 12.942658,29.91038 12.321358,29.80063 11.831159,29.65069 11.530271,29.55869 10.757528,29.35657 10.113951,29.2016 8.743257,28.87154 8.501969,28.77703 7.909091,28.33797 7.665341,28.15745 7.251137,27.88167 6.988636,27.72512 6.726137,27.56857 6.357955,27.30006 6.170455,27.12844 5.982955,26.95681 5.65364,26.70926 5.438644,26.57831 5.217539,26.44364 4.93309,26.19048 4.783795,25.99549 4.638625,25.80587 4.373752,25.53523 4.19519,25.39405 4.016627,25.25287 3.763078,24.97528 3.631749,24.77719 3.500419,24.5791 3.231623,24.26565 3.034424,24.08064 2.786042,23.84761 2.576222,23.55224 2.35152,23.11928 2.173121,22.77554 1.894857,22.35225 1.733153,22.17863 1.333782,21.74983 1.24206,21.50171 0.731167,19.46809 0.676627,19.25099 0.522155,18.67132 0.387896,18.17994 0.102368,17.13491 0,16.29427 0,14.99456 0,13.69484 0.102368,12.85421 0.387896,11.80918 0.522155,11.31779 0.676627,10.73812 0.731167,10.52103 1.24206,8.48741 1.333782,8.23929 1.733153,7.81048 1.894857,7.63686 2.173121,7.21357 2.35152,6.86983 2.576222,6.43688 2.786042,6.1415 3.034424,5.90847 3.231623,5.72346 3.500419,5.41001 3.631749,5.21192 3.763078,5.01383 4.016627,4.73625 4.19519,4.59507 4.373752,4.45389 4.638625,4.18324 4.783795,3.99363 4.93309,3.79864 5.217539,3.54547 5.438644,3.4108 5.65364,3.27986 5.982955,3.0323 6.170455,2.86068 6.357955,2.68905 6.726137,2.42055 6.988636,2.26399 7.251137,2.10744 7.665341,1.83166 7.909091,1.65115 8.501969,1.21208 8.743257,1.11757 10.113951,0.78752 10.757528,0.63255 11.529546,0.43085 11.829545,0.33929 12.725333,0.06591 13.34122,0 15,0 c 1.65878,0 2.274667,0.0659 3.170455,0.33929 0.299999,0.0916 1.072017,0.29326 1.715594,0.44823 1.370694,0.33005 1.611982,0.42456 2.20486,0.86363 0.24375,0.18051 0.657954,0.45629 0.920455,0.61284 0.2625,0.15656 0.630681,0.42506 0.818182,0.59669 0.187499,0.17162 0.516814,0.41918 0.73181,0.55012 0.221105,0.13467 0.505554,0.38784 0.654849,0.58283 0.145171,0.18961 0.410043,0.46026 0.588605,0.60144 0.178563,0.14118 0.432111,0.41876 0.563441,0.61685 0.131331,0.19809 0.400126,0.51154 0.597325,0.69655 0.248381,0.23303 0.458203,0.52841 0.682904,0.96136 0.178399,0.34374 0.456663,0.76703 0.618366,0.94065 0.329684,0.35398 0.514904,0.77413 0.745394,1.69084 0.08643,0.34374 0.201827,0.80261 0.256448,1.01971 0.05462,0.21709 0.209157,0.79676 0.343416,1.28815 C 29.897633,12.85421 30,13.69484 30,14.99456 c 0,1.29971 -0.102367,2.14035 -0.387896,3.18538 -0.134259,0.49138 -0.288797,1.07105 -0.343416,1.28815 -0.05462,0.2171 -0.170022,0.67597 -0.256448,1.0197 -0.23049,0.91671 -0.41571,1.33686 -0.745394,1.69084 -0.161703,0.17362 -0.439967,0.59691 -0.618366,0.94065 -0.224701,0.43296 -0.434523,0.72833 -0.682904,0.96136 -0.197199,0.18501 -0.465994,0.49846 -0.597325,0.69655 -0.13133,0.19809 -0.384878,0.47568 -0.563441,0.61686 -0.178562,0.14118 -0.443434,0.41182 -0.588605,0.60144 -0.149295,0.19499 -0.433744,0.44815 -0.654849,0.58282 -0.214996,0.13095 -0.544311,0.3785 -0.73181,0.55013 -0.187501,0.17162 -0.555682,0.44013 -0.818182,0.59668 -0.262501,0.15655 -0.676705,0.43233 -0.920455,0.61285 -0.598403,0.44315 -0.815395,0.52654 -2.336365,0.89787 -0.721249,0.17609 -1.448507,0.3679 -1.616129,0.42624 -0.588677,0.20491 -1.454381,0.30693 -2.797506,0.32968 -0.73125,0.0124 -1.452273,0.0106 -1.602272,-0.004 z m 3.246305,-3.61343 c 1.461281,-0.28698 2.38891,-0.5456 2.753694,-0.76771 0.1875,-0.11417 0.647728,-0.36785 1.022728,-0.56374 0.375,-0.19588 0.835227,-0.48791 1.022727,-0.64894 0.1875,-0.16103 0.563185,-0.45555 0.834857,-0.65448 0.271671,-0.19893 0.622383,-0.53088 0.77936,-0.73765 0.156977,-0.20677 0.479951,-0.58006 0.717722,-0.82953 0.286972,-0.30109 0.522225,-0.63619 0.699772,-0.99676 0.147104,-0.29876 0.356973,-0.64233 0.466376,-0.76349 0.324543,-0.35944 0.397316,-0.55549 0.829505,-2.23471 0.708316,-2.75207 0.708356,-3.61639 2.56e-4,-6.36557 C 25.679423,10.13246 25.60664,9.93645 25.282145,9.57707 25.172742,9.4559 24.962874,9.11233 24.815769,8.81358 24.638223,8.453 24.40297,8.1179 24.115997,7.81681 23.878227,7.56735 23.555252,7.19406 23.398275,6.98729 23.241299,6.78051 22.890586,6.44857 22.618915,6.24964 22.347244,6.0507 21.971559,5.75619 21.784058,5.59515 21.596558,5.43412 21.136331,5.1421 20.761331,4.94621 20.386331,4.75032 19.926104,4.49664 19.738604,4.38247 19.373835,4.16036 18.446206,3.90175 16.984925,3.61477 16.280595,3.47644 15.950371,3.4489 14.996605,3.4489 c -1.285546,0 -1.57591,0.0425 -3.337531,0.48893 -0.991078,0.25114 -1.2567,0.34499 -1.568182,0.55403 C 9.884642,4.63028 9.427178,4.88694 9.074305,5.06222 8.694714,5.25078 8.263155,5.53176 8.017487,5.7503 7.78911,5.95346 7.440522,6.23225 7.242847,6.36982 7.045172,6.50739 6.786765,6.75759 6.668609,6.92581 6.550452,7.09403 6.240346,7.45039 5.979483,7.71772 5.635652,8.07008 5.434845,8.35056 5.24946,8.73742 5.108811,9.03093 4.866601,9.41909 4.711217,9.6 4.421481,9.93735 4.34469,10.12889 4.065028,11.21179 c -0.08877,0.34374 -0.257864,0.97801 -0.375764,1.4095 -0.429943,1.57349 -0.429641,3.17459 9e-4,4.74997 0.117406,0.4296 0.286096,1.06233 0.374867,1.40606 0.279661,1.08291 0.356452,1.27445 0.646188,1.61179 0.155384,0.18092 0.397594,0.56908 0.538244,0.86258 0.185385,0.38686 0.386191,0.66735 0.730022,1.01971 0.260863,0.26733 0.57097,0.62369 0.689126,0.79191 0.118156,0.16822 0.376564,0.41841 0.574239,0.55598 0.197674,0.13758 0.546262,0.41636 0.774639,0.61952 0.245668,0.21855 0.677228,0.49953 1.056818,0.68808 0.352873,0.17528 0.810337,0.43195 1.016588,0.57037 0.311273,0.2089 0.577765,0.30312 1.568181,0.55446 1.762129,0.44719 1.95465,0.47549 3.280397,0.48232 1.031465,0.005 1.319987,-0.0172 2.045454,-0.15969 z"
     id="path152"
     inkscape:connector-curvature="0" />
</svg>
