<?xml version="1.0" encoding="UTF-8" standalone="no"?>
<!-- Created with Inkscape (http://www.inkscape.org/) -->

<svg
   xmlns:dc="http://purl.org/dc/elements/1.1/"
   xmlns:cc="http://creativecommons.org/ns#"
   xmlns:rdf="http://www.w3.org/1999/02/22-rdf-syntax-ns#"
   xmlns:svg="http://www.w3.org/2000/svg"
   xmlns="http://www.w3.org/2000/svg"
   xmlns:sodipodi="http://sodipodi.sourceforge.net/DTD/sodipodi-0.dtd"
   xmlns:inkscape="http://www.inkscape.org/namespaces/inkscape"
   version="1.1"
   id="svg52"
   width="30.000002"
   height="30.000029"
   viewBox="0 0 30.000002 30.000028"
   sodipodi:docname="spinner5.svg"
   inkscape:version="0.92.2 5c3e80d, 2017-08-06">
  <metadata
     id="metadata58">
    <rdf:RDF>
      <cc:Work
         rdf:about="">
        <dc:format>image/svg+xml</dc:format>
        <dc:type
           rdf:resource="http://purl.org/dc/dcmitype/StillImage" />
        <dc:title />
      </cc:Work>
    </rdf:RDF>
  </metadata>
  <defs
     id="defs56" />
  <sodipodi:namedview
     pagecolor="#ffffff"
     bordercolor="#666666"
     borderopacity="1"
     objecttolerance="10"
     gridtolerance="10"
     guidetolerance="10"
     inkscape:pageopacity="0"
     inkscape:pageshadow="2"
     inkscape:window-width="1918"
     inkscape:window-height="1027"
     id="namedview54"
     showgrid="false"
     inkscape:pagecheckerboard="true"
     inkscape:zoom="0.46"
     inkscape:cx="-362.79299"
     inkscape:cy="301.15195"
     inkscape:window-x="0"
     inkscape:window-y="0"
     inkscape:window-maximized="1"
     inkscape:current-layer="svg52" />
  <path
     style="fill:#ffffff;stroke-width:0.06721599"
     d="m 13.00661,29.924395 c -0.328161,-0.0513 -0.82093,-0.17266 -1.095043,-0.26972 -0.483388,-0.17116 -0.79935,-0.25261 -2.312034,-0.59603 -0.861527,-0.19559 -1.306924,-0.38343 -1.831479,-0.7724 -0.216065,-0.16022 -0.608432,-0.42642 -0.871927,-0.59155 -0.263495,-0.16513 -0.586875,-0.41076 -0.718622,-0.54583 -0.131747,-0.13507 -0.446611,-0.37631 -0.699698,-0.5361 -0.26,-0.16415 -0.548779,-0.41476 -0.663898,-0.57614 -0.112056,-0.1571 -0.387668,-0.43932 -0.61247,-0.62717 -0.224801,-0.18784 -0.500453,-0.49654 -0.612558,-0.686 -0.112106,-0.18946 -0.353178,-0.47908 -0.535717,-0.64359 -0.212337,-0.19137 -0.452836,-0.51906 -0.667654,-0.9097 -0.18467,-0.33582 -0.483633,-0.7883 -0.66436,-1.0055 -0.380358,-0.45714 -0.677915,-1.25028 -0.846711,-2.25691 -0.05624,-0.33536 -0.223987,-0.95184 -0.372782,-1.36995 C 0.121724,17.470215 0,16.613015 0,15.005035 c 0,-1.62197 0.11963,-2.44338 0.528781,-3.63075 0.162643,-0.472 0.315655,-1.02156 0.340026,-1.22125 0.05402,-0.4426197 0.355479,-1.5412497 0.497824,-1.8142497 0.05712,-0.10954 0.218769,-0.33285 0.35923,-0.49623 0.140461,-0.16339 0.416553,-0.58119 0.613538,-0.92846 0.211124,-0.3722 0.523966,-0.79895 0.762057,-1.03953 0.222147,-0.22447 0.464506,-0.52271 0.538575,-0.66275 0.07407,-0.14004 0.322651,-0.4117 0.552405,-0.60368 0.229753,-0.19198 0.509417,-0.47759 0.621473,-0.63468 0.115119,-0.16139 0.403898,-0.412 0.663898,-0.57615 0.253087,-0.15978 0.567951,-0.40103 0.699698,-0.5361 0.131747,-0.13507 0.455127,-0.38069 0.718622,-0.54583 0.263495,-0.16513 0.655862,-0.43133 0.871927,-0.59154 0.525597,-0.38975 1.010019,-0.59445 1.850082,-0.78181001 1.45284,-0.32402 1.808582,-0.41495 2.288394,-0.58494 0.845213,-0.29943 1.697538,-0.38589 3.441961,-0.34914 1.648482,0.0347 2.211034,0.11386 2.977042,0.41882 0.225911,0.0899 0.824671,0.25026 1.330581,0.35628 1.31944,0.27650001 1.8262,0.44702001 2.33609,0.78610001 1.25105,0.83195 1.5582,1.04972 1.87493,1.32934 0.1894,0.16721 0.48295,0.39927 0.65234,0.51569 0.30089,0.20678 1.91633,1.81503 1.91633,1.90779 0,0.0258 0.21415,0.2821 0.47589,0.56968 0.26174,0.28757 0.62227,0.77444 0.80119,1.08192 0.17891,0.30747 0.42894,0.67871 0.55562,0.82496 0.43649,0.50392 0.689,1.17224 0.90205,2.3875097 0.07,0.39939 0.23777,1.09234 0.37278,1.53991 0.60889,2.01849 0.60889,4.53969 0,6.55818 -0.13501,0.44757 -0.30276,1.14053 -0.37278,1.53991 -0.21305,1.21528 -0.46556,1.8836 -0.90205,2.38752 -0.12668,0.14625 -0.37671,0.51748 -0.55562,0.82496 -0.17892,0.30748 -0.53945,0.79434 -0.80119,1.08192 -0.26174,0.28757 -0.47589,0.54393 -0.47589,0.56967 0,0.0928 -1.61544,1.70101 -1.91633,1.9078 -0.16939,0.11641 -0.46294,0.34847 -0.65234,0.51568 -0.31673,0.27962 -0.62388,0.49739 -1.87493,1.32934 -0.50989,0.33908 -1.01665,0.5096 -2.33609,0.7861 -0.50591,0.10602 -1.10467,0.26635 -1.330581,0.35628 -0.793479,0.31589 -1.315676,0.38555 -3.079702,0.41082 -1.190816,0.0171 -1.806661,-0.002 -2.239221,-0.0697 z m 1.848916,-3.20276 c 0.331912,-0.34364 0.318907,0.0974 0.339631,-11.51856 0.01314,-7.3678797 -0.0036,-10.9966997 -0.05183,-11.2150497 -0.09819,-0.4448 -0.261203,-0.75364 -0.424106,-0.80351 -0.07534,-0.0231 -0.264854,0.003 -0.421147,0.0586 -0.156293,0.0553 -0.829403,0.2068 -1.495799,0.33668 -1.366241,0.26627 -2.150811,0.48996 -2.552581,0.72778 -0.150569,0.0891 -0.550944,0.30099 -0.889723,0.47082 -0.770478,0.38624 -1.122224,0.61812 -1.642564,1.0828 -0.225853,0.2017 -0.508094,0.43316 -0.627203,0.51437 -0.119109,0.0812 -0.373383,0.3331 -0.565053,0.55976 -0.19167,0.22667 -0.530533,0.61426 -0.75303,0.86132 -0.222496,0.24706 -0.535491,0.69266 -0.695545,0.99021 -0.160053,0.29755 -0.393888,0.68585 -0.519632,0.86289 -0.125744,0.17703 -0.287572,0.5186597 -0.359618,0.7591597 -0.07205,0.2405 -0.310438,1.04625 -0.529762,1.79055 l -0.39877,1.35328 0.0034,1.48531 0.0034,1.48531 0.31974,1.02889 c 0.175857,0.56589 0.382379,1.288 0.458937,1.6047 0.169446,0.70094 0.251445,0.8603 0.64228,1.24818 0.18481,0.18341 0.361252,0.44808 0.44827,0.67241 0.243105,0.62672 0.405961,0.88044 0.834764,1.30051 0.227224,0.2226 0.515306,0.55878 0.640181,0.74707 0.147169,0.2219 0.353697,0.41751 0.587051,0.556 0.198004,0.11751 0.532501,0.37901 0.743327,0.58111 0.287217,0.27532 0.558808,0.44724 1.083283,0.68571 0.384981,0.17505 0.87125,0.45284 1.080597,0.61731 0.209348,0.16447 0.393489,0.29904 0.409203,0.29904 0.01572,0 0.468788,0.0885 1.00683,0.19664 1.035734,0.20819 2.570085,0.60734 2.773308,0.72145 0.191896,0.10776 0.412991,0.0834 0.552253,-0.0607 z"
     id="path110"
     inkscape:connector-curvature="0" />
  <path
     style="fill:#000000;stroke-width:1.33333337"
     d=""
     id="path108"
     inkscape:connector-curvature="0" />
</svg>
