<?xml version="1.0" encoding="UTF-8" standalone="no"?>
<!-- Created with Inkscape (http://www.inkscape.org/) -->

<svg
   xmlns:dc="http://purl.org/dc/elements/1.1/"
   xmlns:cc="http://creativecommons.org/ns#"
   xmlns:rdf="http://www.w3.org/1999/02/22-rdf-syntax-ns#"
   xmlns:svg="http://www.w3.org/2000/svg"
   xmlns="http://www.w3.org/2000/svg"
   xmlns:sodipodi="http://sodipodi.sourceforge.net/DTD/sodipodi-0.dtd"
   xmlns:inkscape="http://www.inkscape.org/namespaces/inkscape"
   version="1.1"
   id="svg42"
   width="30"
   height="30.000004"
   viewBox="0 0 30 30.000004"
   sodipodi:docname="spinner4.svg"
   inkscape:version="0.92.2 5c3e80d, 2017-08-06">
  <metadata
     id="metadata48">
    <rdf:RDF>
      <cc:Work
         rdf:about="">
        <dc:format>image/svg+xml</dc:format>
        <dc:type
           rdf:resource="http://purl.org/dc/dcmitype/StillImage" />
        <dc:title />
      </cc:Work>
    </rdf:RDF>
  </metadata>
  <defs
     id="defs46" />
  <sodipodi:namedview
     pagecolor="#ffffff"
     bordercolor="#666666"
     borderopacity="1"
     objecttolerance="10"
     gridtolerance="10"
     guidetolerance="10"
     inkscape:pageopacity="0"
     inkscape:pageshadow="2"
     inkscape:window-width="1918"
     inkscape:window-height="1027"
     id="namedview44"
     showgrid="false"
     inkscape:pagecheckerboard="true"
     inkscape:zoom="0.34235978"
     inkscape:cx="-531.0851"
     inkscape:cy="313.03039"
     inkscape:window-x="0"
     inkscape:window-y="0"
     inkscape:window-maximized="1"
     inkscape:current-layer="svg42" />
  <path
     style="fill:#ffffff;stroke-width:0.06699777"
     d="m 13.716764,29.98216 c -0.112624,-0.0149 -0.481212,-0.0602 -0.819085,-0.1005 -0.340166,-0.0406 -0.964614,-0.18615 -1.399271,-0.32612 C 11.066682,29.41651 10.30269,29.21303 9.800649,29.10336 8.724282,28.86823 8.329467,28.7066 7.781833,28.27685 7.558928,28.10193 7.129094,27.81259 6.826646,27.63387 6.524198,27.45516 6.123162,27.16873 5.935455,26.99736 5.747749,26.82599 5.47949,26.61999 5.339326,26.53959 5.199162,26.45919 4.952148,26.22565 4.790406,26.02064 4.628664,25.81562 4.347352,25.53939 4.165267,25.40681 3.983182,25.27422 3.742565,25.02237 3.630562,24.84715 3.51856,24.67194 3.249932,24.34964 3.03361,24.13094 2.778658,23.87318 2.530637,23.52294 2.32856,23.13529 2.157104,22.80638 1.861137,22.36587 1.670856,22.15637 1.267295,21.71206 1.073628,21.18906 0.856843,19.95814 0.783593,19.5422 0.613423,18.91053 0.478694,18.55444 0.072308,17.48035 0,16.94241 0,14.99313 0,13.04386 0.07231,12.50592 0.478694,11.43182 0.613423,11.07573 0.78359,10.44407 0.856843,10.02813 1.073628,8.79721 1.267295,8.27421 1.670856,7.8299 1.861137,7.6204 2.157104,7.17989 2.32856,6.85098 2.530637,6.46333 2.778658,6.11308 3.03361,5.85533 3.249932,5.63663 3.51856,5.31433 3.630562,5.13911 3.742565,4.96389 3.983182,4.71205 4.165267,4.57946 4.347352,4.44687 4.628664,4.17065 4.790406,3.96563 4.952148,3.76062 5.199162,3.52709 5.339326,3.44668 5.47949,3.36628 5.747749,3.16028 5.935455,2.98891 6.123162,2.81754 6.524198,2.53111 6.826646,2.3524 7.129094,2.17368 7.558928,1.88434 7.781833,1.70942 8.329467,1.27967 8.724282,1.11803 9.800649,0.88291 10.30269,0.77324 11.066682,0.57002 11.498408,0.4313 12.586908,0.08156 13.245201,0 14.97952,0 c 1.73522,0 2.393431,0.0816 3.481112,0.43178 0.431726,0.13897 1.168903,0.34077 1.63817,0.44843 1.165231,0.26732 1.387446,0.35269 1.942485,0.74626 0.264353,0.18745 0.765908,0.52582 1.114568,0.75194 0.348658,0.22611 0.82055,0.56756 1.048649,0.75877 0.725323,0.60803 1.946453,1.80315 2.24798,2.2001 0.160202,0.2109 0.431772,0.53395 0.603488,0.71788 0.171716,0.18393 0.46285,0.59823 0.646965,0.92066 0.184115,0.32243 0.448625,0.71941 0.587802,0.88217 0.139177,0.16276 0.299973,0.38471 0.357325,0.49321 0.177863,0.33651 0.382898,1.08749 0.493747,1.80845 0.05839,0.37977 0.196811,0.9735 0.307599,1.31939 0.294524,0.91952 0.393568,1.38569 0.474163,2.23174 0.188845,1.98242 0.0297,3.56905 -0.499418,4.97896 -0.0979,0.26085 -0.224994,0.77872 -0.282444,1.15083 -0.116847,0.75682 -0.32305,1.54121 -0.483969,1.84102 -0.05865,0.10927 -0.221915,0.32106 -0.362809,0.47065 -0.140894,0.14958 -0.391692,0.51983 -0.557331,0.82277 -0.165639,0.30294 -0.481109,0.74683 -0.701043,0.98642 -0.219935,0.2396 -0.494527,0.56749 -0.610204,0.72866 -0.229544,0.31981 -1.621985,1.66611 -2.307839,2.23135 -0.236412,0.19484 -0.63533,0.48115 -0.886486,0.63625 -0.251155,0.1551 -0.713325,0.46572 -1.027045,0.69027 -0.708722,0.50727 -0.89142,0.58301 -2.037926,0.84485 -0.506809,0.11574 -1.243985,0.31594 -1.63817,0.44487 -0.394185,0.12894 -0.962425,0.27561 -1.262756,0.32595 -0.5243,0.0879 -3.125689,0.17475 -3.549369,0.11853 z m 3.08112,-3.58075 c 1.751713,-0.34592 2.469034,-0.5734 3.454814,-1.09565 0.516368,-0.27355 1.090221,-0.60472 1.27523,-0.73592 0.80174,-0.56856 1.652195,-1.28056 1.837357,-1.53823 0.110112,-0.15323 0.401554,-0.49829 0.647647,-0.76681 0.246093,-0.26852 0.579532,-0.72216 0.740976,-1.00808 0.161443,-0.28592 0.395414,-0.66764 0.519934,-0.84826 0.12452,-0.18063 0.288905,-0.46681 0.365297,-0.63597 0.144621,-0.32023 0.807573,-2.76931 0.807573,-2.98333 0,-0.0673 0.06046,-0.28811 0.134348,-0.49066 0.153486,-0.42073 0.115701,-0.55493 -0.200615,-0.71252 -0.427619,-0.21304 -1.142664,-0.24008 -5.8721,-0.22202 -5.235161,0.02 -4.975588,0.0423 -5.229528,-0.45013 C 15.156331,14.67629 15.149563,14.41117 15.137629,9.38418 15.126579,4.73082 15.112069,4.06625 15.01536,3.78573 14.95501,3.61066 14.844176,3.41385 14.769073,3.34837 14.638947,3.23491 14.615794,3.23457 14.277029,3.34137 14.081507,3.40287 13.357954,3.55819 12.669133,3.68661 11.320703,3.938 10.599944,4.15428 10.167395,4.43732 10.01723,4.53562 9.604601,4.75945 9.250442,4.93481 8.896284,5.11016 8.423447,5.40319 8.199693,5.58598 7.975938,5.76878 7.590354,6.0667 7.342837,6.24803 7.095321,6.42937 6.753639,6.75745 6.583543,6.97709 6.413449,7.19674 6.099864,7.56214 5.886689,7.78909 5.673514,8.01605 5.369606,8.44259 5.211339,8.73696 5.053071,9.03133 4.790761,9.45998 4.628429,9.68952 c -0.324886,0.45939 -0.433231,0.76689 -0.841727,2.38891 -0.629109,2.49801 -0.629109,3.33202 0,5.83003 0.408496,1.62202 0.516841,1.92952 0.841727,2.38891 0.162332,0.22954 0.424642,0.65819 0.58291,0.95256 0.158267,0.29437 0.462175,0.72091 0.67535,0.94786 0.213175,0.22696 0.52676,0.59236 0.696854,0.81201 0.170096,0.21965 0.511778,0.54772 0.759294,0.72906 0.247517,0.18133 0.633101,0.47925 0.856856,0.66204 0.223754,0.18279 0.696591,0.47583 1.050749,0.65118 0.354159,0.17536 0.766788,0.39875 0.916953,0.49643 0.435652,0.28338 1.004605,0.45914 2.35487,0.72747 1.166512,0.23182 1.351924,0.25123 2.432677,0.25479 0.918457,0.003 1.314581,-0.0247 1.842942,-0.12905 z"
     id="path131"
     inkscape:connector-curvature="0" />
</svg>
