<?xml version="1.0" encoding="UTF-8" standalone="no"?>
<!-- Created with Inkscape (http://www.inkscape.org/) -->

<svg
   xmlns:dc="http://purl.org/dc/elements/1.1/"
   xmlns:cc="http://creativecommons.org/ns#"
   xmlns:rdf="http://www.w3.org/1999/02/22-rdf-syntax-ns#"
   xmlns:svg="http://www.w3.org/2000/svg"
   xmlns="http://www.w3.org/2000/svg"
   xmlns:sodipodi="http://sodipodi.sourceforge.net/DTD/sodipodi-0.dtd"
   xmlns:inkscape="http://www.inkscape.org/namespaces/inkscape"
   version="1.1"
   id="svg106"
   width="66.666664"
   height="66.666664"
   viewBox="0 0 66.666664 66.666664"
   sodipodi:docname="trash.svg"
   inkscape:version="0.92.2 5c3e80d, 2017-08-06">
  <metadata
     id="metadata112">
    <rdf:RDF>
      <cc:Work
         rdf:about="">
        <dc:format>image/svg+xml</dc:format>
        <dc:type
           rdf:resource="http://purl.org/dc/dcmitype/StillImage" />
        <dc:title></dc:title>
      </cc:Work>
    </rdf:RDF>
  </metadata>
  <defs
     id="defs110" />
  <sodipodi:namedview
     pagecolor="#ffffff"
     bordercolor="#666666"
     borderopacity="1"
     objecttolerance="10"
     gridtolerance="10"
     guidetolerance="10"
     inkscape:pageopacity="0"
     inkscape:pageshadow="2"
     inkscape:window-width="1696"
     inkscape:window-height="1008"
     id="namedview108"
     showgrid="false"
     inkscape:zoom="3.5400001"
     inkscape:cx="33.333332"
     inkscape:cy="33.333332"
     inkscape:window-x="0"
     inkscape:window-y="0"
     inkscape:window-maximized="0"
     inkscape:current-layer="svg106" />
  <path
     style="fill:#000000;stroke-width:1.33333325"
     d="m 35.453812,63.442529 -10.787146,0.45421 -4.456865,-1.13857 -4.456867,-1.13857 -1.311307,-1.311307 -1.311307,-1.311308 -0.756044,-15.351167 -0.756044,-15.351167 7.190883,1.33805 7.190884,1.338051 13.666666,-0.806019 13.666666,-0.806019 -0.01468,10.320643 -0.01467,10.320642 -0.834706,5.050873 -0.834704,5.050872 -2.696808,1.443288 -2.696808,1.443288 z m 0.546187,-38.696809 -14,0.470415 -5.904388,-1.245789 -5.904387,-1.24579 -1.2726556,-1.272654 -1.2726555,-1.272656 0.789233,-2.056708 0.7892331,-2.056709 5.980414,-1.505886 5.980413,-1.505885 0.407396,-4.1936956 0.407397,-4.1936959 h 10 9.999999 l 0.407786,4.1989126 0.407786,4.1989129 4.901001,0.919433 4.901002,0.919433 2.357878,1.261899 2.35788,1.2619 v 1.986089 1.986089 l -3.666666,1.437985 -3.666667,1.437984 z m -4,-11.412387 h 6.666666 V 10.666666 7.9999997 h -6.666666 -6.666667 v 2.6666663 2.666667 z"
     id="path116"
     inkscape:connector-curvature="0" />
</svg>
