<?xml version="1.0" encoding="UTF-8" standalone="no"?>
<!-- Created with Inkscape (http://www.inkscape.org/) -->

<svg
   xmlns:dc="http://purl.org/dc/elements/1.1/"
   xmlns:cc="http://creativecommons.org/ns#"
   xmlns:rdf="http://www.w3.org/1999/02/22-rdf-syntax-ns#"
   xmlns:svg="http://www.w3.org/2000/svg"
   xmlns="http://www.w3.org/2000/svg"
   xmlns:sodipodi="http://sodipodi.sourceforge.net/DTD/sodipodi-0.dtd"
   xmlns:inkscape="http://www.inkscape.org/namespaces/inkscape"
   version="1.1"
   id="svg2"
   width="128"
   height="128"
   viewBox="0 0 128 128"
   sodipodi:docname="volumeIconHi.svg"
   inkscape:version="0.92.2 5c3e80d, 2017-08-06">
  <metadata
     id="metadata8">
    <rdf:RDF>
      <cc:Work
         rdf:about="">
        <dc:format>image/svg+xml</dc:format>
        <dc:type
           rdf:resource="http://purl.org/dc/dcmitype/StillImage" />
        <dc:title />
      </cc:Work>
    </rdf:RDF>
  </metadata>
  <defs
     id="defs6" />
  <sodipodi:namedview
     pagecolor="#ffffff"
     bordercolor="#666666"
     borderopacity="1"
     objecttolerance="10"
     gridtolerance="10"
     guidetolerance="10"
     inkscape:pageopacity="0"
     inkscape:pageshadow="2"
     inkscape:window-width="1918"
     inkscape:window-height="1028"
     id="namedview4"
     showgrid="false"
     inkscape:pagecheckerboard="true"
     inkscape:zoom="1.84375"
     inkscape:cx="-90.033898"
     inkscape:cy="64"
     inkscape:window-x="0"
     inkscape:window-y="0"
     inkscape:window-maximized="1"
     inkscape:current-layer="svg2" />
  <path
     style="fill:#ffffff"
     d="m 92.53345,97.372881 h -2.420042 l -1.481265,-2.114802 -1.481266,-2.114803 0.625178,-1.635197 0.625178,-1.635198 3.43766,-4.5 3.43766,-4.5 2.075213,-4.5 2.075213,-4.5 0.03651,-10 0.03651,-10 -2.601113,-5.545631 -2.601113,-5.545631 -2.980172,-3.454369 -2.980173,-3.454369 -0.537313,-1.5 -0.537314,-1.5 0.836375,-2.25 0.836375,-2.25 h 2.915861 2.915862 l 3.581323,3.964096 3.581323,3.964096 2.54337,5.019103 2.54337,5.019103 1.49167,5.7269 1.49167,5.7269 -0.0148,5.539901 -0.0148,5.539901 -1.48096,6.281481 -1.48095,6.281482 -1.93239,3.787789 -1.93239,3.787789 -4.095127,5.18073 -4.095091,5.180729 z m -30.308478,-7 h -0.775027 l -7.449945,-7.5 -7.449945,-7.5 H 35.275028 24 v -11.5 -11.5 h 11.275028 11.275027 l 7.449945,-7.5 7.449945,-7.5 H 62.224972 63 v 26.5 26.5 z m 14.397105,-5 H 74.4 l -1.2,-1.2 -1.2,-1.2 v -1.955609 -1.955609 l 2.628484,-3.44612 2.628484,-3.44612 1.408317,-4.648271 1.408318,-4.648271 -0.656638,-4 -0.656637,-4 L 76.953252,51.305983 75.146176,47.739086 73.573088,46.433539 72,45.127992 v -2.898995 -2.898994 l 2.528893,-1.15224 2.528892,-1.152241 2.619819,1.955977 2.619819,1.955977 3.024521,5.353484 3.024522,5.353483 0.448111,7.740849 0.44811,7.740849 -1.654974,4.982661 -1.654975,4.982662 -3.544292,4.140708 -3.544292,4.140709 z"
     id="path12"
     inkscape:connector-curvature="0" />
  <rect
     style="opacity:1;fill:none;fill-opacity:1"
     id="rect14"
     width="129.08475"
     height="128.54237"
     x="0"
     y="0"
     ry="0.0230521" />
</svg>
