<?xml version="1.0" encoding="UTF-8" standalone="no"?>
<!-- Created with Inkscape (http://www.inkscape.org/) -->

<svg
   xmlns:dc="http://purl.org/dc/elements/1.1/"
   xmlns:cc="http://creativecommons.org/ns#"
   xmlns:rdf="http://www.w3.org/1999/02/22-rdf-syntax-ns#"
   xmlns:svg="http://www.w3.org/2000/svg"
   xmlns="http://www.w3.org/2000/svg"
   xmlns:sodipodi="http://sodipodi.sourceforge.net/DTD/sodipodi-0.dtd"
   xmlns:inkscape="http://www.inkscape.org/namespaces/inkscape"
   version="1.1"
   id="svg32"
   width="33.333332"
   height="34.666668"
   viewBox="0 0 33.333332 34.666668"
   sodipodi:docname="wait4.svg"
   inkscape:version="0.92.2 5c3e80d, 2017-08-06">
  <metadata
     id="metadata38">
    <rdf:RDF>
      <cc:Work
         rdf:about="">
        <dc:format>image/svg+xml</dc:format>
        <dc:type
           rdf:resource="http://purl.org/dc/dcmitype/StillImage" />
        <dc:title />
      </cc:Work>
    </rdf:RDF>
  </metadata>
  <defs
     id="defs36" />
  <sodipodi:namedview
     pagecolor="#ffffff"
     bordercolor="#666666"
     borderopacity="1"
     objecttolerance="10"
     gridtolerance="10"
     guidetolerance="10"
     inkscape:pageopacity="0"
     inkscape:pageshadow="2"
     inkscape:window-width="1918"
     inkscape:window-height="1027"
     id="namedview34"
     showgrid="false"
     inkscape:zoom="6.8076921"
     inkscape:cx="-24.903957"
     inkscape:cy="17.333334"
     inkscape:window-x="0"
     inkscape:window-y="0"
     inkscape:window-maximized="1"
     inkscape:current-layer="svg32" />
  <g
     id="g209"
     style="fill:#000000">
    <path
       style="fill:#000000;fill-opacity:1;stroke-width:1.33333337"
       d="M 9.3733534,32.96092 C 4.4610713,30.475276 0,23.037621 0,17.333334 0,11.629047 4.4610713,4.1913915 9.3733534,1.7057474 24.337251,-5.8660744 39.802474,12.672752 30.293312,26.783398 c -3.549588,5.267234 -8.025914,7.843958 -13.626646,7.843958 -2.2,0 -5.481991,-0.749896 -7.2933126,-1.666436 z M 25.81818,27.151516 c 1.933334,-1.933334 3.515152,-4.933334 3.515152,-6.666667 0,-2.84624 -0.581196,-3.151515 -6,-3.151515 h -5.999999 v -6.666667 c 0,-6.1196583 -0.258586,-6.6666668 -3.151515,-6.6666668 -6.4070528,0 -12.00211,8.8515338 -10.5143879,16.6340498 1.8448159,9.650532 15.1135849,13.554633 22.1507499,6.517466 z"
       id="path227"
       inkscape:connector-curvature="0" />
    <path
       style="fill:#000000;fill-opacity:1;stroke-width:1.33333337"
       d="M 9.333333,32.397137 C -3.0543963,26.033908 -2.4451339,7.1139804 10.319249,1.7806803 23.856727,-3.8756399 37.147211,9.5967854 31.824885,23.580722 28.308619,32.819404 18.012473,36.855367 9.333333,32.397137 Z M 22.09081,30.047986 c 3.175412,-1.326772 5.297069,-3.448429 6.623841,-6.623841 1.073608,-2.569506 1.952014,-4.991099 1.952014,-5.381319 0,-0.390221 -2.999999,-0.709492 -6.666666,-0.709492 H 17.333333 V 9.9101501 c 0,-7.0745167 -0.140911,-7.3811292 -3,-6.5278332 -5.7540429,1.7172952 -8.900314,4.642243 -10.4085824,9.6763941 -2.0959779,6.995751 0.9275759,14.283125 7.0253384,16.932481 5.523869,2.400011 5.532512,2.400055 11.140721,0.0568 z"
       id="path225"
       inkscape:connector-curvature="0" />
    <path
       style="fill:#000000;fill-opacity:1;stroke-width:1.33333337"
       d="M 9.7314521,32.501147 C -0.62165478,27.396078 -2.7329318,13.604727 5.5679047,5.3038901 10.601376,0.27041834 16.968359,-0.93101237 23.125623,1.9908009 c 6.322629,3.0002842 9.381216,8.0024576 9.381216,15.3425331 0,7.249787 -3.04895,12.337675 -9.11976,15.218463 -5.546642,2.632055 -8.23531,2.622083 -13.6556269,-0.05065 z M 22.71031,29.977432 c 3.627866,-1.876043 7.956355,-7.993406 7.956355,-11.244551 0,-0.790567 -2.900842,-1.399547 -6.666666,-1.399547 H 17.333333 V 10 c 0,-7.9369259 -0.644891,-8.4473143 -6.710311,-5.310764 -4.2135344,2.1789036 -7.9563554,8.126928 -7.9563554,12.644098 0,6.757532 7.2468634,14.468987 13.7328794,14.613283 1.319751,0.02936 4.159595,-0.856772 6.310764,-1.969185 z"
       id="path223"
       inkscape:connector-curvature="0" />
    <path
       style="fill:#000000;fill-opacity:1;stroke-width:1.33333337"
       d="M 12.666666,33.728249 C 8.610043,32.733037 2.9022595,26.753894 1.2607507,21.780074 -0.63856515,16.02509 1.3370905,9.772725 6.6690617,4.6643719 9.825296,1.6405074 11.827644,0.88888893 16.72713,0.88888893 c 5.253816,0 6.799689,0.68237617 10.951501,4.83418827 4.288392,4.2883918 4.834188,5.5992298 4.834188,11.6102568 0,5.96461 -0.549638,7.313376 -4.589743,11.262848 -4.579561,4.476825 -10.208742,6.370411 -15.25641,5.132067 z m 14.333333,-7.000292 c 2.016667,-2.256848 3.666666,-5.293895 3.666666,-6.748992 0,-2.285868 -0.906557,-2.645631 -6.666666,-2.645631 H 17.333333 V 10 c 0,-6.5608464 -0.29495,-7.3333332 -2.8,-7.3333332 -1.54,0 -4.8400001,2.04 -7.3333333,4.5333335 -3.716402,3.7164027 -4.5333331,5.5424837 -4.5333331,10.1333337 0,4.630666 0.8142238,6.414224 4.703898,10.303899 4.2833434,4.283343 5.2072014,4.636406 10.3333334,3.948992 4.02229,-0.539389 6.676229,-1.926373 9.296101,-4.858268 z"
       id="path221"
       inkscape:connector-curvature="0" />
    <path
       style="fill:#000000;fill-opacity:1;stroke-width:1.33333337"
       d="M 12.825735,33.18888 C 0.86219287,29.913821 -3.1967423,13.973225 5.7844678,5.5358154 14.621446,-2.7660958 28.662248,1.1945569 31.894551,12.900991 35.157749,24.719325 24.256054,36.317968 12.825735,33.18888 Z m 13.307597,-5.722212 c 2.493334,-2.493334 4.533333,-5.793334 4.533333,-7.333334 0,-2.471111 -0.783069,-2.8 -6.666666,-2.8 H 17.333333 V 10 c 0,-6.5608464 -0.29495,-7.3333332 -2.8,-7.3333332 -1.54,0 -4.8400001,2.04 -7.3333333,4.5333335 -6.43099193,6.4309927 -6.43099193,13.8356747 0,20.2666677 3.5219213,3.521921 5.6339863,4.533333 9.4666663,4.533333 3.83268,0 5.944745,-1.011412 9.466666,-4.533333 z"
       id="path219"
       inkscape:connector-curvature="0" />
    <path
       style="fill:#000000;fill-opacity:1;stroke-width:1.33333337"
       d="m 10.149106,32.24126 c -0.3712168,-0.600641 1.085693,-0.833668 3.237576,-0.517839 2.151884,0.31583 5.471335,0.182996 7.376559,-0.295184 4.586446,-1.151125 9.903424,-7.033355 9.903424,-10.956267 0,-2.877475 -0.554724,-3.138636 -6.666666,-3.138636 H 17.333333 V 9.8486678 2.3640018 L 13.40375,2.9407421 C 11.242479,3.2579493 9.7778892,3.026049 10.149106,2.425408 c 0.371216,-0.600641 3.399528,-1.0920746 6.729583,-1.0920746 5.107895,0 6.763509,0.7088649 10.587977,4.5333335 6.614417,6.6144181 6.614417,16.3189171 0,22.9333341 -3.824468,3.824468 -5.480082,4.533334 -10.587977,4.533334 -3.330055,0 -6.358367,-0.491434 -6.729583,-1.092075 z M 5.1632594,28.333334 c -1.6584941,-2.114741 -1.6113337,-2.161901 0.503407,-0.503406 1.2833333,1.006458 2.3333333,2.056458 2.3333333,2.333333 0,1.097379 -1.094914,0.391071 -2.8367403,-1.829927 z M 2.2222222,24.444445 C 1.0002774,23.222501 1.0958849,10.970797 2.3333332,10.206012 c 0.55,-0.339919 1,2.924671 1,7.254645 0,4.329972 -0.05,7.872677 -0.1111111,7.872677 -0.061111,0 -0.5111111,-0.4 -0.9999999,-0.888889 z M 3.9999998,7.4965932 c 0,-0.2768739 1.05,-1.3268739 2.3333333,-2.3333334 C 8.4480738,3.5047656 8.4952342,3.551926 6.8367401,5.6666669 5.0949138,7.8876643 3.9999998,8.5939722 3.9999998,7.4965932 Z"
       id="path217"
       inkscape:connector-curvature="0" />
    <path
       style="fill:#000000;fill-opacity:1;stroke-width:1.33333337"
       d="m 25.333332,30.163261 c 0,-0.276875 1.05,-1.326875 2.333334,-2.333333 2.114741,-1.658495 2.161901,-1.611335 0.503406,0.503406 -1.741825,2.220998 -2.83674,2.927306 -2.83674,1.829927 z M 17.333333,10 c 0,-7.0076715 0.153877,-7.3333332 3.465053,-7.3333332 4.328232,0 11.201613,7.0407286 11.201613,11.4743402 0,2.980598 -0.486379,3.192327 -7.333333,3.192327 h -7.333333 z"
       id="path215"
       inkscape:connector-curvature="0" />
    <path
       style="fill:#000000;fill-opacity:1;stroke-width:1.33333337"
       d="M 23.666666,16.353282 17.333333,15.853891 V 9.2602788 c 0,-5.8093836 0.333025,-6.593612 2.8,-6.593612 3.625017,0 11.866666,8.2416492 11.866666,11.8666672 0,1.54 -0.45,2.691851 -1,2.559669 -0.55,-0.132186 -3.85,-0.465057 -7.333333,-0.739721 z"
       id="path213"
       inkscape:connector-curvature="0" />
    <path
       style="fill:#000000;fill-opacity:1;stroke-width:1.33333337"
       d="M 24.333332,16.350345 17.333333,15.860642 V 9.2636542 c 0,-5.8128126 0.332832,-6.5969874 2.8,-6.5969874 3.625017,0 11.866666,8.2416492 11.866666,11.8666672 0,1.54 -0.15,2.689011 -0.333334,2.553357 -0.183333,-0.135654 -3.483333,-0.467009 -7.333333,-0.736346 z"
       id="path211"
       inkscape:connector-curvature="0" />
  </g>
</svg>
