<?xml version="1.0" encoding="UTF-8" standalone="no"?>
<!-- Created with Inkscape (http://www.inkscape.org/) -->

<svg
   xmlns:dc="http://purl.org/dc/elements/1.1/"
   xmlns:cc="http://creativecommons.org/ns#"
   xmlns:rdf="http://www.w3.org/1999/02/22-rdf-syntax-ns#"
   xmlns:svg="http://www.w3.org/2000/svg"
   xmlns="http://www.w3.org/2000/svg"
   xmlns:sodipodi="http://sodipodi.sourceforge.net/DTD/sodipodi-0.dtd"
   xmlns:inkscape="http://www.inkscape.org/namespaces/inkscape"
   version="1.1"
   id="svg42"
   width="33.333332"
   height="34.666668"
   viewBox="0 0 33.333332 34.666668"
   sodipodi:docname="wait5.svg"
   inkscape:version="0.92.2 5c3e80d, 2017-08-06">
  <metadata
     id="metadata48">
    <rdf:RDF>
      <cc:Work
         rdf:about="">
        <dc:format>image/svg+xml</dc:format>
        <dc:type
           rdf:resource="http://purl.org/dc/dcmitype/StillImage" />
        <dc:title />
      </cc:Work>
    </rdf:RDF>
  </metadata>
  <defs
     id="defs46" />
  <sodipodi:namedview
     pagecolor="#ffffff"
     bordercolor="#666666"
     borderopacity="1"
     objecttolerance="10"
     gridtolerance="10"
     guidetolerance="10"
     inkscape:pageopacity="0"
     inkscape:pageshadow="2"
     inkscape:window-width="1918"
     inkscape:window-height="1027"
     id="namedview44"
     showgrid="false"
     inkscape:zoom="6.8076921"
     inkscape:cx="-24.903957"
     inkscape:cy="17.333334"
     inkscape:window-x="0"
     inkscape:window-y="0"
     inkscape:window-maximized="1"
     inkscape:current-layer="svg42" />
  <g
     id="g154"
     style="fill:#000000">
    <path
       style="fill:#000000;stroke-width:1.33333337"
       d="M 6.7908555,32.642049 C -2.4118006,27.585957 -2.0911506,6.7769772 7.2642062,1.9233593 c 4.7560718,-2.46748008 14.0488478,-2.46748008 18.8049198,0 9.643153,5.002928 9.643153,25.8170217 0,30.8199497 C 21.54108,35.092487 11.151603,35.037916 6.7908555,32.642043 Z M 14.406387,11 13.999999,4.6666668 9.6666663,8.8974362 C 6.5880756,11.903161 5.3333331,14.345826 5.3333331,17.333334 c 0,2.987508 1.2547425,5.430174 4.3333332,8.435898 l 4.3333327,4.230769 0.406388,-6.333333 c 0.223514,-3.483334 0.223514,-9.183334 0,-12.666668 z"
       id="path172"
       inkscape:connector-curvature="0" />
    <path
       style="fill:#000000;stroke-width:1.33333337"
       d="M 8.2834226,32.657859 C -2.8095938,27.838165 -2.6075635,6.6247456 8.5758557,1.9520143 c 5.9083513,-2.46866745 10.2732693,-2.46866745 16.1816203,0 11.374185,4.7524385 11.374185,26.0102017 0,30.7626387 -5.805431,2.425666 -10.80005,2.408446 -16.4740534,-0.0568 z M 15.999999,17.333334 c 0,-10.5558371 -0.280809,-11.9948973 -2.333333,-11.9575959 -4.8256369,0.087698 -9.6666662,6.3147509 -9.6666662,12.4343069 0,4.150508 6.0474472,11.523289 9.4518582,11.523289 2.319881,0 2.548141,-1.074945 2.548141,-12 z"
       id="path170"
       inkscape:connector-curvature="0" />
    <path
       style="fill:#000000;stroke-width:1.33333337"
       d="M 9.333333,32.397137 C -3.0543963,26.033908 -2.4451339,7.1139804 10.319249,1.7806803 23.856727,-3.8756399 37.147211,9.5967854 31.824885,23.580722 28.308619,32.819404 18.012473,36.855367 9.333333,32.397137 Z m 6.666666,-15.063803 c 0,-14.9571235 -0.75017,-15.8957249 -7.8976989,-9.8814756 -3.4587252,2.9103256 -4.1023003,4.3906436 -4.1023003,9.4358986 0,4.83616 0.7476195,6.731659 3.8974358,9.881475 6.9795704,6.979571 8.1025634,5.671781 8.1025634,-9.435898 z"
       id="path168"
       inkscape:connector-curvature="0" />
    <path
       style="fill:#000000;stroke-width:1.33333337"
       d="M 11.333333,33.44944 C 9.8666663,32.804636 6.9012817,30.411463 4.7435895,28.131276 1.469957,24.671796 0.82051279,22.873997 0.82051279,17.271374 c 0,-5.967545 0.54988411,-7.263993 4.94529901,-11.6594079 C 9.9754785,1.402299 11.585784,0.66666669 16.591114,0.66666669 c 7.603385,0 12.848129,3.83600131 15.202075,11.11878531 2.240919,6.933087 -0.02472,15.33649 -5.157789,19.130573 -3.96945,2.934 -11.539975,4.187379 -15.302067,2.533415 z m 6,-16.116106 c 0,-8.5188902 -0.517439,-12.1029177 -1.914771,-13.2625994 C 11.29978,0.65244817 2.6666666,9.36105 2.6666666,16.934134 c 0,5.963192 1.8821418,9.294631 7.014465,12.415784 6.3590174,3.867149 7.6522014,1.836405 7.6522014,-12.016584 z"
       id="path166"
       inkscape:connector-curvature="0" />
    <path
       style="fill:#000000;stroke-width:1.33333337"
       d="m 12,33.408893 c -3.320471,-1.014441 -3.3178985,-1.02041 0.666666,-1.546965 l 4,-0.528593 V 17.346429 3.3595217 l -4,-0.7432361 L 8.6666663,1.8730494 12.666666,1.0471299 C 18.672653,-0.19298541 23.732015,1.2704782 27.921158,5.4596203 33.583143,11.121606 34.363567,17.895055 30.325171,26.324525 27.590058,32.033612 18.721122,35.462273 12,33.408893 Z M 0.82898735,21.000001 C 0.38837045,18.616667 0.57002426,14.866667 1.2326625,12.666667 2.2624283,9.2477809 2.4541087,9.8773208 2.552063,17.000001 c 0.1264146,9.192163 -0.4960387,10.637144 -1.72307565,4 z"
       id="path164"
       inkscape:connector-curvature="0" />
    <path
       style="fill:#000000;stroke-width:1.33333337"
       d="M 13.333333,33.234771 9.9999996,32.265815 13.666666,32.132908 17.333333,32.000001 V 17.333334 2.6666668 L 13.666666,2.5337601 9.9999996,2.4008533 13.333333,1.4318977 c 7.353122,-2.13745509 16.337032,3.4137601 18.561218,11.4690933 3.193513,11.565955 -7.69366,23.492834 -18.561218,20.33378 z M 0.97799332,20.514935 c -0.3664168,-1.916785 -0.18793474,-5.066785 0.39662678,-7 C 2.2300847,10.685813 2.45982,11.365797 2.552063,17.000001 2.6764376,24.59684 2.0329738,26.03371 0.97799332,20.514935 Z"
       id="path162"
       inkscape:connector-curvature="0" />
    <path
       style="fill:#000000;stroke-width:1.33333337"
       d="m 13.333333,32.350672 c 4.773545,-0.887179 5.292498,-2.3597 5.292498,-15.017338 0,-12.657638 -0.518953,-14.1301588 -5.292498,-15.0173376 -2.023685,-0.3761085 -0.925362,-0.6908511 2.795465,-0.8010869 5.336634,-0.1581069 6.758416,0.4298998 11,4.5492743 4.300637,4.1767252 4.871201,5.4966822 4.871201,11.2691502 0,5.772468 -0.570564,7.092424 -4.871201,11.26915 -4.241584,4.119375 -5.663366,4.707381 -11,4.549275 -3.720827,-0.110236 -4.81915,-0.424979 -2.795465,-0.801087 z M 1.7328855,17.333334 c 0,-4.033333 0.2499542,-5.683334 0.5554536,-3.666667 0.3054996,2.016667 0.3054996,5.316667 0,7.333334 -0.3054994,2.016667 -0.5554536,0.366666 -0.5554536,-3.666667 z"
       id="path160"
       inkscape:connector-curvature="0" />
    <path
       style="fill:#000000;stroke-width:1.33333337"
       d="m 18.666666,17.333334 c 0,-16.79634395 0.880504,-17.82465033 8.732754,-10.1986417 6.567692,6.3784617 6.567692,14.0188217 0,20.3972837 -7.85225,7.626008 -8.732754,6.597701 -8.732754,-10.198642 z"
       id="path158"
       inkscape:connector-curvature="0" />
    <path
       style="fill:#000000;stroke-width:1.33333337"
       d="m 19.999999,17.333334 c 0,-7.333334 0.519086,-13.3333338 1.153521,-13.3333338 2.164711,0 8.179812,5.5216643 8.179812,7.5087968 0,1.090053 0.6,1.611095 1.333333,1.15787 0.80644,-0.498407 1.333334,1.345718 1.333334,4.666667 0,3.320949 -0.526894,5.165075 -1.333334,4.666667 -0.733333,-0.453226 -1.333333,0.06781 -1.333333,1.157871 0,1.987132 -6.015101,7.508796 -8.179812,7.508796 -0.634435,0 -1.153521,-6 -1.153521,-13.333334 z"
       id="path156"
       inkscape:connector-curvature="0" />
  </g>
</svg>
