<?xml version="1.0" encoding="UTF-8" standalone="no"?>
<!-- Created with Inkscape (http://www.inkscape.org/) -->

<svg
   xmlns:dc="http://purl.org/dc/elements/1.1/"
   xmlns:cc="http://creativecommons.org/ns#"
   xmlns:rdf="http://www.w3.org/1999/02/22-rdf-syntax-ns#"
   xmlns:svg="http://www.w3.org/2000/svg"
   xmlns="http://www.w3.org/2000/svg"
   xmlns:sodipodi="http://sodipodi.sourceforge.net/DTD/sodipodi-0.dtd"
   xmlns:inkscape="http://www.inkscape.org/namespaces/inkscape"
   version="1.1"
   id="svg2"
   width="33.333332"
   height="34.666668"
   viewBox="0 0 33.333332 34.666668"
   sodipodi:docname="wait1.svg"
   inkscape:version="0.92.2 5c3e80d, 2017-08-06">
  <metadata
     id="metadata8">
    <rdf:RDF>
      <cc:Work
         rdf:about="">
        <dc:format>image/svg+xml</dc:format>
        <dc:type
           rdf:resource="http://purl.org/dc/dcmitype/StillImage" />
        <dc:title></dc:title>
      </cc:Work>
    </rdf:RDF>
  </metadata>
  <defs
     id="defs6" />
  <sodipodi:namedview
     pagecolor="#ffffff"
     bordercolor="#666666"
     borderopacity="1"
     objecttolerance="10"
     gridtolerance="10"
     guidetolerance="10"
     inkscape:pageopacity="0"
     inkscape:pageshadow="2"
     inkscape:window-width="1918"
     inkscape:window-height="1027"
     id="namedview4"
     showgrid="false"
     inkscape:zoom="5.4"
     inkscape:cx="-25.05085"
     inkscape:cy="17.333334"
     inkscape:window-x="0"
     inkscape:window-y="0"
     inkscape:window-maximized="1"
     inkscape:current-layer="svg2"
     inkscape:pagecheckerboard="true" />
  <g
     id="g344"
     style="fill:#000000">
    <path
       style="fill:#000000;stroke-width:1.33333337"
       d="M 6.7908555,32.642049 C -2.4118006,27.585957 -2.0911506,6.7769772 7.2642062,1.9233593 c 4.7560718,-2.46748008 14.0488478,-2.46748008 18.8049198,0 9.643153,5.002928 9.643153,25.8170217 0,30.8199497 C 21.54108,35.092487 11.151603,35.037916 6.7908555,32.642043 Z M 25.236559,24.486856 c 1.519892,-1.93223 2.76344,-5.151315 2.76344,-7.153522 0,-3.652328 -4.4476,-10.6666671 -6.76344,-10.6666671 -0.680108,0 -1.23656,4.8000001 -1.23656,10.6666671 0,5.866667 0.556452,10.666667 1.23656,10.666667 0.680108,0 2.480108,-1.580915 4,-3.513145 z"
       id="path358"
       inkscape:connector-curvature="0" />
    <path
       style="fill:#000000;stroke-width:1.33333337"
       d="M 8.2834226,32.657859 C -2.8095938,27.838165 -2.6075635,6.6247456 8.5758557,1.9520143 c 5.9083513,-2.46866745 10.2732693,-2.46866745 16.1816203,0 11.374185,4.7524385 11.374185,26.0102017 0,30.7626387 -5.805431,2.425666 -10.80005,2.408446 -16.4740534,-0.0568 z M 25.403944,25.924838 c 4.380469,-4.662797 4.380469,-12.520211 0,-17.1830083 -5.671487,-6.0370216 -6.737278,-4.6779046 -6.737278,8.5915043 0,13.269409 1.065791,14.628526 6.737278,8.591504 z"
       id="path356"
       inkscape:connector-curvature="0" />
    <path
       style="fill:#000000;stroke-width:1.33333337"
       d="M 9.333333,32.397137 C -3.0543963,26.033908 -2.4451339,7.1139804 10.319249,1.7806803 23.856727,-3.8756399 37.147211,9.5967854 31.824885,23.580722 28.308619,32.819404 18.012473,36.855367 9.333333,32.397137 Z M 25.593707,27.08388 C 30.83394,22.063417 30.90644,13.121222 25.750544,7.7396255 19.561603,1.2797626 18.666666,2.4917777 18.666666,17.333334 c 0,14.733806 0.698859,15.717523 6.927041,9.750546 z"
       id="path354"
       inkscape:connector-curvature="0" />
    <path
       style="fill:#000000;stroke-width:1.33333337"
       d="M 12.529984,33.778735 C 10.988142,33.460104 7.7227573,31.131928 5.2735738,28.605012 1.429457,24.638889 0.82051279,23.097518 0.82051279,17.333334 c 0,-5.745817 0.61274941,-7.309481 4.39253191,-11.2092276 4.753595,-4.9044658 9.1788323,-6.3630794 15.4536213,-5.0937075 3.963469,0.8017986 3.969558,0.8165584 0.666666,1.6161748 -3.290401,0.7965927 -3.333333,0.9857534 -3.333333,14.6867603 0,13.668949 0.05063,13.893858 3.333333,14.806981 1.833334,0.509964 2.433334,0.995208 1.333334,1.07832 -1.1,0.08311 -3.2,0.373484 -4.666667,0.645272 -1.466666,0.271786 -3.928173,0.23346 -5.470015,-0.08517 z M 30.907168,17.333334 c 0,-7.588153 0.155704,-8.1274099 1.251204,-4.333333 0.779384,2.699264 0.779384,5.967402 0,8.666667 -1.0955,3.794076 -1.251204,3.254818 -1.251204,-4.333334 z"
       id="path352"
       inkscape:connector-curvature="0" />
    <path
       style="fill:#000000;stroke-width:1.33333337"
       d="M 13.873129,33.626324 C 12.336684,33.392933 8.8048662,30.872445 6.0246448,28.02524 1.8226606,23.722017 0.96969693,21.917882 0.96969693,17.333334 c 0,-4.572825 0.85339277,-6.389123 4.99457147,-10.6300749 5.3461386,-5.4749436 8.7283226,-6.7381127 14.0357306,-5.2420269 3.167417,0.8928519 3.184009,0.9462366 0.333334,1.0725279 -2.92003,0.1293639 -3,0.5214 -3,14.7068389 0,14.086748 0.10028,14.58951 3,15.039928 2.897174,0.450021 2.88575,0.488342 -0.333334,1.118069 -1.833333,0.358641 -4.590425,0.461119 -6.12687,0.227728 z m 17.022743,-16.29299 c 0,-5.935106 0.210387,-6.63422 1.103419,-3.666667 0.60688,2.016667 0.60688,5.316667 0,7.333334 -0.893032,2.967553 -1.103419,2.268439 -1.103419,-3.666667 z"
       id="path350"
       inkscape:connector-curvature="0" />
    <path
       style="fill:#000000;stroke-width:1.33333337"
       d="m 7.1999997,27.466668 c -6.43099193,-6.430993 -6.43099193,-13.835675 0,-20.2666677 7.8214383,-7.82143908 8.7999993,-6.69461093 8.7999993,10.1333337 0,16.827945 -0.978561,17.954773 -8.7999993,10.133334 z"
       id="path348"
       inkscape:connector-curvature="0" />
    <path
       style="fill:#000000;stroke-width:1.33333337"
       d="M 10.813428,28.805992 C 1.9109355,23.871718 2.1666578,9.7525557 11.233339,5.621499 L 14.666666,4.0571703 V 17.361919 c 0,7.317611 -0.15,13.283488 -0.333333,13.257502 -0.183334,-0.02599 -1.767291,-0.842029 -3.519905,-1.813429 z"
       id="path346"
       inkscape:connector-curvature="0" />
  </g>
</svg>
