<?xml version="1.0" encoding="UTF-8" standalone="no"?>
<!-- Created with Inkscape (http://www.inkscape.org/) -->

<svg
   xmlns:dc="http://purl.org/dc/elements/1.1/"
   xmlns:cc="http://creativecommons.org/ns#"
   xmlns:rdf="http://www.w3.org/1999/02/22-rdf-syntax-ns#"
   xmlns:svg="http://www.w3.org/2000/svg"
   xmlns="http://www.w3.org/2000/svg"
   xmlns:sodipodi="http://sodipodi.sourceforge.net/DTD/sodipodi-0.dtd"
   xmlns:inkscape="http://www.inkscape.org/namespaces/inkscape"
   version="1.1"
   id="svg12"
   width="33.333332"
   height="34.666668"
   viewBox="0 0 33.333332 34.666668"
   sodipodi:docname="wait2.svg"
   inkscape:version="0.92.2 5c3e80d, 2017-08-06">
  <metadata
     id="metadata18">
    <rdf:RDF>
      <cc:Work
         rdf:about="">
        <dc:format>image/svg+xml</dc:format>
        <dc:type
           rdf:resource="http://purl.org/dc/dcmitype/StillImage" />
        <dc:title />
      </cc:Work>
    </rdf:RDF>
  </metadata>
  <defs
     id="defs16" />
  <sodipodi:namedview
     pagecolor="#ffffff"
     bordercolor="#666666"
     borderopacity="1"
     objecttolerance="10"
     gridtolerance="10"
     guidetolerance="10"
     inkscape:pageopacity="0"
     inkscape:pageshadow="2"
     inkscape:window-width="1918"
     inkscape:window-height="1027"
     id="namedview14"
     showgrid="false"
     inkscape:zoom="6.8076921"
     inkscape:cx="-24.903957"
     inkscape:cy="17.333334"
     inkscape:window-x="0"
     inkscape:window-y="0"
     inkscape:window-maximized="1"
     inkscape:current-layer="svg12" />
  <g
     id="g309"
     style="fill:#000000">
    <path
       style="fill:#000000;fill-opacity:1;stroke-width:1.33333337"
       d="M 9.333333,32.397137 C -3.0543963,26.033908 -2.4451339,7.1139804 10.319249,1.7806803 23.856727,-3.8756399 37.147211,9.5967854 31.824885,23.580722 28.308619,32.819404 18.012473,36.855367 9.333333,32.397137 Z m 15.611529,-3.815376 c 1.619674,-1.047373 3.647089,-4.248133 4.505363,-7.112802 C 30.788173,17.00329 30.653419,15.537371 28.505363,11.190245 26.887254,7.9155975 24.465384,5.5071763 21.666666,4.3895187 L 17.333333,2.6590189 V 9.9961765 17.333334 H 9.9999996 c -4.0333332,0 -7.333333,0.319271 -7.333333,0.709492 0,0.39022 0.8775402,2.80974 1.9500895,5.376712 3.2865269,7.865767 12.5209099,10.210794 20.3281059,5.162223 z"
       id="path323"
       inkscape:connector-curvature="0" />
    <path
       style="fill:#000000;fill-opacity:1;stroke-width:1.33333337"
       d="M 12.344645,33.738977 C 8.0713299,32.898027 1.839291,26.196456 0.88269227,21.413462 -2.4522318,4.7388411 16.196711,-6.2648268 27.921158,5.4596203 c 5.661985,5.6619857 6.442409,12.4354347 2.404013,20.8649047 -2.595429,5.41752 -10.843925,8.818871 -17.980526,7.414452 z m 13.979169,-6.423913 c 5.570366,-6.410729 5.570366,-13.684523 0,-19.810694 -1.644766,-1.8088767 -4.340482,-3.6777876 -5.990481,-4.1531352 -2.855368,-0.8226015 -3,-0.5063919 -3,6.5589153 V 17.333334 H 9.9999996 c -7.9341294,0 -8.4467691,0.645945 -5.3165722,6.699079 4.3252705,8.364151 15.7227426,10.093044 21.6403866,3.282651 z"
       id="path321"
       inkscape:connector-curvature="0" />
    <path
       style="fill:#000000;fill-opacity:1;stroke-width:1.33333337"
       d="M 11.333333,32.826909 C -3.2964988,26.25847 -2.3233708,6.2804921 12.870665,1.2660076 c 8.902951,-2.9382391 19.49297,5.7099773 19.49297,15.9187094 0,11.516523 -11.375016,19.97718 -21.030302,15.642192 z m 14.799999,-5.360241 c 3.716403,-3.716403 4.533333,-5.542484 4.533333,-10.133334 0,-4.59085 -0.81693,-6.416931 -4.533333,-10.1333337 C 19.373211,0.43987871 17.333333,1.088931 17.333333,10 v 7.333334 H 9.9999996 c -6.5608463,0 -7.333333,0.294949 -7.333333,2.8 0,1.54 2.0399999,4.84 4.5333331,7.333334 3.5219213,3.521921 5.6339863,4.533333 9.4666663,4.533333 3.83268,0 5.944745,-1.011412 9.466666,-4.533333 z"
       id="path319"
       inkscape:connector-curvature="0" />
    <path
       style="fill:#000000;fill-opacity:1;stroke-width:1.33333337"
       d="M 5.8241026,28.571732 C 1.9951141,24.511821 1.3333333,22.855678 1.3333333,17.333334 c 0,-5.522344 0.6617808,-7.178487 4.4907693,-11.2383976 3.9282046,-4.1651107 5.2864664,-4.761603 10.8425634,-4.761603 5.556097,0 6.914358,0.5964923 10.842564,4.761603 6.464213,6.8540636 6.464213,15.6227326 0,22.4767956 -6.52067,6.913924 -15.164459,6.913924 -21.6851274,0 z M 26.564102,27.897437 c 3.452449,-3.452449 4.102563,-5.126496 4.102563,-10.564103 0,-5.437607 -0.650114,-7.111654 -4.102563,-10.5641029 -2.256411,-2.2564104 -5.256411,-4.1025643 -6.666667,-4.1025643 -2.219114,0 -2.564102,0.9866667 -2.564102,7.3333332 v 7.333334 H 9.9999996 c -8.2133835,0 -9.06051492,1.331335 -5.1063999,8.025119 4.618869,7.819123 15.1558213,9.053666 21.6705023,2.538984 z"
       id="path317"
       inkscape:connector-curvature="0" />
    <path
       style="fill:#000000;fill-opacity:1;stroke-width:1.33333337"
       d="m 2.6666666,14.533334 c 0,-3.625018 8.2416484,-11.8666672 11.8666664,-11.8666672 2.50505,0 2.8,0.7724868 2.8,7.3333332 v 7.333334 H 9.9999996 c -6.5608463,0 -7.333333,-0.294949 -7.333333,-2.8 z"
       id="path315"
       inkscape:connector-curvature="0" />
    <path
       style="fill:#000000;fill-opacity:1;stroke-width:1.33333337"
       d="m 2.6666666,15.933787 c 0,-5.049267 8.2178534,-13.2671202 13.2671194,-13.2671202 0.807531,0 1.399547,3.1020377 1.399547,7.3333332 v 7.333334 H 9.9999996 c -4.2312956,0 -7.333333,-0.592016 -7.333333,-1.399547 z"
       id="path313"
       inkscape:connector-curvature="0" />
    <path
       style="fill:#000000;fill-opacity:1;stroke-width:1.33333337"
       d="m 2.6666666,16.623842 c 0,-0.39022 0.8784063,-2.811813 1.9520141,-5.381319 1.3267717,-3.1754119 3.4484298,-5.2970701 6.6238413,-6.6238419 2.569505,-1.0736079 4.991099,-1.9520143 5.381319,-1.9520143 0.390221,0 0.709492,3.3000001 0.709492,7.3333332 v 7.333334 H 9.9999996 c -4.0333332,0 -7.333333,-0.319271 -7.333333,-0.709492 z"
       id="path311"
       inkscape:connector-curvature="0" />
  </g>
</svg>
