<?xml version="1.0" encoding="UTF-8" standalone="no"?>
<!-- Created with Inkscape (http://www.inkscape.org/) -->

<svg
   xmlns:dc="http://purl.org/dc/elements/1.1/"
   xmlns:cc="http://creativecommons.org/ns#"
   xmlns:rdf="http://www.w3.org/1999/02/22-rdf-syntax-ns#"
   xmlns:svg="http://www.w3.org/2000/svg"
   xmlns="http://www.w3.org/2000/svg"
   xmlns:sodipodi="http://sodipodi.sourceforge.net/DTD/sodipodi-0.dtd"
   xmlns:inkscape="http://www.inkscape.org/namespaces/inkscape"
   version="1.1"
   id="svg22"
   width="25.000002"
   height="19.999983"
   viewBox="0 0 25.000002 19.999983"
   sodipodi:docname="wifiStrength0.svg"
   inkscape:version="0.92.2 5c3e80d, 2017-08-06">
  <metadata
     id="metadata28">
    <rdf:RDF>
      <cc:Work
         rdf:about="">
        <dc:format>image/svg+xml</dc:format>
        <dc:type
           rdf:resource="http://purl.org/dc/dcmitype/StillImage" />
        <dc:title />
      </cc:Work>
    </rdf:RDF>
  </metadata>
  <defs
     id="defs26" />
  <sodipodi:namedview
     pagecolor="#ffffff"
     bordercolor="#666666"
     borderopacity="1"
     objecttolerance="10"
     gridtolerance="10"
     guidetolerance="10"
     inkscape:pageopacity="0"
     inkscape:pageshadow="2"
     inkscape:window-width="1918"
     inkscape:window-height="1027"
     id="namedview24"
     showgrid="false"
     inkscape:pagecheckerboard="true"
     inkscape:zoom="0.40949999"
     inkscape:cx="-374.00309"
     inkscape:cy="265.37818"
     inkscape:window-x="0"
     inkscape:window-y="0"
     inkscape:window-maximized="1"
     inkscape:current-layer="svg22" />
  <path
     style="fill:#ffffff;stroke-width:0.05191533"
     d="m 10.751804,19.877302 c -0.387335,-0.0758 -0.677548,-0.16233 -0.7773166,-0.23164 -0.08949,-0.0622 -0.234019,-0.25895 -0.330039,-0.44938 -0.141523,-0.28067 -0.215567,-0.36422 -0.431618,-0.48704 -0.380777,-0.21646 -0.491119,-0.33146 -0.674121,-0.70257 -0.109038,-0.22111 -0.274578,-0.43672 -0.492111,-0.64095 -0.244401,-0.22946 -0.392622,-0.4317 -0.582572,-0.79488 -0.201768,-0.38579 -0.310291,-0.5298 -0.52164,-0.69223 -0.190071,-0.14608 -0.332585,-0.32225 -0.495229,-0.61217 -0.199731,-0.35602 -0.2679,-0.4304 -0.543735,-0.5933 -0.284036,-0.16774 -0.335097,-0.22552 -0.513859,-0.5815 -0.168521,-0.3356 -0.239934,-0.4212 -0.473061,-0.56709 -0.354906,-0.2221 -0.414952,-0.29252 -0.610386,-0.71581 -0.107178,-0.23214 -0.276316,-0.4698 -0.496082,-0.69707 -0.315407,-0.32616 -0.409009,-0.47377 -0.654463,-1.03207 -0.07951,-0.18085 -0.175093,-0.28187 -0.412383,-0.43585 -0.305006,-0.19791 -0.347787,-0.25509 -0.599253,-0.8009895 -0.07408,-0.16082 -0.175981,-0.2793 -0.304685,-0.35427 -0.32858,-0.19141 -0.489433,-0.3658 -0.644148,-0.69836 -0.10476,-0.22519 -0.24882405,-0.41235 -0.48615505,-0.63162 -0.559748,-0.51714 -0.800172,-1.15443 -0.677762,-1.79655 0.09439,-0.49516 0.249359,-0.75121 0.741841,-1.22573 0.24878905,-0.23972 0.52893105,-0.54573 0.62253705,-0.68003 0.09361,-0.1343 0.282831,-0.31845 0.420499,-0.40922 0.137669,-0.0908 0.439532,-0.35408 0.670806,-0.58511 0.461339,-0.46087 0.578605,-0.53259 1.076706,-0.6585 0.483509,-0.12222 0.685042,-0.23966 0.902178,-0.52572 0.228722,-0.30133 0.429453,-0.40286 1.005516,-0.50863 0.513495,-0.0943 0.669738,-0.16556 0.834475,-0.38072 0.06782,-0.0886 0.206374,-0.24787 0.307905,-0.35399 0.235046,-0.24567 0.437197,-0.28636 1.760205,-0.3543 0.599279,-0.0308 1.106157,-0.083 1.267409,-0.1305 0.274778,-0.081 0.5459936,-0.25146 0.5459936,-0.34318 0,-0.0282 0.03379,-0.0842 0.07509,-0.12447 0.111887,-0.10915 4.363422,-0.10915 4.47531,0 0.0413,0.0403 0.07509,0.0963 0.07509,0.12447 0,0.0917 0.271215,0.26219 0.545993,0.34318 0.161253,0.0475 0.668131,0.0997 1.267409,0.1305 1.323008,0.0679 1.525159,0.10863 1.760205,0.3543 0.101532,0.10612 0.240088,0.26541 0.307905,0.35399 0.164737,0.21516 0.32098,0.28644 0.834475,0.38072 0.576063,0.10577 0.776794,0.2073 1.005517,0.50863 0.217136,0.28606 0.418669,0.4035 0.902177,0.52572 0.498101,0.12591 0.615368,0.19763 1.076707,0.6585 0.231274,0.23103 0.533136,0.49433 0.670805,0.58511 0.137669,0.0908 0.326893,0.27492 0.420499,0.40922 0.09361,0.1343 0.373748,0.44031 0.622538,0.68003 0.492482,0.47452 0.647446,0.73057 0.74184,1.22573 0.122411,0.64212 -0.118013,1.27941 -0.677761,1.79655 -0.237332,0.21927 -0.381395,0.40643 -0.486155,0.63162 -0.154715,0.33256 -0.315569,0.50695 -0.644148,0.69836 -0.128705,0.075 -0.230605,0.19345 -0.304686,0.35427 -0.251465,0.5458995 -0.294247,0.6030795 -0.599252,0.8009895 -0.23729,0.15398 -0.332872,0.255 -0.412383,0.43585 -0.245417,0.55821 -0.339017,0.70587 -0.653843,1.03143 -0.223818,0.23146 -0.39112,0.46818 -0.510771,0.7227 -0.186403,0.39653 -0.318554,0.54734 -0.648484,0.74004 -0.150074,0.0877 -0.250477,0.21484 -0.40913,0.51825 -0.188612,0.36071 -0.242705,0.42098 -0.525624,0.5856 -0.277823,0.16166 -0.342304,0.23187 -0.541548,0.5897 -0.159557,0.28655 -0.29546,0.45607 -0.46141,0.57555 -0.137964,0.0993 -0.351397,0.34317 -0.516155,0.58968 -0.197576,0.29561 -0.5675,0.69797 -1.246867,1.3562 -0.531271,0.51474 -1.07933,1.01443 -1.217908,1.11043 -0.138578,0.096 -0.398762,0.32507 -0.578186,0.50906 -0.389426,0.39934 -0.573355,0.46459 -1.535161,0.54459 -0.963192,0.0801 -1.554244,0.0602 -2.247538,-0.0755 z m 2.844948,-2.82542 c 0.0668,-0.0456 0.20315,-0.20757 0.302999,-0.35984 0.113658,-0.17333 0.288215,-0.34594 0.466823,-0.46163 0.210675,-0.13646 0.313833,-0.24685 0.394459,-0.42212 0.248589,-0.540399 0.292565,-0.599079 0.597124,-0.796699 0.23729,-0.153981 0.332872,-0.255 0.412383,-0.43585 0.247136,-0.56213 0.341836,-0.71026 0.672866,-1.05253 0.200487,-0.20729 0.435794,-0.52212 0.55009,-0.736 0.154286,-0.288711 0.266778,-0.42291 0.494378,-0.589771 0.239714,-0.17575 0.33384,-0.292479 0.504894,-0.626139 0.182885,-0.35673 0.250375,-0.43615 0.518551,-0.61016 0.278189,-0.18052 0.327967,-0.24178 0.509643,-0.62722 0.145179,-0.308 0.298225,-0.5277905 0.548677,-0.7879305 0.250307,-0.25999 0.403508,-0.47995 0.548419,-0.78739 0.173414,-0.36791 0.243541,-0.45803 0.509643,-0.65492 0.233189,-0.17254 0.358024,-0.31732 0.511062,-0.59271 0.172066,-0.30962 0.24317,-0.38558 0.473062,-0.50533 0.548285,-0.28561 0.552699,-0.35079 0.0415,-0.6129 -0.292176,-0.14982 -0.381124,-0.22897 -0.545256,-0.48521 -0.220044,-0.34353 -0.34802,-0.42524 -0.802559,-0.51243 -0.543956,-0.10435 -0.631265,-0.14947 -0.978276,-0.50558 -0.314183,-0.32242 -0.367071,-0.35503 -0.757277,-0.4669 -0.544454,-0.15609 -0.674225,-0.22352 -0.994641,-0.51679 -0.4339,-0.39713 -0.694024,-0.4796 -1.685045,-0.53419 -0.688741,-0.038 -1.070108,-0.13992 -1.55059,-0.41462 -0.698613,-0.39941 -0.69568,-0.39878 -1.839683,-0.39878 -1.144004,0 -1.14107,-6.3e-4 -1.839683,0.39878 -0.480482,0.2747 -0.8618496,0.37667 -1.5505896,0.41462 -0.991021,0.0546 -1.251145,0.13706 -1.685045,0.53419 -0.320416,0.29327 -0.450187,0.3607 -0.994641,0.51679 -0.390207,0.11187 -0.443094,0.14448 -0.757277,0.4669 -0.347011,0.35611 -0.43432,0.40123 -0.978276,0.50558 -0.454539,0.0872 -0.582515,0.1689 -0.80256,0.51243 -0.164132,0.25624 -0.253079,0.33539 -0.545255,0.48521 -0.511197,0.26211 -0.506784,0.32729 0.0415,0.6129 0.229892,0.11975 0.300996,0.19571 0.473061,0.50533 0.153039,0.27539 0.277873,0.42017 0.511062,0.59271 0.266102,0.19689 0.336229,0.28701 0.509643,0.65492 0.144911,0.30744 0.298112,0.5274 0.54842,0.78739 0.250452,0.26014 0.403498,0.4799305 0.548677,0.7879305 0.181675,0.38544 0.231453,0.4467 0.509642,0.62722 0.268176,0.17401 0.335667,0.25343 0.518552,0.61016 0.171053,0.33366 0.265179,0.450389 0.504894,0.626139 0.227599,0.166861 0.340092,0.30106 0.494378,0.589771 0.114296,0.21388 0.349603,0.52871 0.550089,0.736 0.331031,0.342269 0.42573,0.4904 0.672866,1.05253 0.07951,0.18085 0.175093,0.28187 0.412384,0.43585 0.304558,0.19762 0.348535,0.2563 0.5971236,0.796699 0.08063,0.17527 0.183784,0.28566 0.394459,0.42212 0.178607,0.11569 0.353164,0.2883 0.466823,0.46163 0.292423,0.44595 0.282583,0.442841 1.399751,0.442841 0.813593,0 0.995431,-0.0138 1.096752,-0.083 z M 11.2548,14.668972 c -0.294537,-0.0538 -0.460545,-0.16771 -0.576793,-0.39575 -0.08025,-0.15743 -0.09649,-0.31441 -0.09651,-0.93279 -2.6e-5,-0.88297 0.06758,-1.0848 0.420477,-1.25528 0.192299,-0.0929 0.320196,-0.10158 1.498028,-0.10158 1.177832,0 1.305728,0.009 1.498027,0.10158 0.35289,0.17048 0.420499,0.37231 0.420499,1.25528 0,0.87017 -0.06781,1.07156 -0.421045,1.25038 -0.184867,0.0936 -0.31279,0.10399 -1.363229,0.11084 -0.63757,0.004 -1.258324,-0.0105 -1.379452,-0.0327 z m 0.01983,-4.1019 c -0.32821,-0.0509 -0.498844,-0.16405 -0.598727,-0.39693 -0.0693,-0.16158 -0.08077,-0.5864095 -0.08085,-2.9930695 -1.18e-4,-2.64824 0.0054,-2.81392 0.09829,-2.96866 0.05411,-0.0901 0.165163,-0.21246 0.246784,-0.27181 0.142231,-0.10343 0.207083,-0.10791 1.559876,-0.10791 1.352792,0 1.417645,0.004 1.559876,0.10791 0.08162,0.0593 0.192673,0.18166 0.246784,0.27181 0.0929,0.15476 0.09838,0.32071 0.09838,2.97725 0,2.64492 -0.0059,2.8251295 -0.09838,3.0098795 -0.176784,0.35311 -0.336298,0.39209 -1.645499,0.4021 -0.623461,0.005 -1.2474,-0.009 -1.386532,-0.0306 z"
     id="path127"
     inkscape:connector-curvature="0" />
</svg>
