<?xml version="1.0" encoding="UTF-8" standalone="no"?>
<!-- Created with Inkscape (http://www.inkscape.org/) -->

<svg
   xmlns:dc="http://purl.org/dc/elements/1.1/"
   xmlns:cc="http://creativecommons.org/ns#"
   xmlns:rdf="http://www.w3.org/1999/02/22-rdf-syntax-ns#"
   xmlns:svg="http://www.w3.org/2000/svg"
   xmlns="http://www.w3.org/2000/svg"
   xmlns:sodipodi="http://sodipodi.sourceforge.net/DTD/sodipodi-0.dtd"
   xmlns:inkscape="http://www.inkscape.org/namespaces/inkscape"
   version="1.1"
   id="svg52"
   width="25.000006"
   height="19.99999"
   viewBox="0 0 25.000006 19.99999"
   sodipodi:docname="wifiStrength3.svg"
   inkscape:version="0.92.2 5c3e80d, 2017-08-06">
  <metadata
     id="metadata58">
    <rdf:RDF>
      <cc:Work
         rdf:about="">
        <dc:format>image/svg+xml</dc:format>
        <dc:type
           rdf:resource="http://purl.org/dc/dcmitype/StillImage" />
        <dc:title></dc:title>
      </cc:Work>
    </rdf:RDF>
  </metadata>
  <defs
     id="defs56" />
  <sodipodi:namedview
     pagecolor="#ffffff"
     bordercolor="#666666"
     borderopacity="1"
     objecttolerance="10"
     gridtolerance="10"
     guidetolerance="10"
     inkscape:pageopacity="0"
     inkscape:pageshadow="2"
     inkscape:window-width="1918"
     inkscape:window-height="1028"
     id="namedview54"
     showgrid="false"
     inkscape:pagecheckerboard="true"
     inkscape:zoom="8.6599296"
     inkscape:cx="-31.157217"
     inkscape:cy="23.741084"
     inkscape:window-x="0"
     inkscape:window-y="0"
     inkscape:window-maximized="1"
     inkscape:current-layer="svg52" />
  <g
     id="g12">
    <path
       inkscape:connector-curvature="0"
       id="path62"
       d="m 12.028526,19.969042 c -1.186917,-0.293539 -1.069943,-2.105038 -0.421271,-2.890025 0.983447,-1.036673 2.288337,0.01288 2.560914,1.12084 0.06452,1.233852 -0.895319,2.107588 -2.139643,1.769185 z m 3.939615,-3.75156 c -1.075523,-0.452548 -1.874883,-1.474217 -3.04379,-1.652458 -1.136875,-0.257587 -1.936906,0.612521 -2.810464,1.146889 C 9.1918786,16.5111 7.8962906,16.129189 7.3066731,15.149164 6.8130787,13.881124 7.8606146,13.074188 8.7755468,12.44685 9.885441,11.94814 11.014485,11.266179 12.25269,11.191262 c 1.206981,-0.200855 2.232104,0.450347 3.319931,0.831213 0.938181,0.498653 2.343914,1.107965 2.284813,2.358569 0.240733,1.150692 -0.910379,1.816414 -1.889293,1.836438 z m 3.413335,-3.89655 c -0.975049,-0.411801 -1.564374,-1.49468 -2.51554,-2.05206 C 15.807555,9.9490462 14.838991,9.3488344 13.764196,9.1126864 12.449861,9.0834142 11.022934,8.9124756 9.8631602,9.6745138 8.7320632,9.9901182 7.8000487,10.610489 6.9116835,11.361272 6.3902362,12.347769 4.8713443,12.755302 4.106723,11.854036 3.5965361,10.749485 3.812074,9.1711845 4.993161,8.5947471 5.7489741,7.8369174 6.5919066,7.0932233 7.5673937,6.6428996 8.8304208,6.3621053 10.129876,6.2362415 11.345631,5.7647321 c 1.258426,0.00288 2.542322,-0.083894 3.741993,0.3795114 1.187172,0.3662292 2.655034,0.1457792 3.54063,1.1834114 0.834531,0.6454308 1.786632,1.2317278 2.37994,2.1097372 0.882353,0.8553419 0.432891,2.4022719 -0.61955,2.8500569 -0.330145,0.06867 -0.67311,0.07632 -1.007168,0.03348 z M 0.986577,8.1243421 C -0.35421804,8.0229326 0.01134583,6.6594229 0.03835116,5.6977871 0.94869981,5.1058908 1.734728,4.1366886 2.6734546,3.4398421 3.6540276,2.8692064 4.5240664,2.149832 5.6003843,1.7582874 6.4312106,0.90989691 7.6674396,0.92204147 8.7311496,0.56676446 10.741824,-0.21671276 12.959614,-0.03233549 15.063519,0.13966658 16.1748,0.43382789 17.2571,0.83670892 18.387252,1.0682177 c 0.867314,0.5010767 1.732993,0.9949811 2.661171,1.388915 0.944937,0.6734777 1.882801,1.3234447 2.777147,2.0621919 0.840519,0.7585968 1.470166,1.6938579 1.140565,2.8871712 -0.44712,1.1664647 -2.061937,1.0007525 -2.831453,0.2373626 C 21.375203,6.7321426 20.215198,6.3716838 19.297165,5.6411144 18.310177,5.0826811 17.419752,4.3412568 16.223469,4.2447888 15.145748,3.8296119 14.026775,3.4991569 12.855983,3.5746477 11.562443,3.5148252 10.259113,3.6597624 9.0679046,4.1964233 8.0744503,4.4766244 7.0065755,4.6377647 6.2673155,5.4284871 5.3040023,5.8763493 4.5345255,6.6229362 3.5781193,7.0799944 3.0204316,7.74261 1.873682,8.6815405 0.986577,8.1243421 Z"
       style="fill:#ffffff;stroke-width:0.05362582" />
    <rect
       y="0.022922698"
       x="-0.11547438"
       height="20"
       width="25"
       id="rect8"
       style="opacity:1;fill:none;fill-opacity:0.97000002" />
  </g>
</svg>
