<?xml version="1.0" encoding="UTF-8" standalone="no"?>
<!-- Created with Inkscape (http://www.inkscape.org/) -->

<svg
   xmlns:dc="http://purl.org/dc/elements/1.1/"
   xmlns:cc="http://creativecommons.org/ns#"
   xmlns:rdf="http://www.w3.org/1999/02/22-rdf-syntax-ns#"
   xmlns:svg="http://www.w3.org/2000/svg"
   xmlns="http://www.w3.org/2000/svg"
   xmlns:sodipodi="http://sodipodi.sourceforge.net/DTD/sodipodi-0.dtd"
   xmlns:inkscape="http://www.inkscape.org/namespaces/inkscape"
   version="1.1"
   id="svg12"
   width="25"
   height="19.99999"
   viewBox="0 0 25 19.99999"
   sodipodi:docname="wifiOff.svg"
   inkscape:version="0.92.2 5c3e80d, 2017-08-06">
  <metadata
     id="metadata18">
    <rdf:RDF>
      <cc:Work
         rdf:about="">
        <dc:format>image/svg+xml</dc:format>
        <dc:type
           rdf:resource="http://purl.org/dc/dcmitype/StillImage" />
        <dc:title />
      </cc:Work>
    </rdf:RDF>
  </metadata>
  <defs
     id="defs16" />
  <sodipodi:namedview
     pagecolor="#ffffff"
     bordercolor="#666666"
     borderopacity="1"
     objecttolerance="10"
     gridtolerance="10"
     guidetolerance="10"
     inkscape:pageopacity="0"
     inkscape:pageshadow="2"
     inkscape:window-width="1918"
     inkscape:window-height="1027"
     id="namedview14"
     showgrid="false"
     inkscape:pagecheckerboard="true"
     inkscape:zoom="0.40949999"
     inkscape:cx="-388.76476"
     inkscape:cy="233.63435"
     inkscape:window-x="0"
     inkscape:window-y="0"
     inkscape:window-maximized="1"
     inkscape:current-layer="svg12" />
  <path
     style="fill:#ffffff;stroke-width:0.05193536"
     d="m 10.739134,19.874871 c -0.346712,-0.0679 -0.6898,-0.16565 -0.7624176,-0.21731 -0.07262,-0.0517 -0.217186,-0.25397 -0.321259,-0.44957 -0.155771,-0.29276 -0.236964,-0.3836 -0.459235,-0.51382 -0.390351,-0.22868 -0.475944,-0.31781 -0.650306,-0.67723 -0.104512,-0.21543 -0.268871,-0.42826 -0.496263,-0.64261 -0.259644,-0.24475 -0.398943,-0.4351 -0.589413,-0.80544 -0.19989,-0.38865 -0.302762,-0.52589 -0.518077,-0.69114 -0.192186,-0.1475 -0.333687,-0.32211 -0.4971,-0.61342 -0.199507,-0.35566 -0.268356,-0.43089 -0.543599,-0.59399 -0.282278,-0.16727 -0.337138,-0.22909 -0.525805,-0.59252 -0.14961,-0.2882 -0.263971,-0.43854 -0.394679,-0.51886 -0.383797,-0.23585 -0.487664,-0.34929 -0.662481,-0.72354 -0.122076,-0.26135 -0.285195,-0.49319 -0.512092,-0.72785 -0.314935,-0.3257 -0.408567,-0.47342 -0.654069,-1.03187 -0.07954,-0.18093 -0.175154,-0.28199 -0.412526,-0.43603 -0.305111,-0.198 -0.347907,-0.25521 -0.59946,-0.8013297 -0.07411,-0.16089 -0.176041,-0.27943 -0.304791,-0.35443 -0.32748,-0.19078 -0.48945,-0.36563 -0.641585,-0.6926 -0.101113,-0.21731 -0.25082297,-0.41175 -0.48589097,-0.63105 -0.387458,-0.36147 -0.593058,-0.71635 -0.68036,-1.17434 -0.111916,-0.58712 0.123223,-1.30189 0.556727,-1.69234 0.44192997,-0.39804 0.64271497,-0.60798 0.80726897,-0.8441 0.09364,-0.13435 0.282929,-0.31903 0.420645,-0.41038 0.246543,-0.16355 0.499639,-0.39417 0.848216,-0.77289 0.213594,-0.23207 0.453769,-0.35748 0.901349,-0.47063 0.472423,-0.11943 0.641332,-0.21847 0.882085,-0.5172 0.250895,-0.31131 0.449583,-0.41159 1.024821,-0.51724 0.569032,-0.1045 0.728816,-0.19189 0.969063,-0.52999 0.295031,-0.41520003 0.433515,-0.46477003 1.452164,-0.51985003 0.467734,-0.0253 1.049802,-0.0682 1.293483,-0.0954 0.474874,-0.053 0.8789486,-0.21189 0.9736026,-0.38288 0.132844,-0.23997 0.06282,-0.233000003958 2.342849,-0.233000003958 2.280035,0 2.210006,-0.006999996 2.342851,0.233000003958 0.09465,0.17099 0.498729,0.32989 0.973603,0.38288 0.243681,0.0272 0.825748,0.0701 1.293482,0.0954 1.01865,0.0551 1.157133,0.10465 1.452165,0.51985003 0.240247,0.3381 0.40003,0.42549 0.969063,0.52999 0.575238,0.10565 0.773926,0.20593 1.024821,0.51724 0.240752,0.29873 0.409661,0.39777 0.882084,0.5172 0.44758,0.11315 0.687755,0.23856 0.90135,0.47063 0.348576,0.37872 0.601671,0.60934 0.848215,0.77289 0.137716,0.0913 0.327006,0.27603 0.420645,0.41038 0.164554,0.23612 0.365339,0.44606 0.807269,0.8441 0.433505,0.39045 0.668643,1.10522 0.556727,1.69234 -0.0873,0.45799 -0.292901,0.81287 -0.68036,1.17434 -0.235067,0.2193 -0.384777,0.41374 -0.485891,0.63105 -0.152135,0.32697 -0.314105,0.50182 -0.641585,0.6926 -0.12875,0.075 -0.230685,0.19354 -0.304791,0.35443 -0.251553,0.5461197 -0.294349,0.6033297 -0.59946,0.8013297 -0.237372,0.15404 -0.332987,0.2551 -0.412526,0.43603 -0.245501,0.55845 -0.339133,0.70617 -0.654069,1.03187 -0.223895,0.23156 -0.391255,0.46838 -0.510947,0.72301 -0.186468,0.3967 -0.318665,0.54757 -0.648709,0.74036 -0.150126,0.0877 -0.250563,0.21492 -0.409271,0.51847 -0.188678,0.36086 -0.242789,0.42115 -0.525806,0.58584 -0.277919,0.16173 -0.342422,0.23197 -0.541735,0.58995 -0.159613,0.28667 -0.295562,0.45626 -0.46157,0.5758 -0.138011,0.0994 -0.351519,0.34331 -0.516334,0.58992 -0.197644,0.29574 -0.567696,0.69827 -1.247298,1.35678 -0.531455,0.51496 -1.079703,1.01487 -1.218329,1.1109 -0.138626,0.096 -0.3989,0.32522 -0.578386,0.50929 -0.389561,0.39951 -0.573553,0.46478 -1.535692,0.54481 -0.968559,0.0806 -1.554096,0.0604 -2.260381,-0.0778 z m 2.885918,-2.84891 c 0.07711,-0.0592 0.219096,-0.22792 0.315519,-0.37497 0.107288,-0.16363 0.278919,-0.33224 0.442318,-0.43454 0.196945,-0.12329 0.296015,-0.23017 0.377572,-0.40732 0.250506,-0.54413 0.293736,-0.60188 0.598684,-0.79977 0.237373,-0.15404 0.332988,-0.2551 0.412526,-0.43603 0.247465,-0.56292 0.342083,-0.71061 0.674585,-1.05298 0.213846,-0.22018 0.426037,-0.50635 0.540726,-0.72923 0.149705,-0.29093 0.251728,-0.41301 0.493064,-0.59002 0.250256,-0.18356 0.341653,-0.29607 0.514622,-0.63349 0.182888,-0.35676 0.251463,-0.43749 0.525725,-0.61884 0.323261,-0.21375 0.349219,-0.24783 0.572401,-0.75135 0.08048,-0.18158 0.262408,-0.4306897 0.478315,-0.6549697 0.251379,-0.26112 0.404462,-0.48082 0.549584,-0.78874 0.173475,-0.36806 0.243626,-0.45822 0.50982,-0.6552 0.23327,-0.17261 0.358147,-0.31745 0.511239,-0.59295 0.172125,-0.30976 0.243253,-0.38575 0.473225,-0.50556 0.548475,-0.28573 0.55289,-0.35093 0.04152,-0.61316 -0.292277,-0.14987 -0.381255,-0.22906 -0.545444,-0.48541 -0.220121,-0.34368 -0.348141,-0.42542 -0.802837,-0.51265 -0.544144,-0.10439 -0.631484,-0.14953 -0.978615,-0.50579 -0.314291,-0.32256 -0.367197,-0.35518 -0.757539,-0.4671 -0.544642,-0.15616 -0.674458,-0.22362 -0.994985,-0.51701 -0.433659,-0.39695 -0.691699,-0.47889 -1.685628,-0.53529 -0.699219,-0.0397 -0.934862,-0.10819 -1.688898,-0.49106 l -0.637287,-0.32359 h -1.065261 -1.06526 l -0.637286,0.32359 c -0.754037,0.38287 -0.9896786,0.45138 -1.6888986,0.49106 -0.993929,0.0564 -1.251969,0.13834 -1.685628,0.53529 -0.320527,0.29339 -0.450343,0.36085 -0.994985,0.51701 -0.390342,0.11192 -0.443247,0.14454 -0.757539,0.4671 -0.347131,0.35626 -0.43447,0.4014 -0.978615,0.50579 -0.454696,0.0872 -0.582716,0.16897 -0.802836,0.51265 -0.164189,0.25635 -0.253167,0.33554 -0.545445,0.48541 -0.511374,0.26223 -0.506959,0.32743 0.04152,0.61316 0.229971,0.11981 0.3011,0.1958 0.473225,0.50556 0.153092,0.2755 0.277969,0.42034 0.511239,0.59295 0.266194,0.19698 0.336345,0.28714 0.509819,0.6552 0.145123,0.30792 0.298206,0.52762 0.549584,0.78874 0.215908,0.22428 0.397832,0.4733897 0.478315,0.6549697 0.223182,0.50352 0.24914,0.5376 0.572401,0.75135 0.274262,0.18135 0.342838,0.26208 0.525726,0.61884 0.171112,0.3338 0.265271,0.45058 0.505068,0.6264 0.227679,0.16694 0.34021,0.30119 0.494549,0.59003 0.114336,0.21397 0.349724,0.52893 0.55028,0.73631 0.331145,0.34242 0.425878,0.49061 0.673099,1.05298 0.07954,0.18093 0.175154,0.28199 0.412526,0.43603 0.304664,0.19771 0.348656,0.25641 0.5973306,0.79704 0.08065,0.17535 0.183847,0.28579 0.394595,0.4223 0.178669,0.11574 0.353287,0.28843 0.466984,0.46183 0.292662,0.44635 0.282121,0.44302 1.404844,0.44302 0.915802,0 0.989457,-0.007 1.120444,-0.10759 z m -3.7135576,-4.67031 c -0.248166,-0.0681 -0.513747,-0.35489 -0.513747,-0.55478 0,-0.24671 0.262575,-1.35125 0.360296,-1.51561 0.05032,-0.0846 0.20871,-0.22872 0.3519706,-0.3201797 0.289893,-0.18506 0.418449,-0.38488 0.553635,-0.86051 0.08767,-0.30847 0.08727,-0.32623 -0.0124,-0.54376 -0.193027,-0.4213 -0.407923,-0.68935 -0.7479226,-0.9329 -0.410608,-0.29414 -0.558164,-0.54998 -0.558164,-0.96777 0,-0.33579 0.135941,-0.56855 0.420645,-0.72025 0.156948,-0.0836 0.2691516,-0.0954 0.7624176,-0.0798 0.724387,0.0229 0.969385,0.13089 1.41136,0.62203 0.463353,0.51489 0.547032,0.50729 0.843456,-0.0766 0.251639,-0.4957 0.330461,-0.53262 1.127776,-0.52828 0.780429,0.004 1.053719,0.0667 1.240658,0.28342 0.115876,0.13435 0.13529,0.20619 0.13529,0.5006 0,0.39217 -0.05959,0.5061 -0.354879,0.67844 -0.321407,0.18758 -0.435794,0.3121 -0.589353,0.64152 -0.09771,0.20961 -0.225626,0.3775 -0.389351,0.51102 -0.134109,0.10936 -0.243834,0.2264 -0.243834,0.26008 0,0.0337 0.0849,0.16037 0.188675,0.28155 0.103771,0.12117 0.266917,0.3719 0.362547,0.55716 0.107706,0.20866 0.296718,0.4535897 0.496687,0.6436197 0.285161,0.271 0.337937,0.35348 0.452452,0.70714 0.149302,0.4611 0.169783,0.94 0.04987,1.16622 -0.116541,0.21987 -0.329647,0.30611 -0.756418,0.30611 -0.32872,0 -0.412116,-0.0224 -0.778175,-0.20934 -0.559311,-0.28557 -0.771338,-0.4976 -0.941622,-0.94166 -0.07641,-0.19926 -0.181728,-0.40633 -0.23404,-0.46015 -0.09338,-0.0961 -0.09706,-0.0956 -0.20197,0.0257 -0.05877,0.0679 -0.185068,0.22654 -0.28066,0.35247 -0.106944,0.14089 -0.301549,0.29941 -0.505892,0.41208 -0.19275,0.10628 -0.401831,0.27362 -0.498304,0.39883 -0.09142,0.11864 -0.220069,0.25234 -0.285889,0.29711 -0.150282,0.10222 -0.607034,0.13734 -0.8651236,0.0665 z"
     id="path148"
     inkscape:connector-curvature="0" />
</svg>
