<?xml version="1.0" encoding="UTF-8" standalone="no"?>
<!-- Created with Inkscape (http://www.inkscape.org/) -->

<svg
   xmlns:dc="http://purl.org/dc/elements/1.1/"
   xmlns:cc="http://creativecommons.org/ns#"
   xmlns:rdf="http://www.w3.org/1999/02/22-rdf-syntax-ns#"
   xmlns:svg="http://www.w3.org/2000/svg"
   xmlns="http://www.w3.org/2000/svg"
   xmlns:sodipodi="http://sodipodi.sourceforge.net/DTD/sodipodi-0.dtd"
   xmlns:inkscape="http://www.inkscape.org/namespaces/inkscape"
   version="1.1"
   id="svg22"
   width="25.000002"
   height="19.999983"
   viewBox="0 0 25.000002 19.999983"
   sodipodi:docname="wifiStrength0.svg"
   inkscape:version="0.92.2 5c3e80d, 2017-08-06">
  <metadata
     id="metadata28">
    <rdf:RDF>
      <cc:Work
         rdf:about="">
        <dc:format>image/svg+xml</dc:format>
        <dc:type
           rdf:resource="http://purl.org/dc/dcmitype/StillImage" />
        <dc:title />
      </cc:Work>
    </rdf:RDF>
  </metadata>
  <defs
     id="defs26" />
  <sodipodi:namedview
     pagecolor="#ffffff"
     bordercolor="#666666"
     borderopacity="1"
     objecttolerance="10"
     gridtolerance="10"
     guidetolerance="10"
     inkscape:pageopacity="0"
     inkscape:pageshadow="2"
     inkscape:window-width="1918"
     inkscape:window-height="1028"
     id="namedview24"
     showgrid="false"
     inkscape:pagecheckerboard="true"
     inkscape:zoom="8.6599296"
     inkscape:cx="-50.776074"
     inkscape:cy="35.488865"
     inkscape:window-x="0"
     inkscape:window-y="0"
     inkscape:window-maximized="1"
     inkscape:current-layer="svg22" />
  <g
     id="g22">
    <path
       inkscape:connector-curvature="0"
       id="path127"
       d="M 10.751804,19.877302 C 9.5152606,19.605872 8.9472508,18.280758 8.1206463,17.450036 7.2059311,16.26118 6.3788505,15.001583 5.2677869,13.982424 3.7825266,12.265422 2.6721998,10.243618 1.0483661,8.6381192 0.00260338,7.7025042 -0.45545918,5.9742719 0.85033387,5.0368253 1.7248172,4.0350583 2.6747332,3.1003672 3.9382335,2.6026424 4.7999707,1.7713945 6.1951949,1.8011466 6.92504,0.83216318 8.2485324,0.65752953 9.6003923,0.71185299 10.789161,0.04635715 c 1.344973,-0.02606008 2.775744,-0.22008985 4.068383,0.20324184 1.168864,0.87648601 2.759476,-0.0664362 3.796198,1.06013021 1.161418,0.6015278 2.227389,1.2112363 3.43295,1.798639 1.041864,0.8993455 2.195967,1.80143 2.841631,3.0485643 0.360804,1.5205706 -1.200861,2.5246608 -1.958296,3.633287 -1.13097,1.1353965 -1.798387,2.6181525 -2.90364,3.7765265 -0.852576,1.10976 -1.910725,2.029935 -2.723256,3.179423 -0.979326,1.088887 -2.087155,2.053932 -3.211894,2.988782 -1.091031,0.334 -2.261957,0.324372 -3.379433,0.142351 z m 2.844948,-2.82542 c 0.839223,-0.94157 1.750493,-1.863721 2.417029,-2.922669 0.778885,-1.305817 1.939416,-2.309952 2.799273,-3.557152 C 19.744373,9.5447925 20.267093,8.2082488 21.359999,7.3220397 22.666381,6.4666635 20.789206,5.7413852 20.077141,5.2610308 18.954639,4.7434091 17.879603,4.0206748 16.74453,3.4599413 15.322769,3.5980319 14.122666,2.6168001 12.75979,2.5380547 11.336265,2.3340238 10.222386,3.389378 8.8401077,3.3898298 7.4944233,3.573308 6.4909995,4.5138921 5.3049894,5.0964661 4.5049299,5.5591459 3.3711187,5.9890857 3.0872902,6.8547087 4.2931296,7.6132759 4.9644933,9.0236302 5.867276,10.117454 c 0.8149248,1.253749 1.9365249,2.272614 2.775452,3.511336 0.7404153,1.110572 1.55936,2.172122 2.481272,3.134161 0.66682,0.626365 1.662173,0.373005 2.472752,0.288931 z M 11.2548,14.668972 c -1.3147604,-0.513847 -0.846354,-3.157519 0.744136,-2.651328 1.381623,-0.526384 3.098848,0.428338 2.347285,2.025786 -0.578549,1.210405 -2.066817,0.511728 -3.091421,0.625542 z m 0.01983,-4.1019 C 9.9641035,9.8851437 10.862343,8.1050718 10.61908,6.9390228 10.613114,5.76415 10.139121,3.5806777 11.98161,3.7978809 c 1.168024,-0.1113675 2.769943,-0.014946 2.454033,1.5910835 -0.10149,1.3837986 -0.05303,2.7580255 -0.0048,4.140892 -0.0246,1.4382326 -1.707091,1.0218716 -2.663159,1.0567906 -0.164375,-0.006 -0.328721,-0.01289 -0.493065,-0.01957 z"
       style="fill:#ffffff;stroke-width:0.05191533" />
    <rect
       y="-0.092559308"
       x="-0.11547438"
       height="20"
       width="25"
       id="rect9"
       style="opacity:1;fill:none;fill-opacity:0.97000002" />
  </g>
</svg>
