<?xml version="1.0" encoding="UTF-8" standalone="no"?>
<!-- Created with Inkscape (http://www.inkscape.org/) -->

<svg
   xmlns:dc="http://purl.org/dc/elements/1.1/"
   xmlns:cc="http://creativecommons.org/ns#"
   xmlns:rdf="http://www.w3.org/1999/02/22-rdf-syntax-ns#"
   xmlns:svg="http://www.w3.org/2000/svg"
   xmlns="http://www.w3.org/2000/svg"
   xmlns:sodipodi="http://sodipodi.sourceforge.net/DTD/sodipodi-0.dtd"
   xmlns:inkscape="http://www.inkscape.org/namespaces/inkscape"
   version="1.1"
   id="svg42"
   width="24.999998"
   height="19.999996"
   viewBox="0 0 24.999998 19.999996"
   sodipodi:docname="wifiStrength2.svg"
   inkscape:version="0.92.2 5c3e80d, 2017-08-06">
  <metadata
     id="metadata48">
    <rdf:RDF>
      <cc:Work
         rdf:about="">
        <dc:format>image/svg+xml</dc:format>
        <dc:type
           rdf:resource="http://purl.org/dc/dcmitype/StillImage" />
        <dc:title />
      </cc:Work>
    </rdf:RDF>
  </metadata>
  <defs
     id="defs46" />
  <sodipodi:namedview
     pagecolor="#ffffff"
     bordercolor="#666666"
     borderopacity="1"
     objecttolerance="10"
     gridtolerance="10"
     guidetolerance="10"
     inkscape:pageopacity="0"
     inkscape:pageshadow="2"
     inkscape:window-width="1918"
     inkscape:window-height="1027"
     id="namedview44"
     showgrid="false"
     inkscape:pagecheckerboard="true"
     inkscape:zoom="1.75"
     inkscape:cx="55.765464"
     inkscape:cy="164.1044"
     inkscape:window-x="0"
     inkscape:window-y="0"
     inkscape:window-maximized="1"
     inkscape:current-layer="svg42" />
  <path
     style="fill:#ffffff;stroke-width:0.07555231"
     d="m 11.909079,19.986051 c -0.0607,-0.0162 -0.26736,-0.0513 -0.4593,-0.0779 -0.51283,-0.0712 -0.75728,-0.32483 -0.94644,-0.98204 -0.21022,-0.73041 -0.17489,-1.797131 0.0767,-2.316821 0.45772,-0.9454 0.91303,-1.24004 1.91737,-1.24079 0.75652,-5.3e-4 0.98518,0.118562 1.28477,0.66934 0.11291,0.20757 0.29858,0.48219 0.41261,0.61026 0.5218,0.586041 0.56766,1.240631 0.1483,2.116721 -0.30248,0.63192 -0.57713,0.96554 -0.90125,1.09473 -0.20684,0.0824 -1.34578,0.17644 -1.53279,0.1265 z m -5.2732,-5.395761 c -0.089,-0.0378 -0.32674,-0.18405 -0.52827,-0.32494 -0.20152,-0.14089 -0.51533,-0.34941 -0.69734,-0.46337 -0.50248,-0.31461 -0.59668,-0.56337 -0.59752,-1.57794 -9.1e-4,-1.09263 0.12849,-1.378381 0.79363,-1.752521 0.24264,-0.13648 0.64428,-0.42999 0.89253,-0.6522405 0.70383,-0.63013 0.98216,-0.79338 1.73295,-1.01647 0.38427,-0.114175 1.06769,-0.37566 1.51871,-0.58106 1.01302,-0.46136 1.69928,-0.61613 2.72538,-0.61465 0.94883,10e-4 1.45805,0.1175625 2.38108,0.54328 0.38087,0.17567 1.06932,0.44093 1.52987,0.58948 1.03799,0.33479 1.16515,0.40405 1.70689,0.92966 0.23976,0.23261 0.61811,0.5139705 0.84078,0.6252405 0.22267,0.111262 0.48411,0.3017 0.58098,0.4232 0.42398,0.531751 0.46206,2.353581 0.0614,2.935951 -0.0757,0.110025 -0.46676,0.38208 -0.86902,0.60456 -0.63179,0.34942 -0.78939,0.40492 -1.15721,0.40748 -0.43264,0.003 -0.88234,-0.17021 -1.07374,-0.4136 -0.0508,-0.0646 -0.3299,-0.21359 -0.62021,-0.33109 -0.59887,-0.24238 -0.82135,-0.38617 -1.322,-0.85436 -0.48042,-0.44927 -1.03157,-0.65773 -1.87001,-0.70728 -0.74312,-0.0439 -1.43879,0.0652 -1.85928,0.29155 -0.14381,0.0774 -0.49593,0.33438 -0.78248,0.571 -0.72723,0.60051 -2.42505,1.44853 -2.88667,1.44182 -0.18621,-0.003 -0.4114,-0.0359 -0.50042,-0.0737 z M 1.063739,9.1219385 c -0.50221002,-0.14224 -0.71640002,-0.41967 -0.91068002,-1.17953 -0.21319,-0.8338302 -0.20448,-1.4440903 0.0312,-2.1855305 0.26417,-0.8310601 0.41461,-1.0528202 0.93650002,-1.3804402 0.25043,-0.1572 0.68699,-0.5359101 0.97013,-0.8415803 0.28315,-0.30566 0.70295,-0.6663101 0.93291,-0.8014301 0.22995,-0.13513 0.70578,-0.4773401 1.0574,-0.7604701 0.35161,-0.2831301 0.74435,-0.5611101 0.87274,-0.6177201 0.29865,-0.13169 1.22702,-0.3116902 2.39538,-0.46443017 0.52812,-0.069 1.28508,-0.23586 1.77888,-0.39204 1.29581,-0.40984012 1.85068,-0.49912012074 3.09991,-0.4987701207371 C 13.488479,4.0690926e-4 14.293409,0.11663691 15.475989,0.46921703 c 0.44494,0.13266 1.27232,0.30861 1.83861,0.39099 2.30688,0.33561017 2.59528,0.43664017 3.41002,1.19468027 0.25753,0.23961 0.69264,0.5549201 0.96691,0.7006801 0.35173,0.18693 0.6104,0.4006001 0.87789,0.7251601 0.2345,0.2845302 0.54493,0.5533502 0.81342,0.7043703 0.45448,0.25564 0.64038,0.46955 0.83399,0.9596601 0.0639,0.16177 0.2288,0.4411901 0.36642,0.6209201 0.35994,0.4700802 0.41675,0.6167202 0.41675,1.0757403 0,0.35089 -0.0545,0.5108401 -0.3786,1.1111102 -0.20823,0.38568 -0.45927,0.79357 -0.55787,0.90644 -0.26383,0.302 -0.69648,0.39926 -1.61468,0.36298 -1.02577,-0.0405 -1.24053,-0.14547 -1.62626,-0.79472 -0.2463,-0.41457 -0.36665,-0.53059 -0.83159,-0.80166 -0.29898,-0.1743201 -0.69254,-0.4798602 -0.87456,-0.6789702 -0.45645,-0.4993101 -0.7893,-0.6875101 -1.7283,-0.9772203 -0.44494,-0.13728 -1.11898,-0.41749 -1.49787,-0.6226901 -1.04958,-0.5684501 -1.4952,-0.6513001 -3.50315,-0.6513001 -2.01367,0 -2.23674,0.0419 -3.49336,0.6555001 -0.50562,0.2469101 -1.21568,0.5306901 -1.57791,0.6306101 -0.69003,0.1903702 -1.06296,0.4106602 -1.74612,1.0314703 -0.21448,0.1949101 -0.65358,0.5215802 -0.97576,0.7259302 -0.41246,0.26161 -0.67655,0.49758 -0.89252,0.79747 -0.41561,0.57711 -0.68658,0.69629 -1.57379,0.69222 -0.38427,-0.002 -0.86303,-0.0497 -1.06392,-0.10665 z"
     id="path85"
     inkscape:connector-curvature="0" />
  <path
     style="fill:#000000;stroke-width:1.33333337"
     d=""
     id="path83"
     inkscape:connector-curvature="0" />
</svg>
