<?xml version="1.0" encoding="UTF-8" standalone="no"?>
<!-- Created with Inkscape (http://www.inkscape.org/) -->

<svg
   xmlns:dc="http://purl.org/dc/elements/1.1/"
   xmlns:cc="http://creativecommons.org/ns#"
   xmlns:rdf="http://www.w3.org/1999/02/22-rdf-syntax-ns#"
   xmlns:svg="http://www.w3.org/2000/svg"
   xmlns="http://www.w3.org/2000/svg"
   xmlns:sodipodi="http://sodipodi.sourceforge.net/DTD/sodipodi-0.dtd"
   xmlns:inkscape="http://www.inkscape.org/namespaces/inkscape"
   version="1.1"
   id="svg32"
   width="24.999983"
   height="20.000004"
   viewBox="0 0 24.999983 20.000004"
   sodipodi:docname="wifiStrength1.svg"
   inkscape:version="0.92.2 5c3e80d, 2017-08-06">
  <metadata
     id="metadata38">
    <rdf:RDF>
      <cc:Work
         rdf:about="">
        <dc:format>image/svg+xml</dc:format>
        <dc:type
           rdf:resource="http://purl.org/dc/dcmitype/StillImage" />
        <dc:title></dc:title>
      </cc:Work>
    </rdf:RDF>
  </metadata>
  <defs
     id="defs36" />
  <sodipodi:namedview
     pagecolor="#ffffff"
     bordercolor="#666666"
     borderopacity="1"
     objecttolerance="10"
     gridtolerance="10"
     guidetolerance="10"
     inkscape:pageopacity="0"
     inkscape:pageshadow="2"
     inkscape:window-width="1918"
     inkscape:window-height="1027"
     id="namedview34"
     showgrid="false"
     inkscape:pagecheckerboard="true"
     inkscape:zoom="9.95"
     inkscape:cx="-9.7576777"
     inkscape:cy="28.088332"
     inkscape:window-x="0"
     inkscape:window-y="0"
     inkscape:window-maximized="1"
     inkscape:current-layer="svg32" />
  <path
     style="fill:#ffffff;stroke-width:0.07547896"
     d="m 11.597975,19.955055 c -0.50427,-0.0727 -0.75031,-0.20417 -0.93227,-0.49826 -0.19516,-0.31541 -0.32387,-0.97886 -0.32473,-1.67374 -7.3e-4,-0.56684 0.029,-0.7269 0.2098,-1.13168 0.43884,-0.98232 0.88396,-1.27618 1.93304,-1.27618 0.74317,0 0.92244,0.10235 1.32652,0.75738 0.17786,0.28832 0.42699,0.6601 0.55361,0.82617 0.20249,0.26558 0.23004,0.35916 0.22865,0.77673 -10e-4,0.41497 -0.0453,0.5623 -0.34902,1.16956 -0.30341,0.60674 -0.38919,0.71681 -0.67688,0.86859 -0.38801,0.2047 -1.25367,0.28447 -1.96872,0.18143 z m 5.52834,-5.25478 c -0.0798,-0.0233 -0.32732,-0.1734 -0.55011,-0.33361 -0.22279,-0.1602 -0.65953,-0.40345 -0.97054,-0.54055 -0.3716,-0.16381 -0.71552,-0.39106 -1.00313,-0.66282 -0.66048,-0.6241 -1.08136,-0.77187 -2.20877,-0.77551 -1.15279,-0.004 -1.47629,0.10635 -2.32284,0.79039 -0.344,0.27796 -0.87801,0.62492 -1.18669,0.77102 -0.30868,0.1461 -0.74695,0.36943 -0.97395,0.49629 -0.55926,0.31256 -1.09406,0.32051 -1.50241,0.0223 -0.1569,-0.11457 -0.49854,-0.33306 -0.75918,-0.48555 -0.26463,-0.15481 -0.5459,-0.39039 -0.63697,-0.5335 -0.19857,-0.31204 -0.28163,-0.94202 -0.21554,-1.63493 0.0727,-0.76171 0.21188,-0.98674 0.84735,-1.36949 0.29796,-0.17947 0.7266,-0.5020803 0.95252,-0.7169203 0.51282,-0.48765 0.96925,-0.73491 1.82932,-0.99099 0.37033,-0.11027 0.9578,-0.33966 1.3055,-0.50977 0.96224,-0.47078 1.27773,-0.55003 2.37663,-0.597 1.17557,-0.0503 1.79833,0.0645 2.62453,0.48385 0.28949,0.14691 0.91067,0.39417 1.38041,0.54946 1.22102,0.40365 1.46984,0.53309 1.94263,1.01066 0.23159,0.23393 0.54607,0.4799503 0.69884,0.5467103 0.7857,0.34335 0.9879,0.69891 1.03207,1.81491 0.0402,1.01646 -0.0475,1.38968 -0.41619,1.77115 -0.46401,0.48004 -1.81588,1.01865 -2.24348,0.89386 z"
     id="path106"
     inkscape:connector-curvature="0"
     sodipodi:nodetypes="ccccsccccccccccccscccccccccccccccccc" />
</svg>
