<?xml version="1.0" encoding="UTF-8" standalone="no"?>
<!-- Created with Inkscape (http://www.inkscape.org/) -->

<svg
   xmlns:dc="http://purl.org/dc/elements/1.1/"
   xmlns:cc="http://creativecommons.org/ns#"
   xmlns:rdf="http://www.w3.org/1999/02/22-rdf-syntax-ns#"
   xmlns:svg="http://www.w3.org/2000/svg"
   xmlns="http://www.w3.org/2000/svg"
   xmlns:sodipodi="http://sodipodi.sourceforge.net/DTD/sodipodi-0.dtd"
   xmlns:inkscape="http://www.inkscape.org/namespaces/inkscape"
   version="1.1"
   id="svg12"
   width="25"
   height="19.99999"
   viewBox="0 0 25 19.99999"
   sodipodi:docname="wifiOff.svg"
   inkscape:version="0.92.2 2405546, 2018-03-11">
  <metadata
     id="metadata18">
    <rdf:RDF>
      <cc:Work
         rdf:about="">
        <dc:format>image/svg+xml</dc:format>
        <dc:type
           rdf:resource="http://purl.org/dc/dcmitype/StillImage" />
        <dc:title />
      </cc:Work>
    </rdf:RDF>
  </metadata>
  <defs
     id="defs16" />
  <sodipodi:namedview
     pagecolor="#ffffff"
     bordercolor="#666666"
     borderopacity="1"
     objecttolerance="10"
     gridtolerance="10"
     guidetolerance="10"
     inkscape:pageopacity="0"
     inkscape:pageshadow="2"
     inkscape:window-width="1918"
     inkscape:window-height="1028"
     id="namedview14"
     showgrid="false"
     inkscape:pagecheckerboard="true"
     inkscape:zoom="8.66"
     inkscape:cx="2.4142528"
     inkscape:cy="8.2530152"
     inkscape:window-x="0"
     inkscape:window-y="0"
     inkscape:window-maximized="1"
     inkscape:current-layer="layer2" />
  <g
     inkscape:groupmode="layer"
     id="layer2"
     inkscape:label="Layer 2">
    <path
       style="opacity:1;vector-effect:none;fill:#ffffff;fill-opacity:1;stroke:#ffff00;stroke-width:36.81435013;stroke-linecap:butt;stroke-linejoin:miter;stroke-miterlimit:4;stroke-dasharray:none;stroke-dashoffset:75.59055328;stroke-opacity:0"
       d="M 12.449697,0.10546875 C 7.3857896,0.2250282 3.1555795,2.6599734 0.48648613,6.9650161 L 0.54344688,7.5 c 0.0281687,0.1999559 0.0914632,0.3951054 0.23046875,0.5625 L 10.258291,19.482422 c 0.303286,0.365227 1.085195,0.546957 1.509765,0.410156 0.09757,0.02886 -0.107174,0 0,0 H 13.5454 c 0.463205,0 0.848757,-0.292757 1.001953,-0.701172 0.154414,-0.06824 0.298498,-0.161615 0.414063,-0.300781 L 24.445791,7.4707031 C 24.576638,7.313133 24.639824,7.1309642 24.672353,6.9433594 l 0.06087,-0.4706046 C 21.86428,2.2982453 17.513604,-0.01366201 12.449697,0.10546875 Z m 0.07031,3.00000005 c 3.264922,-0.075726 6.41968,1.1825093 8.736329,3.484375 l -8.61328,10.3750002 c -0.10413,0.125397 -0.173208,0.267189 -0.214843,0.414062 L 3.8832907,7.0878906 C 6.0908196,4.627537 9.215479,3.1867453 12.520009,3.1054688 Z m -2.330078,2.65625 C 9.914423,5.7688594 9.6416622,5.8830291 9.436025,6.0996094 L 9.385244,6.1523434 C 8.9739694,6.5855043 8.9911458,7.2645069 9.4243063,7.6757812 L 10.822744,9.0019531 9.4243063,10.330078 c -0.4331605,0.411274 -0.4503369,1.090277 -0.039063,1.523438 l 0.050781,0.05273 c 0.4112744,0.433161 1.0902767,0.450337 1.5234377,0.03906 l 1.482422,-1.40625 1.480468,1.40625 c 0.433161,0.411275 1.112163,0.394099 1.523438,-0.03906 l 0.05078,-0.05273 c 0.411274,-0.433161 0.394098,-1.112164 -0.03906,-1.523438 L 14.059072,9.0019531 15.457509,7.6757812 c 0.433161,-0.4112743 0.450337,-1.0902769 0.03906,-1.5234374 l -0.05078,-0.052734 c -0.411275,-0.4331605 -1.090277,-0.45229 -1.523438,-0.041016 l -1.480468,1.40625 -1.482422,-1.40625 C 10.742882,5.8529566 10.46544,5.7545781 10.189931,5.7617188 Z"
       id="path815"
       inkscape:connector-curvature="0"
       sodipodi:nodetypes="ccccccssccccccccccccsccccccccccccccccccccs" />
  </g>
</svg>
