<?xml version="1.0" encoding="UTF-8" standalone="no"?>
<!-- Created with Inkscape (http://www.inkscape.org/) -->

<svg
   xmlns:dc="http://purl.org/dc/elements/1.1/"
   xmlns:cc="http://creativecommons.org/ns#"
   xmlns:rdf="http://www.w3.org/1999/02/22-rdf-syntax-ns#"
   xmlns:svg="http://www.w3.org/2000/svg"
   xmlns="http://www.w3.org/2000/svg"
   xmlns:sodipodi="http://sodipodi.sourceforge.net/DTD/sodipodi-0.dtd"
   xmlns:inkscape="http://www.inkscape.org/namespaces/inkscape"
   version="1.1"
   id="svg52"
   width="25.000006"
   height="19.99999"
   viewBox="0 0 25.000006 19.99999"
   sodipodi:docname="wifiStrength3.svg"
   inkscape:version="0.92.2 5c3e80d, 2017-08-06">
  <metadata
     id="metadata58">
    <rdf:RDF>
      <cc:Work
         rdf:about="">
        <dc:format>image/svg+xml</dc:format>
        <dc:type
           rdf:resource="http://purl.org/dc/dcmitype/StillImage" />
        <dc:title />
      </cc:Work>
    </rdf:RDF>
  </metadata>
  <defs
     id="defs56" />
  <sodipodi:namedview
     pagecolor="#ffffff"
     bordercolor="#666666"
     borderopacity="1"
     objecttolerance="10"
     gridtolerance="10"
     guidetolerance="10"
     inkscape:pageopacity="0"
     inkscape:pageshadow="2"
     inkscape:window-width="1918"
     inkscape:window-height="1027"
     id="namedview54"
     showgrid="false"
     inkscape:pagecheckerboard="true"
     inkscape:zoom="1.52"
     inkscape:cx="-127.68115"
     inkscape:cy="254.35367"
     inkscape:window-x="0"
     inkscape:window-y="0"
     inkscape:window-maximized="1"
     inkscape:current-layer="svg52" />
  <path
     style="fill:#ffffff;stroke-width:0.05362582"
     d="m 12.028526,19.969042 c -0.520342,-0.0764 -0.700016,-0.30022 -0.840979,-1.04744 -0.114318,-0.60599 -0.07367,-0.91266 0.193616,-1.46061 0.301526,-0.61816 0.560483,-0.77523 1.284308,-0.77899 0.45945,-0.002 0.694386,0.10026 0.826592,0.36116 0.04749,0.0937 0.220702,0.36363 0.384916,0.59981 0.279272,0.40165 0.298569,0.44928 0.298569,0.73686 0,0.25792 -0.03973,0.39002 -0.246644,0.82001 -0.218517,0.45411 -0.273291,0.52681 -0.480307,0.63745 -0.269327,0.14395 -0.92371,0.20466 -1.420071,0.13175 z m 3.939615,-3.75156 c -0.05647,-0.0166 -0.231716,-0.12357 -0.389438,-0.2378 -0.157721,-0.11423 -0.46691,-0.28767 -0.687085,-0.38543 -0.263072,-0.1168 -0.506542,-0.27882 -0.710149,-0.4726 -0.191693,-0.18243 -0.425133,-0.34089 -0.612221,-0.41558 -0.574641,-0.22941 -1.621167,-0.20343 -2.088488,0.0518 -0.10288,0.0562 -0.363842,0.24797 -0.579917,0.42617 -0.417319,0.34416 -0.463561,0.37215 -1.2627108,0.76438 -0.6908106,0.33905 -0.9078651,0.34144 -1.3927206,0.0153 -0.1915038,-0.1288 -0.4528044,-0.30072 -0.580667,-0.38204 -0.1278623,-0.0813 -0.271105,-0.22753 -0.3183166,-0.3249 -0.1156203,-0.23847 -0.1561319,-0.89329 -0.079573,-1.28619 0.076968,-0.39499 0.2305306,-0.59612 0.6274023,-0.82174 0.1681617,-0.0956 0.4410398,-0.30438 0.6063964,-0.46396 0.3721221,-0.35912 0.6926531,-0.53527 1.3119862,-0.72099 0.2644901,-0.0793 0.6607321,-0.24066 0.8805371,-0.35853 0.690184,-0.37012 0.902982,-0.41684 1.898655,-0.41684 0.979896,0 1.209931,0.0483 1.83684,0.3858 0.189208,0.10186 0.58496,0.26379 0.879448,0.35986 0.776013,0.25315 0.954695,0.3476 1.302187,0.68833 0.171414,0.16808 0.451012,0.38062 0.621327,0.47232 0.49944,0.2689 0.628927,0.56709 0.627045,1.44397 -0.0018,0.84018 -0.150591,1.06608 -0.951419,1.4445 -0.463681,0.21911 -0.748344,0.29007 -0.939119,0.23411 z m 3.413335,-3.89655 c -0.429143,-0.0608 -0.579305,-0.16517 -0.832299,-0.5785 -0.177588,-0.29014 -0.277475,-0.38624 -0.621323,-0.59778 -0.239735,-0.14748 -0.48676,-0.35234 -0.595421,-0.49378 -0.230164,-0.29958 -0.575272,-0.48432 -1.315669,-0.7042999 -0.311564,-0.0926 -0.800721,-0.29083 -1.087017,-0.44058 -0.761841,-0.3985 -0.89633,-0.42265 -2.337915,-0.41983 -1.457752,0.003 -1.662415,0.0414 -2.479331,0.46723 -0.2927777,0.15262 -0.7755532,0.35378 -1.0728347,0.4470299 -0.6755275,0.2119 -0.7299176,0.24245 -1.2162931,0.68331 -0.2185951,0.19814 -0.5522746,0.45261 -0.7415099,0.56548 -0.2437657,0.1454 -0.4139883,0.30126 -0.5839368,0.53468 -0.3280373,0.45054 -0.5086073,0.53969 -1.0930931,0.53969 -0.6007815,0 -0.9615375,-0.084 -1.1551015,-0.26886 -0.2052016,-0.196 -0.357719,-0.69606 -0.3926538,-1.28738 -0.030999,-0.52471 0.031002,-0.8086099 0.303576,-1.3900599 0.128607,-0.27434 0.1953664,-0.34517 0.5101971,-0.54128 0.2069996,-0.12894 0.4575812,-0.34576 0.5847362,-0.50594 0.1223802,-0.15416 0.3977562,-0.40639 0.6119471,-0.5605 0.214191,-0.15412 0.5924156,-0.43994 0.8404986,-0.63517 0.6389471,-0.50281 0.7079583,-0.52357 2.8341684,-0.8528 0.207583,-0.0321 0.6982745,-0.16158 1.0904265,-0.28765 l 0.713003,-0.22921 1.168314,-3.7e-4 c 1.240739,-3.8e-4 1.163274,-0.0113 2.440479,0.34458 0.328426,0.0915 0.889217,0.20787 1.246202,0.25855 1.431858,0.20325 1.801862,0.33752 2.285231,0.82927 0.160485,0.16327 0.457748,0.38599 0.660585,0.49494 0.26242,0.14095 0.441176,0.28794 0.619736,0.50959 0.138018,0.17132 0.3586,0.37004 0.490183,0.4416 0.371432,0.20199 0.556094,0.39713 0.751833,0.7945 0.09924,0.20147 0.255655,0.47445 0.347593,0.6066099 0.253998,0.36514 0.23298,0.66578 -0.09161,1.3104 -0.291015,0.57794 -0.400153,0.72176 -0.649915,0.85644 -0.223055,0.12029 -0.798254,0.17166 -1.232782,0.1101 z M 0.986577,8.1243421 C 0.772386,8.0040121 0.4933525,7.8872721 0.3665023,7.8649221 0.2396522,7.8426221 0.1052961,7.7917221 0.067933,7.7518421 0.016965,7.6974421 0,7.4284621 0,6.6745921 c 0,-1.05412 0.022429,-1.16302 0.2395223,-1.16302 0.1789157,0 0.515532,-0.2233 0.6432042,-0.42668 0.2347463,-0.37394 0.428348,-0.57534 0.687919,-0.71563 0.1407472,-0.0761 0.4405725,-0.32251 0.666278,-0.54764 0.3131086,-0.31231 0.5366254,-0.47582 0.9430467,-0.68985 0.2929702,-0.15429 0.6664709,-0.40246 0.8300015,-0.5515 0.2063921,-0.18809 0.4049048,-0.3085 0.6490638,-0.3937 0.5699742,-0.1989 1.061285,-0.46104 1.3298797,-0.70957 0.3377845,-0.31256 0.4766192,-0.36661 1.5369797,-0.59832998 0.501562,-0.10961 1.1806432,-0.2937 1.5090695,-0.4091 0.8783407,-0.30861 1.2670026,-0.38142 2.3767736,-0.44529 1.141256,-0.0657 3.170214,0.009 3.78265,0.13911 0.203377,0.0432 0.639648,0.17812 0.969491,0.29976 0.329843,0.12163 0.946214,0.29862 1.369713,0.3933 1.0304,0.23037998 1.198019,0.29497998 1.611157,0.62096998 0.445106,0.35121 0.519641,0.39183 1.056223,0.57556 0.557204,0.19079 0.734726,0.28946 1.088312,0.60493 0.157073,0.14014 0.519251,0.3796 0.804838,0.53214 0.391398,0.20905 0.583178,0.35139 0.778877,0.57806 0.147745,0.17114 0.416257,0.39341 0.623101,0.51581 0.273045,0.16157 0.41515,0.29175 0.571176,0.52326 0.114235,0.1695 0.332492,0.41215 0.485016,0.53923 0.387196,0.3226 0.445047,0.4907 0.447567,1.30049 0.0024,0.75577 -0.02308,0.89384 -0.207749,1.12792 -0.187443,0.2376 -0.857798,0.50586 -1.264077,0.50586 -0.277364,0 -0.370085,-0.0343 -0.907458,-0.3353 -0.385347,-0.21587 -0.656555,-0.4082 -0.76144,-0.53998 -0.36181,-0.45457 -0.484449,-0.56225 -0.743365,-0.65268 -0.42726,-0.14922 -0.815414,-0.38008 -1.148609,-0.68315 -0.221623,-0.20159 -0.447439,-0.33857 -0.794783,-0.48212 -0.361599,-0.14943 -0.555901,-0.26943 -0.762738,-0.47105 -0.369655,-0.36034 -0.712407,-0.51811 -1.542169,-0.70988 -0.685299,-0.15838 -0.962331,-0.24444 -1.689708,-0.52491 -0.593459,-0.22883 -1.249504,-0.30775 -2.559968,-0.30794 -1.67108,-2.5e-4 -2.013927,0.056 -3.3232048,0.54552 -0.24275,0.0908 -0.7568083,0.23996 -1.142352,0.33156 -0.8554121,0.20324 -1.086507,0.30532 -1.4540244,0.64223 -0.3114127,0.28548 -0.5196031,0.41355 -0.9541393,0.58695 -0.1820701,0.0727 -0.4147859,0.2384 -0.6482498,0.46168 -0.2970949,0.28413 -0.458101,0.38759 -0.873697,0.56139 -0.5160913,0.21583 -0.553908,0.24613 -1.0834453,0.86803 -0.1944135,0.22832 -1.1887376,0.71542 -1.5290045,0.74903 -0.1957869,0.0193 -0.2967896,-0.0124 -0.6231009,-0.19572 z"
     id="path62"
     inkscape:connector-curvature="0" />
</svg>
