<?xml version="1.0" encoding="UTF-8" standalone="no"?>
<!-- Created with Inkscape (http://www.inkscape.org/) -->

<svg
   xmlns:dc="http://purl.org/dc/elements/1.1/"
   xmlns:cc="http://creativecommons.org/ns#"
   xmlns:rdf="http://www.w3.org/1999/02/22-rdf-syntax-ns#"
   xmlns:svg="http://www.w3.org/2000/svg"
   xmlns="http://www.w3.org/2000/svg"
   xmlns:sodipodi="http://sodipodi.sourceforge.net/DTD/sodipodi-0.dtd"
   xmlns:inkscape="http://www.inkscape.org/namespaces/inkscape"
   version="1.1"
   id="svg2"
   width="41.333332"
   height="26.666668"
   viewBox="0 0 41.333332 26.666668"
   sodipodi:docname="batteryCharging_0.svg"
   inkscape:version="0.92.2 5c3e80d, 2017-08-06">
  <metadata
     id="metadata8">
    <rdf:RDF>
      <cc:Work
         rdf:about="">
        <dc:format>image/svg+xml</dc:format>
        <dc:type
           rdf:resource="http://purl.org/dc/dcmitype/StillImage" />
        <dc:title />
      </cc:Work>
    </rdf:RDF>
  </metadata>
  <defs
     id="defs6" />
  <sodipodi:namedview
     pagecolor="#ffffff"
     bordercolor="#666666"
     borderopacity="1"
     objecttolerance="10"
     gridtolerance="10"
     guidetolerance="10"
     inkscape:pageopacity="0"
     inkscape:pageshadow="2"
     inkscape:window-width="1918"
     inkscape:window-height="1027"
     id="namedview4"
     showgrid="false"
     inkscape:pagecheckerboard="true"
     inkscape:zoom="20.05"
     inkscape:cx="-7.662511"
     inkscape:cy="7.2771681"
     inkscape:window-x="0"
     inkscape:window-y="0"
     inkscape:window-maximized="1"
     inkscape:current-layer="svg2" />
  <g
     id="g26">
    <path
       style="fill:#ffffff;stroke-width:1.33333337"
       d="M 18.666666,24.000001 H 2.6666666 V 13.333334 2.6666668 h 15.9999994 16 v 2.6666668 2.6666668 h 1.999999 2 v 5.3333336 5.333334 h -2 -1.999999 v 2.666666 2.666667 z m 0,-2.666667 h 13.333333 v -8 -8.0000004 H 18.666666 5.3333332 v 8.0000004 8 z m 0,-2.666666 h -1.333333 v -2 -2.000001 H 14.666666 12 v -1.333333 -1.333333 h 2.666666 2.666667 v -2 -2.0000006 h 1.333333 1.333333 v 2.0000006 2 h 2.666667 2.666667 v 1.333333 1.333333 h -2.666667 -2.666667 v 2.000001 2 z"
       id="path30"
       inkscape:connector-curvature="0" />
    <path
       style="fill:#000000;stroke-width:1.33333337"
       d="M 18.666666,21.333334 H 5.3333332 v -8 -8.0000004 H 18.666666 31.999999 v 8.0000004 8 z m 0,-2.666666 h 1.333333 v -2 -2.000001 h 2.666667 2.666667 v -1.333333 -1.333333 h -2.666667 -2.666667 v -2 -2.0000006 h -1.333333 -1.333333 v 2.0000006 2 H 14.666666 12 v 1.333333 1.333333 h 2.666666 2.666667 v 2.000001 2 z"
       id="path28"
       inkscape:connector-curvature="0" />
  </g>
</svg>
